<svg width="443" height="358" viewBox="0 0 443 358" fill="none" xmlns="http://www.w3.org/2000/svg">
<path opacity="0.1" d="M53.2904 41.7354C57.3276 17.6465 78.1778 0 102.603 0H392.285C419.899 0 442.285 22.3858 442.285 50V308C442.285 335.614 419.899 358 392.285 358H59.3624C28.4471 358 4.94011 330.225 10.0502 299.735L53.2904 41.7354Z" fill="#68C9BA"/>
<path d="M410.012 94.0293C435.737 123.207 405.362 151.381 351.901 152.141C245.615 145.137 221.63 51.0072 229.663 29.9026C237.695 8.79799 261.614 8.22194 297.053 51.2149C332.492 94.2079 377.857 57.5571 410.012 94.0293Z" stroke="white" stroke-width="1.5"/>
<path d="M321.391 65.1105C319.446 70.2533 310.814 71.7538 302.111 68.4619C293.407 65.1701 287.929 58.3324 289.874 53.1896C291.819 48.0468 300.452 46.5463 309.155 49.8382C317.858 53.1301 323.336 59.9677 321.391 65.1105Z" stroke="white" stroke-width="1.5"/>
</svg>
