<?xml version="1.0" standalone="no"?>
<!DOCTYPE svg PUBLIC "-//W3C//DTD SVG 1.1//EN" "http://www.w3.org/Graphics/SVG/1.1/DTD/svg11.dtd" >
<svg xmlns="http://www.w3.org/2000/svg" xmlns:xlink="http://www.w3.org/1999/xlink" version="1.1">
<metadata>
Created by FontForge 20170731 at Fri Nov 23 14:17:45 2018
 By Aleksey,,,
Copyright (c) 2018 by TypeUnion. All rights reserved. Desktop use is strictly prohibited.
</metadata>
<defs>
<font id="Neometric-Light" horiz-adv-x="1452" >
  <font-face 
    font-family="Neometric Light"
    font-weight="300"
    font-stretch="normal"
    units-per-em="2048"
    panose-1="0 0 4 0 0 0 0 0 0 0"
    ascent="1638"
    descent="-410"
    x-height="1126"
    cap-height="1434"
    bbox="-710 -472 2847 2130"
    underline-thickness="0"
    underline-position="0"
    unicode-range="U+0020-25CA"
  />
<missing-glyph horiz-adv-x="1024" 
d="M190 1638h650v-2048h-650v2048zM682 1434v67h-338v-67h133v-76h-135v-68h340v68h-135v76h135zM547 1094v143h-205v-213h340v70h-135zM410 1167h67v-73h-67v73zM682 901v68h-340v-68h135v-76h-135v-67h205v143h135zM682 641v205h-68v-135h-272v-70h340zM682 365v231h-205
v-115h70v47h67v-96h-204v164h-68v-231h340zM682 10v232h-340v-232h340zM410 174h204v-96h-204v96zM682 -104v67h-340v-67h143l-143 -97v-67h340v67h-209l143 97h66z" />
    <glyph glyph-name="f_f.liga" unicode="ff" horiz-adv-x="1798" 
d="M1464 1449q-82 -2 -117 -51t-35 -154v-118h327v-95h-327v-1031h-117v1031h-736v-1031h-116v1031h-184v95h184v116q0 156 59 228.5t197 72.5q87 0 187 -20v-89q-87 22 -175 15q-82 -2 -117 -51t-35 -154v-118h736v116q0 155 59.5 228t197.5 73q87 0 187 -20v-89
q-89 23 -175 15z" />
    <glyph glyph-name="f_f_i.liga" unicode="ffi" horiz-adv-x="2270" 
d="M1312 1126h799v-1126h-116v1031h-683v-1031h-117v1031h-736v-1031h-116v1031h-184v95h184v116q0 156 59 228.5t197 72.5q87 0 187 -20v-89q-87 22 -175 15q-82 -2 -117 -51t-35 -154v-118h736v116q0 155 59.5 228t197.5 73q87 0 187 -20v-89q-89 23 -175 15
q-82 -2 -117 -51t-35 -154v-118zM2111 1356q-17 -19 -42 -23t-47 5t-37 29.5t-13 46.5q0 33 23.5 56.5t57.5 23.5t57.5 -23.5t23.5 -56.5q0 -35 -23 -58z" />
    <glyph glyph-name="f_i.liga" unicode="fi" horiz-adv-x="1418" 
d="M459 1126h799v-1126h-116v1031h-683v-1031h-116v1031h-184v95h184v116q0 156 59 228.5t197 72.5q87 0 187 -20v-89q-87 22 -175 15q-82 -2 -117 -51t-35 -154v-118zM1258 1356q-17 -19 -42 -23t-47 5t-37 29.5t-13 46.5q0 33 23.5 56.5t57.5 23.5t57.5 -23.5t23.5 -56.5
q0 -35 -23 -58z" />
    <glyph glyph-name=".notdef" horiz-adv-x="1024" 
d="M190 1638h650v-2048h-650v2048zM682 1434v67h-338v-67h133v-76h-135v-68h340v68h-135v76h135zM547 1094v143h-205v-213h340v70h-135zM410 1167h67v-73h-67v73zM682 901v68h-340v-68h135v-76h-135v-67h205v143h135zM682 641v205h-68v-135h-272v-70h340zM682 365v231h-205
v-115h70v47h67v-96h-204v164h-68v-231h340zM682 10v232h-340v-232h340zM410 174h204v-96h-204v96zM682 -104v67h-340v-67h143l-143 -97v-67h340v67h-209l143 97h66z" />
    <glyph glyph-name="glyph1" horiz-adv-x="0" 
 />
    <glyph glyph-name="glyph2" horiz-adv-x="681" 
 />
    <glyph glyph-name="space" unicode=" " horiz-adv-x="512" 
 />
    <glyph glyph-name="exclam" unicode="!" horiz-adv-x="480" 
d="M291 364h-102l-7 1070h116zM241 158q33 0 56.5 -23.5t23.5 -57.5q0 -33 -23.5 -57t-56.5 -24q-34 0 -58 23.5t-24 57.5t24 57.5t58 23.5z" />
    <glyph glyph-name="quotedbl" unicode="&#x22;" horiz-adv-x="772" 
d="M305 1000h-101l-8 434h116zM568 1000h-100l-8 434h117z" />
    <glyph glyph-name="numbersign" unicode="#" horiz-adv-x="1796" 
d="M1601 1022l-27 -100h-311l-105 -410h324l-28 -100h-322l-106 -412h-122l106 412h-384l-106 -412h-122l106 412h-308l27 100h307l105 410h-320l27 100h320l105 412h122l-106 -412h384l106 412h122l-106 -412h312zM652 512h384l105 410h-384z" />
    <glyph glyph-name="dollar" unicode="$" horiz-adv-x="1314" 
d="M673 785q20 -6 49 -15.5t37 -12.5q12 -5 39 -14.5t38 -13.5q52 -19 72 -29q90 -43 121 -67q85 -64 110 -136q23 -54 21 -132q-3 -174 -126 -270q-124 -97 -325 -106v-132h-102v133q-174 14 -297 102t-155 237l121 15q35 -121 143 -186q107 -67 249 -67q162 0 263 70
q100 69 105 203q1 78 -39 139q-32 48 -114 95q-57 31 -164 68q-46 15 -94 29q-63 19 -103 33q-51 18 -89 34q-48 18 -79 38q-31 19 -62 45q-45 38 -64.5 88.5t-23.5 127.5q0 169 111 269q111 101 292 114v133h102v-132q155 -11 261.5 -92t148.5 -223l-122 -16
q-43 109 -131 171t-203 62q-151 0 -243 -77q-93 -78 -93 -212q0 -65 33 -115q22 -34 93 -76q22 -13 65 -30q19 -7 72 -26l21 -7t30.5 -9.5t31.5 -9.5z" />
    <glyph glyph-name="percent" unicode="%" horiz-adv-x="2078" 
d="M852 753q-121 -116 -289 -116q-169 0 -288 116q-120 115 -120 285q0 172 120 287q118 115 288 115t289 -115q120 -116 120 -287q0 -170 -120 -285zM744 25l524 1409l66 -25l-523 -1409zM563 728q127 0 218 91q90 90 90 219q0 130 -90 221q-91 91 -218 91q-128 0 -218 -91
t-90 -221q0 -129 90 -219q90 -91 218 -91zM1514 -6q-170 0 -288 115q-119 116 -119 286q0 171 120 286q119 116 288 116q167 0 289 -116q120 -116 120 -286q0 -171 -120 -286q-119 -115 -290 -115zM1298 175q90 -91 217 -91q126 0 217 91t91 220t-90 220q-91 91 -219 91
q-127 0 -217 -91t-90 -220t91 -220z" />
    <glyph glyph-name="ampersand" unicode="&#x26;" horiz-adv-x="1542" 
d="M1189 213l197 -213h-131l-135 145q-184 -154 -457 -153q-489 0 -504 323q-16 270 386 450q-127 138 -174 222q-47 86 -43 184q4 133 101 204.5t266 71.5q156 0 257 -71q99 -71 104 -202q7 -117 -97 -235q-103 -116 -263 -197l423 -455q96 126 98 305l102 -8
q0 -217 -130 -371zM695 1366q-119 0 -189.5 -54t-70.5 -152q0 -87 48 -162q44 -72 158 -196q125 82 206 162q50 49 78.5 100.5t27.5 95.5q-1 99 -72 153q-73 53 -186 53zM680 84q229 9 374 133l-448 481q-337 -174 -328 -361q8 -257 402 -253z" />
    <glyph glyph-name="quotesingle" unicode="'" horiz-adv-x="508" 
d="M305 1000h-101l-8 434h116z" />
    <glyph glyph-name="parenleft" unicode="(" horiz-adv-x="668" 
d="M349 1556h123q-308 -993 0 -1986h-123q-307 993 0 1986z" />
    <glyph glyph-name="parenright" unicode=")" horiz-adv-x="668" 
d="M196 1556h122q308 -993 0 -1986h-122q308 993 0 1986z" />
    <glyph glyph-name="asterisk" unicode="*" horiz-adv-x="952" 
d="M541 1224h215v-75h-215l107 -186l-64 -37l-108 186l-107 -186l-65 37l108 186h-216v75h216l-108 186l65 38l107 -186l108 186l64 -38z" />
    <glyph glyph-name="plus" unicode="+" horiz-adv-x="1231" 
d="M667 768h369v-102h-369v-369h-102v369h-369v102h369v369h102v-369z" />
    <glyph glyph-name="comma" unicode="," horiz-adv-x="375" 
d="M48 -254l80 371h121l-96 -371h-105z" />
    <glyph glyph-name="hyphen" unicode="-" horiz-adv-x="858" 
d="M196 512v102h467v-102h-467z" />
    <glyph glyph-name="period" unicode="." horiz-adv-x="396" 
d="M199 -12q-33 0 -55.5 22.5t-22.5 55.5q0 32 22.5 54.5t55.5 22.5q32 0 54 -22.5t22 -54.5q0 -33 -22 -55.5t-54 -22.5z" />
    <glyph glyph-name="slash" unicode="/" horiz-adv-x="670" 
d="M90 -205l369 1639h123l-369 -1639h-123z" />
    <glyph glyph-name="zero" unicode="0" horiz-adv-x="1474" 
d="M737 -12q-143 0 -254.5 53t-183 150t-108 230t-36.5 296q0 330 145 525q72 98 184 151t253 53q190 0 323 -94q132 -94 197 -255q63 -162 63 -380q0 -453 -260 -635q-133 -94 -323 -94zM737 102q119 0 208.5 45t144.5 128t82 194t27 248q0 138 -27 248.5t-81.5 193
t-144 127.5t-209.5 45t-209.5 -45t-144 -127.5t-81.5 -193t-27 -248.5t27 -248t81.5 -193.5t144.5 -128.5t209 -45z" />
    <glyph glyph-name="one" unicode="1" horiz-adv-x="732" 
d="M114 1376l316 58h106v-1434h-123v1331l-289 -55z" />
    <glyph glyph-name="two" unicode="2" horiz-adv-x="1339" 
d="M360 102h783v-102h-941v101h-1l1 1q284 237 379 324q303 274 386 466q38 87 38 164q0 134 -93 213q-95 78 -244 78q-243 0 -335 -233l-122 16q47 155 167 235q122 81 290 81q204 0 332 -99q127 -100 127 -282q0 -128 -84 -278q-32 -60 -98 -140q-60 -72 -116 -132
q-57 -59 -139 -132q-100 -90 -139 -122q-40 -35 -143 -120q-33 -27 -48 -39z" />
    <glyph glyph-name="three" unicode="3" horiz-adv-x="1316" 
d="M1146 1332l-467 -510q223 -22 354 -140q129 -118 129 -297q1 -120 -67 -213.5t-183 -142t-253 -45.5q-141 -2 -254 42.5t-180.5 134.5t-67.5 211l123 6q0 -141 109 -217q110 -77 271 -77t270 85t109 226q0 165 -127 262q-128 97 -345 93l-33 76l470 506h-844v103h986
v-103z" />
    <glyph glyph-name="four" unicode="4" horiz-adv-x="1484" 
d="M997 419h292v-103h-292v-316h-123v316h-678l261 1118h124l-246 -1015h539v733h123v-733z" />
    <glyph glyph-name="five" unicode="5" horiz-adv-x="1340" 
d="M1121 1435v-103h-724l-33 -439q73 32 174 52q97 19 195 13q192 -9 322 -148q131 -140 131 -329q0 -206 -149 -349q-149 -142 -366 -142q-218 0 -366 142q-150 142 -150 349h123q0 -167 115 -282q114 -116 278 -116q161 0 277 116q115 115 115 282q0 159 -113 266
q-115 106 -279 110q-162 5 -314 -72h-127l49 650h842z" />
    <glyph glyph-name="six" unicode="6" horiz-adv-x="1340" 
d="M722 1434h135l-377 -528q113 59 253 53q192 -9 323 -147q130 -137 130 -331q0 -206 -149 -349q-149 -142 -366 -142q-218 0 -366 142q-150 142 -150 349q0 155 106 306zM671 83q161 0 277 116q115 115 115 282q0 159 -116 273q-115 114 -276 114q-162 0 -278 -113
q-115 -114 -115 -274q0 -168 115 -283q114 -115 278 -115z" />
    <glyph glyph-name="seven" unicode="7" horiz-adv-x="1188" 
d="M155 1434h920l-549 -1434h-125l510 1331h-756v103z" />
    <glyph glyph-name="eight" unicode="8" horiz-adv-x="1343" 
d="M865 741q144 -30 235 -125q89 -97 89 -243q0 -183 -145 -286t-372 -103q-229 0 -372 103q-145 102 -145 286q0 146 89 243q89 96 233 125q-131 29 -212 116q-81 85 -81 210q0 119 64.5 206.5t174.5 131t249 41.5q138 2 247.5 -41.5t174.5 -131.5t65 -206q0 -125 -81 -210
q-83 -88 -213 -116zM672 1362q-162 0 -266 -77q-105 -77 -105 -221q0 -134 105 -207q105 -75 266 -75q160 0 265 75q105 73 105 207q0 143 -105 221.5t-265 76.5zM672 73q236 0 341 135q55 70 55 168q0 102 -53.5 176.5t-143.5 108.5q-88 32 -199 32q-173 0 -285 -80
q-112 -81 -112 -237q0 -146 112 -224q112 -79 285 -79z" />
    <glyph glyph-name="nine" unicode="9" horiz-adv-x="1340" 
d="M620 2h-137l377 527q-113 -59 -253 -53q-193 9 -322 148q-130 137 -130 330q0 208 150 350q148 142 366 142q139 2 259 -63.5t189.5 -180t66.5 -248.5q0 -154 -107 -306zM949 1237q-116 116 -278 116t-278 -116q-115 -115 -115 -283q0 -159 116 -273q115 -114 277 -114
t277 115q115 114 115 272q0 168 -114 283z" />
    <glyph glyph-name="colon" unicode=":" horiz-adv-x="474" 
d="M238 983q-33 0 -56 22.5t-23 55.5t23 55.5t56 22.5q32 0 54 -22.5t22 -55.5t-22 -55.5t-54 -22.5zM238 -12q-33 0 -56 22.5t-23 55.5q0 32 23 54.5t56 22.5q32 0 54 -22.5t22 -54.5q0 -33 -22 -55.5t-54 -22.5z" />
    <glyph glyph-name="semicolon" unicode=";" horiz-adv-x="474" 
d="M238 983q-33 0 -56 22.5t-23 55.5t23 55.5t56 22.5q32 0 54 -22.5t22 -55.5t-22 -55.5t-54 -22.5zM97 -254l79 371h121l-96 -371h-104z" />
    <glyph glyph-name="less" unicode="&#x3c;" horiz-adv-x="1231" 
d="M196 772l840 253v-101l-734 -222l734 -222v-101l-840 254v139z" />
    <glyph glyph-name="equal" unicode="=" horiz-adv-x="1231" 
d="M196 964h840v-103h-840v103zM196 572h840v-102h-840v102z" />
    <glyph glyph-name="greater" unicode="&#x3e;" horiz-adv-x="1231" 
d="M196 924v101l840 -253v-139l-840 -254v101l734 222z" />
    <glyph glyph-name="question" unicode="?" horiz-adv-x="1225" 
d="M673 387h-123q-28 121 49 216q50 61 170 162q85 71 131.5 137.5t46.5 153.5q0 134 -93 213q-93 78 -243 78q-246 0 -335 -233l-121 16q45 153 164.5 234.5t291.5 81.5q205 0 332 -97t127 -278q0 -66 -18 -122t-56 -104t-67.5 -77t-82.5 -73q-89 -67 -141 -137
q-59 -79 -32 -171zM611 -12q-30 0 -49.5 20.5t-19.5 49.5q0 28 20.5 48.5t49.5 20.5q28 0 48.5 -20.5t20.5 -48.5q0 -29 -20.5 -49.5t-49.5 -20.5z" />
    <glyph glyph-name="at" unicode="@" horiz-adv-x="1971" 
d="M1815 572q-7 -141 -41.5 -242.5t-105.5 -160t-172 -51.5q-98 9 -147 75t-59 185q-40 -121 -146 -195q-106 -73 -243 -73q-187 0 -296 123q-111 122 -98 318q14 196 142 318t314 122q137 0 230 -72q92 -72 121 -195l20 258h79l-38 -531q-19 -238 134 -249q140 -14 195 143
q34 99 41 228q10 154 -38 291t-144 235t-232.5 153.5t-292.5 55.5q-157 0 -301 -60q-145 -60 -253 -162q-109 -103 -176 -244q-70 -144 -80 -299q-9 -158 40.5 -298.5t146.5 -240.5q97 -101 235 -157.5t297 -56.5q246 2 456 135l41 -52q-229 -148 -500 -148q-232 0 -416 106
q-185 106 -285 295q-100 186 -86 417q11 169 84 324q73 151 193 264q119 110 276 176q158 65 330 66q170 0 317 -61q149 -62 252 -168t159 -255q56 -150 47 -317zM1284 551q10 160 -78 257t-238 97q-151 0 -254 -97t-114 -257q-10 -162 78 -258t241 -96q147 0 251 98
q103 97 114 256z" />
    <glyph glyph-name="A" unicode="A" horiz-adv-x="1443" 
d="M1329 0h-123l-117 322h-734l-117 -322h-124l522 1434h171zM722 1322l-330 -898h659z" />
    <glyph glyph-name="B" unicode="B" horiz-adv-x="1447" 
d="M1017 730q117 -25 197 -125q79 -98 79 -231q0 -158 -111 -266q-112 -108 -272 -108h-714v1434h663q159 0 272 -105q111 -107 111 -264q0 -121 -63 -209q-63 -90 -162 -126zM838 1334h-520v-568h520q116 0 199 83q82 82 82 202q0 119 -82 201t-199 82zM318 100h571
q116 0 199 83q82 82 82 201t-82 201q-83 83 -199 83h-571v-568z" />
    <glyph glyph-name="C" unicode="C" horiz-adv-x="1653" 
d="M891 102q155 0 286 70q133 71 216 190l106 -55q-98 -147 -259 -233t-349 -86q-150 0 -286 56t-236 154t-156 233q-58 134 -58 286q0 151 58 286q56 135 156 233q97 96 234 153t288 57q189 0 349 -85q159 -85 259 -235l-106 -55q-83 120 -216 191q-133 69 -286 69
q-168 0 -309 -81q-141 -82 -224 -223q-83 -142 -83 -310t83 -310q83 -143 224 -223q140 -82 309 -82z" />
    <glyph glyph-name="D" unicode="D" horiz-adv-x="1572" 
d="M196 1434h494q149 0 284 -54.5t234 -151.5q99 -96 154 -229.5t55 -281.5t-55 -281.5t-154 -229.5q-99 -97 -234 -151.5t-284 -54.5h-494v1434zM318 102h360q123 0 236.5 47t198.5 130q85 82 133 197t48 241q0 127 -48 242t-132 197q-85 82 -198.5 128.5t-237.5 46.5h-360
v-1229z" />
    <glyph glyph-name="E" unicode="E" horiz-adv-x="1319" 
d="M196 0v1434h897v-103h-775v-596h712v-102h-712v-531h805v-102h-927z" />
    <glyph glyph-name="F" unicode="F" horiz-adv-x="1313" 
d="M196 0v1434h921v-103h-799v-596h737v-102h-737v-633h-122z" />
    <glyph glyph-name="G" unicode="G" horiz-adv-x="1780" 
d="M880 653v113h746v-49q0 -202 -98 -369q-98 -168 -267 -264t-370 -96q-150 0 -286 56t-236 154t-156 233q-58 134 -58 286q0 151 58 286q56 135 156 233q97 96 234 153t288 57q190 0 350 -85q159 -85 258 -235l-106 -55q-81 120 -216 191q-133 69 -286 69q-168 0 -309 -81
q-141 -82 -224 -223q-83 -142 -83 -310q0 -124 48.5 -239t132.5 -197q84 -83 198 -131t237 -48q155 0 290 75q134 73 220 201q84 124 101 275h-622z" />
    <glyph glyph-name="H" unicode="H" horiz-adv-x="1403" 
d="M1085 727v707h123v-1434h-123v625h-767v-625h-122v1434h122v-707h767z" />
    <glyph glyph-name="I" unicode="I" horiz-adv-x="515" 
d="M196 0v1434h122v-1434h-122z" />
    <glyph glyph-name="J" unicode="J" horiz-adv-x="1315" 
d="M155 283l117 33q42 -101 134 -157.5t214 -56.5q164 0 270 100q106 99 106 269l1 963h123v-956q0 -228 -140 -359t-360 -131q-165 0 -289 77q-124 76 -176 218z" />
    <glyph glyph-name="K" unicode="K" horiz-adv-x="1272" 
d="M1026 1434h132l-515 -667l515 -767h-132l-460 668l-248 -320v-348h-122v1434h122v-913z" />
    <glyph glyph-name="L" unicode="L" horiz-adv-x="1228" 
d="M1033 0h-837v1434h122v-1332h715v-102z" />
    <glyph glyph-name="M" unicode="M" horiz-adv-x="1925" 
d="M963 614l766 832v-1446h-123v1162l-643 -726l-645 726v-1162h-122v1446z" />
    <glyph glyph-name="N" unicode="N" horiz-adv-x="1449" 
d="M1130 301v1133h123v-1446l-935 1145v-1133h-122v1446z" />
    <glyph glyph-name="O" unicode="O" horiz-adv-x="1780" 
d="M891 -12q-150 0 -286 56t-236 154t-156 233q-58 134 -58 286q0 151 58 286q56 135 156 233q97 96 234 153t288 57q201 0 370 -96q169 -98 267 -264q98 -167 98 -369t-98 -369q-98 -168 -267 -264t-370 -96zM891 102q147 -1 279 67.5t216 183.5q119 157 119 364
q0 170 -82 310t-224 223q-141 81 -308 81q-168 0 -309 -81q-141 -82 -224 -223q-83 -142 -83 -310q0 -124 48.5 -239t132.5 -197q84 -83 198 -131t237 -48z" />
    <glyph glyph-name="P" unicode="P" horiz-adv-x="1356" 
d="M196 1434h517q103 0 195 -37t157 -102q64 -65 100.5 -153.5t36.5 -185.5q0 -200 -138 -337q-139 -136 -351 -136h-395v-483h-122v1434zM318 586h383q158 0 268 108q108 107 110 263q1 154 -109 264t-269 110h-383v-745z" />
    <glyph glyph-name="Q" unicode="Q" horiz-adv-x="1780" 
d="M1460 249l182 -182l-81 -82l-182 181q-99 -87 -224.5 -134t-263.5 -47q-150 0 -286 56t-236 154q-101 98 -157.5 233.5t-56.5 285.5q0 152 58 287q57 134 156 232q97 96 234 153t288 57q201 0 370 -96q169 -97 267 -264q98 -169 98 -369q0 -265 -166 -465zM275 715
q0 -167 83 -309q82 -142 224 -224t309 -82q123 0 237 48t198 132q84 82 131.5 196.5t47.5 238.5q0 169 -82 311q-82 140 -224 223q-141 81 -308 81q-168 0 -309 -81q-141 -82 -224 -223q-83 -143 -83 -311z" />
    <glyph glyph-name="R" unicode="R" horiz-adv-x="1358" 
d="M1202 956q0 -171 -103 -298q-103 -128 -270 -162l319 -496h-128l-309 483h-393v-483h-122v1434h517q212 0 350 -138t139 -340zM701 1331h-383v-745h383q158 0 268 108q108 107 110 263q1 154 -109 264t-269 110z" />
    <glyph glyph-name="S" unicode="S" horiz-adv-x="1314" 
d="M1119 1130l-122 -16q-43 109 -131 171t-203 62q-151 0 -243 -77q-93 -78 -93 -212q3 -55 20 -91.5t55 -65.5q55 -41 116 -64q37 -14 72 -25q26 -9 83 -27q20 -6 49 -15.5t37 -12.5q12 -5 39 -14.5t38 -13.5q52 -19 72 -29l29 -14.5t34 -16.5q46 -24 104 -75
q35 -31 64 -97q23 -54 21 -132q-3 -181 -138 -279q-136 -98 -352 -98q-196 0 -338 90q-142 88 -177 251l121 15q35 -121 143 -186q107 -67 249 -67q162 0 263 70q100 69 105 203q1 78 -39 139q-32 48 -114 95q-57 31 -164 68q-46 15 -94 29q-63 19 -103 33q-51 18 -89 34
q-48 18 -79 38q-31 19 -62 45q-45 38 -64.5 88.5t-23.5 127.5q0 182 128 284q128 101 332 101q170 0 290 -82t165 -234z" />
    <glyph glyph-name="T" unicode="T" horiz-adv-x="1249" 
d="M155 1434h940v-103h-409v-1331h-123v1331h-408v103z" />
    <glyph glyph-name="U" unicode="U" horiz-adv-x="1392" 
d="M1073 471l1 963h123v-956q0 -228 -140 -359q-142 -131 -361 -131q-220 0 -360 131t-140 359v956h122v-963q0 -170 107 -269q106 -100 271 -100t271 100q106 99 106 269z" />
    <glyph glyph-name="V" unicode="V" horiz-adv-x="1437" 
d="M719 113l474 1321h131l-517 -1434h-176l-517 1434h131z" />
    <glyph glyph-name="W" unicode="W" horiz-adv-x="2330" 
d="M1661 142l417 1292h139l-477 -1434h-150l-425 1266l-425 -1266h-149l-477 1434h139l417 -1292l426 1292h139z" />
    <glyph glyph-name="X" unicode="X" horiz-adv-x="1364" 
d="M1114 1434h136l-480 -717l480 -717h-136l-432 634l-431 -634h-137l481 717l-481 717h137l431 -634z" />
    <glyph glyph-name="Y" unicode="Y" horiz-adv-x="1364" 
d="M683 666l433 768h134l-507 -890v-544h-122v544l-507 890h135z" />
    <glyph glyph-name="Z" unicode="Z" horiz-adv-x="1405" 
d="M196 1434h1014v-103l-870 -1229h870v-102h-1014v102l870 1229h-870v103z" />
    <glyph glyph-name="bracketleft" unicode="[" horiz-adv-x="898" 
d="M196 -333v1792h475v-102h-353v-1587h383v-103h-505z" />
    <glyph glyph-name="backslash" unicode="\" horiz-adv-x="670" 
d="M90 1434h123l369 -1639h-123z" />
    <glyph glyph-name="bracketright" unicode="]" horiz-adv-x="898" 
d="M226 1459h475v-1792h-505v103h383v1587h-353v102z" />
    <glyph glyph-name="asciicircum" unicode="^" horiz-adv-x="887" 
d="M513 1434l254 -634h-101l-222 553l-222 -553h-101l253 634h139z" />
    <glyph glyph-name="underscore" unicode="_" horiz-adv-x="1478" 
d="M159 -206v91h1160v-91h-1160z" />
    <glyph glyph-name="grave" unicode="`" horiz-adv-x="535" 
d="M416 1270h-93l-202 368h116z" />
    <glyph glyph-name="a" unicode="a" 
d="M680 1139q171 0 304 -79q132 -79 192 -212l4 278h112v-1126h-112l-4 279q-58 -138 -190 -214q-133 -77 -306 -77q-154 0 -281 76q-130 76 -203 208q-75 132 -75 291t75 292q73 131 203 208q127 76 281 76zM706 90q195 0 333 138q137 139 137 335q0 199 -138 337
q-139 137 -332 137q-124 3 -233 -61t-173 -175t-62 -238q-2 -127 62 -237.5t173 -174.5t233 -61z" />
    <glyph glyph-name="b" unicode="b" horiz-adv-x="1451" 
d="M771 1139q154 0 282 -76q129 -77 203 -208q74 -134 74 -292t-74 -291q-74 -132 -203 -208q-128 -76 -282 -76q-175 0 -305 76q-133 77 -191 215l-4 -279h-112v1536h116v-688q59 133 192 212t304 79zM745 90q124 -3 233 61t173 174.5t62 237.5q2 127 -62 238t-173 175
t-233 61q-195 0 -332 -137q-138 -138 -138 -337t138 -335q137 -138 332 -138z" />
    <glyph glyph-name="c" unicode="c" horiz-adv-x="1304" 
d="M707 88q116 0 213.5 51t160.5 144l104 -49q-77 -116 -204 -180q-127 -66 -274 -66q-118 0 -226 43.5t-188 120.5q-80 76 -126 184t-46 227t46 227t126 185t188 120.5t226 43.5q147 0 274 -66q128 -66 204 -181l-104 -48q-63 92 -161 143t-213 51q-196 0 -333 -137
t-137 -338t137 -338t333 -137z" />
    <glyph glyph-name="d" unicode="d" horiz-adv-x="1451" 
d="M680 1139q171 0 304 -79t192 -212v688h116v-1536h-112l-4 279q-57 -137 -189 -214q-134 -77 -307 -77q-154 0 -281 76q-130 76 -203 208q-75 132 -75 291t75 292q73 131 203 208q127 76 281 76zM706 90q195 0 333 138q137 139 137 335q0 199 -138 337q-139 137 -332 137
q-124 3 -233 -61t-173 -175t-62 -238q-2 -127 62 -237.5t173 -174.5t233 -61z" />
    <glyph glyph-name="e" unicode="e" horiz-adv-x="1409" 
d="M706 1139q121 0 230.5 -47t189.5 -130q78 -83 121.5 -200.5t40.5 -247.5h-1049q16 -184 151 -306q134 -122 316 -122q148 0 266 81t172 217l99 -48q-68 -159 -213 -253q-148 -95 -324 -95q-118 0 -225.5 43.5t-187.5 120.5q-80 76 -126 184t-46 227t46 227t126 185
t187.5 120.5t225.5 43.5zM706 1040q-184 0 -317 -121t-150 -307h935q-16 184 -150 306t-318 122z" />
    <glyph glyph-name="f" unicode="f" horiz-adv-x="946" 
d="M459 1126h327v-95h-327v-1031h-116v1031h-184v95h184v116q0 156 59 228.5t197 72.5q87 0 187 -20v-89q-87 22 -175 15q-82 -2 -117 -51t-35 -154v-118z" />
    <glyph glyph-name="g" unicode="g" 
d="M1176 848l4 278h112v-1037q0 -128 -44.5 -227.5t-125.5 -161.5q-163 -122 -411 -122q-146 0 -272 59t-211 165l68 71q157 -193 407 -192q202 0 334 96q66 49 102.5 130.5t36.5 185.5v186q-58 -138 -190 -214q-133 -77 -306 -77q-154 0 -281 76q-130 76 -203 208
q-75 132 -75 291t75 292q73 131 203 208q127 76 281 76q171 0 304 -79q132 -79 192 -212zM706 90q195 0 333 138q137 139 137 336t-138 335t-332 138q-124 3 -233 -61t-173 -175t-62 -238q-2 -127 62 -237.5t173 -174.5t233 -61z" />
    <glyph glyph-name="h" unicode="h" horiz-adv-x="1393" 
d="M1235 0h-117v563q0 235 -94 354.5t-293 119.5q-198 0 -327 -135t-129 -339v-563h-116v1536h116v-687q59 134 188 212q127 78 300 78q472 0 472 -576v-563z" />
    <glyph glyph-name="i" unicode="i" horiz-adv-x="435" 
d="M218 1332q-35 0 -58.5 23.5t-23.5 58.5q0 33 23.5 56.5t58.5 23.5q33 0 56.5 -23.5t23.5 -56.5q0 -35 -23.5 -58.5t-56.5 -23.5zM159 0v1126h116v-1126h-116z" />
    <glyph glyph-name="j" unicode="j" horiz-adv-x="435" 
d="M218 1332q-35 0 -58.5 23.5t-23.5 58.5q0 33 23.5 56.5t58.5 23.5q33 0 56.5 -23.5t23.5 -56.5q0 -35 -23.5 -58.5t-56.5 -23.5zM159 1126h116v-1196q0 -159 -59 -233t-197 -74q-88 0 -188 21v93q87 -20 173 -17q83 3 119 53t36 155v1198z" />
    <glyph glyph-name="k" unicode="k" horiz-adv-x="1228" 
d="M975 1126h169l-532 -499l532 -627h-150l-468 546l-214 -201v-345h-116v1536h116v-1028z" />
    <glyph glyph-name="l" unicode="l" horiz-adv-x="435" 
d="M159 0v1536h116v-1536h-116z" />
    <glyph glyph-name="m" unicode="m" horiz-adv-x="2198" 
d="M1612 1139q231 0 332 -156q95 -146 95 -420v-563h-117v563q0 236 -82.5 355t-261.5 119q-198 0 -309 -132q-110 -133 -112 -342v-563h-117v563q0 237 -82.5 355.5t-262.5 118.5q-198 0 -309 -132q-111 -133 -111 -342v-563h-116v1126h112l4 -272q103 285 455 285
q317 0 398 -309q52 146 177 227.5t307 81.5z" />
    <glyph glyph-name="n" unicode="n" horiz-adv-x="1320" 
d="M1161 0h-117v563q0 237 -82.5 355.5t-263.5 118.5q-196 1 -311 -133.5t-112 -340.5v-563h-116v1126h112l4 -272q54 137 170 211t285 74q227 0 329 -148t102 -428v-563z" />
    <glyph glyph-name="o" unicode="o" horiz-adv-x="1412" 
d="M933 32q-108 -44 -226.5 -44t-226.5 44q-220 90 -312 303q-46 107 -46 228t46 229q92 213 312 303q108 44 226.5 44t226.5 -44q221 -91 313 -303q46 -108 46 -229t-46 -228q-91 -211 -313 -303zM707 89q194 0 332 138t138 337q0 197 -137 336q-139 137 -333 137
q-196 0 -333 -137q-137 -139 -137 -336q0 -198 137 -337q136 -138 333 -138z" />
    <glyph glyph-name="p" unicode="p" horiz-adv-x="1451" 
d="M771 -12q-172 0 -303 79q-133 79 -193 212v-689h-116v1536h112l4 -278q57 139 190 215q131 76 306 76q154 0 282 -76q129 -77 203 -208q74 -134 74 -292t-74 -291q-74 -132 -203 -208q-128 -76 -282 -76zM745 1037q-195 0 -332 -138q-138 -138 -138 -336
q-2 -127 62 -237.5t173.5 -174.5t234.5 -61q124 -3 233 61t173 174.5t62 237.5q2 127 -62 238t-173 175t-233 61z" />
    <glyph glyph-name="q" unicode="q" horiz-adv-x="1451" 
d="M680 -12q-154 0 -281 76q-130 76 -203 208q-75 132 -75 291t75 292q73 131 203 208q127 76 281 76q176 0 307 -76q130 -76 189 -215l4 278h112v-1536h-116v689q-59 -132 -191 -211q-134 -80 -305 -80zM706 1037q-124 3 -233 -61t-173 -175t-62 -238q-2 -127 62 -237.5
t173 -174.5t233 -61q125 -3 234.5 61t173.5 174.5t62 237.5q0 197 -137 336q-138 138 -333 138z" />
    <glyph glyph-name="r" unicode="r" horiz-adv-x="883" 
d="M159 0v1126h112l4 -287q67 146 191 223t297 77v-103q-214 0 -351 -134t-137 -339v-563h-116z" />
    <glyph glyph-name="s" unicode="s" horiz-adv-x="1099" 
d="M944 896l-115 -16q-22 71 -99 118q-76 46 -175 46q-121 0 -204 -54q-83 -56 -83 -159q-5 -87 85 -140q44 -27 148 -54q24 -7 99 -25q105 -25 166.5 -46.5t112.5 -54.5q101 -66 100 -199q-1 -147 -117 -234q-116 -88 -296 -88q-169 0 -289 66q-121 64 -156 194l113 16
q21 -63 77 -106t120.5 -60t134.5 -16q125 0 210 61q86 60 86 161q-3 61 -34.5 100.5t-97.5 66.5q-75 31 -200 58q-160 39 -242 80q-50 24 -77 53q-59 61 -59 162q0 146 112 230q113 83 294 83q149 0 251 -62.5t135 -180.5z" />
    <glyph glyph-name="t" unicode="t" horiz-adv-x="946" 
d="M343 1126v260h116v-260h327v-95h-327v-731q0 -104 35.5 -154t117.5 -53q93 -6 174 16v-100q-100 -20 -187 -20q-137 0 -196.5 75t-59.5 234v733h-184v95h184z" />
    <glyph glyph-name="u" unicode="u" horiz-adv-x="1320" 
d="M160 1126h116v-563q0 -237 83 -355t264 -118q199 0 312 132q111 132 111 341v563h116v-1126h-112l-4 272q-54 -137 -169.5 -210.5t-285.5 -73.5q-227 0 -329 149t-102 426v563z" />
    <glyph glyph-name="v" unicode="v" horiz-adv-x="1209" 
d="M605 111l396 1015h123l-439 -1126h-161l-438 1126h123z" />
    <glyph glyph-name="w" unicode="w" horiz-adv-x="2097" 
d="M1503 120l386 1006h123l-429 -1126h-153l-381 981l-381 -981h-154l-428 1126h123l385 -1006l392 1006h125z" />
    <glyph glyph-name="x" unicode="x" horiz-adv-x="1205" 
d="M986 1126h133l-431 -563l431 -563h-133l-383 495l-384 -495h-133l431 563l-431 563h133l384 -494z" />
    <glyph glyph-name="y" unicode="y" horiz-adv-x="1205" 
d="M603 106l390 1020h127l-450 -1120q-145 -337 -499 -339l-8 90q141 7 239.5 66t140.5 159l-457 1144h126z" />
    <glyph glyph-name="z" unicode="z" horiz-adv-x="1239" 
d="M159 1126h920v-97l-771 -929h771v-100h-920v100l769 929h-769v97z" />
    <glyph glyph-name="braceleft" unicode="{" horiz-adv-x="906" 
d="M516 1144v-365q0 -84 -39 -147q-41 -63 -107 -69q68 -6 107 -69q39 -64 39 -147v-364q0 -95 51 -138.5t143 -28.5v-100q-82 -7 -149.5 11t-104.5 61q-60 60 -62 181v384q0 86 -48 124t-150 38v96q103 0 150.5 38t47.5 124v384q0 119 62 181q37 43 104.5 61t149.5 11v-99
q-92 14 -143 -29.5t-51 -137.5z" />
    <glyph glyph-name="bar" unicode="|" horiz-adv-x="508" 
d="M196 -205v1639h116v-1639h-116z" />
    <glyph glyph-name="braceright" unicode="}" horiz-adv-x="906" 
d="M390 779v365q0 94 -51 137.5t-143 29.5v99q178 15 255 -72q60 -63 61 -181v-384q0 -86 47.5 -124t150.5 -38v-96q-102 0 -150 -38t-48 -124v-384q-1 -118 -61 -181q-38 -43 -106 -61t-149 -11v100q93 -14 143.5 29t50.5 138v364q0 83 40 147q39 63 107 69q-68 6 -107 69
q-40 62 -40 147z" />
    <glyph glyph-name="asciitilde" unicode="~" horiz-adv-x="982" 
d="M697 670h89q0 -81 -29.5 -134.5t-85.5 -64.5q-38 -11 -74.5 1t-89.5 50l-46 28q-35 21 -54 30q-21 7 -47 9q-43 0 -61 -44q-14 -34 -14 -90h-89q0 79 28.5 132.5t81.5 64.5q65 23 157 -39q17 -7 48 -30t57 -33q26 -11 53 -12q44 0 63 46q13 30 13 86z" />
    <glyph glyph-name="exclamdown" unicode="&#xa1;" horiz-adv-x="480" 
d="M241 969q-34 0 -58 23.5t-24 57.5q0 33 24 56.5t58 23.5q33 0 56.5 -23.5t23.5 -56.5q0 -34 -23.5 -57.5t-56.5 -23.5zM182 -307l7 1070h102l7 -1070h-116z" />
    <glyph glyph-name="cent" unicode="&#xa2;" horiz-adv-x="1304" 
d="M707 88q116 0 213.5 51t160.5 144l104 -49q-72 -105 -184.5 -169.5t-245.5 -74.5v-133h-103v133q-145 10 -267.5 88.5t-194 207.5t-69.5 278q-2 149 69.5 277.5t194 206.5t267.5 89v141h103v-141q133 -10 245.5 -75t184.5 -170l-104 -48q-63 92 -161 143t-213 51
q-196 0 -333 -137t-137 -338t137 -338t333 -137z" />
    <glyph glyph-name="sterling" unicode="&#xa3;" horiz-adv-x="1467" 
d="M1093 627h-670q-9 -330 -79 -532h928v-95h-1025v72h-17q75 201 84 555h-118v84h119v198q0 274 119 405.5t364 131.5q147 0 272 -66q127 -67 202 -181l-98 -48q-63 92 -162 143.5t-214 51.5q-195 0 -283 -103q-89 -104 -89 -334q0 -153 -1 -198h668v-84z" />
    <glyph glyph-name="currency" unicode="&#xa4;" horiz-adv-x="1016" 
d="M861 1011l-120 -119q59 -79 59 -173q0 -95 -57 -173l118 -120l-60 -61l-119 118q-76 -58 -172 -58q-98 0 -175 58l-120 -118l-60 61l118 119q-57 79 -57 174q0 96 58 172l-119 120l61 62l121 -121q76 55 173 57q96 0 169 -57l121 121zM372 581q55 -57 136 -57
q80 0 136 57q56 56 56 136t-56 136t-136 56t-136 -56q-57 -55 -57 -136t57 -136z" />
    <glyph glyph-name="yen" unicode="&#xa5;" horiz-adv-x="1364" 
d="M1116 1434h134l-492 -866h376v-87h-391v-116h391v-87h-391v-278h-122v278h-390v87h390v116h-390v87h375l-492 866h135l434 -768z" />
    <glyph glyph-name="brokenbar" unicode="&#xa6;" horiz-adv-x="508" 
d="M196 717v717h116v-717h-116zM196 -205v717h116v-717h-116z" />
    <glyph glyph-name="section" unicode="&#xa7;" horiz-adv-x="1190" 
d="M843 439q118 -46 173.5 -106.5t53.5 -153.5q-3 -143 -130 -219q-128 -77 -333 -77q-180 0 -316 71q-135 70 -170 198l97 16q35 -95 141 -146q105 -52 246 -52q160 0 260 52q100 53 104 156q1 59 -38 109q-28 34 -110 73q-23 10 -78 28q-33 10 -82 24q-43 12 -93 23
q-66 17 -85 23q-33 10 -75 24q-73 23 -127 54q-50 28 -83 78q-30 44 -30 112q0 100 61 172t171 106q-120 40 -176 95.5t-56 146.5q0 142 122 223q121 81 311 81q160 0 272.5 -65t157.5 -186l-100 -11q-42 84 -128.5 131.5t-201.5 47.5q-145 0 -239 -59q-93 -60 -93 -165
q-6 -75 84 -127q20 -13 62 -27q54 -18 70 -22q19 -6 82 -24q7 -2 16.5 -4.5t15.5 -4l10 -2.5q91 -25 113 -32q59 -18 98 -32q81 -28 156 -78q49 -35 70.5 -80t23.5 -111q-1 -92 -60.5 -159t-166.5 -101zM269 723q0 -44 20.5 -75t68.5 -54q51 -25 89 -36q41 -14 124 -36
q22 -6 38 -10l67 -18q134 10 211.5 62t81.5 142q4 79 -67 136q-32 24 -83 46q-54 22 -99 36q-41 12 -119 31q-146 0 -239 -60t-93 -164z" />
    <glyph glyph-name="dieresis" unicode="&#xa8;" horiz-adv-x="616" 
d="M237 1290q-20 -20 -48.5 -20t-47.5 20t-19 49t19 48t47.5 19t48.5 -19t20 -48t-20 -49zM477 1290q-20 -20 -49 -20t-49 20t-20 49t20 48t49.5 19t48.5 -19t19 -48t-19 -49z" />
    <glyph glyph-name="copyright" unicode="&#xa9;" horiz-adv-x="1662" 
d="M833 40q-138 0 -264 54q-126 52 -216 144q-92 92 -145 218t-53 262q0 184 91 339q90 155 246 246q155 91 341 91q184 0 339 -91q154 -91 246 -246q90 -156 90 -339q0 -184 -90 -340q-91 -157 -246 -247q-155 -91 -339 -91zM833 92q125 0 240.5 49t200.5 134t133.5 201.5
t48.5 241.5t-48.5 240t-133.5 201q-85 85 -201 133.5t-240 48.5q-169 0 -314 -83q-144 -82 -228 -227q-84 -144 -84 -313q0 -170 84 -314q84 -146 228 -228q144 -84 314 -84zM836 358q96 0 178 49t128 133l85 -40q-55 -103 -161 -165t-230 -62q-188 0 -319 128t-131 317
t131 317q130 127 319 127q126 0 230 -61q104 -62 161 -165l-85 -40q-46 84 -127.5 132.5t-178.5 48.5q-147 0 -251 -104q-105 -105 -105 -255q0 -152 105 -255q103 -105 251 -105z" />
    <glyph glyph-name="ordfeminine" unicode="&#xaa;" horiz-adv-x="840" 
d="M401 1440q87 0 154 -45q69 -46 94 -119l2 158h69v-564h-69l-2 158q-28 -75 -95 -119.5t-153 -44.5q-117 0 -198 84q-82 82 -82 204t82 205q81 83 198 83zM253 993q65 -65 158 -65q92 0 157 65t65 159t-65 159t-157 65q-93 0 -158 -65t-65 -159t65 -159z" />
    <glyph glyph-name="guillemotleft" unicode="&#xab;" horiz-adv-x="1203" 
d="M196 563l317 428h130l-317 -428l317 -428h-130zM560 563l318 428h130l-318 -428l318 -428h-130z" />
    <glyph glyph-name="registered" unicode="&#xae;" horiz-adv-x="1503" 
d="M452 1567q139 80 300 80q160 0 299 -80q137 -80 217 -217q80 -139 80 -299q0 -162 -80 -301q-79 -136 -217 -217q-139 -80 -299 -80q-161 0 -300 80q-138 79 -217 217q-80 139 -80 301t80 299q81 138 217 217zM479 578q124 -73 273 -73q148 0 273 73q125 74 198 199
q72 124 72 274q0 109 -42.5 210t-115.5 175q-74 73 -175.5 115.5t-209.5 42.5q-147 0 -273 -72q-125 -73 -199 -198q-73 -125 -73 -273q0 -149 73 -274q73 -126 199 -199zM1032 1166q0 -85 -51 -148q-51 -64 -135 -82l159 -248h-78l-154 242h-209v-242h-74v717h296
q106 0 176 -69t70 -170zM564 993h217q76 0 127 53q50 53 50 120q0 69 -50 122t-127 53h-217v-348z" />
    <glyph glyph-name="overscore" unicode="&#xaf;" horiz-adv-x="788" 
d="M121 1270v95h548v-95h-548z" />
    <glyph glyph-name="degree" unicode="&#xb0;" horiz-adv-x="702" 
d="M352 991q-95 0 -163 68t-68 165q0 94 68 162q67 67 163 67q95 0 163 -67q68 -68 68 -162q0 -96 -68 -164q-69 -69 -163 -69zM352 1067q63 0 109 46t46 110q0 63 -45 109q-47 45 -110 45q-65 0 -110 -45q-46 -46 -46 -109q0 -64 46 -110q45 -46 110 -46z" />
    <glyph glyph-name="uni00B2" unicode="&#xb2;" horiz-adv-x="714" 
d="M594 1346q0 -116 -113 -235q-61 -64 -107 -105q-69 -62 -122 -104q-14 -12 -31 -24h373v-65h-471v65h1q185 156 234 202q162 156 162 261q0 62 -42.5 97.5t-112.5 35.5q-114 0 -155 -104l-74 8q23 76 83 117t146 41q101 0 165 -49t64 -141z" />
    <glyph glyph-name="uni00B3" unicode="&#xb3;" horiz-adv-x="745" 
d="M616 1473l-234 -243q112 -14 177.5 -72.5t65.5 -145.5q0 -90 -72 -146q-73 -55 -180 -55q-109 0 -180 51t-71 144l73 3q0 -62 49 -99.5t130 -37.5q78 0 128 41q49 40 49 104q0 74 -64 120.5t-172 45.5l-17 50l234 240h-409v64h493v-64z" />
    <glyph glyph-name="acute" unicode="&#xb4;" horiz-adv-x="535" 
d="M416 1638l-203 -368h-92l178 368h117z" />
    <glyph glyph-name="paragraph" unicode="&#xb6;" horiz-adv-x="954" 
d="M196 1193q0 113 63 177q61 64 155 64h115v-1639h-115v1156q-95 0 -156 64q-62 65 -62 178zM641 -205v1639h117v-1639h-117z" />
    <glyph glyph-name="middot" unicode="&#xb7;" horiz-adv-x="396" 
d="M199 485q-33 0 -55.5 22.5t-22.5 55.5t22.5 55.5t55.5 22.5q32 0 54 -22.5t22 -55.5t-22 -55.5t-54 -22.5z" />
    <glyph glyph-name="cedilla" unicode="&#xb8;" horiz-adv-x="646" 
d="M247 14h70v-84q84 12 152 -44q60 -44 56 -123q-4 -78 -72 -119q-91 -57 -332 -41v65q188 -17 266 24q56 29 60 83t-43 88q-24 21 -69.5 27.5t-87.5 -5.5v129z" />
    <glyph glyph-name="uni00B9" unicode="&#xb9;" horiz-adv-x="463" 
d="M121 1507l158 29h64v-717h-73v654l-144 -28z" />
    <glyph glyph-name="ordmasculine" unicode="&#xba;" horiz-adv-x="825" 
d="M621 946q-86 -83 -208 -83q-121 0 -207 83q-85 82 -85 205q0 124 85 206t207 82q123 0 208 -82t85 -206q0 -123 -85 -205zM413 928q90 0 157 65q65 65 65 158q0 94 -65 159t-157 65t-157 -65t-65 -159q0 -93 65 -158t157 -65z" />
    <glyph glyph-name="guillemotright" unicode="&#xbb;" horiz-adv-x="1203" 
d="M196 991h130l317 -428l-317 -428h-130l317 428zM560 991h130l318 -428l-318 -428h-130l318 428z" />
    <glyph glyph-name="onequarter" unicode="&#xbc;" horiz-adv-x="1463" 
d="M121 1405l158 29h64v-717h-73v653l-144 -28zM341 0l532 1434h75l-532 -1434h-75zM1203 214h140v-61h-140v-153h-74v153h-333l131 564h73l-118 -503h247v361h74v-361z" />
    <glyph glyph-name="onehalf" unicode="&#xbd;" horiz-adv-x="1398" 
d="M343 1434v-717h-73v653l-144 -28l-5 63l158 29h64zM337 0l532 1434h75l-532 -1434h-75zM1278 532q0 -87 -72 -187q-25 -36 -83 -92q-50 -49 -90 -82q-13 -11 -46.5 -39.5t-51.5 -43.5q-6 -5 -15.5 -12.5t-13.5 -10.5h372v-65h-471v65h1q185 156 234 202q162 156 162 261
q0 62 -41.5 97t-113.5 35q-115 0 -155 -103l-74 8q23 76 83 117t146 41q100 0 165 -50q64 -49 64 -141z" />
    <glyph glyph-name="threequarters" unicode="&#xbe;" horiz-adv-x="1603" 
d="M625 909q0 -91 -72 -145q-73 -55 -180 -55q-109 0 -180 51t-71 143l73 3q0 -62 49 -99t130 -37q78 0 128 41q49 40 49 103q0 74 -64 120.5t-172 45.5l-17 50l234 240h-409v65h493v-65l-234 -243q112 -14 177.5 -72.5t65.5 -145.5zM507 0l532 1434h75l-532 -1434h-75z
M1343 575v-361h141v-61h-141v-153h-73v153h-333l130 564h75l-120 -503h248v361h73z" />
    <glyph glyph-name="questiondown" unicode="&#xbf;" horiz-adv-x="1225" 
d="M566 1119q20 20 48.5 20t49.5 -20q20 -21 20 -50t-20 -49q-21 -21 -49.5 -21t-48.5 21q-21 20 -21 49t21 50zM553 739h123q28 -122 -48 -215q-50 -62 -171 -162q-83 -66 -131.5 -135.5t-47.5 -155.5q0 -133 93 -213q93 -78 242 -78q245 0 336 232l121 -16
q-45 -152 -164.5 -233.5t-291.5 -81.5q-133 -2 -235.5 39.5t-163 128t-60.5 206.5q0 131 72 225q67 86 154 152q83 63 140 137q26 33 35 77t-3 93z" />
    <glyph glyph-name="Agrave" unicode="&#xc0;" horiz-adv-x="1443" 
d="M589 1946l179 -369h-93l-202 369h116zM1329 0h-123l-117 322h-734l-117 -322h-124l522 1434h171zM722 1322l-330 -898h659z" />
    <glyph glyph-name="Aacute" unicode="&#xc1;" horiz-adv-x="1443" 
d="M854 1946h117l-203 -369h-92zM1329 0h-123l-117 322h-734l-117 -322h-124l522 1434h171zM722 1322l-330 -898h659z" />
    <glyph glyph-name="Acircumflex" unicode="&#xc2;" horiz-adv-x="1443" 
d="M872 1577l-150 245l-152 -245h-88l174 303h130l176 -303h-90zM1329 0h-123l-117 322h-734l-117 -322h-124l522 1434h171zM722 1322l-330 -898h659z" />
    <glyph glyph-name="Atilde" unicode="&#xc3;" horiz-adv-x="1443" 
d="M529 1674q-14 -34 -14 -90h-88q0 80 28.5 133t81.5 65q65 22 156 -39q17 -7 48 -30t57 -33q24 -11 53 -13q44 0 63 46q12 29 14 85h89q0 -80 -30 -133t-86 -64q-38 -11 -73 0.5t-91 49.5q-7 4 -36 22t-38 23q-39 21 -72 22q-44 0 -62 -44zM1329 0h-123l-117 322h-734
l-117 -322h-124l522 1434h171zM722 1322l-330 -898h659z" />
    <glyph glyph-name="Adieresis" unicode="&#xc4;" horiz-adv-x="1443" 
d="M651 1597q-20 -20 -49 -20t-48 20t-19 48.5t19 48.5t48 20t49 -20t20 -48.5t-20 -48.5zM890 1597q-29 -33 -74.5 -14.5t-42.5 63.5q-3 44 42.5 61.5t74.5 -13.5q20 -20 20 -48.5t-20 -48.5zM1329 0h-123l-117 322h-734l-117 -322h-124l522 1434h171zM722 1322l-330 -898
h659z" />
    <glyph glyph-name="Aring" unicode="&#xc5;" horiz-adv-x="1443" 
d="M1329 0h-123l-117 322h-734l-117 -322h-124l514 1411q-60 30 -95.5 86t-35.5 124q0 95 68 163q67 67 163 67q94 0 162 -68t68 -162q0 -71 -38.5 -129t-102.5 -85zM572 1621q0 -65 46 -111t110 -46q63 0 109 46t46 111q0 63 -45 109q-46 46 -110 46q-65 0 -110 -46
q-46 -46 -46 -109zM722 1322l-330 -898h659z" />
    <glyph glyph-name="AE" unicode="&#xc6;" horiz-adv-x="1650" 
d="M858 633v-531h597v-102h-720v322h-374l-118 -322h-129l523 1434h787v-103h-566v-596h504v-102h-504zM399 424h336v909z" />
    <glyph glyph-name="Ccedilla" unicode="&#xc7;" horiz-adv-x="1653" 
d="M891 102q155 0 286 70q133 71 216 190l106 -55q-94 -141 -244 -226q-150 -84 -329 -92v-59q83 12 151 -44q60 -44 56 -123q-4 -78 -72 -119q-91 -57 -332 -41v65q188 -17 266 24q56 29 60 83q4 55 -42 88q-24 21 -70 27.5t-88 -5.5v104q-143 6 -272.5 64.5t-224.5 156.5
t-149 230t-54 277q0 152 58 287q57 134 156 232q97 96 234 153t288 57q189 0 349 -85q159 -85 259 -235l-106 -55q-83 120 -216 191q-133 69 -286 69q-168 0 -309 -81q-141 -82 -224 -223q-83 -142 -83 -310t83 -310q83 -143 224 -223q140 -82 309 -82z" />
    <glyph glyph-name="Egrave" unicode="&#xc8;" horiz-adv-x="1319" 
d="M707 1577h-94l-201 369h115zM196 0v1434h897v-103h-775v-596h712v-102h-712v-531h805v-102h-927z" />
    <glyph glyph-name="Eacute" unicode="&#xc9;" horiz-adv-x="1319" 
d="M909 1946l-202 -369h-93l179 369h116zM196 0v1434h897v-103h-775v-596h712v-102h-712v-531h805v-102h-927z" />
    <glyph glyph-name="Ecircumflex" unicode="&#xca;" horiz-adv-x="1319" 
d="M725 1880l175 -303h-89l-151 245l-151 -245h-88l174 303h130zM196 0v1434h897v-103h-775v-596h712v-102h-712v-531h805v-102h-927z" />
    <glyph glyph-name="Edieresis" unicode="&#xcb;" horiz-adv-x="1319" 
d="M589 1597q-20 -20 -48 -20t-48 20q-19 20 -19 48.5t19 48.5t47.5 20t48.5 -20t20 -48.5t-20 -48.5zM829 1597q-29 -33 -74.5 -14.5t-42.5 63.5q-3 44 42.5 61.5t74.5 -13.5q19 -20 19 -48.5t-19 -48.5zM196 0v1434h897v-103h-775v-596h712v-102h-712v-531h805v-102h-927z
" />
    <glyph glyph-name="Igrave" unicode="&#xcc;" horiz-adv-x="515" 
d="M304 1577h-93l-202 369h116zM196 0v1434h122v-1434h-122z" />
    <glyph glyph-name="Iacute" unicode="&#xcd;" horiz-adv-x="515" 
d="M507 1946l-203 -369h-92l178 369h117zM196 0v1434h122v-1434h-122z" />
    <glyph glyph-name="Icircumflex" unicode="&#xce;" horiz-adv-x="515" 
d="M323 1880l175 -303h-89l-151 245l-152 -245h-88l175 303h130zM196 0v1434h122v-1434h-122z" />
    <glyph glyph-name="Idieresis" unicode="&#xcf;" horiz-adv-x="515" 
d="M187 1597q-20 -20 -48.5 -20t-47.5 20t-19 48.5t19 48.5t47.5 20t48.5 -20t20 -48.5t-20 -48.5zM378 1577q-30 0 -49.5 19.5t-19.5 49.5q-2 28 20 47.5t49 19t48 -18.5q31 -29 13.5 -74.5t-61.5 -42.5zM196 0v1434h122v-1434h-122z" />
    <glyph glyph-name="Eth" unicode="&#xd0;" horiz-adv-x="1686" 
d="M310 1434h495q149 0 284 -54.5t233 -151.5q96 -94 153 -228q57 -133 57 -283q0 -149 -57 -283t-153 -228q-98 -95 -232 -150q-136 -56 -285 -56h-495v669h-154l-1 96h155v669zM433 102h360q123 0 236.5 47t198.5 130q85 82 133 197t48 241q0 171 -83 314
q-83 141 -224 221q-140 79 -309 79h-360v-566h368v-96h-368v-567z" />
    <glyph glyph-name="Ntilde" unicode="&#xd1;" horiz-adv-x="1449" 
d="M932 1798h89q0 -81 -29.5 -133.5t-86.5 -63.5q-38 -11 -73 0.5t-91 49.5q-7 4 -36 22t-38 23q-39 21 -72 22q-43 0 -61 -44q-14 -33 -15 -90h-88q0 80 28.5 133t81.5 65q65 22 156 -39q17 -7 48 -30t57 -33q24 -11 53 -13q43 0 64 46q13 30 13 85zM1130 301v1133h123
v-1446l-935 1145v-1133h-122v1446z" />
    <glyph glyph-name="Ograve" unicode="&#xd2;" horiz-adv-x="1780" 
d="M937 1577h-93l-202 369h116zM891 -12q-150 0 -286 56t-236 154t-156 233q-58 134 -58 286q0 151 58 286q56 135 156 233q97 96 234 153t288 57q201 0 370 -96q169 -98 267 -264q98 -167 98 -369t-98 -369q-98 -168 -267 -264t-370 -96zM891 102q147 -1 279 67.5
t216 183.5q119 157 119 364q0 170 -82 310t-224 223q-141 81 -308 81q-168 0 -309 -81q-141 -82 -224 -223q-83 -142 -83 -310q0 -124 48.5 -239t132.5 -197q84 -83 198 -131t237 -48z" />
    <glyph glyph-name="Oacute" unicode="&#xd3;" horiz-adv-x="1780" 
d="M1140 1946l-203 -369h-92l178 369h117zM891 -12q-150 0 -286 56t-236 154t-156 233q-58 134 -58 286q0 151 58 286q56 135 156 233q97 96 234 153t288 57q201 0 370 -96q169 -98 267 -264q98 -167 98 -369t-98 -369q-98 -168 -267 -264t-370 -96zM891 102
q147 -1 279 67.5t216 183.5q119 157 119 364q0 170 -82 310t-224 223q-141 81 -308 81q-168 0 -309 -81q-141 -82 -224 -223q-83 -142 -83 -310q0 -124 48.5 -239t132.5 -197q84 -83 198 -131t237 -48z" />
    <glyph glyph-name="Ocircumflex" unicode="&#xd4;" horiz-adv-x="1780" 
d="M955 1880l175 -303h-89l-150 245l-152 -245h-88l174 303h130zM891 -12q-150 0 -286 56t-236 154t-156 233q-58 134 -58 286q0 151 58 286q56 135 156 233q97 96 234 153t288 57q201 0 370 -96q169 -98 267 -264q98 -167 98 -369t-98 -369q-98 -168 -267 -264t-370 -96z
M891 102q147 -1 279 67.5t216 183.5q119 157 119 364q0 170 -82 310t-224 223q-141 81 -308 81q-168 0 -309 -81q-141 -82 -224 -223q-83 -142 -83 -310q0 -124 48.5 -239t132.5 -197q84 -83 198 -131t237 -48z" />
    <glyph glyph-name="Otilde" unicode="&#xd5;" horiz-adv-x="1780" 
d="M1097 1798h89q0 -80 -30 -133t-86 -64q-38 -11 -74 0.5t-90 49.5q-7 4 -36 22t-38 23q-39 21 -72 22q-42 0 -62 -44q-14 -34 -14 -90h-88q0 80 28.5 133t81.5 65q64 22 156 -39q16 -7 48 -30t57 -33q24 -11 53 -13q44 0 63 46q14 33 14 85zM891 -12q-150 0 -286 56
t-236 154t-156 233q-58 134 -58 286q0 151 58 286q56 135 156 233q97 96 234 153t288 57q201 0 370 -96q169 -98 267 -264q98 -167 98 -369t-98 -369q-98 -168 -267 -264t-370 -96zM891 102q147 -1 279 67.5t216 183.5q119 157 119 364q0 170 -82 310t-224 223
q-141 81 -308 81q-168 0 -309 -81q-141 -82 -224 -223q-83 -142 -83 -310q0 -124 48.5 -239t132.5 -197q84 -83 198 -131t237 -48z" />
    <glyph glyph-name="Odieresis" unicode="&#xd6;" horiz-adv-x="1780" 
d="M820 1597q-20 -20 -49 -20t-48 20t-19 48.5t19 48.5t48 20t49 -20t20 -48.5t-20 -48.5zM1011 1577q-30 0 -49.5 19.5t-19.5 49.5q-3 44 42.5 61.5t74.5 -13.5q31 -29 13.5 -74.5t-61.5 -42.5zM891 -12q-150 0 -286 56t-236 154t-156 233q-58 134 -58 286q0 151 58 286
q56 135 156 233q97 96 234 153t288 57q201 0 370 -96q169 -98 267 -264q98 -167 98 -369t-98 -369q-98 -168 -267 -264t-370 -96zM891 102q147 -1 279 67.5t216 183.5q119 157 119 364q0 170 -82 310t-224 223q-141 81 -308 81q-168 0 -309 -81q-141 -82 -224 -223
q-83 -142 -83 -310q0 -124 48.5 -239t132.5 -197q84 -83 198 -131t237 -48z" />
    <glyph glyph-name="multiply" unicode="&#xd7;" horiz-adv-x="1057" 
d="M790 1050l72 -72l-261 -261l261 -261l-72 -73l-261 261l-261 -261l-72 73l261 261l-261 261l72 72l261 -260z" />
    <glyph glyph-name="Oslash" unicode="&#xd8;" horiz-adv-x="1780" 
d="M1588 1366l-154 -155q92 -99 142 -226.5t50 -267.5q0 -202 -98 -369q-98 -168 -267 -264t-370 -96q-140 0 -267.5 48t-227.5 138l-154 -155l-49 49l154 154q-92 100 -142 227t-50 268q0 152 58 287q57 134 156 232q97 96 234 153t288 57q140 0 267 -48t226 -138l155 154z
M275 717q0 -238 157 -410l868 869q-175 156 -409 155q-168 0 -309 -81q-141 -82 -224 -223q-83 -142 -83 -310zM891 102q147 -1 279 67.5t216 183.5q119 157 119 364q0 235 -155 410l-870 -869q174 -156 411 -156z" />
    <glyph glyph-name="Ugrave" unicode="&#xd9;" horiz-adv-x="1392" 
d="M742 1577h-93l-202 369h116zM1073 471l1 963h123v-956q0 -228 -140 -359q-142 -131 -361 -131q-220 0 -360 131t-140 359v956h122v-963q0 -170 107 -269q106 -100 271 -100t271 100q106 99 106 269z" />
    <glyph glyph-name="Uacute" unicode="&#xda;" horiz-adv-x="1392" 
d="M945 1946l-203 -369h-92l178 369h117zM1073 471l1 963h123v-956q0 -228 -140 -359q-142 -131 -361 -131q-220 0 -360 131t-140 359v956h122v-963q0 -170 107 -269q106 -100 271 -100t271 100q106 99 106 269z" />
    <glyph glyph-name="Ucircumflex" unicode="&#xdb;" horiz-adv-x="1392" 
d="M761 1880l175 -303h-89l-151 245l-151 -245h-88l174 303h130zM1073 471l1 963h123v-956q0 -228 -140 -359q-142 -131 -361 -131q-220 0 -360 131t-140 359v956h122v-963q0 -170 107 -269q106 -100 271 -100t271 100q106 99 106 269z" />
    <glyph glyph-name="Udieresis" unicode="&#xdc;" horiz-adv-x="1392" 
d="M625 1597q-20 -20 -48.5 -20t-47.5 20t-19 48.5t19 48.5t47.5 20t48.5 -20t20 -48.5t-20 -48.5zM816 1577q-30 0 -49 19.5t-19 49.5q-2 28 19.5 47.5t48.5 19t49 -18.5q19 -22 19.5 -48.5t-19.5 -48.5t-49 -20zM1073 471l1 963h123v-956q0 -228 -140 -359
q-142 -131 -361 -131q-220 0 -360 131t-140 359v956h122v-963q0 -170 107 -269q106 -100 271 -100t271 100q106 99 106 269z" />
    <glyph glyph-name="Yacute" unicode="&#xdd;" horiz-adv-x="1364" 
d="M815 1946h117l-203 -369h-92zM683 666l433 768h134l-507 -890v-544h-122v544l-507 890h135z" />
    <glyph glyph-name="Thorn" unicode="&#xde;" horiz-adv-x="1350" 
d="M282 1192h458q212 0 352 -138q139 -138 139 -339t-139 -336q-139 -136 -352 -136h-458v-243h-123v1434h123v-242zM282 344h448q158 0 268 108q108 107 110 263q1 153 -109 265q-109 111 -269 111h-448v-747z" />
    <glyph glyph-name="germandbls" unicode="&#xdf;" horiz-adv-x="1447" 
d="M443 666v102h395q116 0 199 83q82 82 82 200q0 116 -82 198t-199 82h-285q-113 0 -174 -60.5t-61 -172.5v-1098h-122v1084q0 170 89.5 260t259.5 90h314q159 0 272 -105q111 -107 111 -264q0 -121 -63 -209q-63 -90 -162 -126q117 -25 197 -125q79 -98 79 -231
q0 -158 -111 -266q-112 -108 -272 -108h-467v102h446q116 0 199 83q82 82 82 199q0 118 -82 200t-199 82h-446z" />
    <glyph glyph-name="agrave" unicode="&#xe0;" 
d="M752 1270h-94l-201 368h115zM680 1139q171 0 304 -79q132 -79 192 -212l4 278h112v-1126h-112l-4 279q-58 -138 -190 -214q-133 -77 -306 -77q-154 0 -281 76q-130 76 -203 208q-75 132 -75 291t75 292q73 131 203 208q127 76 281 76zM706 90q195 0 333 138
q137 139 137 335q0 199 -138 337q-139 137 -332 137q-124 3 -233 -61t-173 -175t-62 -238q-2 -127 62 -237.5t173 -174.5t233 -61z" />
    <glyph glyph-name="aacute" unicode="&#xe1;" 
d="M954 1638l-202 -368h-93l179 368h116zM680 1139q171 0 304 -79q132 -79 192 -212l4 278h112v-1126h-112l-4 279q-58 -138 -190 -214q-133 -77 -306 -77q-154 0 -281 76q-130 76 -203 208q-75 132 -75 291t75 292q73 131 203 208q127 76 281 76zM706 90q195 0 333 138
q137 139 137 335q0 199 -138 337q-139 137 -332 137q-124 3 -233 -61t-173 -175t-62 -238q-2 -127 62 -237.5t173 -174.5t233 -61z" />
    <glyph glyph-name="acircumflex" unicode="&#xe2;" 
d="M770 1573l175 -303h-89l-150 244l-152 -244h-88l174 303h130zM680 1139q171 0 304 -79q132 -79 192 -212l4 278h112v-1126h-112l-4 279q-58 -138 -190 -214q-133 -77 -306 -77q-154 0 -281 76q-130 76 -203 208q-75 132 -75 291t75 292q73 131 203 208q127 76 281 76z
M706 90q195 0 333 138q137 139 137 335q0 199 -138 337q-139 137 -332 137q-124 3 -233 -61t-173 -175t-62 -238q-2 -127 62 -237.5t173 -174.5t233 -61z" />
    <glyph glyph-name="atilde" unicode="&#xe3;" 
d="M911 1491h89q0 -80 -29.5 -133t-85.5 -65q-38 -11 -73.5 1t-90.5 49q-5 3 -74 46q-35 21 -73 22q-43 0 -61 -44q-14 -34 -14 -90h-88q0 79 28 132.5t81 65.5q65 23 157 -39q17 -8 48 -30q35 -25 57 -34q26 -11 53 -12q44 0 63 46q13 30 13 85zM680 1139q171 0 304 -79
q132 -79 192 -212l4 278h112v-1126h-112l-4 279q-58 -138 -190 -214q-133 -77 -306 -77q-154 0 -281 76q-130 76 -203 208q-75 132 -75 291t75 292q73 131 203 208q127 76 281 76zM706 90q195 0 333 138q137 139 137 335q0 199 -138 337q-139 137 -332 137q-124 3 -233 -61
t-173 -175t-62 -238q-2 -127 62 -237.5t173 -174.5t233 -61z" />
    <glyph glyph-name="adieresis" unicode="&#xe4;" 
d="M634 1290q-20 -20 -48.5 -20t-47.5 20q-20 20 -20 49t20 48t48 19t48 -19t20 -48t-20 -49zM874 1290q-20 -20 -48.5 -20t-48.5 20t-20 49t20 48t48.5 19t48.5 -19t20 -48t-20 -49zM680 1139q171 0 304 -79q132 -79 192 -212l4 278h112v-1126h-112l-4 279
q-58 -138 -190 -214q-133 -77 -306 -77q-154 0 -281 76q-130 76 -203 208q-75 132 -75 291t75 292q73 131 203 208q127 76 281 76zM706 90q195 0 333 138q137 139 137 335q0 199 -138 337q-139 137 -332 137q-124 3 -233 -61t-173 -175t-62 -238q-2 -127 62 -237.5
t173 -174.5t233 -61z" />
    <glyph glyph-name="aring" unicode="&#xe5;" 
d="M707 1229q-96 0 -164 68t-68 164q0 94 68 162t164 68q94 0 162 -68t68 -162q0 -96 -68 -164t-162 -68zM707 1305q63 0 109 46q45 47 45 110t-45 109q-46 45 -109 45q-65 0 -111 -45q-46 -46 -46 -109q0 -64 46 -110t111 -46zM680 1139q171 0 304 -79q132 -79 192 -212
l4 278h112v-1126h-112l-4 279q-58 -138 -190 -214q-133 -77 -306 -77q-154 0 -281 76q-130 76 -203 208q-75 132 -75 291t75 292q73 131 203 208q127 76 281 76zM706 90q195 0 333 138q137 139 137 335q0 199 -138 337q-139 137 -332 137q-124 3 -233 -61t-173 -175
t-62 -238q-2 -127 62 -237.5t173 -174.5t233 -61z" />
    <glyph glyph-name="ae" unicode="&#xe6;" horiz-adv-x="2506" 
d="M1803 1139q121 0 230.5 -47t189.5 -130q79 -83 122.5 -200.5t40.5 -247.5h-1050q16 -184 151 -306q134 -122 316 -122q147 0 266 81q117 80 173 217l99 -48q-68 -159 -214 -253q-148 -95 -324 -95q-161 0 -298 78q-136 78 -213 212v-278h-112l-4 279q-58 -138 -190 -214
q-133 -77 -306 -77q-154 0 -281 76q-130 76 -203 208q-75 132 -75 291t75 292q73 131 203 208q127 76 281 76q171 0 304 -79q132 -79 192 -212l4 278h112v-277q76 132 213 212q137 78 298 78zM1803 1040q-185 0 -316 -121q-133 -121 -151 -307h935q-17 184 -150 306
q-134 122 -318 122zM706 90q195 0 333 138q137 139 137 335q0 199 -138 337q-139 137 -332 137q-124 3 -233 -61t-173 -175t-62 -238q-2 -127 62 -237.5t173 -174.5t233 -61z" />
    <glyph glyph-name="ccedilla" unicode="&#xe7;" horiz-adv-x="1304" 
d="M707 88q116 0 213.5 51t160.5 144l104 -49q-73 -109 -189 -173q-117 -65 -255 -72v-71q84 12 152 -44q60 -44 56 -123q-5 -79 -72 -120q-91 -57 -332 -41v66q187 -16 266 23q55 28 59 83q5 56 -42 88q-24 21 -70 27t-87 -4v116q-149 5 -276 83t-201.5 209t-72.5 282
q0 119 46 227t126 185t188 120.5t226 43.5q147 0 274 -66q128 -66 204 -181l-104 -48q-63 92 -161 143t-213 51q-196 0 -333 -137t-137 -338t137 -338t333 -137z" />
    <glyph glyph-name="egrave" unicode="&#xe8;" horiz-adv-x="1409" 
d="M572 1638l180 -368h-94l-201 368h115zM706 1139q121 0 230.5 -47t189.5 -130q78 -83 121.5 -200.5t40.5 -247.5h-1049q16 -184 151 -306q134 -122 316 -122q148 0 266 81t172 217l99 -48q-68 -159 -213 -253q-148 -95 -324 -95q-118 0 -225.5 43.5t-187.5 120.5
q-80 76 -126 184t-46 227t46 227t126 185t187.5 120.5t225.5 43.5zM706 1040q-184 0 -317 -121t-150 -307h935q-16 184 -150 306t-318 122z" />
    <glyph glyph-name="eacute" unicode="&#xe9;" horiz-adv-x="1409" 
d="M838 1638h116l-202 -368h-93zM706 1139q121 0 230.5 -47t189.5 -130q78 -83 121.5 -200.5t40.5 -247.5h-1049q16 -184 151 -306q134 -122 316 -122q148 0 266 81t172 217l99 -48q-68 -159 -213 -253q-148 -95 -324 -95q-118 0 -225.5 43.5t-187.5 120.5q-80 76 -126 184
t-46 227t46 227t126 185t187.5 120.5t225.5 43.5zM706 1040q-184 0 -317 -121t-150 -307h935q-16 184 -150 306t-318 122z" />
    <glyph glyph-name="ecircumflex" unicode="&#xea;" horiz-adv-x="1409" 
d="M856 1270l-150 244l-152 -244h-88l174 303h130l175 -303h-89zM706 1139q121 0 230.5 -47t189.5 -130q78 -83 121.5 -200.5t40.5 -247.5h-1049q16 -184 151 -306q134 -122 316 -122q148 0 266 81t172 217l99 -48q-68 -159 -213 -253q-148 -95 -324 -95q-118 0 -225.5 43.5
t-187.5 120.5q-80 76 -126 184t-46 227t46 227t126 185t187.5 120.5t225.5 43.5zM706 1040q-184 0 -317 -121t-150 -307h935q-16 184 -150 306t-318 122z" />
    <glyph glyph-name="edieresis" unicode="&#xeb;" horiz-adv-x="1409" 
d="M633 1290q-20 -20 -48.5 -20t-47.5 20t-19 49t19 48t47.5 19t48.5 -19t20 -48t-20 -49zM824 1270q-30 0 -49 19.5t-19 48.5t20 48.5t49 19.5t48 -19t19 -48t-19.5 -49t-48.5 -20zM706 1139q121 0 230.5 -47t189.5 -130q78 -83 121.5 -200.5t40.5 -247.5h-1049
q16 -184 151 -306q134 -122 316 -122q148 0 266 81t172 217l99 -48q-68 -159 -213 -253q-148 -95 -324 -95q-118 0 -225.5 43.5t-187.5 120.5q-80 76 -126 184t-46 227t46 227t126 185t187.5 120.5t225.5 43.5zM706 1040q-184 0 -317 -121t-150 -307h935q-16 184 -150 306
t-318 122z" />
    <glyph glyph-name="igrave" unicode="&#xec;" horiz-adv-x="435" 
d="M264 1270h-93l-203 368h117zM159 0v1126h116v-1126h-116z" />
    <glyph glyph-name="iacute" unicode="&#xed;" horiz-adv-x="435" 
d="M467 1638l-203 -368h-92l178 368h117zM159 0v1126h116v-1126h-116z" />
    <glyph glyph-name="icircumflex" unicode="&#xee;" horiz-adv-x="435" 
d="M283 1573l175 -303h-89l-151 244l-151 -244h-90l176 303h130zM159 0v1126h116v-1126h-116z" />
    <glyph glyph-name="idieresis" unicode="&#xef;" horiz-adv-x="435" 
d="M147 1290q-20 -20 -48 -20t-48 20q-19 20 -19 49t19 48t47.5 19t48.5 -19t20 -48t-20 -49zM387 1290q-20 -20 -49 -20t-49 20t-20 49t20 48t49.5 19t48.5 -19t19 -48t-19 -49zM159 0v1126h116v-1126h-116z" />
    <glyph glyph-name="eth" unicode="&#xf0;" horiz-adv-x="1270" 
d="M1018 1348l-75 -92q208 -214 208 -775q3 -133 -66.5 -247.5t-189.5 -180.5t-259 -63q-217 0 -365 142q-150 142 -150 349q-2 124 57.5 233t164.5 175.5t229 69.5q158 6 282 -67t175 -191q-20 312 -156 469l-68 -83l-62 39l78 95q-100 80 -232 76v92q179 5 300 -85l67 81z
M636 83q162 0 278 116q114 115 114 282t-114 283q-116 116 -278 116q-163 0 -277 -116q-115 -115 -115 -283q0 -167 115 -282q116 -116 277 -116z" />
    <glyph glyph-name="ntilde" unicode="&#xf1;" horiz-adv-x="1320" 
d="M873 1491h90q0 -80 -30 -133t-86 -65q-38 -11 -73.5 1t-90.5 49q-10 6 -38 23.5l-36 22.5q-35 21 -72 22q-42 0 -62 -44q-14 -34 -14 -90h-88q0 79 28 132.5t81 65.5q65 23 157 -39q17 -8 48 -30q35 -25 57 -34q26 -11 53 -12q44 0 63 46q13 30 13 85zM1161 0h-117v563
q0 237 -82.5 355.5t-263.5 118.5q-196 1 -311 -133.5t-112 -340.5v-563h-116v1126h112l4 -272q54 137 170 211t285 74q227 0 329 -148t102 -428v-563z" />
    <glyph glyph-name="ograve" unicode="&#xf2;" horiz-adv-x="1412" 
d="M753 1270h-94l-201 368h115zM933 32q-108 -44 -226.5 -44t-226.5 44q-220 90 -312 303q-46 107 -46 228t46 229q92 213 312 303q108 44 226.5 44t226.5 -44q221 -91 313 -303q46 -108 46 -229t-46 -228q-91 -211 -313 -303zM707 89q194 0 332 138t138 337q0 197 -137 336
q-139 137 -333 137q-196 0 -333 -137q-137 -139 -137 -336q0 -198 137 -337q136 -138 333 -138z" />
    <glyph glyph-name="oacute" unicode="&#xf3;" horiz-adv-x="1412" 
d="M955 1638l-202 -368h-93l179 368h116zM933 32q-108 -44 -226.5 -44t-226.5 44q-220 90 -312 303q-46 107 -46 228t46 229q92 213 312 303q108 44 226.5 44t226.5 -44q221 -91 313 -303q46 -108 46 -229t-46 -228q-91 -211 -313 -303zM707 89q194 0 332 138t138 337
q0 197 -137 336q-139 137 -333 137q-196 0 -333 -137q-137 -139 -137 -336q0 -198 137 -337q136 -138 333 -138z" />
    <glyph glyph-name="ocircumflex" unicode="&#xf4;" horiz-adv-x="1412" 
d="M771 1573l175 -303h-89l-150 244l-152 -244h-88l174 303h130zM933 32q-108 -44 -226.5 -44t-226.5 44q-220 90 -312 303q-46 107 -46 228t46 229q92 213 312 303q108 44 226.5 44t226.5 -44q221 -91 313 -303q46 -108 46 -229t-46 -228q-91 -211 -313 -303zM707 89
q194 0 332 138t138 337q0 197 -137 336q-139 137 -333 137q-196 0 -333 -137q-137 -139 -137 -336q0 -198 137 -337q136 -138 333 -138z" />
    <glyph glyph-name="otilde" unicode="&#xf5;" horiz-adv-x="1412" 
d="M912 1491h89q0 -80 -29.5 -133t-85.5 -65q-38 -11 -73.5 1t-90.5 49q-5 3 -74 46q-35 21 -73 22q-43 0 -61 -44q-14 -34 -14 -90h-88q0 79 28 132.5t81 65.5q65 23 157 -39q16 -8 48 -30q35 -25 57 -34q26 -11 53 -12q44 0 63 46q13 30 13 85zM933 32
q-108 -44 -226.5 -44t-226.5 44q-220 90 -312 303q-46 107 -46 228t46 229q92 213 312 303q108 44 226.5 44t226.5 -44q221 -91 313 -303q46 -108 46 -229t-46 -228q-91 -211 -313 -303zM707 89q194 0 332 138t138 337q0 197 -137 336q-139 137 -333 137q-196 0 -333 -137
q-137 -139 -137 -336q0 -198 137 -337q136 -138 333 -138z" />
    <glyph glyph-name="odieresis" unicode="&#xf6;" horiz-adv-x="1412" 
d="M635 1290q-20 -20 -48.5 -20t-47.5 20t-19 49t19 48t47.5 19t48.5 -19t20 -48t-20 -49zM826 1270q-30 0 -49 19.5t-19 48.5t20 48.5t49 19.5t48 -19t19 -48t-19.5 -49t-48.5 -20zM933 32q-108 -44 -226.5 -44t-226.5 44q-220 90 -312 303q-46 107 -46 228t46 229
q92 213 312 303q108 44 226.5 44t226.5 -44q221 -91 313 -303q46 -108 46 -229t-46 -228q-91 -211 -313 -303zM707 89q194 0 332 138t138 337q0 197 -137 336q-139 137 -333 137q-196 0 -333 -137q-137 -139 -137 -336q0 -198 137 -337q136 -138 333 -138z" />
    <glyph glyph-name="divide" unicode="&#xf7;" horiz-adv-x="1231" 
d="M666 1035q-20 -21 -49.5 -21t-49.5 21q-21 20 -21 49.5t21 49.5q20 20 49 20t50 -20q20 -20 20 -49.5t-20 -49.5zM196 768h840v-102h-840v102zM666 300q-20 -20 -49.5 -20t-49.5 21q-21 20 -21 49.5t21 49.5q22 20 49 20t49.5 -20.5t20.5 -49.5q0 -30 -20 -50z" />
    <glyph glyph-name="oslash" unicode="&#xf8;" horiz-adv-x="1412" 
d="M1270 1084l-130 -130q154 -164 152 -391q0 -119 -46 -227t-126 -184q-81 -77 -189 -120.5t-224 -43.5q-224 0 -391 143l-133 -133l-43 44l131 131q-151 163 -150 390q0 119 46 227t126 185t188 120.5t226 43.5q224 0 388 -143l132 132zM237 563q0 -177 113 -311l668 668
q-132 119 -311 117q-196 0 -333 -137q-137 -139 -137 -337zM707 89q194 0 332 138t138 336q0 177 -116 313l-668 -668q136 -119 314 -119z" />
    <glyph glyph-name="ugrave" unicode="&#xf9;" horiz-adv-x="1320" 
d="M707 1270h-94l-201 368h115zM160 1126h116v-563q0 -237 83 -355t264 -118q199 0 312 132q111 132 111 341v563h116v-1126h-112l-4 272q-54 -137 -169.5 -210.5t-285.5 -73.5q-227 0 -329 149t-102 426v563z" />
    <glyph glyph-name="uacute" unicode="&#xfa;" horiz-adv-x="1320" 
d="M909 1638l-202 -368h-93l179 368h116zM160 1126h116v-563q0 -237 83 -355t264 -118q199 0 312 132q111 132 111 341v563h116v-1126h-112l-4 272q-54 -137 -169.5 -210.5t-285.5 -73.5q-227 0 -329 149t-102 426v563z" />
    <glyph glyph-name="ucircumflex" unicode="&#xfb;" horiz-adv-x="1320" 
d="M725 1573l175 -303h-89l-151 244l-151 -244h-88l174 303h130zM160 1126h116v-563q0 -237 83 -355t264 -118q199 0 312 132q111 132 111 341v563h116v-1126h-112l-4 272q-54 -137 -169.5 -210.5t-285.5 -73.5q-227 0 -329 149t-102 426v563z" />
    <glyph glyph-name="udieresis" unicode="&#xfc;" horiz-adv-x="1320" 
d="M589 1290q-20 -20 -48 -20t-48 20q-19 20 -19 49t19 48t47.5 19t48.5 -19t20 -48t-20 -49zM829 1290q-20 -20 -48.5 -20t-48.5 20t-20 49t20 48t49 19t48 -19t19 -48t-19 -49zM160 1126h116v-563q0 -237 83 -355t264 -118q199 0 312 132q111 132 111 341v563h116v-1126
h-112l-4 272q-54 -137 -169.5 -210.5t-285.5 -73.5q-227 0 -329 149t-102 426v563z" />
    <glyph glyph-name="yacute" unicode="&#xfd;" horiz-adv-x="1205" 
d="M735 1638h117l-203 -368h-92zM603 106l390 1020h127l-450 -1120q-145 -337 -499 -339l-8 90q141 7 239.5 66t140.5 159l-457 1144h126z" />
    <glyph glyph-name="thorn" unicode="&#xfe;" 
d="M771 -12q-172 0 -303 79q-134 80 -192 212v-689h-117v1946h117v-688q59 133 191 212q133 79 304 79q155 0 283 -76q130 -77 203 -208q74 -134 74 -292t-74 -291q-73 -132 -203 -208q-128 -76 -283 -76zM981 975q-110 62 -236 62t-235 -62q-108 -63 -171 -172t-63 -240
q0 -199 138 -336q137 -137 332 -137q194 0 331 138q137 139 137 335q0 130 -62 240q-63 109 -171 172z" />
    <glyph glyph-name="ydieresis" unicode="&#xff;" horiz-adv-x="1205" 
d="M532 1290q-20 -20 -48 -20t-48 20t-20 49t20 48t48 19t48 -19t20 -48t-20 -49zM772 1290q-20 -20 -49 -20t-49 20t-20 49t20 48t49 19t49 -19t20 -48t-20 -49zM603 106l390 1020h127l-450 -1120q-145 -337 -499 -339l-8 90q141 7 239.5 66t140.5 159l-457 1144h126z" />
    <glyph glyph-name="Amacron" unicode="&#x100;" horiz-adv-x="1443" 
d="M447 1672h548v-95h-548v95zM1329 0h-123l-117 322h-734l-117 -322h-124l522 1434h171zM722 1322l-330 -898h659z" />
    <glyph glyph-name="amacron" unicode="&#x101;" 
d="M432 1270v95h548v-95h-548zM680 1139q171 0 304 -79q132 -79 192 -212l4 278h112v-1126h-112l-4 279q-58 -138 -190 -214q-133 -77 -306 -77q-154 0 -281 76q-130 76 -203 208q-75 132 -75 291t75 292q73 131 203 208q127 76 281 76zM706 90q195 0 333 138
q137 139 137 335q0 199 -138 337q-139 137 -332 137q-124 3 -233 -61t-173 -175t-62 -238q-2 -127 62 -237.5t173 -174.5t233 -61z" />
    <glyph glyph-name="Abreve" unicode="&#x102;" horiz-adv-x="1443" 
d="M723 1577q-111 0 -179 67q-69 66 -68 174h91q0 -67 45 -112q45 -46 111 -46q65 0 110 46q44 46 44 112h92q0 -108 -69 -174q-68 -67 -177 -67zM1329 0h-123l-117 322h-734l-117 -322h-124l522 1434h171zM722 1322l-330 -898h659z" />
    <glyph glyph-name="abreve" unicode="&#x103;" 
d="M460 1510h91q0 -67 45 -112t111 -45t109 46q44 46 44 111h92q0 -108 -69 -174t-176 -66q-110 0 -179 66t-68 174zM680 1139q171 0 304 -79q132 -79 192 -212l4 278h112v-1126h-112l-4 279q-58 -138 -190 -214q-133 -77 -306 -77q-154 0 -281 76q-130 76 -203 208
q-75 132 -75 291t75 292q73 131 203 208q127 76 281 76zM706 90q195 0 333 138q137 139 137 335q0 199 -138 337q-139 137 -332 137q-124 3 -233 -61t-173 -175t-62 -238q-2 -127 62 -237.5t173 -174.5t233 -61z" />
    <glyph glyph-name="Aogonek" unicode="&#x104;" horiz-adv-x="1443" 
d="M1197 -282q28 -22 70 -14q13 3 49 12v-60q-57 -22 -116 -16q-77 6 -106 65q-30 66 24 162q41 81 111 133h-23l-117 322h-734l-117 -322h-124l522 1434h171l522 -1434h-21q-62 -48 -102 -115q-19 -29 -29 -58t-6.5 -59.5t26.5 -49.5zM722 1322l-330 -898h659z" />
    <glyph glyph-name="aogonek" unicode="&#x105;" 
d="M1292 0h-19q-62 -48 -102 -115q-19 -29 -29 -58t-6 -59t26 -50q28 -22 70 -14q13 3 49 12v-60q-57 -22 -116 -16q-77 6 -106 65q-30 66 24 162q41 81 111 133h-14l-4 279q-58 -138 -190 -214q-133 -77 -306 -77q-154 0 -281 76q-130 76 -203 208q-75 132 -75 291t75 292
q73 131 203 208q127 76 281 76q171 0 304 -79q132 -79 192 -212l4 278h112v-1126zM706 90q195 0 333 138q137 139 137 335q0 199 -138 337q-139 137 -332 137q-124 3 -233 -61t-173 -175t-62 -238q-2 -127 62 -237.5t173 -174.5t233 -61z" />
    <glyph glyph-name="Cacute" unicode="&#x106;" horiz-adv-x="1653" 
d="M1140 1946l-203 -369h-92l178 369h117zM891 102q155 0 286 70q133 71 216 190l106 -55q-98 -147 -259 -233t-349 -86q-150 0 -286 56t-236 154t-156 233q-58 134 -58 286q0 151 58 286q56 135 156 233q97 96 234 153t288 57q189 0 349 -85q159 -85 259 -235l-106 -55
q-83 120 -216 191q-133 69 -286 69q-168 0 -309 -81q-141 -82 -224 -223q-83 -142 -83 -310t83 -310q83 -143 224 -223q140 -82 309 -82z" />
    <glyph glyph-name="cacute" unicode="&#x107;" horiz-adv-x="1304" 
d="M955 1638l-202 -368h-93l179 368h116zM707 88q116 0 213.5 51t160.5 144l104 -49q-77 -116 -204 -180q-127 -66 -274 -66q-118 0 -226 43.5t-188 120.5q-80 76 -126 184t-46 227t46 227t126 185t188 120.5t226 43.5q147 0 274 -66q128 -66 204 -181l-104 -48
q-63 92 -161 143t-213 51q-196 0 -333 -137t-137 -338t137 -338t333 -137z" />
    <glyph glyph-name="Ccircumflex" unicode="&#x108;" horiz-adv-x="1653" 
d="M955 1880l175 -303h-89l-150 245l-152 -245h-88l174 303h130zM891 102q155 0 286 70q133 71 216 190l106 -55q-98 -147 -259 -233t-349 -86q-150 0 -286 56t-236 154t-156 233q-58 134 -58 286q0 151 58 286q56 135 156 233q97 96 234 153t288 57q189 0 349 -85
q159 -85 259 -235l-106 -55q-83 120 -216 191q-133 69 -286 69q-168 0 -309 -81q-141 -82 -224 -223q-83 -142 -83 -310t83 -310q83 -143 224 -223q140 -82 309 -82z" />
    <glyph glyph-name="ccircumflex" unicode="&#x109;" horiz-adv-x="1304" 
d="M771 1573l175 -303h-89l-150 244l-152 -244h-88l174 303h130zM707 88q116 0 213.5 51t160.5 144l104 -49q-77 -116 -204 -180q-127 -66 -274 -66q-118 0 -226 43.5t-188 120.5q-80 76 -126 184t-46 227t46 227t126 185t188 120.5t226 43.5q147 0 274 -66
q128 -66 204 -181l-104 -48q-63 92 -161 143t-213 51q-196 0 -333 -137t-137 -338t137 -338t333 -137z" />
    <glyph glyph-name="Cdotaccent" unicode="&#x10a;" horiz-adv-x="1653" 
d="M939 1597q-19 -20 -48.5 -20t-48.5 20q-20 20 -20 48.5t20 48.5t49 20t48 -20t19 -48.5t-19 -48.5zM891 102q155 0 286 70q133 71 216 190l106 -55q-98 -147 -259 -233t-349 -86q-150 0 -286 56t-236 154t-156 233q-58 134 -58 286q0 151 58 286q56 135 156 233
q97 96 234 153t288 57q189 0 349 -85q159 -85 259 -235l-106 -55q-83 120 -216 191q-133 69 -286 69q-168 0 -309 -81q-141 -82 -224 -223q-83 -142 -83 -310t83 -310q83 -143 224 -223q140 -82 309 -82z" />
    <glyph glyph-name="cdotaccent" unicode="&#x10b;" horiz-adv-x="1304" 
d="M754 1290q-20 -20 -48 -20t-48 20t-20 49t20 48t48 19t48 -19t20 -48t-20 -49zM707 88q116 0 213.5 51t160.5 144l104 -49q-77 -116 -204 -180q-127 -66 -274 -66q-118 0 -226 43.5t-188 120.5q-80 76 -126 184t-46 227t46 227t126 185t188 120.5t226 43.5q147 0 274 -66
q128 -66 204 -181l-104 -48q-63 92 -161 143t-213 51q-196 0 -333 -137t-137 -338t137 -338t333 -137z" />
    <glyph glyph-name="Ccaron" unicode="&#x10c;" horiz-adv-x="1653" 
d="M1041 1880h89l-175 -303h-130l-174 303h88l152 -245zM891 102q155 0 286 70q133 71 216 190l106 -55q-98 -147 -259 -233t-349 -86q-150 0 -286 56t-236 154t-156 233q-58 134 -58 286q0 151 58 286q56 135 156 233q97 96 234 153t288 57q189 0 349 -85q159 -85 259 -235
l-106 -55q-83 120 -216 191q-133 69 -286 69q-168 0 -309 -81q-141 -82 -224 -223q-83 -142 -83 -310t83 -310q83 -143 224 -223q140 -82 309 -82z" />
    <glyph glyph-name="ccaron" unicode="&#x10d;" horiz-adv-x="1304" 
d="M857 1573h89l-175 -303h-130l-174 303h88l152 -245zM707 88q116 0 213.5 51t160.5 144l104 -49q-77 -116 -204 -180q-127 -66 -274 -66q-118 0 -226 43.5t-188 120.5q-80 76 -126 184t-46 227t46 227t126 185t188 120.5t226 43.5q147 0 274 -66q128 -66 204 -181
l-104 -48q-63 92 -161 143t-213 51q-196 0 -333 -137t-137 -338t137 -338t333 -137z" />
    <glyph glyph-name="Dcaron" unicode="&#x10e;" horiz-adv-x="1572" 
d="M938 1880h89l-175 -303h-130l-174 303h88l151 -245zM196 1434h494q149 0 284 -54.5t234 -151.5q99 -96 154 -229.5t55 -281.5t-55 -281.5t-154 -229.5q-99 -97 -234 -151.5t-284 -54.5h-494v1434zM318 102h360q123 0 236.5 47t198.5 130q85 82 133 197t48 241
q0 127 -48 242t-132 197q-85 82 -198.5 128.5t-237.5 46.5h-360v-1229z" />
    <glyph glyph-name="dcaron" unicode="&#x10f;" horiz-adv-x="1799" 
d="M680 1139q171 0 304 -79t192 -212v688h116v-1536h-112l-4 279q-57 -137 -189 -214q-134 -77 -307 -77q-154 0 -281 76q-130 76 -203 208q-75 132 -75 291t75 292q73 131 203 208q127 76 281 76zM1479 1063l80 371h120l-96 -371h-104zM706 90q195 0 333 138
q137 139 137 335q0 199 -138 337q-139 137 -332 137q-124 3 -233 -61t-173 -175t-62 -238q-2 -127 62 -237.5t173 -174.5t233 -61z" />
    <glyph glyph-name="Dcroat" unicode="&#x110;" horiz-adv-x="1686" 
d="M310 1434h495q149 0 284 -54.5t233 -151.5q96 -94 153 -228q57 -133 57 -283q0 -149 -57 -283t-153 -228q-98 -95 -232 -150q-136 -56 -285 -56h-495v669h-154l-1 96h155v669zM433 102h360q123 0 236.5 47t198.5 130q85 82 133 197t48 241q0 171 -83 314
q-83 141 -224 221q-140 79 -309 79h-360v-566h368v-96h-368v-567z" />
    <glyph glyph-name="dslash" unicode="&#x111;" horiz-adv-x="1453" 
d="M1292 1377h97v-80h-97v-1297h-112l-4 279q-57 -137 -189 -214q-134 -77 -307 -77q-154 0 -281 76q-130 76 -203 208q-75 132 -75 291t75 292q73 131 203 208q127 76 281 76q171 0 304 -79t192 -212v449h-402v80h402v159h116v-159zM706 90q195 0 333 138q137 139 137 335
q0 199 -138 337q-139 137 -332 137q-124 3 -233 -61t-173 -175t-62 -238q-2 -127 62 -237.5t173 -174.5t233 -61z" />
    <glyph glyph-name="Emacron" unicode="&#x112;" horiz-adv-x="1319" 
d="M387 1577v95h548v-95h-548zM196 0v1434h897v-103h-775v-596h712v-102h-712v-531h805v-102h-927z" />
    <glyph glyph-name="emacron" unicode="&#x113;" horiz-adv-x="1409" 
d="M431 1365h548v-95h-548v95zM706 1139q121 0 230.5 -47t189.5 -130q78 -83 121.5 -200.5t40.5 -247.5h-1049q16 -184 151 -306q134 -122 316 -122q148 0 266 81t172 217l99 -48q-68 -159 -213 -253q-148 -95 -324 -95q-118 0 -225.5 43.5t-187.5 120.5q-80 76 -126 184
t-46 227t46 227t126 185t187.5 120.5t225.5 43.5zM706 1040q-184 0 -317 -121t-150 -307h935q-16 184 -150 306t-318 122z" />
    <glyph glyph-name="Edotaccent" unicode="&#x116;" horiz-adv-x="1319" 
d="M709 1597q-20 -20 -48.5 -20t-47.5 20t-19 48.5t19 48.5t47.5 20t48.5 -20t20 -48.5t-20 -48.5zM196 0v1434h897v-103h-775v-596h712v-102h-712v-531h805v-102h-927z" />
    <glyph glyph-name="edotaccent" unicode="&#x117;" horiz-adv-x="1409" 
d="M753 1290q-20 -20 -48 -20t-48 20q-19 20 -19 49t19 48t47.5 19t48.5 -19t20 -48t-20 -49zM706 1139q121 0 230.5 -47t189.5 -130q78 -83 121.5 -200.5t40.5 -247.5h-1049q16 -184 151 -306q134 -122 316 -122q148 0 266 81t172 217l99 -48q-68 -159 -213 -253
q-148 -95 -324 -95q-118 0 -225.5 43.5t-187.5 120.5q-80 76 -126 184t-46 227t46 227t126 185t187.5 120.5t225.5 43.5zM706 1040q-184 0 -317 -121t-150 -307h935q-16 184 -150 306t-318 122z" />
    <glyph glyph-name="Eogonek" unicode="&#x118;" horiz-adv-x="1319" 
d="M1123 0h-426q-63 -49 -101 -115q-19 -30 -29 -58.5t-6.5 -58.5t26.5 -50q28 -22 70 -14q13 3 49 12v-60q-57 -22 -116 -16q-77 6 -107 65q-30 66 25 162q41 81 110 133h-422v1434h897v-103h-775v-596h712v-102h-712v-531h805v-102z" />
    <glyph glyph-name="eogonek" unicode="&#x119;" horiz-adv-x="1409" 
d="M706 1139q121 0 230.5 -47t189.5 -130q78 -83 121.5 -200.5t40.5 -247.5h-1049q16 -184 151 -306q134 -122 316 -122q148 0 266 81t172 217l99 -48q-40 -93 -110.5 -167t-161.5 -119l-23 -35q-19 -30 -29 -58.5t-6.5 -58.5t26.5 -50q28 -22 70 -14q13 3 49 12v-60
q-57 -22 -116 -16q-77 6 -106 65q-30 66 24 162l7 13q-80 -23 -161 -22q-118 0 -225.5 43.5t-187.5 120.5q-80 76 -126 184t-46 227t46 227t126 185t187.5 120.5t225.5 43.5zM706 1040q-184 0 -317 -121t-150 -307h935q-16 184 -150 306t-318 122z" />
    <glyph glyph-name="Ecaron" unicode="&#x11a;" horiz-adv-x="1319" 
d="M811 1880h89l-175 -303h-130l-174 303h88l151 -245zM196 0v1434h897v-103h-775v-596h712v-102h-712v-531h805v-102h-927z" />
    <glyph glyph-name="ecaron" unicode="&#x11b;" horiz-adv-x="1409" 
d="M945 1573l-175 -303h-130l-174 303h88l152 -245l150 245h89zM706 1139q121 0 230.5 -47t189.5 -130q78 -83 121.5 -200.5t40.5 -247.5h-1049q16 -184 151 -306q134 -122 316 -122q148 0 266 81t172 217l99 -48q-68 -159 -213 -253q-148 -95 -324 -95q-118 0 -225.5 43.5
t-187.5 120.5q-80 76 -126 184t-46 227t46 227t126 185t187.5 120.5t225.5 43.5zM706 1040q-184 0 -317 -121t-150 -307h935q-16 184 -150 306t-318 122z" />
    <glyph glyph-name="Gcircumflex" unicode="&#x11c;" horiz-adv-x="1780" 
d="M1041 1577l-150 245l-152 -245h-88l174 303h130l175 -303h-89zM880 653v113h746v-49q0 -202 -98 -369q-98 -168 -267 -264t-370 -96q-150 0 -286 56t-236 154t-156 233q-58 134 -58 286q0 151 58 286q56 135 156 233q97 96 234 153t288 57q190 0 350 -85
q159 -85 258 -235l-106 -55q-81 120 -216 191q-133 69 -286 69q-168 0 -309 -81q-141 -82 -224 -223q-83 -142 -83 -310q0 -124 48.5 -239t132.5 -197q84 -83 198 -131t237 -48q155 0 290 75q134 73 220 201q84 124 101 275h-622z" />
    <glyph glyph-name="gcircumflex" unicode="&#x11d;" 
d="M791 1573l175 -303h-89l-151 244l-152 -244h-88l174 303h131zM1176 848l4 278h112v-1037q0 -128 -44.5 -227.5t-125.5 -161.5q-163 -122 -411 -122q-146 0 -272 59t-211 165l68 71q157 -193 407 -192q202 0 334 96q66 49 102.5 130.5t36.5 185.5v186q-58 -138 -190 -214
q-133 -77 -306 -77q-154 0 -281 76q-130 76 -203 208q-75 132 -75 291t75 292q73 131 203 208q127 76 281 76q171 0 304 -79q132 -79 192 -212zM706 90q195 0 333 138q137 139 137 336t-138 335t-332 138q-124 3 -233 -61t-173 -175t-62 -238q-2 -127 62 -237.5t173 -174.5
t233 -61z" />
    <glyph glyph-name="Gbreve" unicode="&#x11e;" horiz-adv-x="1780" 
d="M892 1577q-111 0 -179 67q-69 66 -68 174h91q0 -67 45 -112q45 -46 111 -46q65 0 110 46q44 46 44 112h92q0 -108 -69 -174q-68 -67 -177 -67zM880 653v113h746v-49q0 -202 -98 -369q-98 -168 -267 -264t-370 -96q-150 0 -286 56t-236 154t-156 233q-58 134 -58 286
q0 151 58 286q56 135 156 233q97 96 234 153t288 57q190 0 350 -85q159 -85 258 -235l-106 -55q-81 120 -216 191q-133 69 -286 69q-168 0 -309 -81q-141 -82 -224 -223q-83 -142 -83 -310q0 -124 48.5 -239t132.5 -197q84 -83 198 -131t237 -48q155 0 290 75
q134 73 220 201q84 124 101 275h-622z" />
    <glyph glyph-name="gbreve" unicode="&#x11f;" 
d="M480 1510h91q0 -67 46 -112q45 -45 111 -45t109 46q44 46 44 111h92q0 -108 -69 -174t-177 -66q-110 0 -179 66t-68 174zM1176 848l4 278h112v-1037q0 -128 -44.5 -227.5t-125.5 -161.5q-163 -122 -411 -122q-146 0 -272 59t-211 165l68 71q157 -193 407 -192
q202 0 334 96q66 49 102.5 130.5t36.5 185.5v186q-58 -138 -190 -214q-133 -77 -306 -77q-154 0 -281 76q-130 76 -203 208q-75 132 -75 291t75 292q73 131 203 208q127 76 281 76q171 0 304 -79q132 -79 192 -212zM706 90q195 0 333 138q137 139 137 336t-138 335t-332 138
q-124 3 -233 -61t-173 -175t-62 -238q-2 -127 62 -237.5t173 -174.5t233 -61z" />
    <glyph glyph-name="Gdotaccent" unicode="&#x120;" horiz-adv-x="1780" 
d="M939 1597q-19 -20 -48.5 -20t-48.5 20q-20 20 -20 48.5t20 48.5t49 20t48 -20t19 -48.5t-19 -48.5zM880 653v113h746v-49q0 -202 -98 -369q-98 -168 -267 -264t-370 -96q-150 0 -286 56t-236 154t-156 233q-58 134 -58 286q0 151 58 286q56 135 156 233q97 96 234 153
t288 57q190 0 350 -85q159 -85 258 -235l-106 -55q-81 120 -216 191q-133 69 -286 69q-168 0 -309 -81q-141 -82 -224 -223q-83 -142 -83 -310q0 -124 48.5 -239t132.5 -197q84 -83 198 -131t237 -48q155 0 290 75q134 73 220 201q84 124 101 275h-622z" />
    <glyph glyph-name="gdotaccent" unicode="&#x121;" 
d="M775 1290q-20 -20 -48.5 -20t-48.5 20t-20 49t20 48t48.5 19t48.5 -19t20 -48t-20 -49zM1176 848l4 278h112v-1037q0 -128 -44.5 -227.5t-125.5 -161.5q-163 -122 -411 -122q-146 0 -272 59t-211 165l68 71q157 -193 407 -192q202 0 334 96q66 49 102.5 130.5t36.5 185.5
v186q-58 -138 -190 -214q-133 -77 -306 -77q-154 0 -281 76q-130 76 -203 208q-75 132 -75 291t75 292q73 131 203 208q127 76 281 76q171 0 304 -79q132 -79 192 -212zM706 90q195 0 333 138q137 139 137 336t-138 335t-332 138q-124 3 -233 -61t-173 -175t-62 -238
q-2 -127 62 -237.5t173 -174.5t233 -61z" />
    <glyph glyph-name="uni0122" unicode="&#x122;" horiz-adv-x="1780" 
d="M880 653v113h746v-49q0 -202 -98 -369q-98 -168 -267 -264t-370 -96q-150 0 -286 56t-236 154t-156 233q-58 134 -58 286q0 151 58 286q56 135 156 233q97 96 234 153t288 57q190 0 350 -85q159 -85 258 -235l-106 -55q-81 120 -216 191q-133 69 -286 69q-168 0 -309 -81
q-141 -82 -224 -223q-83 -142 -83 -310q0 -124 48.5 -239t132.5 -197q84 -83 198 -131t237 -48q155 0 290 75q134 73 220 201q84 124 101 275h-622zM847 -461h-87l79 318h104z" />
    <glyph glyph-name="uni0123" unicode="&#x123;" 
d="M857 1587l-80 -317h-103l95 317h88zM1176 848l4 278h112v-1037q0 -128 -44.5 -227.5t-125.5 -161.5q-163 -122 -411 -122q-146 0 -272 59t-211 165l68 71q157 -193 407 -192q202 0 334 96q66 49 102.5 130.5t36.5 185.5v186q-58 -138 -190 -214q-133 -77 -306 -77
q-154 0 -281 76q-130 76 -203 208q-75 132 -75 291t75 292q73 131 203 208q127 76 281 76q171 0 304 -79q132 -79 192 -212zM706 90q195 0 333 138q137 139 137 336t-138 335t-332 138q-124 3 -233 -61t-173 -175t-62 -238q-2 -127 62 -237.5t173 -174.5t233 -61z" />
    <glyph glyph-name="Hbar" unicode="&#x126;" horiz-adv-x="1403" 
d="M1208 1185h125v-96h-125v-1089h-123v625h-767v-625h-122v1089h-123l-1 96h124v249h122v-249h767v249h123v-249zM318 727h767v362h-767v-362z" />
    <glyph glyph-name="hbar" unicode="&#x127;" horiz-adv-x="1393" 
d="M763 1139q472 0 472 -576v-563h-117v563q0 235 -94 354.5t-293 119.5q-198 0 -327 -135t-129 -339v-563h-116v1297h-77v80h77v159h116v-159h420v-80h-420v-448q59 134 188 212q127 78 300 78z" />
    <glyph glyph-name="Itilde" unicode="&#x128;" horiz-adv-x="515" 
d="M464 1798h89q0 -81 -29.5 -133.5t-86.5 -63.5q-38 -11 -73 0.5t-91 49.5q-7 4 -36 22t-38 23q-39 21 -72 22q-43 0 -61 -44q-14 -33 -15 -90h-89q0 79 29 132.5t82 65.5q65 22 156 -39q17 -7 48 -30t57 -33q24 -11 53 -13q43 0 64 46q13 30 13 85zM196 0v1434h122v-1434
h-122z" />
    <glyph glyph-name="itilde" unicode="&#x129;" horiz-adv-x="435" 
d="M424 1491h89q0 -81 -29.5 -133.5t-86.5 -64.5q-38 -11 -72.5 0.5t-91.5 49.5q-10 6 -38 23.5l-36 22.5q-35 21 -72 22q-43 0 -61 -44q-14 -33 -15 -90h-89q0 79 29 132.5t82 65.5q65 23 156 -39q17 -8 48 -30q35 -25 57 -34q26 -11 53 -12q43 0 64 46q13 30 13 85zM159 0
v1126h116v-1126h-116z" />
    <glyph glyph-name="Imacron" unicode="&#x12a;" horiz-adv-x="515" 
d="M-17 1577v95h548v-95h-548zM196 0v1434h122v-1434h-122z" />
    <glyph glyph-name="imacron" unicode="&#x12b;" horiz-adv-x="435" 
d="M-57 1270v95h549v-95h-549zM159 0v1126h116v-1126h-116z" />
    <glyph glyph-name="Iogonek" unicode="&#x12e;" horiz-adv-x="515" 
d="M318 0h-23q-63 -49 -101 -115q-19 -29 -29 -58t-6.5 -59t25.5 -50q28 -22 70 -14q13 3 49 12v-60q-57 -22 -116 -16q-77 6 -106 65q-30 64 23 162q45 82 112 133h-20v1434h122v-1434z" />
    <glyph glyph-name="iogonek" unicode="&#x12f;" horiz-adv-x="435" 
d="M218 1332q-35 0 -58.5 23.5t-23.5 58.5q0 33 23.5 56.5t58.5 23.5q33 0 56.5 -23.5t23.5 -56.5q0 -35 -23.5 -58.5t-56.5 -23.5zM176 0h-17v1126h116v-1126h-20q-63 -49 -101 -115q-19 -29 -29 -58t-6.5 -59t25.5 -50q28 -22 70 -14q13 3 49 12v-60q-57 -22 -116 -16
q-77 6 -106 65q-30 65 24 162q44 81 111 133z" />
    <glyph glyph-name="Idot" unicode="&#x130;" horiz-adv-x="515" 
d="M306 1597q-20 -20 -49 -20t-48 20t-19 48.5t19 48.5t48 20t49 -20t20 -48.5t-20 -48.5zM196 0v1434h122v-1434h-122z" />
    <glyph glyph-name="dotlessi" unicode="&#x131;" horiz-adv-x="435" 
d="M159 0v1126h116v-1126h-116z" />
    <glyph glyph-name="Jcircumflex" unicode="&#x134;" horiz-adv-x="1315" 
d="M689 1880l175 -303h-89l-150 245l-152 -245h-88l174 303h130zM155 283l117 33q42 -101 134 -157.5t214 -56.5q164 0 270 100q106 99 106 269l1 963h123v-956q0 -228 -140 -359t-360 -131q-165 0 -289 77q-124 76 -176 218z" />
    <glyph glyph-name="jcircumflex" unicode="&#x135;" horiz-adv-x="435" 
d="M283 1573l175 -303h-89l-151 244l-151 -244h-90l176 303h130zM159 1126h116v-1196q0 -159 -59 -233t-197 -74q-88 0 -188 21v93q87 -20 173 -17q83 3 119 53t36 155v1198z" />
    <glyph glyph-name="uni0136" unicode="&#x136;" horiz-adv-x="1272" 
d="M1026 1434h132l-515 -667l515 -767h-132l-460 668l-248 -320v-348h-122v1434h122v-913zM593 -461h-87l79 318h104z" />
    <glyph glyph-name="uni0137" unicode="&#x137;" horiz-adv-x="1228" 
d="M975 1126h169l-532 -499l532 -627h-150l-468 546l-214 -201v-345h-116v1536h116v-1028zM626 -461h-87l78 318h105z" />
    <glyph glyph-name="Lacute" unicode="&#x139;" horiz-adv-x="1228" 
d="M864 1946l-202 -369h-93l179 369h116zM1033 0h-837v1434h122v-1332h715v-102z" />
    <glyph glyph-name="lacute" unicode="&#x13a;" horiz-adv-x="435" 
d="M467 2130l-203 -369h-92l178 369h117zM159 0v1536h116v-1536h-116z" />
    <glyph glyph-name="uni013B" unicode="&#x13b;" horiz-adv-x="1228" 
d="M1033 0h-837v1434h122v-1332h715v-102zM484 -461l79 318h105l-97 -318h-87z" />
    <glyph glyph-name="uni013C" unicode="&#x13c;" horiz-adv-x="435" 
d="M159 0v1536h116v-1536h-116zM86 -461l79 318h104l-96 -318h-87z" />
    <glyph glyph-name="Lcaron" unicode="&#x13d;" horiz-adv-x="1222" 
d="M1033 0h-837v1434h122v-1332h715v-102zM902 1063l80 371h121l-96 -371h-105z" />
    <glyph glyph-name="lcaron" unicode="&#x13e;" horiz-adv-x="799" 
d="M159 0v1536h116v-1536h-116zM479 1063l79 371h121l-95 -371h-105z" />
    <glyph glyph-name="Lslash" unicode="&#x141;" horiz-adv-x="1228" 
d="M318 847v-745h715v-102h-837v820l-114 -24v95l114 24v519h122v-492l470 102v-95z" />
    <glyph glyph-name="lslash" unicode="&#x142;" horiz-adv-x="435" 
d="M275 971l78 33v-96l-78 -32v-876h-116v827l-77 -31v95l77 32v613h116v-565z" />
    <glyph glyph-name="Nacute" unicode="&#x143;" horiz-adv-x="1449" 
d="M975 1946l-203 -369h-92l178 369h117zM1130 301v1133h123v-1446l-935 1145v-1133h-122v1446z" />
    <glyph glyph-name="nacute" unicode="&#x144;" horiz-adv-x="1320" 
d="M916 1638l-202 -368h-92l178 368h116zM1161 0h-117v563q0 237 -82.5 355.5t-263.5 118.5q-196 1 -311 -133.5t-112 -340.5v-563h-116v1126h112l4 -272q54 137 170 211t285 74q227 0 329 -148t102 -428v-563z" />
    <glyph glyph-name="uni0145" unicode="&#x145;" horiz-adv-x="1449" 
d="M1130 301v1133h123v-1446l-935 1145v-1133h-122v1446zM594 -461l79 318h104l-96 -318h-87z" />
    <glyph glyph-name="uni0146" unicode="&#x146;" horiz-adv-x="1320" 
d="M1161 0h-117v563q0 237 -82.5 355.5t-263.5 118.5q-196 1 -311 -133.5t-112 -340.5v-563h-116v1126h112l4 -272q54 137 170 211t285 74q227 0 329 -148t102 -428v-563zM537 -461l78 318h105l-96 -318h-87z" />
    <glyph glyph-name="Ncaron" unicode="&#x147;" horiz-adv-x="1449" 
d="M877 1880h89l-175 -303h-131l-174 303h88l152 -245zM1130 301v1133h123v-1446l-935 1145v-1133h-122v1446z" />
    <glyph glyph-name="ncaron" unicode="&#x148;" horiz-adv-x="1320" 
d="M818 1573h89l-175 -303h-130l-174 303h88l152 -245zM1161 0h-117v563q0 237 -82.5 355.5t-263.5 118.5q-196 1 -311 -133.5t-112 -340.5v-563h-116v1126h112l4 -272q54 137 170 211t285 74q227 0 329 -148t102 -428v-563z" />
    <glyph glyph-name="Eng" unicode="&#x14a;" horiz-adv-x="1449" 
d="M1130 301v1133h123v-1509q0 -157 -59 -229.5t-197 -72.5q-87 0 -188 21v93q87 -20 173 -17q83 3 119 53t36 155v203l-819 1002v-1133h-122v1446z" />
    <glyph glyph-name="eng" unicode="&#x14b;" horiz-adv-x="1320" 
d="M730 1139q227 0 329 -148t102 -428v-633q0 -158 -59.5 -232.5t-197.5 -74.5q-86 0 -187 21v93q87 -20 173 -17q83 3 118.5 53t35.5 155v635q0 237 -82.5 355.5t-263.5 118.5q-196 1 -311 -133.5t-112 -340.5v-563h-116v1126h112l4 -272q54 137 170 211t285 74z" />
    <glyph glyph-name="Omacron" unicode="&#x14c;" horiz-adv-x="1780" 
d="M616 1577v95h548v-95h-548zM891 -12q-150 0 -286 56t-236 154t-156 233q-58 134 -58 286q0 151 58 286q56 135 156 233q97 96 234 153t288 57q201 0 370 -96q169 -98 267 -264q98 -167 98 -369t-98 -369q-98 -168 -267 -264t-370 -96zM891 102q147 -1 279 67.5t216 183.5
q119 157 119 364q0 170 -82 310t-224 223q-141 81 -308 81q-168 0 -309 -81q-141 -82 -224 -223q-83 -142 -83 -310q0 -124 48.5 -239t132.5 -197q84 -83 198 -131t237 -48z" />
    <glyph glyph-name="omacron" unicode="&#x14d;" horiz-adv-x="1412" 
d="M432 1270v95h548v-95h-548zM933 32q-108 -44 -226.5 -44t-226.5 44q-220 90 -312 303q-46 107 -46 228t46 229q92 213 312 303q108 44 226.5 44t226.5 -44q221 -91 313 -303q46 -108 46 -229t-46 -228q-91 -211 -313 -303zM707 89q194 0 332 138t138 337q0 197 -137 336
q-139 137 -333 137q-196 0 -333 -137q-137 -139 -137 -336q0 -198 137 -337q136 -138 333 -138z" />
    <glyph glyph-name="Ohungarumlaut" unicode="&#x150;" horiz-adv-x="1780" 
d="M1008 1946l-197 -369h-92l192 369h97zM1258 1946l-196 -369h-92l192 369h96zM891 -12q-150 0 -286 56t-236 154t-156 233q-58 134 -58 286q0 151 58 286q56 135 156 233q97 96 234 153t288 57q201 0 370 -96q169 -98 267 -264q98 -167 98 -369t-98 -369
q-98 -168 -267 -264t-370 -96zM891 102q147 -1 279 67.5t216 183.5q119 157 119 364q0 170 -82 310t-224 223q-141 81 -308 81q-168 0 -309 -81q-141 -82 -224 -223q-83 -142 -83 -310q0 -124 48.5 -239t132.5 -197q84 -83 198 -131t237 -48z" />
    <glyph glyph-name="ohungarumlaut" unicode="&#x151;" horiz-adv-x="1412" 
d="M823 1638l-196 -368h-92l192 368h96zM1074 1638l-196 -368h-93l193 368h96zM933 32q-108 -44 -226.5 -44t-226.5 44q-220 90 -312 303q-46 107 -46 228t46 229q92 213 312 303q108 44 226.5 44t226.5 -44q221 -91 313 -303q46 -108 46 -229t-46 -228q-91 -211 -313 -303z
M707 89q194 0 332 138t138 337q0 197 -137 336q-139 137 -333 137q-196 0 -333 -137q-137 -139 -137 -336q0 -198 137 -337q136 -138 333 -138z" />
    <glyph glyph-name="OE" unicode="&#x152;" horiz-adv-x="2641" 
d="M1640 633v-531h805v-102h-927v332q-98 -160 -264 -251q-166 -93 -363 -93q-150 0 -286 56t-236 154t-156 233q-58 134 -58 286q0 151 58 286q56 135 156 233q97 96 234 153t288 57q196 0 363 -92q165 -93 264 -252v332h897v-103h-775v-596h712v-102h-712zM891 102
q147 -1 279 67.5t216 183.5q119 157 119 364q0 170 -82 310t-224 223q-141 81 -308 81q-168 0 -309 -81q-141 -82 -224 -223q-83 -142 -83 -310q0 -124 48.5 -239t132.5 -197q84 -83 198 -131t237 -48z" />
    <glyph glyph-name="oe" unicode="&#x153;" horiz-adv-x="2490" 
d="M1788 1139q121 0 230 -47t189 -130q79 -83 122.5 -200.5t40.5 -247.5h-1049q16 -184 151 -306q134 -122 316 -122q146 0 265 81q118 81 172 217l101 -48q-68 -158 -214 -253q-148 -95 -324 -95q-180 0 -326 96q-147 95 -215 254q-67 -159 -214 -254q-145 -96 -326 -96
q-118 0 -226 43.5t-188 120.5q-80 76 -126 184t-46 227t46 227t126 185t188 120.5t226 43.5q180 0 327 -96q146 -96 213 -255q67 159 215 255q146 96 326 96zM1788 1040q-184 0 -317 -121t-150 -307h934q-16 184 -149 306q-134 122 -318 122zM707 89q194 0 332 138t138 337
q0 197 -137 336q-139 137 -333 137q-196 0 -333 -137q-137 -139 -137 -336q0 -198 137 -337q136 -138 333 -138z" />
    <glyph glyph-name="Racute" unicode="&#x154;" horiz-adv-x="1358" 
d="M812 1946h117l-203 -369h-92zM1202 956q0 -171 -103 -298q-103 -128 -270 -162l319 -496h-128l-309 483h-393v-483h-122v1434h517q212 0 350 -138t139 -340zM701 1331h-383v-745h383q158 0 268 108q108 107 110 263q1 154 -109 264t-269 110z" />
    <glyph glyph-name="racute" unicode="&#x155;" horiz-adv-x="883" 
d="M691 1638l-203 -368h-92l178 368h117zM159 0v1126h112l4 -287q67 146 191 223t297 77v-103q-214 0 -351 -134t-137 -339v-563h-116z" />
    <glyph glyph-name="uni0156" unicode="&#x156;" horiz-adv-x="1358" 
d="M1202 956q0 -171 -103 -298q-103 -128 -270 -162l319 -496h-128l-309 483h-393v-483h-122v1434h517q212 0 350 -138t139 -340zM701 1331h-383v-745h383q158 0 268 108q108 107 110 263q1 154 -109 264t-269 110zM636 -461h-87l79 318h104z" />
    <glyph glyph-name="uni0157" unicode="&#x157;" horiz-adv-x="883" 
d="M159 0v1126h112l4 -287q67 146 191 223t297 77v-103q-214 0 -351 -134t-137 -339v-563h-116zM311 -461l79 318h105l-97 -318h-87z" />
    <glyph glyph-name="Rcaron" unicode="&#x158;" horiz-adv-x="1358" 
d="M921 1880l-176 -303h-130l-174 303h88l152 -245l150 245h90zM1202 956q0 -171 -103 -298q-103 -128 -270 -162l319 -496h-128l-309 483h-393v-483h-122v1434h517q212 0 350 -138t139 -340zM701 1331h-383v-745h383q158 0 268 108q108 107 110 263q1 154 -109 264
t-269 110z" />
    <glyph glyph-name="rcaron" unicode="&#x159;" horiz-adv-x="883" 
d="M593 1573h89l-175 -303h-130l-174 303h88l151 -245zM159 0v1126h112l4 -287q67 146 191 223t297 77v-103q-214 0 -351 -134t-137 -339v-563h-116z" />
    <glyph glyph-name="Sacute" unicode="&#x15a;" horiz-adv-x="1314" 
d="M907 1946l-202 -369h-93l179 369h116zM1119 1130l-122 -16q-43 109 -131 171t-203 62q-151 0 -243 -77q-93 -78 -93 -212q3 -55 20 -91.5t55 -65.5q55 -41 116 -64q37 -14 72 -25q26 -9 83 -27q20 -6 49 -15.5t37 -12.5q12 -5 39 -14.5t38 -13.5q52 -19 72 -29l29 -14.5
t34 -16.5q46 -24 104 -75q35 -31 64 -97q23 -54 21 -132q-3 -181 -138 -279q-136 -98 -352 -98q-196 0 -338 90q-142 88 -177 251l121 15q35 -121 143 -186q107 -67 249 -67q162 0 263 70q100 69 105 203q1 78 -39 139q-32 48 -114 95q-57 31 -164 68q-46 15 -94 29
q-63 19 -103 33q-51 18 -89 34q-48 18 -79 38q-31 19 -62 45q-45 38 -64.5 88.5t-23.5 127.5q0 182 128 284q128 101 332 101q170 0 290 -82t165 -234z" />
    <glyph glyph-name="sacute" unicode="&#x15b;" horiz-adv-x="1099" 
d="M803 1638l-203 -368h-92l178 368h117zM944 896l-115 -16q-22 71 -99 118q-76 46 -175 46q-121 0 -204 -54q-83 -56 -83 -159q-5 -87 85 -140q44 -27 148 -54q24 -7 99 -25q105 -25 166.5 -46.5t112.5 -54.5q101 -66 100 -199q-1 -147 -117 -234q-116 -88 -296 -88
q-169 0 -289 66q-121 64 -156 194l113 16q21 -63 77 -106t120.5 -60t134.5 -16q125 0 210 61q86 60 86 161q-3 61 -34.5 100.5t-97.5 66.5q-75 31 -200 58q-160 39 -242 80q-50 24 -77 53q-59 61 -59 162q0 146 112 230q113 83 294 83q149 0 251 -62.5t135 -180.5z" />
    <glyph glyph-name="Scircumflex" unicode="&#x15c;" horiz-adv-x="1314" 
d="M723 1880l175 -303h-89l-151 245l-151 -245h-88l174 303h130zM1119 1130l-122 -16q-43 109 -131 171t-203 62q-151 0 -243 -77q-93 -78 -93 -212q3 -55 20 -91.5t55 -65.5q55 -41 116 -64q37 -14 72 -25q26 -9 83 -27q20 -6 49 -15.5t37 -12.5q12 -5 39 -14.5t38 -13.5
q52 -19 72 -29l29 -14.5t34 -16.5q46 -24 104 -75q35 -31 64 -97q23 -54 21 -132q-3 -181 -138 -279q-136 -98 -352 -98q-196 0 -338 90q-142 88 -177 251l121 15q35 -121 143 -186q107 -67 249 -67q162 0 263 70q100 69 105 203q1 78 -39 139q-32 48 -114 95
q-57 31 -164 68q-46 15 -94 29q-63 19 -103 33q-51 18 -89 34q-48 18 -79 38q-31 19 -62 45q-45 38 -64.5 88.5t-23.5 127.5q0 182 128 284q128 101 332 101q170 0 290 -82t165 -234z" />
    <glyph glyph-name="Scedilla" unicode="&#x15e;" horiz-adv-x="1314" 
d="M673 785q20 -6 49 -15.5t37 -12.5q12 -5 39 -14.5t38 -13.5q52 -19 72 -29q90 -43 121 -67q85 -64 110 -136q23 -54 21 -132q-3 -177 -130 -274q-129 -99 -336 -103v-58q84 12 152 -44q60 -44 56 -123t-73 -119q-91 -57 -331 -41v65q188 -17 266 24q55 28 59 83t-42 88
q-24 21 -69.5 27.5t-87.5 -5.5v104q-177 10 -308 100q-130 89 -161 240l121 15q35 -121 143 -186q107 -67 249 -67q162 0 263 70q100 69 105 203q1 78 -39 139q-32 48 -114 95q-57 31 -164 68q-46 15 -94 29q-63 19 -103 33q-51 18 -89 34q-48 18 -79 38q-31 19 -62 45
q-45 38 -64.5 88.5t-23.5 127.5q0 182 128 284q128 101 332 101q170 0 290 -82t165 -234l-122 -16q-43 109 -131 171t-203 62q-151 0 -243 -77q-93 -78 -93 -212q0 -65 33 -115q22 -34 93 -76q22 -13 65 -30q19 -7 72 -26l21 -7t30.5 -9.5t31.5 -9.5z" />
    <glyph glyph-name="scedilla" unicode="&#x15f;" horiz-adv-x="1099" 
d="M600 612q105 -25 166.5 -46.5t112.5 -54.5q101 -66 100 -199q-2 -142 -108 -227q-107 -86 -276 -94v-61q83 12 151 -44q60 -44 57 -123q-4 -79 -73 -119q-91 -57 -332 -41v65q188 -16 267 24q55 28 59 83t-42 88q-24 21 -70 27.5t-88 -5.5v106q-152 7 -262 73
q-108 64 -141 186l113 16q21 -63 77 -106t120.5 -60t134.5 -16q125 0 210 61q86 60 86 161q-3 61 -34.5 100.5t-97.5 66.5q-75 31 -200 58q-160 39 -242 80q-50 24 -77 53q-59 61 -59 162q0 146 112 230q113 83 294 83q149 0 251 -62.5t135 -180.5l-115 -16q-22 71 -99 118
q-76 46 -175 46q-121 0 -204 -54q-83 -56 -83 -159q-5 -87 85 -140q38 -24 148 -54q54 -15 99 -25z" />
    <glyph glyph-name="Scaron" unicode="&#x160;" horiz-adv-x="1314" 
d="M809 1880h89l-175 -303h-130l-174 303h88l151 -245zM1119 1130l-122 -16q-43 109 -131 171t-203 62q-151 0 -243 -77q-93 -78 -93 -212q3 -55 20 -91.5t55 -65.5q55 -41 116 -64q37 -14 72 -25q26 -9 83 -27q20 -6 49 -15.5t37 -12.5q12 -5 39 -14.5t38 -13.5
q52 -19 72 -29l29 -14.5t34 -16.5q46 -24 104 -75q35 -31 64 -97q23 -54 21 -132q-3 -181 -138 -279q-136 -98 -352 -98q-196 0 -338 90q-142 88 -177 251l121 15q35 -121 143 -186q107 -67 249 -67q162 0 263 70q100 69 105 203q1 78 -39 139q-32 48 -114 95
q-57 31 -164 68q-46 15 -94 29q-63 19 -103 33q-51 18 -89 34q-48 18 -79 38q-31 19 -62 45q-45 38 -64.5 88.5t-23.5 127.5q0 182 128 284q128 101 332 101q170 0 290 -82t165 -234z" />
    <glyph glyph-name="scaron" unicode="&#x161;" horiz-adv-x="1099" 
d="M705 1573h89l-176 -303h-130l-174 303h88l152 -245zM944 896l-115 -16q-22 71 -99 118q-76 46 -175 46q-121 0 -204 -54q-83 -56 -83 -159q-5 -87 85 -140q44 -27 148 -54q24 -7 99 -25q105 -25 166.5 -46.5t112.5 -54.5q101 -66 100 -199q-1 -147 -117 -234
q-116 -88 -296 -88q-169 0 -289 66q-121 64 -156 194l113 16q21 -63 77 -106t120.5 -60t134.5 -16q125 0 210 61q86 60 86 161q-3 61 -34.5 100.5t-97.5 66.5q-75 31 -200 58q-160 39 -242 80q-50 24 -77 53q-59 61 -59 162q0 146 112 230q113 83 294 83q149 0 251 -62.5
t135 -180.5z" />
    <glyph glyph-name="uni0162" unicode="&#x162;" horiz-adv-x="1249" 
d="M686 1331v-1331h-26v-70q84 12 152 -44q60 -44 56 -123q-4 -78 -72 -119q-91 -57 -332 -41v65q188 -17 266 24q56 29 60 83q4 55 -42 88q-24 21 -70 27.5t-88 -5.5v115h-27v1331h-408v103h940v-103h-409z" />
    <glyph glyph-name="uni0163" unicode="&#x163;" horiz-adv-x="946" 
d="M786 -125q60 -43 57 -123q-5 -80 -73 -120q-91 -57 -332 -41v66q188 -17 267 24q55 28 59 83t-42 88q-24 21 -70.5 26.5t-87.5 -4.5v116q-117 9 -169 84.5t-52 223.5v733h-184v95h184v260h116v-260h327v-95h-327v-731q0 -104 35.5 -154t117.5 -53q93 -6 174 16v-100
q-70 -14 -151 -19v-71q83 12 151 -44z" />
    <glyph glyph-name="Tcaron" unicode="&#x164;" horiz-adv-x="1249" 
d="M776 1880h89l-175 -303h-130l-174 303h88l152 -245zM155 1434h940v-103h-409v-1331h-123v1331h-408v103z" />
    <glyph glyph-name="tcaron" unicode="&#x165;" horiz-adv-x="1234" 
d="M914 1063l80 371h121l-96 -371h-105zM343 1126v260h116v-260h327v-95h-327v-731q0 -104 35.5 -154t117.5 -53q93 -6 174 16v-100q-100 -20 -187 -20q-137 0 -196.5 75t-59.5 234v733h-184v95h184z" />
    <glyph glyph-name="Tbar" unicode="&#x166;" horiz-adv-x="1249" 
d="M1095 1434v-103h-409v-566h288v-96h-288v-669h-123v669h-288v96h288v566h-408v103h940z" />
    <glyph glyph-name="tbar" unicode="&#x167;" horiz-adv-x="947" 
d="M787 1126v-76h-327v-154h326v-77h-326v-519q0 -104 35.5 -154t117.5 -53q93 -6 174 16v-100q-100 -20 -187 -20q-137 0 -197 75t-60 234v521h-184v77h184v154h-183v76h183v263h117v-263h327z" />
    <glyph glyph-name="Utilde" unicode="&#x168;" horiz-adv-x="1392" 
d="M902 1798h89q0 -80 -29.5 -133t-85.5 -64q-38 -11 -74 0.5t-90 49.5q-9 5 -37.5 22.5t-36.5 22.5q-39 21 -73 22q-43 0 -61 -44q-14 -33 -15 -90h-88q0 79 28.5 132.5t81.5 65.5q65 23 157 -39q16 -7 48 -30t57 -33q24 -11 52 -13q43 0 64 46q13 30 13 85zM1073 471
l1 963h123v-956q0 -228 -140 -359q-142 -131 -361 -131q-220 0 -360 131t-140 359v956h122v-963q0 -170 107 -269q106 -100 271 -100t271 100q106 99 106 269z" />
    <glyph glyph-name="utilde" unicode="&#x169;" horiz-adv-x="1320" 
d="M866 1491h89q0 -80 -29.5 -133t-85.5 -65q-38 -11 -73.5 1t-90.5 49q-5 3 -74 46q-35 21 -73 22q-43 0 -61 -44q-14 -34 -14 -90h-88q0 79 28 132.5t81 65.5q65 23 157 -39q16 -8 48 -30q35 -25 57 -34q26 -11 53 -12q44 0 63 46q13 30 13 85zM160 1126h116v-563
q0 -237 83 -355t264 -118q199 0 312 132q111 132 111 341v563h116v-1126h-112l-4 272q-54 -137 -169.5 -210.5t-285.5 -73.5q-227 0 -329 149t-102 426v563z" />
    <glyph glyph-name="Umacron" unicode="&#x16a;" horiz-adv-x="1392" 
d="M423 1577v95h548v-95h-548zM1073 471l1 963h123v-956q0 -228 -140 -359q-142 -131 -361 -131q-220 0 -360 131t-140 359v956h122v-963q0 -170 107 -269q106 -100 271 -100t271 100q106 99 106 269z" />
    <glyph glyph-name="umacron" unicode="&#x16b;" horiz-adv-x="1320" 
d="M387 1270v95h548v-95h-548zM160 1126h116v-563q0 -237 83 -355t264 -118q199 0 312 132q111 132 111 341v563h116v-1126h-112l-4 272q-54 -137 -169.5 -210.5t-285.5 -73.5q-227 0 -329 149t-102 426v563z" />
    <glyph glyph-name="Uring" unicode="&#x16e;" horiz-adv-x="1392" 
d="M697 1536q-95 0 -163 68t-68 164q0 94 68 162t163 68t163 -67q68 -68 68 -163q0 -96 -68 -164q-70 -68 -163 -68zM697 1612q63 0 109 46t46 110q0 62 -45 109q-47 45 -110 45q-65 0 -110 -45q-46 -46 -46 -109q0 -64 46 -110q45 -46 110 -46zM1073 471l1 963h123v-956
q0 -228 -140 -359q-142 -131 -361 -131q-220 0 -360 131t-140 359v956h122v-963q0 -170 107 -269q106 -100 271 -100t271 100q106 99 106 269z" />
    <glyph glyph-name="uring" unicode="&#x16f;" horiz-adv-x="1320" 
d="M662 1229q-96 0 -164 68t-68 164q0 94 68 162t164 68q94 0 162 -68t68 -162q0 -96 -68 -164t-162 -68zM662 1305q63 0 109 46q45 47 45 110t-45 109q-47 45 -109 45q-64 0 -111 -45q-46 -46 -46 -109q0 -64 46 -110t111 -46zM160 1126h116v-563q0 -237 83 -355t264 -118
q199 0 312 132q111 132 111 341v563h116v-1126h-112l-4 272q-54 -137 -169.5 -210.5t-285.5 -73.5q-227 0 -329 149t-102 426v563z" />
    <glyph glyph-name="Uhungarumlaut" unicode="&#x170;" horiz-adv-x="1392" 
d="M814 1946l-197 -369h-92l193 369h96zM1065 1946l-197 -369h-92l193 369h96zM1073 471l1 963h123v-956q0 -228 -140 -359q-142 -131 -361 -131q-220 0 -360 131t-140 359v956h122v-963q0 -170 107 -269q106 -100 271 -100t271 100q106 99 106 269z" />
    <glyph glyph-name="uhungarumlaut" unicode="&#x171;" horiz-adv-x="1320" 
d="M778 1638l-196 -368h-93l193 368h96zM1029 1638l-196 -368h-93l193 368h96zM160 1126h116v-563q0 -237 83 -355t264 -118q199 0 312 132q111 132 111 341v563h116v-1126h-112l-4 272q-54 -137 -169.5 -210.5t-285.5 -73.5q-227 0 -329 149t-102 426v563z" />
    <glyph glyph-name="Uogonek" unicode="&#x172;" horiz-adv-x="1392" 
d="M1073 471l1 963h123v-956q0 -222 -133 -352q-134 -131 -344 -138q-48 -40 -87 -103q-19 -30 -29 -58.5t-6.5 -58.5t26.5 -50q28 -22 70 -14q15 3 48 12v-60q-57 -22 -115 -16q-77 6 -107 65q-30 66 25 162q37 71 98 123q-201 17 -323 146q-124 128 -124 342v956h122v-963
q0 -170 107 -269q106 -100 271 -100t271 100q106 99 106 269z" />
    <glyph glyph-name="uogonek" unicode="&#x173;" horiz-adv-x="1320" 
d="M1162 0h-20q-62 -48 -102 -115q-19 -29 -29 -58t-6 -59t26 -50q28 -22 70 -14q13 3 49 12v-60q-57 -22 -116 -16q-77 6 -106 65q-30 66 24 162q41 81 111 133h-13l-4 272q-54 -137 -169.5 -210.5t-285.5 -73.5q-227 0 -329 149t-102 426v563h116v-563q0 -237 83 -355
t264 -118q199 0 312 132q111 132 111 341v563h116v-1126z" />
    <glyph glyph-name="Wcircumflex" unicode="&#x174;" horiz-adv-x="2330" 
d="M1316 1577l-151 245l-151 -245h-88l174 303h130l175 -303h-89zM1661 142l417 1292h139l-477 -1434h-150l-425 1266l-425 -1266h-149l-477 1434h139l417 -1292l426 1292h139z" />
    <glyph glyph-name="wcircumflex" unicode="&#x175;" horiz-adv-x="2097" 
d="M1114 1573l175 -303h-89l-150 244l-152 -244h-88l174 303h130zM1503 120l386 1006h123l-429 -1126h-153l-381 981l-381 -981h-154l-428 1126h123l385 -1006l392 1006h125z" />
    <glyph glyph-name="Ycircumflex" unicode="&#x176;" horiz-adv-x="1364" 
d="M834 1577l-151 245l-152 -245h-88l174 303h131l175 -303h-89zM683 666l433 768h134l-507 -890v-544h-122v544l-507 890h135z" />
    <glyph glyph-name="ycircumflex" unicode="&#x177;" horiz-adv-x="1205" 
d="M754 1270l-151 244l-151 -244h-88l174 303h130l175 -303h-89zM603 106l390 1020h127l-450 -1120q-145 -337 -499 -339l-8 90q141 7 239.5 66t140.5 159l-457 1144h126z" />
    <glyph glyph-name="Ydieresis" unicode="&#x178;" horiz-adv-x="1364" 
d="M612 1597q-20 -20 -48.5 -20t-47.5 20q-20 20 -20 48.5t20 48.5t48 20t48 -20t20 -48.5t-20 -48.5zM851 1597q-29 -33 -74.5 -14.5t-42.5 63.5q-3 44 42.5 61.5t74.5 -13.5q19 -20 19 -48.5t-19 -48.5zM683 666l433 768h134l-507 -890v-544h-122v544l-507 890h135z" />
    <glyph glyph-name="Zacute" unicode="&#x179;" horiz-adv-x="1405" 
d="M952 1946l-202 -369h-93l179 369h116zM196 1434h1014v-103l-870 -1229h870v-102h-1014v102l870 1229h-870v103z" />
    <glyph glyph-name="zacute" unicode="&#x17a;" horiz-adv-x="1239" 
d="M868 1638l-202 -368h-93l179 368h116zM159 1126h920v-97l-771 -929h771v-100h-920v100l769 929h-769v97z" />
    <glyph glyph-name="Zdotaccent" unicode="&#x17b;" horiz-adv-x="1405" 
d="M751 1597q-20 -20 -48.5 -20t-47.5 20t-19 48.5t19 48.5t47.5 20t48.5 -20t20 -48.5t-20 -48.5zM196 1434h1014v-103l-870 -1229h870v-102h-1014v102l870 1229h-870v103z" />
    <glyph glyph-name="zdotaccent" unicode="&#x17c;" horiz-adv-x="1239" 
d="M668 1290q-20 -20 -48 -20t-48 20t-20 49t20 48t48 19t48 -19t20 -48t-20 -49zM159 1126h920v-97l-771 -929h771v-100h-920v100l769 929h-769v97z" />
    <glyph glyph-name="Zcaron" unicode="&#x17d;" horiz-adv-x="1405" 
d="M854 1880h89l-175 -303h-130l-174 303h88l151 -245zM196 1434h1014v-103l-870 -1229h870v-102h-1014v102l870 1229h-870v103z" />
    <glyph glyph-name="zcaron" unicode="&#x17e;" horiz-adv-x="1239" 
d="M770 1573h89l-175 -303h-130l-174 303h88l152 -245zM159 1126h920v-97l-771 -929h771v-100h-920v100l769 929h-769v97z" />
    <glyph glyph-name="uni01CD" unicode="&#x1cd;" horiz-adv-x="1443" 
d="M962 1880l-176 -303h-130l-174 303h88l152 -245l150 245h90zM1329 0h-123l-117 322h-734l-117 -322h-124l522 1434h171zM722 1322l-330 -898h659z" />
    <glyph glyph-name="uni01CE" unicode="&#x1ce;" 
d="M856 1573h89l-175 -303h-130l-174 303h88l152 -245zM680 1139q171 0 304 -79q132 -79 192 -212l4 278h112v-1126h-112l-4 279q-58 -138 -190 -214q-133 -77 -306 -77q-154 0 -281 76q-130 76 -203 208q-75 132 -75 291t75 292q73 131 203 208q127 76 281 76zM706 90
q195 0 333 138q137 139 137 335q0 199 -138 337q-139 137 -332 137q-124 3 -233 -61t-173 -175t-62 -238q-2 -127 62 -237.5t173 -174.5t233 -61z" />
    <glyph glyph-name="uni01CF" unicode="&#x1cf;" horiz-adv-x="515" 
d="M409 1880h89l-175 -303h-130l-175 303h88l152 -245zM196 0v1434h122v-1434h-122z" />
    <glyph glyph-name="uni01D0" unicode="&#x1d0;" horiz-adv-x="435" 
d="M369 1573h89l-175 -303h-130l-176 303h90l151 -245zM159 0v1126h116v-1126h-116z" />
    <glyph glyph-name="uni01D1" unicode="&#x1d1;" horiz-adv-x="1780" 
d="M1041 1880h89l-175 -303h-130l-174 303h88l152 -245zM891 -12q-150 0 -286 56t-236 154t-156 233q-58 134 -58 286q0 151 58 286q56 135 156 233q97 96 234 153t288 57q201 0 370 -96q169 -98 267 -264q98 -167 98 -369t-98 -369q-98 -168 -267 -264t-370 -96zM891 102
q147 -1 279 67.5t216 183.5q119 157 119 364q0 170 -82 310t-224 223q-141 81 -308 81q-168 0 -309 -81q-141 -82 -224 -223q-83 -142 -83 -310q0 -124 48.5 -239t132.5 -197q84 -83 198 -131t237 -48z" />
    <glyph glyph-name="uni01D2" unicode="&#x1d2;" horiz-adv-x="1412" 
d="M857 1573h89l-175 -303h-130l-174 303h88l152 -245zM933 32q-108 -44 -226.5 -44t-226.5 44q-220 90 -312 303q-46 107 -46 228t46 229q92 213 312 303q108 44 226.5 44t226.5 -44q221 -91 313 -303q46 -108 46 -229t-46 -228q-91 -211 -313 -303zM707 89q194 0 332 138
t138 337q0 197 -137 336q-139 137 -333 137q-196 0 -333 -137q-137 -139 -137 -336q0 -198 137 -337q136 -138 333 -138z" />
    <glyph glyph-name="uni01D3" unicode="&#x1d3;" horiz-adv-x="1392" 
d="M847 1880h89l-175 -303h-130l-174 303h88l151 -245zM1073 471l1 963h123v-956q0 -228 -140 -359q-142 -131 -361 -131q-220 0 -360 131t-140 359v956h122v-963q0 -170 107 -269q106 -100 271 -100t271 100q106 99 106 269z" />
    <glyph glyph-name="uni01D4" unicode="&#x1d4;" horiz-adv-x="1320" 
d="M811 1573h89l-175 -303h-130l-174 303h88l151 -245zM160 1126h116v-563q0 -237 83 -355t264 -118q199 0 312 132q111 132 111 341v563h116v-1126h-112l-4 272q-54 -137 -169.5 -210.5t-285.5 -73.5q-227 0 -329 149t-102 426v563z" />
    <glyph glyph-name="Gcaron" unicode="&#x1e6;" horiz-adv-x="1780" 
d="M1130 1880l-175 -303h-130l-174 303h88l152 -245l150 245h89zM880 653v113h746v-49q0 -202 -98 -369q-98 -168 -267 -264t-370 -96q-150 0 -286 56t-236 154t-156 233q-58 134 -58 286q0 151 58 286q56 135 156 233q97 96 234 153t288 57q190 0 350 -85q159 -85 258 -235
l-106 -55q-81 120 -216 191q-133 69 -286 69q-168 0 -309 -81q-141 -82 -224 -223q-83 -142 -83 -310q0 -124 48.5 -239t132.5 -197q84 -83 198 -131t237 -48q155 0 290 75q134 73 220 201q84 124 101 275h-622z" />
    <glyph glyph-name="gcaron" unicode="&#x1e7;" 
d="M877 1573h89l-175 -303h-131l-174 303h88l152 -245zM1176 848l4 278h112v-1037q0 -128 -44.5 -227.5t-125.5 -161.5q-163 -122 -411 -122q-146 0 -272 59t-211 165l68 71q157 -193 407 -192q202 0 334 96q66 49 102.5 130.5t36.5 185.5v186q-58 -138 -190 -214
q-133 -77 -306 -77q-154 0 -281 76q-130 76 -203 208q-75 132 -75 291t75 292q73 131 203 208q127 76 281 76q171 0 304 -79q132 -79 192 -212zM706 90q195 0 333 138q137 139 137 336t-138 335t-332 138q-124 3 -233 -61t-173 -175t-62 -238q-2 -127 62 -237.5t173 -174.5
t233 -61z" />
    <glyph glyph-name="AEacute" unicode="&#x1fc;" horiz-adv-x="1650" 
d="M958 1946h117l-203 -369h-92zM858 633v-531h597v-102h-720v322h-374l-118 -322h-129l523 1434h787v-103h-566v-596h504v-102h-504zM399 424h336v909z" />
    <glyph glyph-name="aeacute" unicode="&#x1fd;" horiz-adv-x="2506" 
d="M1386 1638h117l-203 -368h-92zM1803 1139q121 0 230.5 -47t189.5 -130q79 -83 122.5 -200.5t40.5 -247.5h-1050q16 -184 151 -306q134 -122 316 -122q147 0 266 81q117 80 173 217l99 -48q-68 -159 -214 -253q-148 -95 -324 -95q-161 0 -298 78q-136 78 -213 212v-278
h-112l-4 279q-58 -138 -190 -214q-133 -77 -306 -77q-154 0 -281 76q-130 76 -203 208q-75 132 -75 291t75 292q73 131 203 208q127 76 281 76q171 0 304 -79q132 -79 192 -212l4 278h112v-277q76 132 213 212q137 78 298 78zM1803 1040q-185 0 -316 -121
q-133 -121 -151 -307h935q-17 184 -150 306q-134 122 -318 122zM706 90q195 0 333 138q137 139 137 335q0 199 -138 337q-139 137 -332 137q-124 3 -233 -61t-173 -175t-62 -238q-2 -127 62 -237.5t173 -174.5t233 -61z" />
    <glyph glyph-name="Oslashacute" unicode="&#x1fe;" horiz-adv-x="1780" 
d="M1023 1946h117l-203 -369h-92zM1588 1366l-154 -155q92 -99 142 -226.5t50 -267.5q0 -202 -98 -369q-98 -168 -267 -264t-370 -96q-140 0 -267.5 48t-227.5 138l-154 -155l-49 49l154 154q-92 100 -142 227t-50 268q0 152 58 287q57 134 156 232q97 96 234 153t288 57
q140 0 267 -48t226 -138l155 154zM275 717q0 -238 157 -410l868 869q-175 156 -409 155q-168 0 -309 -81q-141 -82 -224 -223q-83 -142 -83 -310zM891 102q147 -1 279 67.5t216 183.5q119 157 119 364q0 235 -155 410l-870 -869q174 -156 411 -156z" />
    <glyph glyph-name="oslashacute" unicode="&#x1ff;" horiz-adv-x="1412" 
d="M839 1638h116l-202 -368h-93zM1270 1084l-130 -130q154 -164 152 -391q0 -119 -46 -227t-126 -184q-81 -77 -189 -120.5t-224 -43.5q-224 0 -391 143l-133 -133l-43 44l131 131q-151 163 -150 390q0 119 46 227t126 185t188 120.5t226 43.5q224 0 388 -143l132 132z
M237 563q0 -177 113 -311l668 668q-132 119 -311 117q-196 0 -333 -137q-137 -139 -137 -337zM707 89q194 0 332 138t138 336q0 177 -116 313l-668 -668q136 -119 314 -119z" />
    <glyph glyph-name="uni0218" unicode="&#x218;" horiz-adv-x="1314" 
d="M1119 1130l-122 -16q-43 109 -131 171t-203 62q-151 0 -243 -77q-93 -78 -93 -212q3 -55 20 -91.5t55 -65.5q55 -41 116 -64q37 -14 72 -25q26 -9 83 -27q20 -6 49 -15.5t37 -12.5q12 -5 39 -14.5t38 -13.5q52 -19 72 -29l29 -14.5t34 -16.5q46 -24 104 -75
q35 -31 64 -97q23 -54 21 -132q-3 -181 -138 -279q-136 -98 -352 -98q-196 0 -338 90q-142 88 -177 251l121 15q35 -121 143 -186q107 -67 249 -67q162 0 263 70q100 69 105 203q1 78 -39 139q-32 48 -114 95q-57 31 -164 68q-46 15 -94 29q-63 19 -103 33q-51 18 -89 34
q-48 18 -79 38q-31 19 -62 45q-45 38 -64.5 88.5t-23.5 127.5q0 182 128 284q128 101 332 101q170 0 290 -82t165 -234zM527 -461l79 318h105l-97 -318h-87z" />
    <glyph glyph-name="uni0219" unicode="&#x219;" horiz-adv-x="1099" 
d="M944 896l-115 -16q-22 71 -99 118q-76 46 -175 46q-121 0 -204 -54q-83 -56 -83 -159q-5 -87 85 -140q44 -27 148 -54q24 -7 99 -25q105 -25 166.5 -46.5t112.5 -54.5q101 -66 100 -199q-1 -147 -117 -234q-116 -88 -296 -88q-169 0 -289 66q-121 64 -156 194l113 16
q21 -63 77 -106t120.5 -60t134.5 -16q125 0 210 61q86 60 86 161q-3 61 -34.5 100.5t-97.5 66.5q-75 31 -200 58q-160 39 -242 80q-50 24 -77 53q-59 61 -59 162q0 146 112 230q113 83 294 83q149 0 251 -62.5t135 -180.5zM428 -461l79 318h104l-96 -318h-87z" />
    <glyph glyph-name="uni021A" unicode="&#x21a;" horiz-adv-x="1249" 
d="M155 1434h940v-103h-409v-1331h-123v1331h-408v103zM494 -461l78 318h105l-96 -318h-87z" />
    <glyph glyph-name="uni021B" unicode="&#x21b;" horiz-adv-x="946" 
d="M343 1126v260h116v-260h327v-95h-327v-731q0 -104 35.5 -154t117.5 -53q93 -6 174 16v-100q-100 -20 -187 -20q-137 0 -196.5 75t-59.5 234v733h-184v95h184zM468 -472l79 317h104l-96 -317h-87z" />
    <glyph glyph-name="uni0237" unicode="&#x237;" horiz-adv-x="435" 
d="M159 1126h116v-1196q0 -159 -59 -233t-197 -74q-88 0 -188 21v93q87 -20 173 -17q83 3 119 53t36 155v1198z" />
    <glyph glyph-name="circumflex" unicode="&#x2c6;" horiz-adv-x="719" 
d="M425 1573l175 -303h-89l-151 244l-151 -244h-88l174 303h130z" />
    <glyph glyph-name="caron" unicode="&#x2c7;" horiz-adv-x="719" 
d="M511 1573h89l-175 -303h-130l-174 303h88l151 -245z" />
    <glyph glyph-name="breve" unicode="&#x2d8;" horiz-adv-x="733" 
d="M121 1510h91q0 -67 45 -112t111 -45t109 46q44 46 44 111h92q0 -108 -69 -174t-176 -66q-110 0 -179 66t-68 174z" />
    <glyph glyph-name="dotaccent" unicode="&#x2d9;" horiz-adv-x="376" 
d="M237 1290q-20 -20 -48.5 -20t-47.5 20t-19 49t19 48t47.5 19t48.5 -19t20 -48t-20 -49z" />
    <glyph glyph-name="ring" unicode="&#x2da;" horiz-adv-x="702" 
d="M352 1229q-95 0 -163 68t-68 164q0 94 68 162t163 68q93 0 163 -68q68 -68 68 -162q0 -96 -68 -164q-70 -68 -163 -68zM352 1305q63 0 109 46t46 110q0 63 -45 109q-47 45 -110 45q-65 0 -110 -45q-46 -46 -46 -109q0 -64 46 -110q45 -46 110 -46z" />
    <glyph glyph-name="ogonek" unicode="&#x2db;" horiz-adv-x="477" 
d="M274 12h79q-63 -48 -106 -118q-19 -30 -29 -59t-6.5 -59t26.5 -49q29 -23 70 -15q19 4 48 13v-61q-57 -22 -115 -16q-77 6 -107 65q-30 65 24 162q45 84 116 137z" />
    <glyph glyph-name="tilde" unicode="&#x2dc;" horiz-adv-x="830" 
d="M622 1491h89q0 -80 -30 -133t-86 -65q-38 -11 -73.5 1t-90.5 49q-10 6 -38 23.5l-36 22.5q-35 21 -72 22q-42 0 -62 -44q-14 -34 -14 -90h-88q0 79 28 132.5t81 65.5q65 23 157 -39q17 -8 48 -30q35 -25 57 -34q26 -11 53 -12q44 0 63 46q14 33 14 85z" />
    <glyph glyph-name="hungarumlaut" unicode="&#x2dd;" horiz-adv-x="780" 
d="M410 1638l-197 -368h-92l192 368h97zM660 1638l-196 -368h-92l192 368h96z" />
    <glyph glyph-name="gravecomb" unicode="&#x300;" horiz-adv-x="0" 
d="M-120 1270h-93l-202 368h116z" />
    <glyph glyph-name="acutecomb" unicode="&#x301;" horiz-adv-x="0" 
d="M-120 1638l-203 -368h-92l178 368h117z" />
    <glyph glyph-name="uni0302" unicode="&#x302;" horiz-adv-x="0" 
d="M-295 1573l175 -303h-89l-150 244l-152 -244h-88l174 303h130z" />
    <glyph glyph-name="tildecomb" unicode="&#x303;" horiz-adv-x="0" 
d="M-209 1491h89q0 -81 -29.5 -133.5t-86.5 -64.5q-38 -11 -73 1t-90 49q-10 6 -38.5 24t-36.5 22q-33 21 -72 22q-43 0 -61 -44q-13 -33 -15 -90h-88q0 79 28.5 132.5t81.5 65.5q65 23 157 -39q14 -6 47 -30q35 -25 57 -34q25 -10 53 -12q43 0 64 46q13 30 13 85z" />
    <glyph glyph-name="uni0304" unicode="&#x304;" horiz-adv-x="0" 
d="M-668 1270v95h548v-95h-548z" />
    <glyph glyph-name="uni0306" unicode="&#x306;" horiz-adv-x="0" 
d="M-612 1510h91q0 -67 45 -112t110 -45q67 0 110 46q44 46 44 111h92q0 -108 -69 -174t-177 -66q-110 0 -179 66q-68 67 -67 174z" />
    <glyph glyph-name="uni0307" unicode="&#x307;" horiz-adv-x="0" 
d="M-140 1290q-20 -20 -49 -20t-48 20t-19 49t19 48t48 19t49 -19t20 -48t-20 -49z" />
    <glyph glyph-name="uni0308" unicode="&#x308;" horiz-adv-x="0" 
d="M-379 1290q-20 -20 -49 -20t-49 20q-19 20 -19 49t19 48t48.5 19t49.5 -19t20 -48t-20 -49zM-141 1290q-20 -20 -48 -20t-48 20t-20 49t20 48t48.5 19t47.5 -19t19 -48t-19 -49z" />
    <glyph glyph-name="uni030A" unicode="&#x30a;" horiz-adv-x="0" 
d="M-350 1229q-96 0 -164 68t-68 164q0 94 68 162q70 68 164 68t162 -68t68 -162q0 -96 -68 -164t-162 -68zM-350 1305q63 0 108 46q46 46 46 110q0 63 -46 109q-45 45 -108 45q-64 0 -111 -45q-46 -46 -46 -109q0 -64 46 -110t111 -46z" />
    <glyph glyph-name="uni030B" unicode="&#x30b;" horiz-adv-x="0" 
d="M-371 1638l-196 -368h-92l192 368h96zM-120 1638l-196 -368h-93l193 368h96z" />
    <glyph glyph-name="uni030C" unicode="&#x30c;" horiz-adv-x="0" 
d="M-209 1573h89l-175 -303h-130l-174 303h88l152 -245z" />
    <glyph glyph-name="uni0312" unicode="&#x312;" horiz-adv-x="0" 
d="M-120 1587l-80 -317h-103l95 317h88z" />
    <glyph glyph-name="dotbelowcomb" unicode="&#x323;" horiz-adv-x="0" 
d="M-216 -268q-20 -20 -48.5 -20t-48.5 20t-20 49t20 48t48.5 19t48.5 -19t20 -48t-20 -49z" />
    <glyph glyph-name="uni0326" unicode="&#x326;" horiz-adv-x="0" 
d="M-303 -461l79 318h104l-96 -318h-87z" />
    <glyph glyph-name="uni0327" unicode="&#x327;" horiz-adv-x="0" 
d="M-399 14h70v-84q84 12 152 -44q60 -44 56 -123t-73 -119q-91 -57 -331 -41v65q188 -17 266 24q55 28 59 83t-42 88q-24 21 -69.5 27.5t-87.5 -5.5v129z" />
    <glyph glyph-name="uni0328" unicode="&#x328;" horiz-adv-x="0" 
d="M-203 12h79q-63 -48 -106 -118q-19 -29 -29 -58.5t-6.5 -59.5t25.5 -49q29 -23 70 -15q18 4 49 13v-61q-57 -22 -116 -16q-77 6 -106 65q-30 65 24 162q45 84 116 137z" />
    <glyph glyph-name="uni0401" unicode="&#x401;" horiz-adv-x="1319" 
d="M589 1597q-20 -20 -48 -20t-48 20q-19 20 -19 48.5t19 48.5t47.5 20t48.5 -20t20 -48.5t-20 -48.5zM829 1597q-29 -33 -74.5 -14.5t-42.5 63.5q-3 44 42.5 61.5t74.5 -13.5q19 -20 19 -48.5t-19 -48.5zM196 0v1434h897v-103h-775v-596h712v-102h-712v-531h805v-102h-927z
" />
    <glyph glyph-name="uni0410" unicode="&#x410;" horiz-adv-x="1443" 
d="M1329 0h-123l-117 322h-734l-117 -322h-124l522 1434h171zM722 1322l-330 -898h659z" />
    <glyph glyph-name="uni0411" unicode="&#x411;" horiz-adv-x="1387" 
d="M318 848h459q216 0 353 -118q138 -118 138 -304q0 -189 -137 -308q-137 -118 -354 -118h-581v1434h887v-96h-765v-490zM318 102h449q165 0 271 88q107 89 107 236q-1 142 -108 231q-107 88 -270 88h-449v-643z" />
    <glyph glyph-name="uni0412" unicode="&#x412;" horiz-adv-x="1447" 
d="M1017 730q117 -25 197 -125q79 -98 79 -231q0 -158 -111 -266q-112 -108 -272 -108h-714v1434h663q159 0 272 -105q111 -107 111 -264q0 -121 -63 -209q-63 -90 -162 -126zM838 1334h-520v-568h520q116 0 199 83q82 82 82 202q0 119 -82 201t-199 82zM318 100h571
q116 0 199 83q82 82 82 201t-82 201q-83 83 -199 83h-571v-568z" />
    <glyph glyph-name="uni0413" unicode="&#x413;" horiz-adv-x="1105" 
d="M196 1434h755v-103h-633v-1331h-122v1434z" />
    <glyph glyph-name="uni0414" unicode="&#x414;" horiz-adv-x="1856" 
d="M1477 102h184v-405h-102v303h-1261v-303h-102v405h127q86 0 123 49.5t37 156.5v813q0 153 80 233t232 80h682v-1332zM559 102h795v1229h-526q-112 0 -170 -58.5t-58 -169.5v-796q0 -134 -41 -205z" />
    <glyph glyph-name="uni0415" unicode="&#x415;" horiz-adv-x="1319" 
d="M196 0v1434h897v-103h-775v-596h712v-102h-712v-531h805v-102h-927z" />
    <glyph glyph-name="uni0416" unicode="&#x416;" horiz-adv-x="1841" 
d="M1594 1434h132l-641 -717l641 -717h-132l-612 685v-685h-123v685l-612 -685h-133l641 717l-641 717h133l612 -685v685h123v-685z" />
    <glyph glyph-name="uni0417" unicode="&#x417;" horiz-adv-x="1343" 
d="M274 488l1 -113q0 -146 113.5 -227t283.5 -78q235 0 341 135q55 70 55 170q0 103 -53 177.5t-143 108.5q-88 33 -200 33h-148v86h148q160 0 266 76q106 75 106 209q0 144 -105 222q-106 77 -267 77t-267 -77q-106 -78 -106 -222v-110h-115v112q0 119 64.5 206.5
t174.5 131t249 41.5q138 2 247.5 -41.5t174.5 -131.5t65 -206q0 -125 -81 -210q-83 -88 -213 -116q144 -30 235 -125q89 -97 89 -243q0 -183 -145 -286t-372 -103q-229 0 -372 103q-145 102 -145 286v115h119z" />
    <glyph glyph-name="uni0418" unicode="&#x418;" horiz-adv-x="1449" 
d="M197 1434h122v-1133l935 1145v-1446h-122v1133l-935 -1145v1446z" />
    <glyph glyph-name="uni0419" unicode="&#x419;" horiz-adv-x="1449" 
d="M474 1818h91q0 -67 45 -112q45 -46 111 -46t109 46q44 46 44 112h93q0 -108 -69 -174q-70 -67 -177 -67q-111 0 -179 67q-69 66 -68 174zM197 1434h122v-1133l935 1145v-1446h-122v1133l-935 -1145v1446z" />
    <glyph glyph-name="uni041A" unicode="&#x41a;" horiz-adv-x="1177" 
d="M931 1434h133l-641 -717l641 -717h-133l-613 685v-685h-122v1434h122v-685z" />
    <glyph glyph-name="uni041B" unicode="&#x41b;" horiz-adv-x="1562" 
d="M373 308v813q0 152 79.5 232.5t231.5 80.5h682v-1434h-123v1331h-525q-112 0 -170.5 -58.5t-58.5 -169.5v-796q0 -159 -59.5 -233t-197.5 -74h-146v102h126q86 0 123.5 49.5t37.5 156.5z" />
    <glyph glyph-name="uni041C" unicode="&#x41c;" horiz-adv-x="1925" 
d="M963 614l766 832v-1446h-123v1162l-643 -726l-645 726v-1162h-122v1446z" />
    <glyph glyph-name="uni041D" unicode="&#x41d;" horiz-adv-x="1403" 
d="M1085 727v707h123v-1434h-123v625h-767v-625h-122v1434h122v-707h767z" />
    <glyph glyph-name="uni041E" unicode="&#x41e;" horiz-adv-x="1780" 
d="M891 -12q-150 0 -286 56t-236 154t-156 233q-58 134 -58 286q0 151 58 286q56 135 156 233q97 96 234 153t288 57q201 0 370 -96q169 -98 267 -264q98 -167 98 -369t-98 -369q-98 -168 -267 -264t-370 -96zM891 102q147 -1 279 67.5t216 183.5q119 157 119 364
q0 170 -82 310t-224 223q-141 81 -308 81q-168 0 -309 -81q-141 -82 -224 -223q-83 -142 -83 -310q0 -124 48.5 -239t132.5 -197q84 -83 198 -131t237 -48z" />
    <glyph glyph-name="uni041F" unicode="&#x41f;" horiz-adv-x="1391" 
d="M196 1434h1000v-1434h-123v1331h-755v-1331h-122v1434z" />
    <glyph glyph-name="uni0420" unicode="&#x420;" horiz-adv-x="1356" 
d="M196 1434h517q103 0 195 -37t157 -102q64 -65 100.5 -153.5t36.5 -185.5q0 -200 -138 -337q-139 -136 -351 -136h-395v-483h-122v1434zM318 586h383q158 0 268 108q108 107 110 263q1 154 -109 264t-269 110h-383v-745z" />
    <glyph glyph-name="uni0421" unicode="&#x421;" horiz-adv-x="1653" 
d="M891 102q155 0 286 70q133 71 216 190l106 -55q-98 -147 -259 -233t-349 -86q-150 0 -286 56t-236 154t-156 233q-58 134 -58 286q0 151 58 286q56 135 156 233q97 96 234 153t288 57q189 0 349 -85q159 -85 259 -235l-106 -55q-83 120 -216 191q-133 69 -286 69
q-168 0 -309 -81q-141 -82 -224 -223q-83 -142 -83 -310t83 -310q83 -143 224 -223q140 -82 309 -82z" />
    <glyph glyph-name="uni0422" unicode="&#x422;" horiz-adv-x="1249" 
d="M155 1434h940v-103h-409v-1331h-123v1331h-408v103z" />
    <glyph glyph-name="uni0423" unicode="&#x423;" horiz-adv-x="1262" 
d="M631 415l391 1019h126l-451 -1121q-145 -337 -497 -339l-10 91q141 7 239.5 65.5t141.5 158.5l-457 1145h127z" />
    <glyph glyph-name="uni0424" unicode="&#x424;" horiz-adv-x="1614" 
d="M868 1466v-174q286 0 456 -161q170 -162 170 -414t-170 -414t-456 -162v-174h-123v174q-190 0 -332 76q-144 76 -217 205q-75 130 -75 295q0 166 75 296t217 204q143 75 332 75v174h123zM745 243v948q-236 0 -373 -134q-136 -133 -136 -340t136 -340q137 -134 373 -134z
M868 1191v-948q238 0 375 134q136 133 136 340q0 206 -137 340t-374 134z" />
    <glyph glyph-name="uni0425" unicode="&#x425;" horiz-adv-x="1364" 
d="M1114 1434h136l-480 -717l480 -717h-136l-432 634l-431 -634h-137l481 717l-481 717h137l431 -634z" />
    <glyph glyph-name="uni0426" unicode="&#x426;" horiz-adv-x="1456" 
d="M1196 1434v-1332h65v-311h-97v209h-968v1434h122v-1332h755v1332h123z" />
    <glyph glyph-name="uni0427" unicode="&#x427;" horiz-adv-x="1389" 
d="M1108 1434h123v-1434h-123v586h-459q-216 0 -352 118q-138 118 -138 304v426h123v-426q2 -143 109 -231q107 -89 268 -89h449v746z" />
    <glyph glyph-name="uni0428" unicode="&#x428;" horiz-adv-x="2269" 
d="M1950 102v1332h123v-1434h-1877v1434h122v-1332h755v1332h123v-1332h754z" />
    <glyph glyph-name="uni0429" unicode="&#x429;" horiz-adv-x="2332" 
d="M2073 1434v-1332h64v-311h-95v209h-1846v1434h122v-1332h755v1332h123v-1332h754v1332h123z" />
    <glyph glyph-name="uni042A" unicode="&#x42a;" horiz-adv-x="1705" 
d="M638 848h459q215 0 352 -118q137 -119 137 -304q0 -190 -136 -308t-353 -118h-582v1331h-360v103h483v-586zM638 102h447q165 0 272 88q107 89 106 236q-1 142 -108 231q-107 88 -270 88h-447v-643z" />
    <glyph glyph-name="uni042B" unicode="&#x42b;" horiz-adv-x="1822" 
d="M777 0h-581v1434h122v-586h459q216 0 353 -118q138 -118 138 -304q0 -189 -137 -308q-137 -118 -354 -118zM1546 0v1434h117v-1434h-117zM767 745h-449v-643h449q165 0 271 88q107 89 107 236q-1 142 -108 231q-107 88 -270 88z" />
    <glyph glyph-name="uni042C" unicode="&#x42c;" horiz-adv-x="1387" 
d="M777 0h-581v1434h122v-586h459q216 0 353 -118q138 -118 138 -304q0 -189 -137 -308q-137 -118 -354 -118zM767 745h-449v-643h449q165 0 271 88q107 89 107 236q-1 142 -108 231q-107 88 -270 88z" />
    <glyph glyph-name="uni042D" unicode="&#x42d;" horiz-adv-x="1653" 
d="M763 1446q151 0 288 -57t234 -153q98 -98 156 -233t58 -286q0 -152 -58 -286q-58 -135 -156 -233q-97 -98 -234 -153q-137 -57 -288 -57q-187 0 -348 86q-162 86 -260 233l106 55q83 -121 216 -190q131 -70 286 -70q156 -3 295 73t224.5 208t93.5 286h-714v96h714
q-8 155 -93.5 286.5t-224.5 207t-295 72.5q-154 0 -286 -69q-133 -71 -216 -191l-106 55q99 148 260 234t348 86z" />
    <glyph glyph-name="uni042E" unicode="&#x42e;" horiz-adv-x="2295" 
d="M1405 1446q151 0 287 -57t234 -153q98 -98 156 -233t58 -286q0 -152 -58 -286q-58 -135 -156 -233t-234 -153q-136 -57 -287 -57q-193 0 -357 89q-163 88 -264 245t-113 347h-353v-669h-122v1434h122v-669h353q12 189 113 347q101 157 264 245q164 89 357 89zM1405 102
q168 0 308 82q142 82 224 223q83 143 83 310q0 170 -82 310t-224 223q-141 81 -309 81t-309 -81q-142 -82 -223 -223q-82 -140 -82 -310q0 -124 48 -239t131 -197q83 -83 197.5 -131t237.5 -48z" />
    <glyph glyph-name="uni042F" unicode="&#x42f;" horiz-adv-x="1359" 
d="M647 1434h516v-1434h-123v483h-392l-309 -483h-128l318 496q-168 36 -269 163q-103 125 -103 297q0 97 36.5 186t100.5 153q65 65 157.5 102t195.5 37zM657 586h383v745h-383q-158 0 -267 -109q-110 -110 -110 -266q2 -156 111 -262q109 -108 266 -108z" />
    <glyph glyph-name="uni0430" unicode="&#x430;" 
d="M680 1139q171 0 304 -79q132 -79 192 -212l4 278h112v-1126h-112l-4 279q-58 -138 -190 -214q-133 -77 -306 -77q-154 0 -281 76q-130 76 -203 208q-75 132 -75 291t75 292q73 131 203 208q127 76 281 76zM706 90q195 0 333 138q137 139 137 335q0 199 -138 337
q-139 137 -332 137q-124 3 -233 -61t-173 -175t-62 -238q-2 -127 62 -237.5t173 -174.5t233 -61z" />
    <glyph glyph-name="uni0431" unicode="&#x431;" horiz-adv-x="1340" 
d="M696 1293q-234 0 -341 -244q-62 -139 -79 -348q51 118 176 192t281 66q124 -3 229.5 -69.5t165.5 -175.5t58 -233q0 -206 -149 -349q-149 -142 -366 -142t-366 150q-150 148 -150 367q0 554 211 755q128 122 330 122q144 2 290 59v-92q-149 -58 -290 -58zM671 83
q161 0 277 116q115 115 115 282q0 168 -115 283q-116 116 -277 116q-164 0 -278 -116q-115 -115 -115 -283t115 -283q114 -115 278 -115z" />
    <glyph glyph-name="uni0432" unicode="&#x432;" horiz-adv-x="1377" 
d="M980 574q117 -19 197 -98q79 -79 79 -182q0 -131 -106 -212q-106 -82 -277 -82h-714v1126h663q171 0 277 -79t106 -209q0 -94 -63 -165t-162 -99zM801 1042h-519v-436h519q117 0 199 64q82 63 82 155q0 98 -76 158q-77 59 -205 59zM282 85h570q130 0 206 60q76 58 76 157
q0 91 -82 155q-82 63 -200 63h-570v-435z" />
    <glyph glyph-name="uni0433" unicode="&#x433;" horiz-adv-x="1087" 
d="M196 1126h772v-96h-650v-1030h-122v1126z" />
    <glyph glyph-name="uni0434" unicode="&#x434;" horiz-adv-x="1669" 
d="M1440 1126v-1031h69v-368h-103v273h-1141v-273h-106v368h127q86 0 123 37.5t37 120.5v629q0 119 80 181.5t232 62.5h682zM532 95h785v936h-525q-228 0 -229 -175v-615q0 -93 -31 -146z" />
    <glyph glyph-name="uni0435" unicode="&#x435;" horiz-adv-x="1409" 
d="M706 1139q121 0 230.5 -47t189.5 -130q78 -83 121.5 -200.5t40.5 -247.5h-1049q16 -184 151 -306q134 -122 316 -122q148 0 266 81t172 217l99 -48q-68 -159 -213 -253q-148 -95 -324 -95q-118 0 -225.5 43.5t-187.5 120.5q-80 76 -126 184t-46 227t46 227t126 185
t187.5 120.5t225.5 43.5zM706 1040q-184 0 -317 -121t-150 -307h935q-16 184 -150 306t-318 122z" />
    <glyph glyph-name="uni0436" unicode="&#x436;" horiz-adv-x="1783" 
d="M1561 1126h138l-629 -563l629 -563h-138l-608 545v-545h-123v545l-607 -545h-137l628 563l-628 563h137l607 -544v544h123v-544z" />
    <glyph glyph-name="uni0437" unicode="&#x437;" horiz-adv-x="1273" 
d="M241 368v-73q0 -92 114 -146q111 -55 282 -55t283 53q111 52 111 148q0 113 -110 173q-111 60 -284 60h-148v103h148q158 0 265 56q106 55 106 152q0 91 -108.5 144t-262.5 51q-154 2 -262.5 -51t-108.5 -144v-71l-116 1v71q1 146 135.5 222.5t351.5 74.5
q217 2 351.5 -74.5t135.5 -222.5q0 -98 -81 -165t-213 -90q146 -24 235 -100q89 -77 89 -192q0 -150 -143 -227t-374 -77t-374 77q-142 76 -142 227v75h120z" />
    <glyph glyph-name="uni0438" unicode="&#x438;" horiz-adv-x="1353" 
d="M159 1126h123v-888l912 900v-1138h-123v889l-912 -900v1137z" />
    <glyph glyph-name="uni0439" unicode="&#x439;" horiz-adv-x="1353" 
d="M431 1509h91q0 -67 45 -112t111 -45t109 46q44 46 44 111h93q0 -108 -69 -174q-71 -66 -177 -66q-110 0 -179 66t-68 174zM159 1126h123v-888l912 900v-1138h-123v889l-912 -900v1137z" />
    <glyph glyph-name="uni043A" unicode="&#x43a;" horiz-adv-x="1113" 
d="M890 1126h137l-628 -563l628 -563h-137l-608 545v-545h-123v1126h123v-544z" />
    <glyph glyph-name="uni043B" unicode="&#x43b;" horiz-adv-x="1525" 
d="M373 253v629q0 119 79.5 181.5t231.5 62.5h682v-1126h-123v1031h-525q-228 0 -229 -175v-615q0 -124 -59.5 -182.5t-197.5 -58.5h-146v95h126q88 0 124.5 37t36.5 121z" />
    <glyph glyph-name="uni043C" unicode="&#x43c;" horiz-adv-x="1662" 
d="M831 571l673 576v-1147h-123v899l-550 -491l-549 491v-899h-123v1147z" />
    <glyph glyph-name="uni043D" unicode="&#x43d;" horiz-adv-x="1317" 
d="M1036 579v547h123v-1126h-123v481h-754v-481h-123v1126h123v-547h754z" />
    <glyph glyph-name="uni043E" unicode="&#x43e;" horiz-adv-x="1412" 
d="M933 32q-108 -44 -226.5 -44t-226.5 44q-220 90 -312 303q-46 107 -46 228t46 229q92 213 312 303q108 44 226.5 44t226.5 -44q221 -91 313 -303q46 -108 46 -229t-46 -228q-91 -211 -313 -303zM707 89q194 0 332 138t138 337q0 197 -137 336q-139 137 -333 137
q-196 0 -333 -137q-137 -139 -137 -336q0 -198 137 -337q136 -138 333 -138z" />
    <glyph glyph-name="uni043F" unicode="&#x43f;" horiz-adv-x="1317" 
d="M159 1126h1000v-1126h-123v1030h-754v-1030h-123v1126z" />
    <glyph glyph-name="uni0440" unicode="&#x440;" horiz-adv-x="1451" 
d="M771 -12q-172 0 -303 79q-133 79 -193 212v-689h-116v1536h112l4 -278q57 139 190 215q131 76 306 76q154 0 282 -76q129 -77 203 -208q74 -134 74 -292t-74 -291q-74 -132 -203 -208q-128 -76 -282 -76zM745 1037q-195 0 -332 -138q-138 -138 -138 -336
q-2 -127 62 -237.5t173.5 -174.5t234.5 -61q124 -3 233 61t173 174.5t62 237.5q2 127 -62 238t-173 175t-233 61z" />
    <glyph glyph-name="uni0441" unicode="&#x441;" horiz-adv-x="1304" 
d="M707 88q116 0 213.5 51t160.5 144l104 -49q-77 -116 -204 -180q-127 -66 -274 -66q-118 0 -226 43.5t-188 120.5q-80 76 -126 184t-46 227t46 227t126 185t188 120.5t226 43.5q147 0 274 -66q128 -66 204 -181l-104 -48q-63 92 -161 143t-213 51q-196 0 -333 -137
t-137 -338t137 -338t333 -137z" />
    <glyph glyph-name="uni0442" unicode="&#x442;" horiz-adv-x="1257" 
d="M159 1126h940v-96h-409v-1030h-123v1030h-408v96z" />
    <glyph glyph-name="uni0443" unicode="&#x443;" horiz-adv-x="1205" 
d="M603 106l390 1020h127l-450 -1120q-145 -337 -499 -339l-8 90q141 7 239.5 66t140.5 159l-457 1144h126z" />
    <glyph glyph-name="uni0444" unicode="&#x444;" horiz-adv-x="1616" 
d="M869 1291v-156q190 0 334 -75q144 -77 219 -205q74 -130 74 -292q0 -164 -75 -293t-217 -203q-144 -75 -335 -75v-157h-123v157q-190 0 -332 75q-145 75 -218 204q-75 129 -75 292q0 164 75 293t218 204q142 75 332 75v156h123zM746 93v940q-236 0 -372 -133
q-137 -134 -137 -337q0 -201 132 -333q65 -65 162.5 -101t214.5 -36zM869 1033v-940q159 0 277 64t176 169q58 104 58 237q0 201 -133 334q-65 65 -162.5 100.5t-215.5 35.5z" />
    <glyph glyph-name="uni0445" unicode="&#x445;" horiz-adv-x="1205" 
d="M986 1126h133l-431 -563l431 -563h-133l-383 495l-384 -495h-133l431 563l-431 563h133l384 -494z" />
    <glyph glyph-name="uni0446" unicode="&#x446;" horiz-adv-x="1382" 
d="M1159 1126v-1024h65v-311h-97v209h-968v1126h123v-1030h754v1030h123z" />
    <glyph glyph-name="uni0447" unicode="&#x447;" horiz-adv-x="1389" 
d="M1108 1126h123v-1126h-123v447h-459q-213 0 -351 99q-139 99 -139 246v334h123v-334q2 -114 109 -181q107 -68 268 -68h449v583z" />
    <glyph glyph-name="uni0448" unicode="&#x448;" horiz-adv-x="2195" 
d="M1913 96v1030h123v-1126h-1877v1126h123v-1030h754v1030h123v-1030h754z" />
    <glyph glyph-name="uni0449" unicode="&#x449;" horiz-adv-x="2258" 
d="M2036 1126v-1031h64v-304h-95v209h-1846v1126h123v-1030h754v1030h123v-1030h754v1030h123z" />
    <glyph glyph-name="uni044A" unicode="&#x44a;" horiz-adv-x="1629" 
d="M560 691h459q215 0 352 -96q137 -98 137 -249q0 -157 -136 -251q-137 -95 -353 -95h-582v1031h-278v95h401v-435zM560 98h449q165 0 271 66q105 64 105 182q-2 114 -107 181q-107 68 -269 68h-449v-497z" />
    <glyph glyph-name="uni044B" unicode="&#x44b;" horiz-adv-x="1785" 
d="M740 0h-581v1126h123v-435h458q215 0 353 -96q138 -97 138 -249q0 -156 -137 -251t-354 -95zM1509 0v1126h117v-1126h-117zM730 595h-448v-497h448q166 0 272 66q106 64 106 182q-2 114 -108 181q-107 68 -270 68z" />
    <glyph glyph-name="uni044C" unicode="&#x44c;" horiz-adv-x="1350" 
d="M740 0h-581v1126h123v-435h458q215 0 353 -96q138 -97 138 -249q0 -156 -137 -251t-354 -95zM730 595h-448v-497h448q166 0 272 66q106 64 106 182q-2 114 -108 181q-107 68 -270 68z" />
    <glyph glyph-name="uni044D" unicode="&#x44d;" horiz-adv-x="1304" 
d="M599 1139q159 0 293 -74q135 -76 214 -207q79 -133 79 -295q0 -163 -79 -294q-79 -133 -214 -207q-134 -74 -293 -74q-147 0 -275 66q-126 65 -203 180l102 49q63 -93 161.5 -144t214.5 -51q119 -2 224.5 56t171 160t72.5 222h-522v74h522q-7 121 -72.5 223t-171 160
t-224.5 55q-116 0 -214 -51t-162 -143l-102 48q77 116 203 181q128 66 275 66z" />
    <glyph glyph-name="uni044E" unicode="&#x44e;" horiz-adv-x="1847" 
d="M1141 1139q118 0 225.5 -43.5t187.5 -120.5t126 -185t46 -227t-46 -227t-126 -184q-80 -77 -187.5 -120.5t-225.5 -43.5q-230 0 -398 150t-186 377h-282v-515h-116v1126h116v-515h282q18 227 186 378q168 150 398 150zM1141 89q195 0 333 138q137 139 137 337
q0 197 -137 336q-139 137 -333 137q-196 0 -333 -137q-137 -139 -137 -336q0 -198 137 -337q136 -138 333 -138z" />
    <glyph glyph-name="uni044F" unicode="&#x44f;" horiz-adv-x="1352" 
d="M612 1126h582v-1126h-123v380h-458l-306 -380h-131l317 388q-175 25 -272.5 120t-97.5 244q0 174 131 275q130 99 358 99zM623 465h448v576h-448q-174 0 -275 -76q-104 -77 -102 -213q0 -137 102 -212t275 -75z" />
    <glyph glyph-name="uni0451" unicode="&#x451;" horiz-adv-x="1409" 
d="M633 1290q-20 -20 -48.5 -20t-47.5 20t-19 49t19 48t47.5 19t48.5 -19t20 -48t-20 -49zM824 1270q-30 0 -49 19.5t-19 48.5t20 48.5t49 19.5t48 -19t19 -48t-19.5 -49t-48.5 -20zM706 1139q121 0 230.5 -47t189.5 -130q78 -83 121.5 -200.5t40.5 -247.5h-1049
q16 -184 151 -306q134 -122 316 -122q148 0 266 81t172 217l99 -48q-68 -159 -213 -253q-148 -95 -324 -95q-118 0 -225.5 43.5t-187.5 120.5q-80 76 -126 184t-46 227t46 227t126 185t187.5 120.5t225.5 43.5zM706 1040q-184 0 -317 -121t-150 -307h935q-16 184 -150 306
t-318 122z" />
    <glyph glyph-name="uni1E04" unicode="&#x1e04;" horiz-adv-x="1447" 
d="M1017 730q117 -25 197 -125q79 -98 79 -231q0 -158 -111 -266q-112 -108 -272 -108h-714v1434h663q159 0 272 -105q111 -107 111 -264q0 -121 -63 -209q-63 -90 -162 -126zM838 1334h-520v-568h520q116 0 199 83q82 82 82 202q0 119 -82 201t-199 82zM318 100h571
q116 0 199 83q82 82 82 201t-82 201q-83 83 -199 83h-571v-568zM774 -268q-20 -20 -49 -20t-49 20t-20 49t20 48t49 19t49 -19t20 -48t-20 -49z" />
    <glyph glyph-name="uni1E05" unicode="&#x1e05;" horiz-adv-x="1451" 
d="M771 1139q154 0 282 -76q129 -77 203 -208q74 -134 74 -292t-74 -291q-74 -132 -203 -208q-128 -76 -282 -76q-175 0 -305 76q-133 77 -191 215l-4 -279h-112v1536h116v-688q59 133 192 212t304 79zM745 90q124 -3 233 61t173 174.5t62 237.5q2 127 -62 238t-173 175
t-233 61q-195 0 -332 -137q-138 -138 -138 -337t138 -335q137 -138 332 -138zM775 -268q-20 -20 -49 -20t-49 20t-20 49t20 48t49 19t49 -19t20 -48t-20 -49z" />
    <glyph glyph-name="uni1E24" unicode="&#x1e24;" horiz-adv-x="1403" 
d="M1085 727v707h123v-1434h-123v625h-767v-625h-122v1434h122v-707h767zM751 -268q-20 -20 -48.5 -20t-48.5 20t-20 49t20 48t48.5 19t48.5 -19t20 -48t-20 -49z" />
    <glyph glyph-name="uni1E25" unicode="&#x1e25;" horiz-adv-x="1393" 
d="M1235 0h-117v563q0 235 -94 354.5t-293 119.5q-198 0 -327 -135t-129 -339v-563h-116v1536h116v-687q59 134 188 212q127 78 300 78q472 0 472 -576v-563zM745 -268q-20 -20 -48.5 -20t-48.5 20t-20 49t20 48t48.5 19t48.5 -19t20 -48t-20 -49z" />
    <glyph glyph-name="uni1E36" unicode="&#x1e36;" horiz-adv-x="1228" 
d="M1033 0h-837v1434h122v-1332h715v-102zM664 -268q-20 -20 -48.5 -20t-48.5 20t-20 49t20 48t48.5 19t48.5 -19t20 -48t-20 -49z" />
    <glyph glyph-name="uni1E37" unicode="&#x1e37;" horiz-adv-x="435" 
d="M159 0v1536h116v-1536h-116zM266 -268q-20 -20 -49 -20t-49 20t-20 49t20 48t49 19t49 -19t20 -48t-20 -49z" />
    <glyph glyph-name="uni1E3E" unicode="&#x1e3e;" horiz-adv-x="1925" 
d="M1211 1946l-202 -369h-93l179 369h116zM963 614l766 832v-1446h-123v1162l-643 -726l-645 726v-1162h-122v1446z" />
    <glyph glyph-name="uni1E3F" unicode="&#x1e3f;" horiz-adv-x="2198" 
d="M1231 1638h117l-203 -368h-92zM1612 1139q231 0 332 -156q95 -146 95 -420v-563h-117v563q0 236 -82.5 355t-261.5 119q-198 0 -309 -132q-110 -133 -112 -342v-563h-117v563q0 237 -82.5 355.5t-262.5 118.5q-198 0 -309 -132q-111 -133 -111 -342v-563h-116v1126h112
l4 -272q103 285 455 285q317 0 398 -309q52 146 177 227.5t307 81.5z" />
    <glyph glyph-name="uni1E44" unicode="&#x1e44;" horiz-adv-x="1449" 
d="M774 1597q-20 -20 -49 -20t-48 20t-19 48.5t19 48.5t48 20t49 -20t20 -48.5t-20 -48.5zM1130 301v1133h123v-1446l-935 1145v-1133h-122v1446z" />
    <glyph glyph-name="uni1E45" unicode="&#x1e45;" horiz-adv-x="1320" 
d="M716 1290q-20 -20 -48.5 -20t-47.5 20q-20 20 -20 49t20 48t48 19t48 -19t20 -48t-20 -49zM1161 0h-117v563q0 237 -82.5 355.5t-263.5 118.5q-196 1 -311 -133.5t-112 -340.5v-563h-116v1126h112l4 -272q54 137 170 211t285 74q227 0 329 -148t102 -428v-563z" />
    <glyph glyph-name="uni1E46" unicode="&#x1e46;" horiz-adv-x="1449" 
d="M1130 301v1133h123v-1446l-935 1145v-1133h-122v1446zM774 -268q-20 -20 -49 -20t-49 20t-20 49t20 48t49 19t49 -19t20 -48t-20 -49z" />
    <glyph glyph-name="uni1E47" unicode="&#x1e47;" horiz-adv-x="1320" 
d="M1161 0h-117v563q0 237 -82.5 355.5t-263.5 118.5q-196 1 -311 -133.5t-112 -340.5v-563h-116v1126h112l4 -272q54 137 170 211t285 74q227 0 329 -148t102 -428v-563zM716 -268q-20 -20 -48.5 -20t-48.5 20t-20 49t20 48t48.5 19t48.5 -19t20 -48t-20 -49z" />
    <glyph glyph-name="uni1E62" unicode="&#x1e62;" horiz-adv-x="1314" 
d="M1119 1130l-122 -16q-43 109 -131 171t-203 62q-151 0 -243 -77q-93 -78 -93 -212q3 -55 20 -91.5t55 -65.5q55 -41 116 -64q37 -14 72 -25q26 -9 83 -27q20 -6 49 -15.5t37 -12.5q12 -5 39 -14.5t38 -13.5q52 -19 72 -29l29 -14.5t34 -16.5q46 -24 104 -75
q35 -31 64 -97q23 -54 21 -132q-3 -181 -138 -279q-136 -98 -352 -98q-196 0 -338 90q-142 88 -177 251l121 15q35 -121 143 -186q107 -67 249 -67q162 0 263 70q100 69 105 203q1 78 -39 139q-32 48 -114 95q-57 31 -164 68q-46 15 -94 29q-63 19 -103 33q-51 18 -89 34
q-48 18 -79 38q-31 19 -62 45q-45 38 -64.5 88.5t-23.5 127.5q0 182 128 284q128 101 332 101q170 0 290 -82t165 -234zM707 -268q-20 -20 -48.5 -20t-48.5 20t-20 49t20 48t48.5 19t48.5 -19t20 -48t-20 -49z" />
    <glyph glyph-name="uni1E63" unicode="&#x1e63;" horiz-adv-x="1099" 
d="M944 896l-115 -16q-22 71 -99 118q-76 46 -175 46q-121 0 -204 -54q-83 -56 -83 -159q-5 -87 85 -140q44 -27 148 -54q24 -7 99 -25q105 -25 166.5 -46.5t112.5 -54.5q101 -66 100 -199q-1 -147 -117 -234q-116 -88 -296 -88q-169 0 -289 66q-121 64 -156 194l113 16
q21 -63 77 -106t120.5 -60t134.5 -16q125 0 210 61q86 60 86 161q-3 61 -34.5 100.5t-97.5 66.5q-75 31 -200 58q-160 39 -242 80q-50 24 -77 53q-59 61 -59 162q0 146 112 230q113 83 294 83q149 0 251 -62.5t135 -180.5zM608 -268q-20 -20 -49 -20t-49 20t-20 49t20 48
t49 19t49 -19t20 -48t-20 -49z" />
    <glyph glyph-name="uni1E6C" unicode="&#x1e6c;" horiz-adv-x="1249" 
d="M155 1434h940v-103h-409v-1331h-123v1331h-408v103zM673 -268q-20 -20 -48.5 -20t-48.5 20t-20 49t20 48t48.5 19t48.5 -19t20 -48t-20 -49z" />
    <glyph glyph-name="uni1E6D" unicode="&#x1e6d;" horiz-adv-x="946" 
d="M343 1126v260h116v-260h327v-95h-327v-731q0 -104 35.5 -154t117.5 -53q93 -6 174 16v-100q-100 -20 -187 -20q-137 0 -196.5 75t-59.5 234v733h-184v95h184zM648 -279q-20 -20 -49 -20t-49 20t-20 48.5t20 47.5t49 19t49 -19t20 -47.5t-20 -48.5z" />
    <glyph glyph-name="Wgrave" unicode="&#x1e80;" horiz-adv-x="2330" 
d="M1032 1946l179 -369h-93l-202 369h116zM1661 142l417 1292h139l-477 -1434h-150l-425 1266l-425 -1266h-149l-477 1434h139l417 -1292l426 1292h139z" />
    <glyph glyph-name="wgrave" unicode="&#x1e81;" horiz-adv-x="2097" 
d="M1096 1270h-94l-201 368h115zM1503 120l386 1006h123l-429 -1126h-153l-381 981l-381 -981h-154l-428 1126h123l385 -1006l392 1006h125z" />
    <glyph glyph-name="Wacute" unicode="&#x1e82;" horiz-adv-x="2330" 
d="M1297 1946h117l-203 -369h-92zM1661 142l417 1292h139l-477 -1434h-150l-425 1266l-425 -1266h-149l-477 1434h139l417 -1292l426 1292h139z" />
    <glyph glyph-name="wacute" unicode="&#x1e83;" horiz-adv-x="2097" 
d="M1298 1638l-202 -368h-92l178 368h116zM1503 120l386 1006h123l-429 -1126h-153l-381 981l-381 -981h-154l-428 1126h123l385 -1006l392 1006h125z" />
    <glyph glyph-name="Wdieresis" unicode="&#x1e84;" horiz-adv-x="2330" 
d="M1094 1597q-20 -20 -48.5 -20t-47.5 20q-20 20 -20 48.5t20 48.5t48 20t48 -20t20 -48.5t-20 -48.5zM1285 1577q-30 0 -49 19.5t-19 49.5q-2 28 19.5 47.5t48.5 19t49 -18.5q19 -22 19.5 -48.5t-19.5 -48.5t-49 -20zM1661 142l417 1292h139l-477 -1434h-150l-425 1266
l-425 -1266h-149l-477 1434h139l417 -1292l426 1292h139z" />
    <glyph glyph-name="wdieresis" unicode="&#x1e85;" horiz-adv-x="2097" 
d="M977 1290q-20 -20 -48.5 -20t-47.5 20t-19 49t19 48t47.5 19t48.5 -19t20 -48t-20 -49zM1168 1270q-30 0 -49 19.5t-19 48.5t20 48.5t49 19.5t48 -19t19 -48t-19.5 -49t-48.5 -20zM1503 120l386 1006h123l-429 -1126h-153l-381 981l-381 -981h-154l-428 1126h123
l385 -1006l392 1006h125z" />
    <glyph glyph-name="uni1E92" unicode="&#x1e92;" horiz-adv-x="1405" 
d="M196 1434h1014v-103l-870 -1229h870v-102h-1014v102l870 1229h-870v103zM752 -268q-20 -20 -48.5 -20t-48.5 20t-20 49t20 48t48.5 19t48.5 -19t20 -48t-20 -49z" />
    <glyph glyph-name="uni1E93" unicode="&#x1e93;" horiz-adv-x="1239" 
d="M159 1126h920v-97l-771 -929h771v-100h-920v100l769 929h-769v97zM668 -268q-20 -20 -48.5 -20t-48.5 20t-20 49t20 48t48.5 19t48.5 -19t20 -48t-20 -49z" />
    <glyph glyph-name="uni1EA0" unicode="&#x1ea0;" horiz-adv-x="1443" 
d="M807 1434l522 -1434h-123l-117 322h-734l-117 -322h-124l522 1434h171zM722 1322l-330 -898h659zM672 -171q20 19 49 19t49 -19t20 -48t-20 -49t-49 -20t-49 20t-20 49t20 48z" />
    <glyph glyph-name="uni1EA1" unicode="&#x1ea1;" 
d="M680 1139q171 0 304 -79q132 -79 192 -212l4 278h112v-1126h-112l-4 279q-58 -138 -190 -214q-133 -77 -306 -77q-154 0 -281 76q-130 76 -203 208q-75 132 -75 291t75 292q73 131 203 208q127 76 281 76zM706 90q195 0 333 138q137 139 137 335q0 199 -138 337
q-139 137 -332 137q-124 3 -233 -61t-173 -175t-62 -238q-2 -127 62 -237.5t173 -174.5t233 -61zM774 -268q-20 -20 -49 -20t-49 20t-20 49t20 48t49 19t49 -19t20 -48t-20 -49z" />
    <glyph glyph-name="uni1EB8" unicode="&#x1eb8;" horiz-adv-x="1319" 
d="M196 0v1434h897v-103h-775v-596h712v-102h-712v-531h805v-102h-927zM709 -268q-20 -20 -48.5 -20t-48.5 20t-20 49t20 48t48.5 19t48.5 -19t20 -48t-20 -49z" />
    <glyph glyph-name="uni1EB9" unicode="&#x1eb9;" horiz-adv-x="1409" 
d="M706 1139q121 0 230.5 -47t189.5 -130q78 -83 121.5 -200.5t40.5 -247.5h-1049q16 -184 151 -306q134 -122 316 -122q148 0 266 81t172 217l99 -48q-68 -159 -213 -253q-148 -95 -324 -95q-118 0 -225.5 43.5t-187.5 120.5q-80 76 -126 184t-46 227t46 227t126 185
t187.5 120.5t225.5 43.5zM706 1040q-184 0 -317 -121t-150 -307h935q-16 184 -150 306t-318 122zM656 -171q20 19 48.5 19t48.5 -19t20 -48t-20 -49t-48.5 -20t-48.5 20t-20 49t20 48z" />
    <glyph glyph-name="uni1EBC" unicode="&#x1ebc;" horiz-adv-x="1319" 
d="M866 1798h89q0 -80 -29.5 -133t-85.5 -64q-38 -11 -74 0.5t-90 49.5q-9 5 -37.5 22.5t-36.5 22.5q-39 21 -73 22q-43 0 -61 -44q-14 -34 -14 -90h-88q0 79 28 132.5t81 65.5q65 23 157 -39q16 -7 48 -30t57 -33q24 -11 53 -13q44 0 63 46q13 30 13 85zM196 0v1434h897
v-103h-775v-596h712v-102h-712v-531h805v-102h-927z" />
    <glyph glyph-name="uni1EBD" unicode="&#x1ebd;" horiz-adv-x="1409" 
d="M513 1367q-14 -34 -14 -90h-88q0 79 28 132.5t81 65.5q65 23 157 -39q17 -8 48 -30q35 -25 57 -34q26 -11 53 -12q44 0 63 46q13 30 13 85h89q0 -80 -29.5 -133t-85.5 -65q-38 -11 -73.5 1t-90.5 49q-5 3 -74 46q-35 21 -73 22q-43 0 -61 -44zM706 1139q121 0 230.5 -47
t189.5 -130q78 -83 121.5 -200.5t40.5 -247.5h-1049q16 -184 151 -306q134 -122 316 -122q148 0 266 81t172 217l99 -48q-68 -159 -213 -253q-148 -95 -324 -95q-118 0 -225.5 43.5t-187.5 120.5q-80 76 -126 184t-46 227t46 227t126 185t187.5 120.5t225.5 43.5zM706 1040
q-184 0 -317 -121t-150 -307h935q-16 184 -150 306t-318 122z" />
    <glyph glyph-name="uni1ECA" unicode="&#x1eca;" horiz-adv-x="515" 
d="M196 0v1434h122v-1434h-122zM306 -268q-20 -20 -49 -20t-49 20t-20 49t20 48t49 19t49 -19t20 -48t-20 -49z" />
    <glyph glyph-name="uni1ECB" unicode="&#x1ecb;" horiz-adv-x="435" 
d="M218 1332q-35 0 -58.5 23.5t-23.5 58.5q0 33 23.5 56.5t58.5 23.5q33 0 56.5 -23.5t23.5 -56.5q0 -35 -23.5 -58.5t-56.5 -23.5zM159 0v1126h116v-1126h-116zM266 -268q-20 -20 -49 -20t-49 20t-20 49t20 48t49 19t49 -19t20 -48t-20 -49z" />
    <glyph glyph-name="uni1ECC" unicode="&#x1ecc;" horiz-adv-x="1780" 
d="M891 -12q-150 0 -286 56t-236 154t-156 233q-58 134 -58 286q0 151 58 286q56 135 156 233q97 96 234 153t288 57q201 0 370 -96q169 -98 267 -264q98 -167 98 -369t-98 -369q-98 -168 -267 -264t-370 -96zM891 102q147 -1 279 67.5t216 183.5q119 157 119 364
q0 170 -82 310t-224 223q-141 81 -308 81q-168 0 -309 -81q-141 -82 -224 -223q-83 -142 -83 -310q0 -124 48.5 -239t132.5 -197q84 -83 198 -131t237 -48zM939 -268q-19 -20 -48.5 -20t-49.5 20t-20 49t20 48t49.5 19t48.5 -19t19 -48t-19 -49z" />
    <glyph glyph-name="uni1ECD" unicode="&#x1ecd;" horiz-adv-x="1412" 
d="M933 32q-108 -44 -226.5 -44t-226.5 44q-220 90 -312 303q-46 107 -46 228t46 229q92 213 312 303q108 44 226.5 44t226.5 -44q221 -91 313 -303q46 -108 46 -229t-46 -228q-91 -211 -313 -303zM707 89q194 0 332 138t138 337q0 197 -137 336q-139 137 -333 137
q-196 0 -333 -137q-137 -139 -137 -336q0 -198 137 -337q136 -138 333 -138zM754 -268q-20 -20 -48.5 -20t-48.5 20t-20 49t20 48t48.5 19t48.5 -19t20 -48t-20 -49z" />
    <glyph glyph-name="uni1EE4" unicode="&#x1ee4;" horiz-adv-x="1392" 
d="M1073 471l1 963h123v-956q0 -228 -140 -359q-142 -131 -361 -131q-220 0 -360 131t-140 359v956h122v-963q0 -170 107 -269q106 -100 271 -100t271 100q106 99 106 269zM745 -268q-20 -20 -48.5 -20t-48.5 20t-20 49t20 48t48.5 19t48.5 -19t20 -48t-20 -49z" />
    <glyph glyph-name="uni1EE5" unicode="&#x1ee5;" horiz-adv-x="1320" 
d="M160 1126h116v-563q0 -237 83 -355t264 -118q199 0 312 132q111 132 111 341v563h116v-1126h-112l-4 272q-54 -137 -169.5 -210.5t-285.5 -73.5q-227 0 -329 149t-102 426v563zM709 -268q-20 -20 -48.5 -20t-48.5 20t-20 49t20 48t48.5 19t48.5 -19t20 -48t-20 -49z" />
    <glyph glyph-name="Ygrave" unicode="&#x1ef2;" horiz-adv-x="1364" 
d="M550 1946l179 -369h-93l-202 369h116zM683 666l433 768h134l-507 -890v-544h-122v544l-507 890h135z" />
    <glyph glyph-name="ygrave" unicode="&#x1ef3;" horiz-adv-x="1205" 
d="M470 1638l179 -368h-93l-202 368h116zM603 106l390 1020h127l-450 -1120q-145 -337 -499 -339l-8 90q141 7 239.5 66t140.5 159l-457 1144h126z" />
    <glyph glyph-name="uni1EF4" unicode="&#x1ef4;" horiz-adv-x="1364" 
d="M743 0h-122v544l-507 890h135l434 -768l433 768h134l-507 -890v-544zM633 -171q20 19 49 19t49 -19t20 -48t-20 -49t-49 -20t-49 20t-20 49t20 48z" />
    <glyph glyph-name="uni1EF5" unicode="&#x1ef5;" horiz-adv-x="1205" 
d="M603 106l390 1020h127l-450 -1120q-145 -337 -499 -339l-8 90q141 7 239.5 66t140.5 159l-457 1144h126zM821 -171q29 31 74 13.5t42 -61.5q0 -29 -19.5 -49t-48.5 -20q-45 -3 -63 43t15 74z" />
    <glyph glyph-name="uni1EF8" unicode="&#x1ef8;" horiz-adv-x="1364" 
d="M490 1674q-14 -34 -14 -90h-88q0 80 28.5 133t81.5 65q64 22 156 -39q16 -7 48 -30t57 -33q24 -11 53 -13q43 0 64 46q13 30 13 85h89q0 -81 -29.5 -133.5t-86.5 -63.5q-38 -11 -73 0.5t-91 49.5q-7 4 -36 22t-38 23q-39 21 -72 22q-44 0 -62 -44zM683 666l433 768h134
l-507 -890v-544h-122v544l-507 890h135z" />
    <glyph glyph-name="uni1EF9" unicode="&#x1ef9;" horiz-adv-x="1205" 
d="M411 1367q-13 -33 -15 -90h-88q0 79 28.5 132.5t81.5 65.5q64 23 156 -39q16 -8 48 -30q33 -24 58 -34q26 -11 52 -12q43 0 64 46q13 30 13 85h89q0 -81 -29.5 -133.5t-86.5 -64.5q-38 -11 -72.5 0.5t-91.5 49.5q-10 6 -38 23.5l-36 22.5q-35 21 -72 22q-43 0 -61 -44z
M603 106l390 1020h127l-450 -1120q-145 -337 -499 -339l-8 90q141 7 239.5 66t140.5 159l-457 1144h126z" />
    <glyph glyph-name="endash" unicode="&#x2013;" horiz-adv-x="1253" 
d="M196 512v102h861v-102h-861z" />
    <glyph glyph-name="emdash" unicode="&#x2014;" horiz-adv-x="1878" 
d="M196 512v102h1486v-102h-1486z" />
    <glyph glyph-name="quoteleft" unicode="&#x2018;" horiz-adv-x="518" 
d="M359 1487l-79 -371h-121l96 371h104z" />
    <glyph glyph-name="quoteright" unicode="&#x2019;" horiz-adv-x="518" 
d="M159 1063l80 371h120l-96 -371h-104z" />
    <glyph glyph-name="quotesinglbase" unicode="&#x201a;" horiz-adv-x="375" 
d="M48 -254l80 371h121l-96 -371h-105z" />
    <glyph glyph-name="quotedblleft" unicode="&#x201c;" horiz-adv-x="739" 
d="M359 1487l-79 -371h-121l96 371h104zM581 1487l-80 -371h-121l96 371h105z" />
    <glyph glyph-name="quotedblright" unicode="&#x201d;" horiz-adv-x="739" 
d="M159 1063l80 371h120l-96 -371h-104zM380 1063l80 371h121l-97 -371h-104z" />
    <glyph glyph-name="quotedblbase" unicode="&#x201e;" horiz-adv-x="596" 
d="M48 -254l80 371h121l-96 -371h-105zM269 -254l79 371h121l-96 -371h-104z" />
    <glyph glyph-name="dagger" unicode="&#x2020;" horiz-adv-x="872" 
d="M495 1373h182v-63h-182v-533h-117v533h-182v63h182v163h117v-163z" />
    <glyph glyph-name="daggerdbl" unicode="&#x2021;" horiz-adv-x="872" 
d="M677 1373v-63h-182v-305h182v-65h-182v-163h-117v163h-182v65h182v305h-182v63h182v163h117v-163h182z" />
    <glyph glyph-name="bullet" unicode="&#x2022;" horiz-adv-x="509" 
d="M350 469q-40 -40 -95 -40t-94 40q-40 39 -40 94t40 95q39 39 94 39t95 -39q39 -40 39 -95t-39 -94z" />
    <glyph glyph-name="ellipsis" unicode="&#x2026;" horiz-adv-x="1065" 
d="M199 -12q-33 0 -55.5 22.5t-22.5 55.5q0 32 22.5 54.5t55.5 22.5q32 0 54 -22.5t22 -54.5q0 -33 -22 -55.5t-54 -22.5zM534 -12q-33 0 -55.5 22.5t-22.5 55.5q0 32 22.5 54.5t55.5 22.5q32 0 54.5 -22.5t22.5 -54.5q0 -33 -22.5 -55.5t-54.5 -22.5zM924 11
q-22 -23 -55 -23t-55 23t-22 55t22 55t55 23t55 -23t22 -55t-22 -55z" />
    <glyph glyph-name="perthousand" unicode="&#x2030;" horiz-adv-x="3001" 
d="M852 753q-121 -116 -289 -116q-169 0 -288 116q-120 115 -120 285q0 172 120 287q118 115 288 115t289 -115q120 -116 120 -287q0 -170 -120 -285zM744 25l524 1409l66 -25l-523 -1409zM563 728q127 0 218 91q90 90 90 219q0 130 -90 221q-91 91 -218 91q-128 0 -218 -91
t-90 -221q0 -129 90 -219q90 -91 218 -91zM1514 -6q-170 0 -288 115q-119 116 -119 286q0 171 120 286q119 116 288 116q167 0 289 -116q120 -116 120 -286q0 -171 -120 -286q-119 -115 -290 -115zM2727 109q-119 -115 -289 -115t-288 115q-120 115 -120 286t120 286
q119 116 288 116q168 0 289 -116q120 -116 120 -286q0 -171 -120 -286zM1298 175q90 -91 217 -91q126 0 217 91t91 220t-90 220q-91 91 -219 91q-127 0 -217 -91t-90 -220t91 -220zM2438 84q127 0 218 91q90 91 90 220t-90 220q-91 91 -218 91q-128 0 -218 -91t-90 -220
q0 -130 90 -220q90 -91 218 -91z" />
    <glyph glyph-name="guilsinglleft" unicode="&#x2039;" horiz-adv-x="838" 
d="M513 991h130l-317 -428l317 -428h-130l-317 428z" />
    <glyph glyph-name="guilsinglright" unicode="&#x203a;" horiz-adv-x="838" 
d="M196 991h130l317 -428l-317 -428h-130l317 428z" />
    <glyph glyph-name="fraction" unicode="&#x2044;" horiz-adv-x="607" 
d="M0 0l532 1434h75l-532 -1434h-75z" />
    <glyph glyph-name="uni2070" unicode="&#x2070;" horiz-adv-x="823" 
d="M628 916q-74 -99 -216 -99q-144 0 -217 99q-74 100 -74 266t74 266q74 98 217 98q142 0 216 -98q74 -100 74 -266t-74 -266zM412 887q108 0 163 78.5t55 216.5q0 139 -55 217t-163 78q-111 0 -165 -80q-54 -81 -54 -215t54 -214q54 -81 165 -81z" />
    <glyph glyph-name="uni2074" unicode="&#x2074;" horiz-adv-x="787" 
d="M527 1033h141v-61h-141v-153h-73v153h-333l130 564h74l-119 -503h248v362h73v-362z" />
    <glyph glyph-name="uni2075" unicode="&#x2075;" horiz-adv-x="755" 
d="M604 1537v-63h-362l-18 -251q81 27 157 20q124 -5 189.5 -63t65.5 -158q0 -94 -74 -153q-73 -58 -184 -58q-113 0 -184 55q-73 54 -73 148h73q0 -67 51 -106.5t133 -39.5q78 0 132 42q53 42 53 112q0 82 -55 125.5t-159 43.5q-65 0 -128 -26h-73l23 372h433z" />
    <glyph glyph-name="uni2076" unicode="&#x2076;" horiz-adv-x="755" 
d="M388 1536h83l-183 -264q50 30 122 26q97 -5 161 -73q65 -70 65 -165q0 -104 -75 -174q-75 -72 -183 -72q-109 0 -183 71t-74 175q0 94 54 170zM378 872q76 0 130 55q54 54 54 133q0 78 -53 133q-55 53 -131 53q-77 0 -130 -53q-54 -54 -54 -133t54 -133q52 -55 130 -55z
" />
    <glyph glyph-name="uni2077" unicode="&#x2077;" horiz-adv-x="712" 
d="M121 1536h472l-275 -717h-74l250 654h-373v63z" />
    <glyph glyph-name="uni2078" unicode="&#x2078;" horiz-adv-x="757" 
d="M476 1192q73 -14 117 -63t44 -121q0 -92 -72 -143q-71 -52 -186 -52t-186 51q-72 51 -72 144q0 73 43.5 121t117.5 63q-67 14 -107 57.5t-40 105.5q0 89 68 139t176 50q105 0 175 -50q69 -50 69 -139q0 -61 -40 -105t-107 -58zM504 1456q-47 34 -125 34t-125 -34
q-49 -34 -49 -102q0 -61 49 -97.5t125 -36.5q77 0 125 36t48 98q0 68 -48 102zM379 870q84 0 134.5 36t50.5 103q0 73 -50.5 112.5t-134.5 39.5t-135 -40t-51 -112q0 -67 51 -103t135 -36z" />
    <glyph glyph-name="uni2079" unicode="&#x2079;" horiz-adv-x="755" 
d="M368 816h-83l183 264q-50 -30 -122 -26q-97 5 -161 73q-65 70 -65 165q0 103 75 175q74 71 183 71q107 0 183 -71q75 -71 75 -175q0 -93 -55 -170zM378 1480q-76 0 -130 -54q-54 -56 -54 -134q0 -80 54 -132q52 -54 130 -54q77 0 131 54q53 53 53 132q0 78 -53 134
q-54 54 -131 54z" />
    <glyph glyph-name="Euro" unicode="&#x20ac;" horiz-adv-x="1540" 
d="M866 102q293 0 404 267l115 -30q-64 -169 -196.5 -260t-322.5 -91q-254 0 -399 157q-146 158 -176 430h-128l-8 56h132q-6 86 0 172h-124l-8 55h136q30 273 176 431q145 157 399 157q190 0 323 -91t196 -260l-115 -30q-111 266 -404 266q-203 0 -316 -125
q-111 -125 -137 -348h525v-55h-530q-7 -96 0 -172h530v-56h-525q26 -223 138 -347q111 -126 315 -126z" />
    <glyph glyph-name="uni2116" unicode="&#x2116;" horiz-adv-x="2312" 
d="M1780 776q-141 0 -241 100t-100 240q0 138 100 238q99 99 241 99q136 0 237 -99q100 -100 100 -238q0 -140 -99 -240q-100 -100 -238 -100zM1130 301v1133h123v-1446l-935 1145v-1133h-122v1446zM1606 943q72 -72 173 -72t171 72q71 73 70 173q0 101 -70 171
q-71 71 -171 71t-173 -71q-72 -72 -72 -171q0 -101 72 -173zM1439 525v83h677v-83h-677z" />
    <glyph glyph-name="trademark" unicode="&#x2122;" horiz-adv-x="1807" 
d="M1224 1031l388 415v-723h-74v550l-314 -349l-316 349v-550h-73v723zM196 1436h470v-67h-199v-646h-73v646h-198v67z" />
    <glyph glyph-name="oneeighth" unicode="&#x215b;" horiz-adv-x="1413" 
d="M121 1405l158 29h64v-717h-73v653l-144 -28zM311 0l533 1434h74l-533 -1434h-74zM1132 371q74 -14 117.5 -63t43.5 -122q0 -91 -72 -142q-73 -52 -186 -52q-115 0 -187 51t-72 143q0 73 44 121.5t118 63.5q-67 14 -106.5 57.5t-39.5 105.5q0 89 68 139t175 50
q105 0 175 -50q68 -50 68 -139q0 -62 -39.5 -105.5t-106.5 -57.5zM1035 669q-80 0 -127 -35.5t-47 -101.5q0 -61 49 -97.5t126 -36.5q76 0 124 36.5t48 97.5q0 66 -47.5 101.5t-125.5 35.5zM1035 49q84 0 135 36t51 102q0 73 -51 113t-135 40t-135 -40t-51 -113
q0 -67 50.5 -102.5t135.5 -35.5z" />
    <glyph glyph-name="threeeighths" unicode="&#x215c;" horiz-adv-x="1560" 
d="M625 909q0 -91 -72 -145q-73 -55 -180 -55q-109 0 -180 51t-71 143l73 3q0 -62 49 -99t130 -37q78 0 128 41q49 40 49 103q0 74 -64 120.5t-172 45.5l-17 50l234 240h-409v65h493v-65l-234 -243q112 -14 177.5 -72.5t65.5 -145.5zM484 0l533 1434h75l-533 -1434h-75z
M1279 371q73 -15 117 -63.5t44 -121.5q0 -92 -72 -143q-74 -51 -186 -51q-114 0 -186 51t-72 143q0 73 43 121.5t117 63.5q-67 14 -106.5 57.5t-39.5 105.5q0 89 68 139t176 50q105 0 175 -50q68 -50 68 -139q0 -62 -39.5 -105.5t-106.5 -57.5zM1008 532q0 -61 49 -97.5
t125 -36.5t124.5 36.5t48.5 97.5q0 66 -47 101.5t-126 35.5t-126.5 -35.5t-47.5 -101.5zM1182 49q84 0 134.5 36t50.5 102q0 73 -50.5 113t-134.5 40t-135.5 -40t-51.5 -113q0 -67 51 -102.5t136 -35.5z" />
    <glyph glyph-name="fiveeighths" unicode="&#x215d;" horiz-adv-x="1523" 
d="M604 1435v-64h-362l-18 -251q80 27 157 21q124 -5 189.5 -63t65.5 -158q0 -94 -74 -153q-73 -58 -184 -58q-112 0 -184 54q-73 54 -73 148h73q0 -67 51 -106t133 -39q78 0 132 42q53 42 53 112q0 82 -55 125.5t-159 43.5q-65 0 -128 -26h-73l23 372h433zM462 0l532 1434
h75l-532 -1434h-75zM1242 371q74 -15 118 -63.5t44 -121.5q0 -92 -73 -143t-186 -51q-114 0 -186 51t-72 143q0 73 44 121.5t118 63.5q-67 14 -107 57.5t-40 105.5q0 89 68 139t175 50q106 0 176 -50q68 -50 68 -139q0 -61 -40 -105t-107 -58zM1145 669q-78 0 -125.5 -35.5
t-47.5 -101.5q0 -61 48.5 -97.5t124.5 -36.5t125 36.5t49 97.5q0 66 -47 101.5t-127 35.5zM1145 49q84 0 135 36t51 102q0 73 -51 113t-135 40t-135 -40t-51 -113q0 -67 51 -102.5t135 -35.5z" />
    <glyph glyph-name="seveneighths" unicode="&#x215e;" horiz-adv-x="1471" 
d="M121 1434h472l-275 -717h-74l250 653h-373v64zM362 0l533 1434h75l-533 -1434h-75zM1190 371q74 -15 118 -63.5t44 -121.5q0 -92 -73 -143t-186 -51q-114 0 -186 51t-72 143q0 73 43.5 121.5t117.5 63.5q-67 14 -106.5 57.5t-39.5 105.5q0 89 68 139t175 50t175 -50
t68 -139q0 -62 -39.5 -105.5t-106.5 -57.5zM920 532q0 -61 48.5 -97.5t124.5 -36.5t125 36.5t49 97.5q0 66 -48 101.5t-126 35.5t-125.5 -35.5t-47.5 -101.5zM959 84q53 -35 134 -35t134 35q52 34 52 103q0 73 -51 113t-135 40t-135 -40t-51 -113q0 -69 52 -103z" />
    <glyph glyph-name="arrowleft" unicode="&#x2190;" horiz-adv-x="1803" 
d="M748 161l-552 552l552 552l72 -72l-428 -428h1216v-103h-1217l429 -430z" />
    <glyph glyph-name="arrowup" unicode="&#x2191;" horiz-adv-x="1496" 
d="M748 1422l551 -552l-71 -72l-429 430v-1217h-103v1216l-429 -429l-71 72z" />
    <glyph glyph-name="arrowright" unicode="&#x2192;" horiz-adv-x="1803" 
d="M1056 1265l552 -552l-552 -552l-73 71l429 430h-1216v103h1216l-429 428z" />
    <glyph glyph-name="arrowdown" unicode="&#x2193;" horiz-adv-x="1496" 
d="M1228 636l71 -73l-551 -552l-552 552l71 73l429 -429v1215h103v-1216z" />
    <glyph glyph-name="uni2196" unicode="&#x2196;" horiz-adv-x="1426" 
d="M298 454h-102v781h781v-102h-605l859 -861l-73 -72l-860 860v-606z" />
    <glyph glyph-name="uni2197" unicode="&#x2197;" horiz-adv-x="1426" 
d="M1231 1235v-781h-103v606l-860 -860l-72 72l860 861h-606v102h781z" />
    <glyph glyph-name="uni2198" unicode="&#x2198;" horiz-adv-x="1426" 
d="M1128 981h103v-781h-781v102h606l-860 860l72 73l860 -860v606z" />
    <glyph glyph-name="uni2199" unicode="&#x2199;" horiz-adv-x="1426" 
d="M196 200v781h102v-606l860 860l73 -73l-859 -860h605v-102h-781z" />
    <glyph glyph-name="minus" unicode="&#x2212;" horiz-adv-x="1231" 
d="M196 768h840v-102h-840v102z" />
    <glyph glyph-name="lozenge" unicode="&#x25ca;" horiz-adv-x="1055" 
d="M459 1338h139l262 -621l-262 -622h-139l-263 622zM306 717l222 -518l222 518l-222 518z" />
    <glyph glyph-name="i.locl" horiz-adv-x="435" 
d="M266 1290q-20 -20 -49 -20t-48 20t-19 49t19 48t48 19t49 -19t20 -48t-20 -49zM159 0v1126h116v-1126h-116z" />
    <glyph glyph-name="f_f_j.dlig" horiz-adv-x="2270" 
d="M1312 1126h799v-1196q0 -159 -59.5 -233t-197.5 -74q-90 0 -187 21v93q87 -20 172 -17q83 3 119.5 53t36.5 155v1103h-683v-1031h-117v1031h-736v-1031h-116v1031h-184v95h184v116q0 156 59 228.5t197 72.5q87 0 187 -20v-89q-87 22 -175 15q-82 -2 -117 -51t-35 -154
v-118h736v116q0 155 59.5 228t197.5 73q87 0 187 -20v-89q-89 23 -175 15q-82 -2 -117 -51t-35 -154v-118zM2111 1356q-17 -19 -42 -23t-47 5t-37 29.5t-13 46.5q0 33 23.5 56.5t57.5 23.5t57.5 -23.5t23.5 -56.5q0 -35 -23 -58z" />
    <glyph glyph-name="f_f_t.dlig" horiz-adv-x="2716" 
d="M2557 1126v-95h-328v-731q0 -104 36 -154t118 -53q93 -6 174 16v-100q-100 -20 -187 -20q-137 0 -197 75t-60 234v733h-801v-1031h-117v1031h-736v-1031h-116v1031h-184v95h184v116q0 156 59 228.5t197 72.5q87 0 187 -20v-89q-87 22 -175 15q-82 -2 -117 -51t-35 -154
v-118h736v116q0 155 59.5 228t197.5 73q87 0 187 -20v-89q-89 23 -175 15q-82 -2 -117 -51t-35 -154v-118h801v260h116v-260h328z" />
    <glyph glyph-name="f_j.dlig" horiz-adv-x="1418" 
d="M459 1126h799v-1196q0 -159 -59.5 -233t-197.5 -74q-87 0 -187 21v93q87 -20 173 -17q83 3 119 53t36 155v1103h-683v-1031h-116v1031h-184v95h184v116q0 156 59 228.5t197 72.5q87 0 187 -20v-89q-87 22 -175 15q-82 -2 -117 -51t-35 -154v-118zM1258 1356
q-17 -19 -42 -23t-47 5t-37 29.5t-13 46.5q0 33 23.5 56.5t57.5 23.5t57.5 -23.5t23.5 -56.5q0 -35 -23 -58z" />
    <glyph glyph-name="f_t.dlig" horiz-adv-x="1798" 
d="M1639 1126v-95h-327v-731q0 -104 35.5 -154t117.5 -53q93 -6 174 16v-100q-100 -20 -187 -20q-138 0 -197.5 75t-59.5 234v733h-736v-1031h-116v1031h-184v95h184v116q0 156 59 228.5t197 72.5q87 0 187 -20v-89q-87 22 -175 15q-82 -2 -117 -51t-35 -154v-118h736v260
h117v-260h327z" />
    <glyph glyph-name="zero.sinf" horiz-adv-x="823" 
d="M628 -112q-74 -99 -216 -99q-144 0 -217 99q-74 100 -74 266t74 266q74 98 217 98q142 0 216 -98q74 -100 74 -266t-74 -266zM412 -141q108 0 163 78t55 217t-55 217t-163 78t-163.5 -78.5t-55.5 -216.5q0 -139 55.5 -217t163.5 -78z" />
    <glyph glyph-name="one.sinf" horiz-adv-x="463" 
d="M121 483l158 29h64v-717h-73v654l-144 -28z" />
    <glyph glyph-name="two.sinf" horiz-adv-x="714" 
d="M594 328q0 -116 -115 -236q-63 -66 -99 -99q-48 -42 -126 -107l-33 -27h373v-64h-471v64q173 144 235 203q162 156 162 262q0 62 -42 97t-113 35q-114 0 -155 -104l-74 8q23 76 83 117t146 41q101 0 165 -49t64 -141z" />
    <glyph glyph-name="three.sinf" horiz-adv-x="745" 
d="M616 449l-234 -243q112 -14 177.5 -72.5t65.5 -145.5q0 -91 -72 -146q-73 -55 -180 -55q-109 0 -180 51t-71 144l73 3q0 -62 49 -99.5t130 -37.5q78 0 128 41q49 40 49 104q0 74 -64 120.5t-172 45.5l-17 50l234 240h-409v63h493v-63z" />
    <glyph glyph-name="four.sinf" horiz-adv-x="787" 
d="M527 9h141v-61h-141v-153h-73v153h-333l130 564h74l-119 -503h248v362h73v-362z" />
    <glyph glyph-name="five.sinf" horiz-adv-x="755" 
d="M604 513v-63h-362l-18 -251q81 27 157 20q124 -5 189.5 -63.5t65.5 -158.5q0 -93 -74 -152q-73 -58 -184 -58q-112 0 -184 54q-73 55 -73 149h73q0 -67 51 -106.5t133 -39.5q77 0 131 42t54 111q0 83 -55 126.5t-159 43.5q-65 0 -128 -26h-73l23 372h433z" />
    <glyph glyph-name="six.sinf" horiz-adv-x="755" 
d="M388 512h83l-183 -264q50 30 122 26q97 -5 161 -73q65 -70 65 -165q0 -103 -75 -175q-76 -71 -183 -71q-109 0 -183 71t-74 175q0 94 54 170zM378 -152q76 0 130 54q54 56 54 134t-53 133q-55 53 -131 53q-77 0 -130 -53q-54 -54 -54 -133q0 -78 54 -134q53 -54 130 -54z
" />
    <glyph glyph-name="seven.sinf" horiz-adv-x="712" 
d="M121 512h472l-275 -717h-74l250 654h-373v63z" />
    <glyph glyph-name="eight.sinf" horiz-adv-x="757" 
d="M476 166q73 -14 117 -63t44 -121q0 -92 -72 -144q-72 -51 -186 -51q-115 0 -186 51q-72 51 -72 144q0 73 43.5 121t117.5 63q-67 14 -107 57.5t-40 105.5q0 89 68 139t176 50q105 0 175 -50q69 -49 69 -139q0 -61 -40 -105t-107 -58zM504 430q-47 34 -125 34t-125 -34
q-49 -34 -49 -102q0 -61 49 -97.5t125 -36.5q77 0 125 36t48 98q0 68 -48 102zM379 -156q84 0 134.5 36t50.5 103q0 73 -50.5 112.5t-134.5 39.5t-135 -40t-51 -112q0 -67 51 -103t135 -36z" />
    <glyph glyph-name="nine.sinf" horiz-adv-x="755" 
d="M369 -210h-84l183 264q-47 -31 -121 -26q-97 5 -161 73q-65 70 -65 165q0 103 75 175q74 71 182 71t184 -71q74 -71 74 -175q0 -93 -55 -170zM378 454q-76 0 -129 -54q-54 -56 -54 -134q0 -79 53 -132q53 -54 130 -54t131 54q53 53 53 132q0 78 -53 134q-54 54 -131 54z
" />
    <glyph glyph-name="zero.dnom" horiz-adv-x="823" 
d="M628 93q-74 -99 -216 -99q-144 0 -217 99q-74 98 -74 265q0 166 74 266q73 99 217 99q142 0 216 -99q74 -100 74 -266q0 -167 -74 -265zM412 63q108 0 163 78.5t55 216.5q0 139 -55 217t-163 78q-111 0 -165 -80t-54 -214q0 -135 54 -215q54 -81 165 -81z" />
    <glyph glyph-name="one.dnom" horiz-adv-x="463" 
d="M121 688l158 29h64v-717h-73v653l-144 -27z" />
    <glyph glyph-name="two.dnom" horiz-adv-x="714" 
d="M594 532q0 -115 -113 -234q-61 -64 -107 -105q-69 -62 -122 -104q-14 -12 -31 -24h373v-65h-471v65h1q185 156 234 202q162 156 162 261q0 62 -42 97t-113 35q-115 0 -155 -103l-74 8q23 76 83 117t146 41q100 0 165 -50q64 -49 64 -141z" />
    <glyph glyph-name="three.dnom" horiz-adv-x="745" 
d="M616 653l-234 -242q112 -14 177.5 -72.5t65.5 -145.5q0 -91 -72 -146q-73 -55 -180 -55q-109 0 -180 51t-71 143l73 3q0 -62 49 -99t130 -37q78 0 128 41q49 40 49 104q0 74 -64 120.5t-172 45.5l-17 50l234 239h-409v64h493v-64z" />
    <glyph glyph-name="four.dnom" horiz-adv-x="787" 
d="M527 214h141v-61h-141v-153h-73v153h-333l130 564h74l-119 -503h248v361h73v-361z" />
    <glyph glyph-name="five.dnom" horiz-adv-x="755" 
d="M604 718v-64h-362l-18 -251q80 27 157 21q124 -5 189.5 -63t65.5 -158q0 -94 -74 -153q-73 -58 -184 -58q-112 0 -184 54q-73 54 -73 149h73q0 -67 51 -106.5t133 -39.5q78 0 132 42q53 42 53 112q0 82 -55 125.5t-159 43.5q-65 0 -128 -26h-73l23 372h433z" />
    <glyph glyph-name="six.dnom" horiz-adv-x="755" 
d="M388 717h83l-183 -264q50 30 122 26q97 -5 161 -73q65 -70 65 -165q0 -103 -75 -174q-75 -72 -183 -72q-109 0 -183 71t-74 175q0 93 54 170zM378 53q76 0 130 55q54 54 54 133q0 77 -53 132q-54 54 -131 54t-130 -54q-54 -54 -54 -132q0 -79 54 -133q52 -55 130 -55z
" />
    <glyph glyph-name="seven.dnom" horiz-adv-x="712" 
d="M121 717h472l-275 -717h-74l250 653h-373v64z" />
    <glyph glyph-name="eight.dnom" horiz-adv-x="757" 
d="M476 371q73 -15 117 -63.5t44 -121.5q0 -92 -72 -143t-186 -51q-115 0 -186 51q-72 51 -72 143q0 73 43.5 121.5t117.5 63.5q-67 14 -107 57.5t-40 105.5q0 89 68 139t176 50q105 0 175 -50q69 -49 69 -139q0 -61 -40 -105t-107 -58zM504 635q-47 34 -125 34t-125 -34
q-49 -34 -49 -103q0 -61 49 -97.5t125 -36.5t124.5 36.5t48.5 97.5q0 68 -48 103zM379 49q84 0 134.5 36t50.5 102q0 73 -50.5 113t-134.5 40t-135 -40t-51 -113q0 -67 50.5 -102.5t135.5 -35.5z" />
    <glyph glyph-name="nine.dnom" horiz-adv-x="755" 
d="M368 -5h-83l183 264q-49 -30 -122 -27q-97 5 -161 74q-65 70 -65 165q0 103 75 175q74 71 183 71q107 0 183 -71q75 -72 75 -175q0 -93 -55 -170zM378 658q-76 0 -130 -54t-54 -133t54 -132q53 -54 130 -54t131 54q53 53 53 132q0 78 -53 133q-54 54 -131 54z" />
    <glyph glyph-name="zero.numr" horiz-adv-x="823" 
d="M628 814q-74 -99 -216 -99q-144 0 -217 99q-74 98 -74 265q0 166 74 266q73 99 217 99q142 0 216 -99q74 -100 74 -266q0 -167 -74 -265zM412 784q108 0 163 78.5t55 216.5q0 139 -55 217t-163 78q-111 0 -165 -80q-54 -81 -54 -215q0 -135 54 -214q54 -81 165 -81z" />
    <glyph glyph-name="one.numr" horiz-adv-x="463" 
d="M121 1405l158 29h64v-717h-73v653l-144 -28z" />
    <glyph glyph-name="two.numr" horiz-adv-x="714" 
d="M594 1243q0 -114 -113 -235q-55 -58 -107 -104q-69 -62 -122 -104q-7 -6 -17.5 -14t-13.5 -11h373v-64h-471v64h1q188 158 234 203q162 156 162 261q0 62 -42 97t-113 35q-115 0 -155 -103l-74 8q23 76 83 117t146 41q100 0 165 -50q64 -49 64 -141z" />
    <glyph glyph-name="three.numr" horiz-adv-x="745" 
d="M616 1370l-234 -243q112 -14 177.5 -72.5t65.5 -145.5q0 -91 -72 -145q-73 -55 -180 -55q-109 0 -180 51t-71 143l73 3q0 -62 49 -99t130 -37q78 0 128 41q49 40 49 103q0 74 -64 120.5t-172 45.5l-17 50l234 240h-409v65h493v-65z" />
    <glyph glyph-name="four.numr" horiz-adv-x="787" 
d="M527 931h141v-62h-141v-152h-73v152h-333l130 565h74l-119 -503h248v361h73v-361z" />
    <glyph glyph-name="five.numr" horiz-adv-x="755" 
d="M604 1435v-64h-362l-18 -251q80 27 157 21q124 -5 189.5 -63t65.5 -158q0 -94 -74 -153q-73 -58 -184 -58q-112 0 -184 54q-73 54 -73 148h73q0 -67 51 -106t133 -39q78 0 132 42q53 42 53 112q0 82 -55 125.5t-159 43.5q-65 0 -128 -26h-73l23 372h433z" />
    <glyph glyph-name="six.numr" horiz-adv-x="755" 
d="M388 1434h83l-183 -265q49 30 122 27q97 -5 161 -73q65 -70 65 -166q0 -103 -75 -174q-76 -71 -183 -71q-109 0 -183 71t-74 174q0 93 54 170zM378 770q76 0 130 55q54 54 54 133q0 77 -53 132q-54 54 -131 54t-130 -54q-54 -54 -54 -132q0 -79 54 -133q52 -55 130 -55z
" />
    <glyph glyph-name="seven.numr" horiz-adv-x="712" 
d="M121 1434h472l-275 -717h-74l250 653h-373v64z" />
    <glyph glyph-name="eight.numr" horiz-adv-x="757" 
d="M476 1090q73 -15 117 -63.5t44 -121.5q0 -92 -72 -143t-186 -51q-115 0 -186 51q-72 51 -72 143q0 73 43.5 121.5t117.5 63.5q-67 14 -107 57.5t-40 104.5q0 89 68 140q68 50 176 50q105 0 175 -50q69 -51 69 -140q0 -61 -40 -104.5t-107 -57.5zM504 1354q-47 34 -125 34
t-125 -34q-49 -34 -49 -103q0 -61 49 -97.5t125 -36.5t124.5 36.5t48.5 97.5q0 69 -48 103zM379 768q84 0 134.5 36t50.5 102q0 73 -50.5 113t-134.5 40t-135 -40t-51 -113q0 -67 50.5 -102.5t135.5 -35.5z" />
    <glyph glyph-name="nine.numr" horiz-adv-x="755" 
d="M368 714h-83l183 264q-49 -30 -122 -27q-97 5 -161 74q-65 70 -65 165q0 103 75 175q74 71 183 71q107 0 183 -71q75 -72 75 -175q0 -93 -55 -170zM378 1377q-76 0 -130 -54t-54 -133q0 -80 54 -132q52 -54 130 -54q77 0 131 54q53 53 53 132q0 78 -53 133
q-54 54 -131 54z" />
    </font>
</defs>
</svg>
