<svg width="24" height="24" fill="none" xmlns="http://www.w3.org/2000/svg"><g clip-path="url(#clip0_122_130)" fill="#fff"><path d="M17.5 24a6.508 6.508 0 01-6.5-6.5c0-3.584 2.916-6.5 6.5-6.5s6.5 2.916 6.5 6.5-2.916 6.5-6.5 6.5zm0-12a5.506 5.506 0 00-5.5 5.5c0 3.032 2.467 5.5 5.5 5.5s5.5-2.468 5.5-5.5-2.467-5.5-5.5-5.5z"/><path d="M16.5 20a.505.505 0 01-.354-.146l-2-2a.5.5 0 01.707-.707l1.622 1.622 3.148-3.598a.5.5 0 11.753.658l-3.5 4a.504.504 0 01-.36.171H16.5zm-7 1h-7A2.503 2.503 0 010 18.5v-13C0 4.121 1.122 3 2.5 3h2a.5.5 0 010 1h-2C1.673 4 1 4.673 1 5.5v13c0 .827.673 1.5 1.5 1.5h7a.5.5 0 010 1zm7-12a.5.5 0 01-.5-.5v-3c0-.827-.673-1.5-1.5-1.5h-2a.5.5 0 010-1h2C15.878 3 17 4.121 17 5.5v3a.5.5 0 01-.5.5z"/><path d="M11.5 6h-6C4.673 6 4 5.327 4 4.5v-2a.5.5 0 01.5-.5h1.55C6.283.86 7.292 0 8.5 0c1.208 0 2.217.86 2.45 2h1.55a.5.5 0 01.5.5v2c0 .827-.673 1.5-1.5 1.5zM5 3v1.5a.5.5 0 00.5.5h6a.5.5 0 00.5-.5V3h-1.5a.5.5 0 01-.5-.5C10 1.673 9.327 1 8.5 1S7 1.673 7 2.5a.5.5 0 01-.5.5H5zm8.5 6h-10a.5.5 0 010-1h10a.5.5 0 010 1zm-3 3h-7a.5.5 0 010-1h7a.5.5 0 010 1zm-2 3h-5a.5.5 0 010-1h5a.5.5 0 010 1z"/></g><defs><clipPath id="clip0_122_130"><path fill="#fff" d="M0 0h24v24H0z"/></clipPath></defs></svg>