<svg width="178" height="184" viewBox="0 0 178 184" fill="none" xmlns="http://www.w3.org/2000/svg">
<g filter="url(#filter0_b_1_428)">
<rect width="178" height="184" rx="16" fill="#491F98"/>
</g>
<path d="M20.0696 30.4545H17.4347V45H20.0696V30.4545Z" fill="white"/>
<path d="M25.5803 38.6079C25.5803 37.0312 26.532 36.1221 27.8886 36.1221C29.2167 36.1221 30.0121 36.9957 30.0121 38.4517V45H32.5832V38.054C32.5903 35.4403 31.0988 33.9488 28.8474 33.9488C27.2139 33.9488 26.0917 34.7301 25.5945 35.9446H25.4667V34.0909H23.0093V45H25.5803V38.6079Z" fill="white"/>
<path d="M40.1553 45.2131C42.8968 45.2131 44.644 43.5866 44.8286 41.2713H42.3712C42.1511 42.4432 41.3059 43.1179 40.1766 43.1179C38.5715 43.1179 37.5346 41.7756 37.5346 39.5454C37.5346 37.3437 38.5928 36.0227 40.1766 36.0227C41.4124 36.0227 42.1724 36.8182 42.3712 37.8693H44.8286C44.6511 35.5042 42.8045 33.9488 40.1411 33.9488C36.9451 33.9488 34.9281 36.2571 34.9281 39.5881C34.9281 42.8906 36.8954 45.2131 40.1553 45.2131Z" fill="white"/>
<path d="M47.1398 45H49.7108V38.5866C49.7108 37.2017 50.7548 36.2216 52.1682 36.2216C52.6014 36.2216 53.1412 36.2997 53.3614 36.3707V34.0057C53.127 33.9631 52.7222 33.9346 52.4381 33.9346C51.1881 33.9346 50.144 34.6449 49.7463 35.9091H49.6327V34.0909H47.1398V45Z" fill="white"/>
<path d="M59.6498 45.2131C62.1924 45.2131 63.9396 43.9702 64.3941 42.0738L61.9935 41.804C61.6455 42.7273 60.7933 43.2102 59.6853 43.2102C58.0234 43.2102 56.9225 42.1165 56.9012 40.2486H64.5006V39.4602C64.5006 35.6321 62.1995 33.9488 59.5148 33.9488C56.3898 33.9488 54.3515 36.2429 54.3515 39.6094C54.3515 43.0327 56.3614 45.2131 59.6498 45.2131ZM56.9083 38.5156C56.9864 37.1236 58.0163 35.9517 59.5504 35.9517C61.0276 35.9517 62.0219 37.0312 62.0361 38.5156H56.9083Z" fill="white"/>
<path d="M70.0149 45.2202C71.7266 45.2202 72.7493 44.4176 73.218 43.5014H73.3033V45H75.7749V37.6988C75.7749 34.8153 73.424 33.9488 71.343 33.9488C69.049 33.9488 67.2876 34.9716 66.7195 36.9602L69.12 37.3011C69.3757 36.5554 70.1001 35.9162 71.3572 35.9162C72.5504 35.9162 73.2038 36.527 73.2038 37.5994V37.642C73.2038 38.3807 72.4297 38.4162 70.505 38.6221C68.3885 38.8494 66.3643 39.4815 66.3643 41.9389C66.3643 44.0838 67.9339 45.2202 70.0149 45.2202ZM70.6825 43.3309C69.6101 43.3309 68.843 42.8409 68.843 41.8963C68.843 40.9091 69.7024 40.4971 70.853 40.3338C71.5277 40.2415 72.8771 40.071 73.2109 39.8011V41.0866C73.2109 42.3011 72.2308 43.3309 70.6825 43.3309Z" fill="white"/>
<path d="M87.1822 36.9744C86.8271 35.1278 85.3499 33.9488 82.793 33.9488C80.1652 33.9488 78.3754 35.2415 78.3825 37.2585C78.3754 38.8494 79.3555 39.9006 81.4507 40.3338L83.3115 40.7244C84.3129 40.9446 84.7817 41.3494 84.7817 41.9673C84.7817 42.7131 83.972 43.2741 82.7504 43.2741C81.5714 43.2741 80.8044 42.7628 80.5842 41.7827L78.0771 42.0241C78.3967 44.027 80.08 45.2131 82.7575 45.2131C85.4848 45.2131 87.4095 43.7997 87.4166 41.7329C87.4095 40.1775 86.4081 39.2258 84.3484 38.7784L82.4876 38.3807C81.3797 38.1321 80.9393 37.7486 80.9464 37.1165C80.9393 36.3778 81.7561 35.8665 82.8286 35.8665C84.0146 35.8665 84.6396 36.5128 84.8385 37.2301L87.1822 36.9744Z" fill="white"/>
<path d="M94.5662 45.2131C97.1088 45.2131 98.856 43.9702 99.3105 42.0738L96.9099 41.804C96.5619 42.7273 95.7097 43.2102 94.6017 43.2102C92.9398 43.2102 91.8389 42.1165 91.8176 40.2486H99.417V39.4602C99.417 35.6321 97.1159 33.9488 94.4313 33.9488C91.3063 33.9488 89.2679 36.2429 89.2679 39.6094C89.2679 43.0327 91.2778 45.2131 94.5662 45.2131ZM91.8247 38.5156C91.9028 37.1236 92.9327 35.9517 94.4668 35.9517C95.944 35.9517 96.9384 37.0312 96.9526 38.5156H91.8247Z" fill="white"/>
<path d="M106.953 45H109.524V34.0909H106.953V45ZM108.246 32.5426C109.062 32.5426 109.73 31.9176 109.73 31.1506C109.73 30.3764 109.062 29.7514 108.246 29.7514C107.422 29.7514 106.754 30.3764 106.754 31.1506C106.754 31.9176 107.422 32.5426 108.246 32.5426Z" fill="white"/>
<path d="M114.939 38.6079C114.939 37.0312 115.891 36.1221 117.247 36.1221C118.575 36.1221 119.371 36.9957 119.371 38.4517V45H121.942V38.054C121.949 35.4403 120.457 33.9488 118.206 33.9488C116.572 33.9488 115.45 34.7301 114.953 35.9446H114.825V34.0909H112.368V45H114.939V38.6079Z" fill="white"/>
<path d="M16.7955 60.6633H21.2912V73H23.9048V60.6633H28.4006V58.4545H16.7955V60.6633Z" fill="white"/>
<path d="M29.5913 73H32.1624V66.5866C32.1624 65.2017 33.2064 64.2216 34.6197 64.2216C35.053 64.2216 35.5928 64.2997 35.8129 64.3707V62.0057C35.5786 61.9631 35.1737 61.9346 34.8896 61.9346C33.6396 61.9346 32.5956 62.6449 32.1979 63.9091H32.0842V62.0909H29.5913V73Z" fill="white"/>
<path d="M40.6454 73.2202C42.357 73.2202 43.3798 72.4176 43.8485 71.5014H43.9337V73H46.4053V65.6988C46.4053 62.8153 44.0545 61.9488 41.9735 61.9488C39.6795 61.9488 37.9181 62.9716 37.3499 64.9602L39.7505 65.3011C40.0062 64.5554 40.7306 63.9162 41.9877 63.9162C43.1809 63.9162 43.8343 64.527 43.8343 65.5994V65.642C43.8343 66.3807 43.0602 66.4162 41.1354 66.6221C39.019 66.8494 36.9948 67.4815 36.9948 69.9389C36.9948 72.0838 38.5644 73.2202 40.6454 73.2202ZM41.313 71.331C40.2406 71.331 39.4735 70.8409 39.4735 69.8963C39.4735 68.9091 40.3329 68.4971 41.4835 68.3338C42.1582 68.2415 43.5076 68.071 43.8414 67.8011V69.0866C43.8414 70.3011 42.8613 71.331 41.313 71.331Z" fill="white"/>
<path d="M53.2388 73.1917C55.1138 73.1917 55.959 72.0767 56.3638 71.2812H56.5201V73H59.0485V58.4545H56.4704V63.8949H56.3638C55.9732 63.1065 55.1707 61.9488 53.246 61.9488C50.7246 61.9488 48.7431 63.9233 48.7431 67.5596C48.7431 71.1534 50.6678 73.1917 53.2388 73.1917ZM53.9562 71.0824C52.2587 71.0824 51.3638 69.5909 51.3638 67.5454C51.3638 65.5142 52.2445 64.0582 53.9562 64.0582C55.611 64.0582 56.5201 65.429 56.5201 67.5454C56.5201 69.6619 55.5968 71.0824 53.9562 71.0824Z" fill="white"/>
<path d="M66.8178 73.2131C69.3604 73.2131 71.1075 71.9702 71.5621 70.0738L69.1615 69.804C68.8135 70.7273 67.9612 71.2102 66.8533 71.2102C65.1913 71.2102 64.0905 70.1165 64.0692 68.2486H71.6686V67.4602C71.6686 63.6321 69.3675 61.9488 66.6828 61.9488C63.5578 61.9488 61.5195 64.2429 61.5195 67.6094C61.5195 71.0327 63.5294 73.2131 66.8178 73.2131ZM64.0763 66.5156C64.1544 65.1236 65.1842 63.9517 66.7183 63.9517C68.1956 63.9517 69.1899 65.0312 69.2041 66.5156H64.0763Z" fill="white"/>
<path d="M23.7727 147.273H25.1364C25.0739 145.517 23.4545 144.205 21.2045 144.205C18.9773 144.205 17.2273 145.5 17.2273 147.455C17.2273 149.023 18.3636 149.955 20.1818 150.477L21.6136 150.886C22.8409 151.227 23.9318 151.659 23.9318 152.818C23.9318 154.091 22.7045 154.932 21.0909 154.932C19.7045 154.932 18.4773 154.318 18.3636 153H16.9091C17.0455 154.909 18.5909 156.205 21.0909 156.205C23.7727 156.205 25.2955 154.727 25.2955 152.841C25.2955 150.659 23.2273 149.955 22.0227 149.636L20.8409 149.318C19.9773 149.091 18.5909 148.636 18.5909 147.386C18.5909 146.273 19.6136 145.455 21.1591 145.455C22.5682 145.455 23.6364 146.125 23.7727 147.273Z" fill="#F2F2F2"/>
<path d="M31.2495 156.182C33.0222 156.182 34.3177 155.295 34.7268 153.977L33.4313 153.614C33.0904 154.523 32.3006 154.977 31.2495 154.977C29.6756 154.977 28.5904 153.96 28.5279 152.091H34.8631V151.523C34.8631 148.273 32.9313 147.159 31.1131 147.159C28.7495 147.159 27.1813 149.023 27.1813 151.705C27.1813 154.386 28.7268 156.182 31.2495 156.182ZM28.5279 150.932C28.6188 149.574 29.579 148.364 31.1131 148.364C32.5677 148.364 33.4995 149.455 33.4995 150.932H28.5279Z" fill="#F2F2F2"/>
<path d="M38.4038 144.364H37.0629V156H38.4038V144.364Z" fill="#F2F2F2"/>
<path d="M42.3607 144.364H41.0198V156H42.3607V144.364Z" fill="#F2F2F2"/>
<path d="M53.1821 156.182C55.5457 156.182 57.1366 154.386 57.1366 151.682C57.1366 148.955 55.5457 147.159 53.1821 147.159C50.8185 147.159 49.2276 148.955 49.2276 151.682C49.2276 154.386 50.8185 156.182 53.1821 156.182ZM53.1821 154.977C51.3866 154.977 50.5685 153.432 50.5685 151.682C50.5685 149.932 51.3866 148.364 53.1821 148.364C54.9776 148.364 55.7957 149.932 55.7957 151.682C55.7957 153.432 54.9776 154.977 53.1821 154.977Z" fill="#F2F2F2"/>
<path d="M59.3435 159.273H60.6844V154.659H60.7981C61.0935 155.136 61.6617 156.182 63.3435 156.182C65.5253 156.182 67.0481 154.432 67.0481 151.659C67.0481 148.909 65.5253 147.159 63.3208 147.159C61.6162 147.159 61.0935 148.205 60.7981 148.659H60.639V147.273H59.3435V159.273ZM60.6617 151.636C60.6617 149.682 61.5253 148.364 63.1617 148.364C64.8662 148.364 65.7072 149.795 65.7072 151.636C65.7072 153.5 64.8435 154.977 63.1617 154.977C61.5481 154.977 60.6617 153.614 60.6617 151.636Z" fill="#F2F2F2"/>
<path d="M73.049 147.273H71.1853V145.182H69.8444V147.273H68.5262V148.409H69.8444V153.864C69.8444 155.386 71.0717 156.114 72.2081 156.114C72.7081 156.114 73.0262 156.023 73.2081 155.955L72.9353 154.75C72.8217 154.773 72.6399 154.818 72.3444 154.818C71.7535 154.818 71.1853 154.636 71.1853 153.5V148.409H73.049V147.273Z" fill="#F2F2F2"/>
<path d="M75.226 156H76.5669V147.273H75.226V156ZM75.9078 145.818C76.4306 145.818 76.8624 145.409 76.8624 144.909C76.8624 144.409 76.4306 144 75.9078 144C75.3851 144 74.9533 144.409 74.9533 144.909C74.9533 145.409 75.3851 145.818 75.9078 145.818Z" fill="#F2F2F2"/>
<path d="M82.7283 156.182C85.092 156.182 86.6829 154.386 86.6829 151.682C86.6829 148.955 85.092 147.159 82.7283 147.159C80.3647 147.159 78.7738 148.955 78.7738 151.682C78.7738 154.386 80.3647 156.182 82.7283 156.182ZM82.7283 154.977C80.9329 154.977 80.1147 153.432 80.1147 151.682C80.1147 149.932 80.9329 148.364 82.7283 148.364C84.5238 148.364 85.342 149.932 85.342 151.682C85.342 153.432 84.5238 154.977 82.7283 154.977Z" fill="#F2F2F2"/>
<path d="M90.2307 150.75C90.2307 149.227 91.1739 148.364 92.458 148.364C93.7023 148.364 94.458 149.176 94.458 150.545V156H95.7989V150.455C95.7989 148.227 94.6114 147.159 92.8443 147.159C91.5261 147.159 90.7079 147.75 90.2989 148.636H90.1852V147.273H88.8898V156H90.2307V150.75Z" fill="#F2F2F2"/>
<path d="M22.6307 116.341H25.6818V111.832H30.1903V108.781H25.6818V104.273H22.6307V108.781H18.1222V111.832H22.6307V116.341Z" fill="white"/>
<path d="M33.9545 119H37.7641L45.0085 104.605V101.545H32.7613V104.563H41.1903V104.682L33.9545 119Z" fill="white"/>
<path d="M53.9182 119.239C57.8046 119.239 60.4466 116.707 60.4381 113.179C60.4466 109.838 58.1114 107.435 54.9665 107.435C53.4324 107.435 52.1114 108.074 51.4978 108.935H51.3955L51.8472 104.563H59.475V101.545H48.8046L47.9779 110.75L51.2591 111.338C51.7961 110.614 52.8358 110.162 53.8671 110.162C55.6228 110.17 56.8841 111.44 56.8841 113.273C56.8841 115.088 55.6483 116.341 53.9182 116.341C52.4523 116.341 51.2676 115.42 51.1824 114.065H47.6029C47.671 117.082 50.3046 119.239 53.9182 119.239Z" fill="white"/>
<path d="M72.8059 115.727C72.8145 117.824 74.1525 119.605 76.6497 119.605C79.1213 119.605 80.502 117.824 80.4934 115.727V114.807C80.502 112.693 79.1554 110.929 76.6497 110.929C74.1866 110.929 72.8145 112.71 72.8059 114.807V115.727ZM63.8486 105.739C63.8571 107.835 65.1951 109.599 67.6838 109.599C70.1639 109.599 71.5446 107.852 71.5361 105.739V104.818C71.5446 102.705 70.198 100.94 67.6838 100.94C65.2463 100.94 63.8571 102.705 63.8486 104.818V105.739ZM64.6838 119H66.9082L78.9082 101.545H76.6838L64.6838 119ZM75.2861 114.807C75.2946 113.972 75.627 113.111 76.6497 113.111C77.7236 113.111 78.0048 113.972 77.9963 114.807V115.727C78.0048 116.563 77.6895 117.406 76.6497 117.406C75.6099 117.406 75.2946 116.537 75.2861 115.727V114.807ZM66.3457 104.818C66.3542 104.009 66.6696 103.122 67.6838 103.122C68.7576 103.122 69.0474 103.983 69.0389 104.818V105.739C69.0474 106.574 68.7236 107.418 67.6838 107.418C66.6781 107.418 66.3542 106.574 66.3457 105.739V104.818Z" fill="white"/>
<path d="M107.71 110.29L102.71 105.29C102.615 105.199 102.503 105.127 102.38 105.08C102.137 104.98 101.864 104.98 101.62 105.08C101.498 105.127 101.385 105.199 101.29 105.29L96.2903 110.29C96.1971 110.383 96.1231 110.494 96.0727 110.616C96.0222 110.737 95.9962 110.868 95.9962 111C95.9962 111.266 96.102 111.522 96.2903 111.71C96.4786 111.898 96.734 112.004 97.0003 112.004C97.2666 112.004 97.522 111.898 97.7103 111.71L101 108.41V116C101 116.265 101.106 116.519 101.293 116.707C101.481 116.894 101.735 117 102 117C102.266 117 102.52 116.894 102.707 116.707C102.895 116.519 103 116.265 103 116V108.41L106.29 111.71C106.383 111.804 106.494 111.878 106.616 111.929C106.738 111.979 106.868 112.006 107 112.006C107.132 112.006 107.263 111.979 107.385 111.929C107.507 111.878 107.617 111.804 107.71 111.71C107.804 111.617 107.878 111.506 107.929 111.384C107.98 111.263 108.006 111.132 108.006 111C108.006 110.868 107.98 110.737 107.929 110.615C107.878 110.493 107.804 110.383 107.71 110.29Z" fill="#FD8589"/>
<defs>
<filter id="filter0_b_1_428" x="-250" y="-250" width="678" height="684" filterUnits="userSpaceOnUse" color-interpolation-filters="sRGB">
<feFlood flood-opacity="0" result="BackgroundImageFix"/>
<feGaussianBlur in="BackgroundImage" stdDeviation="125"/>
<feComposite in2="SourceAlpha" operator="in" result="effect1_backgroundBlur_1_428"/>
<feBlend mode="normal" in="SourceGraphic" in2="effect1_backgroundBlur_1_428" result="shape"/>
</filter>
</defs>
</svg>
