<svg width="249" height="164" viewBox="0 0 249 164" fill="none" xmlns="http://www.w3.org/2000/svg">
<g filter="url(#filter0_d_1_436)">
<rect x="25" y="20" width="169" height="84" rx="16" fill="#491F98"/>
<path d="M75.3222 61.1818H77.3336L77.3506 59.2131C81.041 58.9318 83.1802 56.9716 83.1887 54.0142C83.1802 51.108 80.9899 49.5654 77.9558 48.8835L77.4529 48.7642L77.487 44.5029C78.6205 44.7671 79.3109 45.4915 79.4131 46.5654H82.9501C82.9075 43.7443 80.8024 41.7244 77.5211 41.3665L77.5381 39.3636H75.5268L75.5097 41.3494C72.1774 41.6733 69.8251 43.6847 69.8421 46.5909C69.8336 49.1648 71.6489 50.6392 74.5978 51.3466L75.416 51.5511L75.3734 56.0597C73.9842 55.7955 73.0467 54.9432 72.9529 53.5199H69.3819C69.4671 56.9631 71.7256 58.8892 75.3393 59.2046L75.3222 61.1818ZM77.3847 56.0597L77.4188 52.0796C78.7399 52.4972 79.4558 53.0341 79.4643 54.0057C79.4558 55.0369 78.6717 55.804 77.3847 56.0597ZM75.4416 48.2443C74.3762 47.8779 73.6092 47.3239 73.6262 46.3438C73.6262 45.4318 74.2739 44.7244 75.4756 44.4773L75.4416 48.2443Z" fill="white"/>
<path d="M93.4024 41.5455H89.9337L85.6127 44.2813V47.554L89.6098 45.0483H89.7121V59H93.4024V41.5455Z" fill="white"/>
<path d="M104.166 59.2386C108.052 59.2386 110.694 56.7074 110.686 53.179C110.694 49.8381 108.359 47.4347 105.214 47.4347C103.68 47.4347 102.359 48.0739 101.745 48.9347H101.643L102.095 44.5625H109.723V41.5455H99.0522L98.2255 50.75L101.507 51.3381C102.044 50.6136 103.083 50.1619 104.115 50.1619C105.87 50.1705 107.132 51.4404 107.132 53.2727C107.132 55.0881 105.896 56.3409 104.166 56.3409C102.7 56.3409 101.515 55.4205 101.43 54.0654H97.8505C97.9187 57.0824 100.552 59.2386 104.166 59.2386Z" fill="white"/>
<path d="M115.117 59.2216C116.208 59.2216 117.154 58.3097 117.162 57.1761C117.154 56.0597 116.208 55.1477 115.117 55.1477C113.992 55.1477 113.063 56.0597 113.071 57.1761C113.063 58.3097 113.992 59.2216 115.117 59.2216Z" fill="white"/>
<path d="M126.262 59.2386C130.182 59.2386 132.986 57.0824 132.978 54.0994C132.986 51.9261 131.605 50.375 129.04 50.0511V49.9148C130.992 49.5654 132.338 48.1847 132.33 46.2244C132.338 43.4716 129.926 41.3068 126.313 41.3068C122.733 41.3068 120.04 43.4034 119.989 46.4205H123.526C123.568 45.0909 124.787 44.2301 126.296 44.2301C127.787 44.2301 128.784 45.1335 128.776 46.446C128.784 47.8182 127.617 48.7472 125.938 48.7472H124.31V51.4574H125.938C127.915 51.4574 129.151 52.446 129.142 53.8523C129.151 55.2415 127.958 56.196 126.27 56.196C124.642 56.196 123.424 55.3438 123.355 54.0654H119.639C119.699 57.1165 122.426 59.2386 126.262 59.2386Z" fill="white"/>
<path d="M135.87 59H148.313V55.983H140.984V55.8636L143.532 53.3665C147.12 50.0938 148.083 48.4574 148.083 46.4716C148.083 43.446 145.612 41.3068 141.87 41.3068C138.205 41.3068 135.691 43.4972 135.7 46.9233H139.203C139.194 45.2529 140.251 44.2301 141.845 44.2301C143.379 44.2301 144.521 45.1847 144.521 46.7188C144.521 48.108 143.669 49.0625 142.083 50.5881L135.87 56.3409V59Z" fill="white"/>
<path d="M58.6094 84H60.0185V79.75H62.564C65.2742 79.75 66.4958 78.1023 66.4958 76.0455C66.4958 73.9886 65.2742 72.3636 62.5412 72.3636H58.6094V84ZM60.0185 78.5V73.6136H62.4958C64.3878 73.6136 65.1094 74.6477 65.1094 76.0455C65.1094 77.4432 64.3878 78.5 62.5185 78.5H60.0185Z" fill="#F2F2F2"/>
<path d="M68.7438 84H70.0847V78.4773C70.0847 77.2955 71.0166 76.4318 72.2893 76.4318C72.6472 76.4318 73.0166 76.5 73.1075 76.5227V75.1591C72.9541 75.1477 72.6018 75.1364 72.4029 75.1364C71.3575 75.1364 70.4484 75.7273 70.1302 76.5909H70.0393V75.2727H68.7438V84Z" fill="#F2F2F2"/>
<path d="M74.857 84H76.1979V75.2727H74.857V84ZM75.5388 73.8182C76.0615 73.8182 76.4933 73.4091 76.4933 72.9091C76.4933 72.4091 76.0615 72 75.5388 72C75.0161 72 74.5842 72.4091 74.5842 72.9091C74.5842 73.4091 75.0161 73.8182 75.5388 73.8182Z" fill="#F2F2F2"/>
<path d="M82.3593 84.1818C84.2911 84.1818 85.5638 83 85.7911 81.4545H84.4502C84.2002 82.4091 83.4047 82.9773 82.3593 82.9773C80.7684 82.9773 79.7457 81.6591 79.7457 79.6364C79.7457 77.6591 80.7911 76.3636 82.3593 76.3636C83.5411 76.3636 84.2457 77.0909 84.4502 77.8864H85.7911C85.5638 76.25 84.1775 75.1591 82.3366 75.1591C79.9729 75.1591 78.4047 77.0227 78.4047 79.6818C78.4047 82.2955 79.9047 84.1818 82.3593 84.1818Z" fill="#F2F2F2"/>
<path d="M91.5704 84.1818C93.3432 84.1818 94.6386 83.2955 95.0477 81.9773L93.7522 81.6136C93.4113 82.5227 92.6216 82.9773 91.5704 82.9773C89.9966 82.9773 88.9113 81.9602 88.8488 80.0909H95.1841V79.5227C95.1841 76.2727 93.2522 75.1591 91.4341 75.1591C89.0704 75.1591 87.5022 77.0227 87.5022 79.7045C87.5022 82.3864 89.0477 84.1818 91.5704 84.1818ZM88.8488 78.9318C88.9397 77.5739 89.9 76.3636 91.4341 76.3636C92.8886 76.3636 93.8204 77.4545 93.8204 78.9318H88.8488Z" fill="#F2F2F2"/>
<path d="M102.044 84H103.385V75.2727H102.044V84ZM102.726 73.8182C103.248 73.8182 103.68 73.4091 103.68 72.9091C103.68 72.4091 103.248 72 102.726 72C102.203 72 101.771 72.4091 101.771 72.9091C101.771 73.4091 102.203 73.8182 102.726 73.8182Z" fill="#F2F2F2"/>
<path d="M107.342 78.75C107.342 77.2273 108.285 76.3636 109.569 76.3636C110.813 76.3636 111.569 77.1761 111.569 78.5455V84H112.91V78.4545C112.91 76.2273 111.722 75.1591 109.955 75.1591C108.637 75.1591 107.819 75.75 107.41 76.6364H107.296V75.2727H106.001V84H107.342V78.75Z" fill="#F2F2F2"/>
<path d="M123.476 84.1818C125.157 84.1818 125.726 83.1364 126.021 82.6591H126.18V84H127.476V72.3636H126.135V76.6591H126.021C125.726 76.2045 125.203 75.1591 123.498 75.1591C121.294 75.1591 119.771 76.9091 119.771 79.6591C119.771 82.4318 121.294 84.1818 123.476 84.1818ZM123.657 82.9773C121.976 82.9773 121.112 81.5 121.112 79.6364C121.112 77.7955 121.953 76.3636 123.657 76.3636C125.294 76.3636 126.157 77.6818 126.157 79.6364C126.157 81.6136 125.271 82.9773 123.657 82.9773Z" fill="#F2F2F2"/>
<path d="M133.823 84.1818C136.187 84.1818 137.778 82.3864 137.778 79.6818C137.778 76.9545 136.187 75.1591 133.823 75.1591C131.459 75.1591 129.868 76.9545 129.868 79.6818C129.868 82.3864 131.459 84.1818 133.823 84.1818ZM133.823 82.9773C132.028 82.9773 131.209 81.4318 131.209 79.6818C131.209 77.9318 132.028 76.3636 133.823 76.3636C135.618 76.3636 136.437 77.9318 136.437 79.6818C136.437 81.4318 135.618 82.9773 133.823 82.9773Z" fill="#F2F2F2"/>
<path d="M141.325 72.3636H139.984V84H141.325V72.3636Z" fill="#F2F2F2"/>
<path d="M145.282 72.3636H143.941V84H145.282V72.3636Z" fill="#F2F2F2"/>
<path d="M150.466 84.2045C151.989 84.2045 152.785 83.3864 153.057 82.8182H153.125V84H154.466V78.25C154.466 75.4773 152.353 75.1591 151.239 75.1591C149.921 75.1591 148.421 75.6136 147.739 77.2045L149.012 77.6591C149.307 77.0227 150.006 76.3409 151.285 76.3409C152.518 76.3409 153.125 76.9943 153.125 78.1136V78.1591C153.125 78.8068 152.466 78.75 150.875 78.9545C149.256 79.1648 147.489 79.5227 147.489 81.5227C147.489 83.2273 148.807 84.2045 150.466 84.2045ZM150.671 83C149.603 83 148.83 82.5227 148.83 81.5909C148.83 80.5682 149.762 80.25 150.807 80.1136C151.375 80.0455 152.898 79.8864 153.125 79.6136V80.8409C153.125 81.9318 152.262 83 150.671 83Z" fill="#F2F2F2"/>
<path d="M157.074 84H158.415V78.4773C158.415 77.2955 159.347 76.4318 160.619 76.4318C160.977 76.4318 161.347 76.5 161.437 76.5227V75.1591C161.284 75.1477 160.932 75.1364 160.733 75.1364C159.687 75.1364 158.778 75.7273 158.46 76.5909H158.369V75.2727H157.074V84Z" fill="#F2F2F2"/>
</g>
<defs>
<filter id="filter0_d_1_436" x="0" y="0" width="249" height="164" filterUnits="userSpaceOnUse" color-interpolation-filters="sRGB">
<feFlood flood-opacity="0" result="BackgroundImageFix"/>
<feColorMatrix in="SourceAlpha" type="matrix" values="0 0 0 0 0 0 0 0 0 0 0 0 0 0 0 0 0 0 127 0" result="hardAlpha"/>
<feOffset dx="15" dy="20"/>
<feGaussianBlur stdDeviation="20"/>
<feColorMatrix type="matrix" values="0 0 0 0 0.454902 0 0 0 0 0.458824 0 0 0 0 0.854902 0 0 0 0.15 0"/>
<feBlend mode="normal" in2="BackgroundImageFix" result="effect1_dropShadow_1_436"/>
<feBlend mode="normal" in="SourceGraphic" in2="effect1_dropShadow_1_436" result="shape"/>
</filter>
</defs>
</svg>
