<svg width="31" height="39" viewBox="0 0 31 39" fill="none" xmlns="http://www.w3.org/2000/svg">
<path d="M14.2218 37.9768C14.5462 38.2085 14.9349 38.333 15.3335 38.333C15.7321 38.333 16.1208 38.2085 16.4452 37.9768C17.0278 37.5647 30.7224 27.6767 30.6668 15.3333C30.6668 6.87892 23.7879 0 15.3335 0C6.87909 0 0.000168739 6.87892 0.000168739 15.3238C-0.0554146 27.6767 13.6392 37.5647 14.2218 37.9768ZM15.3335 3.83333C21.6758 3.83333 26.8335 8.99108 26.8335 15.3429C26.8738 23.8491 18.4232 31.487 15.3335 33.9921C12.2458 31.4851 3.79325 23.8453 3.8335 15.3333C3.8335 8.99108 8.99125 3.83333 15.3335 3.83333Z" fill="white"/>
<path d="M14.9987 23.1366C19.2269 23.1366 22.6654 19.6981 22.6654 15.4699C22.6654 11.2417 19.2269 7.80322 14.9987 7.80322C10.7705 7.80322 7.33203 11.2417 7.33203 15.4699C7.33203 19.6981 10.7705 23.1366 14.9987 23.1366ZM14.9987 11.6366C17.1128 11.6366 18.832 13.3558 18.832 15.4699C18.832 17.584 17.1128 19.3032 14.9987 19.3032C12.8846 19.3032 11.1654 17.584 11.1654 15.4699C11.1654 13.3558 12.8846 11.6366 14.9987 11.6366Z" fill="white"/>
</svg>
