<svg width="1440" height="933" viewBox="0 0 1440 933" fill="none" xmlns="http://www.w3.org/2000/svg">
<path opacity="0.8" d="M-226.391 698.018C-238.131 503.43 -203.488 347.678 -68.4327 515.094M-68.4327 515.094C-44.8118 544.375 -18.1193 583.541 11.9339 634.114C179.09 915.404 239.367 861.576 252.568 717.832M-68.4327 515.094C-72.8126 555.858 -72.9511 604.593 -69.8471 656.043M-68.4327 515.094C-56.2476 401.684 -11.2348 349.968 88.1111 473.119M252.568 717.832C256.563 674.326 256.246 622.583 253.275 569.402M252.568 717.832C228.12 686.904 200.227 645.566 168.478 592.139C138.425 541.566 111.732 502.399 88.1111 473.119M252.568 717.832C356.833 849.737 398.418 792.298 409.112 675.857M88.1111 473.119C83.7312 513.883 83.5927 562.618 86.6967 614.068M88.1111 473.119C100.296 359.709 145.309 307.993 244.655 431.143M409.112 675.857C413.107 632.351 412.79 580.608 409.819 527.426M409.112 675.857C384.664 644.929 356.771 603.591 325.021 550.164C294.968 499.591 268.276 460.424 244.655 431.143M409.112 675.857C513.377 807.761 554.962 750.323 565.655 633.882M244.655 431.143C240.275 471.908 240.136 520.642 243.241 572.092M244.655 431.143C256.84 317.734 301.853 266.018 401.199 389.168M565.655 633.882C569.651 590.375 569.334 538.632 566.363 485.451M565.655 633.882C541.208 602.953 513.315 561.616 481.565 508.188C451.512 457.615 424.82 418.449 401.199 389.168M565.655 633.882C669.921 765.786 711.505 708.347 722.199 591.906M401.199 389.168C396.819 429.932 396.68 478.667 399.784 530.117M401.199 389.168C413.384 275.758 458.397 224.042 557.742 347.193M722.199 591.906C726.195 548.4 725.878 496.657 722.907 443.476M722.199 591.906C697.752 560.978 669.858 519.641 638.109 466.213C608.056 415.64 581.363 376.474 557.742 347.193M722.199 591.906C826.465 723.811 868.049 666.372 878.743 549.931M557.742 347.193C553.363 387.957 553.224 436.692 556.328 488.142M557.742 347.193C569.928 233.783 614.94 182.067 714.286 305.217M878.743 549.931C882.739 506.425 882.422 454.682 879.451 401.5M878.743 549.931C854.296 519.003 826.402 477.665 794.653 424.238C764.6 373.665 737.907 334.498 714.286 305.217M878.743 549.931C983.008 681.835 1024.59 624.397 1035.29 507.956M714.286 305.217C709.906 345.982 709.768 394.716 712.872 446.166M714.286 305.217C726.471 191.808 771.484 140.092 870.83 263.242M1035.29 507.956C1039.28 464.449 1038.97 412.706 1035.99 359.525M1035.29 507.956C1010.84 477.028 982.946 435.69 951.197 382.262C921.144 331.689 894.451 292.523 870.83 263.242M1035.29 507.956C1139.55 639.86 1181.14 582.421 1191.83 465.98M870.83 263.242C866.45 304.006 866.312 352.741 869.416 404.191M870.83 263.242C883.015 149.833 928.028 98.1163 1027.37 221.267M1191.83 465.98C1195.83 422.474 1195.51 370.731 1192.54 317.55M1191.83 465.98C1167.38 435.052 1139.49 393.715 1107.74 340.287C1077.69 289.714 1050.99 250.548 1027.37 221.267M1191.83 465.98C1296.1 597.885 1337.68 540.446 1348.37 424.005M1027.37 221.267C1022.99 262.031 1022.86 310.766 1025.96 362.216M1027.37 221.267C1039.56 107.857 1084.57 56.141 1183.92 179.291M1348.37 424.005C1352.37 380.499 1352.05 328.756 1349.08 275.574M1348.37 424.005C1323.93 393.077 1296.03 351.739 1264.28 298.312C1234.23 247.739 1207.54 208.572 1183.92 179.291M1348.37 424.005C1452.64 555.909 1494.22 498.471 1504.92 382.03M1183.92 179.291C1179.54 220.056 1179.4 268.791 1182.5 320.24M1183.92 179.291C1199 38.917 1264.38 -6.93932 1420.83 256.336C1452.58 309.764 1480.47 351.102 1504.92 382.03M1504.92 382.03C1508.91 338.523 1508.6 286.78 1505.63 233.599M1504.92 382.03C1648.14 563.218 1673.09 387.141 1662.17 191.624" stroke="black"/>
<g filter="url(#filter0_f_1317_1062)">
<ellipse cx="167.695" cy="440.232" rx="27.9875" ry="28.0197" fill="url(#paint0_radial_1317_1062)"/>
</g>
<g filter="url(#filter1_f_1317_1062)">
<ellipse cx="350.613" cy="729.435" rx="12.9942" ry="13.0092" fill="url(#paint1_radial_1317_1062)"/>
</g>
<g filter="url(#filter2_f_1317_1062)">
<ellipse cx="787.416" cy="257.103" rx="12.9942" ry="13.0092" fill="url(#paint2_radial_1317_1062)"/>
</g>
<g filter="url(#filter3_f_1317_1062)">
<ellipse cx="1118.27" cy="535.298" rx="7.99682" ry="8.00563" fill="url(#paint3_radial_1317_1062)"/>
</g>
<g filter="url(#filter4_f_1317_1062)">
<ellipse cx="1258.2" cy="168.04" rx="12.9942" ry="13.0092" fill="url(#paint4_radial_1317_1062)"/>
</g>
<g opacity="0.9">
<g opacity="0.7" filter="url(#filter5_f_1317_1062)">
<ellipse rx="12.4659" ry="12.4794" transform="matrix(0.965926 0.258819 -0.258261 0.966075 1108.68 772.935)" fill="url(#paint5_radial_1317_1062)"/>
</g>
<g opacity="0.7" filter="url(#filter6_f_1317_1062)">
<ellipse rx="24.9747" ry="25.0017" transform="matrix(0.965926 0.258819 -0.258261 0.966075 1246.65 584.066)" fill="url(#paint6_radial_1317_1062)"/>
</g>
<path d="M1313.68 517.733C1340.38 552.263 1354.14 584.548 1309.57 568.025M1309.57 568.025C1301.78 565.135 1292.2 560.753 1280.6 554.628C1216.05 520.56 1212.46 536.815 1228.4 564.631M1309.57 568.025C1305.16 560.07 1299.01 551.097 1291.95 541.967M1309.57 568.025C1321.84 590.158 1320.62 604.414 1287.84 592.26M1228.4 564.631C1233.22 573.049 1239.83 582.527 1247.09 591.989M1228.4 564.631C1236.54 567.736 1246.6 572.391 1258.86 578.862C1270.47 584.987 1280.04 589.37 1287.84 592.26M1228.4 564.631C1193.65 551.386 1193.75 566.333 1206.66 588.865M1287.84 592.26C1283.43 584.304 1277.27 575.331 1270.22 566.201M1287.84 592.26C1300.11 614.392 1298.89 628.648 1266.11 616.494M1206.66 588.865C1211.49 597.284 1218.1 606.762 1225.36 616.224M1206.66 588.865C1214.81 591.97 1224.87 596.626 1237.13 603.096C1248.73 609.221 1258.31 613.604 1266.11 616.494M1206.66 588.865C1171.92 575.621 1172.02 590.567 1184.93 613.099M1266.11 616.494C1261.69 608.539 1255.54 599.566 1248.48 590.436M1266.11 616.494C1278.38 638.627 1277.15 652.883 1244.37 640.728M1184.93 613.099C1189.75 621.518 1196.37 630.996 1203.62 640.458M1184.93 613.099C1193.07 616.205 1203.14 620.86 1215.4 627.331C1227 633.456 1236.58 637.839 1244.37 640.728M1184.93 613.099C1150.19 599.855 1150.28 614.801 1163.2 637.334M1244.37 640.728C1239.96 632.773 1233.81 623.8 1226.75 614.67M1244.37 640.728C1256.64 662.861 1255.42 677.117 1222.64 664.963M1163.2 637.334C1168.02 645.753 1174.63 655.23 1181.89 664.693M1163.2 637.334C1171.34 640.439 1181.4 645.094 1193.66 651.565C1205.27 657.69 1214.84 662.073 1222.64 664.963M1163.2 637.334C1128.45 624.089 1128.55 639.036 1141.46 661.568M1222.64 664.963C1218.23 657.007 1212.07 648.035 1205.02 638.905M1222.64 664.963C1234.91 687.095 1233.69 701.351 1200.91 689.197M1141.46 661.568C1146.29 669.987 1152.9 679.465 1160.16 688.927M1141.46 661.568C1149.61 664.674 1159.67 669.329 1171.93 675.799C1183.53 681.925 1193.11 686.307 1200.91 689.197M1141.46 661.568C1106.72 648.324 1106.82 663.27 1119.73 685.802M1200.91 689.197C1196.49 681.242 1190.34 672.269 1183.28 663.139M1200.91 689.197C1213.18 711.33 1211.95 725.586 1179.17 713.432M1119.73 685.802C1124.55 694.221 1131.17 703.699 1138.42 713.161M1119.73 685.802C1127.87 688.908 1137.94 693.563 1150.2 700.034C1161.8 706.159 1171.38 710.542 1179.17 713.432M1119.73 685.802C1084.99 672.558 1085.08 687.505 1098 710.037M1179.17 713.432C1174.76 705.476 1168.61 696.503 1161.55 687.373M1179.17 713.432C1191.44 735.564 1190.22 749.82 1157.44 737.666M1098 710.037C1102.82 718.456 1109.43 727.934 1116.69 737.396M1098 710.037C1106.14 713.142 1116.2 717.798 1128.46 724.268C1140.07 730.393 1149.64 734.776 1157.44 737.666M1098 710.037C1063.25 696.793 1063.35 711.739 1076.26 734.271M1157.44 737.666C1153.03 729.711 1146.87 720.738 1139.82 711.608M1157.44 737.666C1169.71 759.799 1168.49 774.055 1135.71 761.9M1076.26 734.271C1081.09 742.69 1087.7 752.168 1094.96 761.63M1076.26 734.271C1084.41 737.377 1094.47 742.032 1106.73 748.503C1118.33 754.628 1127.91 759.011 1135.71 761.9M1076.26 734.271C1041.52 721.027 1041.62 735.973 1054.53 758.506M1135.71 761.9C1131.29 753.945 1125.14 744.972 1118.08 735.842M1135.71 761.9C1150.89 789.295 1145.41 804.623 1084.99 772.737C1072.74 766.266 1062.67 761.611 1054.53 758.506M1054.53 758.506C1059.35 766.925 1065.97 776.402 1073.22 785.865M1054.53 758.506C1006.81 740.313 1024.82 775.312 1051.49 810.099" stroke="url(#paint7_linear_1317_1062)"/>
<path d="M1303.93 528.607C1330.63 563.137 1344.38 595.423 1299.82 578.9M1299.82 578.9C1292.03 576.01 1282.45 571.627 1270.84 565.502C1206.3 531.435 1202.7 547.69 1218.64 575.505M1299.82 578.9C1295.41 570.945 1289.25 561.972 1282.2 552.842M1299.82 578.9C1312.09 601.032 1310.87 615.288 1278.09 603.134M1218.64 575.505C1223.47 583.924 1230.08 593.402 1237.34 602.864M1218.64 575.505C1226.79 578.611 1236.85 583.266 1249.11 589.737C1260.71 595.862 1270.29 600.244 1278.09 603.134M1218.64 575.505C1183.9 562.261 1184 577.207 1196.91 599.74M1278.09 603.134C1273.68 595.179 1267.52 586.206 1260.46 577.076M1278.09 603.134C1290.36 625.267 1289.13 639.523 1256.35 627.369M1196.91 599.74C1201.73 608.158 1208.35 617.636 1215.6 627.098M1196.91 599.74C1205.05 602.845 1215.12 607.5 1227.38 613.971C1238.98 620.096 1248.56 624.479 1256.35 627.369M1196.91 599.74C1162.17 586.495 1162.26 601.442 1175.18 623.974M1256.35 627.369C1251.94 619.413 1245.79 610.44 1238.73 601.31M1256.35 627.369C1268.62 649.501 1267.4 663.757 1234.62 651.603M1175.18 623.974C1180 632.393 1186.61 641.871 1193.87 651.333M1175.18 623.974C1183.32 627.079 1193.38 631.735 1205.64 638.205C1217.25 644.33 1226.83 648.713 1234.62 651.603M1175.18 623.974C1140.44 610.73 1140.53 625.676 1153.44 648.208M1234.62 651.603C1230.21 643.648 1224.05 634.675 1217 625.545M1234.62 651.603C1246.89 673.736 1245.67 687.992 1212.89 675.837M1153.44 648.208C1158.27 656.627 1164.88 666.105 1172.14 675.567M1153.44 648.208C1161.59 651.314 1171.65 655.969 1183.91 662.44C1195.51 668.565 1205.09 672.948 1212.89 675.837M1153.44 648.208C1118.7 634.964 1118.8 649.91 1131.71 672.443M1212.89 675.837C1208.48 667.882 1202.32 658.909 1195.26 649.779M1212.89 675.837C1225.16 697.97 1223.93 712.226 1191.15 700.072M1131.71 672.443C1136.53 680.862 1143.15 690.339 1150.4 699.802M1131.71 672.443C1139.85 675.548 1149.92 680.203 1162.18 686.674C1173.78 692.799 1183.36 697.182 1191.15 700.072M1131.71 672.443C1096.97 659.198 1097.06 674.145 1109.98 696.677M1191.15 700.072C1186.74 692.117 1180.59 683.144 1173.53 674.014M1191.15 700.072C1203.42 722.204 1202.2 736.46 1169.42 724.306M1109.98 696.677C1114.8 705.096 1121.41 714.574 1128.67 724.036M1109.98 696.677C1118.12 699.783 1128.18 704.438 1140.44 710.909C1152.05 717.034 1161.63 721.416 1169.42 724.306M1109.98 696.677C1075.24 683.433 1075.33 698.379 1088.24 720.912M1169.42 724.306C1165.01 716.351 1158.85 707.378 1151.8 698.248M1169.42 724.306C1181.69 746.439 1180.47 760.695 1147.69 748.541M1088.24 720.912C1093.07 729.33 1099.68 738.808 1106.94 748.27M1088.24 720.912C1096.39 724.017 1106.45 728.672 1118.71 735.143C1130.31 741.268 1139.89 745.651 1147.69 748.541M1088.24 720.912C1053.5 707.667 1053.6 722.614 1066.51 745.146M1147.69 748.541C1143.28 740.585 1137.12 731.612 1130.06 722.482M1147.69 748.541C1159.96 770.673 1158.73 784.929 1125.95 772.775M1066.51 745.146C1071.33 753.565 1077.95 763.043 1085.2 772.505M1066.51 745.146C1074.65 748.251 1084.72 752.907 1096.98 759.377C1108.58 765.502 1118.16 769.885 1125.95 772.775M1066.51 745.146C1031.77 731.902 1031.86 746.848 1044.78 769.38M1125.95 772.775C1121.54 764.82 1115.39 755.847 1108.33 746.717M1125.95 772.775C1141.14 800.17 1135.66 815.498 1075.24 783.612C1062.98 777.141 1052.92 772.486 1044.78 769.38M1044.78 769.38C1049.6 777.799 1056.21 787.277 1063.47 796.739M1044.78 769.38C997.055 751.188 1015.06 786.187 1041.74 820.974" stroke="url(#paint8_linear_1317_1062)"/>
</g>
<defs>
<filter id="filter0_f_1317_1062" x="29.707" y="302.212" width="275.975" height="276.039" filterUnits="userSpaceOnUse" color-interpolation-filters="sRGB">
<feFlood flood-opacity="0" result="BackgroundImageFix"/>
<feBlend mode="normal" in="SourceGraphic" in2="BackgroundImageFix" result="shape"/>
<feGaussianBlur stdDeviation="55" result="effect1_foregroundBlur_1317_1062"/>
</filter>
<filter id="filter1_f_1317_1062" x="301.619" y="680.426" width="97.9883" height="98.0183" filterUnits="userSpaceOnUse" color-interpolation-filters="sRGB">
<feFlood flood-opacity="0" result="BackgroundImageFix"/>
<feBlend mode="normal" in="SourceGraphic" in2="BackgroundImageFix" result="shape"/>
<feGaussianBlur stdDeviation="18" result="effect1_foregroundBlur_1317_1062"/>
</filter>
<filter id="filter2_f_1317_1062" x="738.422" y="208.094" width="97.9883" height="98.0183" filterUnits="userSpaceOnUse" color-interpolation-filters="sRGB">
<feFlood flood-opacity="0" result="BackgroundImageFix"/>
<feBlend mode="normal" in="SourceGraphic" in2="BackgroundImageFix" result="shape"/>
<feGaussianBlur stdDeviation="18" result="effect1_foregroundBlur_1317_1062"/>
</filter>
<filter id="filter3_f_1317_1062" x="1074.27" y="491.293" width="87.9932" height="88.0113" filterUnits="userSpaceOnUse" color-interpolation-filters="sRGB">
<feFlood flood-opacity="0" result="BackgroundImageFix"/>
<feBlend mode="normal" in="SourceGraphic" in2="BackgroundImageFix" result="shape"/>
<feGaussianBlur stdDeviation="18" result="effect1_foregroundBlur_1317_1062"/>
</filter>
<filter id="filter4_f_1317_1062" x="1209.21" y="119.031" width="97.9883" height="98.0183" filterUnits="userSpaceOnUse" color-interpolation-filters="sRGB">
<feFlood flood-opacity="0" result="BackgroundImageFix"/>
<feBlend mode="normal" in="SourceGraphic" in2="BackgroundImageFix" result="shape"/>
<feGaussianBlur stdDeviation="18" result="effect1_foregroundBlur_1317_1062"/>
</filter>
<filter id="filter5_f_1317_1062" x="1084.22" y="748.452" width="48.9355" height="48.9667" filterUnits="userSpaceOnUse" color-interpolation-filters="sRGB">
<feFlood flood-opacity="0" result="BackgroundImageFix"/>
<feBlend mode="normal" in="SourceGraphic" in2="BackgroundImageFix" result="shape"/>
<feGaussianBlur stdDeviation="6" result="effect1_foregroundBlur_1317_1062"/>
</filter>
<filter id="filter6_f_1317_1062" x="1198.67" y="536.057" width="95.958" height="96.0193" filterUnits="userSpaceOnUse" color-interpolation-filters="sRGB">
<feFlood flood-opacity="0" result="BackgroundImageFix"/>
<feBlend mode="normal" in="SourceGraphic" in2="BackgroundImageFix" result="shape"/>
<feGaussianBlur stdDeviation="11.5" result="effect1_foregroundBlur_1317_1062"/>
</filter>
<radialGradient id="paint0_radial_1317_1062" cx="0" cy="0" r="1" gradientUnits="userSpaceOnUse" gradientTransform="translate(167.695 440.232) rotate(90) scale(28.0197 27.9875)">
<stop offset="0.352542" stop-color="#5CE4CF"/>
<stop offset="1" stop-color="#99A9FF"/>
</radialGradient>
<radialGradient id="paint1_radial_1317_1062" cx="0" cy="0" r="1" gradientUnits="userSpaceOnUse" gradientTransform="translate(350.613 729.435) rotate(90) scale(13.0092 12.9942)">
<stop offset="0.352542" stop-color="#5CE4CF"/>
<stop offset="1" stop-color="#99A9FF"/>
</radialGradient>
<radialGradient id="paint2_radial_1317_1062" cx="0" cy="0" r="1" gradientUnits="userSpaceOnUse" gradientTransform="translate(787.416 257.103) rotate(90) scale(13.0092 12.9942)">
<stop offset="0.352542" stop-color="#5CE4CF"/>
<stop offset="1" stop-color="#99A9FF"/>
</radialGradient>
<radialGradient id="paint3_radial_1317_1062" cx="0" cy="0" r="1" gradientUnits="userSpaceOnUse" gradientTransform="translate(1118.27 535.298) rotate(90) scale(8.00563 7.99682)">
<stop offset="0.352542" stop-color="#5CE4CF"/>
<stop offset="1" stop-color="#99A9FF"/>
</radialGradient>
<radialGradient id="paint4_radial_1317_1062" cx="0" cy="0" r="1" gradientUnits="userSpaceOnUse" gradientTransform="translate(1258.2 168.04) rotate(90) scale(13.0092 12.9942)">
<stop offset="0.352542" stop-color="#5CE4CF"/>
<stop offset="1" stop-color="#99A9FF"/>
</radialGradient>
<radialGradient id="paint5_radial_1317_1062" cx="0" cy="0" r="1" gradientUnits="userSpaceOnUse" gradientTransform="translate(12.4659 12.4794) rotate(90) scale(14.8793 14.8632)">
<stop offset="0.419792" stop-color="#5CE4CF"/>
<stop offset="1" stop-color="#99A9FF"/>
</radialGradient>
<radialGradient id="paint6_radial_1317_1062" cx="0" cy="0" r="1" gradientUnits="userSpaceOnUse" gradientTransform="translate(24.9747 25.0017) rotate(90) scale(29.8097 29.7775)">
<stop offset="0.419792" stop-color="#5CE4CF"/>
<stop offset="1" stop-color="#99A9FF"/>
</radialGradient>
<linearGradient id="paint7_linear_1317_1062" x1="1107.66" y1="681.77" x2="1289.6" y2="606.922" gradientUnits="userSpaceOnUse">
<stop stop-color="#99A9FF"/>
<stop offset="1" stop-color="#5CE5CF"/>
</linearGradient>
<linearGradient id="paint8_linear_1317_1062" x1="1211.36" y1="709.422" x2="1132.14" y2="638.383" gradientUnits="userSpaceOnUse">
<stop offset="0.14407" stop-color="#99A9FF"/>
<stop offset="0.726512" stop-color="#66FFE5" stop-opacity="0.35"/>
</linearGradient>
</defs>
</svg>
