<?xml version="1.0" standalone="no"?>
<!DOCTYPE svg PUBLIC "-//W3C//DTD SVG 1.1//EN" "http://www.w3.org/Graphics/SVG/1.1/DTD/svg11.dtd" >
<svg xmlns="http://www.w3.org/2000/svg" xmlns:xlink="http://www.w3.org/1999/xlink" version="1.1">
<metadata>
Created by FontForge 20170731 at Fri Nov 23 14:17:47 2018
 By Aleksey,,,
Copyright (c) 2018 by TypeUnion. All rights reserved. Desktop use is strictly prohibited.
</metadata>
<defs>
<font id="Neometric-Black" horiz-adv-x="1378" >
  <font-face 
    font-family="Neometric Black"
    font-weight="800"
    font-stretch="normal"
    units-per-em="2048"
    panose-1="0 0 9 0 0 0 0 0 0 0"
    ascent="1638"
    descent="-410"
    x-height="1126"
    cap-height="1434"
    bbox="-999 -591 2951 2161"
    underline-thickness="0"
    underline-position="0"
    unicode-range="U+0020-25CA"
  />
<missing-glyph horiz-adv-x="1024" 
d="M190 1638h650v-2048h-650v2048zM682 1434v67h-338v-67h133v-76h-135v-68h340v68h-135v76h135zM547 1094v143h-205v-213h340v70h-135zM410 1167h67v-73h-67v73zM682 901v68h-340v-68h135v-76h-135v-67h205v143h135zM682 641v205h-68v-135h-272v-70h340zM682 365v231h-205
v-115h70v47h67v-96h-204v164h-68v-231h340zM682 10v232h-340v-232h340zM410 174h204v-96h-204v96zM682 -104v67h-340v-67h143l-143 -97v-67h340v67h-209l143 97h66z" />
    <glyph glyph-name="f_f.liga" unicode="ff" horiz-adv-x="1863" 
d="M1603 1275q-72 -19 -72 -117v-32h252v-298h-252v-828h-383v828h-548v-828h-383v828h-136v298h136v32q0 214 96 311q94 97 316 97q98 0 223 -17v-271q-118 22 -180 -3q-72 -19 -72 -117v-32h548v32q0 213 95 311q94 97 317 97q98 0 223 -17v-271q-120 22 -180 -3z" />
    <glyph glyph-name="f_f_i.liga" unicode="ffi" horiz-adv-x="2433" 
d="M2162 1241q-92 0 -157 66q-66 65 -66 156t66 155q65 65 157 65q90 0 155 -65t65 -155q0 -91 -65 -156q-65 -66 -155 -66zM1531 1126h821v-1126h-384v828h-437v-828h-383v828h-548v-828h-383v828h-136v298h136v32q0 214 96 311q94 97 316 97q98 0 223 -17v-271
q-118 22 -180 -3q-72 -19 -72 -117v-32h548v32q0 213 95 311q94 97 317 97q98 0 223 -17v-271q-120 22 -180 -3q-72 -19 -72 -117v-32z" />
    <glyph glyph-name="f_i.liga" unicode="fi" horiz-adv-x="1502" 
d="M1231 1241q-93 0 -157 66q-65 65 -65 156q0 90 65 155t157 65q90 0 155 -65t65 -155q0 -91 -65 -156q-64 -66 -155 -66zM600 1126h821v-1126h-384v828h-437v-828h-383v828h-136v298h136v32q0 214 96 311q94 97 316 97q98 0 223 -17v-271q-118 22 -180 -3
q-72 -19 -72 -117v-32z" />
    <glyph glyph-name=".notdef" horiz-adv-x="1024" 
d="M190 1638h650v-2048h-650v2048zM682 1434v67h-338v-67h133v-76h-135v-68h340v68h-135v76h135zM547 1094v143h-205v-213h340v70h-135zM410 1167h67v-73h-67v73zM682 901v68h-340v-68h135v-76h-135v-67h205v143h135zM682 641v205h-68v-135h-272v-70h340zM682 365v231h-205
v-115h70v47h67v-96h-204v164h-68v-231h340zM682 10v232h-340v-232h340zM410 174h204v-96h-204v96zM682 -104v67h-340v-67h143l-143 -97v-67h340v67h-209l143 97h66z" />
    <glyph glyph-name="glyph1" horiz-adv-x="0" 
 />
    <glyph glyph-name="glyph2" horiz-adv-x="681" 
 />
    <glyph glyph-name="space" unicode=" " horiz-adv-x="512" 
 />
    <glyph glyph-name="exclam" unicode="!" horiz-adv-x="604" 
d="M468 540h-332l-25 894h383zM303 425q90 0 155 -65q65 -67 65 -157t-65 -155t-155 -65q-91 0 -156 65q-66 64 -66 155t66 157q65 65 156 65z" />
    <glyph glyph-name="quotedbl" unicode="&#x22;" horiz-adv-x="1072" 
d="M463 896h-332l-27 538h384zM941 896h-332l-25 538h384z" />
    <glyph glyph-name="numbersign" unicode="#" horiz-adv-x="1976" 
d="M1872 1143l-87 -318h-234l-55 -217h245l-88 -317h-239l-75 -291h-404l75 291h-278l-75 -291h-404l75 291h-224l89 317h217l55 217h-229l88 318h223l75 291h404l-75 -291h278l75 291h404l-75 -291h239zM814 608h278l55 217h-278z" />
    <glyph glyph-name="dollar" unicode="$" horiz-adv-x="1318" 
d="M664 906q37 -11 153 -47q45 -14 129 -46q114 -46 196 -112q59 -49 85 -111.5t28 -153.5q-1 -185 -114 -298.5t-320 -144.5v-136h-322v137q-203 33 -316 146.5t-120 297.5l410 28q7 -76 57 -116t132 -40q83 0 131 30.5t49 86.5q-4 74 -120 125q-52 22 -154 54
q-74 22 -101 31q-56 19 -87 31q-48 17 -79 33q-87 43 -119 78q-54 56 -71 108q-24 74 -24 156q0 169 111 270t301 129v135h322v-140q178 -34 280 -139.5t109 -270.5l-409 -28q-19 137 -153 139q-73 0 -112 -29.5t-39 -81.5q0 -50 56 -78q41 -22 111 -43z" />
    <glyph glyph-name="percent" unicode="%" horiz-adv-x="2059" 
d="M498 633q-120 0 -217 47t-157 139q-61 92 -61 218t61 220q61 93 159 140q96 46 215 46q120 0 217 -47t157 -139q61 -94 61 -220q0 -185 -126 -295q-127 -109 -309 -109zM683 69l507 1365l186 -69l-507 -1365zM392 922q42 -43 106 -43q62 0 106 44q43 43 43 114
q0 72 -42.5 116.5t-106.5 44.5q-65 0 -107 -44.5t-42 -116.5t43 -115zM1561 -9q-87 0 -165.5 27t-138.5 77t-95.5 127.5t-35.5 172.5q0 126 61 220q61 93 159 140q96 46 215 46q120 0 217 -47t157 -139q61 -94 61 -220q0 -95 -35 -172.5t-95.5 -127.5t-138.5 -77t-166 -27z
M1455 280q42 -43 106 -43q62 0 106 44q43 43 43 114q0 72 -42 116t-107 44q-64 0 -106.5 -44t-42.5 -116t43 -115z" />
    <glyph glyph-name="ampersand" unicode="&#x26;" horiz-adv-x="1634" 
d="M1346 233l224 -233h-411l-58 60q-185 -80 -420 -78q-542 0 -603 322q-38 156 32 301q33 67 106.5 120.5t176.5 82.5q-69 92 -93.5 172.5t-13.5 168.5q18 145 142 224.5t339 79.5q197 0 316 -80q118 -81 140 -216q30 -168 -54 -285.5t-278 -168.5l226 -233q41 84 41 194
l327 -37q0 -233 -139 -394zM767 1217q-59 0 -96 -31.5t-37 -84.5q0 -87 89 -209q185 102 174 209q-4 54 -39 85t-91 31zM752 265q62 6 128 23l-295 304q-72 -35 -101 -88t-14 -112q18 -70 101 -102q85 -32 181 -25z" />
    <glyph glyph-name="quotesingle" unicode="'" horiz-adv-x="592" 
d="M463 896h-332l-27 538h384z" />
    <glyph glyph-name="parenleft" unicode="(" horiz-adv-x="773" 
d="M258 1556h410q-308 -993 0 -1986h-410q-308 993 0 1986z" />
    <glyph glyph-name="parenright" unicode=")" horiz-adv-x="773" 
d="M104 1556h410q308 -993 0 -1986h-410q308 993 0 1986z" />
    <glyph glyph-name="asterisk" unicode="*" horiz-adv-x="919" 
d="M642 1237h173v-212h-173l86 -148l-182 -106l-86 150l-86 -150l-183 106l87 148h-174v212h174l-87 148l183 106l86 -150l86 150l182 -106z" />
    <glyph glyph-name="plus" unicode="+" horiz-adv-x="1115" 
d="M719 879h291v-324h-291v-291h-324v291h-291v324h291v290h324v-290z" />
    <glyph glyph-name="comma" unicode="," horiz-adv-x="558" 
d="M-3 -281l82 522h401l-134 -522h-349z" />
    <glyph glyph-name="hyphen" unicode="-" horiz-adv-x="852" 
d="M104 401v324h645v-324h-645z" />
    <glyph glyph-name="period" unicode="." horiz-adv-x="513" 
d="M258 -18q-87 0 -148 61q-61 60 -61 147q0 84 62 146q61 61 147 61q85 0 146 -61t61 -146q0 -86 -61 -147t-146 -61z" />
    <glyph glyph-name="slash" unicode="/" horiz-adv-x="879" 
d="M51 -205l369 1639h409l-368 -1639h-410z" />
    <glyph glyph-name="zero" unicode="0" horiz-adv-x="1474" 
d="M1006 33q-123 -51 -268 -51q-146 0 -269 51q-255 104 -355 375q-51 140 -51 309t51 309q100 271 355 376q124 50 269 50q144 0 268 -50q255 -106 355 -376q50 -141 50 -309t-50 -309q-99 -271 -355 -375zM737 356q127 0 200 99q73 97 73 262t-72 263q-73 97 -201 97
t-200 -97q-72 -98 -72 -263t72 -263t200 -98z" />
    <glyph glyph-name="one" unicode="1" horiz-adv-x="842" 
d="M23 1358l374 76h341v-1434h-409v1109l-280 -68z" />
    <glyph glyph-name="two" unicode="2" horiz-adv-x="1338" 
d="M625 324h609v-324h-1106v324h-2q285 211 361 274q280 226 325 365q9 29 9 55q0 54 -40 87t-111 33q-134 0 -153 -139l-409 28q9 207 162 317q152 109 400 109q244 0 399 -91q78 -46 120 -123.5t42 -178.5q0 -51 -11.5 -100.5t-29 -92t-49.5 -89t-60 -81t-75.5 -79
t-80 -72.5t-89.5 -71t-89.5 -66t-92.5 -65q-5 -3 -15 -10t-14 -10z" />
    <glyph glyph-name="three" unicode="3" horiz-adv-x="1268" 
d="M1136 1111l-329 -283q182 -45 289 -151q108 -107 108 -267q0 -137 -76 -235q-77 -100 -203 -146q-127 -48 -290 -48q-257 0 -414 114q-158 113 -158 326l410 25q1 -72 44 -111t118 -39t117.5 43t42.5 113q0 91 -84 137.5t-230 30.5l-140 224l357 267h-611v324h1049v-324z
" />
    <glyph glyph-name="four" unicode="4" horiz-adv-x="1540" 
d="M1254 640h182v-324h-182v-316h-409v316h-741l212 1118h410l-168 -794h288v590h408v-590z" />
    <glyph glyph-name="five" unicode="5" horiz-adv-x="1370" 
d="M1202 1435v-324h-644l-16 -188q190 65 401 25q172 -37 268 -160q96 -124 96 -282q2 -152 -79 -272.5t-224 -186.5t-319 -64q-274 0 -447 145q-175 144 -175 378h410q0 -110 61 -172q60 -64 151 -64q90 0 151 64t61 172q0 90 -61 145q-62 56 -151 57q-97 3 -159 -56h-404
l46 783h1034z" />
    <glyph glyph-name="six" unicode="6" horiz-adv-x="1370" 
d="M542 1434h439l-285 -469q51 18 119 19q71 2 128 -12q175 -38 269 -164q95 -128 95 -302q2 -152 -79 -273t-224 -186t-319 -63q-273 0 -447 144q-175 144 -175 378q0 138 100 304zM685 270q90 0 151 64t61 172q0 102 -61 163q-62 62 -151 62t-151 -62q-61 -61 -61 -163
q0 -110 61 -172q60 -64 151 -64z" />
    <glyph glyph-name="seven" unicode="7" horiz-adv-x="1193" 
d="M63 1434h1108l-548 -1434h-411l425 1110h-574v324z" />
    <glyph glyph-name="eight" unicode="8" horiz-adv-x="1381" 
d="M1071 762q107 -28 178 -122q69 -95 69 -217q0 -211 -168 -327q-169 -115 -460 -115q-292 0 -459 115q-168 116 -168 327q0 123 70 217q71 94 177 122q-89 24 -147 103t-58 183q0 197 157 300q157 104 428 104q272 0 430 -104q156 -105 156 -300q0 -103 -58 -182
q-59 -80 -147 -104zM835 1160q-58 43 -145 43q-88 0 -144 -43q-57 -44 -57 -122q0 -76 57 -117q57 -42 144 -42q86 0 145 42q57 42 57 117q0 78 -57 122zM529 297q64 -47 161 -47t162 47q64 46 64 134q0 90 -64 138q-65 47 -162 47t-161 -47q-64 -48 -64 -138q0 -88 64 -134
z" />
    <glyph glyph-name="nine" unicode="9" horiz-adv-x="1370" 
d="M828 2h-439l285 469q-48 -16 -119 -18q-75 -2 -128 11q-175 38 -269 164q-95 128 -95 302q-2 152 79 272.5t223.5 186t319.5 63.5q273 0 448 -144q174 -146 174 -378q0 -138 -100 -304zM685 1165q-90 0 -151 -64t-61 -171q0 -101 62 -163t150 -62q89 0 151 62
q61 61 61 163q0 109 -60 172q-61 63 -152 63z" />
    <glyph glyph-name="colon" unicode=":" horiz-adv-x="578" 
d="M290 729q-85 0 -147 62t-62 147q0 84 62 146q61 61 147 61q85 0 146 -61t61 -146q0 -86 -61 -147q-62 -62 -146 -62zM290 -18q-86 0 -147 61q-62 60 -62 147q0 84 62 146q61 61 147 61q85 0 146 -61t61 -146q0 -87 -61 -147q-61 -61 -146 -61z" />
    <glyph glyph-name="semicolon" unicode=";" horiz-adv-x="578" 
d="M290 729q-85 0 -147 62t-62 147q0 84 62 146q61 61 147 61q85 0 146 -61t61 -146q0 -86 -61 -147q-62 -62 -146 -62zM7 -281l81 522h401l-134 -522h-348z" />
    <glyph glyph-name="less" unicode="&#x3c;" horiz-adv-x="1115" 
d="M104 880l906 214v-324l-481 -114l481 -113v-324l-906 215v446z" />
    <glyph glyph-name="equal" unicode="=" horiz-adv-x="1115" 
d="M104 1118h906v-323h-906v323zM104 639h906v-324h-906v324z" />
    <glyph glyph-name="greater" unicode="&#x3e;" horiz-adv-x="1115" 
d="M104 770v324l906 -214v-446l-906 -215v324l481 113z" />
    <glyph glyph-name="question" unicode="?" horiz-adv-x="1250" 
d="M830 496h-409q-12 66 0.5 123t43 97t70.5 74.5t82.5 62.5t78 53t58.5 53.5t23 58.5q0 54 -40 87t-111 33q-134 0 -153 -139l-410 28q9 208 163 317q152 109 400 109q561 0 561 -371q0 -66 -17 -120t-49.5 -96t-63 -69t-74.5 -58q-68 -43 -125 -104q-53 -58 -28 -139z
M628 -18q-86 0 -146 60q-61 60 -61 146q0 85 61 146q60 60 146 60q85 0 146 -61q60 -61 60 -145q0 -86 -60 -146q-62 -60 -146 -60z" />
    <glyph glyph-name="at" unicode="@" horiz-adv-x="1903" 
d="M1839 660q-1 -227 -109 -380q-107 -150 -274 -176q-185 -23 -333 127q-83 -121 -249 -120q-184 0 -294 120t-97 314q14 194 141 314q128 119 312 119q166 0 230 -120l17 107h230l-30 -437q-8 -99 26.5 -146.5t102.5 -27.5q67 16 101 106q33 87 38 206q13 280 -165.5 441
t-484.5 157q-147 0 -280 -54.5t-232 -151.5t-158.5 -231.5t-67.5 -285.5q-7 -318 182 -495q187 -177 517 -177q157 3 277 38q117 34 240 116l115 -136q-157 -101 -305 -148q-147 -45 -332 -45q-197 0 -364 58t-287 166q-121 109 -184.5 269.5t-56.5 353.5q6 183 81 348
t200 284q126 120 295 191q173 72 360 73q249 0 438.5 -93t295.5 -269q106 -175 104 -415zM1120 546q5 78 -39.5 126.5t-119.5 48.5q-82 0 -132.5 -45.5t-56.5 -130.5q-6 -86 38 -132t126 -46q75 0 128 50q51 49 56 129z" />
    <glyph glyph-name="A" unicode="A" horiz-adv-x="1514" 
d="M1492 0h-425l-58 208h-503l-59 -208h-424l412 1434h644zM758 1097l-160 -566h318z" />
    <glyph glyph-name="B" unicode="B" horiz-adv-x="1395" 
d="M1097 749q93 -26 164 -121q71 -97 71 -232q0 -178 -126 -287q-127 -109 -313 -109h-789v1434h738q189 0 314 -101q125 -102 125 -278q0 -123 -50 -201.5t-134 -104.5zM756 1119h-242v-249h242q48 0 81.5 35.5t33.5 89.5q0 53 -33.5 88.5t-81.5 35.5zM514 315h293
q48 0 82 36t34 89t-33.5 88t-82.5 35h-293v-248z" />
    <glyph glyph-name="C" unicode="C" horiz-adv-x="1570" 
d="M825 356q105 0 190.5 50.5t129.5 139.5l362 -170q-90 -184 -271 -289q-182 -105 -411 -105q-216 0 -388 91q-173 92 -273 260q-101 169 -101 384t101 385q100 167 273 259q172 91 388 91q229 0 411 -105q181 -105 271 -289l-362 -170q-44 89 -129.5 139t-190.5 50
q-153 0 -256 -100q-104 -101 -104 -260t104 -260t256 -101z" />
    <glyph glyph-name="D" unicode="D" horiz-adv-x="1542" 
d="M104 1434h648q322 0 525 -200q202 -199 202 -517t-202 -517q-203 -200 -525 -200h-648v1434zM514 324h186q156 0 263 110q106 109 106 283q0 181 -105 287q-106 106 -264 106h-186v-786z" />
    <glyph glyph-name="E" unicode="E" horiz-adv-x="1267" 
d="M104 0v1434h1028v-324h-618v-238h555v-323h-555v-225h648v-324h-1058z" />
    <glyph glyph-name="F" unicode="F" horiz-adv-x="1242" 
d="M104 0v1434h1033v-324h-624v-238h561v-323h-560v-549h-410z" />
    <glyph glyph-name="G" unicode="G" horiz-adv-x="1650" 
d="M782 568v237h805v-88q0 -217 -100 -384q-99 -167 -274 -260q-172 -91 -388 -91t-388 91q-173 92 -273 260q-101 169 -101 384t101 385q100 167 273 259q172 91 388 91q229 0 411 -105q181 -105 271 -289l-362 -170q-44 89 -129.5 139t-190.5 50q-153 0 -256 -100
q-104 -101 -104 -260t105 -259q104 -102 255 -102q101 0 187 61q87 61 134 151h-364z" />
    <glyph glyph-name="H" unicode="H" horiz-adv-x="1491" 
d="M978 838v596h408v-1434h-409v514h-463v-514h-410v1434h409v-596h465z" />
    <glyph glyph-name="I" unicode="I" horiz-adv-x="619" 
d="M104 0v1434h410v-1434h-410z" />
    <glyph glyph-name="J" unicode="J" horiz-adv-x="1379" 
d="M63 418l398 98q17 -78 67.5 -119t129.5 -41q98 0 152 62t54 176l1 840h410v-814q0 -310 -165 -473q-165 -165 -452 -165q-237 0 -390.5 111.5t-204.5 324.5z" />
    <glyph glyph-name="K" unicode="K" horiz-adv-x="1360" 
d="M909 1434h428l-439 -605l439 -829h-428l-260 488l-135 -186v-302h-410v1434h410v-576z" />
    <glyph glyph-name="L" unicode="L" horiz-adv-x="1150" 
d="M1047 0h-943v1434h410l-1 -1110h534v-324z" />
    <glyph glyph-name="M" unicode="M" horiz-adv-x="1882" 
d="M941 817l837 635v-1452h-410v670l-427 -347l-427 347v-670h-410v1452z" />
    <glyph glyph-name="N" unicode="N" horiz-adv-x="1458" 
d="M943 822v612h410v-1452l-839 629v-611h-410v1452z" />
    <glyph glyph-name="O" unicode="O" horiz-adv-x="1650" 
d="M1213 73q-172 -91 -388 -91t-388 91q-173 92 -273 260q-101 169 -101 384t101 385q100 167 273 259q172 91 388 91t388 -91q174 -93 274 -259q100 -169 100 -385q0 -217 -100 -384q-99 -167 -274 -260zM570 458q104 -102 256 -102q151 0 256 102q104 101 104 259
q0 159 -104 260q-104 100 -256 100q-153 0 -256 -100q-105 -101 -105 -260t105 -259z" />
    <glyph glyph-name="P" unicode="P" horiz-adv-x="1377" 
d="M104 1434h614q288 0 443 -143q153 -144 153 -384q0 -241 -153 -384q-155 -143 -443 -143h-204v-380h-410v1434zM513 703h162q102 0 166 58q63 59 63 145q0 88 -63 146q-62 58 -166 58h-162v-407z" />
    <glyph glyph-name="Q" unicode="Q" horiz-adv-x="1650" 
d="M1489 337l129 -129l-271 -271l-136 135q-173 -91 -386 -91q-216 0 -388 91q-173 92 -273 260q-101 170 -101 384q0 215 101 385q100 168 273 260q172 91 388 91q160 0 300.5 -53t242.5 -149q103 -98 161 -236.5t58 -297.5q0 -212 -98 -379zM465 717q0 -159 105 -259
q104 -102 256 -102q151 0 256 102q104 101 104 259q0 159 -104 260q-104 100 -256 100q-153 0 -256 -100q-105 -101 -105 -260z" />
    <glyph glyph-name="R" unicode="R" horiz-adv-x="1385" 
d="M1314 906q0 -161 -69.5 -280.5t-204.5 -182.5l271 -443h-411l-225 380h-161v-380h-410v1434h614q288 0 443 -143q153 -144 153 -385zM513 1110v-407h162q102 0 166 58q63 59 63 145q0 88 -63 146q-62 58 -166 58h-162z" />
    <glyph glyph-name="S" unicode="S" horiz-adv-x="1318" 
d="M1210 1027l-409 -28q-19 137 -153 139q-73 0 -112 -29.5t-39 -81.5q0 -50 56 -78q34 -18 111 -43q37 -11 153 -47q45 -14 129 -46q114 -46 196 -112q59 -49 85 -111.5t28 -153.5q-2 -223 -159 -338q-158 -116 -433 -116q-271 0 -432 117q-161 115 -168 339l410 28
q7 -76 57 -116t132 -40q83 0 131 30.5t49 86.5q-4 74 -120 125q-52 22 -154 54q-74 22 -101 31q-56 19 -87 31q-48 17 -79 33q-87 43 -119 78q-54 56 -71 108q-24 74 -24 156q0 136 76 230t200 137q123 42 286 42q247 0 400 -108q152 -110 161 -317z" />
    <glyph glyph-name="T" unicode="T" horiz-adv-x="1232" 
d="M63 1434h1106v-324h-348v-1110h-409v1110h-349v324z" />
    <glyph glyph-name="U" unicode="U" horiz-adv-x="1443" 
d="M928 594l1 840h409v-814q0 -309 -164 -473q-165 -165 -452 -165t-453 164q-165 164 -165 474v814h410v-840q0 -114 54.5 -176t153.5 -62t152.5 62t53.5 176z" />
    <glyph glyph-name="V" unicode="V" horiz-adv-x="1451" 
d="M726 368l266 1066h436l-387 -1434h-631l-387 1434h436z" />
    <glyph glyph-name="W" unicode="W" horiz-adv-x="2259" 
d="M1573 472l194 962h470l-383 -1434h-520l-204 803l-204 -803h-520l-383 1434h470l195 -960l223 960h438z" />
    <glyph glyph-name="X" unicode="X" horiz-adv-x="1469" 
d="M1001 1434h445l-416 -717l416 -717h-445l-267 456l-266 -456h-445l416 717l-416 717h445l266 -456z" />
    <glyph glyph-name="Y" unicode="Y" horiz-adv-x="1469" 
d="M735 859l258 575h453l-507 -981v-453h-410v453l-506 981h453z" />
    <glyph glyph-name="Z" unicode="Z" horiz-adv-x="1289" 
d="M104 1434h1080v-324l-609 -786h609v-324h-1080v324l609 786h-609v324z" />
    <glyph glyph-name="bracketleft" unicode="[" horiz-adv-x="871" 
d="M104 -411v1948h632v-324h-222v-1300h253v-324h-663z" />
    <glyph glyph-name="backslash" unicode="\" horiz-adv-x="879" 
d="M51 1434h410l368 -1639h-409z" />
    <glyph glyph-name="bracketright" unicode="]" horiz-adv-x="871" 
d="M135 1537h632v-1948h-663v324h253v1300h-222v324z" />
    <glyph glyph-name="asciicircum" unicode="^" horiz-adv-x="971" 
d="M709 1434l215 -725h-324l-114 385l-114 -385h-323l214 725h446z" />
    <glyph glyph-name="underscore" unicode="_" horiz-adv-x="1107" 
d="M81 -369v281h946v-281h-946z" />
    <glyph glyph-name="grave" unicode="`" horiz-adv-x="648" 
d="M599 1237h-297l-253 401h383z" />
    <glyph glyph-name="a" unicode="a" 
d="M565 1146q124 0 215.5 -40.5t132.5 -113.5l18 134h366v-1126h-366l-18 134q-39 -74 -130 -113.5t-218 -39.5q-220 0 -368 163q-148 161 -148 419q0 257 148 420t368 163zM502 376q68 -71 171 -71q102 0 171 71q69 70 69 187t-69 188q-69 70 -171 70q-104 0 -171 -70
q-69 -71 -69 -188t69 -187z" />
    <glyph glyph-name="b" unicode="b" 
d="M813 1146q220 0 368 -163t148 -420q0 -258 -148 -419q-148 -163 -368 -163q-127 0 -218 39.5t-130 113.5l-18 -134h-366v1536h384v-544q41 73 132.5 113.5t215.5 40.5zM534 376q69 -71 172 -71q102 0 171 71q68 71 68 187q0 117 -68 188q-69 70 -171 70q-103 0 -172 -70
q-69 -71 -69 -188t69 -187z" />
    <glyph glyph-name="c" unicode="c" horiz-adv-x="1286" 
d="M673 297q157 0 213 156l351 -141q-67 -153 -220 -241q-155 -89 -344 -89q-258 0 -436 150q-88 73 -138 185t-50 246t50 246.5t138 185.5q180 150 436 150q189 0 344 -89q152 -88 220 -242l-351 -140q-27 76 -83 115.5t-130 39.5q-102 0 -171 -72q-70 -71 -70 -194
t70 -194q69 -72 171 -72z" />
    <glyph glyph-name="d" unicode="d" 
d="M565 1146q124 0 215.5 -40.5t132.5 -113.5v544h384v-1536h-366l-18 134q-39 -74 -130 -113.5t-218 -39.5q-220 0 -368 163q-148 161 -148 419q0 257 148 420t368 163zM673 305q102 0 171 71q69 70 69 187t-69 188q-69 70 -171 70q-104 0 -171 -70q-69 -71 -69 -188
t70 -187q69 -71 170 -71z" />
    <glyph glyph-name="e" unicode="e" horiz-adv-x="1332" 
d="M673 1146q287 0 457 -176q84 -87 123.5 -218.5t26.5 -291.5h-834q25 -83 86.5 -131t140.5 -48q141 0 214 135l326 -158q-81 -132 -225 -204q-145 -73 -315 -73q-259 0 -437 150q-88 74 -137.5 186t-49.5 246t49.5 246.5t137.5 186.5q180 150 437 150zM820 800
q-58 46 -147 46t-147 -46q-59 -47 -82 -133h457q-23 87 -81 133z" />
    <glyph glyph-name="f" unicode="f" horiz-adv-x="932" 
d="M600 1126h252v-298h-252v-828h-383v828h-136v298h136v32q0 214 96 311q94 97 316 97q98 0 223 -17v-271q-118 22 -180 -3q-72 -19 -72 -117v-32z" />
    <glyph glyph-name="g" unicode="g" 
d="M913 992l18 134h366v-1046q0 -163 -80 -281q-80 -116 -214 -172q-136 -56 -309 -56q-351 0 -563 236l177 203q125 -137 356 -137q103 0 176 61t73 163v83q-74 -137 -348 -137q-107 0 -202 39t-165 110t-109.5 174t-39.5 221q0 241 149 401q149 158 367 158
q124 0 215.5 -40.5t132.5 -113.5zM673 351q101 0 171 67q69 68 69 169t-69 168q-70 66 -171 66q-99 0 -170 -66q-70 -67 -70 -168q0 -102 70 -169t170 -67z" />
    <glyph glyph-name="h" unicode="h" horiz-adv-x="1334" 
d="M1253 0h-384v563q0 130 -46 194t-145 64q-100 0 -156.5 -68.5t-56.5 -189.5v-563h-384v1536h384v-544q41 73 132 113.5t214 40.5q237 0 340 -148q102 -148 102 -435v-563z" />
    <glyph glyph-name="i" unicode="i" horiz-adv-x="545" 
d="M273 1241q-91 0 -156 66q-65 65 -65 156q0 90 65 155t156 65q89 0 156 -65q65 -65 65 -155q0 -91 -65 -156q-66 -66 -156 -66zM81 0v1126h384v-1126h-384z" />
    <glyph glyph-name="j" unicode="j" horiz-adv-x="545" 
d="M273 1241q-91 0 -156 66q-65 65 -65 156q0 90 65 155t156 65q89 0 156 -65q65 -65 65 -155q0 -91 -65 -156q-66 -66 -156 -66zM81 1126h384v-1140q0 -225 -95 -329q-96 -104 -317 -104q-105 0 -224 16v289q105 -18 169 1q83 23 83 127v1140z" />
    <glyph glyph-name="k" unicode="k" horiz-adv-x="1294" 
d="M842 1126h419l-405 -458l405 -668h-411l-232 397l-130 -147v-250h-384v1536h384v-822z" />
    <glyph glyph-name="l" unicode="l" horiz-adv-x="545" 
d="M81 0v1536h384v-1536h-384z" />
    <glyph glyph-name="m" unicode="m" horiz-adv-x="2058" 
d="M1562 1146q142 0 229.5 -55.5t132.5 -165.5q53 -133 53 -362v-563h-384v563q0 258 -174 258q-94 0 -145.5 -68t-51.5 -190v-563h-384v563q0 258 -175 258q-94 0 -146 -68t-52 -190v-563h-384v1126h366l18 -134q82 154 340 154q275 0 363 -222q116 222 394 222z" />
    <glyph glyph-name="n" unicode="n" horiz-adv-x="1319" 
d="M1238 0h-383v563q0 130 -44 194t-139 64q-99 0 -153 -67.5t-54 -190.5v-563h-384v1126h366l18 -134q42 73 129.5 113.5t210.5 40.5q233 0 333 -148t100 -435v-563z" />
    <glyph glyph-name="o" unicode="o" horiz-adv-x="1345" 
d="M911 21q-111 -38 -238 -38t-238 38q-239 82 -335 295q-51 111 -51 247q0 135 51 248q95 211 335 295q111 38 238 38t238 -38q240 -84 336 -295q50 -114 50 -248q0 -135 -50 -247q-97 -213 -336 -295zM501 376q69 -71 172 -71q102 0 171 71q69 70 69 187t-69 188
q-69 70 -171 70q-103 0 -172 -70q-69 -71 -69 -188t69 -187z" />
    <glyph glyph-name="p" unicode="p" 
d="M813 -19q-124 0 -215.5 40t-132.5 113v-544h-384v1536h366l18 -134q39 74 130 114t218 40q220 0 368 -163t148 -420q0 -258 -148 -419q-148 -163 -368 -163zM877 751q-69 70 -171 70q-103 0 -172 -70q-69 -71 -69 -188t69 -187q69 -71 172 -71q102 0 171 71q68 71 68 187
q0 117 -68 188z" />
    <glyph glyph-name="q" unicode="q" 
d="M565 -19q-220 0 -368 163q-148 161 -148 419q0 257 148 420t368 163q127 0 218 -40t130 -114l18 134h366v-1536h-384v544q-41 -73 -132.5 -113t-215.5 -40zM673 821q-101 0 -170 -70q-70 -70 -70 -188q0 -117 69 -187q68 -71 171 -71q102 0 171 71q69 70 69 187t-69 188
q-69 70 -171 70z" />
    <glyph glyph-name="r" unicode="r" horiz-adv-x="860" 
d="M81 0v1126h366l18 -125q93 143 346 144v-324q-346 0 -346 -258v-563h-384z" />
    <glyph glyph-name="s" unicode="s" horiz-adv-x="1163" 
d="M1086 807l-384 -20q-5 43 -38 72t-82 29q-59 0 -91.5 -21t-32.5 -60q0 -36 35.5 -57.5t107.5 -38.5q117 -29 192 -51t144 -54q71 -32 105 -65q78 -76 72 -193q-7 -180 -140.5 -273t-388.5 -93q-250 0 -389.5 94t-146.5 267l383 28q7 -56 49.5 -90t103.5 -34
q64 0 103.5 24t39.5 66q0 44 -62 79q-60 33 -155 55q-112 28 -144 38q-60 16 -111 37q-53 21 -85 45q-102 77 -97 226q0 161 134 245t383 84q230 0 359 -87.5t136 -251.5z" />
    <glyph glyph-name="t" unicode="t" horiz-adv-x="932" 
d="M217 1126v250h383v-250h252v-298h-252v-388q0 -100 77 -124q67 -24 175 -5v-313q-105 -16 -223 -16q-221 0 -316 108q-96 108 -96 336v402h-136v298h136z" />
    <glyph glyph-name="u" unicode="u" horiz-adv-x="1319" 
d="M82 1126h384v-563q0 -130 44 -194t139 -64q99 0 152.5 67.5t53.5 190.5v563h384v-1126h-367l-17 134q-42 -73 -129.5 -113t-210.5 -40q-232 0 -332 148q-101 148 -101 434v563z" />
    <glyph glyph-name="v" unicode="v" horiz-adv-x="1372" 
d="M687 341l243 785h409l-371 -1126h-564l-370 1126h409z" />
    <glyph glyph-name="w" unicode="w" horiz-adv-x="2156" 
d="M1513 351l200 775h410l-329 -1126h-537l-179 647l-179 -647h-538l-327 1126h409l200 -775l226 775h418z" />
    <glyph glyph-name="x" unicode="x" horiz-adv-x="1354" 
d="M894 1126h428l-366 -563l366 -563h-428l-216 343l-216 -343h-428l364 563l-364 563h428l216 -343z" />
    <glyph glyph-name="y" unicode="y" horiz-adv-x="1355" 
d="M678 337l225 789h419l-419 -1100q-97 -255 -262 -352q-167 -98 -442 -60l-18 280q138 -8 198 21q59 29 58 117l-403 1094h418z" />
    <glyph glyph-name="z" unicode="z" horiz-adv-x="1173" 
d="M81 1126h1012v-306l-524 -505h524v-315h-1012v315l514 505h-514v306z" />
    <glyph glyph-name="braceleft" unicode="{" horiz-adv-x="899" 
d="M668 1113v-283q0 -101 -42 -172t-121 -95q79 -24 121 -95t42 -172v-283q0 -51 29 -69t97 -16v-309q-294 -5 -395 66q-133 90 -135 302l-2 340q0 51 -36.5 69.5t-121.5 18.5v297q85 0 121.5 18t36.5 70l2 340q2 211 135 302q98 70 395 65v-309q-67 2 -96.5 -16.5
t-29.5 -68.5z" />
    <glyph glyph-name="bar" unicode="|" horiz-adv-x="592" 
d="M104 -205v1639h384v-1639h-384z" />
    <glyph glyph-name="braceright" unicode="}" horiz-adv-x="899" 
d="M231 830v283q0 50 -30 68.5t-97 16.5v309q295 4 396 -65q133 -91 135 -302l2 -340q0 -35 20.5 -56t53.5 -27q33 -5 83 -5v-297q-83 0 -120 -18.5t-37 -69.5l-2 -340q-2 -212 -135 -302q-100 -71 -396 -66v309q69 -2 98 15.5t29 69.5v283q0 101 42 172t121 95
q-79 24 -121 95t-42 172z" />
    <glyph glyph-name="asciitilde" unicode="~" horiz-adv-x="1048" 
d="M685 744h259q0 -174 -80 -266q-80 -95 -204 -82q-62 3 -137 36q-78 34 -109 38q-35 5 -46 -23q-4 -9 -4 -64h-260q0 165 75 255q77 104 207 93q55 -3 136 -36.5t114 -38.5q32 -5 43 23q6 13 6 65z" />
    <glyph glyph-name="exclamdown" unicode="&#xa1;" horiz-adv-x="604" 
d="M303 701q-91 0 -156 66q-66 66 -66 157q0 90 66 155q65 65 156 65q90 0 155 -65t65 -155t-65 -157q-64 -66 -155 -66zM111 -307l25 894h332l26 -894h-383z" />
    <glyph glyph-name="cent" unicode="&#xa2;" horiz-adv-x="1286" 
d="M673 297q157 0 213 156l351 -141q-54 -123 -166 -205q-113 -83 -256 -111v-139h-323v146q-199 50 -320 195q-123 146 -123 365t123 365q121 145 320 195v149h323v-142q145 -29 256 -110q111 -82 166 -206l-351 -140q-27 76 -83 115.5t-130 39.5q-102 0 -171 -72
q-70 -71 -70 -194t70 -194q69 -72 171 -72z" />
    <glyph glyph-name="sterling" unicode="&#xa3;" horiz-adv-x="1477" 
d="M1079 546h-499q-29 -163 -87 -248h880v-298h-1217v293h-3l3 4v1q57 85 75 248h-127v246h140v111q0 276 157 412q158 137 425 137q188 0 334 -88t213 -243l-334 -140q-27 77 -82.5 116.5t-130.5 39.5q-109 0 -165 -55.5t-56 -178.5q0 -11 -2 -111h476v-246z" />
    <glyph glyph-name="currency" unicode="&#xa4;" horiz-adv-x="1137" 
d="M987 720q0 -100 -45 -191l131 -132l-184 -185l-132 131q-89 -45 -186 -45q-102 0 -190 46l-132 -132l-186 185l132 132q-45 90 -45 191q0 96 45 185l-132 131l187 187l132 -132q90 45 189 45q97 0 185 -45l132 132l185 -187l-131 -131q45 -88 45 -185zM568 608
q45 0 77 32t32 77t-32 76.5t-77 31.5q-44 0 -75.5 -31.5t-31.5 -76.5t31.5 -77t75.5 -32z" />
    <glyph glyph-name="yen" unicode="&#xa5;" horiz-adv-x="1469" 
d="M993 1434h453l-339 -657h176v-263h-312l-32 -61v-36h344v-263h-344v-154h-410v154h-344v263h344v36l-31 61h-313v263h176l-338 657h453l259 -575z" />
    <glyph glyph-name="brokenbar" unicode="&#xa6;" horiz-adv-x="592" 
d="M104 717v717h384v-717h-384zM104 -205v717h384v-717h-384z" />
    <glyph glyph-name="section" unicode="&#xa7;" horiz-adv-x="1062" 
d="M923 484q92 -78 92 -206q-2 -173 -129 -263q-127 -91 -351 -91q-220 0 -349 90q-129 89 -137 266l321 19q8 -54 53 -87t111 -33q72 0 113.5 23t42.5 67q0 49 -73 86q-50 24 -157 55q-84 25 -104 32q-45 14 -86 31q-74 29 -128 77q-39 35 -55 81.5t-18 121.5q0 133 93 215
q-93 74 -93 221q0 157 126 240q126 81 328 81q198 0 323 -86q123 -85 132 -248l-323 -19q-9 47 -44.5 76.5t-87.5 29.5q-63 0 -98 -23t-35 -64q0 -40 49 -62q28 -13 97 -33q121 -34 168 -50q71 -24 131 -53t101 -67q79 -77 79 -197q-2 -142 -92 -230zM390 740q0 -38 48 -60
q43 -21 98 -35q27 -7 75 -21q77 22 79 81q-3 41 -45 68.5t-122 52.5q-63 0 -98 -23t-35 -63z" />
    <glyph glyph-name="dieresis" unicode="&#xa8;" horiz-adv-x="843" 
d="M219 1237q-70 0 -120 50t-50 120t50 120q49 49 120 49q69 0 119 -50q49 -49 49 -119q0 -71 -49 -120q-50 -50 -119 -50zM746 1287q-50 -50 -119 -50q-70 0 -120 50t-50 120t50 120q49 49 120 49q70 0 119 -49q50 -50 50 -120t-50 -120z" />
    <glyph glyph-name="copyright" unicode="&#xa9;" horiz-adv-x="1704" 
d="M853 -73q-214 0 -396 106t-288 288.5t-106 396.5q0 162 63 307q61 144 168 251q105 105 252 168q145 62 307 62t307 -62q146 -63 252 -168q107 -108 167 -251q62 -147 62 -307t-62 -307q-125 -295 -419 -422q-147 -62 -307 -62zM853 46q181 0 336 90q153 89 244 245
q90 155 90 337q0 180 -90 335q-89 153 -244 245q-155 90 -336 90q-134 0 -260 -53q-125 -54 -214 -143q-91 -91 -143 -214q-54 -124 -54 -260t54 -261q53 -125 143 -214q89 -90 214 -143q124 -54 260 -54zM866 509q62 0 107 33t65 97l269 -113q-53 -126 -171 -198
q-118 -73 -270 -73q-211 0 -344 123q-134 123 -134 340t134 340q133 123 344 123q152 0 270 -73q117 -74 171 -199l-269 -112q-20 64 -65 97t-107 33q-80 0 -133 -56q-54 -57 -54 -153t54 -152q53 -57 133 -57z" />
    <glyph glyph-name="ordfeminine" unicode="&#xaa;" horiz-adv-x="729" 
d="M311 1443q63 0 109 -22t65 -61l10 74h185v-564h-185l-10 74q-19 -40 -65 -61.5t-109 -21.5q-113 0 -187 81q-75 81 -75 210t75 210q74 81 187 81zM278 1061q35 -35 85 -35t83 35t33 91q0 58 -33 92q-33 35 -83 35t-85 -35q-34 -34 -34 -92q0 -57 34 -91z" />
    <glyph glyph-name="guillemotleft" unicode="&#xab;" horiz-adv-x="1518" 
d="M104 563l318 455h412l-318 -455l318 -454h-412zM685 563l317 455h412l-317 -455l317 -454h-412z" />
    <glyph glyph-name="registered" unicode="&#xae;" horiz-adv-x="1546" 
d="M498 1610q131 56 275.5 56t275.5 -56q133 -58 226 -151t151 -226q56 -132 56 -275q0 -144 -56 -277q-58 -134 -151 -227q-95 -96 -226 -151q-132 -56 -276 -56q-192 0 -356 95q-163 94 -258 259q-96 163 -96 356q0 144 57 276q56 131 152 226q93 93 226 151zM544 414
q109 -46 229 -46t229 46q222 95 315 314q71 164 34 346.5t-160 300.5q-118 123 -301 160t-346 -34q-161 -66 -260.5 -215t-100.5 -329q1 -182 100 -329.5t261 -213.5zM1079 1051q0 -167 -137 -232l135 -222h-208l-112 190h-83v-190h-207v717h313q143 0 221 -70.5t78 -192.5z
M759 1150h-85v-199h85q50 0 81 28.5t31 71.5t-31 71t-81 28z" />
    <glyph glyph-name="overscore" unicode="&#xaf;" horiz-adv-x="757" 
d="M49 1237v298h660v-298h-660z" />
    <glyph glyph-name="degree" unicode="&#xb0;" horiz-adv-x="721" 
d="M362 829q-130 0 -221 93q-92 92 -92 222q0 127 92 219q91 91 221 91q128 0 220 -91q92 -92 92 -219q0 -130 -92 -222q-92 -93 -220 -93zM293 1073q29 -29 68.5 -29t68.5 29q28 29 28 69t-28 68t-68 28t-69 -28t-29 -68t29 -69z" />
    <glyph glyph-name="uni00B2" unicode="&#xb2;" horiz-adv-x="662" 
d="M613 1339q0 -58 -33 -124q-14 -27 -43 -57q-30 -33 -46 -49q-18 -18 -59 -49q-36 -28 -58 -42l-12 -9t-22.5 -16t-27.5 -19h301v-165h-553v164h-1q1 0 1 1q175 130 227 176q119 104 119 168q0 27 -19 42t-54 15q-65 0 -74 -66l-207 14q4 102 81 158q76 55 200 55
q127 0 203 -49q77 -50 77 -148z" />
    <glyph glyph-name="uni00B3" unicode="&#xb3;" horiz-adv-x="668" 
d="M585 1372l-165 -139q94 -24 147 -77.5t53 -131.5q0 -101 -80 -158q-81 -57 -206 -57q-128 0 -206 57q-79 57 -79 164l207 12q0 -35 21 -53.5t58 -18.5q36 0 56.5 21t20.5 55q0 44 -42 66.5t-115 13.5l-70 115l180 131h-305v165h525v-165z" />
    <glyph glyph-name="acute" unicode="&#xb4;" horiz-adv-x="648" 
d="M599 1638l-253 -401h-297l166 401h384z" />
    <glyph glyph-name="paragraph" unicode="&#xb6;" horiz-adv-x="1376" 
d="M184 897q-80 83 -80 228q0 144 80 227q79 82 199 82h384v-1639h-384v1019q-119 0 -199 83zM888 -205v1639h384v-1639h-384z" />
    <glyph glyph-name="middot" unicode="&#xb7;" horiz-adv-x="513" 
d="M258 355q-87 0 -148 61t-61 148q0 85 61 146t148 61q85 0 146 -61t61 -146q0 -86 -61 -147q-62 -62 -146 -62z" />
    <glyph glyph-name="cedilla" unicode="&#xb8;" horiz-adv-x="525" 
d="M137 28h195v-71q38 3 73.5 -19.5t52.5 -55.5q26 -45 16 -104q-11 -60 -53 -96q-51 -48 -137 -61t-235 -4v171q108 -8 151 4q33 7 47 24t3 37q-7 18 -39.5 27t-73.5 2v146z" />
    <glyph glyph-name="uni00B9" unicode="&#xb9;" horiz-adv-x="457" 
d="M49 1498l187 38h173v-717h-207v552l-140 -34z" />
    <glyph glyph-name="ordmasculine" unicode="&#xba;" horiz-adv-x="716" 
d="M581 939q-89 -78 -222 -78t-222 78q-88 76 -88 213q0 135 88 213q89 78 222 78t222 -78q88 -78 88 -213q0 -137 -88 -213zM275 1061q33 -35 84 -35q49 0 84 35q33 35 33 91q0 58 -33 92q-34 34 -84 34q-51 0 -84 -34q-34 -34 -34 -92q0 -57 34 -91z" />
    <glyph glyph-name="guillemotright" unicode="&#xbb;" horiz-adv-x="1518" 
d="M104 1018h412l318 -455l-318 -454h-412l318 454zM685 1018h412l317 -455l-317 -454h-412l317 454z" />
    <glyph glyph-name="onequarter" unicode="&#xbc;" horiz-adv-x="1565" 
d="M49 1396l187 38h173v-717h-207v552l-140 -34zM330 0l532 1434h211l-532 -1434h-211zM1427 321h91v-164h-91v-157h-206v157h-370l106 560h207l-83 -396h140v293h206v-293z" />
    <glyph glyph-name="onehalf" unicode="&#xbd;" horiz-adv-x="1512" 
d="M409 1434v-717h-207v552l-140 -34l-13 161l187 38h173zM323 0l532 1434h212l-532 -1434h-212zM1463 530q0 -56 -34 -124q-21 -42 -88 -106q-14 -14 -59 -49q-36 -28 -58 -42q-22 -16 -62 -44h301v-165h-553v164h-1q1 0 1 1q20 16 40 30q92 68 114 85q39 30 92 77
q100 90 100 152q0 27 -19 42t-54 15q-65 0 -74 -66l-207 14q4 102 81 158q76 55 200 55q130 0 205 -50t75 -147z" />
    <glyph glyph-name="threequarters" unicode="&#xbe;" horiz-adv-x="1669" 
d="M620 922q0 -101 -80 -158q-81 -57 -206 -57q-128 0 -206 57q-79 55 -79 164l207 12q0 -35 21 -54t58 -19q36 0 56.5 21t20.5 55q0 44 -42 66.5t-115 14.5l-70 115l180 131h-305v165h525v-165l-165 -140q94 -24 147 -77t53 -131zM426 0l532 1434h211l-532 -1434h-211z
M1531 614v-293h90v-164h-90v-157h-207v157h-369l106 560h207l-83 -396h139v293h207z" />
    <glyph glyph-name="questiondown" unicode="&#xbf;" horiz-adv-x="1250" 
d="M478 1085q60 60 145 60t146 -60q60 -61 60 -147q0 -85 -60 -145q-61 -61 -146 -61q-84 0 -145 61t-61 145q0 86 61 147zM420 631h409q13 -66 0 -123t-43.5 -97.5t-70.5 -75t-82.5 -62t-78 -53t-58.5 -54t-23 -57.5q0 -54 40.5 -87t111.5 -33q134 0 152 138l410 -28
q-9 -207 -162 -317q-154 -109 -400 -109q-560 0 -562 371q0 66 16.5 120t50 96t63.5 69t75 59q87 63 111 87q67 69 41 156z" />
    <glyph glyph-name="Agrave" unicode="&#xc0;" horiz-adv-x="1514" 
d="M738 1946l167 -402h-297l-253 402h383zM1492 0h-425l-58 208h-503l-59 -208h-424l412 1434h644zM758 1097l-160 -566h318z" />
    <glyph glyph-name="Aacute" unicode="&#xc1;" horiz-adv-x="1514" 
d="M775 1946h384l-253 -402h-297zM1492 0h-425l-58 208h-503l-59 -208h-424l412 1434h644zM758 1097l-160 -566h318z" />
    <glyph glyph-name="Acircumflex" unicode="&#xc2;" horiz-adv-x="1514" 
d="M831 1544l-73 218l-75 -218h-280l150 388h409l150 -388h-281zM1492 0h-425l-58 208h-503l-59 -208h-424l412 1434h644zM758 1097l-160 -566h318z" />
    <glyph glyph-name="Atilde" unicode="&#xc3;" horiz-adv-x="1514" 
d="M600 1611q-4 -9 -4 -65h-258q0 166 74 255q76 104 206 94q65 -3 137 -36q72 -34 113 -38q32 -3 43 21q5 12 7 66h259q0 -174 -80 -266q-79 -95 -204 -82q-61 3 -138 36q-78 32 -109 38q-36 4 -46 -23zM1492 0h-425l-58 208h-503l-59 -208h-424l412 1434h644zM758 1097
l-160 -566h318z" />
    <glyph glyph-name="Adieresis" unicode="&#xc4;" horiz-adv-x="1514" 
d="M554 1544q-70 0 -120 51q-50 50 -50 120q0 69 50 119q49 49 120 49q69 0 119 -50q49 -49 49 -119q0 -71 -49 -120q-50 -50 -119 -50zM1081 1595q-49 -51 -119 -51t-120 51q-50 50 -50 120q0 69 50 119q49 49 120 49q70 0 119 -49t49 -119q0 -71 -49 -120zM1492 0h-425
l-58 208h-503l-59 -208h-424l412 1434h644zM758 1097l-160 -566h318z" />
    <glyph glyph-name="Aring" unicode="&#xc5;" horiz-adv-x="1514" 
d="M1492 0h-425l-58 208h-503l-59 -208h-424l412 1434h90q-78 88 -78 206q0 128 93 220q92 92 222 92q127 0 219 -92q91 -92 91 -220q0 -117 -77 -206h84zM828 1707q-20 23 -49.5 27.5t-55 -6.5t-43.5 -35.5t-16 -53.5q0 -40 28 -68.5t68 -28.5t68 28.5t28 68.5t-28 68z
M758 1097l-160 -566h318z" />
    <glyph glyph-name="AE" unicode="&#xc6;" horiz-adv-x="1800" 
d="M1171 549v-225h525v-324h-934v208h-253l-59 -208h-427l412 1434h1230v-324h-494v-238h432v-323h-432zM602 531h160v556z" />
    <glyph glyph-name="Ccedilla" unicode="&#xc7;" horiz-adv-x="1570" 
d="M825 356q105 0 190.5 50.5t129.5 139.5l362 -170q-80 -164 -234 -266q-155 -104 -350 -123v-30q38 3 73.5 -19.5t52.5 -55.5q26 -45 16 -104q-11 -60 -53 -96q-51 -48 -137 -61t-235 -4v171q108 -8 151 4q33 7 47 24t3 37q-7 18 -39.5 27t-73.5 2v105q-292 31 -478 231
q-187 199 -187 499q0 215 101 385q100 167 273 259q172 91 388 91q229 0 411 -105q181 -105 271 -289l-362 -170q-44 89 -129.5 139t-190.5 50q-153 0 -256 -100q-104 -101 -104 -260t104 -260t256 -101z" />
    <glyph glyph-name="Egrave" unicode="&#xc8;" horiz-adv-x="1267" 
d="M782 1544h-297l-253 402h383zM104 0v1434h1028v-324h-618v-238h555v-323h-555v-225h648v-324h-1058z" />
    <glyph glyph-name="Eacute" unicode="&#xc9;" horiz-adv-x="1267" 
d="M1036 1946l-253 -402h-297l166 402h384zM104 0v1434h1028v-324h-618v-238h555v-323h-555v-225h648v-324h-1058z" />
    <glyph glyph-name="Ecircumflex" unicode="&#xca;" horiz-adv-x="1267" 
d="M839 1932l150 -388h-280l-74 218l-75 -218h-279l149 388h409zM104 0v1434h1028v-324h-618v-238h555v-323h-555v-225h648v-324h-1058z" />
    <glyph glyph-name="Edieresis" unicode="&#xcb;" horiz-adv-x="1267" 
d="M431 1544q-71 0 -120 51q-50 50 -50 120q0 69 50 119q49 49 120 49q69 0 119 -50q49 -49 49 -119q0 -71 -49 -120q-50 -50 -119 -50zM958 1595q-50 -51 -119 -51q-71 0 -120 51q-50 50 -50 120q0 69 50 119q49 49 120 49q70 0 119 -49q50 -50 50 -119q0 -70 -50 -120z
M104 0v1434h1028v-324h-618v-238h555v-323h-555v-225h648v-324h-1058z" />
    <glyph glyph-name="Igrave" unicode="&#xcc;" horiz-adv-x="619" 
d="M458 1544h-297l-254 402h384zM104 0v1434h410v-1434h-410z" />
    <glyph glyph-name="Iacute" unicode="&#xcd;" horiz-adv-x="619" 
d="M712 1946l-253 -402h-297l166 402h384zM104 0v1434h410v-1434h-410z" />
    <glyph glyph-name="Icircumflex" unicode="&#xce;" horiz-adv-x="619" 
d="M514 1932l151 -388h-281l-74 218l-74 -218h-281l150 388h409zM104 0v1434h410v-1434h-410z" />
    <glyph glyph-name="Idieresis" unicode="&#xcf;" horiz-adv-x="619" 
d="M106 1544q-72 0 -121 51q-50 50 -50 120q0 69 50 119q50 49 121 49q69 0 119 -50q49 -49 49 -119q0 -71 -49 -120q-50 -50 -119 -50zM634 1595q-50 -51 -120 -51t-120 51q-50 50 -50 120q0 69 50 119q49 49 120 49t120 -49t49 -119q0 -71 -49 -120zM104 0v1434h410v-1434
h-410z" />
    <glyph glyph-name="Eth" unicode="&#xd0;" horiz-adv-x="1598" 
d="M161 1434h646q213 0 379 -91t257 -254t91 -372q3 -206 -89.5 -371t-260 -257t-377.5 -89h-646v568h-96l-2 297h98v569zM570 324h186q155 0 262 110q106 109 106 283q0 181 -105 287q-106 106 -263 106h-186v-245h237v-297h-237v-244z" />
    <glyph glyph-name="Ntilde" unicode="&#xd1;" horiz-adv-x="1458" 
d="M890 1908h259q0 -174 -80 -266q-79 -95 -204 -82q-61 3 -138 36q-78 32 -109 38q-35 4 -46 -23q-4 -9 -4 -65h-258q0 166 74 255q76 104 207 94q65 -3 137 -36q72 -34 113 -38q32 -3 43 21q6 14 6 66zM943 822v612h410v-1452l-839 629v-611h-410v1452z" />
    <glyph glyph-name="Ograve" unicode="&#xd2;" horiz-adv-x="1650" 
d="M974 1544h-297l-253 402h383zM1213 73q-172 -91 -388 -91t-388 91q-173 92 -273 260q-101 169 -101 384t101 385q100 167 273 259q172 91 388 91t388 -91q174 -93 274 -259q100 -169 100 -385q0 -217 -100 -384q-99 -167 -274 -260zM570 458q104 -102 256 -102
q151 0 256 102q104 101 104 259q0 159 -104 260q-104 100 -256 100q-153 0 -256 -100q-105 -101 -105 -260t105 -259z" />
    <glyph glyph-name="Oacute" unicode="&#xd3;" horiz-adv-x="1650" 
d="M1227 1946l-253 -402h-297l166 402h384zM1213 73q-172 -91 -388 -91t-388 91q-173 92 -273 260q-101 169 -101 384t101 385q100 167 273 259q172 91 388 91t388 -91q174 -93 274 -259q100 -169 100 -385q0 -217 -100 -384q-99 -167 -274 -260zM570 458q104 -102 256 -102
q151 0 256 102q104 101 104 259q0 159 -104 260q-104 100 -256 100q-153 0 -256 -100q-105 -101 -105 -260t105 -259z" />
    <glyph glyph-name="Ocircumflex" unicode="&#xd4;" horiz-adv-x="1650" 
d="M1029 1932l151 -388h-281l-74 218l-74 -218h-280l150 388h408zM1213 73q-172 -91 -388 -91t-388 91q-173 92 -273 260q-101 169 -101 384t101 385q100 167 273 259q172 91 388 91t388 -91q174 -93 274 -259q100 -169 100 -385q0 -217 -100 -384q-99 -167 -274 -260z
M570 458q104 -102 256 -102q151 0 256 102q104 101 104 259q0 159 -104 260q-104 100 -256 100q-153 0 -256 -100q-105 -101 -105 -260t105 -259z" />
    <glyph glyph-name="Otilde" unicode="&#xd5;" horiz-adv-x="1650" 
d="M986 1908h259q0 -174 -80 -266q-79 -95 -203 -82q-63 3 -139 36q-79 32 -108 38q-35 4 -46 -23q-4 -9 -4 -65h-258q0 167 73 255q76 104 207 94q65 -3 137 -36q72 -34 113 -38q32 -3 43 21q6 14 6 66zM1213 73q-172 -91 -388 -91t-388 91q-173 92 -273 260
q-101 169 -101 384t101 385q100 167 273 259q172 91 388 91t388 -91q174 -93 274 -259q100 -169 100 -385q0 -217 -100 -384q-99 -167 -274 -260zM570 458q104 -102 256 -102q151 0 256 102q104 101 104 259q0 159 -104 260q-104 100 -256 100q-153 0 -256 -100
q-105 -101 -105 -260t105 -259z" />
    <glyph glyph-name="Odieresis" unicode="&#xd6;" horiz-adv-x="1650" 
d="M623 1544q-71 0 -120 51q-50 50 -50 120q0 69 50 119q49 49 120 49q69 0 119 -50q49 -49 49 -119q0 -71 -49 -120q-50 -50 -119 -50zM1150 1595q-50 -51 -119 -51q-71 0 -120 51q-51 49 -51 120q0 69 51 119q49 49 120 49q70 0 119 -49t49 -119q0 -71 -49 -120zM1213 73
q-172 -91 -388 -91t-388 91q-173 92 -273 260q-101 169 -101 384t101 385q100 167 273 259q172 91 388 91t388 -91q174 -93 274 -259q100 -169 100 -385q0 -217 -100 -384q-99 -167 -274 -260zM570 458q104 -102 256 -102q151 0 256 102q104 101 104 259q0 159 -104 260
q-104 100 -256 100q-153 0 -256 -100q-105 -101 -105 -260t105 -259z" />
    <glyph glyph-name="multiply" unicode="&#xd7;" horiz-adv-x="1078" 
d="M744 1151l230 -228l-206 -206l206 -206l-230 -228l-205 205l-206 -205l-229 228l206 206l-206 206l229 228l206 -206z" />
    <glyph glyph-name="Oslash" unicode="&#xd8;" horiz-adv-x="1650" 
d="M1565 1324l-138 -137q160 -197 160 -470q0 -217 -100 -384q-99 -167 -274 -260q-172 -91 -388 -91q-265 0 -465 138l-142 -143l-132 133l137 137q-160 196 -160 470q0 215 101 385q100 167 273 259q172 91 388 91q265 0 464 -139l144 143zM465 717q0 -102 46 -182
l497 496q-82 46 -183 46q-153 0 -256 -100q-104 -101 -104 -260zM825 356q152 0 257 102q104 101 104 259q0 103 -46 182l-497 -497q82 -46 182 -46z" />
    <glyph glyph-name="Ugrave" unicode="&#xd9;" horiz-adv-x="1443" 
d="M870 1544h-297l-252 402h382zM928 594l1 840h409v-814q0 -309 -164 -473q-165 -165 -452 -165t-453 164q-165 164 -165 474v814h410v-840q0 -114 54.5 -176t153.5 -62t152.5 62t53.5 176z" />
    <glyph glyph-name="Uacute" unicode="&#xda;" horiz-adv-x="1443" 
d="M1123 1946l-253 -402h-297l166 402h384zM928 594l1 840h409v-814q0 -309 -164 -473q-165 -165 -452 -165t-453 164q-165 164 -165 474v814h410v-840q0 -114 54.5 -176t153.5 -62t152.5 62t53.5 176z" />
    <glyph glyph-name="Ucircumflex" unicode="&#xdb;" horiz-adv-x="1443" 
d="M926 1932l150 -388h-280l-74 218l-75 -218h-279l149 388h409zM928 594l1 840h409v-814q0 -309 -164 -473q-165 -165 -452 -165t-453 164q-165 164 -165 474v814h410v-840q0 -114 54.5 -176t153.5 -62t152.5 62t53.5 176z" />
    <glyph glyph-name="Udieresis" unicode="&#xdc;" horiz-adv-x="1443" 
d="M519 1544q-71 0 -120 51q-50 50 -50 120q0 69 50 119q49 49 120 49q69 0 119 -50q49 -49 49 -119q0 -71 -49 -120q-50 -50 -119 -50zM1046 1595q-49 -51 -119 -51q-71 0 -120 51q-50 50 -50 120q0 69 50 119q49 49 120 49q70 0 119 -49q50 -50 50 -119q0 -70 -50 -120z
M928 594l1 840h409v-814q0 -309 -164 -473q-165 -165 -452 -165t-453 164q-165 164 -165 474v814h410v-840q0 -114 54.5 -176t153.5 -62t152.5 62t53.5 176z" />
    <glyph glyph-name="Yacute" unicode="&#xdd;" horiz-adv-x="1469" 
d="M753 1946h384l-253 -402h-297zM735 859l258 575h453l-507 -981v-453h-410v453l-506 981h453z" />
    <glyph glyph-name="Thorn" unicode="&#xde;" horiz-adv-x="1351" 
d="M490 1243h217q288 0 443 -143q153 -142 153 -383q0 -242 -154 -384q-155 -143 -442 -143h-217v-190h-409v1434h409v-191zM489 514h175q104 0 166 58q63 57 63 145q1 87 -62 146q-62 58 -167 58h-175v-407z" />
    <glyph glyph-name="germandbls" unicode="&#xdf;" horiz-adv-x="1395" 
d="M598 555v324h158q48 0 81.5 33.5t33.5 82.5q0 47 -33 81q-34 34 -82 34h-113q-62 0 -95.5 -33.5t-33.5 -95.5v-981h-410v954q0 233 123 356.5t357 123.5h258q189 0 314 -101q125 -102 125 -278q0 -123 -50.5 -202t-133.5 -104q93 -26 164 -121q71 -97 71 -232
q0 -178 -126 -287q-127 -109 -313 -109h-295v324h209q48 0 82 33.5t34 81.5t-34 82t-82 34h-209z" />
    <glyph glyph-name="agrave" unicode="&#xe0;" 
d="M817 1237h-297l-253 401h383zM565 1146q124 0 215.5 -40.5t132.5 -113.5l18 134h366v-1126h-366l-18 134q-39 -74 -130 -113.5t-218 -39.5q-220 0 -368 163q-148 161 -148 419q0 257 148 420t368 163zM502 376q68 -71 171 -71q102 0 171 71q69 70 69 187t-69 188
q-69 70 -171 70q-104 0 -171 -70q-69 -71 -69 -188t69 -187z" />
    <glyph glyph-name="aacute" unicode="&#xe1;" 
d="M1070 1638l-253 -401h-297l166 401h384zM565 1146q124 0 215.5 -40.5t132.5 -113.5l18 134h366v-1126h-366l-18 134q-39 -74 -130 -113.5t-218 -39.5q-220 0 -368 163q-148 161 -148 419q0 257 148 420t368 163zM502 376q68 -71 171 -71q102 0 171 71q69 70 69 187
t-69 188q-69 70 -171 70q-104 0 -171 -70q-69 -71 -69 -188t69 -187z" />
    <glyph glyph-name="acircumflex" unicode="&#xe2;" 
d="M873 1625l151 -388h-281l-73 218l-75 -218h-280l150 388h408zM565 1146q124 0 215.5 -40.5t132.5 -113.5l18 134h366v-1126h-366l-18 134q-39 -74 -130 -113.5t-218 -39.5q-220 0 -368 163q-148 161 -148 419q0 257 148 420t368 163zM502 376q68 -71 171 -71
q102 0 171 71q69 70 69 187t-69 188q-69 70 -171 70q-104 0 -171 -70q-69 -71 -69 -188t69 -187z" />
    <glyph glyph-name="atilde" unicode="&#xe3;" 
d="M829 1601h260q0 -174 -80 -266q-78 -95 -204 -83q-61 3 -138 36q-76 33 -109 39q-35 4 -46 -23q-4 -9 -4 -65h-258q0 166 74 255q76 104 206 94q65 -3 137 -36q70 -33 113 -39q33 -3 43 22q6 13 6 66zM565 1146q124 0 215.5 -40.5t132.5 -113.5l18 134h366v-1126h-366
l-18 134q-39 -74 -130 -113.5t-218 -39.5q-220 0 -368 163q-148 161 -148 419q0 257 148 420t368 163zM502 376q68 -71 171 -71q102 0 171 71q69 70 69 187t-69 188q-69 70 -171 70q-104 0 -171 -70q-69 -71 -69 -188t69 -187z" />
    <glyph glyph-name="adieresis" unicode="&#xe4;" 
d="M466 1237q-70 0 -120 50t-50 120t50 120q49 49 120 49q69 0 119 -50q49 -49 49 -119q0 -71 -49 -120q-50 -50 -119 -50zM993 1287q-50 -50 -119 -50q-70 0 -120 50q-51 49 -51 120t51 120q49 49 119 49t119 -49q50 -50 50 -120q0 -71 -49 -120zM565 1146
q124 0 215.5 -40.5t132.5 -113.5l18 134h366v-1126h-366l-18 134q-39 -74 -130 -113.5t-218 -39.5q-220 0 -368 163q-148 161 -148 419q0 257 148 420t368 163zM502 376q68 -71 171 -71q102 0 171 71q69 70 69 187t-69 188q-69 70 -171 70q-104 0 -171 -70q-69 -71 -69 -188
t69 -187z" />
    <glyph glyph-name="aring" unicode="&#xe5;" 
d="M670 1229q-130 0 -222 92t-92 222q0 127 93 219q91 91 221 91q128 0 219 -91q92 -92 92 -219q0 -131 -91 -222q-92 -92 -220 -92zM600 1473q29 -28 69 -28t68 28t28 68t-28 68t-68 28t-69 -28t-29 -68t29 -68zM565 1146q124 0 215.5 -40.5t132.5 -113.5l18 134h366v-1126
h-366l-18 134q-39 -74 -130 -113.5t-218 -39.5q-220 0 -368 163q-148 161 -148 419q0 257 148 420t368 163zM502 376q68 -71 171 -71q102 0 171 71q69 70 69 187t-69 188q-69 70 -171 70q-104 0 -171 -70q-69 -71 -69 -188t69 -187z" />
    <glyph glyph-name="ae" unicode="&#xe6;" horiz-adv-x="2369" 
d="M1710 1146q286 0 457 -176q85 -87 124.5 -218.5t25.5 -291.5h-833q25 -83 86 -131t140 -48q140 0 214 135l327 -158q-81 -132 -226 -204q-145 -73 -315 -73q-243 0 -413 131v-112h-366l-18 134q-39 -74 -130 -113.5t-218 -39.5q-220 0 -368 163q-148 161 -148 419
q0 257 148 420t368 163q124 0 215.5 -40.5t132.5 -113.5l18 134h366v-111q170 131 413 131zM1857 800q-58 46 -147 46t-147 -46t-81 -133h456q-23 87 -81 133zM502 376q68 -71 171 -71q102 0 171 71q69 70 69 187t-69 188q-69 70 -171 70q-104 0 -171 -70q-69 -71 -69 -188
t69 -187z" />
    <glyph glyph-name="ccedilla" unicode="&#xe7;" horiz-adv-x="1286" 
d="M673 297q157 0 213 156l351 -141q-57 -132 -181 -217q-125 -86 -285 -107v-49q38 3 74 -20t52 -55q26 -45 16 -104q-11 -61 -53 -97q-51 -48 -137 -61t-235 -3v171q108 -8 151 4q33 7 47 24t3 36q-7 18 -39.5 27.5t-72.5 2.5v124q-226 26 -374 174q-73 72 -113.5 176
t-40.5 225q0 134 50 246.5t138 185.5q180 150 436 150q189 0 344 -89q152 -88 220 -242l-351 -140q-27 76 -83 115.5t-130 39.5q-102 0 -171 -72q-70 -71 -70 -194t70 -194q69 -72 171 -72z" />
    <glyph glyph-name="egrave" unicode="&#xe8;" horiz-adv-x="1332" 
d="M647 1638l167 -401h-297l-253 401h383zM673 1146q287 0 457 -176q84 -87 123.5 -218.5t26.5 -291.5h-834q25 -83 86.5 -131t140.5 -48q141 0 214 135l326 -158q-81 -132 -225 -204q-145 -73 -315 -73q-259 0 -437 150q-88 74 -137.5 186t-49.5 246t49.5 246.5
t137.5 186.5q180 150 437 150zM820 800q-58 46 -147 46t-147 -46q-59 -47 -82 -133h457q-23 87 -81 133z" />
    <glyph glyph-name="eacute" unicode="&#xe9;" horiz-adv-x="1332" 
d="M684 1638h384l-253 -401h-297zM673 1146q287 0 457 -176q84 -87 123.5 -218.5t26.5 -291.5h-834q25 -83 86.5 -131t140.5 -48q141 0 214 135l326 -158q-81 -132 -225 -204q-145 -73 -315 -73q-259 0 -437 150q-88 74 -137.5 186t-49.5 246t49.5 246.5t137.5 186.5
q180 150 437 150zM820 800q-58 46 -147 46t-147 -46q-59 -47 -82 -133h457q-23 87 -81 133z" />
    <glyph glyph-name="ecircumflex" unicode="&#xea;" horiz-adv-x="1332" 
d="M740 1237l-73 218l-75 -218h-280l150 388h408l151 -388h-281zM673 1146q287 0 457 -176q84 -87 123.5 -218.5t26.5 -291.5h-834q25 -83 86.5 -131t140.5 -48q141 0 214 135l326 -158q-81 -132 -225 -204q-145 -73 -315 -73q-259 0 -437 150q-88 74 -137.5 186t-49.5 246
t49.5 246.5t137.5 186.5q180 150 437 150zM820 800q-58 46 -147 46t-147 -46q-59 -47 -82 -133h457q-23 87 -81 133z" />
    <glyph glyph-name="edieresis" unicode="&#xeb;" horiz-adv-x="1332" 
d="M463 1237q-70 0 -120 50t-50 120t50 120q49 49 120 49q69 0 119 -50q49 -49 49 -119q0 -71 -49 -120q-50 -50 -119 -50zM990 1287q-50 -50 -119 -50q-70 0 -120 50q-51 49 -51 120t51 120q49 49 120 49q70 0 119 -49t49 -120t-49 -120zM673 1146q287 0 457 -176
q84 -87 123.5 -218.5t26.5 -291.5h-834q25 -83 86.5 -131t140.5 -48q141 0 214 135l326 -158q-81 -132 -225 -204q-145 -73 -315 -73q-259 0 -437 150q-88 74 -137.5 186t-49.5 246t49.5 246.5t137.5 186.5q180 150 437 150zM820 800q-58 46 -147 46t-147 -46
q-59 -47 -82 -133h457q-23 87 -81 133z" />
    <glyph glyph-name="igrave" unicode="&#xec;" horiz-adv-x="545" 
d="M421 1237h-297l-254 401h384zM81 0v1126h384v-1126h-384z" />
    <glyph glyph-name="iacute" unicode="&#xed;" horiz-adv-x="545" 
d="M675 1638l-253 -401h-297l166 401h384zM81 0v1126h384v-1126h-384z" />
    <glyph glyph-name="icircumflex" unicode="&#xee;" horiz-adv-x="545" 
d="M477 1625l151 -388h-281l-74 218l-74 -218h-281l151 388h408zM81 0v1126h384v-1126h-384z" />
    <glyph glyph-name="idieresis" unicode="&#xef;" horiz-adv-x="545" 
d="M70 1237q-71 0 -121 50t-50 120t50 120q49 49 121 49q69 0 119 -50q49 -49 49 -119q0 -71 -49 -120q-50 -50 -119 -50zM597 1287q-50 -50 -119 -50q-70 0 -120 50q-51 49 -51 120t51 120q49 49 120 49q70 0 119 -49t49 -120t-49 -120zM81 0v1126h384v-1126h-384z" />
    <glyph glyph-name="eth" unicode="&#xf0;" horiz-adv-x="1339" 
d="M1010 1409l-34 -63q315 -200 315 -840q3 -152 -77.5 -273t-223 -186t-319.5 -63q-176 -2 -319 63t-224 186t-79 273q0 176 95 307q94 129 268 159q154 26 295 -4q142 -30 191 -96q-14 117 -72 189l-29 -55l-183 90l34 63q-67 10 -136 3v279q157 9 275 -19l40 76zM520 334
q61 -64 151 -64t151 64q60 63 60 172q0 108 -60 172q-62 63 -151 63q-91 0 -151 -63q-61 -64 -61 -172t61 -172z" />
    <glyph glyph-name="ntilde" unicode="&#xf1;" horiz-adv-x="1319" 
d="M823 1601h259q0 -174 -80 -266q-78 -95 -203 -83q-61 3 -138 36q-76 33 -109 39q-35 4 -46 -23q-4 -9 -4 -65h-258q0 167 73 255q76 104 207 94q65 -3 137 -36q70 -33 113 -39q33 -3 43 22q6 13 6 66zM1238 0h-383v563q0 130 -44 194t-139 64q-99 0 -153 -67.5
t-54 -190.5v-563h-384v1126h366l18 -134q42 73 129.5 113.5t210.5 40.5q233 0 333 -148t100 -435v-563z" />
    <glyph glyph-name="ograve" unicode="&#xf2;" horiz-adv-x="1345" 
d="M821 1237h-297l-253 401h383zM911 21q-111 -38 -238 -38t-238 38q-239 82 -335 295q-51 111 -51 247q0 135 51 248q95 211 335 295q111 38 238 38t238 -38q240 -84 336 -295q50 -114 50 -248q0 -135 -50 -247q-97 -213 -336 -295zM501 376q69 -71 172 -71q102 0 171 71
q69 70 69 187t-69 188q-69 70 -171 70q-103 0 -172 -70q-69 -71 -69 -188t69 -187z" />
    <glyph glyph-name="oacute" unicode="&#xf3;" horiz-adv-x="1345" 
d="M1075 1638l-253 -401h-297l166 401h384zM911 21q-111 -38 -238 -38t-238 38q-239 82 -335 295q-51 111 -51 247q0 135 51 248q95 211 335 295q111 38 238 38t238 -38q240 -84 336 -295q50 -114 50 -248q0 -135 -50 -247q-97 -213 -336 -295zM501 376q69 -71 172 -71
q102 0 171 71q69 70 69 187t-69 188q-69 70 -171 70q-103 0 -172 -70q-69 -71 -69 -188t69 -187z" />
    <glyph glyph-name="ocircumflex" unicode="&#xf4;" horiz-adv-x="1345" 
d="M878 1625l150 -388h-280l-74 218l-75 -218h-280l150 388h409zM911 21q-111 -38 -238 -38t-238 38q-239 82 -335 295q-51 111 -51 247q0 135 51 248q95 211 335 295q111 38 238 38t238 -38q240 -84 336 -295q50 -114 50 -248q0 -135 -50 -247q-97 -213 -336 -295zM501 376
q69 -71 172 -71q102 0 171 71q69 70 69 187t-69 188q-69 70 -171 70q-103 0 -172 -70q-69 -71 -69 -188t69 -187z" />
    <glyph glyph-name="otilde" unicode="&#xf5;" horiz-adv-x="1345" 
d="M834 1601h259q0 -174 -80 -266q-78 -95 -204 -83q-61 3 -138 36q-76 33 -109 39q-35 4 -46 -23q-4 -9 -4 -65h-258q0 166 74 255q76 104 207 94q66 -3 136 -36t113 -39q33 -3 43 22q7 13 7 66zM911 21q-111 -38 -238 -38t-238 38q-239 82 -335 295q-51 111 -51 247
q0 135 51 248q95 211 335 295q111 38 238 38t238 -38q240 -84 336 -295q50 -114 50 -248q0 -135 -50 -247q-97 -213 -336 -295zM501 376q69 -71 172 -71q102 0 171 71q69 70 69 187t-69 188q-69 70 -171 70q-103 0 -172 -70q-69 -71 -69 -188t69 -187z" />
    <glyph glyph-name="odieresis" unicode="&#xf6;" horiz-adv-x="1345" 
d="M470 1237q-70 0 -120 50t-50 120t50 120q49 49 120 49q69 0 119 -50q49 -49 49 -119q0 -71 -49 -120q-50 -50 -119 -50zM997 1287q-50 -50 -119 -50q-70 0 -120 50t-50 120t50 120q49 49 120 49q70 0 119 -49q50 -50 50 -120t-50 -120zM911 21q-111 -38 -238 -38t-238 38
q-239 82 -335 295q-51 111 -51 247q0 135 51 248q95 211 335 295q111 38 238 38t238 -38q240 -84 336 -295q50 -114 50 -248q0 -135 -50 -247q-97 -213 -336 -295zM501 376q69 -71 172 -71q102 0 171 71q69 70 69 187t-69 188q-69 70 -171 70q-103 0 -172 -70
q-69 -71 -69 -188t69 -187z" />
    <glyph glyph-name="divide" unicode="&#xf7;" horiz-adv-x="1115" 
d="M558 977q-74 0 -126 52t-52 127q0 73 52 125q52 51 126 51q72 0 125 -51q52 -52 52 -125q0 -75 -52 -127t-125 -52zM104 879h906v-324h-906v324zM558 101q-73 0 -126 53q-52 52 -52 126q0 73 52 125t126 52q73 0 125 -52t52 -125q0 -74 -52 -126q-53 -53 -125 -53z" />
    <glyph glyph-name="oslash" unicode="&#xf8;" horiz-adv-x="1345" 
d="M1268 1050l-107 -107q136 -152 136 -380q0 -134 -49.5 -246t-137.5 -185q-179 -150 -437 -150q-211 0 -372 101l-120 -120l-112 114l111 111q-131 152 -131 375q0 134 50 246.5t138 185.5q180 150 436 150q207 0 365 -98l117 116zM432 563q0 -59 19 -104l335 336
q-52 27 -113 26q-102 0 -171 -70q-70 -70 -70 -188zM673 305q102 0 171 71q69 70 69 187q0 60 -20 112l-339 -339q52 -31 119 -31z" />
    <glyph glyph-name="ugrave" unicode="&#xf9;" horiz-adv-x="1319" 
d="M808 1237h-297l-253 401h383zM82 1126h384v-563q0 -130 44 -194t139 -64q99 0 152.5 67.5t53.5 190.5v563h384v-1126h-367l-17 134q-42 -73 -129.5 -113t-210.5 -40q-232 0 -332 148q-101 148 -101 434v563z" />
    <glyph glyph-name="uacute" unicode="&#xfa;" horiz-adv-x="1319" 
d="M1062 1638l-253 -401h-297l166 401h384zM82 1126h384v-563q0 -130 44 -194t139 -64q99 0 152.5 67.5t53.5 190.5v563h384v-1126h-367l-17 134q-42 -73 -129.5 -113t-210.5 -40q-232 0 -332 148q-101 148 -101 434v563z" />
    <glyph glyph-name="ucircumflex" unicode="&#xfb;" horiz-adv-x="1319" 
d="M864 1625l151 -388h-281l-74 218l-74 -218h-280l150 388h408zM82 1126h384v-563q0 -130 44 -194t139 -64q99 0 152.5 67.5t53.5 190.5v563h384v-1126h-367l-17 134q-42 -73 -129.5 -113t-210.5 -40q-232 0 -332 148q-101 148 -101 434v563z" />
    <glyph glyph-name="udieresis" unicode="&#xfc;" horiz-adv-x="1319" 
d="M457 1237q-70 0 -120 50t-50 120t50 120q49 49 120 49q69 0 119 -50q49 -49 49 -119q0 -71 -49 -120q-50 -50 -119 -50zM984 1287q-50 -50 -119 -50q-70 0 -120 50q-51 49 -51 120t51 120q49 49 120 49q70 0 119 -49t49 -120t-49 -120zM82 1126h384v-563q0 -130 44 -194
t139 -64q99 0 152.5 67.5t53.5 190.5v563h384v-1126h-367l-17 134q-42 -73 -129.5 -113t-210.5 -40q-232 0 -332 148q-101 148 -101 434v563z" />
    <glyph glyph-name="yacute" unicode="&#xfd;" horiz-adv-x="1355" 
d="M695 1638h384l-253 -401h-297zM678 337l225 789h419l-419 -1100q-97 -255 -262 -352q-167 -98 -442 -60l-18 280q138 -8 198 21q59 29 58 117l-403 1094h418z" />
    <glyph glyph-name="thorn" unicode="&#xfe;" 
d="M813 -19q-124 0 -215.5 40t-132.5 113v-544h-384v1946h384v-544q41 73 132.5 113.5t215.5 40.5q145 0 262.5 -72.5t186.5 -206.5q68 -134 68 -304t-68 -304q-70 -135 -187 -206q-119 -72 -262 -72zM877 751q-69 70 -171 70q-103 0 -172 -70q-69 -71 -69 -188t69 -187
q69 -71 172 -71q102 0 171 71q69 70 69 187t-69 188z" />
    <glyph glyph-name="ydieresis" unicode="&#xff;" horiz-adv-x="1355" 
d="M475 1237q-70 0 -120 50t-50 120t50 120q49 49 120 49q69 0 119 -50q49 -49 49 -119q0 -71 -49 -120q-50 -50 -119 -50zM1002 1287q-50 -50 -119 -50q-70 0 -120 50t-50 120t50 120q49 49 120 49q70 0 119 -49q50 -50 50 -120t-50 -120zM678 337l225 789h419l-419 -1100
q-97 -255 -262 -352q-167 -98 -442 -60l-18 280q138 -8 198 21q59 29 58 117l-403 1094h418z" />
    <glyph glyph-name="Amacron" unicode="&#x100;" horiz-adv-x="1514" 
d="M428 1842h659v-298h-659v298zM1492 0h-425l-58 208h-503l-59 -208h-424l412 1434h644zM758 1097l-160 -566h318z" />
    <glyph glyph-name="amacron" unicode="&#x101;" 
d="M339 1237v298h659v-298h-659zM565 1146q124 0 215.5 -40.5t132.5 -113.5l18 134h366v-1126h-366l-18 134q-39 -74 -130 -113.5t-218 -39.5q-220 0 -368 163q-148 161 -148 419q0 257 148 420t368 163zM502 376q68 -71 171 -71q102 0 171 71q69 70 69 187t-69 188
q-69 70 -171 70q-104 0 -171 -70q-69 -71 -69 -188t69 -187z" />
    <glyph glyph-name="Abreve" unicode="&#x102;" horiz-adv-x="1514" 
d="M1038 1631q-98 -87 -280 -87q-184 0 -280 87q-97 86 -95 262h282q0 -47 24.5 -75t68.5 -28q45 0 68.5 27t24.5 76h283q0 -177 -96 -262zM1492 0h-425l-58 208h-503l-59 -208h-424l412 1434h644zM758 1097l-160 -566h318z" />
    <glyph glyph-name="abreve" unicode="&#x103;" 
d="M294 1586h281q0 -46 25 -74.5t69 -28.5q45 0 68.5 27t24.5 76h282q0 -349 -375 -349q-185 0 -280.5 87t-94.5 262zM565 1146q124 0 215.5 -40.5t132.5 -113.5l18 134h366v-1126h-366l-18 134q-39 -74 -130 -113.5t-218 -39.5q-220 0 -368 163q-148 161 -148 419
q0 257 148 420t368 163zM502 376q68 -71 171 -71q102 0 171 71q69 70 69 187t-69 188q-69 70 -171 70q-104 0 -171 -70q-69 -71 -69 -188t69 -187z" />
    <glyph glyph-name="Aogonek" unicode="&#x104;" horiz-adv-x="1514" 
d="M1333 -236q29 -17 80 7l-2 -171q-69 -29 -142 -32q-127 -8 -195 63q-53 68 -30 166q10 49 42.5 104.5t75.5 98.5h-95l-58 208h-503l-59 -208h-424l412 1434h644l413 -1434h-96q-54 -61 -76 -119q-39 -86 13 -117zM758 1097l-160 -566h318z" />
    <glyph glyph-name="aogonek" unicode="&#x105;" 
d="M1297 0h-71q-54 -61 -76 -119q-39 -86 13 -117q29 -17 80 7l-2 -171q-69 -29 -142 -32q-127 -8 -195 63q-53 68 -30 166q10 49 42.5 104.5t75.5 98.5h-61l-18 134q-39 -74 -130 -113.5t-218 -39.5q-220 0 -368 163q-148 161 -148 419q0 257 148 420t368 163
q124 0 215.5 -40.5t132.5 -113.5l18 134h366v-1126zM502 376q68 -71 171 -71q102 0 171 71q69 70 69 187t-69 188q-69 70 -171 70q-104 0 -171 -70q-69 -71 -69 -188t69 -187z" />
    <glyph glyph-name="Cacute" unicode="&#x106;" horiz-adv-x="1570" 
d="M1227 1946l-253 -402h-297l166 402h384zM825 356q105 0 190.5 50.5t129.5 139.5l362 -170q-90 -184 -271 -289q-182 -105 -411 -105q-216 0 -388 91q-173 92 -273 260q-101 169 -101 384t101 385q100 167 273 259q172 91 388 91q229 0 411 -105q181 -105 271 -289
l-362 -170q-44 89 -129.5 139t-190.5 50q-153 0 -256 -100q-104 -101 -104 -260t104 -260t256 -101z" />
    <glyph glyph-name="cacute" unicode="&#x107;" horiz-adv-x="1286" 
d="M1075 1638l-253 -401h-297l166 401h384zM673 297q157 0 213 156l351 -141q-67 -153 -220 -241q-155 -89 -344 -89q-258 0 -436 150q-88 73 -138 185t-50 246t50 246.5t138 185.5q180 150 436 150q189 0 344 -89q152 -88 220 -242l-351 -140q-27 76 -83 115.5t-130 39.5
q-102 0 -171 -72q-70 -71 -70 -194t70 -194q69 -72 171 -72z" />
    <glyph glyph-name="Ccircumflex" unicode="&#x108;" horiz-adv-x="1570" 
d="M1029 1932l151 -388h-281l-74 218l-74 -218h-280l150 388h408zM825 356q105 0 190.5 50.5t129.5 139.5l362 -170q-90 -184 -271 -289q-182 -105 -411 -105q-216 0 -388 91q-173 92 -273 260q-101 169 -101 384t101 385q100 167 273 259q172 91 388 91q229 0 411 -105
q181 -105 271 -289l-362 -170q-44 89 -129.5 139t-190.5 50q-153 0 -256 -100q-104 -101 -104 -260t104 -260t256 -101z" />
    <glyph glyph-name="ccircumflex" unicode="&#x109;" horiz-adv-x="1286" 
d="M878 1625l150 -388h-280l-74 218l-75 -218h-280l150 388h409zM673 297q157 0 213 156l351 -141q-67 -153 -220 -241q-155 -89 -344 -89q-258 0 -436 150q-88 73 -138 185t-50 246t50 246.5t138 185.5q180 150 436 150q189 0 344 -89q152 -88 220 -242l-351 -140
q-27 76 -83 115.5t-130 39.5q-102 0 -171 -72q-70 -71 -70 -194t70 -194q69 -72 171 -72z" />
    <glyph glyph-name="Cdotaccent" unicode="&#x10a;" horiz-adv-x="1570" 
d="M826 1544q-70 0 -120 51q-50 50 -50 120q0 69 50 119q49 49 120 49q69 0 119 -50q49 -49 49 -119q0 -71 -49 -120q-50 -50 -119 -50zM825 356q105 0 190.5 50.5t129.5 139.5l362 -170q-90 -184 -271 -289q-182 -105 -411 -105q-216 0 -388 91q-173 92 -273 260
q-101 169 -101 384t101 385q100 167 273 259q172 91 388 91q229 0 411 -105q181 -105 271 -289l-362 -170q-44 89 -129.5 139t-190.5 50q-153 0 -256 -100q-104 -101 -104 -260t104 -260t256 -101z" />
    <glyph glyph-name="cdotaccent" unicode="&#x10b;" horiz-adv-x="1286" 
d="M674 1237q-70 0 -120 50t-50 120t50 120q49 49 120 49q69 0 119 -50q49 -49 49 -119q0 -71 -49 -120q-50 -50 -119 -50zM673 297q157 0 213 156l351 -141q-67 -153 -220 -241q-155 -89 -344 -89q-258 0 -436 150q-88 73 -138 185t-50 246t50 246.5t138 185.5
q180 150 436 150q189 0 344 -89q152 -88 220 -242l-351 -140q-27 76 -83 115.5t-130 39.5q-102 0 -171 -72q-70 -71 -70 -194t70 -194q69 -72 171 -72z" />
    <glyph glyph-name="Ccaron" unicode="&#x10c;" horiz-adv-x="1570" 
d="M899 1932h281l-151 -388h-408l-150 388h280l74 -217zM825 356q105 0 190.5 50.5t129.5 139.5l362 -170q-90 -184 -271 -289q-182 -105 -411 -105q-216 0 -388 91q-173 92 -273 260q-101 169 -101 384t101 385q100 167 273 259q172 91 388 91q229 0 411 -105
q181 -105 271 -289l-362 -170q-44 89 -129.5 139t-190.5 50q-153 0 -256 -100q-104 -101 -104 -260t104 -260t256 -101z" />
    <glyph glyph-name="ccaron" unicode="&#x10d;" horiz-adv-x="1286" 
d="M748 1625h280l-150 -388h-409l-150 388h280l75 -217zM673 297q157 0 213 156l351 -141q-67 -153 -220 -241q-155 -89 -344 -89q-258 0 -436 150q-88 73 -138 185t-50 246t50 246.5t138 185.5q180 150 436 150q189 0 344 -89q152 -88 220 -242l-351 -140q-27 76 -83 115.5
t-130 39.5q-102 0 -171 -72q-70 -71 -70 -194t70 -194q69 -72 171 -72z" />
    <glyph glyph-name="Dcaron" unicode="&#x10e;" horiz-adv-x="1542" 
d="M846 1932h280l-150 -388h-409l-149 388h279l75 -217zM104 1434h648q322 0 525 -200q202 -199 202 -517t-202 -517q-203 -200 -525 -200h-648v1434zM514 324h186q156 0 263 110q106 109 106 283q0 181 -105 287q-106 106 -264 106h-186v-786z" />
    <glyph glyph-name="dcaron" unicode="&#x10f;" horiz-adv-x="1952" 
d="M565 1146q124 0 215.5 -40.5t132.5 -113.5v544h384v-1536h-366l-18 134q-39 -74 -130 -113.5t-218 -39.5q-220 0 -368 163q-148 161 -148 419q0 257 148 420t368 163zM1422 912l81 522h402l-135 -522h-348zM673 305q102 0 171 71q69 70 69 187t-69 188q-69 70 -171 70
q-104 0 -171 -70q-69 -71 -69 -188t70 -187q69 -71 170 -71z" />
    <glyph glyph-name="Dcroat" unicode="&#x110;" horiz-adv-x="1598" 
d="M161 1434h646q213 0 379 -91t257 -254t91 -372q3 -206 -89.5 -371t-260 -257t-377.5 -89h-646v568h-96l-2 297h98v569zM570 324h186q155 0 262 110q106 109 106 283q0 181 -105 287q-106 106 -263 106h-186v-245h237v-297h-237v-244z" />
    <glyph glyph-name="dslash" unicode="&#x111;" horiz-adv-x="1386" 
d="M1297 1452h77v-229h-77v-1223h-366l-18 134q-39 -74 -130 -113.5t-218 -39.5q-220 0 -368 163q-148 161 -148 419q0 257 148 420t368 163q124 0 215.5 -40.5t132.5 -113.5v231h-303v229h303v84h384v-84zM673 305q102 0 171 71q69 70 69 187t-69 188q-69 70 -171 70
q-104 0 -171 -70q-69 -71 -69 -188t70 -187q69 -71 170 -71z" />
    <glyph glyph-name="Emacron" unicode="&#x112;" horiz-adv-x="1267" 
d="M305 1544v298h660v-298h-660zM104 0v1434h1028v-324h-618v-238h555v-323h-555v-225h648v-324h-1058z" />
    <glyph glyph-name="emacron" unicode="&#x113;" horiz-adv-x="1332" 
d="M337 1535h659v-298h-659v298zM673 1146q287 0 457 -176q84 -87 123.5 -218.5t26.5 -291.5h-834q25 -83 86.5 -131t140.5 -48q141 0 214 135l326 -158q-81 -132 -225 -204q-145 -73 -315 -73q-259 0 -437 150q-88 74 -137.5 186t-49.5 246t49.5 246.5t137.5 186.5
q180 150 437 150zM820 800q-58 46 -147 46t-147 -46q-59 -47 -82 -133h457q-23 87 -81 133z" />
    <glyph glyph-name="Edotaccent" unicode="&#x116;" horiz-adv-x="1267" 
d="M636 1544q-70 0 -120 51q-50 50 -50 120q0 69 50 119q49 49 120 49q69 0 119 -50q49 -49 49 -119q0 -71 -49 -120q-50 -50 -119 -50zM104 0v1434h1028v-324h-618v-238h555v-323h-555v-225h648v-324h-1058z" />
    <glyph glyph-name="edotaccent" unicode="&#x117;" horiz-adv-x="1332" 
d="M668 1237q-70 0 -120 50t-50 120t50 120q49 49 120 49q69 0 119 -50q49 -49 49 -119q0 -71 -49 -120q-50 -50 -119 -50zM673 1146q287 0 457 -176q84 -87 123.5 -218.5t26.5 -291.5h-834q25 -83 86.5 -131t140.5 -48q141 0 214 135l326 -158q-81 -132 -225 -204
q-145 -73 -315 -73q-259 0 -437 150q-88 74 -137.5 186t-49.5 246t49.5 246.5t137.5 186.5q180 150 437 150zM820 800q-58 46 -147 46t-147 -46q-59 -47 -82 -133h457q-23 87 -81 133z" />
    <glyph glyph-name="Eogonek" unicode="&#x118;" horiz-adv-x="1267" 
d="M1162 0h-413q-54 -61 -76 -119q-39 -86 13 -117q29 -17 80 7l-2 -171q-69 -29 -142 -32q-128 -8 -195 63q-53 68 -30 166q10 49 42.5 104.5t75.5 98.5h-411v1434h1028v-324h-618v-238h555v-323h-555v-225h648v-324z" />
    <glyph glyph-name="eogonek" unicode="&#x119;" horiz-adv-x="1332" 
d="M673 1146q287 0 457 -176q84 -87 123.5 -218.5t26.5 -291.5h-834q25 -83 86.5 -131t140.5 -48q141 0 214 135l326 -158q-57 -90 -139 -152q-32 -43 -47 -82q-39 -86 13 -117q29 -17 80 6l-2 -171q-69 -29 -142 -32q-128 -8 -195 64q-53 68 -29 166q6 24 14 47
q-46 -6 -93 -6q-259 0 -437 150q-88 74 -137.5 186t-49.5 246t49.5 246.5t137.5 186.5q180 150 437 150zM820 800q-58 46 -147 46t-147 -46q-59 -47 -82 -133h457q-23 87 -81 133z" />
    <glyph glyph-name="Ecaron" unicode="&#x11a;" horiz-adv-x="1267" 
d="M709 1932h280l-150 -388h-409l-149 388h279l75 -217zM104 0v1434h1028v-324h-618v-238h555v-323h-555v-225h648v-324h-1058z" />
    <glyph glyph-name="ecaron" unicode="&#x11b;" horiz-adv-x="1332" 
d="M1021 1625l-151 -388h-408l-150 388h280l75 -217l73 217h281zM673 1146q287 0 457 -176q84 -87 123.5 -218.5t26.5 -291.5h-834q25 -83 86.5 -131t140.5 -48q141 0 214 135l326 -158q-81 -132 -225 -204q-145 -73 -315 -73q-259 0 -437 150q-88 74 -137.5 186t-49.5 246
t49.5 246.5t137.5 186.5q180 150 437 150zM820 800q-58 46 -147 46t-147 -46q-59 -47 -82 -133h457q-23 87 -81 133z" />
    <glyph glyph-name="Gcircumflex" unicode="&#x11c;" horiz-adv-x="1650" 
d="M900 1544l-74 218l-74 -218h-280l150 388h408l151 -388h-281zM782 568v237h805v-88q0 -217 -100 -384q-99 -167 -274 -260q-172 -91 -388 -91t-388 91q-173 92 -273 260q-101 169 -101 384t101 385q100 167 273 259q172 91 388 91q229 0 411 -105q181 -105 271 -289
l-362 -170q-44 89 -129.5 139t-190.5 50q-153 0 -256 -100q-104 -101 -104 -260t105 -259q104 -102 255 -102q101 0 187 61q87 61 134 151h-364z" />
    <glyph glyph-name="gcircumflex" unicode="&#x11d;" 
d="M890 1625l150 -388h-280l-74 218l-75 -218h-279l149 388h409zM913 992l18 134h366v-1046q0 -163 -80 -281q-80 -116 -214 -172q-136 -56 -309 -56q-351 0 -563 236l177 203q125 -137 356 -137q103 0 176 61t73 163v83q-74 -137 -348 -137q-107 0 -202 39t-165 110
t-109.5 174t-39.5 221q0 241 149 401q149 158 367 158q124 0 215.5 -40.5t132.5 -113.5zM673 351q101 0 171 67q69 68 69 169t-69 168q-70 66 -171 66q-99 0 -170 -66q-70 -67 -70 -168q0 -102 70 -169t170 -67z" />
    <glyph glyph-name="Gbreve" unicode="&#x11e;" horiz-adv-x="1650" 
d="M1105 1631q-96 -87 -279 -87q-184 0 -280 87q-97 86 -95 262h281q0 -47 24.5 -75t68.5 -28q45 0 69 27t25 76h282q0 -177 -96 -262zM782 568v237h805v-88q0 -217 -100 -384q-99 -167 -274 -260q-172 -91 -388 -91t-388 91q-173 92 -273 260q-101 169 -101 384t101 385
q100 167 273 259q172 91 388 91q229 0 411 -105q181 -105 271 -289l-362 -170q-44 89 -129.5 139t-190.5 50q-153 0 -256 -100q-104 -101 -104 -260t105 -259q104 -102 255 -102q101 0 187 61q87 61 134 151h-364z" />
    <glyph glyph-name="gbreve" unicode="&#x11f;" 
d="M310 1586h282q0 -47 24.5 -75t68.5 -28q45 0 68.5 27t24.5 76h283q0 -175 -95.5 -262t-280.5 -87t-280.5 87t-94.5 262zM913 992l18 134h366v-1046q0 -163 -80 -281q-80 -116 -214 -172q-136 -56 -309 -56q-351 0 -563 236l177 203q125 -137 356 -137q103 0 176 61
t73 163v83q-74 -137 -348 -137q-107 0 -202 39t-165 110t-109.5 174t-39.5 221q0 241 149 401q149 158 367 158q124 0 215.5 -40.5t132.5 -113.5zM673 351q101 0 171 67q69 68 69 169t-69 168q-70 66 -171 66q-99 0 -170 -66q-70 -67 -70 -168q0 -102 70 -169t170 -67z" />
    <glyph glyph-name="Gdotaccent" unicode="&#x120;" horiz-adv-x="1650" 
d="M826 1544q-70 0 -120 51q-50 50 -50 120q0 69 50 119q49 49 120 49q69 0 119 -50q49 -49 49 -119q0 -71 -49 -120q-50 -50 -119 -50zM782 568v237h805v-88q0 -217 -100 -384q-99 -167 -274 -260q-172 -91 -388 -91t-388 91q-173 92 -273 260q-101 169 -101 384t101 385
q100 167 273 259q172 91 388 91q229 0 411 -105q181 -105 271 -289l-362 -170q-44 89 -129.5 139t-190.5 50q-153 0 -256 -100q-104 -101 -104 -260t105 -259q104 -102 255 -102q101 0 187 61q87 61 134 151h-364z" />
    <glyph glyph-name="gdotaccent" unicode="&#x121;" 
d="M686 1237q-70 0 -120 50t-50 120t50 120q49 49 120 49q69 0 119 -50q49 -49 49 -119q0 -71 -49 -120q-50 -50 -119 -50zM913 992l18 134h366v-1046q0 -163 -80 -281q-80 -116 -214 -172q-136 -56 -309 -56q-351 0 -563 236l177 203q125 -137 356 -137q103 0 176 61
t73 163v83q-74 -137 -348 -137q-107 0 -202 39t-165 110t-109.5 174t-39.5 221q0 241 149 401q149 158 367 158q124 0 215.5 -40.5t132.5 -113.5zM673 351q101 0 171 67q69 68 69 169t-69 168q-70 66 -171 66q-99 0 -170 -66q-70 -67 -70 -168q0 -102 70 -169t170 -67z" />
    <glyph glyph-name="uni0122" unicode="&#x122;" horiz-adv-x="1650" 
d="M782 568v237h805v-88q0 -217 -100 -384q-99 -167 -274 -260q-172 -91 -388 -91t-388 91q-173 92 -273 260q-101 169 -101 384t101 385q100 167 273 259q172 91 388 91q229 0 411 -105q181 -105 271 -289l-362 -170q-44 89 -129.5 139t-190.5 50q-153 0 -256 -100
q-104 -101 -104 -260t105 -259q104 -102 255 -102q101 0 187 61q87 61 134 151h-364zM858 -572h-279l80 461h332z" />
    <glyph glyph-name="uni0123" unicode="&#x123;" 
d="M933 1699l-81 -462h-332l133 462h280zM913 992l18 134h366v-1046q0 -163 -80 -281q-80 -116 -214 -172q-136 -56 -309 -56q-351 0 -563 236l177 203q125 -137 356 -137q103 0 176 61t73 163v83q-74 -137 -348 -137q-107 0 -202 39t-165 110t-109.5 174t-39.5 221
q0 241 149 401q149 158 367 158q124 0 215.5 -40.5t132.5 -113.5zM673 351q101 0 171 67q69 68 69 169t-69 168q-70 66 -171 66q-99 0 -170 -66q-70 -67 -70 -168q0 -102 70 -169t170 -67z" />
    <glyph glyph-name="Hbar" unicode="&#x126;" horiz-adv-x="1491" 
d="M1386 1285h67v-297h-67v-988h-409v514h-463v-514h-410v988h-64l-1 297h65v149h409v-149h465v149h408v-149zM513 838h465v150h-465v-150z" />
    <glyph glyph-name="hbar" unicode="&#x127;" horiz-adv-x="1334" 
d="M811 1146q237 0 340 -148q102 -148 102 -435v-563h-384v563q0 130 -46 194t-145 64q-100 0 -156.5 -68.5t-56.5 -189.5v-563h-384v1223h-65v229h65v84h384v-84h314v-229h-314v-231q41 73 132 113.5t214 40.5z" />
    <glyph glyph-name="Itilde" unicode="&#x128;" horiz-adv-x="619" 
d="M470 1908h259q0 -174 -80 -266q-79 -95 -204 -82q-61 3 -138 36q-79 32 -108 38q-35 4 -46 -23q-3 -8 -5 -65h-259q0 165 75 255q76 104 207 94q65 -3 137 -36q72 -34 113 -38q32 -3 43 21q6 14 6 66zM104 0v1434h410v-1434h-410z" />
    <glyph glyph-name="itilde" unicode="&#x129;" horiz-adv-x="545" 
d="M433 1601h259q0 -174 -80 -266q-78 -95 -203 -83q-61 3 -138 36q-76 33 -109 39q-35 4 -46 -23q-4 -9 -4 -65h-259q0 164 74 255q76 104 207 94q65 -3 137 -36q70 -33 113 -39q33 -3 43 22q6 13 6 66zM81 0v1126h384v-1126h-384z" />
    <glyph glyph-name="Imacron" unicode="&#x12a;" horiz-adv-x="619" 
d="M-22 1544v298h661v-298h-661zM104 0v1434h410v-1434h-410z" />
    <glyph glyph-name="imacron" unicode="&#x12b;" horiz-adv-x="545" 
d="M-57 1237v298h660v-298h-660zM81 0v1126h384v-1126h-384z" />
    <glyph glyph-name="Iogonek" unicode="&#x12e;" horiz-adv-x="619" 
d="M514 0h-90q-54 -61 -76 -119q-39 -86 13 -117q29 -17 80 7l-2 -171q-69 -29 -142 -32q-127 -8 -195 63q-53 68 -29 166q10 49 42 104.5t75 98.5h-86v1434h410v-1434z" />
    <glyph glyph-name="iogonek" unicode="&#x12f;" horiz-adv-x="545" 
d="M273 1241q-91 0 -156 66q-65 65 -65 156q0 90 65 155t156 65q89 0 156 -65q65 -65 65 -155q0 -91 -65 -156q-66 -66 -156 -66zM155 0h-74v1126h384v-1126h-77q-54 -61 -76 -119q-39 -85 14 -117q29 -17 80 7l-3 -171q-69 -29 -142 -32q-128 -8 -194 63q-53 68 -30 166
q10 49 42.5 104.5t75.5 98.5z" />
    <glyph glyph-name="Idot" unicode="&#x130;" horiz-adv-x="619" 
d="M310 1544q-70 0 -120 51q-50 50 -50 120q0 69 50 119q49 49 120 49q69 0 119 -50q49 -49 49 -119q0 -71 -49 -120q-50 -50 -119 -50zM104 0v1434h410v-1434h-410z" />
    <glyph glyph-name="dotlessi" unicode="&#x131;" horiz-adv-x="545" 
d="M81 0v1126h384v-1126h-384z" />
    <glyph glyph-name="Jcircumflex" unicode="&#x134;" horiz-adv-x="1379" 
d="M880 1932l150 -388h-280l-74 218l-75 -218h-279l149 388h409zM63 418l398 98q17 -78 67.5 -119t129.5 -41q98 0 152 62t54 176l1 840h410v-814q0 -310 -165 -473q-165 -165 -452 -165q-237 0 -390.5 111.5t-204.5 324.5z" />
    <glyph glyph-name="jcircumflex" unicode="&#x135;" horiz-adv-x="545" 
d="M477 1625l151 -388h-281l-74 218l-74 -218h-281l151 388h408zM81 1126h384v-1140q0 -225 -95 -329q-96 -104 -317 -104q-105 0 -224 16v289q105 -18 169 1q83 23 83 127v1140z" />
    <glyph glyph-name="uni0136" unicode="&#x136;" horiz-adv-x="1360" 
d="M909 1434h428l-439 -605l439 -829h-428l-260 488l-135 -186v-302h-410v1434h410v-576zM713 -572h-280l81 461h332z" />
    <glyph glyph-name="uni0137" unicode="&#x137;" horiz-adv-x="1294" 
d="M842 1126h419l-405 -458l405 -668h-411l-232 397l-130 -147v-250h-384v1536h384v-822zM716 -572h-280l81 461h332z" />
    <glyph glyph-name="Lacute" unicode="&#x139;" horiz-adv-x="1150" 
d="M978 1946l-253 -402h-297l166 402h384zM1047 0h-943v1434h410l-1 -1110h534v-324z" />
    <glyph glyph-name="lacute" unicode="&#x13a;" horiz-adv-x="545" 
d="M675 2064l-253 -401h-297l166 401h384zM81 0v1536h384v-1536h-384z" />
    <glyph glyph-name="uni013B" unicode="&#x13b;" horiz-adv-x="1150" 
d="M1047 0h-943v1434h410l-1 -1110h534v-324zM329 -572l81 461h331l-133 -461h-279z" />
    <glyph glyph-name="uni013C" unicode="&#x13c;" horiz-adv-x="545" 
d="M81 0v1536h384v-1536h-384zM26 -572l80 461h332l-133 -461h-279z" />
    <glyph glyph-name="Lcaron" unicode="&#x13d;" horiz-adv-x="1379" 
d="M1047 0h-943v1434h410l-1 -1110h534v-324zM848 912l82 522h400l-133 -522h-349z" />
    <glyph glyph-name="lcaron" unicode="&#x13e;" horiz-adv-x="1124" 
d="M81 0v1536h384v-1536h-384zM593 912l82 522h400l-133 -522h-349z" />
    <glyph glyph-name="Lslash" unicode="&#x141;" horiz-adv-x="1150" 
d="M513 708v-384h534v-324h-943v613l-88 -20v298l88 20v523h410v-428l307 71v-298z" />
    <glyph glyph-name="lslash" unicode="&#x142;" horiz-adv-x="545" 
d="M465 1047l64 22v-298l-64 -22v-749h-384v615l-65 -22v298l65 22v623h384v-489z" />
    <glyph glyph-name="Nacute" unicode="&#x143;" horiz-adv-x="1458" 
d="M1130 1946l-252 -402h-297l165 402h384zM943 822v612h410v-1452l-839 629v-611h-410v1452z" />
    <glyph glyph-name="nacute" unicode="&#x144;" horiz-adv-x="1319" 
d="M1065 1638l-253 -401h-297l166 401h384zM1238 0h-383v563q0 130 -44 194t-139 64q-99 0 -153 -67.5t-54 -190.5v-563h-384v1126h366l18 -134q42 73 129.5 113.5t210.5 40.5q233 0 333 -148t100 -435v-563z" />
    <glyph glyph-name="uni0145" unicode="&#x145;" horiz-adv-x="1458" 
d="M943 822v612h410v-1452l-839 629v-611h-410v1452zM482 -572l81 461h332l-133 -461h-280z" />
    <glyph glyph-name="uni0146" unicode="&#x146;" horiz-adv-x="1319" 
d="M1238 0h-383v563q0 130 -44 194t-139 64q-99 0 -153 -67.5t-54 -190.5v-563h-384v1126h366l18 -134q42 73 129.5 113.5t210.5 40.5q233 0 333 -148t100 -435v-563zM416 -572l81 461h331l-133 -461h-279z" />
    <glyph glyph-name="Ncaron" unicode="&#x147;" horiz-adv-x="1458" 
d="M804 1932h280l-150 -388h-409l-149 388h279l75 -217zM943 822v612h410v-1452l-839 629v-611h-410v1452z" />
    <glyph glyph-name="ncaron" unicode="&#x148;" horiz-adv-x="1319" 
d="M737 1625h281l-151 -388h-408l-150 388h280l75 -217zM1238 0h-383v563q0 130 -44 194t-139 64q-99 0 -153 -67.5t-54 -190.5v-563h-384v1126h366l18 -134q42 73 129.5 113.5t210.5 40.5q233 0 333 -148t100 -435v-563z" />
    <glyph glyph-name="Eng" unicode="&#x14a;" horiz-adv-x="1458" 
d="M943 1434h410v-1466q0 -224 -94 -319q-95 -96 -318 -96q-105 0 -223 16v289q105 -19 168 1q84 24 84 127v283l-456 342v-611h-410v1452l839 -630v612z" />
    <glyph glyph-name="eng" unicode="&#x14b;" horiz-adv-x="1318" 
d="M805 1146q233 0 333 -148t100 -435v-577q0 -225 -95 -329t-317 -104q-105 0 -223 16v289q103 -18 168 1q83 23 83 127v416h1v161q0 130 -44 194t-139 64q-99 0 -153 -67.5t-54 -190.5v-563h-384v1126h366l18 -134q42 73 129.5 113.5t210.5 40.5z" />
    <glyph glyph-name="Omacron" unicode="&#x14c;" horiz-adv-x="1650" 
d="M496 1544v298h659v-298h-659zM1213 73q-172 -91 -388 -91t-388 91q-173 92 -273 260q-101 169 -101 384t101 385q100 167 273 259q172 91 388 91t388 -91q174 -93 274 -259q100 -169 100 -385q0 -217 -100 -384q-99 -167 -274 -260zM570 458q104 -102 256 -102
q151 0 256 102q104 101 104 259q0 159 -104 260q-104 100 -256 100q-153 0 -256 -100q-105 -101 -105 -260t105 -259z" />
    <glyph glyph-name="omacron" unicode="&#x14d;" horiz-adv-x="1345" 
d="M343 1237v298h659v-298h-659zM911 21q-111 -38 -238 -38t-238 38q-239 82 -335 295q-51 111 -51 247q0 135 51 248q95 211 335 295q111 38 238 38t238 -38q240 -84 336 -295q50 -114 50 -248q0 -135 -50 -247q-97 -213 -336 -295zM501 376q69 -71 172 -71q102 0 171 71
q69 70 69 187t-69 188q-69 70 -171 70q-103 0 -172 -70q-69 -71 -69 -188t69 -187z" />
    <glyph glyph-name="Ohungarumlaut" unicode="&#x150;" horiz-adv-x="1650" 
d="M988 1946l-227 -402h-297l226 402h298zM1415 1946l-227 -402h-297l226 402h298zM1213 73q-172 -91 -388 -91t-388 91q-173 92 -273 260q-101 169 -101 384t101 385q100 167 273 259q172 91 388 91t388 -91q174 -93 274 -259q100 -169 100 -385q0 -217 -100 -384
q-99 -167 -274 -260zM570 458q104 -102 256 -102q151 0 256 102q104 101 104 259q0 159 -104 260q-104 100 -256 100q-153 0 -256 -100q-105 -101 -105 -260t105 -259z" />
    <glyph glyph-name="ohungarumlaut" unicode="&#x151;" horiz-adv-x="1345" 
d="M836 1638l-228 -401h-297l227 401h298zM1263 1638l-228 -401h-297l227 401h298zM911 21q-111 -38 -238 -38t-238 38q-239 82 -335 295q-51 111 -51 247q0 135 51 248q95 211 335 295q111 38 238 38t238 -38q240 -84 336 -295q50 -114 50 -248q0 -135 -50 -247
q-97 -213 -336 -295zM501 376q69 -71 172 -71q102 0 171 71q69 70 69 187t-69 188q-69 70 -171 70q-103 0 -172 -70q-69 -71 -69 -188t69 -187z" />
    <glyph glyph-name="OE" unicode="&#x152;" horiz-adv-x="2398" 
d="M1645 549v-225h648v-324h-1058v86q-181 -104 -410 -104q-216 0 -388 91q-173 92 -273 260q-101 169 -101 384t101 385q100 167 273 259q172 91 388 91q228 0 410 -104v86h1027v-324h-617v-238h555v-323h-555zM570 458q104 -102 256 -102q151 0 256 102q104 101 104 259
q0 159 -104 260q-104 100 -256 100q-153 0 -256 -100q-105 -101 -105 -260t105 -259z" />
    <glyph glyph-name="oe" unicode="&#x153;" horiz-adv-x="2299" 
d="M1640 1146q286 0 457 -176q84 -87 124 -218.5t27 -291.5h-834q25 -83 86 -131t140 -48q140 0 214 135l327 -158q-81 -132 -226 -204q-145 -73 -315 -73q-145 0 -271.5 50.5t-212.5 145.5q-86 -94 -212 -144.5t-271 -50.5q-258 0 -436 150q-88 73 -138 185t-50 246
t50 246.5t138 185.5q180 150 436 150q145 0 271 -50.5t212 -145.5q87 95 213 146t271 51zM1788 800q-58 46 -147 46t-147 -46q-59 -47 -82 -133h457q-23 87 -81 133zM501 376q69 -71 172 -71q102 0 171 71q69 70 69 187t-69 188q-69 70 -171 70q-103 0 -172 -70
q-69 -71 -69 -188t69 -187z" />
    <glyph glyph-name="Racute" unicode="&#x154;" horiz-adv-x="1385" 
d="M711 1946h384l-253 -402h-297zM1314 906q0 -161 -69.5 -280.5t-204.5 -182.5l271 -443h-411l-225 380h-161v-380h-410v1434h614q288 0 443 -143q153 -144 153 -385zM513 1110v-407h162q102 0 166 58q63 59 63 145q0 88 -63 146q-62 58 -166 58h-162z" />
    <glyph glyph-name="racute" unicode="&#x155;" horiz-adv-x="860" 
d="M831 1638l-252 -401h-297l165 401h384zM81 0v1126h366l18 -125q93 143 346 144v-324q-346 0 -346 -258v-563h-384z" />
    <glyph glyph-name="uni0156" unicode="&#x156;" horiz-adv-x="1385" 
d="M1314 906q0 -161 -69.5 -280.5t-204.5 -182.5l271 -443h-411l-225 380h-161v-380h-410v1434h614q288 0 443 -143q153 -144 153 -385zM513 1110v-407h162q102 0 166 58q63 59 63 145q0 88 -63 146q-62 58 -166 58h-162zM726 -572h-280l81 461h332z" />
    <glyph glyph-name="uni0157" unicode="&#x157;" horiz-adv-x="860" 
d="M81 0v1126h366l18 -125q93 143 346 144v-324q-346 0 -346 -258v-563h-384zM183 -572l81 461h332l-133 -461h-280z" />
    <glyph glyph-name="Rcaron" unicode="&#x158;" horiz-adv-x="1385" 
d="M1048 1932l-151 -388h-409l-149 388h279l75 -217l74 217h281zM1314 906q0 -161 -69.5 -280.5t-204.5 -182.5l271 -443h-411l-225 380h-161v-380h-410v1434h614q288 0 443 -143q153 -144 153 -385zM513 1110v-407h162q102 0 166 58q63 59 63 145q0 88 -63 146
q-62 58 -166 58h-162z" />
    <glyph glyph-name="rcaron" unicode="&#x159;" horiz-adv-x="860" 
d="M505 1625h280l-150 -388h-409l-149 388h279l75 -217zM81 0v1126h366l18 -125q93 143 346 144v-324q-346 0 -346 -258v-563h-384z" />
    <glyph glyph-name="Sacute" unicode="&#x15a;" horiz-adv-x="1318" 
d="M1062 1946l-253 -402h-297l166 402h384zM1210 1027l-409 -28q-19 137 -153 139q-73 0 -112 -29.5t-39 -81.5q0 -50 56 -78q34 -18 111 -43q37 -11 153 -47q45 -14 129 -46q114 -46 196 -112q59 -49 85 -111.5t28 -153.5q-2 -223 -159 -338q-158 -116 -433 -116
q-271 0 -432 117q-161 115 -168 339l410 28q7 -76 57 -116t132 -40q83 0 131 30.5t49 86.5q-4 74 -120 125q-52 22 -154 54q-74 22 -101 31q-56 19 -87 31q-48 17 -79 33q-87 43 -119 78q-54 56 -71 108q-24 74 -24 156q0 136 76 230t200 137q123 42 286 42q247 0 400 -108
q152 -110 161 -317z" />
    <glyph glyph-name="sacute" unicode="&#x15b;" horiz-adv-x="1163" 
d="M984 1638l-253 -401h-297l166 401h384zM1086 807l-384 -20q-5 43 -38 72t-82 29q-59 0 -91.5 -21t-32.5 -60q0 -36 35.5 -57.5t107.5 -38.5q117 -29 192 -51t144 -54q71 -32 105 -65q78 -76 72 -193q-7 -180 -140.5 -273t-388.5 -93q-250 0 -389.5 94t-146.5 267l383 28
q7 -56 49.5 -90t103.5 -34q64 0 103.5 24t39.5 66q0 44 -62 79q-60 33 -155 55q-112 28 -144 38q-60 16 -111 37q-53 21 -85 45q-102 77 -97 226q0 161 134 245t383 84q230 0 359 -87.5t136 -251.5z" />
    <glyph glyph-name="Scircumflex" unicode="&#x15c;" horiz-adv-x="1318" 
d="M864 1932l151 -388h-281l-74 218l-74 -218h-280l150 388h408zM1210 1027l-409 -28q-19 137 -153 139q-73 0 -112 -29.5t-39 -81.5q0 -50 56 -78q34 -18 111 -43q37 -11 153 -47q45 -14 129 -46q114 -46 196 -112q59 -49 85 -111.5t28 -153.5q-2 -223 -159 -338
q-158 -116 -433 -116q-271 0 -432 117q-161 115 -168 339l410 28q7 -76 57 -116t132 -40q83 0 131 30.5t49 86.5q-4 74 -120 125q-52 22 -154 54q-74 22 -101 31q-56 19 -87 31q-48 17 -79 33q-87 43 -119 78q-54 56 -71 108q-24 74 -24 156q0 136 76 230t200 137
q123 42 286 42q247 0 400 -108q152 -110 161 -317z" />
    <glyph glyph-name="Scedilla" unicode="&#x15e;" horiz-adv-x="1318" 
d="M664 906q37 -11 153 -47q45 -14 129 -46q114 -46 196 -112q59 -49 85 -111.5t28 -153.5q-1 -201 -132 -317q-131 -115 -365 -133v-29q38 3 73.5 -19.5t52.5 -55.5q26 -45 16 -104q-11 -60 -53 -96q-51 -48 -137 -61t-235 -4v171q108 -8 151 4q33 7 47 24t3 37
q-7 18 -39.5 27t-73.5 2v104q-227 19 -360 136q-133 116 -140 316l410 28q7 -76 57 -116t132 -40q83 0 131 30.5t49 86.5q-4 74 -120 125q-52 22 -154 54q-74 22 -101 31q-56 19 -87 31q-48 17 -79 33q-87 43 -119 78q-54 56 -71 108q-24 74 -24 156q0 136 76 230t200 137
q123 42 286 42q247 0 400 -108q152 -110 161 -317l-409 -28q-19 137 -153 139q-73 0 -112 -29.5t-39 -81.5q0 -50 56 -78q41 -22 111 -43z" />
    <glyph glyph-name="scedilla" unicode="&#x15f;" horiz-adv-x="1163" 
d="M601 711q117 -29 192 -51t144 -54q71 -32 105 -65q78 -76 72 -193q-6 -162 -115.5 -254t-318.5 -108v-29q38 3 74 -20t52 -55q26 -45 16 -104q-11 -60 -53 -96q-51 -48 -137 -61t-235 -4v171q108 -8 151 4q33 7 47 24t3 37q-7 18 -39.5 27t-73.5 2v104q-204 18 -317 110
t-119 247l383 28q7 -56 49.5 -90t103.5 -34q64 0 103.5 24t39.5 66q0 44 -62 79q-60 33 -155 55q-112 28 -144 38q-60 16 -111 37q-53 21 -85 45q-102 77 -97 226q0 161 134 245t383 84q230 0 359 -87.5t136 -251.5l-384 -20q-5 43 -38 72t-82 29q-59 0 -91.5 -21t-32.5 -60
q0 -36 35 -57.5t108 -38.5z" />
    <glyph glyph-name="Scaron" unicode="&#x160;" horiz-adv-x="1318" 
d="M734 1932h281l-151 -388h-408l-150 388h280l74 -217zM1210 1027l-409 -28q-19 137 -153 139q-73 0 -112 -29.5t-39 -81.5q0 -50 56 -78q34 -18 111 -43q37 -11 153 -47q45 -14 129 -46q114 -46 196 -112q59 -49 85 -111.5t28 -153.5q-2 -223 -159 -338
q-158 -116 -433 -116q-271 0 -432 117q-161 115 -168 339l410 28q7 -76 57 -116t132 -40q83 0 131 30.5t49 86.5q-4 74 -120 125q-52 22 -154 54q-74 22 -101 31q-56 19 -87 31q-48 17 -79 33q-87 43 -119 78q-54 56 -71 108q-24 74 -24 156q0 136 76 230t200 137
q123 42 286 42q247 0 400 -108q152 -110 161 -317z" />
    <glyph glyph-name="scaron" unicode="&#x161;" horiz-adv-x="1163" 
d="M656 1625h281l-151 -388h-408l-150 388h280l75 -217zM1086 807l-384 -20q-5 43 -38 72t-82 29q-59 0 -91.5 -21t-32.5 -60q0 -36 35.5 -57.5t107.5 -38.5q117 -29 192 -51t144 -54q71 -32 105 -65q78 -76 72 -193q-7 -180 -140.5 -273t-388.5 -93q-250 0 -389.5 94
t-146.5 267l383 28q7 -56 49.5 -90t103.5 -34q64 0 103.5 24t39.5 66q0 44 -62 79q-60 33 -155 55q-112 28 -144 38q-60 16 -111 37q-53 21 -85 45q-102 77 -97 226q0 161 134 245t383 84q230 0 359 -87.5t136 -251.5z" />
    <glyph glyph-name="uni0162" unicode="&#x162;" horiz-adv-x="1232" 
d="M821 1110v-1110h-107v-43q38 3 73.5 -19.5t52.5 -55.5q26 -45 16 -104q-11 -60 -53 -96q-51 -48 -137 -61t-235 -4v171q108 -8 151 4q33 7 47 24t3 37q-7 18 -39.5 27t-73.5 2v118h-107v1110h-349v324h1106v-324h-348z" />
    <glyph glyph-name="uni0163" unicode="&#x163;" horiz-adv-x="932" 
d="M852 -136q26 -45 16 -104q-11 -61 -53 -97q-51 -48 -137 -61t-235 -3v171q108 -8 151 4q33 7 47 24t3 36q-7 18 -39.5 27.5t-73.5 2.5v124q-166 22 -240 127t-74 311v402h-136v298h136v250h383v-250h252v-298h-252v-388q0 -100 77 -124q67 -24 175 -5v-313
q-44 -8 -126 -12v-47q38 3 74 -20t52 -55z" />
    <glyph glyph-name="Tcaron" unicode="&#x164;" horiz-adv-x="1232" 
d="M691 1932h281l-151 -388h-408l-150 388h280l74 -217zM63 1434h1106v-324h-348v-1110h-409v1110h-349v324z" />
    <glyph glyph-name="tcaron" unicode="&#x165;" horiz-adv-x="1490" 
d="M961 912l80 522h402l-134 -522h-348zM217 1126v250h383v-250h252v-298h-252v-388q0 -100 77 -124q67 -24 175 -5v-313q-105 -16 -223 -16q-221 0 -316 108q-96 108 -96 336v402h-136v298h136z" />
    <glyph glyph-name="Tbar" unicode="&#x166;" horiz-adv-x="1232" 
d="M1169 1434v-324h-348v-245h275v-297h-275v-568h-409v568h-275v297h275v245h-349v324h1106z" />
    <glyph glyph-name="tbar" unicode="&#x167;" horiz-adv-x="936" 
d="M855 1126v-220h-251v-91h248v-220h-248v-155q0 -100 77 -124q64 -25 174 -5v-313q-105 -16 -223 -16q-222 0 -316 108q-96 108 -96 336v169h-139v220h139v91h-136v220h136v259h384v-259h251z" />
    <glyph glyph-name="Utilde" unicode="&#x168;" horiz-adv-x="1443" 
d="M883 1908h259q0 -174 -80 -266q-79 -95 -204 -82q-62 3 -138 36q-78 32 -109 38q-35 4 -46 -23q-4 -9 -4 -65h-258q0 166 74 255q76 104 207 94q65 -3 137 -36q72 -34 113 -38q32 -3 43 21q6 14 6 66zM928 594l1 840h409v-814q0 -309 -164 -473q-165 -165 -452 -165
t-453 164q-165 164 -165 474v814h410v-840q0 -114 54.5 -176t153.5 -62t152.5 62t53.5 176z" />
    <glyph glyph-name="utilde" unicode="&#x169;" horiz-adv-x="1319" 
d="M820 1601h259q0 -174 -80 -266q-78 -95 -203 -83q-62 3 -138 36t-109 39q-35 4 -46 -23q-4 -9 -4 -65h-258q0 167 73 255q76 104 207 94q65 -3 137 -36q70 -33 113 -39q33 -3 43 22q6 13 6 66zM82 1126h384v-563q0 -130 44 -194t139 -64q99 0 152.5 67.5t53.5 190.5v563
h384v-1126h-367l-17 134q-42 -73 -129.5 -113t-210.5 -40q-232 0 -332 148q-101 148 -101 434v563z" />
    <glyph glyph-name="Umacron" unicode="&#x16a;" horiz-adv-x="1443" 
d="M392 1544v298h660v-298h-660zM928 594l1 840h409v-814q0 -309 -164 -473q-165 -165 -452 -165t-453 164q-165 164 -165 474v814h410v-840q0 -114 54.5 -176t153.5 -62t152.5 62t53.5 176z" />
    <glyph glyph-name="umacron" unicode="&#x16b;" horiz-adv-x="1319" 
d="M330 1237v298h659v-298h-659zM82 1126h384v-563q0 -130 44 -194t139 -64q99 0 152.5 67.5t53.5 190.5v563h384v-1126h-367l-17 134q-42 -73 -129.5 -113t-210.5 -40q-232 0 -332 148q-101 148 -101 434v563z" />
    <glyph glyph-name="Uring" unicode="&#x16e;" horiz-adv-x="1443" 
d="M723 1536q-129 0 -221 92t-92 222q0 127 92 219t221 92q127 0 219 -92t92 -219q0 -131 -91 -222q-92 -92 -220 -92zM654 1780q28 -28 68 -28t68 28t28 68t-28 69t-68 29t-68 -29t-28 -69t28 -68zM928 594l1 840h409v-814q0 -309 -164 -473q-165 -165 -452 -165t-453 164
q-165 164 -165 474v814h410v-840q0 -114 54.5 -176t153.5 -62t152.5 62t53.5 176z" />
    <glyph glyph-name="uring" unicode="&#x16f;" horiz-adv-x="1319" 
d="M662 1229q-130 0 -222 92t-92 222q0 127 92 219q91 91 222 91q128 0 219 -91q92 -92 92 -219q0 -131 -91 -222q-92 -92 -220 -92zM592 1473q29 -28 68.5 -28t68.5 28t29 68t-29 68t-68.5 28t-68.5 -28t-29 -68t29 -68zM82 1126h384v-563q0 -130 44 -194t139 -64
q99 0 152.5 67.5t53.5 190.5v563h384v-1126h-367l-17 134q-42 -73 -129.5 -113t-210.5 -40q-232 0 -332 148q-101 148 -101 434v563z" />
    <glyph glyph-name="Uhungarumlaut" unicode="&#x170;" horiz-adv-x="1443" 
d="M885 1946l-228 -402h-297l227 402h298zM1312 1946l-228 -402h-297l227 402h298zM928 594l1 840h409v-814q0 -309 -164 -473q-165 -165 -452 -165t-453 164q-165 164 -165 474v814h410v-840q0 -114 54.5 -176t153.5 -62t152.5 62t53.5 176z" />
    <glyph glyph-name="uhungarumlaut" unicode="&#x171;" horiz-adv-x="1319" 
d="M822 1638l-227 -401h-297l226 401h298zM1249 1638l-227 -401h-297l226 401h298zM82 1126h384v-563q0 -130 44 -194t139 -64q99 0 152.5 67.5t53.5 190.5v563h384v-1126h-367l-17 134q-42 -73 -129.5 -113t-210.5 -40q-232 0 -332 148q-101 148 -101 434v563z" />
    <glyph glyph-name="Uogonek" unicode="&#x172;" horiz-adv-x="1443" 
d="M928 594l1 840h409v-814q0 -280 -135 -442q-136 -162 -377 -190q-46 -55 -65 -107q-39 -86 13 -117q29 -17 80 7l-2 -171q-69 -29 -142 -32q-128 -8 -195 63q-53 68 -30 166q19 98 109 194q-230 34 -360 196q-130 160 -130 433v814h410v-840q0 -114 54.5 -176t153.5 -62
t152.5 62t53.5 176z" />
    <glyph glyph-name="uogonek" unicode="&#x173;" horiz-adv-x="1319" 
d="M1239 0h-75q-55 -62 -75 -119q-39 -86 13 -117q29 -17 80 7l-2 -171q-69 -29 -143 -32q-128 -8 -194 63q-53 68 -30 166q10 49 42.5 104.5t75.5 98.5h-59l-17 134q-42 -73 -129.5 -113t-210.5 -40q-232 0 -332 148q-101 148 -101 434v563h384v-563q0 -130 44 -194
t139 -64q99 0 152.5 67.5t53.5 190.5v563h384v-1126z" />
    <glyph glyph-name="Wcircumflex" unicode="&#x174;" horiz-adv-x="2259" 
d="M1204 1544l-74 218l-74 -218h-280l150 388h408l151 -388h-281zM1573 472l194 962h470l-383 -1434h-520l-204 803l-204 -803h-520l-383 1434h470l195 -960l223 960h438z" />
    <glyph glyph-name="wcircumflex" unicode="&#x175;" horiz-adv-x="2156" 
d="M1282 1625l151 -388h-281l-74 218l-74 -218h-280l149 388h409zM1513 351l200 775h410l-329 -1126h-537l-179 647l-179 -647h-538l-327 1126h409l200 -775l226 775h418z" />
    <glyph glyph-name="Ycircumflex" unicode="&#x176;" horiz-adv-x="1469" 
d="M809 1544l-74 218l-75 -218h-279l149 388h409l151 -388h-281zM735 859l258 575h453l-507 -981v-453h-410v453l-506 981h453z" />
    <glyph glyph-name="ycircumflex" unicode="&#x177;" horiz-adv-x="1355" 
d="M752 1237l-74 218l-75 -218h-279l149 388h409l150 -388h-280zM678 337l225 789h419l-419 -1100q-97 -255 -262 -352q-167 -98 -442 -60l-18 280q138 -8 198 21q59 29 58 117l-403 1094h418z" />
    <glyph glyph-name="Ydieresis" unicode="&#x178;" horiz-adv-x="1469" 
d="M531 1544q-71 0 -120 51q-50 50 -50 120q0 69 50 119q49 49 120 49q69 0 119 -50q49 -49 49 -119q0 -71 -49 -120q-50 -50 -119 -50zM1059 1595q-49 -51 -120 -51t-120 51q-50 50 -50 120q0 69 50 119q49 49 120 49q70 0 119 -49q50 -50 50 -119q0 -71 -49 -120zM735 859
l258 575h453l-507 -981v-453h-410v453l-506 981h453z" />
    <glyph glyph-name="Zacute" unicode="&#x179;" horiz-adv-x="1289" 
d="M1047 1946l-253 -402h-297l166 402h384zM104 1434h1080v-324l-609 -786h609v-324h-1080v324l609 786h-609v324z" />
    <glyph glyph-name="zacute" unicode="&#x17a;" horiz-adv-x="1173" 
d="M988 1638l-253 -401h-297l166 401h384zM81 1126h1012v-306l-524 -505h524v-315h-1012v315l514 505h-514v306z" />
    <glyph glyph-name="Zdotaccent" unicode="&#x17b;" horiz-adv-x="1289" 
d="M645 1544q-71 0 -120 51q-50 50 -50 120q0 69 50 119q49 49 120 49q69 0 119 -50q49 -49 49 -119q0 -71 -49 -120q-50 -50 -119 -50zM104 1434h1080v-324l-609 -786h609v-324h-1080v324l609 786h-609v324z" />
    <glyph glyph-name="zdotaccent" unicode="&#x17c;" horiz-adv-x="1173" 
d="M588 1237q-70 0 -120 50t-50 120t50 120q49 49 120 49q69 0 119 -50q49 -49 49 -119q0 -71 -49 -120q-50 -50 -119 -50zM81 1126h1012v-306l-524 -505h524v-315h-1012v315l514 505h-514v306z" />
    <glyph glyph-name="Zcaron" unicode="&#x17d;" horiz-adv-x="1289" 
d="M719 1932h280l-150 -388h-409l-149 388h279l75 -217zM104 1434h1080v-324l-609 -786h609v-324h-1080v324l609 786h-609v324z" />
    <glyph glyph-name="zcaron" unicode="&#x17e;" horiz-adv-x="1173" 
d="M660 1625h281l-150 -388h-409l-150 388h280l75 -217zM81 1126h1012v-306l-524 -505h524v-315h-1012v315l514 505h-514v306z" />
    <glyph glyph-name="uni01CD" unicode="&#x1cd;" horiz-adv-x="1514" 
d="M1112 1932l-150 -388h-409l-150 388h280l75 -217l73 217h281zM1492 0h-425l-58 208h-503l-59 -208h-424l412 1434h644zM758 1097l-160 -566h318z" />
    <glyph glyph-name="uni01CE" unicode="&#x1ce;" 
d="M743 1625h281l-151 -388h-408l-150 388h280l75 -217zM565 1146q124 0 215.5 -40.5t132.5 -113.5l18 134h366v-1126h-366l-18 134q-39 -74 -130 -113.5t-218 -39.5q-220 0 -368 163q-148 161 -148 419q0 257 148 420t368 163zM502 376q68 -71 171 -71q102 0 171 71
q69 70 69 187t-69 188q-69 70 -171 70q-104 0 -171 -70q-69 -71 -69 -188t69 -187z" />
    <glyph glyph-name="uni01CF" unicode="&#x1cf;" horiz-adv-x="619" 
d="M384 1932h281l-151 -388h-409l-150 388h281l74 -217zM104 0v1434h410v-1434h-410z" />
    <glyph glyph-name="uni01D0" unicode="&#x1d0;" horiz-adv-x="545" 
d="M347 1625h281l-151 -388h-408l-151 388h281l74 -217zM81 0v1126h384v-1126h-384z" />
    <glyph glyph-name="uni01D1" unicode="&#x1d1;" horiz-adv-x="1650" 
d="M899 1932h281l-151 -388h-408l-150 388h280l74 -217zM1213 73q-172 -91 -388 -91t-388 91q-173 92 -273 260q-101 169 -101 384t101 385q100 167 273 259q172 91 388 91t388 -91q174 -93 274 -259q100 -169 100 -385q0 -217 -100 -384q-99 -167 -274 -260zM570 458
q104 -102 256 -102q151 0 256 102q104 101 104 259q0 159 -104 260q-104 100 -256 100q-153 0 -256 -100q-105 -101 -105 -260t105 -259z" />
    <glyph glyph-name="uni01D2" unicode="&#x1d2;" horiz-adv-x="1345" 
d="M748 1625h280l-150 -388h-409l-150 388h280l75 -217zM911 21q-111 -38 -238 -38t-238 38q-239 82 -335 295q-51 111 -51 247q0 135 51 248q95 211 335 295q111 38 238 38t238 -38q240 -84 336 -295q50 -114 50 -248q0 -135 -50 -247q-97 -213 -336 -295zM501 376
q69 -71 172 -71q102 0 171 71q69 70 69 187t-69 188q-69 70 -171 70q-103 0 -172 -70q-69 -71 -69 -188t69 -187z" />
    <glyph glyph-name="uni01D3" unicode="&#x1d3;" horiz-adv-x="1443" 
d="M796 1932h280l-150 -388h-409l-149 388h279l75 -217zM928 594l1 840h409v-814q0 -309 -164 -473q-165 -165 -452 -165t-453 164q-165 164 -165 474v814h410v-840q0 -114 54.5 -176t153.5 -62t152.5 62t53.5 176z" />
    <glyph glyph-name="uni01D4" unicode="&#x1d4;" horiz-adv-x="1319" 
d="M734 1625h281l-151 -388h-408l-150 388h280l74 -217zM82 1126h384v-563q0 -130 44 -194t139 -64q99 0 152.5 67.5t53.5 190.5v563h384v-1126h-367l-17 134q-42 -73 -129.5 -113t-210.5 -40q-232 0 -332 148q-101 148 -101 434v563z" />
    <glyph glyph-name="Gcaron" unicode="&#x1e6;" horiz-adv-x="1650" 
d="M1181 1932l-151 -388h-408l-150 388h280l74 -217l74 217h281zM782 568v237h805v-88q0 -217 -100 -384q-99 -167 -274 -260q-172 -91 -388 -91t-388 91q-173 92 -273 260q-101 169 -101 384t101 385q100 167 273 259q172 91 388 91q229 0 411 -105q181 -105 271 -289
l-362 -170q-44 89 -129.5 139t-190.5 50q-153 0 -256 -100q-104 -101 -104 -260t105 -259q104 -102 255 -102q101 0 187 61q87 61 134 151h-364z" />
    <glyph glyph-name="gcaron" unicode="&#x1e7;" 
d="M760 1625h280l-150 -388h-409l-149 388h279l75 -217zM913 992l18 134h366v-1046q0 -163 -80 -281q-80 -116 -214 -172q-136 -56 -309 -56q-351 0 -563 236l177 203q125 -137 356 -137q103 0 176 61t73 163v83q-74 -137 -348 -137q-107 0 -202 39t-165 110t-109.5 174
t-39.5 221q0 241 149 401q149 158 367 158q124 0 215.5 -40.5t132.5 -113.5zM673 351q101 0 171 67q69 68 69 169t-69 168q-70 66 -171 66q-99 0 -170 -66q-70 -67 -70 -168q0 -102 70 -169t170 -67z" />
    <glyph glyph-name="AEacute" unicode="&#x1fc;" horiz-adv-x="1800" 
d="M919 1946h384l-253 -402h-297zM1171 549v-225h525v-324h-934v208h-253l-59 -208h-427l412 1434h1230v-324h-494v-238h432v-323h-432zM602 531h160v556z" />
    <glyph glyph-name="aeacute" unicode="&#x1fd;" horiz-adv-x="2369" 
d="M1202 1638h384l-253 -401h-297zM1710 1146q286 0 457 -176q85 -87 124.5 -218.5t25.5 -291.5h-833q25 -83 86 -131t140 -48q140 0 214 135l327 -158q-81 -132 -226 -204q-145 -73 -315 -73q-243 0 -413 131v-112h-366l-18 134q-39 -74 -130 -113.5t-218 -39.5
q-220 0 -368 163q-148 161 -148 419q0 257 148 420t368 163q124 0 215.5 -40.5t132.5 -113.5l18 134h366v-111q170 131 413 131zM1857 800q-58 46 -147 46t-147 -46t-81 -133h456q-23 87 -81 133zM502 376q68 -71 171 -71q102 0 171 71q69 70 69 187t-69 188q-69 70 -171 70
q-104 0 -171 -70q-69 -71 -69 -188t69 -187z" />
    <glyph glyph-name="Oslashacute" unicode="&#x1fe;" horiz-adv-x="1650" 
d="M843 1946h384l-253 -402h-297zM1565 1324l-138 -137q160 -197 160 -470q0 -217 -100 -384q-99 -167 -274 -260q-172 -91 -388 -91q-265 0 -465 138l-142 -143l-132 133l137 137q-160 196 -160 470q0 215 101 385q100 167 273 259q172 91 388 91q265 0 464 -139l144 143z
M465 717q0 -102 46 -182l497 496q-82 46 -183 46q-153 0 -256 -100q-104 -101 -104 -260zM825 356q152 0 257 102q104 101 104 259q0 103 -46 182l-497 -497q82 -46 182 -46z" />
    <glyph glyph-name="oslashacute" unicode="&#x1ff;" horiz-adv-x="1345" 
d="M691 1638h384l-253 -401h-297zM1268 1050l-107 -107q136 -152 136 -380q0 -134 -49.5 -246t-137.5 -185q-179 -150 -437 -150q-211 0 -372 101l-120 -120l-112 114l111 111q-131 152 -131 375q0 134 50 246.5t138 185.5q180 150 436 150q207 0 365 -98l117 116zM432 563
q0 -59 19 -104l335 336q-52 27 -113 26q-102 0 -171 -70q-70 -70 -70 -188zM673 305q102 0 171 71q69 70 69 187q0 60 -20 112l-339 -339q52 -31 119 -31z" />
    <glyph glyph-name="uni0218" unicode="&#x218;" horiz-adv-x="1318" 
d="M1210 1027l-409 -28q-19 137 -153 139q-73 0 -112 -29.5t-39 -81.5q0 -50 56 -78q34 -18 111 -43q37 -11 153 -47q45 -14 129 -46q114 -46 196 -112q59 -49 85 -111.5t28 -153.5q-2 -223 -159 -338q-158 -116 -433 -116q-271 0 -432 117q-161 115 -168 339l410 28
q7 -76 57 -116t132 -40q83 0 131 30.5t49 86.5q-4 74 -120 125q-52 22 -154 54q-74 22 -101 31q-56 19 -87 31q-48 17 -79 33q-87 43 -119 78q-54 56 -71 108q-24 74 -24 156q0 136 76 230t200 137q123 42 286 42q247 0 400 -108q152 -110 161 -317zM413 -572l81 461h331
l-133 -461h-279z" />
    <glyph glyph-name="uni0219" unicode="&#x219;" horiz-adv-x="1163" 
d="M1086 807l-384 -20q-5 43 -38 72t-82 29q-59 0 -91.5 -21t-32.5 -60q0 -36 35.5 -57.5t107.5 -38.5q117 -29 192 -51t144 -54q71 -32 105 -65q78 -76 72 -193q-7 -180 -140.5 -273t-388.5 -93q-250 0 -389.5 94t-146.5 267l383 28q7 -56 49.5 -90t103.5 -34
q64 0 103.5 24t39.5 66q0 44 -62 79q-60 33 -155 55q-112 28 -144 38q-60 16 -111 37q-53 21 -85 45q-102 77 -97 226q0 161 134 245t383 84q230 0 359 -87.5t136 -251.5zM335 -572l81 461h332l-134 -461h-279z" />
    <glyph glyph-name="uni021A" unicode="&#x21a;" horiz-adv-x="1232" 
d="M63 1434h1106v-324h-348v-1110h-409v1110h-349v324zM370 -572l81 461h331l-133 -461h-279z" />
    <glyph glyph-name="uni021B" unicode="&#x21b;" horiz-adv-x="932" 
d="M217 1126v250h383v-250h252v-298h-252v-388q0 -100 77 -124q67 -24 175 -5v-313q-105 -16 -223 -16q-221 0 -316 108q-96 108 -96 336v402h-136v298h136zM382 -591l81 462h332l-133 -462h-280z" />
    <glyph glyph-name="uni0237" unicode="&#x237;" horiz-adv-x="545" 
d="M81 1126h384v-1140q0 -225 -95 -329q-96 -104 -317 -104q-105 0 -224 16v289q105 -18 169 1q83 23 83 127v1140z" />
    <glyph glyph-name="circumflex" unicode="&#x2c6;" horiz-adv-x="805" 
d="M607 1625l151 -388h-281l-74 218l-74 -218h-280l150 388h408z" />
    <glyph glyph-name="caron" unicode="&#x2c7;" horiz-adv-x="805" 
d="M477 1625h281l-151 -388h-408l-150 388h280l74 -217z" />
    <glyph glyph-name="breve" unicode="&#x2d8;" horiz-adv-x="848" 
d="M49 1586h282q0 -47 24.5 -75t68.5 -28q45 0 68.5 27t24.5 76h283q0 -175 -95.5 -262t-280.5 -87t-280.5 87t-94.5 262z" />
    <glyph glyph-name="dotaccent" unicode="&#x2d9;" horiz-adv-x="436" 
d="M219 1237q-70 0 -120 50t-50 120t50 120q49 49 120 49q69 0 119 -50q49 -49 49 -119q0 -71 -49 -120q-50 -50 -119 -50z" />
    <glyph glyph-name="ring" unicode="&#x2da;" horiz-adv-x="721" 
d="M362 1229q-129 0 -221 92t-92 222q0 127 92 219q91 91 221 91q128 0 220 -91q92 -92 92 -219q0 -130 -92 -222t-220 -92zM293 1473q29 -28 69 -28t68 28t28 68t-28 68t-68 28t-69 -28t-29 -68t29 -68z" />
    <glyph glyph-name="ogonek" unicode="&#x2db;" horiz-adv-x="475" 
d="M194 18h231q-65 -68 -91 -135q-39 -85 13 -116q29 -17 80 6l-2 -171q-69 -29 -142 -32q-127 -8 -195 63q-53 68 -30 166q10 53 50 116q36 59 86 103z" />
    <glyph glyph-name="tilde" unicode="&#x2dc;" horiz-adv-x="935" 
d="M629 1601h259q0 -174 -80 -266q-78 -95 -204 -83q-62 3 -138 36t-109 39q-35 4 -46 -23q-4 -9 -4 -65h-258q0 166 74 255q76 104 207 94q65 -3 137 -36q70 -33 113 -39q33 -3 43 22q6 13 6 66z" />
    <glyph glyph-name="hungarumlaut" unicode="&#x2dd;" horiz-adv-x="1048" 
d="M573 1638l-227 -401h-297l226 401h298zM1000 1638l-227 -401h-297l226 401h298z" />
    <glyph glyph-name="gravecomb" unicode="&#x300;" horiz-adv-x="0" 
d="M-49 1237h-297l-253 401h383z" />
    <glyph glyph-name="acutecomb" unicode="&#x301;" horiz-adv-x="0" 
d="M-49 1638l-253 -401h-297l166 401h384z" />
    <glyph glyph-name="uni0302" unicode="&#x302;" horiz-adv-x="0" 
d="M-199 1625l151 -388h-281l-73 218l-75 -218h-280l150 388h408z" />
    <glyph glyph-name="tildecomb" unicode="&#x303;" horiz-adv-x="0" 
d="M-307 1601h259q0 -174 -80 -266q-78 -95 -204 -83q-63 3 -139 36q-77 33 -108 39q-35 4 -46 -23q-4 -9 -4 -65h-258q0 166 74 255q76 104 207 94q66 -3 136 -36q72 -33 114 -39q33 -3 43 22q6 13 6 66z" />
    <glyph glyph-name="uni0304" unicode="&#x304;" horiz-adv-x="0" 
d="M-709 1237v298h660v-298h-660z" />
    <glyph glyph-name="uni0306" unicode="&#x306;" horiz-adv-x="0" 
d="M-800 1586h282q0 -47 24.5 -75t68.5 -28q45 0 68.5 27t24.5 76h283q0 -175 -95.5 -262t-280.5 -87t-280.5 87t-94.5 262z" />
    <glyph glyph-name="uni0307" unicode="&#x307;" horiz-adv-x="0" 
d="M-217 1237q-71 0 -121 50q-49 49 -49 120t49 120t121 49q68 0 118 -50t50 -119q0 -70 -50 -120t-118 -50z" />
    <glyph glyph-name="uni0308" unicode="&#x308;" horiz-adv-x="0" 
d="M-625 1237q-71 0 -121 50q-49 49 -49 120q0 70 50 120q49 49 120 49q68 0 118 -50t50 -119q0 -70 -50 -120t-118 -50zM-98 1287q-50 -50 -119 -50q-70 0 -120 50t-50 120t50 120q49 49 120 49q70 0 119 -49q50 -50 50 -120t-50 -120z" />
    <glyph glyph-name="uni030A" unicode="&#x30a;" horiz-adv-x="0" 
d="M-359 1229q-130 0 -222 92t-92 222q0 127 92 219q92 91 222 91q128 0 219 -91q92 -92 92 -219q0 -130 -92 -222t-219 -92zM-429 1473q29 -28 68.5 -28t67.5 28q29 28 29 68t-29 68q-28 28 -67.5 28t-68.5 -28t-29 -68t29 -68z" />
    <glyph glyph-name="uni030B" unicode="&#x30b;" horiz-adv-x="0" 
d="M-475 1638l-227 -401h-297l226 401h298zM-48 1638l-227 -401h-297l226 401h298z" />
    <glyph glyph-name="uni030C" unicode="&#x30c;" horiz-adv-x="0" 
d="M-329 1625h281l-151 -388h-408l-150 388h280l75 -217z" />
    <glyph glyph-name="uni0312" unicode="&#x312;" horiz-adv-x="0" 
d="M-49 1699l-81 -462h-332l133 462h280z" />
    <glyph glyph-name="dotbelowcomb" unicode="&#x323;" horiz-adv-x="0" 
d="M-154 -402q-49 -49 -120 -49q-69 0 -119 50t-50 120q0 68 50 118t119 50q70 0 120 -50t50 -118q0 -71 -50 -121z" />
    <glyph glyph-name="uni0326" unicode="&#x326;" horiz-adv-x="0" 
d="M-462 -572l81 461h332l-133 -461h-280z" />
    <glyph glyph-name="uni0327" unicode="&#x327;" horiz-adv-x="0" 
d="M-388 28h194v-71q38 3 74 -20t52 -55q26 -45 16 -104q-9 -59 -52 -96q-51 -48 -137 -61t-235 -4v171q108 -8 150 4q33 7 47.5 24t3.5 37q-7 18 -39.5 27t-73.5 2v146z" />
    <glyph glyph-name="uni0328" unicode="&#x328;" horiz-adv-x="0" 
d="M-282 18h232q-65 -68 -91 -135q-39 -85 13 -116q29 -17 80 6l-2 -171q-69 -29 -143 -32q-128 -8 -194 63q-53 68 -30 166q10 52 49 116q38 59 86 103z" />
    <glyph glyph-name="uni0401" unicode="&#x401;" horiz-adv-x="1267" 
d="M431 1544q-71 0 -120 51q-50 50 -50 120q0 69 50 119q49 49 120 49q69 0 119 -50q49 -49 49 -119q0 -71 -49 -120q-50 -50 -119 -50zM958 1595q-50 -51 -119 -51q-71 0 -120 51q-50 50 -50 120q0 69 50 119q49 49 120 49q70 0 119 -49q50 -50 50 -119q0 -70 -50 -120z
M104 0v1434h1028v-324h-618v-238h555v-323h-555v-225h648v-324h-1058z" />
    <glyph glyph-name="uni0410" unicode="&#x410;" horiz-adv-x="1514" 
d="M1492 0h-425l-58 208h-503l-59 -208h-424l412 1434h644zM758 1097l-160 -566h318z" />
    <glyph glyph-name="uni0411" unicode="&#x411;" horiz-adv-x="1375" 
d="M514 951h216q143 0 259 -36t190 -101q148 -133 148 -338q0 -209 -155 -343q-154 -133 -442 -133h-626v1434h1102v-298h-692v-185zM513 324h174q229 0 231 152q-1 75 -61 113.5t-170 38.5h-174v-304z" />
    <glyph glyph-name="uni0412" unicode="&#x412;" horiz-adv-x="1395" 
d="M1097 749q93 -26 164 -121q71 -97 71 -232q0 -178 -126 -287q-127 -109 -313 -109h-789v1434h738q189 0 314 -101q125 -102 125 -278q0 -123 -50 -201.5t-134 -104.5zM756 1119h-242v-249h242q48 0 81.5 35.5t33.5 89.5q0 53 -33.5 88.5t-81.5 35.5zM514 315h293
q48 0 82 36t34 89t-33.5 88t-82.5 35h-293v-248z" />
    <glyph glyph-name="uni0413" unicode="&#x413;" horiz-adv-x="1030" 
d="M104 1434h863v-324h-453v-1110h-410v1434z" />
    <glyph glyph-name="uni0414" unicode="&#x414;" horiz-adv-x="1863" 
d="M1552 1434v-1110h207v-614h-323v290h-1008v-290h-324v614h139q54 0 79.5 29.5t25.5 91.5v598q0 190 100 290.5t290 100.5h814zM726 324h417v786h-267q-70 0 -107 -37t-37 -107v-533q0 -58 -6 -109z" />
    <glyph glyph-name="uni0415" unicode="&#x415;" horiz-adv-x="1267" 
d="M104 0v1434h1028v-324h-618v-238h555v-323h-555v-225h648v-324h-1058z" />
    <glyph glyph-name="uni0416" unicode="&#x416;" horiz-adv-x="1953" 
d="M1520 1434h411l-393 -717l393 -717h-411l-338 617v-617h-410v616l-338 -616h-411l393 717l-393 717h411l338 -617v617h410v-618z" />
    <glyph glyph-name="uni0417" unicode="&#x417;" horiz-adv-x="1381" 
d="M462 524l3 -93q0 -89 64 -135q64 -47 161 -47t162 47q64 46 64 135q0 90 -64 138q-65 47 -162 47h-196v262h196q87 0 145 43q57 42 57 117q0 78 -56 121.5t-146 43.5t-145.5 -43.5t-55.5 -121.5v-74h-384v84q0 197 157 300q157 104 428 104q272 0 430 -104
q156 -105 156 -300q0 -104 -58 -183q-59 -81 -147 -103q107 -28 178 -122q69 -95 69 -217q0 -211 -168 -327q-169 -115 -460 -115q-292 0 -459 115q-168 116 -168 327v101h399z" />
    <glyph glyph-name="uni0418" unicode="&#x418;" horiz-adv-x="1458" 
d="M105 1434h410v-612l839 630v-1452h-410v611l-839 -629v1452z" />
    <glyph glyph-name="uni0419" unicode="&#x419;" horiz-adv-x="1458" 
d="M350 1893h282q0 -47 24.5 -75t68.5 -28q45 0 68.5 27t24.5 76h283q0 -175 -95.5 -262t-280.5 -87t-280.5 87t-94.5 262zM105 1434h410v-612l839 630v-1452h-410v611l-839 -629v1452z" />
    <glyph glyph-name="uni041A" unicode="&#x41a;" horiz-adv-x="1286" 
d="M852 1434h412l-393 -717l393 -717h-412l-338 617v-617h-410v1434h410v-618z" />
    <glyph glyph-name="uni041B" unicode="&#x41b;" horiz-adv-x="1586" 
d="M276 445v598q0 190 100.5 290.5t290.5 100.5h815v-1434h-410v1110h-267q-71 0 -108 -37t-37 -107v-533q0 -225 -95 -329t-316 -104h-215v324h138q104 0 104 121z" />
    <glyph glyph-name="uni041C" unicode="&#x41c;" horiz-adv-x="1882" 
d="M941 817l837 635v-1452h-410v670l-427 -347l-427 347v-670h-410v1452z" />
    <glyph glyph-name="uni041D" unicode="&#x41d;" horiz-adv-x="1491" 
d="M978 838v596h408v-1434h-409v514h-463v-514h-410v1434h409v-596h465z" />
    <glyph glyph-name="uni041E" unicode="&#x41e;" horiz-adv-x="1650" 
d="M1213 73q-172 -91 -388 -91t-388 91q-173 92 -273 260q-101 169 -101 384t101 385q100 167 273 259q172 91 388 91t388 -91q174 -93 274 -259q100 -169 100 -385q0 -217 -100 -384q-99 -167 -274 -260zM570 458q104 -102 256 -102q151 0 256 102q104 101 104 259
q0 159 -104 260q-104 100 -256 100q-153 0 -256 -100q-105 -101 -105 -260t105 -259z" />
    <glyph glyph-name="uni041F" unicode="&#x41f;" horiz-adv-x="1439" 
d="M104 1434h1231v-1434h-409v1110h-412v-1110h-410v1434z" />
    <glyph glyph-name="uni0420" unicode="&#x420;" horiz-adv-x="1377" 
d="M104 1434h614q288 0 443 -143q153 -144 153 -384q0 -241 -153 -384q-155 -143 -443 -143h-204v-380h-410v1434zM513 703h162q102 0 166 58q63 59 63 145q0 88 -63 146q-62 58 -166 58h-162v-407z" />
    <glyph glyph-name="uni0421" unicode="&#x421;" horiz-adv-x="1570" 
d="M825 356q105 0 190.5 50.5t129.5 139.5l362 -170q-90 -184 -271 -289q-182 -105 -411 -105q-216 0 -388 91q-173 92 -273 260q-101 169 -101 384t101 385q100 167 273 259q172 91 388 91q229 0 411 -105q181 -105 271 -289l-362 -170q-44 89 -129.5 139t-190.5 50
q-153 0 -256 -100q-104 -101 -104 -260t104 -260t256 -101z" />
    <glyph glyph-name="uni0422" unicode="&#x422;" horiz-adv-x="1232" 
d="M63 1434h1106v-324h-348v-1110h-409v1110h-349v324z" />
    <glyph glyph-name="uni0423" unicode="&#x423;" horiz-adv-x="1334" 
d="M668 644l225 790h418l-418 -1101q-98 -254 -263 -352q-167 -98 -442 -60l-18 281q141 -9 199.5 21t57.5 116l-404 1095h418z" />
    <glyph glyph-name="uni0424" unicode="&#x424;" horiz-adv-x="1763" 
d="M1086 1567v-269q181 0 321.5 -67.5t223.5 -198.5q83 -134 83 -315t-83 -315q-84 -134 -224 -200q-140 -67 -321 -67v-268h-409v268q-182 0 -322 67.5t-222 199.5q-84 134 -84 315t84 315q81 132 224 200q141 66 320 66v269h409zM677 459v516q-111 0 -180 -70
q-69 -71 -69 -188t69 -188q69 -70 180 -70zM1086 975v-516q111 0 180 70q69 71 69 188t-69 188q-69 70 -180 70z" />
    <glyph glyph-name="uni0425" unicode="&#x425;" horiz-adv-x="1469" 
d="M1001 1434h445l-416 -717l416 -717h-445l-267 456l-266 -456h-445l416 717l-416 717h445l266 -456z" />
    <glyph glyph-name="uni0426" unicode="&#x426;" horiz-adv-x="1608" 
d="M1335 1434v-1110h169v-579h-298v255h-1102v1434h410v-1110h412v1110h409z" />
    <glyph glyph-name="uni0427" unicode="&#x427;" horiz-adv-x="1383" 
d="M894 1434h409v-1434h-410v482h-216q-142 0 -258 36.5t-189 102.5q-149 132 -149 336v477h409v-477q0 -75 60 -113t170 -38h174v628z" />
    <glyph glyph-name="uni0428" unicode="&#x428;" horiz-adv-x="2260" 
d="M1747 324v1110h410v-1434h-2053v1434h410v-1110h412v1110h409v-1110h412z" />
    <glyph glyph-name="uni0429" unicode="&#x429;" horiz-adv-x="2428" 
d="M2157 1434v-1110h167v-579h-296v255h-1924v1434h410v-1110h412v1110h409v-1110h412v1110h410z" />
    <glyph glyph-name="uni042A" unicode="&#x42a;" horiz-adv-x="1602" 
d="M742 951h216q143 0 258.5 -36t189.5 -101q148 -131 148 -338q0 -206 -148 -337q-157 -139 -448 -139h-625v1110h-270v324h679v-483zM741 324h174q228 0 230 152q0 75 -60 113.5t-170 38.5h-174v-304z" />
    <glyph glyph-name="uni042B" unicode="&#x42b;" horiz-adv-x="1921" 
d="M730 0h-626v1434h410v-483h216q143 0 259 -36t190 -101q148 -133 148 -338q0 -209 -155 -343q-154 -133 -442 -133zM1456 0v1434h384v-1434h-384zM687 628h-174v-304h174q229 0 231 152q-1 75 -61 113.5t-170 38.5z" />
    <glyph glyph-name="uni042C" unicode="&#x42c;" horiz-adv-x="1375" 
d="M730 0h-626v1434h410v-483h216q143 0 259 -36t190 -101q148 -133 148 -338q0 -209 -155 -343q-154 -133 -442 -133zM687 628h-174v-304h174q229 0 231 152q-1 75 -61 113.5t-170 38.5z" />
    <glyph glyph-name="uni042D" unicode="&#x42d;" horiz-adv-x="1570" 
d="M745 1452q216 0 389 -91q174 -91 274 -259q99 -170 99 -385q0 -216 -99 -384q-100 -168 -273 -260q-173 -91 -390 -91q-229 0 -409 105q-181 103 -273 289l364 170q44 -89 129 -139.5t189 -50.5q113 0 202 57q90 58 130 155h-415v297h415q-40 97 -130 155q-89 57 -202 57
q-105 0 -189.5 -50t-128.5 -139l-364 170q92 185 272 289q182 105 410 105z" />
    <glyph glyph-name="uni042E" unicode="&#x42e;" horiz-adv-x="2269" 
d="M1444 1452q216 0 388 -91q174 -93 274 -259q100 -169 100 -385q0 -217 -100 -384q-99 -167 -274 -260q-172 -91 -388 -91q-288 0 -493 160q-205 159 -255 426h-182v-568h-410v1434h410v-569h182q49 266 255 427q205 160 493 160zM1188 458q104 -102 256 -102
q151 0 256 102q105 100 105 259t-104 260q-104 100 -257 100t-256 -100q-105 -101 -105 -260t105 -259z" />
    <glyph glyph-name="uni042F" unicode="&#x42f;" horiz-adv-x="1386" 
d="M669 1434h612v-1434h-410v380h-160l-226 -380h-410l271 443q-134 62 -203.5 182t-69.5 281q0 241 154 385q154 143 442 143zM712 703h160v407h-160q-104 0 -166 -58q-64 -58 -64 -146t63 -145q62 -58 167 -58z" />
    <glyph glyph-name="uni0430" unicode="&#x430;" 
d="M565 1146q124 0 215.5 -40.5t132.5 -113.5l18 134h366v-1126h-366l-18 134q-39 -74 -130 -113.5t-218 -39.5q-220 0 -368 163q-148 161 -148 419q0 257 148 420t368 163zM502 376q68 -71 171 -71q102 0 171 71q69 70 69 187t-69 188q-69 70 -171 70q-104 0 -171 -70
q-69 -71 -69 -188t69 -187z" />
    <glyph glyph-name="uni0431" unicode="&#x431;" horiz-adv-x="1370" 
d="M757 1145q-132 0 -203 -64.5t-97 -208.5q49 66 192 96q145 29 294 4q173 -30 269 -159q95 -131 95 -307q2 -152 -79 -273t-224 -186t-319 -63q-176 -3 -319.5 77t-224.5 225t-78 326q0 203 37 349t117 251q162 211 540 211q168 3 329 50v-284q-165 -44 -329 -44zM685 270
q90 0 151 64t61 172q0 107 -61 171t-151 64q-91 0 -151 -63q-61 -64 -61 -172q0 -110 61 -172q60 -64 151 -64z" />
    <glyph glyph-name="uni0432" unicode="&#x432;" horiz-adv-x="1356" 
d="M1072 589q93 -20 164 -94q72 -77 72 -183q2 -139 -125.5 -226.5t-313.5 -85.5h-788v1126h737q190 0 315 -78q123 -80 123 -219q0 -97 -50.5 -159t-133.5 -81zM732 871h-242v-181h242q48 0 81.5 27t33.5 65q0 39 -32.5 64t-82.5 25zM490 255h293q50 0 82.5 25.5t32.5 64.5
q0 38 -33.5 64.5t-81.5 26.5h-293v-181z" />
    <glyph glyph-name="uni0433" unicode="&#x433;" horiz-adv-x="1018" 
d="M104 1126h866v-298h-456v-828h-410v1126z" />
    <glyph glyph-name="uni0434" unicode="&#x434;" horiz-adv-x="1802" 
d="M1529 1126v-828h191v-565h-331v267h-967v-267h-341v565h138q104 0 106 95v427q0 150 99.5 228t290.5 78h814zM708 298h411v530h-267q-143 0 -143 -111v-377q0 -33 -1 -42z" />
    <glyph glyph-name="uni0435" unicode="&#x435;" horiz-adv-x="1332" 
d="M673 1146q287 0 457 -176q84 -87 123.5 -218.5t26.5 -291.5h-834q25 -83 86.5 -131t140.5 -48q141 0 214 135l326 -158q-81 -132 -225 -204q-145 -73 -315 -73q-259 0 -437 150q-88 74 -137.5 186t-49.5 246t49.5 246.5t137.5 186.5q180 150 437 150zM820 800
q-58 46 -147 46t-147 -46q-59 -47 -82 -133h457q-23 87 -81 133z" />
    <glyph glyph-name="uni0436" unicode="&#x436;" horiz-adv-x="1975" 
d="M1530 1126h412l-391 -563l391 -563h-412l-337 486v-486h-410v486l-337 -486h-412l390 563l-390 563h412l337 -486v486h410v-486z" />
    <glyph glyph-name="uni0437" unicode="&#x437;" horiz-adv-x="1350" 
d="M447 408l3 -70q0 -55 65 -87q66 -32 161 -32t161 32q64 31 64 87q0 67 -61.5 102.5t-163.5 35.5h-197v220h197q89 0 145 31.5t56 87.5q0 50 -58 78q-60 29 -143 29q-84 0 -144 -29q-58 -28 -58 -78v-56l-383 1v62q0 157 155 237t430 80q273 0 430 -80q155 -81 155 -237
q0 -82 -58 -143q-59 -63 -147 -81q107 -22 178 -96q69 -74 69 -170q0 -169 -167 -258q-169 -89 -460 -89q-293 0 -460 89t-167 258v76h398z" />
    <glyph glyph-name="uni0438" unicode="&#x438;" horiz-adv-x="1350" 
d="M81 1126h409v-492l780 507v-1141h-410v493l-779 -507v1140z" />
    <glyph glyph-name="uni0439" unicode="&#x439;" horiz-adv-x="1350" 
d="M300 1586h282q0 -47 24.5 -75t68.5 -28q45 0 68.5 27t24.5 76h283q0 -175 -95.5 -262t-280.5 -87t-280.5 87t-94.5 262zM81 1126h409v-492l780 507v-1141h-410v493l-779 -507v1140z" />
    <glyph glyph-name="uni043A" unicode="&#x43a;" horiz-adv-x="1273" 
d="M827 1126h413l-390 -563l390 -563h-413l-337 486v-486h-409v1126h409v-486z" />
    <glyph glyph-name="uni043B" unicode="&#x43b;" horiz-adv-x="1562" 
d="M276 393v427q0 148 100.5 227t290.5 79h815v-1126h-410v828h-267q-143 0 -145 -111v-377q0 -175 -95 -258q-94 -82 -316 -82h-215v298h138q104 0 104 95z" />
    <glyph glyph-name="uni043C" unicode="&#x43c;" horiz-adv-x="1669" 
d="M835 669l753 478v-1147h-409v486l-344 -244l-345 244v-486h-409v1147z" />
    <glyph glyph-name="uni043D" unicode="&#x43d;" horiz-adv-x="1392" 
d="M903 676v450h409v-1126h-410v378h-412v-378h-409v1126h408v-450h414z" />
    <glyph glyph-name="uni043E" unicode="&#x43e;" horiz-adv-x="1345" 
d="M911 21q-111 -38 -238 -38t-238 38q-239 82 -335 295q-51 111 -51 247q0 135 51 248q95 211 335 295q111 38 238 38t238 -38q240 -84 336 -295q50 -114 50 -248q0 -135 -50 -247q-97 -213 -336 -295zM501 376q69 -71 172 -71q102 0 171 71q69 70 69 187t-69 188
q-69 70 -171 70q-103 0 -172 -70q-69 -71 -69 -188t69 -187z" />
    <glyph glyph-name="uni043F" unicode="&#x43f;" horiz-adv-x="1392" 
d="M81 1126h1231v-1126h-410v828h-412v-828h-409v1126z" />
    <glyph glyph-name="uni0440" unicode="&#x440;" 
d="M813 -19q-124 0 -215.5 40t-132.5 113v-544h-384v1536h366l18 -134q39 74 130 114t218 40q220 0 368 -163t148 -420q0 -258 -148 -419q-148 -163 -368 -163zM877 751q-69 70 -171 70q-103 0 -172 -70q-69 -71 -69 -188t69 -187q69 -71 172 -71q102 0 171 71q68 71 68 187
q0 117 -68 188z" />
    <glyph glyph-name="uni0441" unicode="&#x441;" horiz-adv-x="1286" 
d="M673 297q157 0 213 156l351 -141q-67 -153 -220 -241q-155 -89 -344 -89q-258 0 -436 150q-88 73 -138 185t-50 246t50 246.5t138 185.5q180 150 436 150q189 0 344 -89q152 -88 220 -242l-351 -140q-27 76 -83 115.5t-130 39.5q-102 0 -171 -72q-70 -71 -70 -194
t70 -194q69 -72 171 -72z" />
    <glyph glyph-name="uni0442" unicode="&#x442;" horiz-adv-x="1267" 
d="M81 1126h1106v-298h-348v-828h-410v828h-348v298z" />
    <glyph glyph-name="uni0443" unicode="&#x443;" horiz-adv-x="1355" 
d="M678 337l225 789h419l-419 -1100q-97 -255 -262 -352q-167 -98 -442 -60l-18 280q138 -8 198 21q59 29 58 117l-403 1094h418z" />
    <glyph glyph-name="uni0444" unicode="&#x444;" horiz-adv-x="1771" 
d="M1091 1326v-198q182 0 324 -66.5t225 -194.5q83 -131 83 -304t-83 -303q-84 -130 -226 -196t-323 -66v-198h-410v198q-182 0 -324 67t-224 195q-84 129 -84 303q0 173 84 304q82 128 226 195q143 66 322 66v198h410zM681 323v481q-111 0 -179 -67q-70 -67 -70 -173
q0 -107 70 -174q68 -67 179 -67zM1091 804v-481q111 0 179 67q69 68 69 174t-69 173q-70 67 -179 67z" />
    <glyph glyph-name="uni0445" unicode="&#x445;" horiz-adv-x="1354" 
d="M894 1126h428l-366 -563l366 -563h-428l-216 343l-216 -343h-428l364 563l-364 563h428l216 -343z" />
    <glyph glyph-name="uni0446" unicode="&#x446;" horiz-adv-x="1560" 
d="M1312 1126v-802h168v-579h-297v255h-1102v1126h409v-828h412v828h410z" />
    <glyph glyph-name="uni0447" unicode="&#x447;" horiz-adv-x="1383" 
d="M894 1126h409v-1126h-410v335h-216q-140 0 -257 35t-190 96q-149 123 -149 287v373h409v-373q0 -59 60 -89t170 -30h174v492z" />
    <glyph glyph-name="uni0448" unicode="&#x448;" horiz-adv-x="2213" 
d="M1722 298v828h410v-1126h-2051v1126h409v-828h412v828h410v-828h410z" />
    <glyph glyph-name="uni0449" unicode="&#x449;" horiz-adv-x="2381" 
d="M2132 1126v-828h169v-553h-298v255h-1922v1126h409v-828h412v828h410v-828h410v828h410z" />
    <glyph glyph-name="uni044A" unicode="&#x44a;" horiz-adv-x="1602" 
d="M741 759h216q293 0 444.5 -97.5t151.5 -282.5q0 -186 -151 -282.5t-445 -96.5h-625v828h-251v298h660v-367zM740 261h174q229 0 230 118q0 119 -230 119h-174v-237z" />
    <glyph glyph-name="uni044B" unicode="&#x44b;" horiz-adv-x="1897" 
d="M707 0h-626v1126h409v-367h217q293 0 444.5 -97.5t151.5 -282.5q0 -186 -150.5 -282.5t-445.5 -96.5zM1433 0v1126h384v-1126h-384zM664 498h-175v-237h175q229 0 229 118q0 119 -229 119z" />
    <glyph glyph-name="uni044C" unicode="&#x44c;" horiz-adv-x="1351" 
d="M707 0h-626v1126h409v-367h217q293 0 444.5 -97.5t151.5 -282.5q0 -186 -150.5 -282.5t-445.5 -96.5zM664 498h-175v-237h175q229 0 229 118q0 119 -229 119z" />
    <glyph glyph-name="uni044D" unicode="&#x44d;" horiz-adv-x="1286" 
d="M612 1145q258 0 438 -150q88 -73 137.5 -185.5t49.5 -246.5t-49.5 -246t-137.5 -185q-178 -150 -438 -150q-188 0 -342 89q-153 87 -221 241l351 141q27 -76 83 -116t129 -40q79 0 139 42.5t86 119.5h-263v209h263q-26 76 -86 118.5t-139 42.5q-74 0 -129.5 -39.5
t-82.5 -115.5l-351 140q68 154 221 242q154 89 342 89z" />
    <glyph glyph-name="uni044E" unicode="&#x44e;" horiz-adv-x="1891" 
d="M1219 1145q256 0 437 -150q88 -73 137.5 -185.5t49.5 -246.5t-49.5 -246t-137.5 -185q-179 -150 -437 -150q-306 0 -485 198q-91 98 -124 235h-145v-415h-384v1126h384v-414h145q33 134 122.5 234.5t216.5 149.5q123 49 270 49zM1047 376q69 -71 172 -71q102 0 171 71
q69 70 69 187t-69 188q-69 70 -171 70q-103 0 -172 -70q-69 -71 -69 -188t69 -187z" />
    <glyph glyph-name="uni044F" unicode="&#x44f;" horiz-adv-x="1359" 
d="M653 1126h626v-1126h-410v299h-173l-225 -299h-412l271 348q-134 48 -203.5 142t-69.5 223q0 191 152 302q151 111 444 111zM696 554h174v317h-174q-105 0 -167 -43t-62 -115q0 -73 61.5 -116t167.5 -43z" />
    <glyph glyph-name="uni0451" unicode="&#x451;" horiz-adv-x="1332" 
d="M463 1237q-70 0 -120 50t-50 120t50 120q49 49 120 49q69 0 119 -50q49 -49 49 -119q0 -71 -49 -120q-50 -50 -119 -50zM990 1287q-50 -50 -119 -50q-70 0 -120 50q-51 49 -51 120t51 120q49 49 120 49q70 0 119 -49t49 -120t-49 -120zM673 1146q287 0 457 -176
q84 -87 123.5 -218.5t26.5 -291.5h-834q25 -83 86.5 -131t140.5 -48q141 0 214 135l326 -158q-81 -132 -225 -204q-145 -73 -315 -73q-259 0 -437 150q-88 74 -137.5 186t-49.5 246t49.5 246.5t137.5 186.5q180 150 437 150zM820 800q-58 46 -147 46t-147 -46
q-59 -47 -82 -133h457q-23 87 -81 133z" />
    <glyph glyph-name="uni1E04" unicode="&#x1e04;" horiz-adv-x="1395" 
d="M1097 749q93 -26 164 -121q71 -97 71 -232q0 -178 -126 -287q-127 -109 -313 -109h-789v1434h738q189 0 314 -101q125 -102 125 -278q0 -123 -50 -201.5t-134 -104.5zM756 1119h-242v-249h242q48 0 81.5 35.5t33.5 89.5q0 53 -33.5 88.5t-81.5 35.5zM514 315h293
q48 0 82 36t34 89t-33.5 88t-82.5 35h-293v-248zM818 -402q-49 -49 -119 -49t-120 50q-51 49 -51 120q0 69 51 118q50 50 120 50q69 0 119 -50q49 -49 49 -118q0 -72 -49 -121z" />
    <glyph glyph-name="uni1E05" unicode="&#x1e05;" 
d="M813 1146q220 0 368 -163t148 -420q0 -258 -148 -419q-148 -163 -368 -163q-127 0 -218 39.5t-130 113.5l-18 -134h-366v1536h384v-544q41 73 132.5 113.5t215.5 40.5zM534 376q69 -71 172 -71q102 0 171 71q68 71 68 187q0 117 -68 188q-69 70 -171 70q-103 0 -172 -70
q-69 -71 -69 -188t69 -187zM813 -402q-49 -49 -119 -49t-120 50q-51 49 -51 120q0 69 51 118q50 50 120 50q69 0 119 -50q49 -49 49 -118q0 -72 -49 -121z" />
    <glyph glyph-name="uni1E24" unicode="&#x1e24;" horiz-adv-x="1491" 
d="M978 838v596h408v-1434h-409v514h-463v-514h-410v1434h409v-596h465zM866 -402q-49 -49 -119 -49t-120 50t-50 120q0 68 50 118t120 50q69 0 119 -50q49 -49 49 -118q0 -72 -49 -121z" />
    <glyph glyph-name="uni1E25" unicode="&#x1e25;" horiz-adv-x="1334" 
d="M1253 0h-384v563q0 130 -46 194t-145 64q-100 0 -156.5 -68.5t-56.5 -189.5v-563h-384v1536h384v-544q41 73 132 113.5t214 40.5q237 0 340 -148q102 -148 102 -435v-563zM787 -402q-49 -49 -119 -49t-120 50t-50 120q0 68 50 118t120 50q69 0 119 -50t50 -118
q0 -71 -50 -121z" />
    <glyph glyph-name="uni1E36" unicode="&#x1e36;" horiz-adv-x="1150" 
d="M1047 0h-943v1434h410l-1 -1110h534v-324zM696 -402q-49 -49 -119 -49t-120 50t-50 120q0 68 50 118t120 50q69 0 119 -50q49 -49 49 -118q0 -72 -49 -121z" />
    <glyph glyph-name="uni1E37" unicode="&#x1e37;" horiz-adv-x="545" 
d="M81 0v1536h384v-1536h-384zM393 -402q-49 -49 -119 -49t-120 50q-51 49 -51 120q0 69 51 118q50 50 120 50q69 0 119 -50q49 -49 49 -118q0 -72 -49 -121z" />
    <glyph glyph-name="uni1E3E" unicode="&#x1e3e;" horiz-adv-x="1882" 
d="M1342 1946l-252 -402h-297l165 402h384zM941 817l837 635v-1452h-410v670l-427 -347l-427 347v-670h-410v1452z" />
    <glyph glyph-name="uni1E3F" unicode="&#x1e3f;" horiz-adv-x="2058" 
d="M1047 1638h384l-253 -401h-297zM1562 1146q142 0 229.5 -55.5t132.5 -165.5q53 -133 53 -362v-563h-384v563q0 258 -174 258q-94 0 -145.5 -68t-51.5 -190v-563h-384v563q0 258 -175 258q-94 0 -146 -68t-52 -190v-563h-384v1126h366l18 -134q82 154 340 154
q275 0 363 -222q116 222 394 222z" />
    <glyph glyph-name="uni1E44" unicode="&#x1e44;" horiz-adv-x="1458" 
d="M730 1544q-70 0 -120 51q-50 50 -50 120q0 69 50 119q49 49 120 49q69 0 119 -50q49 -49 49 -119q0 -71 -49 -120q-50 -50 -119 -50zM943 822v612h410v-1452l-839 629v-611h-410v1452z" />
    <glyph glyph-name="uni1E45" unicode="&#x1e45;" horiz-adv-x="1319" 
d="M664 1237q-70 0 -120 50t-50 120t50 120q49 49 120 49q68 0 118 -50q49 -49 49 -119q0 -71 -49 -120q-50 -50 -118 -50zM1238 0h-383v563q0 130 -44 194t-139 64q-99 0 -153 -67.5t-54 -190.5v-563h-384v1126h366l18 -134q42 73 129.5 113.5t210.5 40.5q233 0 333 -148
t100 -435v-563z" />
    <glyph glyph-name="uni1E46" unicode="&#x1e46;" horiz-adv-x="1458" 
d="M943 822v612h410v-1452l-839 629v-611h-410v1452zM849 -402q-49 -49 -120 -49q-70 0 -120 50t-50 120q0 68 50 118t120 50t120 -50q49 -49 49 -118q0 -72 -49 -121z" />
    <glyph glyph-name="uni1E47" unicode="&#x1e47;" horiz-adv-x="1319" 
d="M1238 0h-383v563q0 130 -44 194t-139 64q-99 0 -153 -67.5t-54 -190.5v-563h-384v1126h366l18 -134q42 73 129.5 113.5t210.5 40.5q233 0 333 -148t100 -435v-563zM783 -402q-49 -49 -119 -49t-120 50t-50 120q0 68 50 118t120 50q69 0 119 -50t50 -118q0 -71 -50 -121z
" />
    <glyph glyph-name="uni1E62" unicode="&#x1e62;" horiz-adv-x="1318" 
d="M1210 1027l-409 -28q-19 137 -153 139q-73 0 -112 -29.5t-39 -81.5q0 -50 56 -78q34 -18 111 -43q37 -11 153 -47q45 -14 129 -46q114 -46 196 -112q59 -49 85 -111.5t28 -153.5q-2 -223 -159 -338q-158 -116 -433 -116q-271 0 -432 117q-161 115 -168 339l410 28
q7 -76 57 -116t132 -40q83 0 131 30.5t49 86.5q-4 74 -120 125q-52 22 -154 54q-74 22 -101 31q-56 19 -87 31q-48 17 -79 33q-87 43 -119 78q-54 56 -71 108q-24 74 -24 156q0 136 76 230t200 137q123 42 286 42q247 0 400 -108q152 -110 161 -317zM780 -402
q-49 -49 -119 -49t-120 50q-51 49 -51 120q0 69 51 118q50 50 120 50q69 0 119 -50q49 -49 49 -118q0 -72 -49 -121z" />
    <glyph glyph-name="uni1E63" unicode="&#x1e63;" horiz-adv-x="1163" 
d="M1086 807l-384 -20q-5 43 -38 72t-82 29q-59 0 -91.5 -21t-32.5 -60q0 -36 35.5 -57.5t107.5 -38.5q117 -29 192 -51t144 -54q71 -32 105 -65q78 -76 72 -193q-7 -180 -140.5 -273t-388.5 -93q-250 0 -389.5 94t-146.5 267l383 28q7 -56 49.5 -90t103.5 -34
q64 0 103.5 24t39.5 66q0 44 -62 79q-60 33 -155 55q-112 28 -144 38q-60 16 -111 37q-53 21 -85 45q-102 77 -97 226q0 161 134 245t383 84q230 0 359 -87.5t136 -251.5zM702 -402q-49 -49 -119 -49t-120 50t-50 120q0 68 50 118t120 50q69 0 119 -50t50 -118
q0 -71 -50 -121z" />
    <glyph glyph-name="uni1E6C" unicode="&#x1e6c;" horiz-adv-x="1232" 
d="M63 1434h1106v-324h-348v-1110h-409v1110h-349v324zM736 -402q-49 -49 -119 -49t-120 50q-51 49 -51 120q0 69 51 118q50 50 120 50q69 0 119 -50q49 -49 49 -118q0 -72 -49 -121z" />
    <glyph glyph-name="uni1E6D" unicode="&#x1e6d;" horiz-adv-x="932" 
d="M217 1126v250h383v-250h252v-298h-252v-388q0 -100 77 -124q67 -24 175 -5v-313q-105 -16 -223 -16q-221 0 -316 108q-96 108 -96 336v402h-136v298h136zM748 -420q-49 -49 -119 -49q-71 0 -120 49q-50 50 -50 121q0 68 50 118t120 50q69 0 119 -50t50 -118
q0 -71 -50 -121z" />
    <glyph glyph-name="Wgrave" unicode="&#x1e80;" horiz-adv-x="2259" 
d="M1111 1946l167 -402h-297l-253 402h383zM1573 472l194 962h470l-383 -1434h-520l-204 803l-204 -803h-520l-383 1434h470l195 -960l223 960h438z" />
    <glyph glyph-name="wgrave" unicode="&#x1e81;" horiz-adv-x="2156" 
d="M1227 1237h-297l-253 401h383zM1513 351l200 775h410l-329 -1126h-537l-179 647l-179 -647h-538l-327 1126h409l200 -775l226 775h418z" />
    <glyph glyph-name="Wacute" unicode="&#x1e82;" horiz-adv-x="2259" 
d="M1148 1946h384l-253 -402h-297zM1573 472l194 962h470l-383 -1434h-520l-204 803l-204 -803h-520l-383 1434h470l195 -960l223 960h438z" />
    <glyph glyph-name="wacute" unicode="&#x1e83;" horiz-adv-x="2156" 
d="M1480 1638l-253 -401h-297l166 401h384zM1513 351l200 775h410l-329 -1126h-537l-179 647l-179 -647h-538l-327 1126h409l200 -775l226 775h418z" />
    <glyph glyph-name="Wdieresis" unicode="&#x1e84;" horiz-adv-x="2259" 
d="M927 1544q-71 0 -120 51q-50 50 -50 120q0 69 50 119q49 49 120 49q69 0 119 -50q49 -49 49 -119q0 -71 -49 -120q-50 -50 -119 -50zM1454 1595q-50 -51 -119 -51q-71 0 -120 51q-51 49 -51 120q0 69 51 119q49 49 119 49t119 -49q50 -50 50 -119q0 -71 -49 -120z
M1573 472l194 962h470l-383 -1434h-520l-204 803l-204 -803h-520l-383 1434h470l195 -960l223 960h438z" />
    <glyph glyph-name="wdieresis" unicode="&#x1e85;" horiz-adv-x="2156" 
d="M876 1237q-70 0 -120 50t-50 120t50 120q49 49 120 49q68 0 118 -50q49 -49 49 -119q0 -71 -49 -120q-50 -50 -118 -50zM1403 1287q-50 -50 -120 -50t-120 50t-50 120t50 120q49 49 120 49q70 0 119 -49q50 -50 50 -120q0 -71 -49 -120zM1513 351l200 775h410l-329 -1126
h-537l-179 647l-179 -647h-538l-327 1126h409l200 -775l226 775h418z" />
    <glyph glyph-name="uni1E92" unicode="&#x1e92;" horiz-adv-x="1289" 
d="M104 1434h1080v-324l-609 -786h609v-324h-1080v324l609 786h-609v324zM765 -402q-49 -49 -120 -49q-70 0 -120 50t-50 120q0 68 50 118t120 50t120 -50q49 -49 49 -118q0 -72 -49 -121z" />
    <glyph glyph-name="uni1E93" unicode="&#x1e93;" horiz-adv-x="1173" 
d="M81 1126h1012v-306l-524 -505h524v-315h-1012v315l514 505h-514v306zM706 -402q-49 -49 -119 -49t-120 50t-50 120q0 68 50 118t120 50q69 0 119 -50t50 -118q0 -71 -50 -121z" />
    <glyph glyph-name="uni1EA0" unicode="&#x1ea0;" horiz-adv-x="1514" 
d="M1079 1434l413 -1434h-425l-58 208h-503l-59 -208h-424l412 1434h644zM758 1097l-160 -566h318zM638 -163q50 50 120 50q69 0 119 -50t50 -118q0 -71 -50 -121q-49 -49 -119 -49t-120 50t-50 120q0 68 50 118z" />
    <glyph glyph-name="uni1EA1" unicode="&#x1ea1;" 
d="M565 1146q124 0 215.5 -40.5t132.5 -113.5l18 134h366v-1126h-366l-18 134q-39 -74 -130 -113.5t-218 -39.5q-220 0 -368 163q-148 161 -148 419q0 257 148 420t368 163zM502 376q68 -71 171 -71q102 0 171 71q69 70 69 187t-69 188q-69 70 -171 70q-104 0 -171 -70
q-69 -71 -69 -188t69 -187zM805 -402q-49 -49 -120 -49q-70 0 -120 50t-50 120q0 68 50 118t120 50t120 -50q49 -49 49 -118q0 -72 -49 -121z" />
    <glyph glyph-name="uni1EB8" unicode="&#x1eb8;" horiz-adv-x="1267" 
d="M104 0v1434h1028v-324h-618v-238h555v-323h-555v-225h648v-324h-1058zM755 -402q-49 -49 -120 -49q-70 0 -120 50t-50 120q0 68 50 118t120 50t120 -50q49 -49 49 -118q0 -72 -49 -121z" />
    <glyph glyph-name="uni1EB9" unicode="&#x1eb9;" horiz-adv-x="1332" 
d="M673 1146q287 0 457 -176q84 -87 123.5 -218.5t26.5 -291.5h-834q25 -83 86.5 -131t140.5 -48q141 0 214 135l326 -158q-81 -132 -225 -204q-145 -73 -315 -73q-259 0 -437 150q-88 74 -137.5 186t-49.5 246t49.5 246.5t137.5 186.5q180 150 437 150zM820 800
q-58 46 -147 46t-147 -46q-59 -47 -82 -133h457q-23 87 -81 133zM547 -163q50 50 120 50q69 0 119 -50t50 -118q0 -71 -50 -121q-49 -49 -119 -49t-120 50t-50 120q0 68 50 118z" />
    <glyph glyph-name="uni1EBC" unicode="&#x1ebc;" horiz-adv-x="1267" 
d="M795 1908h259q0 -174 -80 -266q-79 -95 -204 -82q-62 3 -138 36q-78 32 -109 38q-35 4 -46 -23q-4 -9 -4 -65h-258q0 166 74 255q76 104 207 94q66 -3 136 -36q72 -34 113 -38q32 -3 43 21q7 13 7 66zM104 0v1434h1028v-324h-618v-238h555v-323h-555v-225h648v-324h-1058
z" />
    <glyph glyph-name="uni1EBD" unicode="&#x1ebd;" horiz-adv-x="1332" 
d="M509 1304q-4 -9 -4 -65h-258q0 166 74 255q76 104 206 94q65 -3 137 -36q70 -33 113 -39q33 -3 43 22q6 13 6 66h259q0 -175 -79 -266q-78 -95 -204 -83q-62 3 -138 36t-109 39q-36 4 -46 -23zM673 1146q287 0 457 -176q84 -87 123.5 -218.5t26.5 -291.5h-834
q25 -83 86.5 -131t140.5 -48q141 0 214 135l326 -158q-81 -132 -225 -204q-145 -73 -315 -73q-259 0 -437 150q-88 74 -137.5 186t-49.5 246t49.5 246.5t137.5 186.5q180 150 437 150zM820 800q-58 46 -147 46t-147 -46q-59 -47 -82 -133h457q-23 87 -81 133z" />
    <glyph glyph-name="uni1ECA" unicode="&#x1eca;" horiz-adv-x="619" 
d="M104 0v1434h410v-1434h-410zM430 -402q-49 -49 -119 -49t-120 50q-51 49 -51 120q0 69 51 118q50 50 120 50q69 0 119 -50q49 -49 49 -118q0 -72 -49 -121z" />
    <glyph glyph-name="uni1ECB" unicode="&#x1ecb;" horiz-adv-x="545" 
d="M273 1241q-91 0 -156 66q-65 65 -65 156q0 90 65 155t156 65q89 0 156 -65q65 -65 65 -155q0 -91 -65 -156q-66 -66 -156 -66zM81 0v1126h384v-1126h-384zM393 -402q-49 -49 -119 -49t-120 50q-51 49 -51 120q0 69 51 118q50 50 120 50q69 0 119 -50q49 -49 49 -118
q0 -72 -49 -121z" />
    <glyph glyph-name="uni1ECC" unicode="&#x1ecc;" horiz-adv-x="1650" 
d="M1213 73q-172 -91 -388 -91t-388 91q-173 92 -273 260q-101 169 -101 384t101 385q100 167 273 259q172 91 388 91t388 -91q174 -93 274 -259q100 -169 100 -385q0 -217 -100 -384q-99 -167 -274 -260zM570 458q104 -102 256 -102q151 0 256 102q104 101 104 259
q0 159 -104 260q-104 100 -256 100q-153 0 -256 -100q-105 -101 -105 -260t105 -259zM945 -402q-49 -49 -119 -49t-120 50q-51 49 -51 120q0 69 51 118q50 50 120 50q69 0 119 -50q49 -49 49 -118q0 -72 -49 -121z" />
    <glyph glyph-name="uni1ECD" unicode="&#x1ecd;" horiz-adv-x="1345" 
d="M911 21q-111 -38 -238 -38t-238 38q-239 82 -335 295q-51 111 -51 247q0 135 51 248q95 211 335 295q111 38 238 38t238 -38q240 -84 336 -295q50 -114 50 -248q0 -135 -50 -247q-97 -213 -336 -295zM501 376q69 -71 172 -71q102 0 171 71q69 70 69 187t-69 188
q-69 70 -171 70q-103 0 -172 -70q-69 -71 -69 -188t69 -187zM793 -402q-49 -49 -119 -49t-120 50t-50 120q0 68 50 118t120 50q69 0 119 -50t50 -118q0 -71 -50 -121z" />
    <glyph glyph-name="uni1EE4" unicode="&#x1ee4;" horiz-adv-x="1443" 
d="M928 594l1 840h409v-814q0 -309 -164 -473q-165 -165 -452 -165t-453 164q-165 164 -165 474v814h410v-840q0 -114 54.5 -176t153.5 -62t152.5 62t53.5 176zM842 -402q-49 -49 -120 -49q-70 0 -120 50t-50 120q0 68 50 118t120 50t120 -50q49 -49 49 -118q0 -72 -49 -121
z" />
    <glyph glyph-name="uni1EE5" unicode="&#x1ee5;" horiz-adv-x="1319" 
d="M82 1126h384v-563q0 -130 44 -194t139 -64q99 0 152.5 67.5t53.5 190.5v563h384v-1126h-367l-17 134q-42 -73 -129.5 -113t-210.5 -40q-232 0 -332 148q-101 148 -101 434v563zM780 -402q-49 -49 -119 -49t-120 50q-51 49 -51 120q0 69 51 118q50 50 120 50q69 0 119 -50
q49 -49 49 -118q0 -72 -49 -121z" />
    <glyph glyph-name="Ygrave" unicode="&#x1ef2;" horiz-adv-x="1469" 
d="M716 1946l167 -402h-297l-253 402h383zM735 859l258 575h453l-507 -981v-453h-410v453l-506 981h453z" />
    <glyph glyph-name="ygrave" unicode="&#x1ef3;" horiz-adv-x="1355" 
d="M659 1638l167 -401h-297l-253 401h383zM678 337l225 789h419l-419 -1100q-97 -255 -262 -352q-167 -98 -442 -60l-18 280q138 -8 198 21q59 29 58 117l-403 1094h418z" />
    <glyph glyph-name="uni1EF4" unicode="&#x1ef4;" horiz-adv-x="1469" 
d="M735 859l258 575h453l-507 -981v-453h-410v453l-506 981h453zM616 -163q50 50 120 50q69 0 119 -50q49 -49 49 -118q0 -72 -49 -121t-119 -49t-120 50q-51 49 -51 120q0 69 51 118z" />
    <glyph glyph-name="uni1EF5" unicode="&#x1ef5;" horiz-adv-x="1355" 
d="M903 1126h419l-419 -1100q-97 -255 -262 -352q-167 -98 -442 -60l-18 280q138 -8 198 21q59 29 58 117l-403 1094h418l226 -789zM945 -163q50 50 120 50t120 -50q49 -49 49 -118q0 -72 -49 -121t-120 -49q-70 0 -120 50t-50 120q0 68 50 118z" />
    <glyph glyph-name="uni1EF8" unicode="&#x1ef8;" horiz-adv-x="1469" 
d="M578 1611q-3 -8 -5 -65h-258q0 166 74 255q76 104 207 94q65 -3 137 -36q72 -34 113 -38q32 -3 43 21q6 14 6 66h259q0 -174 -80 -266q-79 -95 -204 -82q-62 3 -138 36q-79 32 -108 38q-36 4 -46 -23zM735 859l258 575h453l-507 -981v-453h-410v453l-506 981h453z" />
    <glyph glyph-name="uni1EF9" unicode="&#x1ef9;" horiz-adv-x="1355" 
d="M521 1304q-4 -9 -4 -65h-258q0 166 74 255q76 104 207 94q65 -3 137 -36q70 -33 113 -39q33 -3 43 22q6 13 6 66h259q0 -174 -80 -266q-78 -95 -204 -83q-62 3 -138 36t-109 39q-36 4 -46 -23zM678 337l225 789h419l-419 -1100q-97 -255 -262 -352q-167 -98 -442 -60
l-18 280q138 -8 198 21q59 29 58 117l-403 1094h418z" />
    <glyph glyph-name="endash" unicode="&#x2013;" horiz-adv-x="1201" 
d="M104 401v324h992v-324h-992z" />
    <glyph glyph-name="emdash" unicode="&#x2014;" horiz-adv-x="1858" 
d="M104 401v324h1650v-324h-1650z" />
    <glyph glyph-name="quoteleft" unicode="&#x2018;" horiz-adv-x="644" 
d="M563 1493l-81 -521h-401l134 521h348z" />
    <glyph glyph-name="quoteright" unicode="&#x2019;" horiz-adv-x="644" 
d="M81 912l82 522h400l-134 -522h-348z" />
    <glyph glyph-name="quotesinglbase" unicode="&#x201a;" horiz-adv-x="558" 
d="M-3 -281l82 522h401l-134 -522h-349z" />
    <glyph glyph-name="quotedblleft" unicode="&#x201c;" horiz-adv-x="1105" 
d="M563 1493l-81 -521h-401l134 521h348zM1025 1493l-81 -521h-401l134 521h348z" />
    <glyph glyph-name="quotedblright" unicode="&#x201d;" horiz-adv-x="1105" 
d="M81 912l82 522h400l-134 -522h-348zM543 912l82 522h400l-133 -522h-349z" />
    <glyph glyph-name="quotedblbase" unicode="&#x201e;" horiz-adv-x="1020" 
d="M-3 -281l82 522h401l-134 -522h-349zM460 -281l81 522h401l-134 -522h-348z" />
    <glyph glyph-name="dagger" unicode="&#x2020;" horiz-adv-x="912" 
d="M648 1383h160v-168h-160v-568h-383v568h-161v168h161v153h383v-153z" />
    <glyph glyph-name="daggerdbl" unicode="&#x2021;" horiz-adv-x="912" 
d="M808 1383v-168h-160v-247h160v-169h-160v-152h-383v152h-161v169h161v247h-161v168h161v153h383v-153h160z" />
    <glyph glyph-name="bullet" unicode="&#x2022;" horiz-adv-x="724" 
d="M364 250q-130 0 -222 92q-93 92 -93 222q0 127 92 221q92 92 223 92q128 0 220 -92q92 -94 92 -221q0 -130 -92 -222t-220 -92z" />
    <glyph glyph-name="ellipsis" unicode="&#x2026;" horiz-adv-x="1548" 
d="M258 -18q-87 0 -148 61q-61 60 -61 147q0 84 62 146q61 61 147 61q85 0 146 -61t61 -146q0 -86 -61 -147t-146 -61zM775 -18q-87 0 -148 61q-61 60 -61 147q0 84 62 146q61 61 147 61q85 0 146 -61t61 -146q0 -87 -61 -147q-61 -61 -146 -61zM1439 43q-61 -61 -147 -61
t-147 61q-62 60 -62 147q0 84 62 146q61 61 147 61t147 -61t61 -146q0 -86 -61 -147z" />
    <glyph glyph-name="perthousand" unicode="&#x2030;" horiz-adv-x="3014" 
d="M498 633q-120 0 -217 47t-157 139q-61 92 -61 218t61 220q61 93 159 140q96 46 215 46q120 0 217 -47t157 -139q61 -94 61 -220q0 -185 -126 -295q-127 -109 -309 -109zM683 69l507 1365l186 -69l-507 -1365zM392 922q42 -43 106 -43q62 0 106 44q43 43 43 114
q0 72 -42.5 116.5t-106.5 44.5q-65 0 -107 -44.5t-42 -116.5t43 -115zM1561 -9q-87 0 -165.5 27t-138.5 77t-95.5 127.5t-35.5 172.5q0 126 61 220q61 93 159 140q96 46 215 46q120 0 217 -47t157 -139q61 -94 61 -220q0 -95 -35 -172.5t-95.5 -127.5t-138.5 -77t-166 -27z
M2516 -9q-88 0 -166 27t-138 77t-95 127.5t-35 172.5q0 126 61 220t158 140q96 46 215 46q120 0 217 -47t157 -139q61 -94 61 -220t-60.5 -219t-158 -139t-216.5 -46zM1455 280q42 -43 106 -43q62 0 106 44q43 43 43 114q0 72 -42 116t-107 44q-64 0 -106.5 -44t-42.5 -116
t43 -115zM2410 280q42 -43 106 -43q62 0 106 44q43 43 43 114q0 72 -42 116t-107 44q-64 0 -106.5 -44t-42.5 -116t43 -115z" />
    <glyph glyph-name="guilsinglleft" unicode="&#x2039;" horiz-adv-x="937" 
d="M422 1018h412l-318 -455l318 -454h-412l-318 454z" />
    <glyph glyph-name="guilsinglright" unicode="&#x203a;" horiz-adv-x="937" 
d="M104 1018h412l318 -455l-318 -454h-412l318 454z" />
    <glyph glyph-name="fraction" unicode="&#x2044;" horiz-adv-x="744" 
d="M0 0l532 1434h212l-532 -1434h-212z" />
    <glyph glyph-name="uni2070" unicode="&#x2070;" horiz-adv-x="771" 
d="M628 911q-94 -100 -242 -100t-243 99q-94 98 -94 269t94 269q95 98 243 98t242 -99q94 -98 94 -268t-94 -268zM288 1049q34 -49 97 -49q62 0 98 49t36 130t-36 130q-36 48 -98 48q-63 0 -97 -48q-36 -48 -36 -130q0 -81 36 -130z" />
    <glyph glyph-name="uni2074" unicode="&#x2074;" horiz-adv-x="762" 
d="M625 1140h90v-164h-90v-157h-207v157h-369l106 560h206l-82 -396h139v294h207v-294z" />
    <glyph glyph-name="uni2075" unicode="&#x2075;" horiz-adv-x="718" 
d="M618 1537v-164h-322l-8 -101q104 32 194 10q90 -18 139.5 -77t49.5 -140q0 -115 -87 -185q-86 -70 -224 -70t-224 69q-87 69 -87 184h207q0 -50 28.5 -78.5t74.5 -28.5q45 0 74.5 29.5t29.5 79.5q0 45 -30.5 72t-79.5 27q-46 0 -72 -25h-204l22 398h519z" />
    <glyph glyph-name="uni2076" unicode="&#x2076;" horiz-adv-x="718" 
d="M285 1536h222l-143 -238q49 22 124 7q86 -17 134 -80.5t48 -152.5q0 -117 -87 -189t-224 -72t-223 72q-87 72 -87 189q0 74 49 156zM286 988q29 -32 73 -32t74 32t30 84t-30 84q-30 31 -74 31q-45 0 -73 -31q-30 -32 -30 -84t30 -84z" />
    <glyph glyph-name="uni2077" unicode="&#x2077;" horiz-adv-x="653" 
d="M49 1536h556l-274 -717h-208l212 553h-286v164z" />
    <glyph glyph-name="uni2078" unicode="&#x2078;" horiz-adv-x="723" 
d="M552 1200q55 -14 89.5 -61t34.5 -109q0 -104 -84 -162.5t-230 -58.5t-229.5 58t-83.5 163q0 62 34.5 109t88.5 61q-44 11 -73 51t-29 91q0 98 77 150.5t215 52.5q137 0 214.5 -52.5t77.5 -150.5q0 -51 -29 -91t-73 -51zM362 1418q-44 0 -71 -21t-27 -59q0 -36 28 -57
t71 -21q42 0 69.5 21.5t27.5 56.5q0 38 -27.5 59t-70.5 21zM362 946q49 0 79.5 23.5t30.5 65.5q0 43 -30 67t-79 24q-50 0 -80.5 -24t-30.5 -67q0 -42 30 -65.5t80 -23.5z" />
    <glyph glyph-name="uni2079" unicode="&#x2079;" horiz-adv-x="718" 
d="M434 819h-222l143 238q-50 -23 -125 -6q-86 17 -133.5 80t-47.5 152q0 117 87 189t223 72q137 0 225 -72q87 -72 87 -189q0 -71 -50 -156zM433 1368q-30 31 -74 31q-45 0 -73 -31q-30 -32 -30 -85t30 -84q28 -31 73 -31q44 0 74 31t30 84t-30 85z" />
    <glyph glyph-name="Euro" unicode="&#x20ac;" horiz-adv-x="1546" 
d="M847 356q87 0 151 48.5t95 138.5l390 -93q-63 -221 -234 -344q-172 -124 -402 -124q-258 0 -436 151q-180 152 -225 416h-104l-19 134h111q-2 33 0 68h-92l-19 134h123q45 264 225 416q178 151 436 151q230 0 401 -123q170 -124 235 -345l-390 -93q-31 89 -94.5 137.5
t-151.5 48.5q-90 0 -154 -49.5t-94 -142.5h326v-134h-350q-2 -34 0 -68h350v-134h-326q30 -93 94 -143t154 -50z" />
    <glyph glyph-name="uni2116" unicode="&#x2116;" horiz-adv-x="2478" 
d="M1939 583q-181 0 -309 129q-129 128 -129 309q-3 114 57 215t163 160.5t218 57.5q176 0 306 -128q128 -128 128 -305q0 -181 -128 -309q-127 -129 -306 -129zM943 822v612h410v-1452l-839 629v-611h-410v1452zM1936 880q57 -1 99 41q41 41 41 98t-41 98t-98 41
q-58 0 -99 -41t-41 -98t41 -98t98 -41zM1501 246v246h871v-246h-871z" />
    <glyph glyph-name="trademark" unicode="&#x2122;" horiz-adv-x="1660" 
d="M1148 1136l408 316v-726h-207v329l-201 -172l-201 172v-329h-207v726zM104 1442h553v-177h-172v-539h-207v539h-174v177z" />
    <glyph glyph-name="oneeighth" unicode="&#x215b;" horiz-adv-x="1490" 
d="M49 1396l187 38h173v-717h-207v552l-140 -34zM271 0l533 1434h211l-533 -1434h-211zM1319 381q55 -14 89.5 -61t34.5 -109q0 -104 -84 -162.5t-230 -58.5t-230 58t-84 163q0 62 34.5 109t89.5 61q-44 11 -73 51t-29 91q0 98 77 150.5t215 52.5q137 0 214.5 -52.5
t77.5 -150.5q0 -51 -29 -91t-73 -51zM1129 599q-44 0 -71 -21t-27 -59q0 -36 27.5 -57.5t70.5 -21.5t70.5 21.5t27.5 57.5q0 38 -27.5 59t-70.5 21zM1129 127q49 0 79.5 23.5t30.5 65.5q0 43 -30 67t-79 24q-50 0 -80.5 -24t-30.5 -67q0 -42 30 -65.5t80 -23.5z" />
    <glyph glyph-name="threeeighths" unicode="&#x215c;" horiz-adv-x="1644" 
d="M620 922q0 -101 -80 -158q-81 -57 -206 -57q-128 0 -206 57q-79 55 -79 164l207 12q0 -35 21 -54t58 -19q36 0 56.5 21t20.5 55q0 44 -42 66.5t-115 14.5l-70 115l180 131h-305v165h525v-165l-165 -140q94 -24 147 -77t53 -131zM418 0l532 1434h212l-532 -1434h-212z
M1474 381q53 -14 87.5 -61.5t34.5 -108.5q0 -104 -83.5 -162.5t-229.5 -58.5t-229.5 58t-83.5 163q0 62 34.5 109t88.5 61q-45 11 -74 51t-29 91q0 97 77.5 150t215.5 53q137 0 214.5 -52.5t77.5 -150.5q0 -51 -28.5 -91t-72.5 -51zM1354 579q-29 20 -71 20t-70 -20
q-28 -21 -28 -60q0 -36 27.5 -57.5t70.5 -21.5t70.5 21.5t27.5 57.5q0 39 -27 60zM1204 150q32 -23 79 -23q48 0 80 23q31 22 31 66q0 43 -31 67t-80 24t-80 -24t-31 -67t32 -66z" />
    <glyph glyph-name="fiveeighths" unicode="&#x215d;" horiz-adv-x="1616" 
d="M618 1435v-164h-322l-8 -102q103 32 194 11q90 -18 139.5 -77.5t49.5 -139.5q0 -115 -87 -185q-86 -70 -224 -70t-224 69q-87 69 -87 184h207q0 -50 28.5 -78.5t74.5 -28.5q45 0 74.5 29t29.5 80q0 45 -30.5 72t-79.5 27q-44 0 -72 -26h-204l22 399h519zM439 0l533 1434
h212l-533 -1434h-212zM1445 381q55 -14 89.5 -61t34.5 -109q0 -104 -84 -162.5t-230 -58.5q-147 0 -230 57.5t-83 163.5q0 62 34.5 109t88.5 61q-44 11 -73 51t-29 91q0 98 77 150.5t215 52.5q137 0 214.5 -52.5t77.5 -150.5q0 -51 -29 -91t-73 -51zM1326 579q-29 20 -71 20
t-70 -20q-28 -21 -28 -60q0 -36 27.5 -57.5t70.5 -21.5t71 21.5t28 57.5q0 39 -28 60zM1176 150q32 -23 80 -23q47 0 79 23q31 22 31 66q0 43 -30.5 67t-79.5 24q-50 0 -80.5 -24t-30.5 -67q0 -44 31 -66z" />
    <glyph glyph-name="seveneighths" unicode="&#x215e;" horiz-adv-x="1551" 
d="M605 1434l-274 -717h-208l212 553h-286v164h556zM310 0l533 1434h211l-533 -1434h-211zM1380 381q54 -14 88.5 -61t34.5 -109q0 -104 -83.5 -162.5t-229.5 -58.5q-147 0 -230 58t-83 163q0 62 34 109t88 61q-44 11 -73 51t-29 91q0 97 77.5 150t215.5 53
q137 0 214.5 -52.5t77.5 -150.5q0 -51 -29 -91t-73 -51zM1261 579q-29 20 -71 20t-70 -20q-28 -21 -28 -60q0 -36 27.5 -57.5t70.5 -21.5t70.5 21.5t27.5 57.5q0 39 -27 60zM1111 150q32 -23 79 -23t79 23q31 22 31 66q0 43 -30.5 67t-79.5 24t-80 -24t-31 -67t32 -66z" />
    <glyph glyph-name="arrowleft" unicode="&#x2190;" horiz-adv-x="1553" 
d="M745 75l-641 642l641 641l229 -229l-251 -250l726 -1v-324l-726 1l251 -251z" />
    <glyph glyph-name="arrowup" unicode="&#x2191;" horiz-adv-x="1491" 
d="M745 1389l643 -641l-229 -229l-252 252v-726h-323v725l-251 -251l-229 229z" />
    <glyph glyph-name="arrowright" unicode="&#x2192;" horiz-adv-x="1553" 
d="M808 1358l641 -641l-641 -642l-228 229l250 251l-726 -1v324l726 1l-250 250z" />
    <glyph glyph-name="arrowdown" unicode="&#x2193;" horiz-adv-x="1491" 
d="M1159 914l229 -228l-643 -641l-641 641l229 228l251 -250v725h323v-726z" />
    <glyph glyph-name="uni2196" unicode="&#x2196;" horiz-adv-x="1273" 
d="M427 343h-323v906h908v-322h-356l513 -513l-229 -229l-513 512v-354z" />
    <glyph glyph-name="uni2197" unicode="&#x2197;" horiz-adv-x="1273" 
d="M1169 1249v-906h-322v354l-513 -512l-230 229l513 513h-354v322h906z" />
    <glyph glyph-name="uni2198" unicode="&#x2198;" horiz-adv-x="1273" 
d="M847 1092h322v-907h-906v323h354l-513 513l230 228l513 -512v355z" />
    <glyph glyph-name="uni2199" unicode="&#x2199;" horiz-adv-x="1273" 
d="M104 185v907h323v-355l513 512l229 -228l-513 -513h356v-323h-908z" />
    <glyph glyph-name="minus" unicode="&#x2212;" horiz-adv-x="1115" 
d="M104 879h906v-324h-906v324z" />
    <glyph glyph-name="lozenge" unicode="&#x25ca;" horiz-adv-x="1136" 
d="M346 1398h447l239 -681l-239 -681h-447l-242 681zM455 717l113 -332l114 332l-114 332z" />
    <glyph glyph-name="i.locl" horiz-adv-x="545" 
d="M274 1237q-70 0 -120 50t-50 120t50 120q49 49 120 49q69 0 119 -50q49 -49 49 -119q0 -71 -49 -120q-50 -50 -119 -50zM81 0v1126h384v-1126h-384z" />
    <glyph glyph-name="f_f_j.dlig" horiz-adv-x="2433" 
d="M2162 1241q-92 0 -157 66q-66 65 -66 156t66 155q65 65 157 65q90 0 155 -65t65 -155q0 -91 -65 -156q-65 -66 -155 -66zM1531 1126h821v-1140q0 -225 -95 -329t-317 -104q-105 0 -223 16v289q103 -18 168 1q83 23 83 127v842h-437v-828h-383v828h-548v-828h-383v828
h-136v298h136v32q0 214 96 311q94 97 316 97q98 0 223 -17v-271q-118 22 -180 -3q-72 -19 -72 -117v-32h548v32q0 213 95 311q94 97 317 97q98 0 223 -17v-271q-120 22 -180 -3q-72 -19 -72 -117v-32z" />
    <glyph glyph-name="f_f_t.dlig" horiz-adv-x="2807" 
d="M2727 1126v-298h-252v-388q0 -100 77 -124q67 -24 175 -5v-313q-106 -16 -224 -16q-221 0 -316 108q-96 108 -96 336v402h-560v-828h-383v828h-548v-828h-383v828h-136v298h136v32q0 214 96 311q94 97 316 97q98 0 223 -17v-271q-118 22 -180 -3q-72 -19 -72 -117v-32
h548v32q0 213 95 311q94 97 317 97q98 0 223 -17v-271q-120 22 -180 -3q-72 -19 -72 -117v-32h560v250h384v-250h252z" />
    <glyph glyph-name="f_j.dlig" horiz-adv-x="1502" 
d="M1231 1241q-93 0 -157 66q-65 65 -65 156q0 90 65 155t157 65q90 0 155 -65t65 -155q0 -91 -65 -156q-64 -66 -155 -66zM600 1126h821v-1140q0 -225 -95 -329t-316 -104q-106 0 -224 16v289q103 -18 168 1q83 23 83 127v842h-437v-828h-383v828h-136v298h136v32
q0 214 96 311q94 97 316 97q98 0 223 -17v-271q-118 22 -180 -3q-72 -19 -72 -117v-32z" />
    <glyph glyph-name="f_t.dlig" horiz-adv-x="1863" 
d="M1783 1126v-298h-252v-388q0 -100 77 -124q67 -24 175 -5v-313q-105 -16 -223 -16q-222 0 -316 108q-96 108 -96 336v402h-548v-828h-383v828h-136v298h136v32q0 214 96 311q94 97 316 97q98 0 223 -17v-271q-118 22 -180 -3q-72 -19 -72 -117v-32h548v250h383v-250h252z
" />
    <glyph glyph-name="zero.sinf" horiz-adv-x="771" 
d="M628 -115q-94 -99 -242 -99t-243 99q-94 98 -94 269t94 269q95 98 243 98t242 -99q94 -98 94 -268q0 -169 -94 -269zM288 24q34 -49 97 -49q62 0 98 49t36 130q0 80 -36 129t-98 49q-63 0 -97 -48q-36 -48 -36 -130q0 -80 36 -130z" />
    <glyph glyph-name="one.sinf" horiz-adv-x="457" 
d="M49 474l187 38h173v-717h-207v552l-140 -34z" />
    <glyph glyph-name="two.sinf" horiz-adv-x="662" 
d="M613 326q-5 -129 -127 -235q-60 -53 -157 -121q-4 -3 -9.5 -6.5t-7.5 -4.5h301v-164h-553v164h-1q177 132 229 178q118 103 118 167q0 27 -19 42t-54 15q-65 0 -74 -66l-207 14q4 102 81 158q76 55 200 55q127 0 203 -48q77 -50 77 -148z" />
    <glyph glyph-name="three.sinf" horiz-adv-x="668" 
d="M585 348l-165 -139q94 -24 147 -77.5t53 -131.5q0 -101 -80 -158q-81 -57 -206 -57q-128 0 -206 57q-79 57 -79 164l207 12q0 -35 21 -53.5t58 -18.5q36 0 56.5 21t20.5 55q0 44 -42 66.5t-115 13.5l-70 115l180 131h-305v165h525v-165z" />
    <glyph glyph-name="four.sinf" horiz-adv-x="762" 
d="M625 116h90v-164h-90v-157h-207v157h-369l106 560h206l-82 -396h139v294h207v-294z" />
    <glyph glyph-name="five.sinf" horiz-adv-x="718" 
d="M618 513v-164h-322l-8 -101q104 32 194 10q90 -18 139.5 -77t49.5 -140q0 -115 -87 -185q-86 -70 -224 -70t-224 69q-87 69 -87 184h207q0 -50 28.5 -78.5t74.5 -28.5q45 0 74.5 29.5t29.5 79.5q0 45 -30.5 72t-79.5 27q-46 0 -72 -25h-204l22 398h519z" />
    <glyph glyph-name="six.sinf" horiz-adv-x="718" 
d="M285 512h222l-143 -238q49 22 124 7q86 -17 134 -80.5t48 -152.5q0 -117 -87 -189t-224 -72t-223 72q-87 72 -87 189q0 74 49 156zM286 -37q28 -31 73 -31q44 0 74 31t30 85q0 52 -30 84q-30 31 -74 31q-45 0 -73 -31q-30 -32 -30 -84q0 -53 30 -85z" />
    <glyph glyph-name="seven.sinf" horiz-adv-x="653" 
d="M49 512h556l-274 -717h-208l212 553h-286v164z" />
    <glyph glyph-name="eight.sinf" horiz-adv-x="723" 
d="M552 176q55 -14 89.5 -61t34.5 -109q0 -104 -84 -162.5t-230 -58.5t-229.5 58t-83.5 163q0 62 34.5 109t88.5 61q-44 11 -73 51t-29 91q0 98 77 150.5t215 52.5q137 0 214.5 -52.5t77.5 -150.5q0 -51 -29 -91t-73 -51zM362 394q-44 0 -71 -21t-27 -59q0 -36 28 -57
t71 -21q42 0 69.5 21.5t27.5 56.5q0 38 -27.5 59t-70.5 21zM362 -78q49 0 79.5 23.5t30.5 65.5q0 43 -30 67t-79 24q-50 0 -80.5 -24t-30.5 -67q0 -42 30 -65.5t80 -23.5z" />
    <glyph glyph-name="nine.sinf" horiz-adv-x="718" 
d="M434 -213h-222l143 238q-53 -23 -125 -8q-86 18 -133.5 81.5t-47.5 152.5q0 117 87 189t223 72q137 0 225 -72q87 -72 87 -189q0 -71 -50 -156zM433 335q-30 31 -74 31q-45 0 -73 -31q-30 -31 -30 -84q0 -52 29 -84t74 -32q46 0 75 31.5t29 84.5t-30 84z" />
    <glyph glyph-name="zero.dnom" horiz-adv-x="771" 
d="M628 90q-94 -99 -242 -99t-243 99q-94 97 -94 268t94 269q95 99 243 99t242 -99q94 -100 94 -269q0 -170 -94 -268zM288 229q34 -49 97 -49q62 0 98 49t36 130q0 79 -36 129q-36 49 -98 49q-63 0 -97 -48q-36 -49 -36 -131q0 -81 36 -129z" />
    <glyph glyph-name="one.dnom" horiz-adv-x="457" 
d="M49 679l187 38h173v-717h-207v552l-140 -34z" />
    <glyph glyph-name="two.dnom" horiz-adv-x="662" 
d="M613 530q0 -58 -33 -124q-14 -27 -43 -57q-30 -33 -46 -49q-18 -18 -59 -49q-36 -28 -58 -42l-12 -9t-22.5 -16t-27.5 -19h301v-165h-553v164h-1q1 0 1 1q175 130 227 176q119 104 119 168q0 27 -19 42t-54 15q-65 0 -74 -66l-207 14q4 102 81 158q76 55 200 55
q127 0 203 -49q77 -50 77 -148z" />
    <glyph glyph-name="three.dnom" horiz-adv-x="668" 
d="M585 553l-165 -139q94 -24 147 -77.5t53 -131.5q0 -101 -80 -158q-81 -57 -206 -57q-128 0 -206 57q-79 55 -79 164l207 12q0 -35 21 -53.5t58 -18.5q36 0 56.5 21t20.5 54q0 44 -42 66.5t-115 14.5l-70 115l180 131h-305v165h525v-165z" />
    <glyph glyph-name="four.dnom" horiz-adv-x="762" 
d="M625 321h90v-164h-90v-157h-207v157h-369l106 560h206l-82 -396h139v293h207v-293z" />
    <glyph glyph-name="five.dnom" horiz-adv-x="718" 
d="M618 718v-164h-322l-8 -101q104 32 194 10q90 -18 139.5 -77t49.5 -140q0 -115 -87 -185q-86 -70 -224 -70t-224 69q-87 69 -87 184h207q0 -50 28.5 -78.5t74.5 -28.5q45 0 74.5 29.5t29.5 79.5q0 45 -30.5 72t-79.5 27q-44 0 -72 -26h-204l22 399h519z" />
    <glyph glyph-name="six.dnom" horiz-adv-x="718" 
d="M285 717h222l-143 -238q50 23 124 6q86 -17 134 -80t48 -152q0 -117 -87 -189t-224 -72t-223 72q-87 72 -87 189q0 74 49 156zM286 169q29 -32 73 -32t74 32q30 31 30 84t-30 84t-74 31q-45 0 -73 -31q-30 -31 -30 -84t30 -84z" />
    <glyph glyph-name="seven.dnom" horiz-adv-x="653" 
d="M49 717h556l-274 -717h-208l212 553h-286v164z" />
    <glyph glyph-name="eight.dnom" horiz-adv-x="723" 
d="M552 381q55 -14 89.5 -61t34.5 -109q0 -104 -84 -162.5t-230 -58.5q-147 0 -230 57.5t-83 163.5q0 62 34.5 109t88.5 61q-44 11 -73 51t-29 91q0 98 77 150.5t215 52.5q137 0 214.5 -52.5t77.5 -150.5q0 -51 -29 -91t-73 -51zM362 599q-44 0 -71 -21t-27 -59
q0 -36 28 -57.5t71 -21.5q42 0 69.5 21.5t27.5 57.5q0 38 -27.5 59t-70.5 21zM362 127q49 0 79.5 23.5t30.5 65.5q0 43 -30 67t-79 24q-50 0 -80.5 -24t-30.5 -67q0 -42 30 -65.5t80 -23.5z" />
    <glyph glyph-name="nine.dnom" horiz-adv-x="718" 
d="M434 -8h-222l143 237q-50 -23 -125 -6q-85 17 -133 80.5t-48 152.5q0 117 87 189t223 72q137 0 225 -72q87 -73 87 -189q0 -71 -50 -156zM433 540q-30 31 -74 31q-45 0 -73 -31q-30 -32 -30 -84q0 -54 30 -84q28 -31 73 -31q44 0 74 31q30 30 30 84q0 52 -30 84z" />
    <glyph glyph-name="zero.numr" horiz-adv-x="771" 
d="M628 808q-94 -99 -242 -99t-243 99q-94 97 -94 268t94 269q95 99 243 99t242 -99q94 -100 94 -269q0 -170 -94 -268zM288 947q34 -49 97 -49q62 0 98 49q36 48 36 129q0 80 -36 130q-36 48 -98 48q-63 0 -97 -48q-36 -48 -36 -130q0 -81 36 -129z" />
    <glyph glyph-name="one.numr" horiz-adv-x="457" 
d="M49 1396l187 38h173v-717h-207v552l-140 -34z" />
    <glyph glyph-name="two.numr" horiz-adv-x="662" 
d="M613 1237q0 -57 -33 -125q-14 -27 -43 -57q-40 -42 -46 -48q-23 -23 -59 -49q-16 -12 -35.5 -26t-22.5 -17l-12 -9t-22.5 -16t-27.5 -19h301v-164h-553v163h-1q1 0 1 1q178 133 227 177q119 104 119 167q0 27 -19 42.5t-54 15.5q-65 0 -74 -67l-207 15q4 102 81 158
q76 55 200 55q127 0 203 -49q77 -50 77 -148z" />
    <glyph glyph-name="three.numr" horiz-adv-x="668" 
d="M585 1270l-165 -140q93 -24 146.5 -77.5t53.5 -130.5q0 -101 -80 -158q-81 -57 -206 -57q-128 0 -206 57q-79 55 -79 164l207 12q0 -35 21 -54t58 -19q36 0 56.5 21t20.5 55q0 44 -42 66.5t-115 14.5l-70 115l180 131h-305v165h525v-165z" />
    <glyph glyph-name="four.numr" horiz-adv-x="762" 
d="M625 1037h90v-164h-90v-156h-207v156h-369l106 561h206l-82 -397h139v294h207v-294z" />
    <glyph glyph-name="five.numr" horiz-adv-x="718" 
d="M618 1435v-164h-322l-8 -102q103 32 194 11q90 -18 139.5 -77.5t49.5 -139.5q0 -115 -87 -185q-86 -70 -224 -70t-224 69q-87 69 -87 184h207q0 -50 28.5 -78.5t74.5 -28.5q45 0 74.5 29t29.5 80q0 45 -30.5 72t-79.5 27q-44 0 -72 -26h-204l22 399h519z" />
    <glyph glyph-name="six.numr" horiz-adv-x="718" 
d="M285 1434h222l-143 -238q50 23 124 6q86 -17 134 -80t48 -152q0 -117 -87 -189t-224 -72t-223 72q-87 72 -87 189q0 73 49 155zM286 885q28 -31 73 -31q44 0 74 31t30 85q0 52 -30 84q-30 30 -74 30q-45 0 -73 -30q-30 -32 -30 -84q0 -54 30 -85z" />
    <glyph glyph-name="seven.numr" horiz-adv-x="653" 
d="M49 1434h556l-274 -717h-208l212 553h-286v164z" />
    <glyph glyph-name="eight.numr" horiz-adv-x="723" 
d="M552 1098q55 -14 89.5 -61t34.5 -109q0 -104 -84 -162.5t-230 -58.5q-147 0 -230 57.5t-83 163.5q0 61 34.5 108t88.5 62q-44 11 -73 51t-29 91q0 98 77 150.5t215 52.5q137 0 214.5 -53t77.5 -150q0 -51 -29 -91t-73 -51zM362 1316q-44 0 -71 -21t-27 -59
q0 -36 28 -57.5t71 -21.5q42 0 69.5 21.5t27.5 57.5q0 38 -27.5 59t-70.5 21zM362 844q49 0 79.5 23.5t30.5 65.5q0 43 -30 67t-79 24q-50 0 -80.5 -24t-30.5 -67q0 -42 30 -65.5t80 -23.5z" />
    <glyph glyph-name="nine.numr" horiz-adv-x="718" 
d="M434 717h-222l143 237q-50 -23 -125 -6q-85 17 -133 80.5t-48 152.5q0 117 87 189t223 72q137 0 225 -72q87 -74 87 -189q0 -71 -50 -156zM433 1265q-30 31 -74 31q-45 0 -73 -31q-30 -31 -30 -84q0 -54 30 -84q28 -31 73 -31q44 0 74 31q30 30 30 84q0 53 -30 84z" />
    </font>
</defs>
</svg>
