<?xml version="1.0" standalone="no"?>
<!DOCTYPE svg PUBLIC "-//W3C//DTD SVG 1.1//EN" "http://www.w3.org/Graphics/SVG/1.1/DTD/svg11.dtd" >
<svg xmlns="http://www.w3.org/2000/svg" xmlns:xlink="http://www.w3.org/1999/xlink" version="1.1">
<metadata>
Created by FontForge 20170731 at Fri Nov 23 14:17:47 2018
 By Aleksey,,,
Copyright (c) 2018 by TypeUnion. All rights reserved. Desktop use is strictly prohibited.
</metadata>
<defs>
<font id="Neometric-ExtraBold" horiz-adv-x="526" >
  <font-face 
    font-family="Neometric Extra Bold"
    font-weight="700"
    font-stretch="normal"
    units-per-em="2048"
    panose-1="0 0 8 0 0 0 0 0 0 0"
    ascent="1638"
    descent="-410"
    x-height="1126"
    cap-height="1434"
    bbox="-940 -569 2932 2132"
    underline-thickness="0"
    underline-position="0"
    unicode-range="U+0020-25CA"
  />
<missing-glyph horiz-adv-x="1024" 
d="M190 1638h650v-2048h-650v2048zM682 1434v67h-338v-67h133v-76h-135v-68h340v68h-135v76h135zM547 1094v143h-205v-213h340v70h-135zM410 1167h67v-73h-67v73zM682 901v68h-340v-68h135v-76h-135v-67h205v143h135zM682 641v205h-68v-135h-272v-70h340zM682 365v231h-205
v-115h70v47h67v-96h-204v164h-68v-231h340zM682 10v232h-340v-232h340zM410 174h204v-96h-204v96zM682 -104v67h-340v-67h143l-143 -97v-67h340v67h-209l143 97h66z" />
    <glyph glyph-name="f_f.liga" unicode="ff" horiz-adv-x="1852" 
d="M1578 1307q-86 -17 -86 -133v-48h265v-261h-265v-865h-336v865h-581v-865h-335v865h-145v261h145v46q0 201 89 296q88 94 295 94q104 0 217 -18v-238q-116 23 -179 1q-85 -16 -87 -133v-48h581v46q0 201 89 296q88 94 295 94q106 0 217 -18v-238q-114 23 -179 1z" />
    <glyph glyph-name="f_f_i.liga" unicode="ffi" horiz-adv-x="2404" 
d="M2142 1257q-82 0 -139 58q-57 57 -57 139q0 81 58 139q57 57 138 57q80 0 138 -57q57 -59 57 -139t-57 -139q-58 -58 -138 -58zM1492 1126h817v-1126h-336v865h-481v-865h-336v865h-581v-865h-335v865h-145v261h145v46q0 201 89 296q88 94 295 94q104 0 217 -18v-238
q-116 23 -179 1q-85 -16 -87 -133v-48h581v46q0 201 89 296q88 94 295 94q106 0 217 -18v-238q-115 23 -179 1q-86 -17 -86 -133v-48z" />
    <glyph glyph-name="f_i.liga" unicode="fi" horiz-adv-x="1487" 
d="M1363 1315q-57 -58 -138 -58t-139 58t-58 139t58 139q58 57 139 57t138 -57q57 -59 57 -139t-57 -139zM575 1126h818v-1126h-336v865h-482v-865h-335v865h-145v261h145v46q0 201 89 296q88 94 295 94q104 0 217 -18v-238q-116 23 -179 1q-85 -16 -87 -133v-48z" />
    <glyph glyph-name=".notdef" horiz-adv-x="1024" 
d="M190 1638h650v-2048h-650v2048zM682 1434v67h-338v-67h133v-76h-135v-68h340v68h-135v76h135zM547 1094v143h-205v-213h340v70h-135zM410 1167h67v-73h-67v73zM682 901v68h-340v-68h135v-76h-135v-67h205v143h135zM682 641v205h-68v-135h-272v-70h340zM682 365v231h-205
v-115h70v47h67v-96h-204v164h-68v-231h340zM682 10v232h-340v-232h340zM410 174h204v-96h-204v96zM682 -104v67h-340v-67h143l-143 -97v-67h340v67h-209l143 97h66z" />
    <glyph glyph-name="glyph1" horiz-adv-x="0" 
 />
    <glyph glyph-name="glyph2" horiz-adv-x="681" 
 />
    <glyph glyph-name="space" unicode=" " horiz-adv-x="512" 
 />
    <glyph glyph-name="exclam" unicode="!" horiz-adv-x="581" 
d="M436 508h-291l-22 926h336zM292 377q80 0 137 -58q57 -59 57 -139t-57 -137q-57 -58 -137 -58q-81 0 -139 58q-58 57 -58 137q0 82 58 140q59 57 139 57z" />
    <glyph glyph-name="quotedbl" unicode="&#x22;" horiz-adv-x="1018" 
d="M434 915h-290l-23 519h336zM874 915h-289l-24 519h336z" />
    <glyph glyph-name="numbersign" unicode="#" horiz-adv-x="1944" 
d="M1824 1121l-77 -278h-246l-65 -252h259l-77 -279h-254l-80 -312h-355l80 312h-296l-80 -312h-354l79 312h-237l77 279h232l66 252h-246l77 278h240l80 313h354l-79 -313h296l79 313h356l-80 -313h251zM784 591h296l66 252h-296z" />
    <glyph glyph-name="dollar" unicode="$" horiz-adv-x="1317" 
d="M666 885q66 -19 146 -46q43 -14 125 -46q113 -46 190 -108q58 -49 83.5 -110.5t27.5 -150.5q-1 -182 -115 -293.5t-321 -138.5v-135h-284v136q-200 30 -314 139t-124 287l358 25q12 -83 72 -128.5t153 -45.5q97 0 155 38t59 108q-2 48 -34 82t-95 63q-42 20 -169 61
q-75 23 -97 31q-32 10 -86 29q-44 15 -76 32q-87 43 -117 76q-56 58 -71 105q-23 73 -23 152q0 169 111 270q110 99 298 125v135h284v-138q174 -30 277 -131.5t115 -261.5l-358 -26q-14 74 -62.5 114.5t-122.5 40.5q-88 0 -136 -37.5t-48 -105.5q2 -39 23 -63.5t64 -44.5
q42 -20 112 -39z" />
    <glyph glyph-name="percent" unicode="%" horiz-adv-x="2062" 
d="M509 634q-118 0 -214 47.5t-155 139.5q-60 93 -60 216q0 185 125 296q125 110 304 110q119 0 215 -48t155 -140q60 -95 60 -218t-60 -216q-60 -94 -156 -140q-99 -47 -214 -47zM694 61l510 1373l164 -62l-509 -1372zM385 905q49 -51 124 -51q74 0 125 51t51 132t-51 134
q-51 52 -125 52q-75 0 -124 -52q-51 -53 -51 -134t51 -132zM1552 -9q-179 0 -304 110t-125 295q0 184 125 294t304 110q180 0 305 -110t125 -294q0 -185 -125 -295t-305 -110zM1428 263q51 -52 125 -52q73 0 125 52q51 51 51 132t-51 134q-51 51 -126 51t-124 -52
q-51 -52 -51 -133t51 -132z" />
    <glyph glyph-name="ampersand" unicode="&#x26;" horiz-adv-x="1617" 
d="M1317 229l220 -229h-361l-70 73q-186 -89 -428 -89q-532 0 -586 322q-40 228 110 374q80 78 217 119q-77 98 -106 181q-29 82 -20 173q15 142 135 220.5t327 78.5q189 0 304 -79q114 -79 134 -213q26 -159 -61 -276.5t-276 -171.5l262 -275q50 89 50 213l287 -30
q0 -229 -138 -391zM755 1243q-70 0 -113.5 -35t-43.5 -96q0 -99 109 -236q85 51 135 97q71 65 65 139q-4 61 -45 96t-107 35zM739 232q100 8 176 38l-326 340q-88 -41 -128.5 -102t-25.5 -125q9 -54 56 -91.5t113 -50.5q62 -13 135 -9z" />
    <glyph glyph-name="quotesingle" unicode="'" horiz-adv-x="578" 
d="M434 915h-290l-23 519h336z" />
    <glyph glyph-name="parenleft" unicode="(" horiz-adv-x="753" 
d="M274 1556h359q-307 -993 0 -1986h-359q-308 993 0 1986z" />
    <glyph glyph-name="parenright" unicode=")" horiz-adv-x="753" 
d="M121 1556h358q307 -993 0 -1986h-358q307 993 0 1986z" />
    <glyph glyph-name="asterisk" unicode="*" horiz-adv-x="925" 
d="M625 1235h179v-187h-180l90 -156l-161 -93l-90 155l-90 -155l-162 93l90 156h-180v187h179l-89 155l162 94l90 -157l90 157l161 -94z" />
    <glyph glyph-name="plus" unicode="+" horiz-adv-x="1135" 
d="M710 859h305v-285h-305v-304h-284v304h-305v285h305v304h284v-304z" />
    <glyph glyph-name="comma" unicode="," 
d="M6 -276l81 494h351l-127 -494h-305z" />
    <glyph glyph-name="hyphen" unicode="-" horiz-adv-x="854" 
d="M121 421v285h612v-285h-612z" />
    <glyph glyph-name="period" unicode="." horiz-adv-x="492" 
d="M247 -17q-77 0 -131 54q-55 54 -55 131q0 76 55 130q54 54 131 54q76 0 130 -54t54 -130q0 -77 -54 -131t-130 -54z" />
    <glyph glyph-name="slash" unicode="/" horiz-adv-x="842" 
d="M57 -205l369 1639h358l-368 -1639h-359z" />
    <glyph glyph-name="zero" unicode="0" horiz-adv-x="1474" 
d="M737 -17q-295 0 -476 199q-181 197 -181 535q0 337 181 536q182 198 476 198q295 0 476 -198q182 -200 182 -536t-182 -535q-181 -199 -476 -199zM737 311q145 0 226 110q80 110 80 296q0 187 -79 296t-226 109q-148 0 -227 -109q-80 -110 -80 -296q0 -185 80 -295
q79 -111 226 -111z" />
    <glyph glyph-name="one" unicode="1" horiz-adv-x="823" 
d="M39 1361l364 73h298v-1434h-358v1149l-281 -66z" />
    <glyph glyph-name="two" unicode="2" horiz-adv-x="1338" 
d="M578 285h640v-285h-1077v284h-2q290 220 371 288q286 238 334 390q10 31 10 63q0 69 -49 109.5t-136 40.5q-153 0 -185 -155l-358 26q15 199 163 302q148 104 380 104q118 0 215 -23t171.5 -69.5t115.5 -122.5t41 -176q0 -238 -249 -470q-130 -122 -357 -286
q-24 -16 -28 -20z" />
    <glyph glyph-name="three" unicode="3" horiz-adv-x="1276" 
d="M1137 1151l-357 -323q190 -44 303 -151q114 -108 114 -271q0 -132 -73 -230t-201 -147q-125 -48 -284 -48q-162 -2 -287 46t-198.5 147.5t-73.5 237.5l358 22q1 -83 55.5 -129.5t145.5 -46.5q90 0 145 50.5t55 132.5q0 104 -91 159q-92 56 -251 42l-122 199l376 310h-652
v284h1038v-284z" />
    <glyph glyph-name="four" unicode="4" horiz-adv-x="1530" 
d="M1208 600h202v-284h-202v-316h-358v316h-729l221 1118h357l-181 -834h333v615h357v-615z" />
    <glyph glyph-name="five" unicode="5" horiz-adv-x="1364" 
d="M1188 1435v-284h-659l-20 -233q85 31 186.5 40.5t209.5 -7.5q175 -31 277 -159t102 -290q2 -149 -77 -269t-217 -185t-308 -63q-262 0 -432 144q-170 143 -170 373h358q0 -118 71 -191q70 -73 173 -73q104 0 174 73q70 71 70 191q0 102 -70 163t-174 66q-110 3 -186 -58
h-357l48 762h1001z" />
    <glyph glyph-name="six" unicode="6" horiz-adv-x="1363" 
d="M573 1434h385l-296 -475q98 36 243 11q178 -31 279 -161t101 -307q2 -149 -77 -269t-217.5 -185t-308.5 -63q-262 0 -432 144q-170 143 -170 373q0 143 100 304zM509 311q70 -73 173 -73q104 0 174 73q71 73 71 191q0 106 -71 177q-71 70 -174 70t-173 -70
q-71 -71 -71 -177q0 -118 71 -191z" />
    <glyph glyph-name="seven" unicode="7" horiz-adv-x="1192" 
d="M80 1434h1074l-549 -1434h-359l440 1150h-606v284z" />
    <glyph glyph-name="eight" unicode="8" horiz-adv-x="1374" 
d="M1034 759q114 -28 188 -123q72 -94 72 -222q0 -207 -164 -320t-443 -113t-443 113t-164 320q0 128 73 222q72 95 187 123q-97 24 -158 105q-62 80 -62 187q0 193 153 297q151 103 414 103q261 0 415 -104q152 -104 152 -296q0 -105 -62 -187q-63 -81 -158 -105zM853 1183
q-65 49 -166 49t-165 -49q-66 -49 -66 -140q0 -86 66 -134q64 -48 165 -48q100 0 166 48t66 134q0 91 -66 140zM503 271q73 -53 184 -53t184 53q72 53 72 151q0 101 -72 155q-73 53 -184 53t-184 -53q-72 -54 -72 -155q0 -98 72 -151z" />
    <glyph glyph-name="nine" unicode="9" horiz-adv-x="1364" 
d="M791 2h-384l296 474q-97 -36 -243 -10q-178 31 -279 161t-101 307q-2 149 77 269t217 185t308 63q264 0 433 -144t169 -373q0 -144 -99 -304zM682 1198q-102 0 -173 -72q-71 -74 -71 -192q0 -106 72 -176q71 -71 172 -71q103 0 173 70q71 71 71 177q0 119 -70 192
q-70 72 -174 72z" />
    <glyph glyph-name="colon" unicode=":" horiz-adv-x="559" 
d="M281 774q-77 0 -131 55q-55 55 -55 132q0 76 55 130q55 53 131 53t130 -54q54 -56 54 -129q0 -77 -54 -132t-130 -55zM281 -17q-77 0 -131 54q-55 54 -55 131q0 76 55 130q54 54 131 54q76 0 130 -54t54 -130q0 -77 -54 -131t-130 -54z" />
    <glyph glyph-name="semicolon" unicode=";" horiz-adv-x="559" 
d="M281 774q-77 0 -131 55q-55 55 -55 132q0 76 55 130q55 53 131 53t130 -54q54 -56 54 -129q0 -77 -54 -132t-130 -55zM24 -276l80 494h352l-128 -494h-304z" />
    <glyph glyph-name="less" unicode="&#x3c;" horiz-adv-x="1135" 
d="M121 860l894 221v-283l-538 -133l538 -134v-283l-894 221v391z" />
    <glyph glyph-name="equal" unicode="=" horiz-adv-x="1135" 
d="M121 1091h894v-284h-894v284zM121 627h894v-284h-894v284z" />
    <glyph glyph-name="greater" unicode="&#x3e;" horiz-adv-x="1135" 
d="M121 798v283l894 -221v-391l-894 -221v283l537 134z" />
    <glyph glyph-name="question" unicode="?" horiz-adv-x="1246" 
d="M803 476h-359q-12 65 1 121.5t44 97.5t71.5 76.5t84 66t79.5 58.5t59.5 61t23.5 68q0 69 -49 109.5t-135 40.5q-153 0 -185 -155l-358 26q15 199 163 302q148 104 380 104q239 0 385 -82q157 -89 157 -290q0 -69 -19 -126t-55 -100t-69.5 -72.5t-79.5 -63.5
q-12 -8 -17 -12q-26 -19 -41.5 -32t-34.5 -31.5t-29 -35t-18 -37t-7.5 -44t8.5 -50.5zM625 -17q-77 0 -129 54q-54 52 -54 128t54 128q55 53 129 53q73 0 128 -53q53 -53 53 -128t-53 -128q-53 -54 -128 -54z" />
    <glyph glyph-name="at" unicode="@" horiz-adv-x="1914" 
d="M1835 644q-5 -227 -106 -373q-104 -147 -266 -165q-179 -13 -310 151q-83 -146 -274 -146q-185 0 -294 120q-111 121 -98 315q14 194 141 314q128 120 312 120q190 0 253 -145l16 133h204l-31 -454q-8 -101 26 -152t104 -35q39 6 69.5 35.5t48.5 77.5q32 87 38 209
q14 289 -168 456t-491 167q-201 0 -370 -96t-270 -263q-102 -170 -112 -372q-11 -317 183 -504t518 -182q157 3 272 37t235 113l103 -120q-152 -97 -294 -141q-144 -44 -319 -44q-193 0 -357 58.5t-281 166.5q-118 109 -180 268t-56 348q8 183 83 344q74 162 198 281
q122 116 292 187q168 71 355 72q244 0 431 -94q188 -95 294 -272q106 -179 101 -415zM1149 547q7 91 -45 150q-52 57 -142 57q-93 0 -153 -55.5t-68 -152.5q-7 -98 45.5 -153.5t146.5 -55.5q88 0 150 59t66 151z" />
    <glyph glyph-name="A" unicode="A" horiz-adv-x="1499" 
d="M1460 0h-369l-69 228h-545l-68 -228h-370l432 1434h557zM750 1141l-189 -629h377z" />
    <glyph glyph-name="B" unicode="B" horiz-adv-x="1404" 
d="M1082 744q97 -26 170 -121t73 -231q0 -174 -124 -283t-305 -109h-775v1434h724q183 0 306 -102q123 -104 123 -275q0 -122 -52.5 -203.5t-139.5 -109.5zM770 1157h-291v-306h291q61 0 103 44q42 43 42 110q0 65 -42 109q-42 43 -103 43zM479 276h342q60 0 104 44
q42 44 42 110q0 65 -42 109t-104 44h-342v-307z" />
    <glyph glyph-name="C" unicode="C" horiz-adv-x="1586" 
d="M837 311q114 0 207.5 54t144.5 148l316 -149q-91 -178 -269 -279q-177 -102 -399 -102q-212 0 -385 92q-171 91 -272 261q-100 167 -100 381q0 213 100 382q101 170 272 260q173 92 385 92q221 0 399 -101q178 -103 269 -280l-316 -149q-51 94 -145 147.5t-207 53.5
q-171 0 -288 -114q-118 -115 -118 -291t118 -291q116 -115 288 -115z" />
    <glyph glyph-name="D" unicode="D" horiz-adv-x="1548" 
d="M121 1434h619q211 0 377 -91q167 -91 258 -255q92 -164 92 -371q3 -205 -90.5 -370t-261 -257.5t-375.5 -89.5h-619v1434zM479 284h217q173 0 293 122t120 311q0 195 -119 314t-294 119h-217v-866z" />
    <glyph glyph-name="E" unicode="E" horiz-adv-x="1276" 
d="M121 0v1434h1004v-284h-646v-302h584v-285h-584v-279h677v-284h-1035z" />
    <glyph glyph-name="F" unicode="F" horiz-adv-x="1254" 
d="M121 0v1434h1013v-284h-656v-302h593v-285h-592v-563h-358z" />
    <glyph glyph-name="G" unicode="G" horiz-adv-x="1673" 
d="M800 571v239h794v-93q0 -213 -99 -381q-101 -170 -272 -261q-173 -92 -386 -92q-212 0 -385 92q-171 91 -272 261q-100 167 -100 381q0 213 100 382q101 170 272 260q173 92 385 92q222 0 400 -101q178 -103 269 -280l-317 -149q-51 94 -144.5 147.5t-207.5 53.5
q-169 0 -288 -114q-118 -115 -118 -291t118 -291t288 -115q121 0 223 75t150 185h-410z" />
    <glyph glyph-name="H" unicode="H" horiz-adv-x="1475" 
d="M997 818v616h358v-1434h-359v534h-517v-534h-358v1434h357v-616h519z" />
    <glyph glyph-name="I" unicode="I" horiz-adv-x="600" 
d="M121 0v1434h358v-1434h-358z" />
    <glyph glyph-name="J" unicode="J" horiz-adv-x="1368" 
d="M80 394l347 86q22 -82 79.5 -125.5t144.5 -43.5q111 0 174 69t63 192l1 862h358v-839q0 -296 -160 -453q-161 -159 -436 -159q-224 0 -372 105.5t-199 305.5z" />
    <glyph glyph-name="K" unicode="K" horiz-adv-x="1344" 
d="M931 1434h375l-452 -615l452 -819h-375l-295 523l-157 -213v-310h-358v1434h358v-637z" />
    <glyph glyph-name="L" unicode="L" horiz-adv-x="1165" 
d="M1044 0h-923v1434h358l-1 -1150h566v-284z" />
    <glyph glyph-name="M" unicode="M" horiz-adv-x="1930" 
d="M966 781l843 670v-1451h-358v740l-485 -411l-487 411v-740h-358v1451z" />
    <glyph glyph-name="N" unicode="N" horiz-adv-x="1462" 
d="M982 754v680h358v-1451l-861 697v-680h-358v1451z" />
    <glyph glyph-name="O" unicode="O" horiz-adv-x="1674" 
d="M837 -17q-212 0 -385 92q-171 91 -272 261q-100 167 -100 381q0 213 100 382q101 170 272 260q173 92 385 92t385 -92q171 -90 272 -260q99 -170 99 -382q0 -213 -99 -381q-101 -170 -272 -261q-173 -92 -385 -92zM549 427q119 -116 288 -116t288 116q118 115 118 290
t-117 291q-118 114 -289 114t-288 -114q-118 -115 -118 -291q0 -175 118 -290z" />
    <glyph glyph-name="P" unicode="P" horiz-adv-x="1374" 
d="M121 1434h596q275 0 426 -142q150 -142 150 -376t-150 -376q-151 -142 -426 -142h-238v-398h-358v1434zM478 683h201q114 0 185 67q71 66 71 165q1 99 -70 167q-73 68 -186 68h-201v-467z" />
    <glyph glyph-name="Q" unicode="Q" horiz-adv-x="1674" 
d="M1485 321l137 -139l-238 -237l-141 142q-181 -105 -406 -105q-158 0 -298 53.5t-241 150.5q-102 97 -160 235t-58 295q0 213 100 382q101 170 272 260q173 92 385 92t385 -92q171 -90 272 -260q99 -169 99 -382q0 -222 -108 -395zM431 716q0 -175 118 -290
q119 -116 288 -116t288 116q118 115 118 290q0 176 -117 291q-118 115 -289 115q-172 0 -288 -115q-118 -115 -118 -291z" />
    <glyph glyph-name="R" unicode="R" horiz-adv-x="1381" 
d="M1293 915q0 -163 -74 -283t-214 -180l277 -452h-360l-240 398h-203v-398h-358v1434h596q274 0 426 -143q150 -143 150 -376zM478 1150v-467h201q114 0 185 67q71 66 71 165q1 99 -70 167q-73 68 -186 68h-201z" />
    <glyph glyph-name="S" unicode="S" horiz-adv-x="1317" 
d="M1194 1046l-358 -26q-14 74 -62.5 114.5t-122.5 40.5q-88 0 -136 -37.5t-48 -105.5q2 -39 23 -63.5t64 -44.5q42 -20 112 -39q66 -19 146 -46q43 -14 125 -46q113 -46 190 -108q58 -49 83.5 -110.5t27.5 -150.5q-2 -216 -155 -328q-155 -113 -419 -113q-258 0 -415 112
t-169 324l358 25q12 -83 72 -128.5t153 -45.5q97 0 155 38t59 108q-2 48 -34 82t-95 63q-42 20 -169 61q-75 23 -97 31q-32 10 -86 29q-44 15 -76 32q-87 43 -117 76q-56 58 -71 105q-23 73 -23 152q0 130 71 224t194 138q120 42 277 42q232 0 380 -103t163 -302z" />
    <glyph glyph-name="T" unicode="T" horiz-adv-x="1235" 
d="M80 1434h1076v-284h-358v-1150h-359v1150h-359v284z" />
    <glyph glyph-name="U" unicode="U" horiz-adv-x="1434" 
d="M954 572l1 862h359v-839q0 -295 -161 -453q-161 -159 -436 -159t-436 159q-160 157 -160 453v839h358v-862q0 -123 63.5 -192t174.5 -69t174 69t63 192z" />
    <glyph glyph-name="V" unicode="V" horiz-adv-x="1448" 
d="M724 314l304 1120h381l-410 -1434h-550l-410 1434h382z" />
    <glyph glyph-name="W" unicode="W" horiz-adv-x="2272" 
d="M1589 403l234 1031h410l-399 -1434h-454l-243 891l-244 -891h-455l-399 1434h412l233 -1031l260 1031h384z" />
    <glyph glyph-name="X" unicode="X" horiz-adv-x="1449" 
d="M1021 1434h390l-428 -717l428 -717h-390l-296 487l-296 -487h-390l428 717l-428 717h390l296 -488z" />
    <glyph glyph-name="Y" unicode="Y" horiz-adv-x="1449" 
d="M725 821l290 613h396l-507 -965v-469h-358v469l-507 965h396z" />
    <glyph glyph-name="Z" unicode="Z" horiz-adv-x="1309" 
d="M121 1434h1068v-284l-655 -866h655v-284h-1068v284l655 866h-655v284z" />
    <glyph glyph-name="bracketleft" unicode="[" horiz-adv-x="876" 
d="M121 -396v1919h604v-284h-246v-1352h277v-283h-635z" />
    <glyph glyph-name="backslash" unicode="\" horiz-adv-x="842" 
d="M57 1434h359l368 -1639h-358z" />
    <glyph glyph-name="bracketright" unicode="]" horiz-adv-x="876" 
d="M152 1523h604v-1919h-635v283h276v1352h-245v284z" />
    <glyph glyph-name="asciicircum" unicode="^" horiz-adv-x="957" 
d="M674 1434l222 -709h-285l-133 426l-133 -426h-284l222 709h391z" />
    <glyph glyph-name="underscore" unicode="_" horiz-adv-x="1174" 
d="M95 -340v247h984v-247h-984z" />
    <glyph glyph-name="grave" unicode="`" horiz-adv-x="627" 
d="M566 1243h-260l-245 395h336z" />
    <glyph glyph-name="a" unicode="a" horiz-adv-x="1391" 
d="M586 1144q132 0 230.5 -44t144.5 -123l14 149h321v-1126h-321l-14 150q-89 -167 -375 -167q-143 -3 -264 71t-192 209t-69 300q-1 124 40 233.5t112 186t168.5 120t204.5 41.5zM479 350q81 -83 200 -83q118 0 201 83q81 82 81 213t-81 214q-82 82 -201 82t-200 -82
q-81 -83 -81 -214t81 -213z" />
    <glyph glyph-name="b" unicode="b" horiz-adv-x="1390" 
d="M805 1144q107 2 204.5 -41.5t168 -120t112 -186t39.5 -233.5q2 -165 -68.5 -300t-191.5 -209t-264 -71q-137 0 -233.5 42.5t-140.5 124.5l-15 -150h-321v1536h336v-559q45 79 143.5 123t230.5 44zM713 267q118 0 199 83q81 82 81 213t-81 214q-81 82 -199 82
q-119 0 -200 -82q-82 -82 -82 -214q0 -131 82 -213q81 -83 200 -83z" />
    <glyph glyph-name="c" unicode="c" horiz-adv-x="1289" 
d="M679 259q82 0 145.5 42.5t96.5 121.5l307 -124q-69 -145 -218 -231q-148 -85 -331 -85q-256 0 -433 152q-86 74 -135.5 186t-49.5 242q0 131 49.5 243t135.5 186q179 152 433 152q183 0 331 -85q150 -86 218 -232l-307 -124q-33 79 -96.5 121.5t-145.5 42.5
q-119 0 -200 -84q-82 -83 -82 -220t82 -220q81 -84 200 -84z" />
    <glyph glyph-name="d" unicode="d" horiz-adv-x="1391" 
d="M586 1144q132 0 230 -44t143 -123v559h336v-1536h-320l-16 150q-89 -167 -373 -167q-143 -3 -264 71t-192 209t-69 300q-1 124 40 233.5t112 186t168.5 120t204.5 41.5zM678 267q119 0 200 83q81 82 81 213t-81 214q-81 82 -200 82t-200 -82q-81 -83 -81 -214t82 -213
q81 -83 199 -83z" />
    <glyph glyph-name="e" unicode="e" horiz-adv-x="1345" 
d="M679 1144q136 0 252 -46t198 -132t122.5 -215.5t29.5 -283.5h-872q25 -100 100 -161q73 -60 170 -60q171 0 254 165l286 -139q-78 -137 -223 -213t-317 -76q-256 0 -433 152q-87 74 -136 185t-49 243t49 243.5t136 185.5q179 152 433 152zM855 822q-73 59 -176 59
q-105 0 -176 -59q-72 -59 -95 -163h542q-24 102 -95 163z" />
    <glyph glyph-name="f" unicode="f" horiz-adv-x="934" 
d="M575 1126h266v-261h-266v-865h-335v865h-145v261h145v46q0 201 89 296q88 94 295 94q104 0 217 -18v-238q-116 23 -179 1q-85 -16 -87 -133v-48z" />
    <glyph glyph-name="g" unicode="g" horiz-adv-x="1391" 
d="M961 977l14 149h321v-1041q0 -164 -79 -282q-79 -116 -214 -174q-135 -56 -306 -56q-346 0 -550 233l159 182q130 -146 365 -148q122 0 205 70q83 71 85 190v85q-83 -157 -375 -156q-146 0 -265.5 69.5t-189.5 196t-70 286.5q0 242 152 403q151 160 373 160
q132 0 230.5 -44t144.5 -123zM480 382q82 -80 199 -80t200 80q82 79 82 199q0 119 -82 198q-83 80 -200 80q-119 0 -199 -79q-82 -79 -82 -199t82 -199z" />
    <glyph glyph-name="h" unicode="h" horiz-adv-x="1344" 
d="M1249 0h-336v563q0 149 -54.5 222.5t-171.5 73.5q-118 0 -187 -80q-69 -81 -69 -216v-563h-336v1536h336v-559q45 79 142.5 123t229.5 44q240 0 343 -148t103 -433v-563z" />
    <glyph glyph-name="i" unicode="i" 
d="M264 1257q-82 0 -139 58q-58 58 -58 139t58 139q57 57 139 57q80 0 138 -57q57 -59 57 -139t-57 -139q-58 -58 -138 -58zM95 0v1126h336v-1126h-336z" />
    <glyph glyph-name="j" unicode="j" 
d="M264 1257q-82 0 -139 58q-58 58 -58 139t58 139q57 57 139 57q80 0 138 -57q57 -59 57 -139t-57 -139q-58 -58 -138 -58zM95 1126h336v-1150q0 -214 -88 -312q-89 -99 -296 -99q-89 0 -217 17v254q95 -19 169 -2q96 20 96 141v1151z" />
    <glyph glyph-name="k" unicode="k" horiz-adv-x="1283" 
d="M857 1126h383l-425 -467l425 -659h-369l-269 426l-145 -160v-266h-336v1536h336v-856z" />
    <glyph glyph-name="l" unicode="l" 
d="M95 0v1536h336v-1536h-336z" />
    <glyph glyph-name="m" unicode="m" horiz-adv-x="2083" 
d="M1570 1144q235 0 331 -156q88 -145 88 -425v-563h-336v563q0 296 -206 296q-113 0 -175.5 -79t-62.5 -217v-563h-336v563q0 296 -204 296q-113 0 -175.5 -79t-62.5 -217v-563h-336v1126h321l15 -149q87 167 361 167q278 0 367 -231q115 231 411 231z" />
    <glyph glyph-name="n" unicode="n" horiz-adv-x="1319" 
d="M1225 0h-336v563q0 149 -51.5 222.5t-161.5 73.5q-117 0 -181 -79t-64 -217v-563h-336v1126h321l15 -149q95 167 361 167q232 0 332 -148q101 -149 101 -433v-563z" />
    <glyph glyph-name="o" unicode="o" horiz-adv-x="1357" 
d="M679 -17q-256 0 -433 152q-86 74 -135.5 186t-49.5 242q0 131 49.5 243t135.5 186q179 152 433 152q123 0 235 -39.5t197 -112.5q86 -74 135.5 -186t49.5 -243q0 -130 -49.5 -242t-135.5 -186q-85 -73 -197 -112.5t-235 -39.5zM479 349q81 -83 200 -83q118 0 201 83
q81 83 81 214t-81 214q-83 83 -201 83q-119 0 -200 -83q-82 -82 -82 -214t82 -214z" />
    <glyph glyph-name="p" unicode="p" horiz-adv-x="1390" 
d="M805 -17q-132 0 -230.5 44t-143.5 123v-560h-336v1536h321l15 -149q44 82 140.5 124.5t233.5 42.5q107 2 204.5 -41.5t168 -120t112 -186t39.5 -233.5q2 -165 -68.5 -300t-191.5 -209t-264 -71zM713 859q-119 0 -200 -82q-82 -82 -82 -214q0 -131 82 -213q81 -83 200 -83
q118 0 199 83q81 82 81 213t-81 214q-81 82 -199 82z" />
    <glyph glyph-name="q" unicode="q" horiz-adv-x="1390" 
d="M586 -17q-143 -3 -264 71t-192 209t-69 300q-1 124 40 233.5t111.5 186t168 120t205.5 41.5q284 0 373 -167l16 149h320v-1536h-336v560q-45 -79 -143 -123t-230 -44zM678 859q-118 0 -199 -82q-82 -82 -82 -214q0 -131 81 -213q81 -83 200 -83t200 83q81 82 81 213
t-81 214q-81 82 -200 82z" />
    <glyph glyph-name="r" unicode="r" horiz-adv-x="864" 
d="M95 0v1126h321l15 -133q57 80 145.5 115.5t226.5 35.5v-285q-181 0 -276.5 -78t-95.5 -218v-563h-336z" />
    <glyph glyph-name="s" unicode="s" horiz-adv-x="1150" 
d="M1061 822l-336 -18q-8 46 -49 77.5t-99 31.5q-71 0 -112 -26.5t-41 -74.5q0 -31 24.5 -55t61.5 -37q34 -12 91 -27q178 -43 277 -81q59 -22 97 -48q121 -81 115 -223q-6 -173 -137 -265.5t-372 -92.5q-233 0 -370 89q-137 88 -150 255l335 25q12 -61 63.5 -97t121.5 -36
q76 0 123.5 30t47.5 81q0 98 -238 150q-119 30 -164 44q-67 21 -118 46q-56 26 -84 60q-60 71 -60 188q0 159 129.5 242.5t367.5 83.5q217 0 341 -82.5t135 -239.5z" />
    <glyph glyph-name="t" unicode="t" horiz-adv-x="934" 
d="M240 1126v252h335v-252h266v-261h-266v-450q0 -120 91 -139q69 -22 175 -1v-275q-116 -17 -217 -17q-206 0 -295 102q-89 103 -89 318v462h-145v261h145z" />
    <glyph glyph-name="u" unicode="u" horiz-adv-x="1319" 
d="M95 1126h336v-563q0 -149 51 -222.5t162 -73.5q117 0 181 79t64 217v563h336v-1126h-321l-15 150q-95 -167 -361 -167q-232 0 -332 148q-101 149 -101 432v563z" />
    <glyph glyph-name="v" unicode="v" horiz-adv-x="1343" 
d="M672 296l270 830h358l-382 -1126h-492l-383 1126h358z" />
    <glyph glyph-name="w" unicode="w" horiz-adv-x="2145" 
d="M1511 310l234 816h358l-346 -1126h-469l-215 708l-216 -708h-468l-346 1126h358l234 -816l255 816h365z" />
    <glyph glyph-name="x" unicode="x" horiz-adv-x="1328" 
d="M910 1126h375l-376 -563l376 -563h-375l-245 370l-246 -370h-376l377 563l-377 563h376l246 -369z" />
    <glyph glyph-name="y" unicode="y" horiz-adv-x="1328" 
d="M665 288l255 838h366l-425 -1103q-91 -237 -250 -334q-157 -96 -417 -66l-17 247q142 -5 209.5 28t72.5 117l-416 1111h366z" />
    <glyph glyph-name="z" unicode="z" horiz-adv-x="1184" 
d="M95 1126h996v-269l-568 -581h568v-276h-996v276l559 581h-559v269z" />
    <glyph glyph-name="braceleft" unicode="{" horiz-adv-x="900" 
d="M640 1119v-298q0 -99 -41.5 -168t-118.5 -90q76 -20 118 -90t42 -168v-298q0 -58 34.5 -80.5t104.5 -17.5v-273q-272 -6 -369 67q-122 86 -122 281l-2 347q0 58 -39 79.5t-126 21.5v262q87 0 126 22t39 80l2 347q0 194 122 280q97 74 369 67v-272q-71 5 -105 -17.5
t-34 -81.5z" />
    <glyph glyph-name="bar" unicode="|" horiz-adv-x="578" 
d="M121 -205v1639h336v-1639h-336z" />
    <glyph glyph-name="braceright" unicode="}" horiz-adv-x="900" 
d="M260 821v298q0 58 -34.5 81t-104.5 18v272q272 7 369 -67q122 -87 122 -280l2 -347q0 -58 39 -80t126 -22v-262q-87 0 -126 -21.5t-39 -79.5l-2 -347q0 -195 -122 -281q-97 -73 -369 -67v273q71 -5 105 17.5t34 80.5v298q0 98 42 168t118 90q-76 20 -118 89.5t-42 168.5z
" />
    <glyph glyph-name="asciitilde" unicode="~" horiz-adv-x="1036" 
d="M687 731h228q0 -174 -86 -254q-78 -80 -196 -58q-54 4 -125 36q-69 31 -104 37q-37 3 -49 -27q-6 -13 -6 -70h-228q0 167 81 245q74 89 197 71q55 -4 124 -38t110 -38q35 -2 47 27q7 15 7 69z" />
    <glyph glyph-name="exclamdown" unicode="&#xa1;" horiz-adv-x="581" 
d="M292 750q-80 0 -139 57q-58 57 -58 139q0 80 58 138t139 58q80 0 137 -58t57 -138q0 -81 -57 -138q-57 -58 -137 -58zM123 -307l22 925h291l23 -925h-336z" />
    <glyph glyph-name="cent" unicode="&#xa2;" horiz-adv-x="1289" 
d="M679 259q82 0 145.5 42.5t96.5 121.5l307 -124q-56 -121 -168 -200t-255 -105v-137h-285v143q-203 45 -331 194t-128 369q0 221 128 370q127 148 331 193v147h285v-140q139 -25 254 -106q111 -79 169 -200l-307 -124q-33 79 -96.5 121.5t-145.5 42.5q-119 0 -200 -84
q-82 -83 -82 -220t82 -220q81 -84 200 -84z" />
    <glyph glyph-name="sterling" unicode="&#xa3;" horiz-adv-x="1476" 
d="M1081 560h-527q-25 -189 -87 -299h888v-261h-1183v253h-5q63 107 81 307h-127v217h135v127q0 275 151 411q149 136 414 136q180 0 323 -84q142 -85 211 -232l-292 -124q-33 79 -96.5 121.5t-145.5 42.5q-125 0 -186.5 -64.5t-61.5 -206.5q0 -13 -2 -127h510v-217z" />
    <glyph glyph-name="currency" unicode="&#xa4;" horiz-adv-x="1116" 
d="M953 720q0 -100 -46 -188l128 -130l-163 -162l-128 128q-89 -47 -184 -47q-100 0 -188 48l-129 -129l-163 162l129 130q-47 89 -47 188q0 98 46 183l-128 128l164 165l130 -129q85 46 186 46q99 0 182 -46l129 129l164 -165l-128 -128q46 -85 46 -183zM471 630
q36 -36 87 -36t87 36t36 87t-36 87t-87 36t-87 -36q-37 -36 -37 -87t37 -87z" />
    <glyph glyph-name="yen" unicode="&#xa5;" horiz-adv-x="1449" 
d="M1015 1434h396l-364 -694h209v-232h-331l-21 -39v-61h352v-232h-352v-176h-358v176h-352v232h352v61l-21 39h-331v232h209l-364 694h396l290 -613z" />
    <glyph glyph-name="brokenbar" unicode="&#xa6;" horiz-adv-x="578" 
d="M121 717v717h336v-717h-336zM121 -205v717h336v-717h-336z" />
    <glyph glyph-name="section" unicode="&#xa7;" horiz-adv-x="1085" 
d="M918 477q107 -81 106 -217q-2 -168 -129 -255q-127 -88 -347 -88q-214 0 -344 87q-129 85 -143 253l281 18q13 -60 69 -96.5t135 -36.5q89 0 140.5 28.5t52.5 82.5q1 60 -81 100q-49 22 -79 32q-42 13 -100 30q-72 20 -103 30q-47 15 -85 31q-79 30 -130 74
q-39 35 -56 81t-19 118q0 142 110 225q-56 39 -83 92.5t-27 132.5q0 103 60.5 177t161.5 109t230 33q191 0 312 -82q122 -83 137 -238l-282 -17q-15 53 -60 85.5t-108 32.5q-79 0 -123.5 -29.5t-44.5 -81.5q-7 -38 54 -73q12 -8 39 -17q38 -12 41 -13q9 -3 46 -13
q105 -28 166 -49q73 -25 130 -52q63 -31 100 -66q80 -79 79 -194q-2 -147 -106 -234zM369 737q-7 -36 54 -73q12 -8 39 -17q31 -10 41 -12q9 -3 46 -13l78 -22q112 24 112 103q2 48 -48 81.5t-154 64.5v-1q-79 0 -123.5 -29.5t-44.5 -81.5z" />
    <glyph glyph-name="dieresis" unicode="&#xa8;" horiz-adv-x="803" 
d="M320 1288q-45 -45 -107 -45t-107 45q-45 44 -45 107q0 61 45 106q46 44 107 44t107 -44q44 -46 44 -106q0 -61 -44 -107zM592 1243q-63 0 -108 45q-45 44 -45 107q0 61 45 106q46 44 108 44q60 0 106 -44q44 -46 44 -106q0 -61 -44 -107q-45 -45 -106 -45z" />
    <glyph glyph-name="copyright" unicode="&#xa9;" horiz-adv-x="1697" 
d="M849 -52q-158 0 -299 61q-142 62 -245 164q-102 102 -164 246q-61 141 -61 299q0 157 61 298q62 142 164 245q103 103 245 164q141 61 299 61t299 -61q142 -62 244 -164q102 -103 164 -245q61 -141 61 -298q0 -158 -61 -299q-62 -144 -164 -246q-102 -103 -245 -164
q-141 -61 -298 -61zM592 107q183 -81 388.5 -38.5t337.5 180.5q90 90 141 213t51 256t-51 255.5t-141 212.5q-88 88 -212 141q-122 52 -257 52t-257 -52t-211 -141q-89 -90 -142 -211q-53 -124 -53 -257q0 -134 53 -258q51 -120 142 -211t211 -142zM861 482q68 0 119 36
t77 104l235 -101q-52 -121 -168 -192q-115 -70 -263 -70q-207 0 -340 124q-134 123 -134 335q0 211 134 336q133 123 340 123q148 0 263 -70t168 -193l-235 -100q-26 68 -77 103.5t-119 35.5q-92 0 -155 -65q-63 -64 -63 -170t63 -171t155 -65z" />
    <glyph glyph-name="ordfeminine" unicode="&#xaa;" horiz-adv-x="748" 
d="M328 1443q67 0 117 -25.5t70 -70.5l7 87h165v-564h-165l-7 87q-20 -45 -70 -70.5t-117 -25.5q-114 0 -190 82q-77 82 -77 209t77 210q76 81 190 81zM271 1049q40 -40 98 -40q57 0 97 40q39 41 39 103q0 64 -39 104q-40 40 -97 40q-59 0 -98.5 -40t-39.5 -104
q0 -63 40 -103z" />
    <glyph glyph-name="guillemotleft" unicode="&#xab;" horiz-adv-x="1462" 
d="M121 563l317 450h361l-318 -450l318 -449h-361zM664 563l317 450h360l-317 -450l317 -449h-360z" />
    <glyph glyph-name="registered" unicode="&#xae;" horiz-adv-x="1538" 
d="M502 1608q127 55 267.5 55t267.5 -55q257 -110 367 -366q54 -128 54 -268t-54 -268q-108 -257 -367 -367q-127 -55 -267.5 -55t-267.5 55q-259 110 -367 367q-55 128 -55 268t55 268q108 255 367 366zM543 437q161 -71 341.5 -34t296.5 159q79 80 124.5 187.5t45.5 224.5
q0 116 -45.5 224t-124.5 188q-79 79 -187.5 124t-224.5 45t-224.5 -45.5t-186.5 -123.5q-79 -79 -125 -187.5t-46 -224.5q0 -117 45.5 -224.5t125.5 -187.5q75 -77 185 -125zM1070 1071q0 -82 -37 -141.5t-108 -89.5l139 -227h-184l-121 200h-105v-200h-183v717h310
q137 0 214 -71q75 -71 75 -188zM763 1184h-109v-226h109q54 0 89 33t35 80q0 48 -34.5 80.5t-89.5 32.5z" />
    <glyph glyph-name="overscore" unicode="&#xaf;" horiz-adv-x="762" 
d="M61 1243v261h640v-261h-640z" />
    <glyph glyph-name="degree" unicode="&#xb0;" horiz-adv-x="718" 
d="M361 858q-124 0 -212 88t-88 212q0 120 89 209q88 87 211 87q120 0 209 -87q87 -89 87 -209q0 -124 -87 -212t-209 -88zM284 1081q22 -25 54.5 -30t61 6.5t48.5 38.5t18 60q2 33 -18 59.5t-48.5 38.5t-61 7.5t-54.5 -29.5q-32 -32 -32 -76t32 -75z" />
    <glyph glyph-name="uni00B2" unicode="&#xb2;" horiz-adv-x="671" 
d="M609 1340q0 -111 -99 -209q-59 -57 -88 -80q-38 -30 -110 -82q-11 -7 -16 -13h313v-146h-537v146h-1q175 134 232 186q123 112 123 181q0 33 -23 52t-65 19q-73 0 -88 -74l-183 13q8 97 80.5 150t190.5 53q126 0 198.5 -50t72.5 -146z" />
    <glyph glyph-name="uni00B3" unicode="&#xb3;" horiz-adv-x="681" 
d="M591 1391l-180 -158q97 -21 153.5 -76t56.5 -135q0 -100 -79 -155q-80 -57 -201 -57q-125 0 -202 56q-78 56 -78 159l184 11q1 -40 26 -62t70 -22q44 0 70 24.5t26 63.5q0 49 -46 76.5t-125 20.5l-61 102l189 152h-322v146h519v-146z" />
    <glyph glyph-name="acute" unicode="&#xb4;" horiz-adv-x="627" 
d="M566 1638l-244 -395h-261l169 395h336z" />
    <glyph glyph-name="paragraph" unicode="&#xb6;" horiz-adv-x="1300" 
d="M121 1137q0 138 77 218q76 79 191 79h336v-1639h-336v1044q-116 0 -192 79t-76 219zM844 -205v1639h336v-1639h-336z" />
    <glyph glyph-name="middot" unicode="&#xb7;" horiz-adv-x="492" 
d="M247 379q-77 0 -131 54q-55 54 -55 131q0 76 55 130q54 54 131 54q76 0 130 -54t54 -130q0 -77 -54 -131t-130 -54z" />
    <glyph glyph-name="cedilla" unicode="&#xb8;" horiz-adv-x="546" 
d="M157 26h173v-73q37 3 73.5 -17.5t56.5 -52.5q32 -44 23 -108q-11 -64 -57 -101q-50 -45 -134.5 -56.5t-230.5 -2.5v152q119 -10 172 7q36 11 49 35t-4 45q-10 19 -45 27.5t-76 0.5v144z" />
    <glyph glyph-name="uni00B9" unicode="&#xb9;" horiz-adv-x="458" 
d="M61 1499l183 37h153v-717h-183v571l-140 -33z" />
    <glyph glyph-name="ordmasculine" unicode="&#xba;" horiz-adv-x="736" 
d="M369 861q-132 0 -220 79t-88 212t88 212q89 78 220 78t219 -78q87 -80 87 -212t-87 -212q-88 -79 -219 -79zM369 1008q55 0 96 41q40 40 40 103q0 62 -39 103q-40 40 -97 40q-59 0 -98 -39.5t-39 -103.5t39 -104t98 -40z" />
    <glyph glyph-name="guillemotright" unicode="&#xbb;" horiz-adv-x="1462" 
d="M121 1013h360l318 -450l-318 -449h-360l317 449zM664 1013h360l317 -450l-317 -449h-360l317 449z" />
    <glyph glyph-name="onequarter" unicode="&#xbc;" horiz-adv-x="1547" 
d="M61 1397l183 37h153v-717h-183v570l-140 -33zM332 0l532 1434h188l-533 -1434h-187zM1388 302h98v-146h-98v-156h-184v156h-362l110 561h184l-90 -415h158v306h184v-306z" />
    <glyph glyph-name="onehalf" unicode="&#xbd;" horiz-adv-x="1491" 
d="M397 1434v-717h-183v570l-140 -33l-13 143l183 37h153zM326 0l532 1434h186l-532 -1434h-186zM1431 530q0 -105 -97 -204q-73 -75 -196 -165q-14 -9 -21 -15h314v-146h-539v146q175 134 232 186q123 113 123 181q0 33 -23 52t-65 19q-74 0 -88 -74l-183 13q7 97 79.5 150
t191.5 53q123 0 197 -49q75 -49 75 -147z" />
    <glyph glyph-name="threequarters" unicode="&#xbe;" horiz-adv-x="1657" 
d="M621 920q0 -100 -79 -155q-80 -57 -201 -57q-125 0 -202 56q-78 56 -78 159l184 11q1 -40 26 -62t70 -22q44 0 70 24.5t26 63.5q0 49 -46 76t-125 20l-61 103l189 151h-322v147h519v-147l-180 -158q97 -21 153.5 -75.5t56.5 -134.5zM440 0l533 1434h187l-532 -1434h-188z
M1497 608v-306h99v-146h-99v-156h-183v156h-363l111 561h183l-90 -415h160v306h182z" />
    <glyph glyph-name="questiondown" unicode="&#xbf;" horiz-adv-x="1246" 
d="M621 1144q75 0 130 -53q53 -55 53 -129q0 -76 -54 -128q-54 -54 -129 -54q-74 0 -128 54q-54 52 -54 128q0 74 54 128t128 54zM443 650h359q12 -65 -1 -121.5t-44.5 -97.5t-72 -76.5t-83.5 -65.5t-79.5 -58.5t-60 -61.5t-23.5 -68q0 -69 49.5 -109t135.5 -40
q154 0 185 154l357 -25q-15 -198 -162 -303q-148 -104 -379 -104q-241 0 -387 82q-76 43 -116.5 117t-40.5 173q0 131 67 216q64 84 141 134q89 65 115 94q66 71 40 160z" />
    <glyph glyph-name="Agrave" unicode="&#xc0;" horiz-adv-x="1499" 
d="M711 1946l169 -396h-260l-245 396h336zM1460 0h-369l-69 228h-545l-68 -228h-370l432 1434h557zM750 1141l-189 -629h377z" />
    <glyph glyph-name="Aacute" unicode="&#xc1;" horiz-adv-x="1499" 
d="M788 1946h336l-244 -396h-260zM1460 0h-369l-69 228h-545l-68 -228h-370l432 1434h557zM750 1141l-189 -629h377z" />
    <glyph glyph-name="Acircumflex" unicode="&#xc2;" horiz-adv-x="1499" 
d="M838 1550l-88 223l-88 -223h-246l153 373h361l153 -373h-245zM1460 0h-369l-69 228h-545l-68 -228h-370l432 1434h557zM750 1141l-189 -629h377z" />
    <glyph glyph-name="Atilde" unicode="&#xc3;" horiz-adv-x="1499" 
d="M587 1622q-6 -14 -6 -69h-229q0 165 81 245q73 88 198 70q54 -4 124 -37q69 -34 109 -38q35 -3 47 27q6 14 8 68h228q0 -173 -86 -253q-77 -80 -197 -59q-55 6 -123 37q-71 32 -106 36q-36 3 -48 -27zM1460 0h-369l-69 228h-545l-68 -228h-370l432 1434h557zM750 1141
l-189 -629h377z" />
    <glyph glyph-name="Adieresis" unicode="&#xc4;" horiz-adv-x="1499" 
d="M668 1595q-44 -45 -106 -45q-64 0 -107 45q-45 43 -45 107q0 61 45 106q44 44 107 44q62 0 106 -44q44 -46 44 -106q0 -61 -44 -107zM940 1550q-63 0 -108 45q-45 43 -45 107q0 61 46 106q46 44 107 44q60 0 106 -44q45 -45 45 -106q0 -62 -45 -107t-106 -45zM1460 0
h-369l-69 228h-545l-68 -228h-370l432 1434h557zM750 1141l-189 -629h377z" />
    <glyph glyph-name="Aring" unicode="&#xc5;" horiz-adv-x="1499" 
d="M1460 0h-369l-69 228h-545l-68 -228h-370l432 1434h66q-81 86 -81 203q0 122 88 209t212 87q120 0 209 -87q87 -87 87 -209q0 -120 -79 -203h55zM830 1711q-31 32 -75 32t-76 -32t-32 -76t32 -75t76 -31t75 31t31 75t-31 76zM750 1141l-189 -629h377z" />
    <glyph glyph-name="AE" unicode="&#xc6;" horiz-adv-x="1773" 
d="M1115 563v-279h538v-284h-896v228h-275l-69 -228h-374l432 1434h1151v-284h-507v-302h445v-285h-445zM568 512h189v620z" />
    <glyph glyph-name="Ccedilla" unicode="&#xc7;" horiz-adv-x="1586" 
d="M837 311q114 0 207.5 54t144.5 148l316 -149q-82 -160 -234 -259q-152 -98 -347 -118v-34q37 3 73.5 -17.5t56.5 -52.5q32 -44 23 -108q-11 -64 -57 -101q-50 -45 -134.5 -56.5t-230.5 -2.5v152q119 -10 172 7q36 11 49 35t-5 45q-10 19 -44.5 27.5t-75.5 0.5v105
q-142 14 -266.5 73t-214.5 154t-140 225t-50 278q0 213 100 382q101 170 272 260q173 92 385 92q221 0 399 -101q178 -103 269 -280l-316 -149q-51 94 -145 147.5t-207 53.5q-171 0 -288 -114q-118 -115 -118 -291t118 -291q116 -115 288 -115z" />
    <glyph glyph-name="Egrave" unicode="&#xc8;" horiz-adv-x="1276" 
d="M769 1550h-260l-245 396h336zM121 0v1434h1004v-284h-646v-302h584v-285h-584v-279h677v-284h-1035z" />
    <glyph glyph-name="Eacute" unicode="&#xc9;" horiz-adv-x="1276" 
d="M1014 1946l-245 -396h-260l169 396h336zM121 0v1434h1004v-284h-646v-302h584v-285h-584v-279h677v-284h-1035z" />
    <glyph glyph-name="Ecircumflex" unicode="&#xca;" horiz-adv-x="1276" 
d="M819 1923l154 -373h-246l-88 223l-88 -223h-246l154 373h360zM121 0v1434h1004v-284h-646v-302h584v-285h-584v-279h677v-284h-1035z" />
    <glyph glyph-name="Edieresis" unicode="&#xcb;" horiz-adv-x="1276" 
d="M557 1595q-43 -45 -106 -45t-107 45q-45 43 -45 107q0 61 45 106q44 44 107 44q62 0 106 -44q44 -46 44 -106q0 -61 -44 -107zM829 1550q-63 0 -107 45q-45 43 -45 107q0 61 45 106q46 44 107 44q60 0 106 -44q45 -45 45 -106q0 -62 -45 -107t-106 -45zM121 0v1434h1004
v-284h-646v-302h584v-285h-584v-279h677v-284h-1035z" />
    <glyph glyph-name="Igrave" unicode="&#xcc;" horiz-adv-x="600" 
d="M430 1550h-260l-245 396h336zM121 0v1434h358v-1434h-358z" />
    <glyph glyph-name="Iacute" unicode="&#xcd;" horiz-adv-x="600" 
d="M675 1946l-245 -396h-260l169 396h336zM121 0v1434h358v-1434h-358z" />
    <glyph glyph-name="Icircumflex" unicode="&#xce;" horiz-adv-x="600" 
d="M480 1923l154 -373h-246l-88 223l-88 -223h-246l154 373h360zM121 0v1434h358v-1434h-358z" />
    <glyph glyph-name="Idieresis" unicode="&#xcf;" horiz-adv-x="600" 
d="M218 1595q-44 -45 -106 -45q-64 0 -107 45q-45 43 -45 107q0 61 45 106q44 44 107 44q62 0 106 -44q44 -46 44 -106q0 -61 -44 -107zM490 1550q-64 0 -107 45q-45 43 -45 107q0 61 45 106q46 44 107 44q60 0 106 -44q45 -45 45 -106q0 -62 -45 -107t-106 -45zM121 0v1434
h358v-1434h-358z" />
    <glyph glyph-name="Eth" unicode="&#xd0;" horiz-adv-x="1613" 
d="M187 1434h620q211 0 377 -91t258 -255t92 -371q3 -205 -90.5 -370t-261 -257.5t-375.5 -89.5h-620v586h-106l-1 262h107v586zM546 284h216q172 0 294 122q120 122 120 311q0 195 -119 314t-295 119h-216v-302h260v-262h-260v-302z" />
    <glyph glyph-name="Ntilde" unicode="&#xd1;" horiz-adv-x="1462" 
d="M900 1888h228q0 -173 -86 -253q-77 -80 -196 -59q-55 6 -124 37q-71 32 -106 36q-36 3 -48 -27q-6 -14 -6 -69h-228q0 165 81 245q73 88 197 70q54 -4 124 -37q69 -34 110 -38q35 -3 47 27q7 15 7 68zM982 754v680h358v-1451l-861 697v-680h-358v1451z" />
    <glyph glyph-name="Ograve" unicode="&#xd2;" horiz-adv-x="1674" 
d="M967 1550h-260l-245 396h336zM837 -17q-212 0 -385 92q-171 91 -272 261q-100 167 -100 381q0 213 100 382q101 170 272 260q173 92 385 92t385 -92q171 -90 272 -260q99 -170 99 -382q0 -213 -99 -381q-101 -170 -272 -261q-173 -92 -385 -92zM549 427
q119 -116 288 -116t288 116q118 115 118 290t-117 291q-118 114 -289 114t-288 -114q-118 -115 -118 -291q0 -175 118 -290z" />
    <glyph glyph-name="Oacute" unicode="&#xd3;" horiz-adv-x="1674" 
d="M1211 1946l-244 -396h-260l169 396h335zM837 -17q-212 0 -385 92q-171 91 -272 261q-100 167 -100 381q0 213 100 382q101 170 272 260q173 92 385 92t385 -92q171 -90 272 -260q99 -170 99 -382q0 -213 -99 -381q-101 -170 -272 -261q-173 -92 -385 -92zM549 427
q119 -116 288 -116t288 116q118 115 118 290t-117 291q-118 114 -289 114t-288 -114q-118 -115 -118 -291q0 -175 118 -290z" />
    <glyph glyph-name="Ocircumflex" unicode="&#xd4;" horiz-adv-x="1674" 
d="M1017 1923l153 -373h-245l-88 223l-88 -223h-246l153 373h361zM837 -17q-212 0 -385 92q-171 91 -272 261q-100 167 -100 381q0 213 100 382q101 170 272 260q173 92 385 92t385 -92q171 -90 272 -260q99 -170 99 -382q0 -213 -99 -381q-101 -170 -272 -261
q-173 -92 -385 -92zM549 427q119 -116 288 -116t288 116q118 115 118 290t-117 291q-118 114 -289 114t-288 -114q-118 -115 -118 -291q0 -175 118 -290z" />
    <glyph glyph-name="Otilde" unicode="&#xd5;" horiz-adv-x="1674" 
d="M1006 1888h228q0 -173 -86 -253q-77 -80 -197 -59q-55 6 -123 37q-71 32 -106 36q-36 3 -48 -27q-6 -14 -6 -69h-229q0 165 81 245q73 88 198 70q54 -4 124 -37q69 -34 109 -38q35 -3 47 27q8 18 8 68zM837 -17q-212 0 -385 92q-171 91 -272 261q-100 167 -100 381
q0 213 100 382q101 170 272 260q173 92 385 92t385 -92q171 -90 272 -260q99 -170 99 -382q0 -213 -99 -381q-101 -170 -272 -261q-173 -92 -385 -92zM549 427q119 -116 288 -116t288 116q118 115 118 290t-117 291q-118 114 -289 114t-288 -114q-118 -115 -118 -291
q0 -175 118 -290z" />
    <glyph glyph-name="Odieresis" unicode="&#xd6;" horiz-adv-x="1674" 
d="M755 1595q-43 -45 -106 -45t-107 45q-45 43 -45 107q0 61 45 106q44 44 107 44q62 0 106 -44q44 -46 44 -106q0 -61 -44 -107zM1027 1550q-63 0 -108 45q-45 43 -45 107q0 61 46 106q46 44 107 44q60 0 106 -44q45 -45 45 -106q0 -62 -45 -107t-106 -45zM837 -17
q-212 0 -385 92q-171 91 -272 261q-100 167 -100 381q0 213 100 382q101 170 272 260q173 92 385 92t385 -92q171 -90 272 -260q99 -170 99 -382q0 -213 -99 -381q-101 -170 -272 -261q-173 -92 -385 -92zM549 427q119 -116 288 -116t288 116q118 115 118 290t-117 291
q-118 114 -289 114t-288 -114q-118 -115 -118 -291q0 -175 118 -290z" />
    <glyph glyph-name="multiply" unicode="&#xd7;" horiz-adv-x="1075" 
d="M753 1134l200 -201l-215 -216l215 -215l-200 -202l-215 216l-216 -216l-201 202l215 215l-215 216l201 201l216 -215z" />
    <glyph glyph-name="Oslash" unicode="&#xd8;" horiz-adv-x="1674" 
d="M1569 1331l-141 -140q165 -199 165 -474q0 -213 -99 -381q-101 -170 -272 -261q-173 -92 -385 -92q-268 0 -470 146l-145 -144l-117 117l141 141q-166 196 -166 474q0 213 100 382q101 170 272 260q173 92 385 92q269 0 470 -147l145 145zM431 717q0 -126 65 -224
l566 566q-100 63 -225 63q-171 0 -288 -114q-118 -115 -118 -291zM837 311q169 0 288 116q118 115 118 290q0 125 -63 225l-568 -567q100 -64 225 -64z" />
    <glyph glyph-name="Ugrave" unicode="&#xd9;" horiz-adv-x="1434" 
d="M847 1550h-260l-245 396h336zM954 572l1 862h359v-839q0 -295 -161 -453q-161 -159 -436 -159t-436 159q-160 157 -160 453v839h358v-862q0 -123 63.5 -192t174.5 -69t174 69t63 192z" />
    <glyph glyph-name="Uacute" unicode="&#xda;" horiz-adv-x="1434" 
d="M1092 1946l-245 -396h-260l169 396h336zM954 572l1 862h359v-839q0 -295 -161 -453q-161 -159 -436 -159t-436 159q-160 157 -160 453v839h358v-862q0 -123 63.5 -192t174.5 -69t174 69t63 192z" />
    <glyph glyph-name="Ucircumflex" unicode="&#xdb;" horiz-adv-x="1434" 
d="M897 1923l154 -373h-246l-88 223l-88 -223h-246l154 373h360zM954 572l1 862h359v-839q0 -295 -161 -453q-161 -159 -436 -159t-436 159q-160 157 -160 453v839h358v-862q0 -123 63.5 -192t174.5 -69t174 69t63 192z" />
    <glyph glyph-name="Udieresis" unicode="&#xdc;" horiz-adv-x="1434" 
d="M635 1595q-43 -45 -106 -45t-107 45q-45 43 -45 107q0 61 45 106q44 44 107 44q62 0 106 -44q44 -46 44 -106q0 -61 -44 -107zM907 1550q-63 0 -107 45q-45 43 -45 107q0 61 45 106q46 44 107 44q60 0 106 -44q45 -45 45 -106q0 -62 -45 -107t-106 -45zM954 572l1 862
h359v-839q0 -295 -161 -453q-161 -159 -436 -159t-436 159q-160 157 -160 453v839h358v-862q0 -123 63.5 -192t174.5 -69t174 69t63 192z" />
    <glyph glyph-name="Yacute" unicode="&#xdd;" horiz-adv-x="1449" 
d="M764 1946h336l-245 -396h-260zM725 821l290 613h396l-507 -965v-469h-358v469l-507 965h396z" />
    <glyph glyph-name="Thorn" unicode="&#xde;" horiz-adv-x="1351" 
d="M454 1234h259q275 0 426 -142t151 -376t-151 -375t-426 -141h-259v-200h-359v1434h359v-200zM453 483h223q114 0 184 67q71 66 72 166q0 99 -71 167q-70 67 -185 67h-223v-467z" />
    <glyph glyph-name="germandbls" unicode="&#xdf;" horiz-adv-x="1404" 
d="M570 574v285h200q60 0 103 43q42 42 42 103q0 59 -42 103q-43 42 -103 42h-143q-72 0 -110 -38t-38 -110v-1002h-358v978q0 222 117 339t340 117h267q183 0 306 -102q123 -104 123 -275q0 -122 -52.5 -203.5t-139.5 -109.5q97 -26 170 -121t73 -231q0 -174 -124 -283
t-305 -109h-326v284h251q60 0 103 43t43 103t-42 102q-43 42 -104 42h-251z" />
    <glyph glyph-name="agrave" unicode="&#xe0;" horiz-adv-x="1391" 
d="M806 1243h-260l-245 395h336zM586 1144q132 0 230.5 -44t144.5 -123l14 149h321v-1126h-321l-14 150q-89 -167 -375 -167q-143 -3 -264 71t-192 209t-69 300q-1 124 40 233.5t112 186t168.5 120t204.5 41.5zM479 350q81 -83 200 -83q118 0 201 83q81 82 81 213t-81 214
q-82 82 -201 82t-200 -82q-81 -83 -81 -214t81 -213z" />
    <glyph glyph-name="aacute" unicode="&#xe1;" horiz-adv-x="1391" 
d="M1050 1638l-245 -395h-260l169 395h336zM586 1144q132 0 230.5 -44t144.5 -123l14 149h321v-1126h-321l-14 150q-89 -167 -375 -167q-143 -3 -264 71t-192 209t-69 300q-1 124 40 233.5t112 186t168.5 120t204.5 41.5zM479 350q81 -83 200 -83q118 0 201 83q81 82 81 213
t-81 214q-82 82 -201 82t-200 -82q-81 -83 -81 -214t81 -213z" />
    <glyph glyph-name="acircumflex" unicode="&#xe2;" horiz-adv-x="1391" 
d="M855 1616l154 -373h-246l-88 222l-88 -222h-246l154 373h360zM586 1144q132 0 230.5 -44t144.5 -123l14 149h321v-1126h-321l-14 150q-89 -167 -375 -167q-143 -3 -264 71t-192 209t-69 300q-1 124 40 233.5t112 186t168.5 120t204.5 41.5zM479 350q81 -83 200 -83
q118 0 201 83q81 82 81 213t-81 214q-82 82 -201 82t-200 -82q-81 -83 -81 -214t81 -213z" />
    <glyph glyph-name="atilde" unicode="&#xe3;" horiz-adv-x="1391" 
d="M845 1581h228q0 -173 -86 -253q-77 -80 -196 -59q-55 6 -124 37q-72 31 -106 35q-36 3 -48 -26q-6 -13 -6 -69h-228q0 165 80 245q73 88 198 70q54 -4 124 -37q69 -34 110 -38q35 -3 47 26q7 15 7 69zM586 1144q132 0 230.5 -44t144.5 -123l14 149h321v-1126h-321
l-14 150q-89 -167 -375 -167q-143 -3 -264 71t-192 209t-69 300q-1 124 40 233.5t112 186t168.5 120t204.5 41.5zM479 350q81 -83 200 -83q118 0 201 83q81 82 81 213t-81 214q-82 82 -201 82t-200 -82q-81 -83 -81 -214t81 -213z" />
    <glyph glyph-name="adieresis" unicode="&#xe4;" horiz-adv-x="1391" 
d="M593 1288q-43 -45 -106 -45t-107 45q-45 44 -45 107q0 61 45 106q44 44 107 44q62 0 106 -44q44 -46 44 -106q0 -61 -44 -107zM865 1243q-63 0 -107 45q-45 44 -45 107q0 61 45 106q46 44 107 44q60 0 106 -44q45 -45 45 -106q0 -62 -45 -107t-106 -45zM586 1144
q132 0 230.5 -44t144.5 -123l14 149h321v-1126h-321l-14 150q-89 -167 -375 -167q-143 -3 -264 71t-192 209t-69 300q-1 124 40 233.5t112 186t168.5 120t204.5 41.5zM479 350q81 -83 200 -83q118 0 201 83q81 82 81 213t-81 214q-82 82 -201 82t-200 -82q-81 -83 -81 -214
t81 -213z" />
    <glyph glyph-name="aring" unicode="&#xe5;" horiz-adv-x="1391" 
d="M678 1229q-125 0 -212 88q-88 88 -88 212q0 121 88 209q88 87 212 87q120 0 209 -87q87 -89 87 -209q0 -123 -87 -212q-87 -88 -209 -88zM600 1451q22 -26 55 -30.5t61.5 7.5t48 39t17.5 60q0 44 -30.5 75t-75.5 31q-33 2 -60 -17.5t-39 -48t-7.5 -61.5t30.5 -55z
M586 1144q132 0 230.5 -44t144.5 -123l14 149h321v-1126h-321l-14 150q-89 -167 -375 -167q-143 -3 -264 71t-192 209t-69 300q-1 124 40 233.5t112 186t168.5 120t204.5 41.5zM479 350q81 -83 200 -83q118 0 201 83q81 82 81 213t-81 214q-82 82 -201 82t-200 -82
q-81 -83 -81 -214t81 -213z" />
    <glyph glyph-name="ae" unicode="&#xe6;" horiz-adv-x="2394" 
d="M1726 1144q136 0 252.5 -46.5t198.5 -131.5q83 -86 123.5 -215.5t29.5 -283.5h-873q25 -102 100 -161q73 -60 169 -60q172 0 254 165l287 -139q-80 -137 -224 -213q-145 -76 -317 -76q-260 0 -430 150v-133h-321l-14 150q-89 -167 -375 -167q-143 -3 -264 71t-192 209
t-69 300q-1 124 40 233.5t111.5 186t168 120t205.5 41.5q132 0 230.5 -44t144.5 -123l14 149h321v-133q171 151 430 151zM1903 822q-73 59 -176 59q-105 0 -176 -59t-95 -163h542q-24 102 -95 163zM479 350q81 -83 200 -83q118 0 201 83q81 82 81 213t-81 214
q-82 82 -201 82t-200 -82q-81 -83 -81 -214t81 -213z" />
    <glyph glyph-name="ccedilla" unicode="&#xe7;" horiz-adv-x="1289" 
d="M679 259q82 0 145.5 42.5t96.5 121.5l307 -124q-60 -127 -183 -210q-121 -81 -279 -101v-53q38 3 74.5 -17.5t55.5 -51.5q32 -44 23 -108q-11 -64 -57 -101q-51 -45 -135.5 -57t-228.5 -2v151q119 -10 172 7q36 11 49 35.5t-5 44.5q-10 19 -45 28t-76 1v123
q-229 27 -380 181q-152 154 -152 394q0 131 49.5 243t135.5 186q179 152 433 152q183 0 331 -85q150 -86 218 -232l-307 -124q-33 79 -96.5 121.5t-145.5 42.5q-119 0 -200 -84q-82 -83 -82 -220t82 -220q81 -84 200 -84z" />
    <glyph glyph-name="egrave" unicode="&#xe8;" horiz-adv-x="1345" 
d="M634 1638l169 -395h-260l-245 395h336zM679 1144q136 0 252 -46t198 -132t122.5 -215.5t29.5 -283.5h-872q25 -100 100 -161q73 -60 170 -60q171 0 254 165l286 -139q-78 -137 -223 -213t-317 -76q-256 0 -433 152q-87 74 -136 185t-49 243t49 243.5t136 185.5
q179 152 433 152zM855 822q-73 59 -176 59q-105 0 -176 -59q-72 -59 -95 -163h542q-24 102 -95 163z" />
    <glyph glyph-name="eacute" unicode="&#xe9;" horiz-adv-x="1345" 
d="M712 1638h336l-245 -395h-260zM679 1144q136 0 252 -46t198 -132t122.5 -215.5t29.5 -283.5h-872q25 -100 100 -161q73 -60 170 -60q171 0 254 165l286 -139q-78 -137 -223 -213t-317 -76q-256 0 -433 152q-87 74 -136 185t-49 243t49 243.5t136 185.5q179 152 433 152z
M855 822q-73 59 -176 59q-105 0 -176 -59q-72 -59 -95 -163h542q-24 102 -95 163z" />
    <glyph glyph-name="ecircumflex" unicode="&#xea;" horiz-adv-x="1345" 
d="M761 1243l-88 222l-88 -222h-246l154 373h360l154 -373h-246zM679 1144q136 0 252 -46t198 -132t122.5 -215.5t29.5 -283.5h-872q25 -100 100 -161q73 -60 170 -60q171 0 254 165l286 -139q-78 -137 -223 -213t-317 -76q-256 0 -433 152q-87 74 -136 185t-49 243
t49 243.5t136 185.5q179 152 433 152zM855 822q-73 59 -176 59q-105 0 -176 -59q-72 -59 -95 -163h542q-24 102 -95 163z" />
    <glyph glyph-name="edieresis" unicode="&#xeb;" horiz-adv-x="1345" 
d="M591 1288q-43 -45 -106 -45t-107 45q-45 44 -45 107q0 61 45 106q44 44 107 44q62 0 106 -44q44 -46 44 -106q0 -61 -44 -107zM863 1243q-63 0 -107 45q-45 44 -45 107q0 61 45 106q46 44 107 44q60 0 106 -44q45 -45 45 -106q0 -62 -45 -107t-106 -45zM679 1144
q136 0 252 -46t198 -132t122.5 -215.5t29.5 -283.5h-872q25 -100 100 -161q73 -60 170 -60q171 0 254 165l286 -139q-78 -137 -223 -213t-317 -76q-256 0 -433 152q-87 74 -136 185t-49 243t49 243.5t136 185.5q179 152 433 152zM855 822q-73 59 -176 59q-105 0 -176 -59
q-72 -59 -95 -163h542q-24 102 -95 163z" />
    <glyph glyph-name="igrave" unicode="&#xec;" 
d="M393 1243h-260l-245 395h336zM95 0v1126h336v-1126h-336z" />
    <glyph glyph-name="iacute" unicode="&#xed;" 
d="M638 1638l-245 -395h-260l169 395h336zM95 0v1126h336v-1126h-336z" />
    <glyph glyph-name="icircumflex" unicode="&#xee;" 
d="M443 1616l154 -373h-246l-88 222l-88 -222h-246l154 373h360zM95 0v1126h336v-1126h-336z" />
    <glyph glyph-name="idieresis" unicode="&#xef;" 
d="M181 1288q-43 -45 -106 -45t-108 45q-44 44 -44 107q0 60 44 106q46 44 108 44t106 -44q44 -46 44 -106q0 -61 -44 -107zM454 1243q-63 0 -108 45q-45 44 -45 107q0 61 45 106q46 44 108 44q60 0 106 -44q44 -46 44 -106q0 -61 -44 -107q-45 -45 -106 -45zM95 0v1126h336
v-1126h-336z" />
    <glyph glyph-name="eth" unicode="&#xf0;" horiz-adv-x="1327" 
d="M1012 1398l-39 -69q293 -201 293 -827q2 -149 -76.5 -269t-216.5 -185t-308 -63q-170 -2 -309 63t-218 185t-77 269q0 180 101 311q101 132 278 157q155 23 293 -15q136 -39 189 -113q-17 152 -92 236l-32 -58l-161 82l41 72q-69 19 -153 13v245q156 9 284 -26l41 73z
M491 310q70 -73 174 -73q103 0 173 73q69 72 69 192q0 118 -69 192q-70 72 -173 72t-174 -72q-71 -74 -71 -192t71 -192z" />
    <glyph glyph-name="ntilde" unicode="&#xf1;" horiz-adv-x="1319" 
d="M835 1581h228q0 -173 -86 -253q-77 -80 -197 -59q-55 6 -123 37q-72 31 -106 35q-36 3 -48 -26q-6 -13 -6 -69h-229q0 166 81 245q73 88 198 70q54 -4 124 -37q69 -34 109 -38q35 -3 47 26q8 18 8 69zM1225 0h-336v563q0 149 -51.5 222.5t-161.5 73.5q-117 0 -181 -79
t-64 -217v-563h-336v1126h321l15 -149q95 167 361 167q232 0 332 -148q101 -149 101 -433v-563z" />
    <glyph glyph-name="ograve" unicode="&#xf2;" horiz-adv-x="1357" 
d="M809 1243h-260l-245 395h336zM679 -17q-256 0 -433 152q-86 74 -135.5 186t-49.5 242q0 131 49.5 243t135.5 186q179 152 433 152q123 0 235 -39.5t197 -112.5q86 -74 135.5 -186t49.5 -243q0 -130 -49.5 -242t-135.5 -186q-85 -73 -197 -112.5t-235 -39.5zM479 349
q81 -83 200 -83q118 0 201 83q81 83 81 214t-81 214q-83 83 -201 83q-119 0 -200 -83q-82 -82 -82 -214t82 -214z" />
    <glyph glyph-name="oacute" unicode="&#xf3;" horiz-adv-x="1357" 
d="M1054 1638l-245 -395h-260l169 395h336zM679 -17q-256 0 -433 152q-86 74 -135.5 186t-49.5 242q0 131 49.5 243t135.5 186q179 152 433 152q123 0 235 -39.5t197 -112.5q86 -74 135.5 -186t49.5 -243q0 -130 -49.5 -242t-135.5 -186q-85 -73 -197 -112.5t-235 -39.5z
M479 349q81 -83 200 -83q118 0 201 83q81 83 81 214t-81 214q-83 83 -201 83q-119 0 -200 -83q-82 -82 -82 -214t82 -214z" />
    <glyph glyph-name="ocircumflex" unicode="&#xf4;" horiz-adv-x="1357" 
d="M859 1616l154 -373h-246l-88 222l-88 -222h-246l154 373h360zM679 -17q-256 0 -433 152q-86 74 -135.5 186t-49.5 242q0 131 49.5 243t135.5 186q179 152 433 152q123 0 235 -39.5t197 -112.5q86 -74 135.5 -186t49.5 -243q0 -130 -49.5 -242t-135.5 -186
q-85 -73 -197 -112.5t-235 -39.5zM479 349q81 -83 200 -83q118 0 201 83q81 83 81 214t-81 214q-83 83 -201 83q-119 0 -200 -83q-82 -82 -82 -214t82 -214z" />
    <glyph glyph-name="otilde" unicode="&#xf5;" horiz-adv-x="1357" 
d="M848 1581h228q0 -173 -86 -253q-77 -80 -196 -59q-55 6 -124 37q-72 31 -106 35q-36 3 -48 -26q-6 -13 -6 -69h-228q0 165 80 245q73 88 198 70q54 -4 124 -37q69 -34 110 -38q35 -3 47 26q7 15 7 69zM679 -17q-256 0 -433 152q-86 74 -135.5 186t-49.5 242
q0 131 49.5 243t135.5 186q179 152 433 152q123 0 235 -39.5t197 -112.5q86 -74 135.5 -186t49.5 -243q0 -130 -49.5 -242t-135.5 -186q-85 -73 -197 -112.5t-235 -39.5zM479 349q81 -83 200 -83q118 0 201 83q81 83 81 214t-81 214q-83 83 -201 83q-119 0 -200 -83
q-82 -82 -82 -214t82 -214z" />
    <glyph glyph-name="odieresis" unicode="&#xf6;" horiz-adv-x="1357" 
d="M597 1288q-43 -45 -106 -45t-107 45q-45 44 -45 107q0 61 45 106q44 44 107 44q62 0 106 -44q44 -46 44 -106q0 -61 -44 -107zM869 1243q-63 0 -107 45q-45 44 -45 107q0 61 45 106q46 44 107 44q60 0 106 -44q45 -45 45 -106q0 -62 -45 -107t-106 -45zM679 -17
q-256 0 -433 152q-86 74 -135.5 186t-49.5 242q0 131 49.5 243t135.5 186q179 152 433 152q123 0 235 -39.5t197 -112.5q86 -74 135.5 -186t49.5 -243q0 -130 -49.5 -242t-135.5 -186q-85 -73 -197 -112.5t-235 -39.5zM479 349q81 -83 200 -83q118 0 201 83q81 83 81 214
t-81 214q-83 83 -201 83q-119 0 -200 -83q-82 -82 -82 -214t82 -214z" />
    <glyph glyph-name="divide" unicode="&#xf7;" horiz-adv-x="1135" 
d="M681 1030q-47 -47 -112 -47t-112 47t-47 113q0 65 47 112q47 45 112 45q66 0 112 -46t46 -111q0 -67 -46 -113zM121 859h894v-285h-894v285zM568 133q-67 0 -112 46q-46 46 -46 113q0 66 47 113q46 46 112 46q65 0 112 -47q46 -46 46 -112t-46 -112q-47 -47 -113 -47z
" />
    <glyph glyph-name="oslash" unicode="&#xf8;" horiz-adv-x="1357" 
d="M1269 1056l-111 -111q138 -155 138 -382q0 -130 -49.5 -242t-135.5 -186q-85 -73 -197 -112.5t-235 -39.5q-213 0 -375 108l-122 -122l-100 102l115 114q-134 154 -136 378q0 131 49.5 243t135.5 186q179 152 433 152q210 0 371 -106l118 119zM397 563q0 -79 33 -144
l399 399q-71 42 -150 42q-119 0 -200 -83q-82 -82 -82 -214zM679 266q118 0 201 83q81 83 81 214q0 82 -35 150l-402 -402q70 -45 155 -45z" />
    <glyph glyph-name="ugrave" unicode="&#xf9;" horiz-adv-x="1319" 
d="M790 1243h-261l-244 395h336zM95 1126h336v-563q0 -149 51 -222.5t162 -73.5q117 0 181 79t64 217v563h336v-1126h-321l-15 150q-95 -167 -361 -167q-232 0 -332 148q-101 149 -101 432v563z" />
    <glyph glyph-name="uacute" unicode="&#xfa;" horiz-adv-x="1319" 
d="M1034 1638l-244 -395h-261l169 395h336zM95 1126h336v-563q0 -149 51 -222.5t162 -73.5q117 0 181 79t64 217v563h336v-1126h-321l-15 150q-95 -167 -361 -167q-232 0 -332 148q-101 149 -101 432v563z" />
    <glyph glyph-name="ucircumflex" unicode="&#xfb;" horiz-adv-x="1319" 
d="M840 1616l153 -373h-245l-89 222l-88 -222h-245l153 373h361zM95 1126h336v-563q0 -149 51 -222.5t162 -73.5q117 0 181 79t64 217v563h336v-1126h-321l-15 150q-95 -167 -361 -167q-232 0 -332 148q-101 149 -101 432v563z" />
    <glyph glyph-name="udieresis" unicode="&#xfc;" horiz-adv-x="1319" 
d="M578 1288q-44 -45 -106 -45q-63 0 -108 45q-45 44 -45 107q0 61 45 106q46 44 108 44t106 -44q44 -46 44 -106q0 -61 -44 -107zM850 1243q-63 0 -108 45q-45 44 -45 107q0 61 45 106q46 44 108 44q60 0 106 -44q44 -46 44 -106q0 -61 -44 -107q-45 -45 -106 -45zM95 1126
h336v-563q0 -149 51 -222.5t162 -73.5q117 0 181 79t64 217v563h336v-1126h-321l-15 150q-95 -167 -361 -167q-232 0 -332 148q-101 149 -101 432v563z" />
    <glyph glyph-name="yacute" unicode="&#xfd;" horiz-adv-x="1328" 
d="M703 1638h336l-244 -395h-260zM665 288l255 838h366l-425 -1103q-91 -237 -250 -334q-157 -96 -417 -66l-17 247q142 -5 209.5 28t72.5 117l-416 1111h366z" />
    <glyph glyph-name="thorn" unicode="&#xfe;" horiz-adv-x="1391" 
d="M805 -17q-132 0 -230.5 44t-143.5 123v-560h-336v1946h336v-559q45 79 143.5 123t230.5 44q224 0 375 -163q150 -163 150 -418t-150 -417q-151 -163 -375 -163zM713 859q-119 0 -200 -82q-82 -82 -82 -214q0 -131 82 -213q81 -83 200 -83q118 0 199 83q81 82 81 213
t-81 214q-81 82 -199 82z" />
    <glyph glyph-name="ydieresis" unicode="&#xff;" horiz-adv-x="1328" 
d="M582 1288q-44 -45 -106 -45q-64 0 -107 45q-45 44 -45 107q0 61 45 106q44 44 107 44q62 0 106 -44q44 -46 44 -106q0 -61 -44 -107zM854 1243q-63 0 -108 45q-45 44 -45 107q0 61 46 106q46 44 107 44q60 0 106 -44q45 -45 45 -106q0 -62 -45 -107t-106 -45zM665 288
l255 838h366l-425 -1103q-91 -237 -250 -334q-157 -96 -417 -66l-17 247q142 -5 209.5 28t72.5 117l-416 1111h366z" />
    <glyph glyph-name="Amacron" unicode="&#x100;" horiz-adv-x="1499" 
d="M429 1811h640v-261h-640v261zM1460 0h-369l-69 228h-545l-68 -228h-370l432 1434h557zM750 1141l-189 -629h377z" />
    <glyph glyph-name="amacron" unicode="&#x101;" horiz-adv-x="1391" 
d="M355 1243v261h640v-261h-640zM586 1144q132 0 230.5 -44t144.5 -123l14 149h321v-1126h-321l-14 150q-89 -167 -375 -167q-143 -3 -264 71t-192 209t-69 300q-1 124 40 233.5t112 186t168.5 120t204.5 41.5zM479 350q81 -83 200 -83q118 0 201 83q81 82 81 213t-81 214
q-82 82 -201 82t-200 -82q-81 -83 -81 -214t81 -213z" />
    <glyph glyph-name="Abreve" unicode="&#x102;" horiz-adv-x="1499" 
d="M1012 1633q-92 -83 -262 -83t-262 83t-91 246h248q0 -50 28.5 -81.5t76.5 -31.5t75.5 31t28.5 82h249q0 -164 -91 -246zM1460 0h-369l-69 228h-545l-68 -228h-370l432 1434h557zM750 1141l-189 -629h377z" />
    <glyph glyph-name="abreve" unicode="&#x103;" horiz-adv-x="1391" 
d="M323 1572h247q0 -49 29 -81t76 -32q48 0 75.5 31t28.5 82h249q0 -163 -90.5 -246t-262.5 -83t-262.5 83t-89.5 246zM586 1144q132 0 230.5 -44t144.5 -123l14 149h321v-1126h-321l-14 150q-89 -167 -375 -167q-143 -3 -264 71t-192 209t-69 300q-1 124 40 233.5t112 186
t168.5 120t204.5 41.5zM479 350q81 -83 200 -83q118 0 201 83q81 82 81 213t-81 214q-82 82 -201 82t-200 -82q-81 -83 -81 -214t81 -213z" />
    <glyph glyph-name="Aogonek" unicode="&#x104;" horiz-adv-x="1499" 
d="M1308 -244q28 -18 87 5l-2 -151q-72 -29 -138 -29q-118 -6 -179 64q-49 68 -20 165q25 101 116 190h-81l-69 228h-545l-68 -228h-370l432 1434h557l432 -1434h-82q-57 -62 -80 -118q-45 -92 10 -126zM750 1141l-189 -629h377z" />
    <glyph glyph-name="aogonek" unicode="&#x105;" horiz-adv-x="1391" 
d="M1296 0h-62q-57 -62 -80 -118q-44 -90 9 -126q28 -18 87 5l-2 -151q-72 -29 -137 -29q-118 -6 -179 64q-50 69 -21 165q25 101 117 190h-53l-14 150q-89 -167 -375 -167q-143 -3 -264 71t-192 209t-69 300q-1 124 40 233.5t111.5 186t168 120t205.5 41.5q132 0 230.5 -44
t144.5 -123l14 149h321v-1126zM479 350q81 -83 200 -83q118 0 201 83q81 82 81 213t-81 214q-82 82 -201 82t-200 -82q-81 -83 -81 -214t81 -213z" />
    <glyph glyph-name="Cacute" unicode="&#x106;" horiz-adv-x="1586" 
d="M1211 1946l-244 -396h-260l169 396h335zM837 311q114 0 207.5 54t144.5 148l316 -149q-91 -178 -269 -279q-177 -102 -399 -102q-212 0 -385 92q-171 91 -272 261q-100 167 -100 381q0 213 100 382q101 170 272 260q173 92 385 92q221 0 399 -101q178 -103 269 -280
l-316 -149q-51 94 -145 147.5t-207 53.5q-171 0 -288 -114q-118 -115 -118 -291t118 -291q116 -115 288 -115z" />
    <glyph glyph-name="cacute" unicode="&#x107;" horiz-adv-x="1289" 
d="M1054 1638l-245 -395h-260l169 395h336zM679 259q82 0 145.5 42.5t96.5 121.5l307 -124q-69 -145 -218 -231q-148 -85 -331 -85q-256 0 -433 152q-86 74 -135.5 186t-49.5 242q0 131 49.5 243t135.5 186q179 152 433 152q183 0 331 -85q150 -86 218 -232l-307 -124
q-33 79 -96.5 121.5t-145.5 42.5q-119 0 -200 -84q-82 -83 -82 -220t82 -220q81 -84 200 -84z" />
    <glyph glyph-name="Ccircumflex" unicode="&#x108;" horiz-adv-x="1586" 
d="M1017 1923l153 -373h-245l-88 223l-88 -223h-246l153 373h361zM837 311q114 0 207.5 54t144.5 148l316 -149q-91 -178 -269 -279q-177 -102 -399 -102q-212 0 -385 92q-171 91 -272 261q-100 167 -100 381q0 213 100 382q101 170 272 260q173 92 385 92q221 0 399 -101
q178 -103 269 -280l-316 -149q-51 94 -145 147.5t-207 53.5q-171 0 -288 -114q-118 -115 -118 -291t118 -291q116 -115 288 -115z" />
    <glyph glyph-name="ccircumflex" unicode="&#x109;" horiz-adv-x="1289" 
d="M859 1616l154 -373h-246l-88 222l-88 -222h-246l154 373h360zM679 259q82 0 145.5 42.5t96.5 121.5l307 -124q-69 -145 -218 -231q-148 -85 -331 -85q-256 0 -433 152q-86 74 -135.5 186t-49.5 242q0 131 49.5 243t135.5 186q179 152 433 152q183 0 331 -85
q150 -86 218 -232l-307 -124q-33 79 -96.5 121.5t-145.5 42.5q-119 0 -200 -84q-82 -83 -82 -220t82 -220q81 -84 200 -84z" />
    <glyph glyph-name="Cdotaccent" unicode="&#x10a;" horiz-adv-x="1586" 
d="M944 1595q-44 -45 -106 -45q-64 0 -107 45q-45 43 -45 107q0 61 45 106q44 44 107 44q62 0 106 -44q44 -46 44 -106q0 -61 -44 -107zM837 311q114 0 207.5 54t144.5 148l316 -149q-91 -178 -269 -279q-177 -102 -399 -102q-212 0 -385 92q-171 91 -272 261
q-100 167 -100 381q0 213 100 382q101 170 272 260q173 92 385 92q221 0 399 -101q178 -103 269 -280l-316 -149q-51 94 -145 147.5t-207 53.5q-171 0 -288 -114q-118 -115 -118 -291t118 -291q116 -115 288 -115z" />
    <glyph glyph-name="cdotaccent" unicode="&#x10b;" horiz-adv-x="1289" 
d="M785 1288q-43 -45 -106 -45t-107 45q-45 44 -45 107q0 61 45 106q44 44 107 44q62 0 106 -44q44 -46 44 -106q0 -61 -44 -107zM679 259q82 0 145.5 42.5t96.5 121.5l307 -124q-69 -145 -218 -231q-148 -85 -331 -85q-256 0 -433 152q-86 74 -135.5 186t-49.5 242
q0 131 49.5 243t135.5 186q179 152 433 152q183 0 331 -85q150 -86 218 -232l-307 -124q-33 79 -96.5 121.5t-145.5 42.5q-119 0 -200 -84q-82 -83 -82 -220t82 -220q81 -84 200 -84z" />
    <glyph glyph-name="Ccaron" unicode="&#x10c;" horiz-adv-x="1586" 
d="M925 1923h245l-153 -373h-361l-153 373h246l88 -222zM837 311q114 0 207.5 54t144.5 148l316 -149q-91 -178 -269 -279q-177 -102 -399 -102q-212 0 -385 92q-171 91 -272 261q-100 167 -100 381q0 213 100 382q101 170 272 260q173 92 385 92q221 0 399 -101
q178 -103 269 -280l-316 -149q-51 94 -145 147.5t-207 53.5q-171 0 -288 -114q-118 -115 -118 -291t118 -291q116 -115 288 -115z" />
    <glyph glyph-name="ccaron" unicode="&#x10d;" horiz-adv-x="1289" 
d="M767 1616h246l-154 -373h-360l-154 373h246l88 -222zM679 259q82 0 145.5 42.5t96.5 121.5l307 -124q-69 -145 -218 -231q-148 -85 -331 -85q-256 0 -433 152q-86 74 -135.5 186t-49.5 242q0 131 49.5 243t135.5 186q179 152 433 152q183 0 331 -85q150 -86 218 -232
l-307 -124q-33 79 -96.5 121.5t-145.5 42.5q-119 0 -200 -84q-82 -83 -82 -220t82 -220q81 -84 200 -84z" />
    <glyph glyph-name="Dcaron" unicode="&#x10e;" horiz-adv-x="1548" 
d="M862 1923h246l-154 -373h-360l-154 373h246l88 -222zM121 1434h619q211 0 377 -91q167 -91 258 -255q92 -164 92 -371q3 -205 -90.5 -370t-261 -257.5t-375.5 -89.5h-619v1434zM479 284h217q173 0 293 122t120 311q0 195 -119 314t-294 119h-217v-866z" />
    <glyph glyph-name="dcaron" unicode="&#x10f;" horiz-adv-x="1926" 
d="M586 1144q132 0 230 -44t143 -123v559h336v-1536h-320l-16 150q-89 -167 -373 -167q-143 -3 -264 71t-192 209t-69 300q-1 124 40 233.5t112 186t168.5 120t204.5 41.5zM1433 939l80 495h352l-128 -495h-304zM678 267q119 0 200 83q81 82 81 213t-81 214q-81 82 -200 82
t-200 -82q-81 -83 -81 -214t82 -213q81 -83 199 -83z" />
    <glyph glyph-name="Dcroat" unicode="&#x110;" horiz-adv-x="1613" 
d="M187 1434h620q211 0 377 -91t258 -255t92 -371q3 -205 -90.5 -370t-261 -257.5t-375.5 -89.5h-620v586h-106l-1 262h107v586zM546 284h216q172 0 294 122q120 122 120 311q0 195 -119 314t-295 119h-216v-302h260v-262h-260v-302z" />
    <glyph glyph-name="dslash" unicode="&#x111;" horiz-adv-x="1398" 
d="M1295 1439h81v-203h-81v-1236h-320l-16 150q-89 -167 -373 -167q-143 -3 -264 71t-192 209t-69 300q-1 124 40 233.5t111.5 186t168 120t205.5 41.5q132 0 230 -44t143 -123v259h-319v203h319v97h336v-97zM678 267q119 0 200 83q81 82 81 213t-81 214q-81 82 -200 82
t-200 -82q-81 -83 -81 -214t82 -213q81 -83 199 -83z" />
    <glyph glyph-name="Emacron" unicode="&#x112;" horiz-adv-x="1276" 
d="M318 1550v261h640v-261h-640zM121 0v1434h1004v-284h-646v-302h584v-285h-584v-279h677v-284h-1035z" />
    <glyph glyph-name="emacron" unicode="&#x113;" horiz-adv-x="1345" 
d="M353 1504h640v-261h-640v261zM679 1144q136 0 252 -46t198 -132t122.5 -215.5t29.5 -283.5h-872q25 -100 100 -161q73 -60 170 -60q171 0 254 165l286 -139q-78 -137 -223 -213t-317 -76q-256 0 -433 152q-87 74 -136 185t-49 243t49 243.5t136 185.5q179 152 433 152z
M855 822q-73 59 -176 59q-105 0 -176 -59q-72 -59 -95 -163h542q-24 102 -95 163z" />
    <glyph glyph-name="Edotaccent" unicode="&#x116;" horiz-adv-x="1276" 
d="M746 1595q-45 -45 -107 -45t-107 45q-45 43 -45 107q0 61 45 106q46 44 107 44t107 -44q44 -46 44 -106q0 -61 -44 -107zM121 0v1434h1004v-284h-646v-302h584v-285h-584v-279h677v-284h-1035z" />
    <glyph glyph-name="edotaccent" unicode="&#x117;" horiz-adv-x="1345" 
d="M780 1288q-44 -45 -106 -45q-64 0 -107 45q-45 44 -45 107q0 61 45 106q44 44 107 44q62 0 106 -44q44 -46 44 -106q0 -61 -44 -107zM679 1144q136 0 252 -46t198 -132t122.5 -215.5t29.5 -283.5h-872q25 -100 100 -161q73 -60 170 -60q171 0 254 165l286 -139
q-78 -137 -223 -213t-317 -76q-256 0 -433 152q-87 74 -136 185t-49 243t49 243.5t136 185.5q179 152 433 152zM855 822q-73 59 -176 59q-105 0 -176 -59q-72 -59 -95 -163h542q-24 102 -95 163z" />
    <glyph glyph-name="Eogonek" unicode="&#x118;" horiz-adv-x="1276" 
d="M1156 0h-418q-57 -62 -80 -118q-45 -91 10 -126q28 -18 87 5l-2 -151q-72 -29 -138 -29q-118 -6 -179 64q-49 68 -20 165q25 101 116 190h-411v1434h1004v-284h-646v-302h584v-285h-584v-279h677v-284z" />
    <glyph glyph-name="eogonek" unicode="&#x119;" horiz-adv-x="1345" 
d="M679 1144q136 0 252 -46t198 -132t122.5 -215.5t29.5 -283.5h-872q25 -100 100 -161q73 -60 170 -60q171 0 254 165l286 -139q-66 -115 -180 -187q-22 -30 -33 -61q-45 -93 9 -126q28 -18 87 5l-2 -152q-72 -29 -137 -29q-117 -6 -180 64q-49 68 -20 165q5 21 12 38
q-48 -6 -96 -6q-256 0 -433 152q-87 74 -136 185t-49 243t49 243.5t136 185.5q179 152 433 152zM855 822q-73 59 -176 59q-105 0 -176 -59q-72 -59 -95 -163h542q-24 102 -95 163z" />
    <glyph glyph-name="Ecaron" unicode="&#x11a;" horiz-adv-x="1276" 
d="M727 1923h246l-154 -373h-360l-154 373h246l88 -222zM121 0v1434h1004v-284h-646v-302h584v-285h-584v-279h677v-284h-1035z" />
    <glyph glyph-name="ecaron" unicode="&#x11b;" horiz-adv-x="1345" 
d="M1007 1616l-154 -373h-360l-154 373h246l88 -222l88 222h246zM679 1144q136 0 252 -46t198 -132t122.5 -215.5t29.5 -283.5h-872q25 -100 100 -161q73 -60 170 -60q171 0 254 165l286 -139q-78 -137 -223 -213t-317 -76q-256 0 -433 152q-87 74 -136 185t-49 243
t49 243.5t136 185.5q179 152 433 152zM855 822q-73 59 -176 59q-105 0 -176 -59q-72 -59 -95 -163h542q-24 102 -95 163z" />
    <glyph glyph-name="Gcircumflex" unicode="&#x11c;" horiz-adv-x="1673" 
d="M925 1550l-88 223l-88 -223h-246l153 373h361l153 -373h-245zM800 571v239h794v-93q0 -213 -99 -381q-101 -170 -272 -261q-173 -92 -386 -92q-212 0 -385 92q-171 91 -272 261q-100 167 -100 381q0 213 100 382q101 170 272 260q173 92 385 92q222 0 400 -101
q178 -103 269 -280l-317 -149q-51 94 -144.5 147.5t-207.5 53.5q-169 0 -288 -114q-118 -115 -118 -291t118 -291t288 -115q121 0 223 75t150 185h-410z" />
    <glyph glyph-name="gcircumflex" unicode="&#x11d;" horiz-adv-x="1391" 
d="M873 1616l154 -373h-246l-88 222l-88 -222h-246l154 373h360zM961 977l14 149h321v-1041q0 -164 -79 -282q-79 -116 -214 -174q-135 -56 -306 -56q-346 0 -550 233l159 182q130 -146 365 -148q122 0 205 70q83 71 85 190v85q-83 -157 -375 -156q-146 0 -265.5 69.5
t-189.5 196t-70 286.5q0 242 152 403q151 160 373 160q132 0 230.5 -44t144.5 -123zM480 382q82 -80 199 -80t200 80q82 79 82 199q0 119 -82 198q-83 80 -200 80q-119 0 -199 -79q-82 -79 -82 -199t82 -199z" />
    <glyph glyph-name="Gbreve" unicode="&#x11e;" horiz-adv-x="1673" 
d="M1099 1633q-92 -83 -262 -83t-262 83t-91 246h248q0 -50 28.5 -81.5t76.5 -31.5t75.5 31t28.5 82h249q0 -164 -91 -246zM800 571v239h794v-93q0 -213 -99 -381q-101 -170 -272 -261q-173 -92 -386 -92q-212 0 -385 92q-171 91 -272 261q-100 167 -100 381q0 213 100 382
q101 170 272 260q173 92 385 92q222 0 400 -101q178 -103 269 -280l-317 -149q-51 94 -144.5 147.5t-207.5 53.5q-169 0 -288 -114q-118 -115 -118 -291t118 -291t288 -115q121 0 223 75t150 185h-410z" />
    <glyph glyph-name="gbreve" unicode="&#x11f;" horiz-adv-x="1391" 
d="M341 1572h248q0 -50 28.5 -81.5t75.5 -31.5q48 0 76 31t29 82h249q0 -163 -91 -246t-263 -83t-262.5 83t-89.5 246zM961 977l14 149h321v-1041q0 -164 -79 -282q-79 -116 -214 -174q-135 -56 -306 -56q-346 0 -550 233l159 182q130 -146 365 -148q122 0 205 70
q83 71 85 190v85q-83 -157 -375 -156q-146 0 -265.5 69.5t-189.5 196t-70 286.5q0 242 152 403q151 160 373 160q132 0 230.5 -44t144.5 -123zM480 382q82 -80 199 -80t200 80q82 79 82 199q0 119 -82 198q-83 80 -200 80q-119 0 -199 -79q-82 -79 -82 -199t82 -199z" />
    <glyph glyph-name="Gdotaccent" unicode="&#x120;" horiz-adv-x="1673" 
d="M944 1595q-44 -45 -106 -45q-64 0 -107 45q-45 43 -45 107q0 61 45 106q44 44 107 44q62 0 106 -44q44 -46 44 -106q0 -61 -44 -107zM800 571v239h794v-93q0 -213 -99 -381q-101 -170 -272 -261q-173 -92 -386 -92q-212 0 -385 92q-171 91 -272 261q-100 167 -100 381
q0 213 100 382q101 170 272 260q173 92 385 92q222 0 400 -101q178 -103 269 -280l-317 -149q-51 94 -144.5 147.5t-207.5 53.5q-169 0 -288 -114q-118 -115 -118 -291t118 -291t288 -115q121 0 223 75t150 185h-410z" />
    <glyph glyph-name="gdotaccent" unicode="&#x121;" horiz-adv-x="1391" 
d="M800 1288q-44 -45 -106 -45q-64 0 -107 45q-45 44 -45 107q0 61 45 106q44 44 107 44q62 0 106 -44q44 -46 44 -106q0 -61 -44 -107zM961 977l14 149h321v-1041q0 -164 -79 -282q-79 -116 -214 -174q-135 -56 -306 -56q-346 0 -550 233l159 182q130 -146 365 -148
q122 0 205 70q83 71 85 190v85q-83 -157 -375 -156q-146 0 -265.5 69.5t-189.5 196t-70 286.5q0 242 152 403q151 160 373 160q132 0 230.5 -44t144.5 -123zM480 382q82 -80 199 -80t200 80q82 79 82 199q0 119 -82 198q-83 80 -200 80q-119 0 -199 -79q-82 -79 -82 -199
t82 -199z" />
    <glyph glyph-name="uni0122" unicode="&#x122;" horiz-adv-x="1673" 
d="M800 571v239h794v-93q0 -213 -99 -381q-101 -170 -272 -261q-173 -92 -386 -92q-212 0 -385 92q-171 91 -272 261q-100 167 -100 381q0 213 100 382q101 170 272 260q173 92 385 92q222 0 400 -101q178 -103 269 -280l-317 -149q-51 94 -144.5 147.5t-207.5 53.5
q-169 0 -288 -114q-118 -115 -118 -291t118 -291t288 -115q121 0 223 75t150 185h-410zM856 -552h-246l81 435h292z" />
    <glyph glyph-name="uni0123" unicode="&#x123;" horiz-adv-x="1391" 
d="M920 1678l-81 -435h-292l127 435h246zM961 977l14 149h321v-1041q0 -164 -79 -282q-79 -116 -214 -174q-135 -56 -306 -56q-346 0 -550 233l159 182q130 -146 365 -148q122 0 205 70q83 71 85 190v85q-83 -157 -375 -156q-146 0 -265.5 69.5t-189.5 196t-70 286.5
q0 242 152 403q151 160 373 160q132 0 230.5 -44t144.5 -123zM480 382q82 -80 199 -80t200 80q82 79 82 199q0 119 -82 198q-83 80 -200 80q-119 0 -199 -79q-82 -79 -82 -199t82 -199z" />
    <glyph glyph-name="Hbar" unicode="&#x126;" horiz-adv-x="1475" 
d="M1355 1268h77v-262h-77v-1006h-359v534h-517v-534h-358v1006h-75l-1 262h76v166h357v-166h519v166h358v-166zM478 818h519v188h-519v-188z" />
    <glyph glyph-name="hbar" unicode="&#x127;" horiz-adv-x="1344" 
d="M803 1144q240 0 343 -148t103 -433v-563h-336v563q0 149 -54.5 222.5t-171.5 73.5q-118 0 -187 -80q-69 -81 -69 -216v-563h-336v1236h-67v203h67v97h336v-97h334v-203h-334v-259q45 79 142.5 123t229.5 44z" />
    <glyph glyph-name="Itilde" unicode="&#x128;" horiz-adv-x="600" 
d="M469 1888h228q0 -173 -86 -253q-77 -80 -196 -59q-55 6 -124 37q-71 32 -106 36q-36 3 -48 -27q-6 -14 -6 -69h-228q0 165 81 245q73 88 197 70q54 -4 124 -37q69 -34 110 -38q35 -3 47 27q7 15 7 68zM121 0v1434h358v-1434h-358z" />
    <glyph glyph-name="itilde" unicode="&#x129;" 
d="M432 1581h228q0 -173 -86 -253q-77 -80 -196 -59q-55 6 -124 37q-72 31 -106 35q-36 3 -48 -26q-6 -13 -6 -69h-228q0 166 81 245q73 88 197 70q54 -4 124 -37q69 -34 110 -38q35 -3 47 26q7 15 7 69zM95 0v1126h336v-1126h-336z" />
    <glyph glyph-name="Imacron" unicode="&#x12a;" horiz-adv-x="600" 
d="M-19 1550v261h640v-261h-640zM121 0v1434h358v-1434h-358z" />
    <glyph glyph-name="imacron" unicode="&#x12b;" 
d="M-57 1243v261h640v-261h-640zM95 0v1126h336v-1126h-336z" />
    <glyph glyph-name="Iogonek" unicode="&#x12e;" horiz-adv-x="600" 
d="M479 0h-78q-55 -60 -79 -118q-45 -91 9 -126q28 -18 87 5l-2 -151q-72 -29 -137 -29q-117 -6 -180 64q-49 68 -20 165q25 101 117 190h-75v1434h358v-1434z" />
    <glyph glyph-name="iogonek" unicode="&#x12f;" 
d="M264 1257q-82 0 -139 58q-58 58 -58 139t58 139q57 57 139 57q80 0 138 -57q57 -59 57 -139t-57 -139q-58 -58 -138 -58zM158 0h-63v1126h336v-1126h-67q-57 -62 -80 -118q-45 -91 9 -126q28 -18 87 5l-2 -151q-72 -29 -137 -29q-117 -6 -180 64q-49 68 -20 165
q25 101 117 190z" />
    <glyph glyph-name="Idot" unicode="&#x130;" horiz-adv-x="600" 
d="M407 1595q-45 -45 -107 -45t-107 45q-45 43 -45 107q0 61 45 106q46 44 107 44t107 -44q44 -46 44 -106q0 -61 -44 -107zM121 0v1434h358v-1434h-358z" />
    <glyph glyph-name="dotlessi" unicode="&#x131;" 
d="M95 0v1126h336v-1126h-336z" />
    <glyph glyph-name="Jcircumflex" unicode="&#x134;" horiz-adv-x="1368" 
d="M846 1923l153 -373h-245l-88 223l-88 -223h-246l153 373h361zM80 394l347 86q22 -82 79.5 -125.5t144.5 -43.5q111 0 174 69t63 192l1 862h358v-839q0 -296 -160 -453q-161 -159 -436 -159q-224 0 -372 105.5t-199 305.5z" />
    <glyph glyph-name="jcircumflex" unicode="&#x135;" 
d="M443 1616l154 -373h-246l-88 222l-88 -222h-246l154 373h360zM95 1126h336v-1150q0 -214 -88 -312q-89 -99 -296 -99q-89 0 -217 17v254q95 -19 169 -2q96 20 96 141v1151z" />
    <glyph glyph-name="uni0136" unicode="&#x136;" horiz-adv-x="1344" 
d="M931 1434h375l-452 -615l452 -819h-375l-295 523l-157 -213v-310h-358v1434h358v-637zM691 -552h-246l81 435h292z" />
    <glyph glyph-name="uni0137" unicode="&#x137;" horiz-adv-x="1283" 
d="M857 1126h383l-425 -467l425 -659h-369l-269 426l-145 -160v-266h-336v1536h336v-856zM699 -552h-245l81 435h291z" />
    <glyph glyph-name="Lacute" unicode="&#x139;" horiz-adv-x="1165" 
d="M957 1946l-244 -396h-260l169 396h335zM1044 0h-923v1434h358l-1 -1150h566v-284z" />
    <glyph glyph-name="lacute" unicode="&#x13a;" 
d="M638 2076l-245 -396h-260l169 396h336zM95 0v1536h336v-1536h-336z" />
    <glyph glyph-name="uni013B" unicode="&#x13b;" horiz-adv-x="1165" 
d="M1044 0h-923v1434h358l-1 -1150h566v-284zM356 -552l81 435h292l-127 -435h-246z" />
    <glyph glyph-name="uni013C" unicode="&#x13c;" 
d="M95 0v1536h336v-1536h-336zM36 -552l81 435h292l-127 -435h-246z" />
    <glyph glyph-name="Lcaron" unicode="&#x13d;" horiz-adv-x="1351" 
d="M1044 0h-923v1434h358l-1 -1150h566v-284zM858 939l81 495h351l-128 -495h-304z" />
    <glyph glyph-name="lcaron" unicode="&#x13e;" horiz-adv-x="1065" 
d="M95 0v1536h336v-1536h-336zM572 939l81 495h352l-127 -495h-306z" />
    <glyph glyph-name="Lslash" unicode="&#x141;" horiz-adv-x="1165" 
d="M478 733v-449h566v-284h-923v651l-93 -21v261l93 21v522h358v-440l336 77v-261z" />
    <glyph glyph-name="lslash" unicode="&#x142;" 
d="M431 1034l67 24v-262l-67 -24v-772h-336v653l-67 -23v261l67 23v622h336v-502z" />
    <glyph glyph-name="Nacute" unicode="&#x143;" horiz-adv-x="1462" 
d="M1106 1946l-245 -396h-260l169 396h336zM982 754v680h358v-1451l-861 697v-680h-358v1451z" />
    <glyph glyph-name="nacute" unicode="&#x144;" horiz-adv-x="1319" 
d="M1039 1638l-244 -395h-260l168 395h336zM1225 0h-336v563q0 149 -51.5 222.5t-161.5 73.5q-117 0 -181 -79t-64 -217v-563h-336v1126h321l15 -149q95 167 361 167q232 0 332 -148q101 -149 101 -433v-563z" />
    <glyph glyph-name="uni0145" unicode="&#x145;" horiz-adv-x="1462" 
d="M982 754v680h358v-1451l-861 697v-680h-358v1451zM505 -552l81 435h292l-127 -435h-246z" />
    <glyph glyph-name="uni0146" unicode="&#x146;" horiz-adv-x="1319" 
d="M1225 0h-336v563q0 149 -51.5 222.5t-161.5 73.5q-117 0 -181 -79t-64 -217v-563h-336v1126h321l15 -149q95 167 361 167q232 0 332 -148q101 -149 101 -433v-563zM438 -552l81 435h292l-127 -435h-246z" />
    <glyph glyph-name="Ncaron" unicode="&#x147;" horiz-adv-x="1462" 
d="M819 1923h246l-154 -373h-360l-154 373h246l88 -222zM982 754v680h358v-1451l-861 697v-680h-358v1451z" />
    <glyph glyph-name="ncaron" unicode="&#x148;" horiz-adv-x="1319" 
d="M754 1616h245l-153 -373h-361l-153 373h246l88 -222zM1225 0h-336v563q0 149 -51.5 222.5t-161.5 73.5q-117 0 -181 -79t-64 -217v-563h-336v1126h321l15 -149q95 167 361 167q232 0 332 -148q101 -149 101 -433v-563z" />
    <glyph glyph-name="Eng" unicode="&#x14a;" horiz-adv-x="1462" 
d="M982 1434h358v-1473q0 -211 -87 -303q-89 -92 -296 -92q-116 0 -218 16v254q102 -19 169 -2q95 19 97 141v280l-526 425v-680h-358v1451l861 -697v680z" />
    <glyph glyph-name="eng" unicode="&#x14b;" horiz-adv-x="1319" 
d="M792 1144q232 0 332 -148q101 -149 101 -433v-587q0 -214 -88 -312q-89 -99 -296 -99q-89 0 -217 17v254q95 -19 169 -2q96 20 96 141v588q0 149 -51.5 222.5t-161.5 73.5q-117 0 -181 -79t-64 -217v-563h-336v1126h321l15 -149q96 167 361 167z" />
    <glyph glyph-name="Omacron" unicode="&#x14c;" horiz-adv-x="1674" 
d="M517 1550v261h640v-261h-640zM837 -17q-212 0 -385 92q-171 91 -272 261q-100 167 -100 381q0 213 100 382q101 170 272 260q173 92 385 92t385 -92q171 -90 272 -260q99 -170 99 -382q0 -213 -99 -381q-101 -170 -272 -261q-173 -92 -385 -92zM549 427
q119 -116 288 -116t288 116q118 115 118 290t-117 291q-118 114 -289 114t-288 -114q-118 -115 -118 -291q0 -175 118 -290z" />
    <glyph glyph-name="omacron" unicode="&#x14d;" horiz-adv-x="1357" 
d="M358 1243v261h640v-261h-640zM679 -17q-256 0 -433 152q-86 74 -135.5 186t-49.5 242q0 131 49.5 243t135.5 186q179 152 433 152q123 0 235 -39.5t197 -112.5q86 -74 135.5 -186t49.5 -243q0 -130 -49.5 -242t-135.5 -186q-85 -73 -197 -112.5t-235 -39.5zM479 349
q81 -83 200 -83q118 0 201 83q81 83 81 214t-81 214q-83 83 -201 83q-119 0 -200 -83q-82 -82 -82 -214t82 -214z" />
    <glyph glyph-name="Ohungarumlaut" unicode="&#x150;" horiz-adv-x="1674" 
d="M991 1946l-222 -396h-260l221 396h261zM1388 1946l-223 -396h-261l221 396h263zM837 -17q-212 0 -385 92q-171 91 -272 261q-100 167 -100 381q0 213 100 382q101 170 272 260q173 92 385 92t385 -92q171 -90 272 -260q99 -170 99 -382q0 -213 -99 -381
q-101 -170 -272 -261q-173 -92 -385 -92zM549 427q119 -116 288 -116t288 116q118 115 118 290t-117 291q-118 114 -289 114t-288 -114q-118 -115 -118 -291q0 -175 118 -290z" />
    <glyph glyph-name="ohungarumlaut" unicode="&#x151;" horiz-adv-x="1357" 
d="M834 1638l-223 -395h-260l221 395h262zM1230 1638l-222 -395h-262l222 395h262zM679 -17q-256 0 -433 152q-86 74 -135.5 186t-49.5 242q0 131 49.5 243t135.5 186q179 152 433 152q123 0 235 -39.5t197 -112.5q86 -74 135.5 -186t49.5 -243q0 -130 -49.5 -242
t-135.5 -186q-85 -73 -197 -112.5t-235 -39.5zM479 349q81 -83 200 -83q118 0 201 83q81 83 81 214t-81 214q-83 83 -201 83q-119 0 -200 -83q-82 -82 -82 -214t82 -214z" />
    <glyph glyph-name="OE" unicode="&#x152;" horiz-adv-x="2441" 
d="M1644 563v-279h676v-284h-1035v115q-193 -132 -448 -132q-212 0 -385 92q-171 91 -272 261q-100 167 -100 381q0 213 100 382q101 170 272 260q173 92 385 92q256 0 448 -132v115h1005v-284h-646v-302h583v-285h-583zM549 427q119 -116 288 -116t288 116q118 115 118 290
t-117 291q-118 114 -289 114t-288 -114q-118 -115 -118 -291q0 -175 118 -290z" />
    <glyph glyph-name="oe" unicode="&#x153;" horiz-adv-x="2333" 
d="M1666 1144q136 0 252.5 -46.5t198.5 -131.5q83 -86 123 -215.5t29 -283.5h-872q25 -102 100 -161q73 -60 169 -60q172 0 254 165l287 -139q-78 -137 -223 -213t-318 -76q-151 0 -280.5 56t-213.5 160q-86 -104 -215 -159q-131 -57 -278 -57q-256 0 -433 152
q-86 74 -135.5 186t-49.5 242q0 131 49.5 243t135.5 186q179 152 433 152q146 0 278 -56q130 -57 215 -160q85 103 214.5 159.5t279.5 56.5zM1842 822q-73 59 -176 59q-104 0 -175 -59q-72 -59 -95 -163h541q-24 102 -95 163zM479 349q81 -83 200 -83q118 0 201 83
q81 83 81 214t-81 214q-83 83 -201 83q-119 0 -200 -83q-82 -82 -82 -214t82 -214z" />
    <glyph glyph-name="Racute" unicode="&#x154;" horiz-adv-x="1381" 
d="M729 1946h336l-245 -396h-260zM1293 915q0 -163 -74 -283t-214 -180l277 -452h-360l-240 398h-203v-398h-358v1434h596q274 0 426 -143q150 -143 150 -376zM478 1150v-467h201q114 0 185 67q71 66 71 165q1 99 -70 167q-73 68 -186 68h-201z" />
    <glyph glyph-name="racute" unicode="&#x155;" horiz-adv-x="864" 
d="M807 1638l-245 -395h-260l169 395h336zM95 0v1126h321l15 -133q57 80 145.5 115.5t226.5 35.5v-285q-181 0 -276.5 -78t-95.5 -218v-563h-336z" />
    <glyph glyph-name="uni0156" unicode="&#x156;" horiz-adv-x="1381" 
d="M1293 915q0 -163 -74 -283t-214 -180l277 -452h-360l-240 398h-203v-398h-358v1434h596q274 0 426 -143q150 -143 150 -376zM478 1150v-467h201q114 0 185 67q71 66 71 165q1 99 -70 167q-73 68 -186 68h-201zM710 -552h-246l81 435h292z" />
    <glyph glyph-name="uni0157" unicode="&#x157;" horiz-adv-x="864" 
d="M95 0v1126h321l15 -133q57 80 145.5 115.5t226.5 35.5v-285q-181 0 -276.5 -78t-95.5 -218v-563h-336zM206 -552l81 435h292l-127 -435h-246z" />
    <glyph glyph-name="Rcaron" unicode="&#x158;" horiz-adv-x="1381" 
d="M1025 1923l-154 -373h-360l-154 373h246l88 -222l88 222h246zM1293 915q0 -163 -74 -283t-214 -180l277 -452h-360l-240 398h-203v-398h-358v1434h596q274 0 426 -143q150 -143 150 -376zM478 1150v-467h201q114 0 185 67q71 66 71 165q1 99 -70 167q-73 68 -186 68h-201
z" />
    <glyph glyph-name="rcaron" unicode="&#x159;" horiz-adv-x="864" 
d="M520 1616h246l-154 -373h-360l-154 373h246l88 -222zM95 0v1126h321l15 -133q57 80 145.5 115.5t226.5 35.5v-285q-181 0 -276.5 -78t-95.5 -218v-563h-336z" />
    <glyph glyph-name="Sacute" unicode="&#x15a;" horiz-adv-x="1317" 
d="M1034 1946l-244 -396h-261l169 396h336zM1194 1046l-358 -26q-14 74 -62.5 114.5t-122.5 40.5q-88 0 -136 -37.5t-48 -105.5q2 -39 23 -63.5t64 -44.5q42 -20 112 -39q66 -19 146 -46q43 -14 125 -46q113 -46 190 -108q58 -49 83.5 -110.5t27.5 -150.5q-2 -216 -155 -328
q-155 -113 -419 -113q-258 0 -415 112t-169 324l358 25q12 -83 72 -128.5t153 -45.5q97 0 155 38t59 108q-2 48 -34 82t-95 63q-42 20 -169 61q-75 23 -97 31q-32 10 -86 29q-44 15 -76 32q-87 43 -117 76q-56 58 -71 105q-23 73 -23 152q0 130 71 224t194 138
q120 42 277 42q232 0 380 -103t163 -302z" />
    <glyph glyph-name="sacute" unicode="&#x15b;" horiz-adv-x="1150" 
d="M951 1638l-244 -395h-261l169 395h336zM1061 822l-336 -18q-8 46 -49 77.5t-99 31.5q-71 0 -112 -26.5t-41 -74.5q0 -31 24.5 -55t61.5 -37q34 -12 91 -27q178 -43 277 -81q59 -22 97 -48q121 -81 115 -223q-6 -173 -137 -265.5t-372 -92.5q-233 0 -370 89
q-137 88 -150 255l335 25q12 -61 63.5 -97t121.5 -36q76 0 123.5 30t47.5 81q0 98 -238 150q-119 30 -164 44q-67 21 -118 46q-56 26 -84 60q-60 71 -60 188q0 159 129.5 242.5t367.5 83.5q217 0 341 -82.5t135 -239.5z" />
    <glyph glyph-name="Scircumflex" unicode="&#x15c;" horiz-adv-x="1317" 
d="M840 1923l153 -373h-245l-89 223l-88 -223h-245l153 373h361zM1194 1046l-358 -26q-14 74 -62.5 114.5t-122.5 40.5q-88 0 -136 -37.5t-48 -105.5q2 -39 23 -63.5t64 -44.5q42 -20 112 -39q66 -19 146 -46q43 -14 125 -46q113 -46 190 -108q58 -49 83.5 -110.5
t27.5 -150.5q-2 -216 -155 -328q-155 -113 -419 -113q-258 0 -415 112t-169 324l358 25q12 -83 72 -128.5t153 -45.5q97 0 155 38t59 108q-2 48 -34 82t-95 63q-42 20 -169 61q-75 23 -97 31q-32 10 -86 29q-44 15 -76 32q-87 43 -117 76q-56 58 -71 105q-23 73 -23 152
q0 130 71 224t194 138q120 42 277 42q232 0 380 -103t163 -302z" />
    <glyph glyph-name="Scedilla" unicode="&#x15e;" horiz-adv-x="1317" 
d="M666 885q66 -19 146 -46q43 -14 125 -46q113 -46 190 -108q58 -49 83.5 -110.5t27.5 -150.5q-2 -197 -131 -309q-130 -112 -361 -129v-33q38 3 74.5 -18t56.5 -52q32 -44 23 -108q-11 -64 -57 -101q-50 -45 -135 -56.5t-230 -2.5v152q119 -10 172 7q36 11 49 35t-5 45
q-10 19 -45 27.5t-76 0.5v105q-221 18 -351 129q-132 110 -142 303l358 25q12 -83 72 -128.5t153 -45.5q97 0 155 38t59 108q-2 48 -34 82t-95 63q-42 20 -169 61q-75 23 -97 31q-32 10 -86 29q-44 15 -76 32q-87 43 -117 76q-56 58 -71 105q-23 73 -23 152q0 130 71 224
t194 138q120 42 277 42q231 0 380 -104q148 -103 163 -301l-358 -26q-14 74 -62.5 114.5t-122.5 40.5q-88 0 -136 -37.5t-48 -105.5q2 -39 23 -63.5t64 -44.5q42 -20 112 -39z" />
    <glyph glyph-name="scedilla" unicode="&#x15f;" horiz-adv-x="1150" 
d="M601 693q178 -43 277 -81q59 -22 97 -48q121 -81 115 -223q-5 -158 -114.5 -249t-311.5 -106v-33q37 3 73.5 -17.5t56.5 -52.5q32 -44 23 -108q-11 -64 -57 -101q-50 -45 -135 -56.5t-230 -2.5v152q119 -10 172 7q36 11 49 35t-5 45q-10 19 -44 27.5t-77 0.5v105
q-196 16 -307 103.5t-122 236.5l335 25q12 -61 63.5 -97t121.5 -36q76 0 123.5 30t47.5 81q0 98 -238 150q-119 30 -164 44q-67 21 -118 46q-56 26 -84 60q-60 71 -60 188q0 159 129.5 242.5t367.5 83.5q217 0 341 -82.5t135 -239.5l-336 -18q-8 46 -49 77.5t-99 31.5
q-71 0 -112 -26.5t-41 -74.5q0 -31 24.5 -55t61.5 -37q34 -14 91 -27z" />
    <glyph glyph-name="Scaron" unicode="&#x160;" horiz-adv-x="1317" 
d="M748 1923h245l-153 -373h-361l-153 373h245l88 -222zM1194 1046l-358 -26q-14 74 -62.5 114.5t-122.5 40.5q-88 0 -136 -37.5t-48 -105.5q2 -39 23 -63.5t64 -44.5q42 -20 112 -39q66 -19 146 -46q43 -14 125 -46q113 -46 190 -108q58 -49 83.5 -110.5t27.5 -150.5
q-2 -216 -155 -328q-155 -113 -419 -113q-258 0 -415 112t-169 324l358 25q12 -83 72 -128.5t153 -45.5q97 0 155 38t59 108q-2 48 -34 82t-95 63q-42 20 -169 61q-75 23 -97 31q-32 10 -86 29q-44 15 -76 32q-87 43 -117 76q-56 58 -71 105q-23 73 -23 152q0 130 71 224
t194 138q120 42 277 42q232 0 380 -103t163 -302z" />
    <glyph glyph-name="scaron" unicode="&#x161;" horiz-adv-x="1150" 
d="M665 1616h245l-153 -373h-361l-153 373h245l89 -222zM1061 822l-336 -18q-8 46 -49 77.5t-99 31.5q-71 0 -112 -26.5t-41 -74.5q0 -31 24.5 -55t61.5 -37q34 -12 91 -27q178 -43 277 -81q59 -22 97 -48q121 -81 115 -223q-6 -173 -137 -265.5t-372 -92.5q-233 0 -370 89
q-137 88 -150 255l335 25q12 -61 63.5 -97t121.5 -36q76 0 123.5 30t47.5 81q0 98 -238 150q-119 30 -164 44q-67 21 -118 46q-56 26 -84 60q-60 71 -60 188q0 159 129.5 242.5t367.5 83.5q217 0 341 -82.5t135 -239.5z" />
    <glyph glyph-name="uni0162" unicode="&#x162;" horiz-adv-x="1235" 
d="M798 1150v-1150h-92v-47q37 3 73.5 -17.5t56.5 -52.5q32 -44 23 -108q-11 -64 -57 -101q-50 -45 -135 -56.5t-230 -2.5v152q119 -10 172 7q36 11 49 35t-5 45q-10 19 -45 27.5t-76 0.5v118h-93v1150h-359v284h1076v-284h-358z" />
    <glyph glyph-name="uni0163" unicode="&#x163;" horiz-adv-x="934" 
d="M841 -134q32 -44 23 -108q-11 -64 -57 -101q-51 -45 -135.5 -57t-229.5 -2v151q119 -10 172 7q36 11 49 35.5t-5 44.5q-10 19 -44.5 28t-75.5 1v123q-157 20 -227.5 120.5t-70.5 294.5v462h-145v261h145v252h335v-252h266v-261h-266v-450q0 -120 91 -139q69 -22 175 -1
v-275q-72 -9 -130 -13v-52q38 3 74.5 -17.5t55.5 -51.5z" />
    <glyph glyph-name="Tcaron" unicode="&#x164;" horiz-adv-x="1235" 
d="M707 1923h245l-153 -373h-361l-153 373h245l88 -222zM80 1434h1076v-284h-358v-1150h-359v1150h-359v284z" />
    <glyph glyph-name="tcaron" unicode="&#x165;" horiz-adv-x="1445" 
d="M952 939l81 495h351l-127 -495h-305zM240 1126v252h335v-252h266v-261h-266v-450q0 -120 91 -139q69 -22 175 -1v-275q-116 -17 -217 -17q-206 0 -295 102q-89 103 -89 318v462h-145v261h145z" />
    <glyph glyph-name="Tbar" unicode="&#x166;" horiz-adv-x="1235" 
d="M1156 1434v-284h-358v-302h276v-262h-276v-586h-359v586h-277v262h277v302h-359v284h1076z" />
    <glyph glyph-name="tbar" unicode="&#x167;" horiz-adv-x="937" 
d="M844 1126v-194h-265v-103h262v-194h-262v-220q0 -119 90 -139q69 -22 175 -1v-275q-116 -17 -217 -17q-207 0 -295 102q-89 103 -89 318v232h-148v194h148v103h-145v194h145v259h336v-259h265z" />
    <glyph glyph-name="Utilde" unicode="&#x168;" horiz-adv-x="1434" 
d="M886 1888h228q0 -173 -86 -253q-77 -80 -197 -59q-55 6 -123 37q-71 32 -106 36q-36 3 -48 -27q-6 -14 -6 -69h-229q0 165 81 245q73 88 198 70q54 -4 124 -37q69 -34 109 -38q35 -3 48 27q7 15 7 68zM954 572l1 862h359v-839q0 -295 -161 -453q-161 -159 -436 -159
t-436 159q-160 157 -160 453v839h358v-862q0 -123 63.5 -192t174.5 -69t174 69t63 192z" />
    <glyph glyph-name="utilde" unicode="&#x169;" horiz-adv-x="1319" 
d="M828 1581h229q0 -173 -86 -253q-77 -80 -197 -59q-55 6 -123 37q-72 31 -106 35q-36 3 -48 -26q-5 -12 -7 -69h-228q0 166 81 245q73 88 198 70q54 -4 124 -37q69 -34 109 -38q35 -3 47 26q7 15 7 69zM95 1126h336v-563q0 -149 51 -222.5t162 -73.5q117 0 181 79t64 217
v563h336v-1126h-321l-15 150q-95 -167 -361 -167q-232 0 -332 148q-101 149 -101 432v563z" />
    <glyph glyph-name="Umacron" unicode="&#x16a;" horiz-adv-x="1434" 
d="M397 1550v261h640v-261h-640zM954 572l1 862h359v-839q0 -295 -161 -453q-161 -159 -436 -159t-436 159q-160 157 -160 453v839h358v-862q0 -123 63.5 -192t174.5 -69t174 69t63 192z" />
    <glyph glyph-name="umacron" unicode="&#x16b;" horiz-adv-x="1319" 
d="M340 1243v261h640v-261h-640zM95 1126h336v-563q0 -149 51 -222.5t162 -73.5q117 0 181 79t64 217v563h336v-1126h-321l-15 150q-95 -167 -361 -167q-232 0 -332 148q-101 149 -101 432v563z" />
    <glyph glyph-name="Uring" unicode="&#x16e;" horiz-adv-x="1434" 
d="M719 1536q-125 0 -212 88q-88 88 -88 212q0 121 88 209q89 87 212 87q121 0 209 -87q87 -88 87 -209q0 -124 -87 -212t-209 -88zM641 1758q22 -26 55 -30.5t61.5 7.5t48 39t17.5 60q0 44 -30.5 75t-75.5 31q-33 2 -60 -17.5t-39 -48t-7.5 -61.5t30.5 -55zM954 572l1 862
h359v-839q0 -295 -161 -453q-161 -159 -436 -159t-436 159q-160 157 -160 453v839h358v-862q0 -123 63.5 -192t174.5 -69t174 69t63 192z" />
    <glyph glyph-name="uring" unicode="&#x16f;" horiz-adv-x="1319" 
d="M662 1229q-125 0 -213 88t-88 212q0 120 89 209q89 87 212 87q121 0 208 -87q87 -89 87 -209q0 -123 -86 -212q-87 -88 -209 -88zM584 1451q32 -32 76 -32t75 32q31 31 31 76t-31 75.5t-76 30.5q-33 2 -59.5 -17.5t-38.5 -48t-7 -61.5t30 -55zM95 1126h336v-563
q0 -149 51 -222.5t162 -73.5q117 0 181 79t64 217v563h336v-1126h-321l-15 150q-95 -167 -361 -167q-232 0 -332 148q-101 149 -101 432v563z" />
    <glyph glyph-name="Uhungarumlaut" unicode="&#x170;" horiz-adv-x="1434" 
d="M871 1946l-222 -396h-260l221 396h261zM1268 1946l-222 -396h-262l222 396h262zM954 572l1 862h359v-839q0 -295 -161 -453q-161 -159 -436 -159t-436 159q-160 157 -160 453v839h358v-862q0 -123 63.5 -192t174.5 -69t174 69t63 192z" />
    <glyph glyph-name="uhungarumlaut" unicode="&#x171;" horiz-adv-x="1319" 
d="M814 1638l-222 -395h-260l221 395h261zM1210 1638l-222 -395h-261l221 395h262zM95 1126h336v-563q0 -149 51 -222.5t162 -73.5q117 0 181 79t64 217v563h336v-1126h-321l-15 150q-95 -167 -361 -167q-232 0 -332 148q-101 149 -101 432v563z" />
    <glyph glyph-name="Uogonek" unicode="&#x172;" horiz-adv-x="1434" 
d="M954 572l1 862h359v-839q0 -269 -135 -425q-136 -156 -372 -182q-47 -53 -69 -106q-45 -91 10 -126q28 -18 87 5l-2 -151q-72 -29 -138 -29q-118 -6 -179 64q-49 68 -20 165q24 95 106 181q-225 31 -353 187q-128 155 -128 417v839h358v-862q0 -123 63.5 -192t174.5 -69
t174 69t63 192z" />
    <glyph glyph-name="uogonek" unicode="&#x173;" horiz-adv-x="1319" 
d="M1225 0h-65q-57 -62 -80 -118q-45 -91 10 -126q28 -18 87 5l-2 -151q-72 -29 -138 -29q-118 -6 -179 64q-49 68 -20 165q25 101 116 190h-50l-15 150q-95 -167 -361 -167q-232 0 -332 148q-101 149 -101 432v563h336v-563q0 -149 51 -222.5t162 -73.5q117 0 181 79
t64 217v563h336v-1126z" />
    <glyph glyph-name="Wcircumflex" unicode="&#x174;" horiz-adv-x="2272" 
d="M1225 1550l-88 223l-88 -223h-246l153 373h361l153 -373h-245zM1589 403l234 1031h410l-399 -1434h-454l-243 891l-244 -891h-455l-399 1434h412l233 -1031l260 1031h384z" />
    <glyph glyph-name="wcircumflex" unicode="&#x175;" horiz-adv-x="2145" 
d="M1253 1616l154 -373h-246l-88 222l-88 -222h-246l154 373h360zM1511 310l234 816h358l-346 -1126h-469l-215 708l-216 -708h-468l-346 1126h358l234 -816l255 816h365z" />
    <glyph glyph-name="Ycircumflex" unicode="&#x176;" horiz-adv-x="1449" 
d="M813 1550l-88 223l-88 -223h-246l154 373h360l154 -373h-246zM725 821l290 613h396l-507 -965v-469h-358v469l-507 965h396z" />
    <glyph glyph-name="ycircumflex" unicode="&#x177;" horiz-adv-x="1328" 
d="M753 1243l-88 222l-88 -222h-246l153 373h361l153 -373h-245zM665 288l255 838h366l-425 -1103q-91 -237 -250 -334q-157 -96 -417 -66l-17 247q142 -5 209.5 28t72.5 117l-416 1111h366z" />
    <glyph glyph-name="Ydieresis" unicode="&#x178;" horiz-adv-x="1449" 
d="M643 1595q-43 -45 -106 -45t-107 45q-45 43 -45 107q0 61 45 106q44 44 107 44q62 0 106 -44q44 -46 44 -106q0 -61 -44 -107zM915 1550q-63 0 -107 45q-45 43 -45 107q0 61 45 106q46 44 107 44q60 0 106 -44q45 -45 45 -106q0 -62 -45 -107t-106 -45zM725 821l290 613
h396l-507 -965v-469h-358v469l-507 965h396z" />
    <glyph glyph-name="Zacute" unicode="&#x179;" horiz-adv-x="1309" 
d="M1029 1946l-245 -396h-260l169 396h336zM121 1434h1068v-284l-655 -866h655v-284h-1068v284l655 866h-655v284z" />
    <glyph glyph-name="zacute" unicode="&#x17a;" horiz-adv-x="1184" 
d="M967 1638l-245 -395h-260l169 395h336zM95 1126h996v-269l-568 -581h568v-276h-996v276l559 581h-559v269z" />
    <glyph glyph-name="Zdotaccent" unicode="&#x17b;" horiz-adv-x="1309" 
d="M762 1595q-44 -45 -106 -45q-64 0 -107 45q-45 43 -45 107q0 61 45 106q44 44 107 44q62 0 106 -44q44 -46 44 -106q0 -61 -44 -107zM121 1434h1068v-284l-655 -866h655v-284h-1068v284l655 866h-655v284z" />
    <glyph glyph-name="zdotaccent" unicode="&#x17c;" horiz-adv-x="1184" 
d="M699 1288q-43 -45 -106 -45t-107 45q-45 44 -45 107q0 61 45 106q44 44 107 44q62 0 106 -44q44 -46 44 -106q0 -61 -44 -107zM95 1126h996v-269l-568 -581h568v-276h-996v276l559 581h-559v269z" />
    <glyph glyph-name="Zcaron" unicode="&#x17d;" horiz-adv-x="1309" 
d="M743 1923h246l-153 -373h-361l-153 373h245l88 -222zM121 1434h1068v-284l-655 -866h655v-284h-1068v284l655 866h-655v284z" />
    <glyph glyph-name="zcaron" unicode="&#x17e;" horiz-adv-x="1184" 
d="M681 1616h246l-154 -373h-360l-154 373h246l88 -222zM95 1126h996v-269l-568 -581h568v-276h-996v276l559 581h-559v269z" />
    <glyph glyph-name="uni01CD" unicode="&#x1cd;" horiz-adv-x="1499" 
d="M1083 1923l-153 -373h-361l-153 373h246l88 -222l88 222h245zM1460 0h-369l-69 228h-545l-68 -228h-370l432 1434h557zM750 1141l-189 -629h377z" />
    <glyph glyph-name="uni01CE" unicode="&#x1ce;" horiz-adv-x="1391" 
d="M763 1616h246l-154 -373h-360l-154 373h246l88 -222zM586 1144q132 0 230.5 -44t144.5 -123l14 149h321v-1126h-321l-14 150q-89 -167 -375 -167q-143 -3 -264 71t-192 209t-69 300q-1 124 40 233.5t112 186t168.5 120t204.5 41.5zM479 350q81 -83 200 -83q118 0 201 83
q81 82 81 213t-81 214q-82 82 -201 82t-200 -82q-81 -83 -81 -214t81 -213z" />
    <glyph glyph-name="uni01CF" unicode="&#x1cf;" horiz-adv-x="600" 
d="M388 1923h246l-154 -373h-360l-154 373h246l88 -222zM121 0v1434h358v-1434h-358z" />
    <glyph glyph-name="uni01D0" unicode="&#x1d0;" 
d="M351 1616h246l-154 -373h-360l-154 373h246l88 -222zM95 0v1126h336v-1126h-336z" />
    <glyph glyph-name="uni01D1" unicode="&#x1d1;" horiz-adv-x="1674" 
d="M925 1923h245l-153 -373h-361l-153 373h246l88 -222zM837 -17q-212 0 -385 92q-171 91 -272 261q-100 167 -100 381q0 213 100 382q101 170 272 260q173 92 385 92t385 -92q171 -90 272 -260q99 -170 99 -382q0 -213 -99 -381q-101 -170 -272 -261q-173 -92 -385 -92z
M549 427q119 -116 288 -116t288 116q118 115 118 290t-117 291q-118 114 -289 114t-288 -114q-118 -115 -118 -291q0 -175 118 -290z" />
    <glyph glyph-name="uni01D2" unicode="&#x1d2;" horiz-adv-x="1357" 
d="M767 1616h246l-154 -373h-360l-154 373h246l88 -222zM679 -17q-256 0 -433 152q-86 74 -135.5 186t-49.5 242q0 131 49.5 243t135.5 186q179 152 433 152q123 0 235 -39.5t197 -112.5q86 -74 135.5 -186t49.5 -243q0 -130 -49.5 -242t-135.5 -186q-85 -73 -197 -112.5
t-235 -39.5zM479 349q81 -83 200 -83q118 0 201 83q81 83 81 214t-81 214q-83 83 -201 83q-119 0 -200 -83q-82 -82 -82 -214t82 -214z" />
    <glyph glyph-name="uni01D3" unicode="&#x1d3;" horiz-adv-x="1434" 
d="M805 1923h246l-154 -373h-360l-154 373h246l88 -222zM954 572l1 862h359v-839q0 -295 -161 -453q-161 -159 -436 -159t-436 159q-160 157 -160 453v839h358v-862q0 -123 63.5 -192t174.5 -69t174 69t63 192z" />
    <glyph glyph-name="uni01D4" unicode="&#x1d4;" horiz-adv-x="1319" 
d="M748 1616h245l-153 -373h-361l-153 373h245l88 -222zM95 1126h336v-563q0 -149 51 -222.5t162 -73.5q117 0 181 79t64 217v563h336v-1126h-321l-15 150q-95 -167 -361 -167q-232 0 -332 148q-101 149 -101 432v563z" />
    <glyph glyph-name="Gcaron" unicode="&#x1e6;" horiz-adv-x="1673" 
d="M1170 1923l-153 -373h-361l-153 373h246l88 -222l88 222h245zM800 571v239h794v-93q0 -213 -99 -381q-101 -170 -272 -261q-173 -92 -386 -92q-212 0 -385 92q-171 91 -272 261q-100 167 -100 381q0 213 100 382q101 170 272 260q173 92 385 92q222 0 400 -101
q178 -103 269 -280l-317 -149q-51 94 -144.5 147.5t-207.5 53.5q-169 0 -288 -114q-118 -115 -118 -291t118 -291t288 -115q121 0 223 75t150 185h-410z" />
    <glyph glyph-name="gcaron" unicode="&#x1e7;" horiz-adv-x="1391" 
d="M781 1616h246l-154 -373h-360l-154 373h246l88 -222zM961 977l14 149h321v-1041q0 -164 -79 -282q-79 -116 -214 -174q-135 -56 -306 -56q-346 0 -550 233l159 182q130 -146 365 -148q122 0 205 70q83 71 85 190v85q-83 -157 -375 -156q-146 0 -265.5 69.5t-189.5 196
t-70 286.5q0 242 152 403q151 160 373 160q132 0 230.5 -44t144.5 -123zM480 382q82 -80 199 -80t200 80q82 79 82 199q0 119 -82 198q-83 80 -200 80q-119 0 -199 -79q-82 -79 -82 -199t82 -199z" />
    <glyph glyph-name="AEacute" unicode="&#x1fc;" horiz-adv-x="1773" 
d="M926 1946h336l-245 -396h-260zM1115 563v-279h538v-284h-896v228h-275l-69 -228h-374l432 1434h1151v-284h-507v-302h445v-285h-445zM568 512h189v620z" />
    <glyph glyph-name="aeacute" unicode="&#x1fd;" horiz-adv-x="2394" 
d="M1236 1638h336l-245 -395h-260zM1726 1144q136 0 252.5 -46.5t198.5 -131.5q83 -86 123.5 -215.5t29.5 -283.5h-873q25 -102 100 -161q73 -60 169 -60q172 0 254 165l287 -139q-80 -137 -224 -213q-145 -76 -317 -76q-260 0 -430 150v-133h-321l-14 150
q-89 -167 -375 -167q-143 -3 -264 71t-192 209t-69 300q-1 124 40 233.5t111.5 186t168 120t205.5 41.5q132 0 230.5 -44t144.5 -123l14 149h321v-133q171 151 430 151zM1903 822q-73 59 -176 59q-105 0 -176 -59t-95 -163h542q-24 102 -95 163zM479 350q81 -83 200 -83
q118 0 201 83q81 82 81 213t-81 214q-82 82 -201 82t-200 -82q-81 -83 -81 -214t81 -213z" />
    <glyph glyph-name="Oslashacute" unicode="&#x1fe;" horiz-adv-x="1674" 
d="M876 1946h335l-244 -396h-260zM1569 1331l-141 -140q165 -199 165 -474q0 -213 -99 -381q-101 -170 -272 -261q-173 -92 -385 -92q-268 0 -470 146l-145 -144l-117 117l141 141q-166 196 -166 474q0 213 100 382q101 170 272 260q173 92 385 92q269 0 470 -147l145 145z
M431 717q0 -126 65 -224l566 566q-100 63 -225 63q-171 0 -288 -114q-118 -115 -118 -291zM837 311q169 0 288 116q118 115 118 290q0 125 -63 225l-568 -567q100 -64 225 -64z" />
    <glyph glyph-name="oslashacute" unicode="&#x1ff;" horiz-adv-x="1357" 
d="M718 1638h336l-245 -395h-260zM1269 1056l-111 -111q138 -155 138 -382q0 -130 -49.5 -242t-135.5 -186q-85 -73 -197 -112.5t-235 -39.5q-213 0 -375 108l-122 -122l-100 102l115 114q-134 154 -136 378q0 131 49.5 243t135.5 186q179 152 433 152q210 0 371 -106
l118 119zM397 563q0 -79 33 -144l399 399q-71 42 -150 42q-119 0 -200 -83q-82 -82 -82 -214zM679 266q118 0 201 83q81 83 81 214q0 82 -35 150l-402 -402q70 -45 155 -45z" />
    <glyph glyph-name="uni0218" unicode="&#x218;" horiz-adv-x="1317" 
d="M1194 1046l-358 -26q-14 74 -62.5 114.5t-122.5 40.5q-88 0 -136 -37.5t-48 -105.5q2 -39 23 -63.5t64 -44.5q42 -20 112 -39q66 -19 146 -46q43 -14 125 -46q113 -46 190 -108q58 -49 83.5 -110.5t27.5 -150.5q-2 -216 -155 -328q-155 -113 -419 -113q-258 0 -415 112
t-169 324l358 25q12 -83 72 -128.5t153 -45.5q97 0 155 38t59 108q-2 48 -34 82t-95 63q-42 20 -169 61q-75 23 -97 31q-32 10 -86 29q-44 15 -76 32q-87 43 -117 76q-56 58 -71 105q-23 73 -23 152q0 130 71 224t194 138q120 42 277 42q232 0 380 -103t163 -302zM433 -552
l81 435h292l-127 -435h-246z" />
    <glyph glyph-name="uni0219" unicode="&#x219;" horiz-adv-x="1150" 
d="M1061 822l-336 -18q-8 46 -49 77.5t-99 31.5q-71 0 -112 -26.5t-41 -74.5q0 -31 24.5 -55t61.5 -37q34 -12 91 -27q178 -43 277 -81q59 -22 97 -48q121 -81 115 -223q-6 -173 -137 -265.5t-372 -92.5q-233 0 -370 89q-137 88 -150 255l335 25q12 -61 63.5 -97t121.5 -36
q76 0 123.5 30t47.5 81q0 98 -238 150q-119 30 -164 44q-67 21 -118 46q-56 26 -84 60q-60 71 -60 188q0 159 129.5 242.5t367.5 83.5q217 0 341 -82.5t135 -239.5zM349 -552l81 435h292l-127 -435h-246z" />
    <glyph glyph-name="uni021A" unicode="&#x21a;" horiz-adv-x="1235" 
d="M80 1434h1076v-284h-358v-1150h-359v1150h-359v284zM391 -552l81 435h292l-127 -435h-246z" />
    <glyph glyph-name="uni021B" unicode="&#x21b;" horiz-adv-x="934" 
d="M240 1126v252h335v-252h266v-261h-266v-450q0 -120 91 -139q69 -22 175 -1v-275q-116 -17 -217 -17q-206 0 -295 102q-89 103 -89 318v462h-145v261h145zM396 -569l81 435h292l-127 -435h-246z" />
    <glyph glyph-name="uni0237" unicode="&#x237;" 
d="M95 1126h336v-1150q0 -214 -88 -312q-89 -99 -296 -99q-89 0 -217 17v254q95 -19 169 -2q96 20 96 141v1151z" />
    <glyph glyph-name="circumflex" unicode="&#x2c6;" horiz-adv-x="790" 
d="M575 1616l154 -373h-246l-88 222l-88 -222h-246l154 373h360z" />
    <glyph glyph-name="caron" unicode="&#x2c7;" horiz-adv-x="790" 
d="M483 1616h246l-154 -373h-360l-154 373h246l88 -222z" />
    <glyph glyph-name="breve" unicode="&#x2d8;" horiz-adv-x="828" 
d="M61 1572h248q0 -49 29 -81t76 -32q48 0 75.5 31t28.5 82h249q0 -163 -90.5 -246t-262.5 -83t-263 83t-90 246z" />
    <glyph glyph-name="dotaccent" unicode="&#x2d9;" horiz-adv-x="424" 
d="M320 1288q-45 -45 -107 -45t-107 45q-45 44 -45 107q0 61 45 106q46 44 107 44t107 -44q44 -46 44 -106q0 -61 -44 -107z" />
    <glyph glyph-name="ring" unicode="&#x2da;" horiz-adv-x="718" 
d="M361 1229q-124 0 -212 88t-88 212q0 120 89 209q88 87 211 87q120 0 209 -87q87 -89 87 -209q0 -123 -87 -212q-87 -88 -209 -88zM284 1451q32 -32 76 -32t75 32t31 76t-31 75t-75.5 31t-75.5 -31q-32 -31 -32 -75t32 -76z" />
    <glyph glyph-name="ogonek" unicode="&#x2db;" horiz-adv-x="476" 
d="M208 17h204q-69 -71 -94 -132q-45 -91 10 -126q28 -18 87 5l-2 -151q-72 -29 -138 -29q-118 -6 -179 64q-49 68 -20 165q12 52 49 108t83 96z" />
    <glyph glyph-name="tilde" unicode="&#x2dc;" horiz-adv-x="917" 
d="M628 1581h228q0 -173 -86 -253q-77 -80 -197 -59q-55 6 -123 37q-72 31 -106 35q-36 3 -48 -26q-6 -13 -6 -69h-229q0 166 81 245q73 88 198 70q54 -4 124 -37q69 -34 109 -38q34 -3 48 26q7 15 7 69z" />
    <glyph glyph-name="hungarumlaut" unicode="&#x2dd;" horiz-adv-x="1001" 
d="M544 1638l-222 -395h-261l222 395h261zM940 1638l-222 -395h-261l221 395h262z" />
    <glyph glyph-name="gravecomb" unicode="&#x300;" horiz-adv-x="0" 
d="M-61 1243h-261l-244 395h336z" />
    <glyph glyph-name="acutecomb" unicode="&#x301;" horiz-adv-x="0" 
d="M-61 1638l-245 -395h-260l169 395h336z" />
    <glyph glyph-name="uni0302" unicode="&#x302;" horiz-adv-x="0" 
d="M-215 1616l154 -373h-246l-88 222l-88 -222h-246l154 373h360z" />
    <glyph glyph-name="tildecomb" unicode="&#x303;" horiz-adv-x="0" 
d="M-290 1581h229q0 -173 -86 -253q-77 -80 -197 -59q-55 6 -124 37q-72 31 -105 35q-35 3 -49 -26q-6 -13 -6 -69h-228q0 166 81 245q73 88 197 70q54 -4 124 -37q69 -34 110 -38q35 -3 47 26q7 15 7 69z" />
    <glyph glyph-name="uni0304" unicode="&#x304;" horiz-adv-x="0" 
d="M-701 1243v261h640v-261h-640z" />
    <glyph glyph-name="uni0306" unicode="&#x306;" horiz-adv-x="0" 
d="M-767 1572h248q0 -50 28.5 -81.5t75.5 -31.5q48 0 76 31t29 82h249q0 -163 -91 -246t-263 -83t-262.5 83t-89.5 246z" />
    <glyph glyph-name="uni0307" unicode="&#x307;" horiz-adv-x="0" 
d="M-106 1288q-43 -45 -106 -45q-62 0 -107 45q-45 44 -45 107q0 61 45 106q46 44 107 44q62 0 106 -44q45 -45 45 -106q0 -62 -45 -107z" />
    <glyph glyph-name="uni0308" unicode="&#x308;" horiz-adv-x="0" 
d="M-484 1288q-44 -45 -107 -45q-62 0 -107 45q-44 44 -44 107q0 60 44 106q46 44 107 44q63 0 107 -44q44 -46 44 -106q0 -61 -44 -107zM-212 1243q-63 0 -108 45q-45 44 -45 107q0 61 45 106q47 44 108 44q60 0 106 -44q45 -45 45 -106q0 -62 -45 -107t-106 -45z" />
    <glyph glyph-name="uni030A" unicode="&#x30a;" horiz-adv-x="0" 
d="M-357 1229q-124 0 -212 88t-88 212q0 121 88 209q89 87 212 87q121 0 208 -87q88 -88 88 -209q0 -123 -87 -212q-87 -88 -209 -88zM-435 1451q32 -32 76 -32t75 32t31 76t-31 75t-75 31t-76 -31t-32 -75t32 -76z" />
    <glyph glyph-name="uni030B" unicode="&#x30b;" horiz-adv-x="0" 
d="M-458 1638l-222 -395h-260l221 395h261zM-61 1638l-223 -395h-261l221 395h263z" />
    <glyph glyph-name="uni030C" unicode="&#x30c;" horiz-adv-x="0" 
d="M-307 1616h246l-154 -373h-360l-154 373h246l88 -222z" />
    <glyph glyph-name="uni0312" unicode="&#x312;" horiz-adv-x="0" 
d="M-61 1678l-81 -435h-292l127 435h246z" />
    <glyph glyph-name="dotbelowcomb" unicode="&#x323;" horiz-adv-x="0" 
d="M-271 -422q-61 0 -108 45q-45 45 -45 108q0 61 45 105q45 45 108 45q61 0 105 -45q45 -44 45 -105t-45 -108q-44 -45 -105 -45z" />
    <glyph glyph-name="uni0326" unicode="&#x326;" horiz-adv-x="0" 
d="M-434 -552l81 435h292l-127 -435h-246z" />
    <glyph glyph-name="uni0327" unicode="&#x327;" horiz-adv-x="0" 
d="M-390 26h173v-73q38 3 74.5 -18t55.5 -52q32 -45 22 -108q-9 -63 -56 -101q-50 -45 -134.5 -56.5t-229.5 -2.5v152q119 -10 172 7q36 11 49 35t-5 45q-10 19 -45 27.5t-76 0.5v144z" />
    <glyph glyph-name="uni0328" unicode="&#x328;" horiz-adv-x="0" 
d="M-268 17h203q-67 -69 -93 -132q-45 -91 10 -126q28 -18 87 5l-2 -151q-72 -29 -138 -29q-118 -6 -179 64q-49 68 -20 165q12 52 49 108t83 96z" />
    <glyph glyph-name="uni0401" unicode="&#x401;" horiz-adv-x="1276" 
d="M557 1595q-43 -45 -106 -45t-107 45q-45 43 -45 107q0 61 45 106q44 44 107 44q62 0 106 -44q44 -46 44 -106q0 -61 -44 -107zM829 1550q-63 0 -107 45q-45 43 -45 107q0 61 45 106q46 44 107 44q60 0 106 -44q45 -45 45 -106q0 -62 -45 -107t-106 -45zM121 0v1434h1004
v-284h-646v-302h584v-285h-584v-279h677v-284h-1035z" />
    <glyph glyph-name="uni0410" unicode="&#x410;" horiz-adv-x="1499" 
d="M1460 0h-369l-69 228h-545l-68 -228h-370l432 1434h557zM750 1141l-189 -629h377z" />
    <glyph glyph-name="uni0411" unicode="&#x411;" horiz-adv-x="1377" 
d="M479 933h260q274 0 425 -130q152 -131 152 -336q0 -203 -146 -332q-151 -135 -431 -135h-618v1434h1064v-262h-706v-239zM478 284h223q121 0 188.5 47t67.5 136q0 87 -68.5 134t-187.5 47h-223v-364z" />
    <glyph glyph-name="uni0412" unicode="&#x412;" horiz-adv-x="1404" 
d="M1082 744q97 -26 170 -121t73 -231q0 -174 -124 -283t-305 -109h-775v1434h724q183 0 306 -102q123 -104 123 -275q0 -122 -52.5 -203.5t-139.5 -109.5zM770 1157h-291v-306h291q61 0 103 44q42 43 42 110q0 65 -42 109q-42 43 -103 43zM479 276h342q60 0 104 44
q42 44 42 110q0 65 -42 109t-104 44h-342v-307z" />
    <glyph glyph-name="uni0413" unicode="&#x413;" horiz-adv-x="1044" 
d="M121 1434h843v-284h-485v-1150h-358v1434z" />
    <glyph glyph-name="uni0414" unicode="&#x414;" horiz-adv-x="1862" 
d="M1539 1434v-1150h203v-576h-284v292h-1054v-292h-283v576h136q59 0 87 33t28 104v637q0 183 96.5 279.5t280.5 96.5h790zM699 284h482v866h-314q-78 0 -118 -41t-40 -119v-579q-2 -75 -10 -127z" />
    <glyph glyph-name="uni0415" unicode="&#x415;" horiz-adv-x="1276" 
d="M121 0v1434h1004v-284h-646v-302h584v-285h-584v-279h677v-284h-1035z" />
    <glyph glyph-name="uni0416" unicode="&#x416;" horiz-adv-x="1934" 
d="M1533 1434h361l-437 -717l437 -717h-361l-387 635v-635h-359v635l-387 -635h-361l437 717l-437 717h361l387 -635v635h359v-635z" />
    <glyph glyph-name="uni0417" unicode="&#x417;" horiz-adv-x="1374" 
d="M428 518l3 -97q0 -99 73 -151q74 -53 183 -53q111 0 185 53q72 52 72 151q0 102 -72 156t-185 54h-187v229h187q100 0 167 49q66 48 66 134q0 91 -66 140q-65 49 -167 49q-101 0 -166 -49q-66 -49 -66 -140v-81l-335 1v88q0 193 153 297q151 103 414 103q261 0 415 -104
q152 -104 152 -296q0 -105 -62 -187q-63 -82 -158 -105q114 -28 188 -123q72 -94 72 -222q0 -207 -164 -320t-443 -113t-443 113t-164 320v104h348z" />
    <glyph glyph-name="uni0418" unicode="&#x418;" horiz-adv-x="1462" 
d="M122 1434h358v-680l861 697v-1451h-358v680l-861 -697v1451z" />
    <glyph glyph-name="uni0419" unicode="&#x419;" horiz-adv-x="1462" 
d="M372 1879h248q0 -50 28.5 -81.5t75.5 -31.5q48 0 75.5 31t28.5 82h249q0 -163 -90.5 -246t-262.5 -83t-262.5 83t-89.5 246zM122 1434h358v-680l861 697v-1451h-358v680l-861 -697v1451z" />
    <glyph glyph-name="uni041A" unicode="&#x41a;" horiz-adv-x="1266" 
d="M866 1434h362l-437 -717l437 -717h-362l-387 635v-635h-358v1434h358v-635z" />
    <glyph glyph-name="uni041B" unicode="&#x41b;" horiz-adv-x="1582" 
d="M294 421v637q0 183 96.5 279.5t279.5 96.5h791v-1434h-358v1150h-313q-78 0 -119 -41t-41 -119v-579q0 -214 -88 -312q-88 -99 -296 -99h-203v284h136q59 0 87 33t28 104z" />
    <glyph glyph-name="uni041C" unicode="&#x41c;" horiz-adv-x="1930" 
d="M966 781l843 670v-1451h-358v740l-485 -411l-487 411v-740h-358v1451z" />
    <glyph glyph-name="uni041D" unicode="&#x41d;" horiz-adv-x="1475" 
d="M997 818v616h358v-1434h-359v534h-517v-534h-358v1434h357v-616h519z" />
    <glyph glyph-name="uni041E" unicode="&#x41e;" horiz-adv-x="1674" 
d="M837 -17q-212 0 -385 92q-171 91 -272 261q-100 167 -100 381q0 213 100 382q101 170 272 260q173 92 385 92t385 -92q171 -90 272 -260q99 -170 99 -382q0 -213 -99 -381q-101 -170 -272 -261q-173 -92 -385 -92zM549 427q119 -116 288 -116t288 116q118 115 118 290
t-117 291q-118 114 -289 114t-288 -114q-118 -115 -118 -291q0 -175 118 -290z" />
    <glyph glyph-name="uni041F" unicode="&#x41f;" horiz-adv-x="1431" 
d="M121 1434h1190v-1434h-359v1150h-473v-1150h-358v1434z" />
    <glyph glyph-name="uni0420" unicode="&#x420;" horiz-adv-x="1374" 
d="M121 1434h596q275 0 426 -142q150 -142 150 -376t-150 -376q-151 -142 -426 -142h-238v-398h-358v1434zM478 683h201q114 0 185 67q71 66 71 165q1 99 -70 167q-73 68 -186 68h-201v-467z" />
    <glyph glyph-name="uni0421" unicode="&#x421;" horiz-adv-x="1586" 
d="M837 311q114 0 207.5 54t144.5 148l316 -149q-91 -178 -269 -279q-177 -102 -399 -102q-212 0 -385 92q-171 91 -272 261q-100 167 -100 381q0 213 100 382q101 170 272 260q173 92 385 92q221 0 399 -101q178 -103 269 -280l-316 -149q-51 94 -145 147.5t-207 53.5
q-171 0 -288 -114q-118 -115 -118 -291t118 -291q116 -115 288 -115z" />
    <glyph glyph-name="uni0422" unicode="&#x422;" horiz-adv-x="1235" 
d="M80 1434h1076v-284h-358v-1150h-359v1150h-359v284z" />
    <glyph glyph-name="uni0423" unicode="&#x423;" horiz-adv-x="1320" 
d="M660 596l256 838h366l-424 -1104q-91 -237 -250 -334q-159 -94 -418 -66l-16 247q141 -5 208.5 28.5t73.5 117.5l-417 1111h367z" />
    <glyph glyph-name="uni0424" unicode="&#x424;" horiz-adv-x="1736" 
d="M1048 1548v-251q182 0 323 -68.5t222 -199.5q82 -133 82 -312t-82 -312q-83 -134 -223 -201q-142 -68 -322 -68v-251h-359v251q-182 0 -323.5 68.5t-222.5 200.5q-82 133 -82 312q-1 176 81.5 310t225 203t321.5 67v251h359zM689 420v594q-133 0 -214 -82
q-82 -82 -82 -215t82 -215q81 -82 214 -82zM1048 1014v-594q133 0 214 82t81 215t-81 215t-214 82z" />
    <glyph glyph-name="uni0425" unicode="&#x425;" horiz-adv-x="1449" 
d="M1021 1434h390l-428 -717l428 -717h-390l-296 487l-296 -487h-390l428 717l-428 717h390l296 -488z" />
    <glyph glyph-name="uni0426" unicode="&#x426;" horiz-adv-x="1581" 
d="M1311 1434v-1150h149v-531h-261v247h-1078v1434h358v-1150h473v1150h359z" />
    <glyph glyph-name="uni0427" unicode="&#x427;" horiz-adv-x="1384" 
d="M932 1434h358v-1434h-358v501h-260q-273 0 -425 131t-152 335v467h359v-467q0 -87 68.5 -134.5t187.5 -47.5h222v649z" />
    <glyph glyph-name="uni0428" unicode="&#x428;" horiz-adv-x="2262" 
d="M1783 284v1150h358v-1434h-2020v1434h358v-1150h473v1150h359v-1150h472z" />
    <glyph glyph-name="uni0429" unicode="&#x429;" horiz-adv-x="2412" 
d="M2141 1434v-1150h150v-531h-261v247h-1909v1434h358v-1150h473v1150h359v-1150h472v1150h358z" />
    <glyph glyph-name="uni042A" unicode="&#x42a;" horiz-adv-x="1620" 
d="M723 933h260q274 0 425 -130q152 -131 152 -336q0 -203 -146 -332q-73 -65 -184 -100t-247 -35h-618v1150h-285v284h643v-501zM723 284h222q121 0 189 47t67 136q0 87 -68.5 134t-187.5 47h-222v-364z" />
    <glyph glyph-name="uni042B" unicode="&#x42b;" horiz-adv-x="1903" 
d="M739 0h-618v1434h358v-501h260q274 0 425 -130q152 -131 152 -336q0 -203 -146 -332q-72 -64 -183 -99.5t-248 -35.5zM1473 0v1434h335v-1434h-335zM701 648h-223v-364h223q121 0 188.5 47t67.5 136q0 87 -68.5 134t-187.5 47z" />
    <glyph glyph-name="uni042C" unicode="&#x42c;" horiz-adv-x="1377" 
d="M739 0h-618v1434h358v-501h260q274 0 425 -130q152 -131 152 -336q0 -203 -146 -332q-72 -64 -183 -99.5t-248 -35.5zM701 648h-223v-364h223q121 0 188.5 47t67.5 136q0 87 -68.5 134t-187.5 47z" />
    <glyph glyph-name="uni042D" unicode="&#x42d;" horiz-adv-x="1586" 
d="M749 1451q213 0 386 -92q171 -91 271 -260q99 -170 99 -382q0 -213 -99 -381q-99 -170 -271 -261q-173 -92 -386 -92q-221 0 -399 101q-178 100 -270 280l317 149q49 -94 144 -148t208 -54q134 0 241 75q105 74 146 200h-474v262h474q-41 126 -146 200q-107 74 -241 74
q-114 0 -208 -53.5t-144 -147.5l-317 149q91 178 270 280q178 101 399 101z" />
    <glyph glyph-name="uni042E" unicode="&#x42e;" horiz-adv-x="2274" 
d="M1438 1451q212 0 385 -92q171 -90 272 -260q99 -170 99 -382q0 -213 -99 -381q-101 -170 -272 -261q-173 -92 -385 -92q-187 -2 -348 73.5t-266.5 214.5t-132.5 315h-212v-586h-358v1434h358v-586h212q27 176 132.5 315t266.5 214.5t348 73.5zM1438 311q168 0 287 116
q118 115 118 290t-117 291q-117 114 -288 114q-170 0 -289 -114q-118 -115 -118 -291q0 -174 119 -290t288 -116z" />
    <glyph glyph-name="uni042F" unicode="&#x42f;" horiz-adv-x="1381" 
d="M665 1434h596v-1434h-359v398h-203l-239 -398h-361l278 452q-140 60 -214.5 180.5t-74.5 282.5q0 234 151 376q152 143 426 143zM702 683h201v467h-201q-115 0 -185 -67q-72 -68 -71 -168q0 -99 72 -165q71 -67 184 -67z" />
    <glyph glyph-name="uni0430" unicode="&#x430;" horiz-adv-x="1391" 
d="M586 1144q132 0 230.5 -44t144.5 -123l14 149h321v-1126h-321l-14 150q-89 -167 -375 -167q-143 -3 -264 71t-192 209t-69 300q-1 124 40 233.5t112 186t168.5 120t204.5 41.5zM479 350q81 -83 200 -83q118 0 201 83q81 82 81 213t-81 214q-82 82 -201 82t-200 -82
q-81 -83 -81 -214t81 -213z" />
    <glyph glyph-name="uni0431" unicode="&#x431;" horiz-adv-x="1364" 
d="M746 1171q-141 0 -217.5 -80.5t-103.5 -248.5q51 76 189 113t291 15q176 -25 279 -157q101 -131 101 -311q2 -149 -77 -269t-217.5 -185t-308.5 -63q-262 0 -432 171q-170 170 -170 438q0 418 157 620q158 203 509 203q160 1 322 50v-248q-166 -48 -322 -48zM509 310
q70 -73 173 -73q104 0 174 73q71 74 71 192t-71 192q-70 72 -174 72q-102 0 -173 -72q-71 -74 -71 -192t71 -192z" />
    <glyph glyph-name="uni0432" unicode="&#x432;" horiz-adv-x="1359" 
d="M1056 586q97 -20 169 -95q73 -76 73 -183q0 -139 -121 -223q-121 -85 -307 -85h-775v1126h724q187 0 308 -79q120 -79 120 -217q0 -96 -52 -159.5t-139 -84.5zM744 902h-290v-226h290q60 0 103 33q42 33 42 81q0 49 -40 80.5t-105 31.5zM454 225h342q65 0 104.5 31.5
t39.5 81.5q0 47 -42 80t-102 33h-342v-226z" />
    <glyph glyph-name="uni0433" unicode="&#x433;" horiz-adv-x="1031" 
d="M121 1126h849v-262h-491v-864h-358v1126z" />
    <glyph glyph-name="uni0434" unicode="&#x434;" horiz-adv-x="1777" 
d="M1513 1126v-865h170v-529h-291v268h-998v-268h-299v529h136q60 0 87.5 25.5t27.5 81.5v462q0 144 96.5 220t279.5 76h791zM679 261h476v604h-313q-78 0 -119 -31.5t-41 -92.5v-418q0 -32 -3 -62z" />
    <glyph glyph-name="uni0435" unicode="&#x435;" horiz-adv-x="1345" 
d="M679 1144q136 0 252 -46t198 -132t122.5 -215.5t29.5 -283.5h-872q25 -100 100 -161q73 -60 170 -60q171 0 254 165l286 -139q-78 -137 -223 -213t-317 -76q-256 0 -433 152q-87 74 -136 185t-49 243t49 243.5t136 185.5q179 152 433 152zM855 822q-73 59 -176 59
q-105 0 -176 -59q-72 -59 -95 -163h542q-24 102 -95 163z" />
    <glyph glyph-name="uni0436" unicode="&#x436;" horiz-adv-x="1941" 
d="M1535 1126h363l-433 -563l433 -563h-363l-385 502v-502h-358v502l-385 -502h-364l432 563l-432 563h364l385 -501v501h358v-501z" />
    <glyph glyph-name="uni0437" unicode="&#x437;" horiz-adv-x="1337" 
d="M410 400l3 -69q0 -59 73 -93q75 -35 183 -35q112 0 183 34q72 33 72 94q0 76 -71 114q-70 37 -184 37h-189v206h189q102 0 166 34q65 35 65 97q0 55 -66 86t-165 31q-100 0 -165 -31q-67 -31 -67 -86v-58h-336v64q0 156 151 235t417 79q265 0 416 -79t151 -235
q0 -83 -62 -147q-60 -63 -158 -83q114 -22 188 -96q72 -73 72 -174q0 -167 -162 -253q-164 -86 -445 -86q-283 0 -445.5 85.5t-162.5 253.5v75h349z" />
    <glyph glyph-name="uni0438" unicode="&#x438;" horiz-adv-x="1350" 
d="M95 1126h359v-541l802 556v-1141h-358v542l-803 -556v1140z" />
    <glyph glyph-name="uni0439" unicode="&#x439;" horiz-adv-x="1350" 
d="M324 1572h247q0 -49 29 -81t76 -32q48 0 75.5 31t28.5 82h249q0 -163 -90.5 -246t-262.5 -83t-262.5 83t-89.5 246zM95 1126h359v-541l802 556v-1141h-358v542l-803 -556v1140z" />
    <glyph glyph-name="uni043A" unicode="&#x43a;" horiz-adv-x="1245" 
d="M839 1126h363l-433 -563l433 -563h-363l-385 501v-501h-359v1126h359v-500z" />
    <glyph glyph-name="uni043B" unicode="&#x43b;" horiz-adv-x="1555" 
d="M294 368v462q0 144 96 220t280 76h791v-1126h-358v865h-313q-78 0 -119 -31.5t-41 -92.5v-418q0 -167 -88 -245t-296 -78h-203v261h136q60 0 87.5 25.5t27.5 81.5z" />
    <glyph glyph-name="uni043C" unicode="&#x43c;" horiz-adv-x="1668" 
d="M835 651l739 496v-1147h-359v538l-380 -287l-381 287v-538h-359v1147z" />
    <glyph glyph-name="uni043D" unicode="&#x43d;" horiz-adv-x="1379" 
d="M927 658v468h357v-1126h-358v396h-472v-396h-359v1126h358v-468h474z" />
    <glyph glyph-name="uni043E" unicode="&#x43e;" horiz-adv-x="1357" 
d="M679 -17q-256 0 -433 152q-86 74 -135.5 186t-49.5 242q0 131 49.5 243t135.5 186q179 152 433 152q123 0 235 -39.5t197 -112.5q86 -74 135.5 -186t49.5 -243q0 -130 -49.5 -242t-135.5 -186q-85 -73 -197 -112.5t-235 -39.5zM479 349q81 -83 200 -83q118 0 201 83
q81 83 81 214t-81 214q-83 83 -201 83q-119 0 -200 -83q-82 -82 -82 -214t82 -214z" />
    <glyph glyph-name="uni043F" unicode="&#x43f;" horiz-adv-x="1379" 
d="M95 1126h1189v-1126h-358v864h-472v-864h-359v1126z" />
    <glyph glyph-name="uni0440" unicode="&#x440;" horiz-adv-x="1390" 
d="M805 -17q-132 0 -230.5 44t-143.5 123v-560h-336v1536h321l15 -149q44 82 140.5 124.5t233.5 42.5q107 2 204.5 -41.5t168 -120t112 -186t39.5 -233.5q2 -165 -68.5 -300t-191.5 -209t-264 -71zM713 859q-119 0 -200 -82q-82 -82 -82 -214q0 -131 82 -213q81 -83 200 -83
q118 0 199 83q81 82 81 213t-81 214q-81 82 -199 82z" />
    <glyph glyph-name="uni0441" unicode="&#x441;" horiz-adv-x="1289" 
d="M679 259q82 0 145.5 42.5t96.5 121.5l307 -124q-69 -145 -218 -231q-148 -85 -331 -85q-256 0 -433 152q-86 74 -135.5 186t-49.5 242q0 131 49.5 243t135.5 186q179 152 433 152q183 0 331 -85q150 -86 218 -232l-307 -124q-33 79 -96.5 121.5t-145.5 42.5
q-119 0 -200 -84q-82 -83 -82 -220t82 -220q81 -84 200 -84z" />
    <glyph glyph-name="uni0442" unicode="&#x442;" horiz-adv-x="1265" 
d="M95 1126h1075v-262h-358v-864h-358v864h-359v262z" />
    <glyph glyph-name="uni0443" unicode="&#x443;" horiz-adv-x="1328" 
d="M665 288l255 838h366l-425 -1103q-91 -237 -250 -334q-157 -96 -417 -66l-17 247q142 -5 209.5 28t72.5 117l-416 1111h366z" />
    <glyph glyph-name="uni0444" unicode="&#x444;" horiz-adv-x="1743" 
d="M1052 1320v-191q180 3 324 -66t226 -200t80 -300q2 -169 -80 -300t-226 -200t-324 -66v-191h-359v191q-280 0 -455 154q-177 153 -177 412q0 258 177 413q177 153 455 153v191h359zM693 282v563q-132 0 -214 -79t-82 -203t82 -202q82 -79 214 -79zM1052 845v-563
q132 0 214 79q81 78 81 202q0 123 -81 203q-82 79 -214 79z" />
    <glyph glyph-name="uni0445" unicode="&#x445;" horiz-adv-x="1328" 
d="M910 1126h375l-376 -563l376 -563h-375l-245 370l-246 -370h-376l377 563l-377 563h376l246 -369z" />
    <glyph glyph-name="uni0446" unicode="&#x446;" horiz-adv-x="1528" 
d="M1284 1126v-842h151v-531h-263v247h-1077v1126h359v-864h472v864h358z" />
    <glyph glyph-name="uni0447" unicode="&#x447;" horiz-adv-x="1384" 
d="M932 1126h358v-1126h-358v355h-260q-133 0 -246.5 34t-184.5 92q-146 119 -146 279v366h359v-366q0 -69 68 -106t188 -37h222v509z" />
    <glyph glyph-name="uni0448" unicode="&#x448;" horiz-adv-x="2209" 
d="M1757 262v864h359v-1126h-2021v1126h359v-864h472v864h358v-864h473z" />
    <glyph glyph-name="uni0449" unicode="&#x449;" horiz-adv-x="2360" 
d="M2116 1126v-865h149v-508h-261v247h-1909v1126h359v-864h472v864h358v-864h473v864h359z" />
    <glyph glyph-name="uni044A" unicode="&#x44a;" horiz-adv-x="1606" 
d="M709 752h260q278 0 427 -98.5t149 -277.5q0 -181 -148.5 -278.5t-427.5 -97.5h-619v865h-255v261h614v-374zM708 234h223q256 0 256 142q0 69 -66.5 105t-189.5 36h-223v-283z" />
    <glyph glyph-name="uni044B" unicode="&#x44b;" horiz-adv-x="1876" 
d="M713 0h-618v1126h359v-374h259q278 0 427.5 -98.5t149.5 -277.5q0 -181 -148.5 -278.5t-428.5 -97.5zM1447 0v1126h336v-1126h-336zM676 517h-223v-283h223q256 0 256 142q0 69 -66.5 105t-189.5 36z" />
    <glyph glyph-name="uni044C" unicode="&#x44c;" horiz-adv-x="1351" 
d="M713 0h-618v1126h359v-374h259q278 0 427.5 -98.5t149.5 -277.5q0 -181 -148.5 -278.5t-428.5 -97.5zM676 517h-223v-283h223q256 0 256 142q0 69 -66.5 105t-189.5 36z" />
    <glyph glyph-name="uni044D" unicode="&#x44d;" horiz-adv-x="1289" 
d="M610 1144q254 0 433 -152q86 -74 135.5 -186t49.5 -243q0 -130 -49.5 -242t-135.5 -186q-177 -152 -433 -152q-183 0 -331 85q-149 86 -218 231l308 124q33 -79 96 -121.5t145 -42.5q96 0 171 57q75 58 100 154h-312v186h312q-25 96 -100 154q-73 57 -171 57
q-82 0 -145.5 -42.5t-95.5 -121.5l-308 124q69 146 218 232q148 85 331 85z" />
    <glyph glyph-name="uni044E" unicode="&#x44e;" horiz-adv-x="1883" 
d="M1205 1144q123 0 235 -39.5t197 -112.5q86 -74 135.5 -186t49.5 -243q0 -130 -49.5 -242t-135.5 -186q-85 -73 -197 -112.5t-235 -39.5q-148 0 -273 52.5t-213 154.5q-90 105 -118 242h-170v-432h-336v1126h336v-432h170q42 206 213 329.5t391 120.5zM1205 266
q117 0 200 83q82 82 82 214q0 131 -81 214q-83 83 -201 83q-119 0 -200 -83t-81 -214t81 -214t200 -83z" />
    <glyph glyph-name="uni044F" unicode="&#x44f;" horiz-adv-x="1358" 
d="M646 1126h618v-1126h-359v313h-224l-239 -313h-361l275 353q-141 45 -214 139.5t-73 226.5q0 189 148 298q146 109 429 109zM683 539h223v362h-223q-119 0 -187.5 -49t-68.5 -133q1 -84 69.5 -132t186.5 -48z" />
    <glyph glyph-name="uni0451" unicode="&#x451;" horiz-adv-x="1345" 
d="M591 1288q-43 -45 -106 -45t-107 45q-45 44 -45 107q0 61 45 106q44 44 107 44q62 0 106 -44q44 -46 44 -106q0 -61 -44 -107zM863 1243q-63 0 -107 45q-45 44 -45 107q0 61 45 106q46 44 107 44q60 0 106 -44q45 -45 45 -106q0 -62 -45 -107t-106 -45zM679 1144
q136 0 252 -46t198 -132t122.5 -215.5t29.5 -283.5h-872q25 -100 100 -161q73 -60 170 -60q171 0 254 165l286 -139q-78 -137 -223 -213t-317 -76q-256 0 -433 152q-87 74 -136 185t-49 243t49 243.5t136 185.5q179 152 433 152zM855 822q-73 59 -176 59q-105 0 -176 -59
q-72 -59 -95 -163h542q-24 102 -95 163z" />
    <glyph glyph-name="uni1E04" unicode="&#x1e04;" horiz-adv-x="1404" 
d="M1082 744q97 -26 170 -121t73 -231q0 -174 -124 -283t-305 -109h-775v1434h724q183 0 306 -102q123 -104 123 -275q0 -122 -52.5 -203.5t-139.5 -109.5zM770 1157h-291v-306h291q61 0 103 44q42 43 42 110q0 65 -42 109q-42 43 -103 43zM479 276h342q60 0 104 44
q42 44 42 110q0 65 -42 109t-104 44h-342v-307zM703 -422q-62 0 -107 45t-45 108q0 61 45 105q45 45 107 45q61 0 106 -45q45 -44 45 -105t-45 -108q-45 -45 -106 -45z" />
    <glyph glyph-name="uni1E05" unicode="&#x1e05;" horiz-adv-x="1390" 
d="M805 1144q107 2 204.5 -41.5t168 -120t112 -186t39.5 -233.5q2 -165 -68.5 -300t-191.5 -209t-264 -71q-137 0 -233.5 42.5t-140.5 124.5l-15 -150h-321v1536h336v-559q45 79 143.5 123t230.5 44zM713 267q118 0 199 83q81 82 81 213t-81 214q-81 82 -199 82
q-119 0 -200 -82q-82 -82 -82 -214q0 -131 82 -213q81 -83 200 -83zM699 -422q-62 0 -107 45t-45 108q0 61 45 105q45 45 107 45q61 0 106 -45q45 -44 45 -105t-45 -108q-45 -45 -106 -45z" />
    <glyph glyph-name="uni1E24" unicode="&#x1e24;" horiz-adv-x="1475" 
d="M997 818v616h358v-1434h-359v534h-517v-534h-358v1434h357v-616h519zM739 -422q-63 0 -107 45q-45 45 -45 108q0 61 45 105q45 45 107 45q61 0 106 -45q45 -44 45 -105t-45 -108q-45 -45 -106 -45z" />
    <glyph glyph-name="uni1E25" unicode="&#x1e25;" horiz-adv-x="1344" 
d="M1249 0h-336v563q0 149 -54.5 222.5t-171.5 73.5q-118 0 -187 -80q-69 -81 -69 -216v-563h-336v1536h336v-559q45 79 142.5 123t229.5 44q240 0 343 -148t103 -433v-563zM674 -422q-63 0 -108 45t-45 108q0 61 45 105q45 45 108 45q61 0 106 -45q44 -44 44 -105t-44 -108
q-45 -45 -106 -45z" />
    <glyph glyph-name="uni1E36" unicode="&#x1e36;" horiz-adv-x="1165" 
d="M1044 0h-923v1434h358l-1 -1150h566v-284zM584 -422q-63 0 -108 45t-45 108q0 61 45 105q45 45 108 45q61 0 106 -45q44 -44 44 -105t-44 -108q-45 -45 -106 -45z" />
    <glyph glyph-name="uni1E37" unicode="&#x1e37;" 
d="M95 0v1536h336v-1536h-336zM264 -422q-64 0 -107 45q-45 45 -45 108q0 61 45 105q45 45 107 45q61 0 106 -45q45 -44 45 -105t-45 -108q-45 -45 -106 -45z" />
    <glyph glyph-name="uni1E3E" unicode="&#x1e3e;" horiz-adv-x="1930" 
d="M1339 1946l-244 -396h-260l169 396h335zM966 781l843 670v-1451h-358v740l-485 -411l-487 411v-740h-358v1451z" />
    <glyph glyph-name="uni1E3F" unicode="&#x1e3f;" horiz-adv-x="2083" 
d="M1080 1638h336l-245 -395h-260zM1570 1144q235 0 331 -156q88 -145 88 -425v-563h-336v563q0 296 -206 296q-113 0 -175.5 -79t-62.5 -217v-563h-336v563q0 296 -204 296q-113 0 -175.5 -79t-62.5 -217v-563h-336v1126h321l15 -149q87 167 361 167q278 0 367 -231
q115 231 411 231z" />
    <glyph glyph-name="uni1E44" unicode="&#x1e44;" horiz-adv-x="1462" 
d="M838 1595q-44 -45 -106 -45q-64 0 -107 45q-45 43 -45 107q0 61 45 106q44 44 107 44q62 0 106 -44q44 -46 44 -106q0 -61 -44 -107zM982 754v680h358v-1451l-861 697v-680h-358v1451z" />
    <glyph glyph-name="uni1E45" unicode="&#x1e45;" horiz-adv-x="1319" 
d="M772 1288q-44 -45 -106 -45q-64 0 -107 45q-45 44 -45 107q0 61 45 106q44 44 107 44q62 0 106 -44q44 -46 44 -106q0 -61 -44 -107zM1225 0h-336v563q0 149 -51.5 222.5t-161.5 73.5q-117 0 -181 -79t-64 -217v-563h-336v1126h321l15 -149q95 167 361 167
q232 0 332 -148q101 -149 101 -433v-563z" />
    <glyph glyph-name="uni1E46" unicode="&#x1e46;" horiz-adv-x="1462" 
d="M982 754v680h358v-1451l-861 697v-680h-358v1451zM732 -422q-62 0 -107 45t-45 108q0 61 45 105q45 45 107 45q61 0 106 -45q45 -44 45 -105t-45 -108q-45 -45 -106 -45z" />
    <glyph glyph-name="uni1E47" unicode="&#x1e47;" horiz-adv-x="1319" 
d="M1225 0h-336v563q0 149 -51.5 222.5t-161.5 73.5q-117 0 -181 -79t-64 -217v-563h-336v1126h321l15 -149q95 167 361 167q232 0 332 -148q101 -149 101 -433v-563zM667 -422q-62 0 -107 45q-46 45 -46 108q0 61 45 105q45 45 108 45q61 0 106 -45q44 -44 44 -105
t-44 -108q-45 -45 -106 -45z" />
    <glyph glyph-name="uni1E62" unicode="&#x1e62;" horiz-adv-x="1317" 
d="M1194 1046l-358 -26q-14 74 -62.5 114.5t-122.5 40.5q-88 0 -136 -37.5t-48 -105.5q2 -39 23 -63.5t64 -44.5q42 -20 112 -39q66 -19 146 -46q43 -14 125 -46q113 -46 190 -108q58 -49 83.5 -110.5t27.5 -150.5q-2 -216 -155 -328q-155 -113 -419 -113q-258 0 -415 112
t-169 324l358 25q12 -83 72 -128.5t153 -45.5q97 0 155 38t59 108q-2 48 -34 82t-95 63q-42 20 -169 61q-75 23 -97 31q-32 10 -86 29q-44 15 -76 32q-87 43 -117 76q-56 58 -71 105q-23 73 -23 152q0 130 71 224t194 138q120 42 277 42q232 0 380 -103t163 -302zM660 -422
q-62 0 -107 45t-45 108q0 61 45 105q45 45 107 45q61 0 106 -45q45 -44 45 -105t-45 -108q-45 -45 -106 -45z" />
    <glyph glyph-name="uni1E63" unicode="&#x1e63;" horiz-adv-x="1150" 
d="M1061 822l-336 -18q-8 46 -49 77.5t-99 31.5q-71 0 -112 -26.5t-41 -74.5q0 -31 24.5 -55t61.5 -37q34 -12 91 -27q178 -43 277 -81q59 -22 97 -48q121 -81 115 -223q-6 -173 -137 -265.5t-372 -92.5q-233 0 -370 89q-137 88 -150 255l335 25q12 -61 63.5 -97t121.5 -36
q76 0 123.5 30t47.5 81q0 98 -238 150q-119 30 -164 44q-67 21 -118 46q-56 26 -84 60q-60 71 -60 188q0 159 129.5 242.5t367.5 83.5q217 0 341 -82.5t135 -239.5zM578 -422q-63 0 -108 45t-45 108q0 61 45 105q45 45 108 45q61 0 106 -45q44 -44 44 -105t-44 -108
q-45 -45 -106 -45z" />
    <glyph glyph-name="uni1E6C" unicode="&#x1e6c;" horiz-adv-x="1235" 
d="M80 1434h1076v-284h-358v-1150h-359v1150h-359v284zM620 -422q-62 0 -107 45q-46 45 -46 108q0 61 45 105q45 45 108 45q61 0 106 -45q44 -44 44 -105t-44 -108q-45 -45 -106 -45z" />
    <glyph glyph-name="uni1E6D" unicode="&#x1e6d;" horiz-adv-x="934" 
d="M240 1126v252h335v-252h266v-261h-266v-450q0 -120 91 -139q69 -22 175 -1v-275q-116 -17 -217 -17q-206 0 -295 102q-89 103 -89 318v462h-145v261h145zM625 -439q-62 0 -108 44q-45 45 -45 108q0 61 45 106t108 45q61 0 106 -45q44 -44 44 -106q0 -61 -44 -107
q-45 -45 -106 -45z" />
    <glyph glyph-name="Wgrave" unicode="&#x1e80;" horiz-adv-x="2272" 
d="M1098 1946l169 -396h-260l-245 396h336zM1589 403l234 1031h410l-399 -1434h-454l-243 891l-244 -891h-455l-399 1434h412l233 -1031l260 1031h384z" />
    <glyph glyph-name="wgrave" unicode="&#x1e81;" horiz-adv-x="2145" 
d="M1203 1243h-260l-245 395h336zM1511 310l234 816h358l-346 -1126h-469l-215 708l-216 -708h-468l-346 1126h358l234 -816l255 816h365z" />
    <glyph glyph-name="Wacute" unicode="&#x1e82;" horiz-adv-x="2272" 
d="M1176 1946h335l-244 -396h-260zM1589 403l234 1031h410l-399 -1434h-454l-243 891l-244 -891h-455l-399 1434h412l233 -1031l260 1031h384z" />
    <glyph glyph-name="wacute" unicode="&#x1e83;" horiz-adv-x="2145" 
d="M1448 1638l-245 -395h-260l169 395h336zM1511 310l234 816h358l-346 -1126h-469l-215 708l-216 -708h-468l-346 1126h358l234 -816l255 816h365z" />
    <glyph glyph-name="Wdieresis" unicode="&#x1e84;" horiz-adv-x="2272" 
d="M1054 1595q-44 -45 -106 -45q-64 0 -107 45q-45 43 -45 107q0 61 45 106q44 44 107 44q62 0 106 -44q44 -46 44 -106q0 -61 -44 -107zM1326 1550q-64 0 -107 45q-45 43 -45 107q0 61 45 106q46 44 107 44q60 0 106 -44q45 -45 45 -106q0 -62 -45 -107t-106 -45zM1589 403
l234 1031h410l-399 -1434h-454l-243 891l-244 -891h-455l-399 1434h412l233 -1031l260 1031h384z" />
    <glyph glyph-name="wdieresis" unicode="&#x1e85;" horiz-adv-x="2145" 
d="M990 1288q-44 -45 -106 -45q-64 0 -107 45q-45 44 -45 107q0 61 45 106q44 44 107 44q62 0 106 -44q44 -46 44 -106q0 -61 -44 -107zM1263 1243q-63 0 -108 45q-45 44 -45 107q0 61 45 106q46 44 108 44q60 0 106 -44q44 -46 44 -106q0 -61 -44 -107q-45 -45 -106 -45z
M1511 310l234 816h358l-346 -1126h-469l-215 708l-216 -708h-468l-346 1126h358l234 -816l255 816h365z" />
    <glyph glyph-name="uni1E92" unicode="&#x1e92;" horiz-adv-x="1309" 
d="M121 1434h1068v-284l-655 -866h655v-284h-1068v284l655 866h-655v284zM656 -422q-62 0 -107 45t-45 108q0 61 45 105q45 45 107 45q61 0 106 -45q45 -44 45 -105t-45 -108q-45 -45 -106 -45z" />
    <glyph glyph-name="uni1E93" unicode="&#x1e93;" horiz-adv-x="1184" 
d="M95 1126h996v-269l-568 -581h568v-276h-996v276l559 581h-559v269zM594 -422q-63 0 -108 45t-45 108q0 61 45 105q45 45 108 45q61 0 106 -45q44 -44 44 -105t-44 -108q-45 -45 -106 -45z" />
    <glyph glyph-name="uni1EA0" unicode="&#x1ea0;" horiz-adv-x="1499" 
d="M1028 1434l432 -1434h-369l-69 228h-545l-68 -228h-370l432 1434h557zM750 1141l-189 -629h377zM751 -119q61 0 106 -45q44 -44 44 -105t-44 -108q-45 -45 -106 -45q-62 0 -107 45q-46 45 -46 108q0 62 46 105q45 45 107 45z" />
    <glyph glyph-name="uni1EA1" unicode="&#x1ea1;" horiz-adv-x="1391" 
d="M586 1144q132 0 230.5 -44t144.5 -123l14 149h321v-1126h-321l-14 150q-89 -167 -375 -167q-143 -3 -264 71t-192 209t-69 300q-1 124 40 233.5t112 186t168.5 120t204.5 41.5zM479 350q81 -83 200 -83q118 0 201 83q81 82 81 213t-81 214q-82 82 -201 82t-200 -82
q-81 -83 -81 -214t81 -213zM693 -422q-62 0 -107 45t-45 108q0 61 45 105q45 45 107 45q61 0 106 -45q45 -44 45 -105t-45 -108q-45 -45 -106 -45z" />
    <glyph glyph-name="uni1EB8" unicode="&#x1eb8;" horiz-adv-x="1276" 
d="M121 0v1434h1004v-284h-646v-302h584v-285h-584v-279h677v-284h-1035zM640 -422q-62 0 -107 45q-46 45 -46 108q0 62 46 105q45 45 107 45q61 0 106 -45q45 -44 45 -105t-45 -108q-45 -45 -106 -45z" />
    <glyph glyph-name="uni1EB9" unicode="&#x1eb9;" horiz-adv-x="1345" 
d="M679 1144q136 0 252 -46t198 -132t122.5 -215.5t29.5 -283.5h-872q25 -100 100 -161q73 -60 170 -60q171 0 254 165l286 -139q-78 -137 -223 -213t-317 -76q-256 0 -433 152q-87 74 -136 185t-49 243t49 243.5t136 185.5q179 152 433 152zM855 822q-73 59 -176 59
q-105 0 -176 -59q-72 -59 -95 -163h542q-24 102 -95 163zM674 -119q61 0 106 -45q44 -44 44 -105t-44 -108q-45 -45 -106 -45q-63 0 -108 45t-45 108q0 62 46 105q45 45 107 45z" />
    <glyph glyph-name="uni1EBC" unicode="&#x1ebc;" horiz-adv-x="1276" 
d="M808 1888h228q0 -173 -86 -253q-77 -80 -196 -59q-55 6 -124 37q-71 32 -106 36q-36 3 -48 -27q-6 -14 -6 -69h-228q0 165 81 245q73 88 197 70q54 -4 124 -37q69 -34 110 -38q35 -3 47 27q7 15 7 68zM121 0v1434h1004v-284h-646v-302h584v-285h-584v-279h677v-284h-1035
z" />
    <glyph glyph-name="uni1EBD" unicode="&#x1ebd;" horiz-adv-x="1345" 
d="M510 1315q-6 -13 -6 -69h-229q0 166 81 245q73 88 198 70q54 -4 124 -37q69 -34 109 -38q34 -3 48 26q7 15 7 69h228q0 -173 -86 -253q-77 -80 -197 -59q-55 6 -123 37q-72 31 -106 35q-36 4 -48 -26zM679 1144q136 0 252 -46t198 -132t122.5 -215.5t29.5 -283.5h-872
q25 -100 100 -161q73 -60 170 -60q171 0 254 165l286 -139q-78 -137 -223 -213t-317 -76q-256 0 -433 152q-87 74 -136 185t-49 243t49 243.5t136 185.5q179 152 433 152zM855 822q-73 59 -176 59q-105 0 -176 -59q-72 -59 -95 -163h542q-24 102 -95 163z" />
    <glyph glyph-name="uni1ECA" unicode="&#x1eca;" horiz-adv-x="600" 
d="M121 0v1434h358v-1434h-358zM301 -422q-63 0 -108 45t-45 108q0 62 46 105q45 45 107 45q61 0 106 -45q45 -44 45 -105t-45 -108q-45 -45 -106 -45z" />
    <glyph glyph-name="uni1ECB" unicode="&#x1ecb;" 
d="M264 1257q-82 0 -139 58q-58 58 -58 139t58 139q57 57 139 57q80 0 138 -57q57 -59 57 -139t-57 -139q-58 -58 -138 -58zM95 0v1126h336v-1126h-336zM264 -422q-64 0 -107 45q-45 45 -45 108q0 61 45 105q45 45 107 45q61 0 106 -45q45 -44 45 -105t-45 -108
q-45 -45 -106 -45z" />
    <glyph glyph-name="uni1ECC" unicode="&#x1ecc;" horiz-adv-x="1674" 
d="M837 -17q-212 0 -385 92q-171 91 -272 261q-100 167 -100 381q0 213 100 382q101 170 272 260q173 92 385 92t385 -92q171 -90 272 -260q99 -170 99 -382q0 -213 -99 -381q-101 -170 -272 -261q-173 -92 -385 -92zM549 427q119 -116 288 -116t288 116q118 115 118 290
t-117 291q-118 114 -289 114t-288 -114q-118 -115 -118 -291q0 -175 118 -290zM838 -422q-63 0 -108 45t-45 108q0 61 45 105q45 45 108 45q61 0 106 -45q44 -44 44 -105t-44 -108q-45 -45 -106 -45z" />
    <glyph glyph-name="uni1ECD" unicode="&#x1ecd;" horiz-adv-x="1357" 
d="M679 -17q-256 0 -433 152q-86 74 -135.5 186t-49.5 242q0 131 49.5 243t135.5 186q179 152 433 152q123 0 235 -39.5t197 -112.5q86 -74 135.5 -186t49.5 -243q0 -130 -49.5 -242t-135.5 -186q-85 -73 -197 -112.5t-235 -39.5zM479 349q81 -83 200 -83q118 0 201 83
q81 83 81 214t-81 214q-83 83 -201 83q-119 0 -200 -83q-82 -82 -82 -214t82 -214zM680 -422q-63 0 -108 45t-45 108q0 61 45 105q45 45 108 45q61 0 106 -45q44 -44 44 -105t-44 -108q-45 -45 -106 -45z" />
    <glyph glyph-name="uni1EE4" unicode="&#x1ee4;" horiz-adv-x="1434" 
d="M954 572l1 862h359v-839q0 -295 -161 -453q-161 -159 -436 -159t-436 159q-160 157 -160 453v839h358v-862q0 -123 63.5 -192t174.5 -69t174 69t63 192zM718 -422q-62 0 -107 45q-46 45 -46 108q0 61 45 105q45 45 108 45q61 0 106 -45q44 -44 44 -105t-44 -108
q-45 -45 -106 -45z" />
    <glyph glyph-name="uni1EE5" unicode="&#x1ee5;" horiz-adv-x="1319" 
d="M95 1126h336v-563q0 -149 51 -222.5t162 -73.5q117 0 181 79t64 217v563h336v-1126h-321l-15 150q-95 -167 -361 -167q-232 0 -332 148q-101 149 -101 432v563zM660 -422q-62 0 -107 45t-45 108q0 61 45 105q45 45 107 45q61 0 106 -45q45 -44 45 -105t-45 -108
q-45 -45 -106 -45z" />
    <glyph glyph-name="Ygrave" unicode="&#x1ef2;" horiz-adv-x="1449" 
d="M686 1946l169 -396h-260l-245 396h336zM725 821l290 613h396l-507 -965v-469h-358v469l-507 965h396z" />
    <glyph glyph-name="ygrave" unicode="&#x1ef3;" horiz-adv-x="1328" 
d="M626 1638l169 -395h-260l-245 395h336zM665 288l255 838h366l-425 -1103q-91 -237 -250 -334q-157 -96 -417 -66l-17 247q142 -5 209.5 28t72.5 117l-416 1111h366z" />
    <glyph glyph-name="uni1EF4" unicode="&#x1ef4;" horiz-adv-x="1449" 
d="M725 821l290 613h396l-507 -965v-469h-358v469l-507 965h396zM726 -119q61 0 106 -45q45 -44 45 -105t-45 -108q-45 -45 -106 -45q-62 0 -107 45q-46 45 -46 108q0 62 46 105q45 45 107 45z" />
    <glyph glyph-name="uni1EF5" unicode="&#x1ef5;" horiz-adv-x="1328" 
d="M665 288l255 838h366l-425 -1103q-91 -237 -250 -334q-157 -96 -417 -66l-17 247q142 -5 209.5 28t72.5 117l-416 1111h366zM1030 -119q61 0 106 -45q45 -44 45 -105t-44 -108q-45 -45 -107 -45q-64 0 -107 45q-45 45 -45 108q0 61 45 105q45 45 107 45z" />
    <glyph glyph-name="uni1EF8" unicode="&#x1ef8;" horiz-adv-x="1449" 
d="M562 1622q-6 -14 -6 -69h-228q0 165 81 245q73 88 197 70q54 -4 124 -37q69 -34 110 -38q35 -3 47 27q7 15 7 68h228q0 -173 -86 -253q-77 -80 -196 -59q-55 6 -124 37q-71 32 -106 36q-36 3 -48 -27zM725 821l290 613h396l-507 -965v-469h-358v469l-507 965h396z" />
    <glyph glyph-name="uni1EF9" unicode="&#x1ef9;" horiz-adv-x="1328" 
d="M502 1315q-6 -13 -6 -69h-229q0 166 81 245q73 88 198 70q54 -4 124 -37q69 -34 109 -38q35 -3 47 26q6 14 8 69h228q0 -173 -86 -253q-77 -80 -197 -59q-55 6 -123 37q-72 31 -106 35q-36 4 -48 -26zM665 288l255 838h366l-425 -1103q-91 -237 -250 -334
q-157 -96 -417 -66l-17 247q142 -5 209.5 28t72.5 117l-416 1111h366z" />
    <glyph glyph-name="endash" unicode="&#x2013;" horiz-adv-x="1210" 
d="M121 421v285h969v-285h-969z" />
    <glyph glyph-name="emdash" unicode="&#x2014;" horiz-adv-x="1861" 
d="M121 421v285h1620v-285h-1620z" />
    <glyph glyph-name="quoteleft" unicode="&#x2018;" horiz-adv-x="621" 
d="M527 1492l-82 -495h-350l127 495h305z" />
    <glyph glyph-name="quoteright" unicode="&#x2019;" horiz-adv-x="621" 
d="M95 939l81 495h351l-128 -495h-304z" />
    <glyph glyph-name="quotesinglbase" unicode="&#x201a;" 
d="M6 -276l81 494h351l-127 -494h-305z" />
    <glyph glyph-name="quotedblleft" unicode="&#x201c;" horiz-adv-x="1040" 
d="M527 1492l-82 -495h-350l127 495h305zM946 1492l-81 -495h-351l127 495h305z" />
    <glyph glyph-name="quotedblright" unicode="&#x201d;" horiz-adv-x="1040" 
d="M95 939l81 495h351l-128 -495h-304zM514 939l81 495h351l-127 -495h-305z" />
    <glyph glyph-name="quotedblbase" unicode="&#x201e;" horiz-adv-x="945" 
d="M6 -276l81 494h351l-127 -494h-305zM425 -276l82 494h350l-127 -494h-305z" />
    <glyph glyph-name="dagger" unicode="&#x2020;" horiz-adv-x="905" 
d="M622 1382h162v-150h-162v-561h-337v561h-164v150h164v154h337v-154z" />
    <glyph glyph-name="daggerdbl" unicode="&#x2021;" horiz-adv-x="905" 
d="M784 1382v-150h-162v-258h162v-150h-162v-153h-337v153h-164v150h164v258h-164v150h164v154h337v-154h162z" />
    <glyph glyph-name="bullet" unicode="&#x2022;" horiz-adv-x="686" 
d="M344 282q-117 0 -200 83t-83 199t83 199q82 82 200 82q116 0 198 -82q83 -83 83 -199q0 -117 -82 -199q-83 -83 -199 -83z" />
    <glyph glyph-name="ellipsis" unicode="&#x2026;" horiz-adv-x="1462" 
d="M247 -17q-77 0 -131 54q-55 54 -55 131q0 76 55 130q54 54 131 54q76 0 130 -54t54 -130q0 -77 -54 -131t-130 -54zM732 -17q-77 0 -131 54t-54 131q0 76 54 130t131 54q74 0 130 -54q54 -54 54 -130q0 -77 -54 -131t-130 -54zM1217 -17q-77 0 -131 54q-55 54 -55 131
q0 76 55 130q54 54 131 54q76 0 130 -54t54 -130q0 -77 -54 -131t-130 -54z" />
    <glyph glyph-name="perthousand" unicode="&#x2030;" horiz-adv-x="3011" 
d="M509 634q-118 0 -214 47.5t-155 139.5q-60 93 -60 216q0 185 125 296q125 110 304 110q119 0 215 -48t155 -140q60 -95 60 -218t-60 -216q-60 -94 -156 -140q-99 -47 -214 -47zM694 61l510 1373l164 -62l-509 -1372zM385 905q49 -51 124 -51q74 0 125 51t51 132t-51 134
q-51 52 -125 52q-75 0 -124 -52q-51 -53 -51 -134t51 -132zM1552 -9q-179 0 -304 110t-125 295q0 184 125 294t304 110q180 0 305 -110t125 -294q0 -185 -125 -295t-305 -110zM2502 -9q-179 0 -304 110t-125 295q0 184 125 294t304 110q119 0 215 -47.5t155 -139.5
q60 -95 60 -218q0 -124 -60 -217q-60 -94 -156 -140q-99 -47 -214 -47zM1428 263q51 -52 125 -52q73 0 125 52q51 51 51 132t-51 134q-51 51 -126 51t-124 -52q-51 -52 -51 -133t51 -132zM2378 263q49 -52 124 -52q73 0 125 52q51 51 51 132t-51 134q-51 51 -125 51
q-75 0 -124 -52q-51 -53 -51 -133q0 -81 51 -132z" />
    <glyph glyph-name="guilsinglleft" unicode="&#x2039;" horiz-adv-x="920" 
d="M438 1013h361l-318 -450l318 -449h-361l-317 449z" />
    <glyph glyph-name="guilsinglright" unicode="&#x203a;" horiz-adv-x="920" 
d="M121 1013h360l318 -450l-318 -449h-360l317 449z" />
    <glyph glyph-name="fraction" unicode="&#x2044;" horiz-adv-x="719" 
d="M0 0l532 1434h188l-533 -1434h-187z" />
    <glyph glyph-name="uni2070" unicode="&#x2070;" horiz-adv-x="780" 
d="M390 811q-147 0 -238 100q-91 98 -91 268t91 268q92 99 238 99t238 -99q91 -98 91 -268t-91 -268q-91 -100 -238 -100zM390 980q69 0 109 54t40 145q0 92 -39 145t-110 53t-110 -53t-39 -145q0 -91 39.5 -145t109.5 -54z" />
    <glyph glyph-name="uni2074" unicode="&#x2074;" horiz-adv-x="766" 
d="M607 1121h99v-146h-99v-156h-183v156h-363l111 561h183l-90 -415h159v306h183v-306z" />
    <glyph glyph-name="uni2075" unicode="&#x2075;" horiz-adv-x="726" 
d="M615 1537v-146h-329l-10 -127q100 30 188 11q96 -15 148.5 -74t52.5 -144q0 -112 -85 -179q-86 -68 -217 -68q-134 0 -217 67q-85 66 -85 177h184q0 -52 33 -83t85 -31q51 0 84.5 31.5t33.5 85.5q0 52 -34.5 81.5t-94.5 29.5q-49 0 -83 -25h-180l23 394h503z" />
    <glyph glyph-name="uni2076" unicode="&#x2076;" horiz-adv-x="726" 
d="M303 1536h198l-151 -243q52 24 124 11q89 -15 140 -80q50 -65 50 -154q0 -115 -85 -187t-216 -72t-217 72q-85 72 -85 187q0 78 52 158zM279 978q33 -36 84 -36q49 0 84 36q33 34 33 92q0 57 -33 93q-35 35 -84 35q-51 0 -84 -35q-34 -35 -34 -93t34 -92z" />
    <glyph glyph-name="uni2077" unicode="&#x2077;" horiz-adv-x="664" 
d="M61 1536h541l-274 -717h-184l218 571h-301v146z" />
    <glyph glyph-name="uni2078" unicode="&#x2078;" horiz-adv-x="730" 
d="M539 1199q58 -14 94 -61t36 -111q0 -102 -81.5 -159t-222.5 -57q-139 0 -221 57q-83 56 -83 159q0 64 36 111t94 61q-48 12 -79 52.5t-31 94.5q0 95 75.5 147.5t208.5 52.5t208.5 -52.5t75.5 -147.5q0 -53 -31 -94t-79 -53zM445 1409q-32 23 -80 23q-49 0 -81 -23
q-31 -24 -31 -68q0 -41 31 -64.5t81 -23.5q49 0 80 23.5t31 64.5q0 44 -31 68zM276 959q34 -25 89 -25t89 25q34 24 34 72t-34 75t-89 27q-56 0 -90 -27t-34 -75q0 -46 35 -72z" />
    <glyph glyph-name="uni2079" unicode="&#x2079;" horiz-adv-x="726" 
d="M423 818h-198l151 243q-50 -24 -124 -10q-89 15 -139 80q-51 65 -51 153q0 115 85 187t217 72q130 0 216 -72q85 -72 85 -187q0 -78 -52 -158zM448 1377q-35 35 -84 35q-51 0 -84 -35q-34 -35 -34 -93t34 -92q33 -36 84 -36q50 0 84 36q33 34 33 92q0 57 -33 93z" />
    <glyph glyph-name="Euro" unicode="&#x20ac;" horiz-adv-x="1545" 
d="M850 311q98 0 169 52t105 148l341 -81q-65 -212 -228 -329q-163 -118 -387 -118q-256 0 -429 153q-172 151 -216 418h-109l-16 120h114q-1 12 -1 42.5t1 43.5h-98l-16 120h125q44 266 216 419q173 152 429 152q224 0 387 -118q164 -119 228 -329l-341 -81
q-36 96 -106 147.5t-168 51.5q-110 0 -183.5 -63t-103.5 -179h364v-120h-382q-1 -11 -1 -43t1 -43h382v-120h-364q30 -117 103.5 -180t183.5 -63z" />
    <glyph glyph-name="uni2116" unicode="&#x2116;" horiz-adv-x="2448" 
d="M1911 617q-174 0 -297 124q-124 123 -124 297q0 170 124 293t297 123q169 0 294 -123q123 -123 123 -293q0 -173 -122 -297q-123 -124 -295 -124zM982 754v680h358v-1451l-861 697v-680h-358v1451zM1909 878q64 0 111 47q46 47 45 111q0 66 -46 112t-110 46
q-66 0 -112 -46q-47 -47 -47 -112t47 -112q46 -46 112 -46zM1490 296v217h837v-217h-837z" />
    <glyph glyph-name="trademark" unicode="&#x2122;" horiz-adv-x="1687" 
d="M1161 1117l405 334v-725h-184v359l-221 -203l-221 203v-359h-183v725zM121 1441h537v-158h-176v-557h-183v557h-178v158z" />
    <glyph glyph-name="oneeighth" unicode="&#x215b;" horiz-adv-x="1477" 
d="M61 1397l183 37h153v-717h-183v570l-140 -33zM279 0l532 1434h186l-532 -1434h-186zM1286 379q57 -14 93.5 -62t36.5 -110q0 -104 -82 -159q-82 -57 -222 -57q-141 0 -222 56.5t-81 159.5q0 64 36 111t94 61q-48 12 -79.5 52.5t-31.5 93.5q0 95 76 148t208 53
q133 0 208.5 -52.5t75.5 -148.5q0 -53 -31 -93.5t-79 -52.5zM1193 588q-32 23 -81 23q-48 0 -80 -23t-32 -67q0 -41 31.5 -64.5t80.5 -23.5t80.5 23.5t31.5 64.5q0 45 -31 67zM1023 139q34 -25 89 -25t89 25q35 26 35 72q0 48 -34.5 74.5t-89.5 26.5t-89.5 -26.5
t-34.5 -74.5q0 -46 35 -72z" />
    <glyph glyph-name="threeeighths" unicode="&#x215c;" horiz-adv-x="1630" 
d="M621 920q0 -100 -79 -155q-80 -57 -201 -57q-125 0 -202 56q-78 56 -78 159l184 11q1 -40 26 -62t70 -22q44 0 70 24.5t26 63.5q0 49 -46 76t-125 20l-61 103l189 151h-322v147h519v-147l-180 -158q97 -21 153.5 -75.5t56.5 -134.5zM430 0l533 1434h187l-533 -1434h-187z
M1439 379q57 -14 93.5 -62t36.5 -110q0 -102 -81.5 -159t-222.5 -57t-222 56.5t-81 159.5q0 65 36 111.5t94 60.5q-48 12 -79.5 52.5t-31.5 93.5q0 95 76 148t208 53t207.5 -52.5t75.5 -148.5q0 -53 -30.5 -93.5t-78.5 -52.5zM1345 588q-32 23 -80 23q-49 0 -81 -23
q-31 -22 -31 -67q0 -41 31.5 -64.5t80.5 -23.5t80 23.5t31 64.5q0 45 -31 67zM1176 139q34 -25 89 -25t89 25q35 26 35 72q0 48 -34.5 74.5t-89.5 26.5q-56 0 -90 -26.5t-34 -74.5q0 -46 35 -72z" />
    <glyph glyph-name="fiveeighths" unicode="&#x215d;" horiz-adv-x="1600" 
d="M615 1435v-147h-329l-10 -127q100 30 188 11q96 -15 148.5 -74t52.5 -144q0 -111 -85 -178q-86 -68 -217 -68q-134 0 -217 67q-85 66 -85 176h184q0 -52 33 -82.5t85 -30.5q51 0 84.5 31.5t33.5 84.5q0 52 -34.5 82t-94.5 30q-48 0 -83 -26h-180l23 395h503zM443 0
l533 1434h187l-532 -1434h-188zM1409 379q58 -14 94 -61.5t36 -110.5q0 -102 -81.5 -159t-221.5 -57q-142 0 -223 56.5t-81 159.5q0 64 36 111t94 61q-48 12 -79 52.5t-31 93.5q0 95 76 148t208 53q133 0 208.5 -52.5t75.5 -148.5q0 -53 -31.5 -93.5t-79.5 -52.5zM1317 588
q-32 23 -81 23q-48 0 -80 -23t-32 -67q0 -41 31 -64.5t81 -23.5q49 0 80.5 24t31.5 64q0 45 -31 67zM1147 139q34 -25 89 -25t89 25q35 26 35 72q0 48 -34.5 74.5t-89.5 26.5t-89.5 -26.5t-34.5 -74.5t35 -72z" />
    <glyph glyph-name="seveneighths" unicode="&#x215e;" horiz-adv-x="1537" 
d="M602 1434l-274 -717h-184l218 570h-301v147h541zM319 0l533 1434h187l-532 -1434h-188zM1347 379q57 -14 93 -61.5t36 -110.5q0 -102 -81.5 -159t-222.5 -57q-142 0 -222.5 56.5t-80.5 159.5q0 64 36 111t94 61q-48 12 -79 52.5t-31 93.5q0 95 75.5 148t208.5 53
q132 0 207.5 -52.5t75.5 -148.5q0 -53 -30.5 -93.5t-78.5 -52.5zM1253 588q-32 23 -80 23q-49 0 -81 -23q-31 -22 -31 -67q0 -41 31 -64.5t81 -23.5q49 0 80 23.5t31 64.5q0 45 -31 67zM1084 139q34 -25 89 -25t89 25t34 72q0 48 -34 74.5t-89 26.5q-56 0 -90 -26.5
t-34 -74.5q0 -46 35 -72z" />
    <glyph glyph-name="arrowleft" unicode="&#x2190;" horiz-adv-x="1598" 
d="M746 90l-625 626l625 625l201 -200l-283 -283h814v-285l-814 1l283 -283z" />
    <glyph glyph-name="arrowup" unicode="&#x2191;" horiz-adv-x="1492" 
d="M746 1395l625 -625l-200 -201l-283 283v-813h-284v813l-282 -283l-201 201z" />
    <glyph glyph-name="arrowright" unicode="&#x2192;" horiz-adv-x="1598" 
d="M852 1341l626 -625l-626 -626l-201 201l284 283l-814 -1v285h813l-283 283z" />
    <glyph glyph-name="arrowdown" unicode="&#x2193;" horiz-adv-x="1492" 
d="M1171 864l200 -200l-625 -625l-625 625l201 200l282 -282v813h284v-813z" />
    <glyph glyph-name="uni2196" unicode="&#x2196;" horiz-adv-x="1301" 
d="M404 362h-283v885h885v-283h-400l575 -575l-202 -202l-575 576v-401z" />
    <glyph glyph-name="uni2197" unicode="&#x2197;" horiz-adv-x="1301" 
d="M1181 1247v-885h-284v401l-574 -576l-202 202l574 575h-399v283h885z" />
    <glyph glyph-name="uni2198" unicode="&#x2198;" horiz-adv-x="1301" 
d="M897 1072h284v-885h-885v284h399l-574 575l202 201l574 -575v400z" />
    <glyph glyph-name="uni2199" unicode="&#x2199;" horiz-adv-x="1301" 
d="M121 187v885h283v-400l575 575l202 -201l-575 -575h400v-284h-885z" />
    <glyph glyph-name="minus" unicode="&#x2212;" horiz-adv-x="1135" 
d="M121 859h894v-285h-894v285z" />
    <glyph glyph-name="lozenge" unicode="&#x25ca;" horiz-adv-x="1122" 
d="M367 1388h391l243 -671l-243 -671h-391l-246 671zM428 717l133 -365l133 365l-133 364z" />
    <glyph glyph-name="i.locl" 
d="M370 1288q-44 -45 -106 -45q-64 0 -107 45q-45 44 -45 107q0 61 45 106q44 44 107 44q62 0 106 -44q44 -46 44 -106q0 -61 -44 -107zM95 0v1126h336v-1126h-336z" />
    <glyph glyph-name="f_f_j.dlig" horiz-adv-x="2404" 
d="M2142 1257q-82 0 -139 58q-57 57 -57 139q0 81 58 139q57 57 138 57q80 0 138 -57q57 -59 57 -139t-57 -139q-58 -58 -138 -58zM1492 1126h817v-1150q0 -214 -88 -312q-89 -99 -296 -99q-89 0 -217 17v254q95 -19 169 -2q96 20 96 141v890h-481v-865h-336v865h-581v-865
h-335v865h-145v261h145v46q0 201 89 296q88 94 295 94q104 0 217 -18v-238q-116 23 -179 1q-85 -16 -87 -133v-48h581v46q0 201 89 296q88 94 295 94q106 0 217 -18v-238q-115 23 -179 1q-86 -17 -86 -133v-48z" />
    <glyph glyph-name="f_f_t.dlig" horiz-adv-x="2791" 
d="M2696 1126v-261h-265v-450q0 -119 90 -139q69 -22 175 -1v-275q-114 -17 -217 -17q-207 0 -295 103q-89 103 -89 317v462h-603v-865h-336v865h-581v-865h-335v865h-145v261h145v46q0 201 89 296q88 94 295 94q104 0 217 -18v-238q-116 23 -179 1q-85 -16 -87 -133v-48
h581v46q0 201 89 296q88 94 295 94q106 0 217 -18v-238q-115 23 -179 1q-86 -17 -86 -133v-48h603v252h336v-252h265z" />
    <glyph glyph-name="f_j.dlig" horiz-adv-x="1487" 
d="M1363 1315q-57 -58 -138 -58t-139 58t-58 139t58 139q58 57 139 57t138 -57q57 -59 57 -139t-57 -139zM575 1126h818v-1150q0 -212 -89 -312q-88 -99 -295 -99q-89 0 -217 17v254q95 -19 169 -2q96 20 96 141v890h-482v-865h-335v865h-145v261h145v46q0 201 89 296
q88 94 295 94q104 0 217 -18v-238q-116 23 -179 1q-85 -16 -87 -133v-48z" />
    <glyph glyph-name="f_t.dlig" horiz-adv-x="1852" 
d="M1757 1126v-261h-265v-450q0 -119 90 -139q69 -22 175 -1v-275q-114 -17 -217 -17q-206 0 -295 102q-89 103 -89 318v462h-581v-865h-335v865h-145v261h145v46q0 201 89 296q88 94 295 94q104 0 217 -18v-238q-116 23 -179 1q-85 -16 -87 -133v-48h581v252h336v-252h265z
" />
    <glyph glyph-name="zero.sinf" horiz-adv-x="780" 
d="M390 -214q-146 0 -238 99q-91 100 -91 269q0 170 91 268q92 99 238 99t238 -99q91 -98 91 -268q0 -169 -91 -269q-92 -99 -238 -99zM390 -45q69 0 109 54t40 145t-39 145q-39 53 -110 53t-110 -53q-39 -54 -39 -145t39.5 -145t109.5 -54z" />
    <glyph glyph-name="one.sinf" horiz-adv-x="458" 
d="M61 475l183 37h153v-717h-183v571l-140 -33z" />
    <glyph glyph-name="two.sinf" horiz-adv-x="671" 
d="M609 326q0 -112 -99 -210q-59 -57 -88 -80q-38 -30 -110 -82q-14 -10 -16 -12h313v-147h-537v147h-1q182 139 232 185q123 113 123 181q0 33 -23 52t-65 19q-73 0 -88 -74l-183 13q8 97 80.5 150t190.5 53q126 0 198.5 -49.5t72.5 -145.5z" />
    <glyph glyph-name="three.sinf" horiz-adv-x="681" 
d="M591 367l-180 -158q97 -21 153.5 -76t56.5 -135q0 -99 -79 -156q-80 -56 -201 -56q-125 0 -202 56q-78 56 -78 159l184 11q1 -40 26 -62t70 -22q44 0 70 24.5t26 63.5q0 49 -46 76.5t-125 20.5l-61 102l189 152h-322v146h519v-146z" />
    <glyph glyph-name="four.sinf" horiz-adv-x="766" 
d="M607 97h99v-146h-99v-156h-183v156h-363l111 561h183l-90 -415h159v306h183v-306z" />
    <glyph glyph-name="five.sinf" horiz-adv-x="726" 
d="M615 513v-146h-329l-10 -127q100 30 188 11q96 -15 148.5 -74t52.5 -144q0 -112 -85 -179q-86 -68 -217 -68q-133 0 -217 66q-85 67 -85 178h184q0 -52 33 -83t85 -31q51 0 84.5 31.5t33.5 85.5q0 52 -34.5 81.5t-94.5 29.5q-49 0 -83 -25h-180l23 394h503z" />
    <glyph glyph-name="six.sinf" horiz-adv-x="726" 
d="M303 512h198l-151 -243q52 24 124 11q89 -15 140 -80q50 -65 50 -154q0 -115 -85 -187t-216 -72t-217 72q-85 72 -85 187q0 78 52 158zM279 -47q33 -35 84 -35q49 0 84 35q33 36 33 93t-33 93q-35 35 -84 35q-51 0 -84 -35q-34 -35 -34 -93t34 -93z" />
    <glyph glyph-name="seven.sinf" horiz-adv-x="664" 
d="M61 512h541l-274 -717h-184l218 571h-301v146z" />
    <glyph glyph-name="eight.sinf" horiz-adv-x="730" 
d="M539 174q58 -14 94 -61t36 -111q0 -103 -81 -159.5t-223 -56.5q-141 0 -222.5 56.5t-81.5 159.5q0 64 36 111t94 61q-48 12 -79 52.5t-31 94.5q0 95 75.5 147.5t208.5 52.5t208.5 -52.5t75.5 -147.5q0 -53 -31 -94t-79 -53zM445 384q-32 23 -80 23q-49 0 -81 -23
q-31 -24 -31 -68q0 -41 31 -64.5t81 -23.5q49 0 80 23.5t31 64.5q0 44 -31 68zM276 -66q34 -25 89 -25t89 24q34 25 34 73t-34 75t-89 27q-56 0 -90 -27t-34 -75q0 -46 35 -72z" />
    <glyph glyph-name="nine.sinf" horiz-adv-x="726" 
d="M423 -213h-198l150 243q-52 -24 -123 -11q-89 15 -140 80t-51 155q0 114 86 186q85 72 217 72q130 0 216 -72q85 -72 85 -186q0 -77 -52 -159zM447 347q-33 35 -83 35t-85 -35q-34 -35 -34 -93t34 -92q35 -36 85 -36t83 36q33 34 33 92q0 57 -33 93z" />
    <glyph glyph-name="zero.dnom" horiz-adv-x="780" 
d="M390 -9q-146 0 -238 99q-91 98 -91 268q0 169 91 269q92 99 238 99t238 -99q91 -100 91 -269q0 -170 -91 -268q-92 -99 -238 -99zM390 160q69 0 109 53.5t40 144.5q0 92 -39.5 145.5t-109.5 53.5q-71 0 -110 -53t-39 -146q0 -91 39.5 -144.5t109.5 -53.5z" />
    <glyph glyph-name="one.dnom" horiz-adv-x="458" 
d="M61 680l183 37h153v-717h-183v570l-140 -32z" />
    <glyph glyph-name="two.dnom" horiz-adv-x="671" 
d="M609 530q0 -111 -99 -209q-59 -57 -88 -80q-38 -30 -110 -82q-10 -7 -16 -13h313v-146h-537v146h-1q175 134 232 186q123 112 123 181q0 33 -23 52t-65 19q-73 0 -88 -74l-183 13q8 97 80.5 150t190.5 53q126 0 198.5 -50t72.5 -146z" />
    <glyph glyph-name="three.dnom" horiz-adv-x="681" 
d="M591 571l-180 -157q97 -21 153.5 -76t56.5 -135q0 -100 -79 -155q-80 -57 -201 -57q-125 0 -202 56q-78 55 -78 159l184 11q1 -40 26 -62t70 -22q44 0 70 24.5t26 63.5q0 49 -46.5 76.5t-124.5 19.5l-61 103l189 151h-322v147h519v-147z" />
    <glyph glyph-name="four.dnom" horiz-adv-x="766" 
d="M607 302h99v-146h-99v-156h-183v156h-363l111 561h183l-90 -415h159v306h183v-306z" />
    <glyph glyph-name="five.dnom" horiz-adv-x="726" 
d="M615 718v-147h-329l-10 -127q99 30 188 12q96 -15 148.5 -74t52.5 -144q0 -112 -85 -179q-86 -68 -217 -68q-134 0 -217 67q-85 66 -85 176h184q0 -52 33 -82.5t85 -30.5q51 0 84.5 31.5t33.5 85.5q0 52 -34.5 81.5t-94.5 29.5q-49 0 -83 -25h-180l23 394h503z" />
    <glyph glyph-name="six.dnom" horiz-adv-x="726" 
d="M303 717h198l-151 -243q50 24 124 10q90 -15 140 -79q50 -65 50 -154q0 -115 -85 -187t-216 -72t-217 72q-85 72 -85 187q0 78 52 158zM279 159q33 -36 84 -36q49 0 84 36q33 35 33 92t-33 93q-35 35 -84 35q-51 0 -84 -35q-34 -35 -34 -93t34 -92z" />
    <glyph glyph-name="seven.dnom" horiz-adv-x="664" 
d="M61 717h541l-274 -717h-184l218 570h-301v147z" />
    <glyph glyph-name="eight.dnom" horiz-adv-x="730" 
d="M539 379q58 -14 94 -61.5t36 -110.5q0 -102 -81.5 -159t-222.5 -57t-222.5 56.5t-81.5 159.5q0 64 36 111t94 61q-48 12 -79 52.5t-31 93.5q0 95 75.5 148t208.5 53t208.5 -52.5t75.5 -148.5q0 -53 -31 -93.5t-79 -52.5zM445 588q-32 23 -80 23q-49 0 -81 -23
q-31 -22 -31 -67q0 -41 31 -64.5t81 -23.5q49 0 80 23.5t31 64.5q0 45 -31 67zM276 139q34 -25 89 -25t89 25q34 24 34 72t-34 74.5t-89 26.5q-56 0 -90 -26.5t-34 -74.5q0 -46 35 -72z" />
    <glyph glyph-name="nine.dnom" horiz-adv-x="726" 
d="M423 -8h-198l151 242q-50 -24 -124 -10q-89 15 -139 80q-51 65 -51 154q0 115 85 187t217 72q130 0 216 -72q85 -73 85 -187q0 -78 -52 -158zM448 551q-35 35 -84 35q-51 0 -84 -35q-34 -35 -34 -93q0 -59 34 -93q33 -35 84 -35q49 0 84 35q33 35 33 93q0 57 -33 93z" />
    <glyph glyph-name="zero.numr" horiz-adv-x="780" 
d="M390 709q-146 0 -238 99q-91 98 -91 268q0 169 91 269q92 99 238 99t238 -99q91 -100 91 -269q0 -170 -91 -268q-92 -99 -238 -99zM390 878q69 0 109 53.5t40 144.5q0 92 -39.5 145.5t-109.5 53.5t-109.5 -53.5t-39.5 -145.5q0 -91 39.5 -144.5t109.5 -53.5z" />
    <glyph glyph-name="one.numr" horiz-adv-x="458" 
d="M61 1397l183 37h153v-717h-183v570l-140 -33z" />
    <glyph glyph-name="two.numr" horiz-adv-x="671" 
d="M609 1238q0 -113 -99 -209q-59 -57 -88 -80q-56 -44 -110 -83q-14 -10 -16 -12h313v-146h-537v146h-1q182 139 232 185q123 113 123 182q0 33 -23 51.5t-65 18.5q-73 0 -88 -73l-183 13q8 97 80.5 150t190.5 53q126 0 198.5 -50t72.5 -146z" />
    <glyph glyph-name="three.numr" horiz-adv-x="681" 
d="M591 1288l-180 -158q97 -21 153.5 -75.5t56.5 -134.5q0 -100 -79 -155q-80 -57 -201 -57q-125 0 -202 56q-78 56 -78 159l184 11q1 -40 26 -62t70 -22q44 0 70 24.5t26 63.5q0 49 -46 76t-125 20l-61 103l189 151h-322v147h519v-147z" />
    <glyph glyph-name="four.numr" horiz-adv-x="766" 
d="M607 1019h99v-147h-99v-155h-183v155h-363l111 562h183l-90 -415h159v306h183v-306z" />
    <glyph glyph-name="five.numr" horiz-adv-x="726" 
d="M615 1435v-147h-329l-10 -127q100 30 188 11q96 -15 148.5 -74t52.5 -144q0 -111 -85 -178q-86 -68 -217 -68q-134 0 -217 67q-85 66 -85 176h184q0 -52 33 -82.5t85 -30.5q51 0 84.5 31.5t33.5 84.5q0 52 -34.5 82t-94.5 30q-48 0 -83 -26h-180l23 395h503z" />
    <glyph glyph-name="six.numr" horiz-adv-x="726" 
d="M303 1434h198l-151 -243q50 24 124 10q90 -15 140 -79q50 -65 50 -154q0 -115 -85 -187t-216 -72t-217 72q-85 72 -85 187q0 78 52 157zM279 875q33 -35 84 -35q49 0 84 35q33 35 33 93q0 57 -33 93q-35 35 -84 35q-51 0 -84 -35q-34 -35 -34 -93q0 -59 34 -93z" />
    <glyph glyph-name="seven.numr" horiz-adv-x="664" 
d="M61 1434h541l-274 -717h-184l218 570h-301v147z" />
    <glyph glyph-name="eight.numr" horiz-adv-x="730" 
d="M539 1097q58 -14 94 -61.5t36 -110.5q0 -102 -81.5 -159t-222.5 -57t-222.5 56.5t-81.5 159.5q0 64 36 110.5t94 61.5q-48 12 -79 52.5t-31 93.5q0 95 75.5 148t208.5 53t208.5 -53t75.5 -148q0 -53 -31 -93.5t-79 -52.5zM445 1306q-32 23 -80 23q-49 0 -81 -23
q-31 -22 -31 -67q0 -41 31 -64.5t81 -23.5q49 0 80 23.5t31 64.5q0 45 -31 67zM276 857q35 -26 89 -26q55 0 89 25t34 73t-34 74.5t-89 26.5q-56 0 -90 -26.5t-34 -74.5q0 -46 35 -72z" />
    <glyph glyph-name="nine.numr" horiz-adv-x="726" 
d="M423 716h-198l151 242q-50 -24 -124 -10q-89 15 -139 80q-51 64 -51 154q0 115 85 187t217 72q130 0 216 -72q85 -73 85 -187q0 -78 -52 -158zM448 1275q-35 35 -84 35q-51 0 -84 -35q-34 -35 -34 -93q0 -59 34 -93q33 -35 84 -35q49 0 84 35q33 35 33 93q0 57 -33 93z
" />
    </font>
</defs>
</svg>
