<svg width="1440" height="933" fill="none" xmlns="http://www.w3.org/2000/svg"><path opacity=".8" d="M-226.391 698.018c-11.74-194.588 22.903-350.34 157.958-182.924m0 0c23.621 29.281 50.314 68.447 80.367 119.02 167.156 281.29 227.433 227.462 240.634 83.718m-321-202.738c-4.38 40.764-4.52 89.499-1.415 140.949m1.414-140.949c12.185-113.41 57.198-165.126 156.544-41.975m164.457 244.713c3.995-43.506 3.678-95.249.707-148.43m-.707 148.43c-24.448-30.928-52.341-72.266-84.09-125.693-30.053-50.573-56.746-89.74-80.367-119.02m164.457 244.713c104.265 131.905 145.85 74.466 156.544-41.975m-321-202.738c-4.38 40.764-4.52 89.499-1.415 140.949m1.414-140.949c12.185-113.41 57.198-165.126 156.544-41.976m164.457 244.714c3.995-43.506 3.678-95.249.707-148.431m-.707 148.431c-24.448-30.928-52.341-72.266-84.091-125.693-30.053-50.573-56.745-89.74-80.366-119.021m164.457 244.714c104.265 131.904 145.85 74.466 156.543-41.975m-321-202.739c-4.38 40.765-4.519 89.499-1.414 140.949m1.414-140.949c12.185-113.409 57.198-165.125 156.544-41.975m164.456 244.714c3.996-43.507 3.679-95.25.708-148.431m-.708 148.431c-24.447-30.929-52.34-72.266-84.09-125.694-30.053-50.573-56.745-89.739-80.366-119.02m164.456 244.714c104.266 131.904 145.85 74.465 156.544-41.976m-321-202.738c-4.38 40.764-4.519 89.499-1.415 140.949m1.415-140.949c12.185-113.41 57.198-165.126 156.543-41.975m164.457 244.713c3.996-43.506 3.679-95.249.708-148.43m-.708 148.43c-24.447-30.928-52.341-72.265-84.09-125.693-30.053-50.573-56.746-89.739-80.367-119.02m164.457 244.713c104.266 131.905 145.85 74.466 156.544-41.975M557.742 347.193c-4.379 40.764-4.518 89.499-1.414 140.949m1.414-140.949c12.186-113.41 57.198-165.126 156.544-41.976m164.457 244.714c3.996-43.506 3.679-95.249.708-148.431m-.708 148.431c-24.447-30.928-52.341-72.266-84.09-125.693-30.053-50.573-56.746-89.74-80.367-119.021m164.457 244.714c104.265 131.904 145.847 74.466 156.547-41.975M714.286 305.217c-4.38 40.765-4.518 89.499-1.414 140.949m1.414-140.949c12.185-113.409 57.198-165.125 156.544-41.975m164.46 244.714c3.99-43.507 3.68-95.25.7-148.431m-.7 148.431c-24.45-30.928-52.344-72.266-84.093-125.694-30.053-50.573-56.746-89.739-80.367-119.02m164.46 244.714c104.26 131.904 145.85 74.465 156.54-41.976m-321-202.738c-4.38 40.764-4.518 89.499-1.414 140.949m1.414-140.949c12.185-113.409 57.198-165.126 156.54-41.975m164.46 244.713c4-43.506 3.68-95.249.71-148.43m-.71 148.43c-24.45-30.928-52.34-72.265-84.09-125.693-30.05-50.573-56.75-89.739-80.37-119.02m164.46 244.713c104.27 131.905 145.85 74.466 156.54-41.975m-321-202.738c-4.38 40.764-4.51 89.499-1.41 140.949m1.41-140.949c12.19-113.41 57.2-165.126 156.55-41.976m164.45 244.714c4-43.506 3.68-95.249.71-148.431m-.71 148.431c-24.44-30.928-52.34-72.266-84.09-125.693-30.05-50.573-56.74-89.74-80.36-119.021m164.45 244.714c104.27 131.904 145.85 74.466 156.55-41.975m-321-202.739c-4.38 40.765-4.52 89.5-1.42 140.949m1.42-140.949c15.08-140.374 80.46-186.23 236.91 77.045 31.75 53.428 59.64 94.766 84.09 125.694m0 0c3.99-43.507 3.68-95.25.71-148.431m-.71 148.431c143.22 181.188 168.17 5.111 157.25-190.406" stroke="#000"/><g filter="url(#filter0_f_1317_1062)"><ellipse cx="167.695" cy="440.232" rx="27.988" ry="28.02" fill="url(#paint0_radial_1317_1062)"/></g><g filter="url(#filter1_f_1317_1062)"><ellipse cx="350.613" cy="729.435" rx="12.994" ry="13.009" fill="url(#paint1_radial_1317_1062)"/></g><g filter="url(#filter2_f_1317_1062)"><ellipse cx="787.416" cy="257.103" rx="12.994" ry="13.009" fill="url(#paint2_radial_1317_1062)"/></g><g filter="url(#filter3_f_1317_1062)"><ellipse cx="1118.27" cy="535.298" rx="7.997" ry="8.006" fill="url(#paint3_radial_1317_1062)"/></g><g filter="url(#filter4_f_1317_1062)"><ellipse cx="1258.2" cy="168.04" rx="12.994" ry="13.009" fill="url(#paint4_radial_1317_1062)"/></g><g opacity=".9"><g opacity=".7" filter="url(#filter5_f_1317_1062)"><ellipse rx="12.466" ry="12.479" transform="rotate(15 -2381.176 4597.098) skewX(.033)" fill="url(#paint5_radial_1317_1062)"/></g><g opacity=".7" filter="url(#filter6_f_1317_1062)"><ellipse rx="24.975" ry="25.002" transform="rotate(15 -1594.89 5026.657) skewX(.033)" fill="url(#paint6_radial_1317_1062)"/></g><path d="M1313.68 517.733c26.7 34.53 40.46 66.815-4.11 50.292m0 0c-7.79-2.89-17.37-7.272-28.97-13.397-64.55-34.068-68.14-17.813-52.2 10.003m81.17 3.394c-4.41-7.955-10.56-16.928-17.62-26.058m17.62 26.058c12.27 22.133 11.05 36.389-21.73 24.235m-59.44-27.629c4.82 8.418 11.43 17.896 18.69 27.358m-18.69-27.358c8.14 3.105 18.2 7.76 30.46 14.231 11.61 6.125 21.18 10.508 28.98 13.398m-59.44-27.629c-34.75-13.245-34.65 1.702-21.74 24.234m81.18 3.395c-4.41-7.956-10.57-16.929-17.62-26.059m17.62 26.059c12.27 22.132 11.05 36.388-21.73 24.234m-59.45-27.629c4.83 8.419 11.44 17.897 18.7 27.359m-18.7-27.359c8.15 3.105 18.21 7.761 30.47 14.231 11.6 6.125 21.18 10.508 28.98 13.398m-59.45-27.629c-34.74-13.244-34.64 1.702-21.73 24.234m81.18 3.395c-4.42-7.955-10.57-16.928-17.63-26.058m17.63 26.058c12.27 22.133 11.04 36.389-21.74 24.234m-59.44-27.629c4.82 8.419 11.44 17.897 18.69 27.359m-18.69-27.359c8.14 3.106 18.21 7.761 30.47 14.232 11.6 6.125 21.18 10.508 28.97 13.397m-59.44-27.629c-34.74-13.244-34.65 1.702-21.73 24.235m81.17 3.394c-4.41-7.955-10.56-16.928-17.62-26.058m17.62 26.058c12.27 22.133 11.05 36.389-21.73 24.235m-59.44-27.629c4.82 8.419 11.43 17.896 18.69 27.359m-18.69-27.359c8.14 3.105 18.2 7.76 30.46 14.231 11.61 6.125 21.18 10.508 28.98 13.398m-59.44-27.629c-34.75-13.245-34.65 1.702-21.74 24.234m81.18 3.395c-4.41-7.956-10.57-16.928-17.62-26.058m17.62 26.058c12.27 22.132 11.05 36.388-21.73 24.234m-59.45-27.629c4.83 8.419 11.44 17.897 18.7 27.359m-18.7-27.359c8.15 3.106 18.21 7.761 30.47 14.231 11.6 6.126 21.18 10.508 28.98 13.398m-59.45-27.629c-34.74-13.244-34.64 1.702-21.73 24.234m81.18 3.395c-4.42-7.955-10.57-16.928-17.63-26.058m17.63 26.058c12.27 22.133 11.04 36.389-21.74 24.235m-59.44-27.63c4.82 8.419 11.44 17.897 18.69 27.359m-18.69-27.359c8.14 3.106 18.21 7.761 30.47 14.232 11.6 6.125 21.18 10.508 28.97 13.398m-59.44-27.63c-34.74-13.244-34.65 1.703-21.73 24.235m81.17 3.395c-4.41-7.956-10.56-16.929-17.62-26.059m17.62 26.059c12.27 22.132 11.05 36.388-21.73 24.234M1098 710.037c4.82 8.419 11.43 17.897 18.69 27.359M1098 710.037c8.14 3.105 18.2 7.761 30.46 14.231 11.61 6.125 21.18 10.508 28.98 13.398M1098 710.037c-34.75-13.244-34.65 1.702-21.74 24.234m81.18 3.395c-4.41-7.955-10.57-16.928-17.62-26.058m17.62 26.058c12.27 22.133 11.05 36.389-21.73 24.234m-59.45-27.629c4.83 8.419 11.44 17.897 18.7 27.359m-18.7-27.359c8.15 3.106 18.21 7.761 30.47 14.232 11.6 6.125 21.18 10.508 28.98 13.397m-59.45-27.629c-34.74-13.244-34.64 1.702-21.73 24.235m81.18 3.394c-4.42-7.955-10.57-16.928-17.63-26.058m17.63 26.058c15.18 27.395 9.7 42.723-50.72 10.837-12.25-6.471-22.32-11.126-30.46-14.231m0 0c4.82 8.419 11.44 17.896 18.69 27.359m-18.69-27.359c-47.72-18.193-29.71 16.806-3.04 51.593" stroke="url(#paint7_linear_1317_1062)"/><path d="M1303.93 528.607c26.7 34.53 40.45 66.816-4.11 50.293m0 0c-7.79-2.89-17.37-7.273-28.98-13.398-64.54-34.067-68.14-17.812-52.2 10.003m81.18 3.395c-4.41-7.955-10.57-16.928-17.62-26.058m17.62 26.058c12.27 22.132 11.05 36.388-21.73 24.234m-59.45-27.629c4.83 8.419 11.44 17.897 18.7 27.359m-18.7-27.359c8.15 3.106 18.21 7.761 30.47 14.232 11.6 6.125 21.18 10.507 28.98 13.397m-59.45-27.629c-34.74-13.244-34.64 1.702-21.73 24.235m81.18 3.394c-4.41-7.955-10.57-16.928-17.63-26.058m17.63 26.058c12.27 22.133 11.04 36.389-21.74 24.235m-59.44-27.629c4.82 8.418 11.44 17.896 18.69 27.358m-18.69-27.358c8.14 3.105 18.21 7.76 30.47 14.231 11.6 6.125 21.18 10.508 28.97 13.398m-59.44-27.629c-34.74-13.245-34.65 1.702-21.73 24.234m81.17 3.395c-4.41-7.956-10.56-16.929-17.62-26.059m17.62 26.059c12.27 22.132 11.05 36.388-21.73 24.234m-59.44-27.629c4.82 8.419 11.43 17.897 18.69 27.359m-18.69-27.359c8.14 3.105 18.2 7.761 30.46 14.231 11.61 6.125 21.19 10.508 28.98 13.398m-59.44-27.629c-34.74-13.244-34.65 1.702-21.74 24.234m81.18 3.395c-4.41-7.955-10.57-16.928-17.62-26.058m17.62 26.058c12.27 22.133 11.05 36.389-21.73 24.234m-59.45-27.629c4.83 8.419 11.44 17.897 18.7 27.359m-18.7-27.359c8.15 3.106 18.21 7.761 30.47 14.232 11.6 6.125 21.18 10.508 28.98 13.397m-59.45-27.629c-34.74-13.244-34.64 1.702-21.73 24.235m81.18 3.394c-4.41-7.955-10.57-16.928-17.63-26.058m17.63 26.058c12.27 22.133 11.04 36.389-21.74 24.235m-59.44-27.629c4.82 8.419 11.44 17.896 18.69 27.359m-18.69-27.359c8.14 3.105 18.21 7.76 30.47 14.231 11.6 6.125 21.18 10.508 28.97 13.398m-59.44-27.629c-34.74-13.245-34.65 1.702-21.73 24.234m81.17 3.395c-4.41-7.955-10.56-16.928-17.62-26.058m17.62 26.058c12.27 22.132 11.05 36.388-21.73 24.234m-59.44-27.629c4.82 8.419 11.43 17.897 18.69 27.359m-18.69-27.359c8.14 3.106 18.2 7.761 30.46 14.232 11.61 6.125 21.19 10.507 28.98 13.397m-59.44-27.629c-34.74-13.244-34.65 1.702-21.74 24.235m81.18 3.394c-4.41-7.955-10.57-16.928-17.62-26.058m17.62 26.058c12.27 22.133 11.05 36.389-21.73 24.235m-59.45-27.629c4.83 8.418 11.44 17.896 18.7 27.358m-18.7-27.358c8.15 3.105 18.21 7.76 30.47 14.231 11.6 6.125 21.18 10.508 28.98 13.398m-59.45-27.629c-34.74-13.245-34.64 1.702-21.73 24.234m81.18 3.395c-4.41-7.956-10.57-16.929-17.63-26.059m17.63 26.059c12.27 22.132 11.04 36.388-21.74 24.234m-59.44-27.629c4.82 8.419 11.44 17.897 18.69 27.359m-18.69-27.359c8.14 3.105 18.21 7.761 30.47 14.231 11.6 6.125 21.18 10.508 28.97 13.398m-59.44-27.629c-34.74-13.244-34.65 1.702-21.73 24.234m81.17 3.395c-4.41-7.955-10.56-16.928-17.62-26.058m17.62 26.058c15.19 27.395 9.71 42.723-50.71 10.837-12.26-6.471-22.32-11.126-30.46-14.232m0 0c4.82 8.419 11.43 17.897 18.69 27.359m-18.69-27.359c-47.725-18.192-29.72 16.807-3.04 51.594" stroke="url(#paint8_linear_1317_1062)"/></g><defs><radialGradient id="paint0_radial_1317_1062" cx="0" cy="0" r="1" gradientUnits="userSpaceOnUse" gradientTransform="matrix(0 28.0197 -27.9875 0 167.695 440.232)"><stop offset=".353" stop-color="#5CE4CF"/><stop offset="1" stop-color="#99A9FF"/></radialGradient><radialGradient id="paint1_radial_1317_1062" cx="0" cy="0" r="1" gradientUnits="userSpaceOnUse" gradientTransform="matrix(0 13.0092 -12.9942 0 350.613 729.435)"><stop offset=".353" stop-color="#5CE4CF"/><stop offset="1" stop-color="#99A9FF"/></radialGradient><radialGradient id="paint2_radial_1317_1062" cx="0" cy="0" r="1" gradientUnits="userSpaceOnUse" gradientTransform="matrix(0 13.0092 -12.9942 0 787.416 257.103)"><stop offset=".353" stop-color="#5CE4CF"/><stop offset="1" stop-color="#99A9FF"/></radialGradient><radialGradient id="paint3_radial_1317_1062" cx="0" cy="0" r="1" gradientUnits="userSpaceOnUse" gradientTransform="matrix(0 8.00563 -7.99682 0 1118.27 535.298)"><stop offset=".353" stop-color="#5CE4CF"/><stop offset="1" stop-color="#99A9FF"/></radialGradient><radialGradient id="paint4_radial_1317_1062" cx="0" cy="0" r="1" gradientUnits="userSpaceOnUse" gradientTransform="matrix(0 13.0092 -12.9942 0 1258.2 168.04)"><stop offset=".353" stop-color="#5CE4CF"/><stop offset="1" stop-color="#99A9FF"/></radialGradient><radialGradient id="paint5_radial_1317_1062" cx="0" cy="0" r="1" gradientUnits="userSpaceOnUse" gradientTransform="matrix(0 14.8793 -14.8632 0 12.47 12.484)"><stop offset=".42" stop-color="#5CE4CF"/><stop offset="1" stop-color="#99A9FF"/></radialGradient><radialGradient id="paint6_radial_1317_1062" cx="0" cy="0" r="1" gradientUnits="userSpaceOnUse" gradientTransform="matrix(0 29.8097 -29.7775 0 24.983 25.01)"><stop offset=".42" stop-color="#5CE4CF"/><stop offset="1" stop-color="#99A9FF"/></radialGradient><filter id="filter0_f_1317_1062" x="29.707" y="302.212" width="275.975" height="276.039" filterUnits="userSpaceOnUse" color-interpolation-filters="sRGB"><feFlood flood-opacity="0" result="BackgroundImageFix"/><feBlend mode="normal" in="SourceGraphic" in2="BackgroundImageFix" result="shape"/><feGaussianBlur stdDeviation="55" result="effect1_foregroundBlur_1317_1062"/></filter><filter id="filter1_f_1317_1062" x="301.619" y="680.426" width="97.988" height="98.018" filterUnits="userSpaceOnUse" color-interpolation-filters="sRGB"><feFlood flood-opacity="0" result="BackgroundImageFix"/><feBlend mode="normal" in="SourceGraphic" in2="BackgroundImageFix" result="shape"/><feGaussianBlur stdDeviation="18" result="effect1_foregroundBlur_1317_1062"/></filter><filter id="filter2_f_1317_1062" x="738.422" y="208.094" width="97.988" height="98.018" filterUnits="userSpaceOnUse" color-interpolation-filters="sRGB"><feFlood flood-opacity="0" result="BackgroundImageFix"/><feBlend mode="normal" in="SourceGraphic" in2="BackgroundImageFix" result="shape"/><feGaussianBlur stdDeviation="18" result="effect1_foregroundBlur_1317_1062"/></filter><filter id="filter3_f_1317_1062" x="1074.27" y="491.293" width="87.993" height="88.011" filterUnits="userSpaceOnUse" color-interpolation-filters="sRGB"><feFlood flood-opacity="0" result="BackgroundImageFix"/><feBlend mode="normal" in="SourceGraphic" in2="BackgroundImageFix" result="shape"/><feGaussianBlur stdDeviation="18" result="effect1_foregroundBlur_1317_1062"/></filter><filter id="filter4_f_1317_1062" x="1209.21" y="119.031" width="97.988" height="98.018" filterUnits="userSpaceOnUse" color-interpolation-filters="sRGB"><feFlood flood-opacity="0" result="BackgroundImageFix"/><feBlend mode="normal" in="SourceGraphic" in2="BackgroundImageFix" result="shape"/><feGaussianBlur stdDeviation="18" result="effect1_foregroundBlur_1317_1062"/></filter><filter id="filter5_f_1317_1062" x="1084.22" y="748.452" width="48.935" height="48.967" filterUnits="userSpaceOnUse" color-interpolation-filters="sRGB"><feFlood flood-opacity="0" result="BackgroundImageFix"/><feBlend mode="normal" in="SourceGraphic" in2="BackgroundImageFix" result="shape"/><feGaussianBlur stdDeviation="6" result="effect1_foregroundBlur_1317_1062"/></filter><filter id="filter6_f_1317_1062" x="1198.67" y="536.057" width="95.958" height="96.019" filterUnits="userSpaceOnUse" color-interpolation-filters="sRGB"><feFlood flood-opacity="0" result="BackgroundImageFix"/><feBlend mode="normal" in="SourceGraphic" in2="BackgroundImageFix" result="shape"/><feGaussianBlur stdDeviation="11.5" result="effect1_foregroundBlur_1317_1062"/></filter><linearGradient id="paint7_linear_1317_1062" x1="1107.66" y1="681.77" x2="1289.6" y2="606.922" gradientUnits="userSpaceOnUse"><stop stop-color="#99A9FF"/><stop offset="1" stop-color="#5CE5CF"/></linearGradient><linearGradient id="paint8_linear_1317_1062" x1="1211.36" y1="709.422" x2="1132.14" y2="638.383" gradientUnits="userSpaceOnUse"><stop offset=".144" stop-color="#99A9FF"/><stop offset=".727" stop-color="#66FFE5" stop-opacity=".35"/></linearGradient></defs></svg>