<svg width="123" height="41" fill="none" xmlns="http://www.w3.org/2000/svg"><path d="M.435 1.455h3.224l4.318 10.54h.17l4.319-10.54h3.224V16h-2.528V6.007h-.135l-4.02 9.95h-1.89L3.099 5.986h-.135V16H.435V1.455zm24.964 9.957V5.09h2.571V16h-2.493v-1.939h-.113a3.28 3.28 0 01-1.215 1.499c-.559.388-1.248.582-2.067.582-.715 0-1.347-.159-1.896-.476-.544-.322-.97-.788-1.278-1.399-.308-.615-.462-1.359-.462-2.23V5.09h2.571v6.548c0 .692.19 1.24.568 1.648.379.407.876.61 1.492.61.378 0 .745-.092 1.1-.276a2.24 2.24 0 00.874-.824c.232-.37.348-.831.348-1.385zm13.837-3.438l-2.344.256a1.884 1.884 0 00-.348-.668 1.728 1.728 0 00-.653-.504c-.275-.128-.61-.192-1.008-.192-.536 0-.985.116-1.35.348-.36.232-.537.533-.533.902a.943.943 0 00.348.775c.242.198.64.362 1.194.49l1.86.397c1.032.223 1.8.576 2.301 1.059.507.483.763 1.115.767 1.896a2.966 2.966 0 01-.603 1.818c-.393.521-.94.928-1.64 1.222-.702.293-1.506.44-2.416.44-1.335 0-2.41-.28-3.224-.838-.814-.563-1.3-1.347-1.456-2.35l2.507-.242c.114.492.355.864.725 1.115.369.25.85.376 1.441.376.611 0 1.101-.125 1.47-.376.375-.251.562-.561.562-.93a.97.97 0 00-.363-.775c-.236-.203-.606-.36-1.108-.469l-1.86-.39c-1.047-.218-1.82-.585-2.323-1.101-.502-.52-.75-1.179-.746-1.974-.004-.673.178-1.255.547-1.748.374-.497.893-.88 1.556-1.15.667-.275 1.437-.412 2.308-.412 1.278 0 2.285.272 3.018.817.739.544 1.196 1.28 1.371 2.208zM41.591 16V5.09h2.57V16h-2.57zm1.292-12.457a1.5 1.5 0 01-1.051-.405 1.305 1.305 0 01-.44-.987c0-.389.146-.718.44-.988a1.486 1.486 0 011.051-.412c.412 0 .762.138 1.051.412.294.27.44.6.44.988 0 .383-.146.712-.44.987a1.48 1.48 0 01-1.05.405zm8.68 12.67c-1.088 0-2.023-.239-2.805-.717a4.79 4.79 0 01-1.796-1.982c-.417-.847-.625-1.823-.625-2.926 0-1.108.213-2.086.639-2.933.426-.852 1.027-1.515 1.804-1.989.781-.478 1.704-.717 2.77-.717.885 0 1.669.163 2.35.49a4.017 4.017 0 011.641 1.37c.407.588.64 1.274.696 2.06H53.78a2.349 2.349 0 00-.71-1.314c-.37-.355-.864-.532-1.485-.532-.525 0-.987.142-1.385.426-.397.28-.708.682-.93 1.207-.218.526-.327 1.156-.327 1.89 0 .743.11 1.382.327 1.917.218.53.523.94.916 1.229.398.284.864.426 1.4.426.378 0 .717-.071 1.015-.213.303-.147.556-.358.76-.632.203-.275.343-.609.419-1.002h2.457c-.061.772-.289 1.456-.682 2.053a4.038 4.038 0 01-1.605 1.392c-.677.331-1.472.497-2.386.497zm-39.268 9.241V40h-1.704L2.665 28.58h-.142V40H.76V25.454h1.705l7.955 11.45h.142v-11.45h1.732zM15.82 40V25.454h8.721v1.563h-6.96v4.915h6.307v1.562h-6.307V40H15.82zm10.943-12.983v-1.563h10.909v1.563h-4.574V40h-1.761V27.017h-4.574zM46.015 40V25.454h4.915c1.141 0 2.074.206 2.798.618.73.408 1.27.96 1.62 1.655.35.696.525 1.473.525 2.33s-.175 1.636-.525 2.337c-.346.7-.881 1.259-1.605 1.676-.725.411-1.653.617-2.785.617h-3.522v-1.562h3.466c.78 0 1.408-.135 1.882-.405a2.42 2.42 0 001.03-1.094 3.65 3.65 0 00.326-1.57c0-.582-.109-1.102-.326-1.562a2.33 2.33 0 00-1.037-1.08c-.479-.264-1.113-.397-1.904-.397h-3.096V40h-1.762zM60.16 25.454V40h-1.676V25.454h1.676zm6.28 14.802c-.69 0-1.318-.13-1.881-.39a3.23 3.23 0 01-1.343-1.144c-.331-.502-.497-1.108-.497-1.819 0-.625.123-1.131.37-1.52.246-.393.575-.7.987-.923a5.19 5.19 0 011.363-.497 16.584 16.584 0 011.513-.27c.663-.085 1.2-.149 1.612-.192.417-.047.72-.125.91-.234.193-.109.29-.298.29-.568v-.057c0-.7-.191-1.245-.575-1.634-.379-.388-.954-.582-1.726-.582-.8 0-1.427.175-1.882.526-.454.35-.774.724-.959 1.122l-1.59-.568c.284-.663.662-1.18 1.136-1.549a4.244 4.244 0 011.562-.78 6.488 6.488 0 011.677-.228c.35 0 .752.042 1.207.128.46.08.902.248 1.328.504.43.256.788.642 1.072 1.158.285.516.427 1.207.427 2.073V40h-1.677v-1.477h-.085c-.113.236-.303.49-.568.76-.265.27-.618.5-1.058.689-.44.189-.978.284-1.612.284zm.256-1.506c.663 0 1.222-.13 1.676-.39.46-.261.805-.597 1.037-1.01a2.57 2.57 0 00.355-1.299v-1.534c-.07.085-.227.163-.468.234a7.903 7.903 0 01-.824.178 37.814 37.814 0 01-1.605.213c-.436.057-.843.15-1.222.277-.374.123-.677.31-.909.561-.227.246-.34.583-.34 1.009 0 .582.215 1.022.645 1.32.436.294.988.441 1.655.441zm12.548-9.66v1.421H73.59v-1.42h5.653zm-4.005-2.613h1.676v10.398c0 .474.068.829.206 1.065.142.232.322.389.54.47.222.075.456.113.703.113.184 0 .336-.01.454-.029l.284-.056.341 1.505a3.41 3.41 0 01-.476.128 3.5 3.5 0 01-.774.071c-.473 0-.937-.102-1.392-.305a2.765 2.765 0 01-1.122-.93c-.294-.417-.44-.943-.44-1.577V26.477zm11.385 2.614v1.42h-5.881v-1.42h5.88zM82.502 40V27.585c0-.625.147-1.146.44-1.562a2.73 2.73 0 011.144-.938 3.615 3.615 0 011.484-.312c.412 0 .749.033 1.009.1.26.065.454.127.582.184l-.483 1.449a8.38 8.38 0 00-.355-.107 2.154 2.154 0 00-.582-.064c-.554 0-.954.14-1.2.42-.242.279-.363.688-.363 1.228V40h-1.676zm10.451.227c-.985 0-1.849-.234-2.592-.703-.739-.469-1.316-1.124-1.733-1.967-.412-.843-.618-1.828-.618-2.955 0-1.136.206-2.128.618-2.976.417-.847.994-1.505 1.733-1.974.743-.469 1.607-.703 2.592-.703.985 0 1.847.234 2.585.703.744.469 1.321 1.127 1.733 1.974.417.848.625 1.84.625 2.976 0 1.127-.208 2.112-.625 2.955-.412.843-.99 1.498-1.733 1.967-.738.469-1.6.703-2.585.703zm0-1.505c.748 0 1.364-.192 1.847-.576.483-.383.84-.888 1.072-1.513a5.792 5.792 0 00.348-2.03c0-.73-.116-1.41-.348-2.04a3.436 3.436 0 00-1.072-1.526c-.483-.388-1.099-.582-1.847-.582s-1.363.194-1.846.582c-.483.388-.84.897-1.073 1.527a5.85 5.85 0 00-.348 2.038c0 .73.116 1.407.348 2.032.232.624.59 1.129 1.073 1.512.483.384 1.098.576 1.846.576zM100.456 40V29.09h1.619v1.649h.114c.199-.54.559-.978 1.079-1.314a3.178 3.178 0 011.762-.505 17.805 17.805 0 01.881.028v1.705a5.069 5.069 0 00-.391-.063 3.843 3.843 0 00-.632-.05c-.531 0-1.004.111-1.421.334a2.52 2.52 0 00-.98.909 2.448 2.448 0 00-.355 1.314V40h-1.676zm7.441 0V29.09h1.62v1.706h.142a2.738 2.738 0 011.101-1.357c.506-.327 1.115-.49 1.825-.49.72 0 1.319.163 1.797.49.483.322.859.774 1.129 1.357h.114a3.174 3.174 0 011.257-1.343c.558-.336 1.228-.504 2.01-.504.975 0 1.773.305 2.393.916.62.606.931 1.55.931 2.834V40h-1.677v-7.301c0-.805-.22-1.38-.66-1.726-.44-.346-.959-.518-1.555-.518-.768 0-1.362.232-1.783.696-.422.459-.632 1.041-.632 1.747V40h-1.705v-7.472c0-.62-.201-1.12-.604-1.498-.402-.384-.92-.576-1.555-.576-.436 0-.843.116-1.221.349a2.622 2.622 0 00-.91.965c-.227.408-.34.879-.34 1.414V40h-1.677z" fill="#fff"/></svg>