<svg width="123" height="41" viewBox="0 0 123 41" fill="none" xmlns="http://www.w3.org/2000/svg">
<path d="M0.434659 1.45455H3.65909L7.97727 11.9943H8.14773L12.4659 1.45455H15.6903V16H13.1619V6.0071H13.027L9.0071 15.9574H7.1179L3.09801 5.9858H2.96307V16H0.434659V1.45455ZM25.3991 11.4119V5.09091H27.9702V16H25.4773V14.0611H25.3636C25.1174 14.6719 24.7126 15.1714 24.1491 15.5597C23.5904 15.9479 22.9015 16.142 22.0824 16.142C21.3674 16.142 20.7353 15.9834 20.1861 15.6662C19.6416 15.3442 19.2154 14.8778 18.9077 14.267C18.5999 13.6515 18.446 12.9081 18.446 12.0369V5.09091H21.017V11.6392C21.017 12.3305 21.2064 12.8797 21.5852 13.2869C21.964 13.6941 22.4612 13.8977 23.0767 13.8977C23.4555 13.8977 23.8224 13.8054 24.1776 13.6207C24.5327 13.4361 24.8239 13.1615 25.0511 12.7969C25.2831 12.4276 25.3991 11.9659 25.3991 11.4119ZM39.2362 7.97443L36.8924 8.23011C36.8261 7.99337 36.7101 7.77083 36.5444 7.5625C36.3834 7.35417 36.1656 7.18608 35.891 7.05824C35.6164 6.9304 35.2802 6.86648 34.8825 6.86648C34.3474 6.86648 33.8976 6.98248 33.533 7.21449C33.1732 7.4465 32.9956 7.74716 33.0004 8.11648C32.9956 8.43371 33.1116 8.69176 33.3484 8.89062C33.5898 9.08949 33.9876 9.25284 34.5415 9.38068L36.4023 9.77841C37.4345 10.0009 38.2016 10.3537 38.7035 10.8366C39.2101 11.3196 39.4658 11.9517 39.4705 12.733C39.4658 13.4195 39.2646 14.0256 38.8668 14.5511C38.4738 15.072 37.927 15.4792 37.2262 15.7727C36.5254 16.0663 35.7205 16.2131 34.8114 16.2131C33.4762 16.2131 32.4014 15.9337 31.587 15.375C30.7726 14.8116 30.2873 14.0279 30.131 13.0241L32.6381 12.7827C32.7518 13.2751 32.9933 13.6468 33.3626 13.8977C33.7319 14.1487 34.2125 14.2741 34.8043 14.2741C35.4151 14.2741 35.9052 14.1487 36.2745 13.8977C36.6486 13.6468 36.8356 13.3366 36.8356 12.9673C36.8356 12.6548 36.7148 12.3968 36.4734 12.1932C36.2366 11.9896 35.8673 11.8333 35.3654 11.7244L33.5046 11.3338C32.4582 11.116 31.6841 10.7491 31.1822 10.233C30.6803 9.71212 30.4317 9.05398 30.4364 8.25852C30.4317 7.58617 30.614 7.00379 30.9833 6.51136C31.3574 6.0142 31.8758 5.63068 32.5387 5.3608C33.2063 5.08617 33.9757 4.94886 34.8469 4.94886C36.1254 4.94886 37.1315 5.22112 37.8654 5.76562C38.604 6.31013 39.061 7.0464 39.2362 7.97443ZM41.5906 16V5.09091H44.1616V16H41.5906ZM42.8832 3.54261C42.476 3.54261 42.1256 3.40767 41.832 3.13778C41.5385 2.86316 41.3917 2.53409 41.3917 2.15057C41.3917 1.76231 41.5385 1.43324 41.832 1.16335C42.1256 0.88873 42.476 0.75142 42.8832 0.75142C43.2951 0.75142 43.6455 0.88873 43.9343 1.16335C44.2279 1.43324 44.3746 1.76231 44.3746 2.15057C44.3746 2.53409 44.2279 2.86316 43.9343 3.13778C43.6455 3.40767 43.2951 3.54261 42.8832 3.54261ZM51.5639 16.2131C50.4749 16.2131 49.5398 15.974 48.7585 15.4957C47.982 15.0175 47.383 14.357 46.9616 13.5142C46.545 12.6667 46.3366 11.6913 46.3366 10.5881C46.3366 9.48011 46.5497 8.50237 46.9759 7.65483C47.402 6.80256 48.0033 6.13968 48.7798 5.66619C49.5611 5.18797 50.4844 4.94886 51.5497 4.94886C52.4351 4.94886 53.2188 5.11222 53.9006 5.43892C54.5871 5.76089 55.134 6.2178 55.5412 6.80966C55.9484 7.39678 56.1804 8.08333 56.2372 8.86932H53.7798C53.6804 8.34375 53.4437 7.90578 53.0696 7.5554C52.7003 7.20028 52.2055 7.02273 51.5852 7.02273C51.0597 7.02273 50.598 7.16477 50.2003 7.44886C49.8026 7.72822 49.4924 8.13068 49.2699 8.65625C49.0521 9.18182 48.9432 9.81155 48.9432 10.5455C48.9432 11.2888 49.0521 11.928 49.2699 12.4631C49.4877 12.9934 49.7931 13.4029 50.1861 13.6918C50.5838 13.9759 51.0502 14.1179 51.5852 14.1179C51.964 14.1179 52.3026 14.0469 52.6009 13.9048C52.9039 13.758 53.1572 13.5473 53.3608 13.2727C53.5644 12.9981 53.7041 12.6643 53.7798 12.2713H56.2372C56.1757 13.0431 55.9484 13.7273 55.5554 14.3239C55.1624 14.9157 54.6274 15.3797 53.9503 15.7159C53.2732 16.0473 52.4777 16.2131 51.5639 16.2131ZM12.2955 25.4545V40H10.5909L2.66477 28.5795H2.52273V40H0.761364V25.4545H2.46591L10.4205 36.9034H10.5625V25.4545H12.2955ZM15.82 40V25.4545H24.5415V27.017H17.5813V31.9318H23.8881V33.4943H17.5813V40H15.82ZM26.7628 27.017V25.4545H37.6719V27.017H33.098V40H31.3366V27.017H26.7628ZM46.0153 40V25.4545H50.93C52.0711 25.4545 53.0039 25.6605 53.7283 26.0724C54.4575 26.4796 54.9973 27.0312 55.3477 27.7273C55.698 28.4233 55.8732 29.1998 55.8732 30.0568C55.8732 30.9138 55.698 31.6927 55.3477 32.3935C55.002 33.0942 54.467 33.6529 53.7425 34.0696C53.0181 34.4815 52.0901 34.6875 50.9585 34.6875H47.4357V33.125H50.9016C51.6829 33.125 52.3103 32.9901 52.7837 32.7202C53.2572 32.4503 53.6005 32.0857 53.8136 31.6264C54.0314 31.1624 54.1403 30.6392 54.1403 30.0568C54.1403 29.4744 54.0314 28.9536 53.8136 28.4943C53.6005 28.035 53.2549 27.6752 52.7766 27.4148C52.2984 27.1496 51.6639 27.017 50.8732 27.017H47.7766V40H46.0153ZM60.1594 25.4545V40H58.4833V25.4545H60.1594ZM66.4396 40.2557C65.7483 40.2557 65.121 40.1255 64.5575 39.8651C63.9941 39.5999 63.5466 39.2188 63.2152 38.7216C62.8838 38.2197 62.718 37.6136 62.718 36.9034C62.718 36.2784 62.8411 35.7718 63.0874 35.3835C63.3336 34.9905 63.6626 34.6828 64.0746 34.4602C64.4865 34.2377 64.9411 34.072 65.4382 33.9631C65.9401 33.8494 66.4444 33.7595 66.951 33.6932C67.6139 33.608 68.1513 33.544 68.5632 33.5014C68.9799 33.4541 69.2829 33.3759 69.4723 33.267C69.6664 33.1581 69.7635 32.9687 69.7635 32.6989V32.642C69.7635 31.9413 69.5717 31.3968 69.1882 31.0085C68.8094 30.6203 68.2341 30.4261 67.4624 30.4261C66.6622 30.4261 66.0348 30.6013 65.5803 30.9517C65.1257 31.3021 64.8061 31.6761 64.6214 32.0739L63.0305 31.5057C63.3146 30.8428 63.6934 30.3267 64.1669 29.9574C64.6451 29.5833 65.166 29.3229 65.7294 29.1761C66.2976 29.0246 66.8563 28.9489 67.4055 28.9489C67.7559 28.9489 68.1584 28.9915 68.6129 29.0767C69.0722 29.1572 69.5149 29.3253 69.9411 29.581C70.3719 29.8366 70.7294 30.2225 71.0135 30.7386C71.2976 31.2547 71.4396 31.946 71.4396 32.8125V40H69.7635V38.5227H69.6783C69.5646 38.7595 69.3752 39.0128 69.1101 39.2827C68.8449 39.5526 68.4922 39.7822 68.0518 39.9716C67.6115 40.161 67.0741 40.2557 66.4396 40.2557ZM66.6953 38.75C67.3582 38.75 67.9169 38.6198 68.3714 38.3594C68.8307 38.099 69.1764 37.7628 69.4084 37.3509C69.6451 36.9389 69.7635 36.5057 69.7635 36.0511V34.517C69.6925 34.6023 69.5362 34.6804 69.2947 34.7514C69.058 34.8177 68.7834 34.8769 68.4709 34.929C68.1631 34.9763 67.8625 35.0189 67.5689 35.0568C67.2801 35.09 67.0457 35.1184 66.8658 35.142C66.4302 35.1989 66.023 35.2912 65.6442 35.419C65.2701 35.5421 64.9671 35.7292 64.7351 35.9801C64.5078 36.2263 64.3942 36.5625 64.3942 36.9886C64.3942 37.571 64.6096 38.0114 65.0405 38.3097C65.4761 38.6032 66.0277 38.75 66.6953 38.75ZM79.2433 29.0909V30.5114H73.5898V29.0909H79.2433ZM75.2376 26.4773H76.9137V36.875C76.9137 37.3485 76.9824 37.7036 77.1197 37.9403C77.2617 38.1723 77.4416 38.3286 77.6594 38.4091C77.882 38.4848 78.1164 38.5227 78.3626 38.5227C78.5472 38.5227 78.6987 38.5133 78.8171 38.4943C78.9355 38.4706 79.0302 38.4517 79.1012 38.4375L79.4421 39.9432C79.3285 39.9858 79.1699 40.0284 78.9663 40.071C78.7627 40.1184 78.5046 40.142 78.1921 40.142C77.7186 40.142 77.2546 40.0402 76.8001 39.8366C76.3503 39.633 75.9762 39.3229 75.6779 38.9062C75.3844 38.4896 75.2376 37.964 75.2376 37.3295V26.4773ZM86.6225 29.0909V30.5114H80.7418V29.0909H86.6225ZM82.5032 40V27.5852C82.5032 26.9602 82.65 26.4394 82.9435 26.0227C83.2371 25.6061 83.6183 25.2936 84.087 25.0852C84.5558 24.8769 85.0505 24.7727 85.5714 24.7727C85.9833 24.7727 86.3195 24.8059 86.5799 24.8722C86.8403 24.9384 87.0344 25 87.1623 25.0568L86.6793 26.5057C86.5941 26.4773 86.4757 26.4418 86.3242 26.3991C86.1774 26.3565 85.9833 26.3352 85.7418 26.3352C85.1879 26.3352 84.7878 26.4749 84.5415 26.7543C84.3001 27.0336 84.1793 27.4432 84.1793 27.983V40H82.5032ZM92.9542 40.2273C91.9693 40.2273 91.1052 39.9929 90.3619 39.5241C89.6232 39.0554 89.0456 38.3996 88.6289 37.5568C88.217 36.714 88.011 35.7292 88.011 34.6023C88.011 33.4659 88.217 32.474 88.6289 31.6264C89.0456 30.7789 89.6232 30.1207 90.3619 29.652C91.1052 29.1832 91.9693 28.9489 92.9542 28.9489C93.939 28.9489 94.8008 29.1832 95.5394 29.652C96.2828 30.1207 96.8604 30.7789 97.2724 31.6264C97.689 32.474 97.8974 33.4659 97.8974 34.6023C97.8974 35.7292 97.689 36.714 97.2724 37.5568C96.8604 38.3996 96.2828 39.0554 95.5394 39.5241C94.8008 39.9929 93.939 40.2273 92.9542 40.2273ZM92.9542 38.7216C93.7023 38.7216 94.3178 38.5298 94.8008 38.1463C95.2837 37.7628 95.6412 37.2585 95.8732 36.6335C96.1052 36.0085 96.2212 35.3314 96.2212 34.6023C96.2212 33.8731 96.1052 33.1937 95.8732 32.5639C95.6412 31.9342 95.2837 31.4252 94.8008 31.0369C94.3178 30.6487 93.7023 30.4545 92.9542 30.4545C92.2061 30.4545 91.5906 30.6487 91.1076 31.0369C90.6246 31.4252 90.2672 31.9342 90.0352 32.5639C89.8031 33.1937 89.6871 33.8731 89.6871 34.6023C89.6871 35.3314 89.8031 36.0085 90.0352 36.6335C90.2672 37.2585 90.6246 37.7628 91.1076 38.1463C91.5906 38.5298 92.2061 38.7216 92.9542 38.7216ZM100.456 40V29.0909H102.075V30.7386H102.189C102.388 30.1989 102.748 29.7609 103.268 29.4247C103.789 29.0885 104.376 28.9205 105.03 28.9205C105.153 28.9205 105.307 28.9228 105.491 28.9276C105.676 28.9323 105.816 28.9394 105.911 28.9489V30.6534C105.854 30.6392 105.723 30.6179 105.52 30.5895C105.321 30.5563 105.11 30.5398 104.888 30.5398C104.357 30.5398 103.884 30.651 103.467 30.8736C103.055 31.0914 102.729 31.3944 102.487 31.7827C102.25 32.1662 102.132 32.6042 102.132 33.0966V40H100.456ZM107.897 40V29.0909H109.517V30.7955H109.659C109.886 30.2131 110.253 29.7609 110.76 29.4389C111.266 29.1122 111.875 28.9489 112.585 28.9489C113.305 28.9489 113.904 29.1122 114.382 29.4389C114.865 29.7609 115.241 30.2131 115.511 30.7955H115.625C115.904 30.232 116.323 29.7846 116.882 29.4531C117.44 29.117 118.11 28.9489 118.892 28.9489C119.867 28.9489 120.665 29.2543 121.285 29.8651C121.905 30.4711 122.216 31.4157 122.216 32.6989V40H120.539V32.6989C120.539 31.8939 120.319 31.3187 119.879 30.973C119.439 30.6274 118.92 30.4545 118.324 30.4545C117.556 30.4545 116.962 30.6866 116.541 31.1506C116.119 31.6098 115.909 32.1922 115.909 32.8977V40H114.204V32.5284C114.204 31.9081 114.003 31.4086 113.6 31.0298C113.198 30.6463 112.68 30.4545 112.045 30.4545C111.609 30.4545 111.202 30.5705 110.824 30.8026C110.449 31.0346 110.146 31.3565 109.914 31.7685C109.687 32.1757 109.574 32.6468 109.574 33.1818V40H107.897Z" fill="white"/>
</svg>
