<svg width="678" height="515" fill="none" xmlns="http://www.w3.org/2000/svg"><g clip-path="url(#clip0_66_3842)"><path d="M364.712 514.303c136.285 0 246.766-31.617 246.766-70.619 0-39.002-110.481-70.619-246.766-70.619-136.286 0-246.767 31.617-246.767 70.619 0 39.002 110.481 70.619 246.767 70.619z" fill="#F5F5F5"/><path d="M599.495 168.969s-43.713 43.784-19.036 108.754c24.677 64.969-42.303 173.016-42.303 173.016s.705-.106 2.052-.339c89.781-15.875 134.389-118.724 84.465-195.127-18.536-28.403-33.8-61.728-25.178-86.304z" fill="#2091F9"/><path d="M599.495 168.969s-24.676 53.671 0 97.455c24.677 43.783 4.231 166.66-61.339 184.315" stroke="#535461" stroke-width="2" stroke-miterlimit="10"/><path d="M677.343 346.061s-49.882-7.959-54.429 36.82c-4.548 44.78-95.887 50.98-95.887 50.98s.593.41 1.714 1.144c75.44 49.603 147.559 31.595 136.694-34.271-4.068-24.484-3.744-49.08 11.908-54.673z" fill="#2091F9"/><path opacity=".2" d="M677.343 346.061s-49.882-7.959-54.429 36.82c-4.548 44.78-95.887 50.98-95.887 50.98s.593.41 1.714 1.144c75.44 49.603 147.559 31.595 136.694-34.271-4.068-24.484-3.744-49.08 11.908-54.673z" fill="#F5F5F5"/><path d="M677.344 346.061s-38.721 8.516-35.541 43.783c3.18 35.267-57.525 77.526-114.803 44.003" stroke="#535461" stroke-width="2" stroke-miterlimit="10"/><path opacity=".2" d="M107.245.36c-5.683-.198-11.506 0-16.837 1.991-14.502 5.417-21.377 23.135-19.142 38.48 2.235 15.346 11.43 28.672 20.968 40.882 9.54 12.21 19.876 24.264 25.107 38.84 2.609 7.281 3.829 15.437 1.178 22.704-4.09 11.207-16.421 17.471-28.259 18.771-11.837 1.299-23.725-1.236-35.605-2.119-4.984-.353-10.11-.395-14.806 1.243-5.153 1.787-9.447 5.431-13.395 9.23-15.406 14.9-27.737 35.239-25.742 56.594 2.257 24.208 22.379 43.346 44.418 53.607 7.298 3.404 15.018 6.158 21.44 11.016 16.922 12.811 20.722 36.814 19.037 58.007-1.685 21.192-7.424 42.406-4.23 63.415 3.758 24.435 20.39 46.503 42.824 56.813 19.988 9.181 45.003 8.609 62.749-4.378 8.651-6.356 15.194-15.12 20.884-24.208a209.086 209.086 0 0020.764-43.699c2.474-7.281 4.801-15.113 10.575-20.176 3.526-3.114 8.094-4.859 12.614-6.214 13.621-4.082 27.969-5.205 41.717-8.835 13.749-3.63 27.582-10.395 35.055-22.492 10.576-17.167 5.64-39.123 5.69-59.32.084-46.015 27.574-87.214 37.72-132.057 3.314-14.661 4.547-30.882-2.856-43.954-5.034-8.919-13.515-15.275-22.434-20.218-19.6-10.903-41.88-15.755-63.8-20.48-30.465-6.553-67.459-7.4-91.071-28.6C169.148 14.865 138.147.36 107.245.36z" fill="#2091F9"/><path opacity=".5" d="M217.754 178.468a106.496 106.496 0 00-5.14-32.669l-8.46-26.277v-1.299c.26-16.843-12.846-25.247-17.894-24.336-5.168.933-19.509-6.27-19.509-6.27v.197a26.927 26.927 0 01-2.651-3.63 23.014 23.014 0 006.153-6.721 23.07 23.07 0 00-1.422-25.89 10.116 10.116 0 003.405-4.577c1.171-3.297.275-7.062-1.629-10a19.335 19.335 0 00-2.82-3.368 35.681 35.681 0 00-5.259-4.308c-4.703-3.262-9.871-6.066-15.511-7.061a6.45 6.45 0 00-2.969 0c-.847.342-1.653.778-2.404 1.299-3.863 2.203-8.672 1.25-13.128 1.017-4.456-.233-9.87 1.017-11.281 5.204-.437 1.293-.408 2.691-.705 4.019-.705 3.248-3.208 5.77-5.139 8.474-1.932 2.705-3.378 6.356-1.77 9.293.55.99 1.41 1.9 1.41 3.03 0 .812-.479 1.54-.705 2.316-.487 1.766.43 3.531 1.84 4.81a7.825 7.825 0 002.115 1.617c2.235 1.144 4.809 1.497 7.086 2.556a11.62 11.62 0 013.088 2.119 12.16 12.16 0 013.356 8.777l.473.05v.417a21.26 21.26 0 001.529.127 23.323 23.323 0 002.532 3.368c-.16.603-.341 1.215-.543 1.836-1.657 1.151-15.208 10.19-30.62 8.016-16.45-2.324-25.855 69.708-25.855 69.708a82.497 82.497 0 00-.888 12.443c-.07 10.592 2.15 24.455 14.524 22.414l6.578-2.168v35.627s.938 9.76-2.348 16.243c-3.285 6.482 10.343 4.18 10.343 4.18s.522.544 1.481 1.469l-.303.855.402.409a93.595 93.595 0 01-7.213 17.719l.388.197c-.247.473-.388.706-.388.706s5.062 2.592 12.028 5.932c5.598 18.955 17.852 62.851 13.819 71.213l.113.24c.754 1.567 4.97 10.811 4.117 19.279-.768 7.57 9.695 41.969 13.601 54.461l-1.848.374 6.579 23.7-1.411 15.338s-7.988 21.377 10.809 17.196c18.796-4.181 13.628-21.376 13.628-21.376l.473-34.858s-1.812-1.01-4.047-1.977c-1.537-4.16-4.886-13.99-4.886-20.79 0-8.828-6.113-46.941-6.113-46.941v-.268l-.035-.508v-.085c0-.473-.078-1.123-.134-1.914v-.042c-.705-10.304-2.82-45.309-1.276-63.557a40.7 40.7 0 014.23-2.529c4.576 11.582 16.371 42.873 15.617 56.001-.938 16.243-.233 3.489 0 1.413.07-.643.12.134.141 1.878v6.871c0 1.413 0 2.98-.05 4.612v.988c0 .996 0 2.013-.049 3.044 0 1.412-.056 2.782-.084 4.202a641.232 641.232 0 01-.275 9.399c0 .335-.012.666-.036.996a204.59 204.59 0 01-.077 1.935l-.085 1.85c-.028.598-.059 1.18-.092 1.744-.035.664-.077 1.3-.112 1.907l-2.553-.367-.543 5.875a63.982 63.982 0 003.526 27.542c.874 2.415 1.551 4.414 1.699 5.127.472 2.323 0 19.067 0 19.067s2.82 21.842 15.983 17.655c5.923-1.886 8.799-7.62 10.174-13.369a33.19 33.19 0 00-1.629-19.964c-1.868-4.703-3.779-11.299-2.432-16.397 2.348-8.828 2.348-21.377 2.348-21.377l-1.453-.204c.362-.69.69-1.397.98-2.119 0 0-.472-32.068 3.758-36.249 2.327-2.302 2.116-7.831 1.41-12.351a84.696 84.696 0 01-.705-19.773c.29-3.397.705-6.356 1.192-7.408 1.241-2.458 2.482-27.231-3.011-39.151l1.128-.353-.176-.876.176-.057a69.198 69.198 0 002.821 6.504c.277.218.596.377.937.467 15.222-2.677 15.836-16.907 14.99-24.675.641.311.994.509.994.509l1.41-20.48c1.445-3.269 1.981-7.443 1.946-11.955.063-16.13-7.664-37.287-7.664-37.287zm-16.78 58.211c-1.044-8.919-2.489-17.316-2.489-17.316l-7.05-25.098v-9.138l11.182 41.806-1.643 9.746z" fill="url(#paint0_linear_66_3842)"/><path d="M169.274 373.771l-.522 5.742a63.284 63.284 0 003.42 26.941c.839 2.366 1.494 4.315 1.635 5.014.452 2.274 0 18.622 0 18.622s2.722 21.348 15.42 17.259c5.711-1.836 8.46-7.45 9.814-13.064a32.841 32.841 0 00-1.579-19.505c-1.805-4.597-3.652-11.059-2.348-16.024 2.27-8.629 2.27-20.889 2.27-20.889l-28.11-4.096z" fill="#5A5773"/><path d="M155.672 275.216s17.682 43.148 16.773 59.037c-.91 15.889-.226 3.404 0 1.363.402-3.637 0 39.547-1.361 44.49 0 0 18.592 13.622 25.847-4.541 0 0-.451-31.333 3.624-35.422 2.242-2.246 2.024-7.655 1.361-12.069a83.779 83.779 0 01-.705-19.3c.275-3.319.656-6.243 1.149-7.239 1.361-2.726 2.722-33.607-5.443-42.237l-41.245 15.918z" fill="#605D82"/><path opacity=".1" d="M173.355 380.127c1.361-4.993 1.763-48.148 1.361-44.49-.226 2.041-.91 14.534 0-1.363.909-15.896-16.773-59.037-16.773-59.037l39.56-15.24a10.305 10.305 0 00-.564-.656l-41.259 15.896s17.682 43.148 16.773 59.037c-.91 15.89-.226 3.404 0 1.363.402-3.637 0 39.547-1.361 44.49 0 0 7.424 5.438 14.721 4.859-6.493-.488-12.458-4.859-12.458-4.859z" fill="#000"/><path d="M140.254 415.098l6.345 23.163-1.36 14.985s-7.707 20.889 10.427 16.8c18.134-4.089 13.149-20.889 13.149-20.889l.452-34.059s-7.255-4.089-10.428-3.63c-3.173.459-18.585 3.63-18.585 3.63z" fill="#5A5773"/><path d="M108.973 264.319s20.855 67.667 15.87 78.112c0 0 4.985 9.992 4.082 19.067-.902 9.075 14.51 57.674 14.51 57.674l22.675-4.088s-5.443-13.623-5.443-22.252c0-8.63-5.895-45.903-5.895-45.903s-4.984-68.126.91-75.392l-46.709-7.218z" fill="#605D82"/><path opacity=".1" d="M153.921 277.073c-3.758 15.423.395 72.18.395 72.18s5.894 37.237 5.894 45.902c0 6.589 3.166 16.08 4.668 20.204l1.226-.219s-5.442-13.622-5.442-22.252c0-8.629-5.895-45.902-5.895-45.902s-3.793-51.87-.846-69.913zm-29.077 65.358l.113.233c.035-.233.07-.48.091-.706-.06.161-.128.319-.204.473zm29.809-68.663a6.69 6.69 0 011.022-2.182l-46.702-7.267s.275.883.747 2.458l44.933 6.991z" fill="#000"/><path d="M217.788 239.793s6.804 25.423-13.6 29.067a2.477 2.477 0 01-.91-.452s-11.788-23.163-2.721-32.244l17.231 3.629zM134.361 70.866s1.361 19.067-13.6 28.156c-14.961 9.088 31.727 34.059 31.727 34.059l24.487-39.06s-10.421 1.35-16.766-16.8l-25.848-6.355z" fill="#FAC3CA"/><path opacity=".1" d="M124.382 100.37s23.126 48.141 43.981 2.726l32.193 159.853s-49.882 15.445-50.327 22.711c-.444 7.267-50.319-18.615-50.319-18.615s10.879-19.985 8.165-32.244c-2.715-12.26 16.307-134.431 16.307-134.431z" fill="#000"/><path d="M124.382 99.46s23.126 48.14 43.981 2.725l32.193 159.86s-49.882 15.445-50.327 22.711c-.444 7.267-50.319-18.622-50.319-18.622s10.879-19.985 8.165-32.245c-2.715-12.259 16.307-134.43 16.307-134.43z" fill="#E1E7EF"/><path d="M147.06 427.816s-5.894-13.17 7.706-13.17c13.6 0 11.337 11.807 11.337 11.807l-19.043 1.363zm30.832-34.066s-5.443-14.082 8.164-14.534c13.607-.452 6.804 12.712 6.804 12.712l-14.968 1.822z" fill="#5A5773"/><path opacity=".1" d="M166.328 89.227s13.826 7.061 18.818 6.13c4.992-.933 18.134 7.718 17.231 24.977l8.193 25.748a105.305 105.305 0 014.935 31.927s11.789 32.696 5.443 47.23l-1.361 19.985s-10.427-5.904-21.313-4.089l2.742-16.32-12.267-46.333-20.404-49.504-2.017-39.751z" fill="#000"/><path d="M166.328 88.33s13.826 7.061 18.818 6.13c4.992-.933 18.134 7.718 17.231 24.977l8.193 25.748a105.305 105.305 0 014.935 31.927s11.789 32.696 5.443 47.23l-1.361 19.985s-10.427-5.904-21.313-4.089l2.721-16.348-12.246-46.319-20.383-49.504-2.038-39.737z" fill="#67647E"/><path opacity=".1" d="M189.228 143.511v51.319l6.804 24.526s4.533 26.793 3.172 34.971c-1.36 8.177-23.125 9.992-29.019 3.177-5.894-6.814-2.722-64.969-2.722-64.969l-1.135-85.131.91-2.726 21.99 38.833z" fill="#000"/><path d="M190.158 141.244v51.319l6.803 24.526s4.534 26.793 3.173 34.971c-1.361 8.177-23.125 9.992-29.02 3.177-5.894-6.814-2.721-64.969-2.721-64.969l-1.135-85.152 22.9 36.128z" fill="#67647E"/><path opacity=".1" d="M98.77 183.934l14.509 45.196-6.803 19.3s32.192 34.06 52.596 17.711c0 0 2.27-69.489-2.27-85.837-4.541-16.348-26.298-71.325-26.298-71.325l-4.506-14.512-24.028 13.622-3.2 75.845z" fill="#000"/><path d="M97.633 181.66v44.49s.91 9.54-2.27 15.896c-3.18 6.356 9.976 4.089 9.976 4.089s32.193 34.059 52.597 17.711c0 0 2.27-69.489-2.27-85.837-4.541-16.349-26.299-71.325-26.299-71.325l-4.533-14.534-24.028 13.623-3.173 75.887z" fill="#67647E"/><path opacity=".1" d="M132.773 84.248s-13.826 10.219-29.696 7.945c-15.871-2.274-24.938 68.126-24.938 68.126s-5.894 36.333 13.15 33.155l42.168-14.081s-9.067-9.541-7.706-21.8l-20.411 8.171.916-39.053 26.517-42.463z" fill="#000"/><path opacity=".1" d="M79.041 159.408s-5.894 36.333 13.15 33.155l42.168-14.081s-9.067-9.534-7.706-21.8l-20.397 8.178-27.215-5.452z" fill="#000"/><path d="M125.652 161.47s14.151-18.637 24.571-9.689c10.421 8.947-20.834 25.345-20.834 25.345l-3.737-15.656z" fill="#FAC3CA"/><path d="M132.773 83.337s-13.826 10.218-29.696 7.944c-15.871-2.273-24.938 68.127-24.938 68.127s-5.894 36.333 13.15 33.155l42.168-14.081s-9.067-9.541-7.706-21.8l-20.411 8.177.916-39.059 23.126-19.067 3.391-23.396z" fill="#67647E"/><path opacity=".1" d="M160.659 78.111l-25.847-6.355s1.346 1.525-.226 7.492c4.16 4.781 9.271 11.13 16.096 11.13a22.54 22.54 0 0013.551-4.499 40.801 40.801 0 01-3.574-7.768z" fill="#000"/><path d="M150.229 89.474c12.523 0 22.674-10.168 22.674-22.711s-10.151-22.711-22.674-22.711-22.674 10.168-22.674 22.71c0 12.544 10.151 22.712 22.674 22.712z" fill="#FAC3CA"/><path opacity=".1" d="M158.825 56.904c5.26-.897 11.042-3.234 12.804-8.276 1.128-3.228.268-6.9-1.572-9.774-1.84-2.874-4.548-5.085-7.34-7.062-4.533-3.192-9.532-5.932-14.989-6.892a6.144 6.144 0 00-2.862 0c-.819.335-1.597.762-2.32 1.27-3.73 2.155-8.369 1.223-12.691.997-4.322-.226-9.504.995-10.865 5.084-.423 1.264-.394 2.627-.705 3.927-.705 3.177-3.095 5.65-4.935 8.297-1.84 2.648-3.257 6.229-1.706 9.082.529.967 1.41 1.857 1.41 2.959a9.189 9.189 0 01-.705 2.267c-.642 2.344 1.227 4.71 3.384 5.826 2.157 1.116 4.639 1.462 6.839 2.5a12.017 12.017 0 016.677 11.116c2.002.232 4.336.352 5.689-1.145.607-.67.903-1.568 1.453-2.28.705-.933 1.805-1.484 2.707-2.233 4.745-3.905 1.375-9.3 4.061-13.509 1.41-2.168 3.652-1.504 5.923-1.469a52.233 52.233 0 009.743-.685z" fill="#000"/><path d="M158.372 56.452c5.26-.897 11.041-3.234 12.804-8.276 1.128-3.227.268-6.9-1.572-9.774-1.84-2.874-4.548-5.084-7.34-7.062-4.533-3.192-9.532-5.932-14.989-6.892a6.148 6.148 0 00-2.863 0c-.818.335-1.596.762-2.319 1.27-3.73 2.155-8.369 1.223-12.691.997-4.322-.226-9.504.995-10.865 5.084-.423 1.264-.395 2.627-.705 3.927-.705 3.178-3.095 5.65-4.935 8.297-1.84 2.649-3.257 6.229-1.706 9.082.528.968 1.41 1.857 1.41 2.959a9.189 9.189 0 01-.705 2.267c-.642 2.344 1.226 4.71 3.384 5.826 2.157 1.116 4.639 1.462 6.839 2.5a11.995 11.995 0 014.986 4.584 12.023 12.023 0 011.712 6.56c2.002.233 4.336.352 5.69-1.145.606-.67.902-1.567 1.452-2.28.705-.933 1.805-1.484 2.707-2.232 4.745-3.905 1.375-9.3 4.061-13.51 1.41-2.168 3.653-1.504 5.923-1.468a52.231 52.231 0 009.722-.714z" fill="#4A4347"/><path opacity=".1" d="M185.82 132.841s4.985 25.889 2.722 35.881a33.354 33.354 0 00.592 17.599m-83.894-42.584s-2.171 17.26 1.446 20.889z" fill="#000"/><path d="M231.847 356.434a1.056 1.056 0 00.747-1.808 1.058 1.058 0 10-1.495 1.498c.198.199.467.31.748.31z" fill="#000"/><path opacity=".5" d="M557.486 233.028v-.586L365.121 84.283a.702.702 0 00-.839 0L171.91 232.442v229.653h.367v.367H557.86V232.809l-.374.219z" fill="url(#paint1_linear_66_3842)"/><path d="M550.847 455.69H178.582V233.946L364.714 90.59l186.133 143.356V455.69z" fill="#fff"/><path d="M537.449 442.547H191.977V236.764l172.736-133.039 172.736 133.039v205.783z" fill="#E0E0E0"/><path d="M423.316 100.65l-210.738 55.336 70.265 268.461 210.739-55.337-70.266-268.46z" fill="#2091F9"/><path d="M474.699 141.435H256.84v277.533h217.859V141.435z" fill="#F5F5F5"/><path opacity=".05" d="M180.344 234.299l186.132 110.872-186.132 110.872V234.299z" fill="#000"/><path d="M178.934 234.299l186.132 110.872-186.132 110.872V234.299z" fill="#fff"/><path opacity=".05" d="M549.789 234.299L363.656 345.171l186.133 110.872V234.299z" fill="#000"/><path d="M551.199 234.299L365.066 345.171l186.133 110.872V234.299z" fill="#fff"/><path opacity=".05" d="M178.934 452.512l186.132-145.475 186.132 145.475H178.934z" fill="#000"/><path d="M178.934 456.042l186.132-145.475 186.132 145.475H178.934z" fill="#fff"/><path d="M216.758 472.885s-9.349-31.778 1.756-55.181a50.284 50.284 0 004.054-31.496 84.626 84.626 0 00-4.449-14.781" stroke="#535461" stroke-width="2" stroke-miterlimit="10"/><path d="M225.023 356.639c0 3.898-7.051 15.19-7.051 15.19s-7.05-11.299-7.05-15.19c0-1.873.743-3.669 2.065-4.993a7.041 7.041 0 019.971 0 7.067 7.067 0 012.065 4.993zm11.669 21.582c-2.115 3.269-14.157 8.919-14.157 8.919s.219-13.319 2.334-16.589a7.044 7.044 0 019.57-1.823 7.064 7.064 0 012.253 9.493zm-.538 36.87c-3.476 1.751-16.716.543-16.716.543s6.902-11.383 10.371-13.135a7.045 7.045 0 019.737 2.982 7.07 7.07 0 01-3.392 9.617v-.007zm-6.655 27.816c-3.131 2.317-16.386 3.362-16.386 3.362s4.879-12.387 8.01-14.703a7.042 7.042 0 019.581 1.675 7.071 7.071 0 01-1.205 9.666zm-21.777-55.019c2.82 2.712 15.786 5.53 15.786 5.53s-3.18-12.931-5.972-15.642a7.04 7.04 0 00-9.726.37 7.066 7.066 0 00-.088 9.749v-.007zm-7.376 32.633c3.476 1.752 16.717.544 16.717.544s-6.902-11.384-10.371-13.135a7.037 7.037 0 00-5.252-.223 7.05 7.05 0 00-3.946 3.478 7.063 7.063 0 002.852 9.343v-.007zm-2.822 32.697c3.131 2.316 16.386 3.361 16.386 3.361s-4.879-12.386-8.01-14.703a7.053 7.053 0 00-5.336-1.54 7.051 7.051 0 00-5.988 5.383 7.067 7.067 0 002.948 7.499z" fill="#6C63FF"/><path opacity=".5" d="M356.957 154.147h-87.426v7.062h87.426v-7.062zm101.527 28.247H269.531v7.062h188.953v-7.062zm0 18.361H269.531v7.062h188.953v-7.062z" fill="#6C63FF"/><path opacity=".4" d="M458.484 219.116H269.531v7.062h188.953v-7.062zm0 18.361H269.531v7.062h188.953v-7.062z" fill="#6C63FF"/><path opacity=".3" d="M377.403 255.838H269.531v7.062h107.872v-7.062zm39.483 18.361H269.531v7.062h147.355v-7.062z" fill="#6C63FF"/></g><defs><linearGradient id="paint0_linear_66_3842" x1="74.446" y1="250.421" x2="225.34" y2="250.421" gradientUnits="userSpaceOnUse"><stop stop-color="gray" stop-opacity=".25"/><stop offset=".54" stop-color="gray" stop-opacity=".12"/><stop offset="1" stop-color="gray" stop-opacity=".1"/></linearGradient><linearGradient id="paint1_linear_66_3842" x1="245956" y1="280247" x2="245956" y2="77563.5" gradientUnits="userSpaceOnUse"><stop stop-color="gray" stop-opacity=".25"/><stop offset=".54" stop-color="gray" stop-opacity=".12"/><stop offset="1" stop-color="gray" stop-opacity=".1"/></linearGradient><clipPath id="clip0_66_3842"><path fill="#fff" transform="translate(.5 .303)" d="M0 0h677v514H0z"/></clipPath></defs></svg>