<svg width="24" height="24" viewBox="0 0 24 24" fill="none" xmlns="http://www.w3.org/2000/svg">
<g clip-path="url(#clip0_122_130)">
<path d="M17.5 24C13.916 24 11 21.084 11 17.5C11 13.916 13.916 11 17.5 11C21.084 11 24 13.916 24 17.5C24 21.084 21.084 24 17.5 24ZM17.5 12C14.467 12 12 14.468 12 17.5C12 20.532 14.467 23 17.5 23C20.533 23 23 20.532 23 17.5C23 14.468 20.533 12 17.5 12Z" fill="white"/>
<path d="M16.5 20.0002C16.368 20.0002 16.24 19.9472 16.146 19.8542L14.146 17.8542C13.951 17.6592 13.951 17.3422 14.146 17.1472C14.341 16.9522 14.658 16.9522 14.853 17.1472L16.475 18.7692L19.623 15.1712C19.805 14.9622 20.121 14.9422 20.329 15.1242C20.537 15.3062 20.558 15.6212 20.376 15.8292L16.876 19.8292C16.785 19.9332 16.654 19.9952 16.516 20.0002C16.511 20.0002 16.505 20.0002 16.5 20.0002Z" fill="white"/>
<path d="M9.5 21H2.5C1.122 21 0 19.879 0 18.5V5.5C0 4.121 1.122 3 2.5 3H4.5C4.776 3 5 3.224 5 3.5C5 3.776 4.776 4 4.5 4H2.5C1.673 4 1 4.673 1 5.5V18.5C1 19.327 1.673 20 2.5 20H9.5C9.776 20 10 20.224 10 20.5C10 20.776 9.776 21 9.5 21Z" fill="white"/>
<path d="M16.5 9C16.224 9 16 8.776 16 8.5V5.5C16 4.673 15.327 4 14.5 4H12.5C12.224 4 12 3.776 12 3.5C12 3.224 12.224 3 12.5 3H14.5C15.878 3 17 4.121 17 5.5V8.5C17 8.776 16.776 9 16.5 9Z" fill="white"/>
<path d="M11.5 6H5.5C4.673 6 4 5.327 4 4.5V2.5C4 2.224 4.224 2 4.5 2H6.05C6.283 0.86 7.292 0 8.5 0C9.708 0 10.717 0.86 10.95 2H12.5C12.776 2 13 2.224 13 2.5V4.5C13 5.327 12.327 6 11.5 6ZM5 3V4.5C5 4.775 5.224 5 5.5 5H11.5C11.776 5 12 4.775 12 4.5V3H10.5C10.224 3 10 2.776 10 2.5C10 1.673 9.327 1 8.5 1C7.673 1 7 1.673 7 2.5C7 2.776 6.776 3 6.5 3H5Z" fill="white"/>
<path d="M13.5 9H3.5C3.224 9 3 8.776 3 8.5C3 8.224 3.224 8 3.5 8H13.5C13.776 8 14 8.224 14 8.5C14 8.776 13.776 9 13.5 9Z" fill="white"/>
<path d="M10.5 12H3.5C3.224 12 3 11.776 3 11.5C3 11.224 3.224 11 3.5 11H10.5C10.776 11 11 11.224 11 11.5C11 11.776 10.776 12 10.5 12Z" fill="white"/>
<path d="M8.5 15H3.5C3.224 15 3 14.776 3 14.5C3 14.224 3.224 14 3.5 14H8.5C8.776 14 9 14.224 9 14.5C9 14.776 8.776 15 8.5 15Z" fill="white"/>
</g>
<defs>
<clipPath id="clip0_122_130">
<rect width="24" height="24" fill="white"/>
</clipPath>
</defs>
</svg>
