<svg width="194" height="64" fill="none" xmlns="http://www.w3.org/2000/svg"><g clip-path="url(#clip0_66_4717)"><path d="M187.716 38.805l5.354 3.551c-1.738 2.546-5.894 6.915-13.08 6.915-8.923 0-15.568-6.868-15.568-15.605 0-9.297 6.716-15.605 14.817-15.605 8.148 0 12.14 6.447 13.432 9.928l.704 1.776-20.993 8.643c1.597 3.13 4.086 4.72 7.608 4.72 3.523 0 5.965-1.73 7.726-4.323zm-16.461-5.63l14.019-5.793c-.775-1.939-3.076-3.317-5.824-3.317-3.498 0-8.359 3.084-8.195 9.11z" fill="#FF302F"/><path d="M154.301 2.152h6.762v45.694h-6.762V2.152z" fill="#20B15A"/><path d="M143.639 19.276h6.528v27.752c0 11.517-6.833 16.259-14.911 16.259-7.608 0-12.187-5.093-13.902-9.227l5.988-2.477c1.08 2.547 3.687 5.56 7.914 5.56 5.189 0 8.383-3.2 8.383-9.18V45.72h-.235c-1.55 1.869-4.508 3.55-8.266 3.55-7.843 0-15.029-6.797-15.029-15.557 0-8.808 7.186-15.675 15.029-15.675 3.734 0 6.716 1.658 8.266 3.48h.235v-2.242zm.469 14.437c0-5.514-3.686-9.532-8.383-9.532-4.743 0-8.735 4.018-8.735 9.532 0 5.442 3.992 9.39 8.735 9.39 4.697.024 8.384-3.948 8.384-9.39h-.001z" fill="#3686F7"/><path d="M82.986 33.596c0 8.994-7.045 15.605-15.687 15.605-8.64 0-15.686-6.635-15.686-15.605 0-9.04 7.045-15.628 15.686-15.628 8.642 0 15.687 6.587 15.687 15.628zm-6.857 0c0-5.607-4.086-9.462-8.83-9.462-4.743 0-8.829 3.855-8.829 9.462 0 5.56 4.086 9.46 8.83 9.46 4.743 0 8.829-3.9 8.829-9.46z" fill="#FF302F"/><path d="M117.243 33.666c0 8.994-7.044 15.605-15.686 15.605-8.641 0-15.686-6.611-15.686-15.605 0-9.04 7.045-15.605 15.686-15.605 8.642 0 15.686 6.541 15.686 15.605zm-6.88 0c0-5.606-4.086-9.461-8.83-9.461-4.743 0-8.829 3.855-8.829 9.46 0 5.56 4.086 9.462 8.829 9.462 4.767 0 8.83-3.925 8.83-9.461z" fill="#FFBA40"/><path d="M25.829 42.426c-9.84 0-17.541-7.896-17.541-17.684s7.701-17.684 17.54-17.684c5.308 0 9.182 2.079 12.047 4.742l4.72-4.695C38.603 3.297 33.273.4 25.83.4 12.35.4 1.008 11.333 1.008 24.742c0 13.41 11.342 24.342 24.82 24.342 7.28 0 12.775-2.383 17.073-6.821 4.414-4.392 5.776-10.56 5.776-15.559 0-1.565-.188-3.177-.4-4.368H25.83v6.494h15.99c-.47 4.065-1.761 6.845-3.663 8.737-2.301 2.313-5.94 4.86-12.328 4.86z" fill="#3686F7"/></g><defs><clipPath id="clip0_66_4717"><path fill="#fff" transform="translate(.727 .303)" d="M0 0h193v63H0z"/></clipPath></defs></svg>