<svg width="31" height="39" fill="none" xmlns="http://www.w3.org/2000/svg"><path d="M14.222 37.977a1.913 1.913 0 002.223 0c.583-.412 14.277-10.3 14.222-22.644C30.667 6.88 23.787 0 15.333 0S0 6.879 0 15.324c-.055 12.353 13.64 22.24 14.222 22.653zm1.112-34.144c6.342 0 11.5 5.158 11.5 11.51.04 8.506-8.41 16.144-11.5 18.65-3.088-2.508-11.54-10.148-11.5-18.66 0-6.342 5.157-11.5 11.5-11.5z" fill="#fff"/><path d="M14.999 23.137c4.228 0 7.666-3.439 7.666-7.667S19.227 7.803 15 7.803c-4.229 0-7.667 3.439-7.667 7.667s3.439 7.667 7.667 7.667zm0-11.5a3.837 3.837 0 013.833 3.833 3.837 3.837 0 01-3.833 3.833 3.837 3.837 0 01-3.834-3.833A3.837 3.837 0 0115 11.637z" fill="#fff"/></svg>