<svg width="1200" height="216" fill="none" xmlns="http://www.w3.org/2000/svg"><mask id="mask0" mask-type="alpha" maskUnits="userSpaceOnUse" x="0" y="0" width="1200" height="216"><rect width="1200" height="216" rx="16" fill="#3671E9"/></mask><g mask="url(#mask0)"><path d="M1184.65 155.394c2.85-19.427-11.89-29.941-32.23-36.911l6.63-26.398-16-4-6.4 25.712c-4.23-1.028-8.57-2.057-12.91-2.971l6.4-25.826-16-4-6.52 26.284c-3.54-.8-6.97-1.6-10.28-2.4v-.115l-22.17-5.485-4.23 17.142s11.89 2.742 11.66 2.856c6.51 1.6 7.65 5.943 7.42 9.371l-7.54 30.055c.46.114 1.03.228 1.72.571-.57-.114-1.15-.228-1.72-.457l-10.51 42.054c-.8 1.942-2.86 4.914-7.31 3.771.11.228-11.66-2.857-11.66-2.857l-8 18.398 20.91 5.257c3.89 1.029 7.66 1.943 11.43 2.971l-6.63 26.627 16 3.999 6.63-26.398c4.34 1.143 8.68 2.286 12.8 3.314l-6.52 26.284 16 4 6.63-26.627c27.43 5.143 48 3.086 56.57-21.712 6.97-19.884-.35-31.426-14.74-38.968 10.62-2.4 18.51-9.371 20.57-23.541zm-36.69 51.424c-4.91 19.884-38.51 9.142-49.36 6.399l8.79-35.311c10.86 2.743 45.83 8.114 40.57 28.912zm5.03-51.767c-4.57 18.17-32.45 8.913-41.48 6.628l8-31.997c9.03 2.285 38.17 6.513 33.48 25.369z" fill="url(#paint0_linear)"/><path d="M101.41 155.686L22 108.823l79.361 111.875 79.451-111.875-79.451 46.863h.049zM102.59-38L23.213 93.746l79.377 46.944L182 93.795 102.59-38z" fill="url(#paint1_linear)"/></g><defs><linearGradient id="paint0_linear" x1="1115" y1="81" x2="1115" y2="266.242" gradientUnits="userSpaceOnUse"><stop stop-color="#fff" stop-opacity=".16"/><stop offset="1" stop-color="#fff" stop-opacity="0"/></linearGradient><linearGradient id="paint1_linear" x1="102" y1="-38" x2="102" y2="186.414" gradientUnits="userSpaceOnUse"><stop stop-color="#fff" stop-opacity=".16"/><stop offset="1" stop-color="#fff" stop-opacity="0"/></linearGradient></defs></svg>